<svg width="74" height="194" viewBox="0 0 74 194" fill="none" xmlns="http://www.w3.org/2000/svg">
<g clip-path="url(#clip0_4068_12464)">
<mask id="mask0_4068_12464" style="mask-type:alpha" maskUnits="userSpaceOnUse" x="0" y="0" width="74" height="194">
<path d="M0 0H74V194H0V0Z" fill="#D9D9D9"/>
</mask>
<g mask="url(#mask0_4068_12464)">
<path d="M1 119.398C4.5 117.698 7.2 115.898 9.1 113.798C11 111.798 12.4 109.698 13.1 107.698C13.8 105.598 14.5 102.798 15 99.4984C16 94.8984 17 91.3984 18 88.8984C18.7 86.9984 19.6 85.0984 20.6 83.4984C21.7 81.7984 22.4 80.7984 22.7 80.2984C24.5 77.7984 25.8 75.5984 26.6 73.5984C27.4 71.5984 27.9 69.1984 27.9 66.4984C27.9 63.7984 27.4 61.2984 26.5 58.8984C25.6 56.4984 24.2 53.5984 22.5 50.0984C20.7 46.4984 19.4 43.4984 18.5 41.1984C17.7 38.8984 17.2 36.3984 17.2 33.7984C17.2 30.8984 17.8 28.3984 19 26.1984C20.2 23.8984 21.9 22.1984 24 21.1984C26 20.2984 29.1 19.5984 33.1 19.2984C33.7 19.1984 34.5 19.0984 35.5 18.9984C36.5 18.8984 37.7 18.6984 39 18.3984L39.1 20.0984C36 20.7984 33.4 22.3984 31.3 24.6984C29.2 26.9984 28.1 30.2984 28.1 34.6984C28.1 37.1984 28.4 39.5984 29.1 41.7984C29.7 43.9984 30.7 46.5984 32 49.3984C33 51.6984 33.8 53.7984 34.4 55.4984C35 57.2984 35.2 59.0984 35.2 60.8984C35.2 62.4984 34.9 64.1984 34.4 65.9984L35.1 66.2984C39.4 61.8984 42.3 57.4984 44 53.1984C45.7 48.7984 47 43.7984 47.9 38.0984C48.6 33.9984 49.4 30.7984 50.1 28.3984C50.9 25.9984 52.3 23.7984 54.1 21.6984C55.9 19.7984 57.7 18.5984 59.5 18.0984C61.4 17.4984 63.7 17.1984 66.5 17.0984C67 17.0984 67.8 17.0984 69.1 16.9984C70.4 16.8984 71.7 16.6984 72.9 16.3984L73 18.0984C69.9 18.9984 67.5 20.3984 65.8 22.0984C64.1 23.8984 62.9 25.8984 62 28.0984C61.2 30.2984 60.3 33.2984 59.4 37.0984C58.8 39.2984 58.2 41.6984 57.5 44.1984C56.8 46.5984 55.9 48.8984 55 50.9984C53.7 53.6984 52.3 55.9984 50.8 57.8984C49.4 59.7984 47.6 61.8984 45.2 64.2984C41.7 68.2984 39.4 70.9984 38.2 72.4984C35.3 76.3984 33.2 80.1984 31.9 83.8984C30.6 87.5984 29.3 92.0984 28.1 97.4984C27.2 102.098 26.2 105.798 25 108.498C23.9 111.198 22.1 113.498 19.7 115.598C17.9 116.998 16.3 117.898 14.7 118.198C13.1 118.698 11.1 118.998 8.7 119.198C8.4 119.198 7.5 119.298 6.1 119.498C4.6 119.698 3.1 120.098 1.6 120.598L1 119.398Z" fill="white"/>
</g>
</g>
<defs>
<clipPath id="clip0_4068_12464">
<rect width="74" height="194" fill="white"/>
</clipPath>
</defs>
</svg>
