<svg width="105" height="194" viewBox="0 0 105 194" fill="none" xmlns="http://www.w3.org/2000/svg">
<g clip-path="url(#clip0_4068_12529)">
<mask id="mask0_4068_12529" style="mask-type:alpha" maskUnits="userSpaceOnUse" x="0" y="0" width="105" height="194">
<path d="M0 0H105V194H0V0Z" fill="#D9D9D9"/>
</mask>
<g mask="url(#mask0_4068_12529)">
<path d="M82.9002 103.502C76.5002 116.302 67.6002 122.702 56.4002 122.702C54.1002 122.702 51.6002 122.402 48.9002 121.702C46.2002 121.002 43.6002 120.202 40.8002 119.202C38.1002 118.202 35.5002 117.102 32.8002 116.002C30.2002 114.902 27.8002 113.802 25.5002 112.802C23.2002 111.802 21.2002 111.002 19.3002 110.302C17.5002 109.602 16.1002 109.302 15.0002 109.302C13.9002 109.302 12.8002 109.502 11.8002 109.902C10.9002 110.202 9.8002 110.902 8.5002 111.802C7.3002 112.702 5.9002 113.902 4.2002 115.402C2.5002 116.902 0.400195 118.702 -2.0998 121.002L-2.2998 121.102L14.0002 105.402L34.8002 86.3016C32.3002 85.6016 29.9002 84.8016 27.7002 83.9016C25.5002 83.0016 23.6002 81.9016 21.9002 80.7016C20.2002 79.5016 18.9002 78.2016 17.9002 76.6016C17.0002 75.0016 16.5002 73.2016 16.5002 71.1016C16.5002 69.2016 16.8002 67.6016 17.5002 66.1016C18.2002 64.6016 19.2002 63.2016 20.5002 61.8016C21.8002 60.4016 23.4002 59.1016 25.2002 57.7016C27.1002 56.4016 29.1002 55.0016 31.3002 53.4016C30.0002 54.9016 29.2002 56.2016 28.8002 57.3016C28.5002 58.4016 28.3002 59.6016 28.3002 61.1016C28.3002 62.8016 28.8002 64.3016 29.9002 65.6016C31.0002 66.8016 32.5002 67.9016 34.4002 68.9016C36.3002 69.8016 38.5002 70.7016 40.9002 71.4016C43.4002 72.1016 45.9002 72.8016 48.7002 73.5016L60.1002 63.2016C56.2002 62.1016 52.3002 61.1016 48.5002 60.1016C44.8002 59.0016 41.5002 57.9016 38.5002 56.5016C35.6002 55.1016 33.2002 53.5016 31.4002 51.6016C29.6002 49.7016 28.7002 47.4016 28.7002 44.7016C28.7002 42.6016 29.5002 40.5016 31.1002 38.5016C32.8002 36.5016 35.0002 34.2016 37.9002 31.6016C40.6002 29.2016 42.8002 27.1016 44.7002 25.3016C46.6002 23.6016 48.5002 22.0016 50.4002 20.4016C51.5002 19.6016 52.3002 19.0016 53.0002 18.5016C53.7002 18.0016 54.4002 17.7016 55.1002 17.4016C55.6002 17.1016 56.3002 16.9016 57.0002 16.8016C57.8002 16.7016 58.8002 16.6016 60.1002 16.6016C62.2002 16.6016 64.9002 17.1016 68.1002 18.0016C71.4002 18.9016 74.7002 20.0016 78.2002 21.1016C81.7002 22.2016 85.1002 23.2016 88.3002 24.1016C91.6002 25.0016 94.2002 25.5016 96.4002 25.5016C98.6002 25.5016 100.2 25.2016 101.5 24.7016C102.8 24.2016 104.3 23.2016 105.9 21.7016L74.6002 50.4016C78.4002 51.5016 82.1002 52.8016 85.7002 54.2016C89.3002 55.5016 92.5002 57.1016 95.3002 59.1016C98.1002 61.0016 100.3 63.3016 102 65.9016C103.7 68.5016 104.5 71.6016 104.5 75.1016C104.5 77.9016 103.9 80.5016 102.6 83.0016C101.4 85.4016 99.8002 87.8016 97.9002 90.0016C96.0002 92.2016 93.8002 94.3016 91.4002 96.3016C89.0002 98.2016 86.7002 100.002 84.4002 101.602C85.5002 100.502 86.4002 99.5016 87.2002 98.4016C88.1002 97.3016 88.8002 96.1016 89.4002 94.9016C90.0002 93.6016 90.4002 92.3016 90.7002 90.8016C91.0002 89.3016 91.2002 87.7016 91.2002 85.8016C91.2002 82.4016 90.3002 79.5016 88.5002 77.2016C86.8002 74.8016 84.5002 72.7016 81.6002 71.0016C78.7002 69.3016 75.5002 67.8016 71.7002 66.6016C68.0002 65.3016 64.3002 64.2016 60.4002 63.2016L49.2002 73.8016C52.7002 74.7016 56.1002 75.5016 59.6002 76.4016C63.1002 77.2016 66.2002 78.2016 69.0002 79.4016C71.8002 80.5016 74.0002 81.9016 75.8002 83.5016C77.5002 85.1016 78.4002 87.0016 78.4002 89.4016C78.4002 91.5016 77.9002 93.5016 76.8002 95.5016C75.7002 97.4016 74.4002 99.1016 72.9002 100.702C71.4002 102.302 69.9002 103.702 68.2002 105.002C66.6002 106.202 65.2002 107.202 64.0002 108.002C65.3002 107.002 66.3002 106.002 66.9002 105.002C67.6002 103.902 67.9002 102.502 67.9002 100.702C67.9002 98.6016 66.9002 97.0016 64.8002 95.6016C62.8002 94.3016 60.2002 93.1016 57.1002 92.1016C54.0002 91.1016 50.5002 90.2016 46.6002 89.4016C42.7002 88.5016 39.0002 87.6016 35.3002 86.6016L15.5002 104.902C17.5002 103.002 19.2002 101.602 20.7002 100.602C22.2002 99.6016 23.4002 98.9016 24.5002 98.4016C25.6002 97.9016 26.6002 97.7016 27.3002 97.6016C28.1002 97.5016 28.8002 97.5016 29.3002 97.5016C30.6002 97.5016 32.3002 97.8016 34.3002 98.5016C36.3002 99.1016 38.5002 99.9016 40.8002 100.802C43.1002 101.702 45.6002 102.802 48.2002 103.902C50.9002 105.002 53.5002 106.002 56.1002 106.902C58.7002 107.802 61.2002 108.602 63.6002 109.302C66.1002 109.902 68.3002 110.202 70.4002 110.202C73.5002 110.202 75.9002 109.702 77.8002 108.802C79.5002 107.602 81.2002 105.902 82.9002 103.502V103.502ZM40.5002 33.7016C40.5002 36.0016 41.5002 38.0016 43.4002 39.6016C45.4002 41.2016 48.0002 42.6016 51.2002 43.9016C54.4002 45.0016 58.0002 46.1016 62.0002 47.1016C66.1002 48.1016 70.1002 49.2016 74.3002 50.4016L101.8 25.2016C99.1002 27.6016 96.7002 29.6016 94.5002 31.2016C92.4002 32.7016 90.5002 33.9016 88.8002 34.8016C87.1002 35.7016 85.6002 36.3016 84.2002 36.6016C82.8002 36.9016 81.4002 37.1016 80.0002 37.1016C78.0002 37.1016 75.5002 36.6016 72.5002 35.7016C69.5002 34.8016 66.4002 33.7016 63.2002 32.6016C60.0002 31.5016 56.9002 30.4016 53.8002 29.5016C50.7002 28.6016 48.2002 28.1016 46.1002 28.1016C44.1002 28.1016 42.5002 28.4016 41.2002 28.9016C40.9002 29.6016 40.6002 30.3016 40.5002 31.0016C40.6002 31.6016 40.5002 32.5016 40.5002 33.7016V33.7016Z" fill="white"/>
</g>
</g>
<defs>
<clipPath id="clip0_4068_12529">
<rect width="105" height="194" fill="white"/>
</clipPath>
</defs>
</svg>
