<svg width="35" height="194" viewBox="0 0 35 194" fill="none" xmlns="http://www.w3.org/2000/svg">
<g clip-path="url(#clip0_4068_12399)">
<mask id="mask0_4068_12399" style="mask-type:alpha" maskUnits="userSpaceOnUse" x="0" y="0" width="35" height="194">
<path d="M0 0H35V194H0V0Z" fill="#D9D9D9"/>
</mask>
<g mask="url(#mask0_4068_12399)">
<path d="M1.59961 110.798C1.69961 107.898 1.99961 105.098 2.69961 102.198C3.29961 99.3984 3.89961 96.7984 4.59961 94.3984C5.19961 92.5984 5.79961 90.7984 6.19961 88.8984C6.59961 86.8984 7.09961 85.1984 7.49961 83.6984C8.99961 78.2984 10.4996 72.9984 11.9996 67.5984C13.4996 62.1984 15.0996 56.8984 16.7996 51.4984L19.1996 43.4984C19.8996 41.4984 20.4996 39.5984 21.0996 37.6984C21.5996 35.6984 22.1996 33.5984 22.7996 31.2984C23.1996 30.0984 23.5996 28.9984 23.9996 27.7984C24.3996 26.5984 24.7996 25.1984 25.1996 23.3984C25.4996 22.1984 25.5996 21.2984 25.6996 20.5984C25.8996 19.7984 26.0996 19.0984 26.3996 18.4984C27.0996 18.1984 27.7996 17.8984 28.3996 17.3984C28.9996 16.8984 29.6996 16.9984 30.4996 17.6984C30.6996 17.8984 30.8996 17.8984 31.1996 17.7984C31.5996 17.6984 31.7996 17.9984 31.8996 18.5984C32.0996 18.6984 32.1996 18.6984 32.1996 18.6984C32.3996 18.8984 32.4996 19.0984 32.5996 19.3984C32.6996 19.5984 32.7996 19.8984 32.9996 20.4984C33.2996 20.9984 33.3996 22.2984 33.4996 24.3984C33.6996 26.4984 33.4996 28.8984 33.0996 31.5984C32.6996 32.2984 32.2996 33.0984 31.8996 33.8984C31.4996 34.6984 31.0996 35.4984 30.7996 36.1984C30.7996 36.5984 30.5996 37.2984 30.2996 38.1984C29.7996 39.3984 29.2996 40.3984 28.7996 41.3984C28.3996 42.3984 27.8996 43.4984 27.4996 44.6984C27.0996 45.8984 26.5996 47.2984 26.1996 48.6984C25.7996 49.9984 25.3996 51.2984 24.8996 52.3984C24.8996 52.5984 24.8996 52.7984 24.7996 52.8984V53.5984C24.3996 54.5984 23.8996 55.7984 23.4996 57.1984C23.0996 58.4984 22.5996 59.7984 22.1996 61.0984C21.7996 62.7984 21.2996 64.3984 20.6996 65.8984C20.2996 67.2984 19.7996 68.7984 19.3996 70.2984C18.8996 71.8984 18.3996 73.2984 17.8996 74.5984C17.4996 75.7984 17.0996 77.0984 16.5996 78.2984C15.5996 80.8984 14.6996 83.5984 13.8996 86.4984C13.1996 89.2984 12.2996 91.7984 11.3996 93.9984L6.59961 108.698C6.19961 109.898 5.79961 110.998 5.39961 112.198C4.99961 113.398 4.59961 114.498 4.19961 115.298C3.79961 115.498 3.29961 115.598 2.69961 115.598C2.19961 115.598 1.89961 115.198 1.79961 114.298C1.69961 113.698 1.69961 113.098 1.79961 112.398C1.79961 111.898 1.79961 111.398 1.59961 110.798V110.798Z" fill="white"/>
</g>
</g>
<defs>
<clipPath id="clip0_4068_12399">
<rect width="35" height="194" fill="white"/>
</clipPath>
</defs>
</svg>
