<svg width="64" height="194" viewBox="0 0 64 194" fill="none" xmlns="http://www.w3.org/2000/svg">
<g clip-path="url(#clip0_4068_12444)">
<mask id="mask0_4068_12444" style="mask-type:alpha" maskUnits="userSpaceOnUse" x="0" y="0" width="64" height="194">
<path d="M0 0H64V194H0V0Z" fill="#D9D9D9"/>
</mask>
<g mask="url(#mask0_4068_12444)">
<path d="M1 118.7C7.3 114.2 10.5 106.8 10.5 96.6C10.5 95 10.5 93.5 10.4 92.2C10.3 90.7 10.2 89.5 10.1 88.4C9.7 84.1 9.5 81 9.5 79C9.5 75.5 10 72.2 10.9 69.3C11.8 66.3 13.2 63 14.9 59.2C16.8 54.9 18.3 51.2 19.2 48.1C20.2 44.9 20.7 41.2 20.7 37C20.7 31.8 20.4 27.7 19.9 24.6C19.3 21.5 18.3 18.3 16.7 15L18 14C20.6 16.9 23.5 18.9 26.8 20.1C30.1 21.2 34.3 22.2 39.3 23C41.7 23.4 43.5 23.7 44.7 24C51.6 25.5 56.3 27.7 58.9 30.7C61.6 33.7 62.9 37.5 62.9 42.1C62.9 45.2 62.1 48 60.4 50.3C58.8 52.6 56.9 54.5 54.7 56C52.5 57.4 49.7 59 46.3 60.7C43.8 61.9 41.9 62.9 40.7 63.8C39.5 64.6 38.9 65.5 38.9 66.4C38.9 67.1 39.3 68.1 40 69.2C40.7 70.3 41.6 71.5 42.6 72.7C45.7 76.3 48.1 79.9 49.8 83.4C51.7 86.8 52.6 91 52.6 95.9L52.5 102.6C52.5 106.5 53.1 109.7 54.2 112.3C55.3 114.8 57.6 116.8 61.2 118.4L60.8 119.5C58.2 118.6 55.2 117.9 51.9 117.6C49.8 117.2 48.1 116.9 47 116.5C46 116.1 45 115.4 44.1 114.4C43 113.1 42.2 111.5 41.9 109.5C41.5 107.5 41.3 105 41.3 102V95.7C41.3 92.2 40.6 88.8 39.2 85.7C38 82.5 36.2 79 33.8 75C32.2 72.5 31.1 70.5 30.3 68.9C29.6 67.3 29.2 65.9 29.2 64.6C29.2 62.7 30 61.1 31.6 59.9C33.3 58.6 35.8 57.1 39.3 55.5C43.5 53.6 46.7 51.7 48.9 49.8C51.2 47.9 52.4 45.3 52.4 42C52.4 39.8 51.8 38 50.5 36.7C49.2 35.3 46.9 34.1 43.5 32.9C42.6 32.6 41.6 32.3 40.4 32.1C39.4 31.8 38.6 31.6 38 31.5C35.5 30.9 33.5 30.3 32 29.7C30.5 29.1 29 27.8 27.4 26.1L26.4 26.8C26.7 27.1 27.3 27.8 28.2 29C29.1 30.1 29.8 31.6 30.1 33.4C30.5 35.3 30.7 37.7 30.7 40.8C30.7 44.2 30.2 47.6 29.2 50.8C28.3 54 26.9 58.1 25 62.9C23.3 67.2 22.1 70.5 21.4 73C20.7 75.4 20.3 77.8 20.3 80.2C20.3 81.6 20.3 83 20.4 84.4C20.6 85.8 20.7 86.8 20.7 87.5C21.1 90.5 21.3 93.2 21.3 95.7C21.3 100.7 20.6 104.7 19.2 107.6C17.8 110.6 15.8 112.9 13.1 114.7C10.4 116.4 6.6 118 1.8 119.6L1 118.7Z" fill="white"/>
</g>
</g>
<defs>
<clipPath id="clip0_4068_12444">
<rect width="64" height="194" fill="white"/>
</clipPath>
</defs>
</svg>
