<svg width="72" height="194" viewBox="0 0 72 194" fill="none" xmlns="http://www.w3.org/2000/svg">
<g clip-path="url(#clip0_4068_12204)">
<mask id="mask0_4068_12204" style="mask-type:alpha" maskUnits="userSpaceOnUse" x="0" y="0" width="72" height="194">
<path d="M0 0H72V194H0V0Z" fill="#D9D9D9"/>
</mask>
<g mask="url(#mask0_4068_12204)">
<path d="M1.40039 17.8984H38.5004C45.9004 17.8984 52.0004 18.8984 56.8004 20.7984C61.6004 22.6984 65.1004 25.6984 67.4004 29.6984C69.7004 33.6984 70.9004 38.7984 70.9004 45.0984C70.9004 51.0984 69.9004 56.0984 67.9004 59.9984C65.9004 63.7984 63.2004 66.6984 59.9004 68.5984C56.6004 70.4984 52.9004 71.6984 48.6004 72.1984L49.7004 70.2984C55.1004 71.0984 59.2004 72.0984 62.2004 73.4984C65.2004 74.7984 67.4004 76.8984 68.9004 79.5984C70.3004 82.2984 71.0004 85.9984 71.0004 90.7984V120.798H43.1004V90.2984C43.1004 88.0984 42.7004 86.2984 42.0004 84.9984C41.3004 83.5984 40.2004 82.5984 38.7004 81.8984C37.2004 81.1984 35.3004 80.8984 33.0004 80.8984H29.1004V120.898H1.40039V17.8984ZM32.9004 61.3984C36.3004 61.3984 38.8004 60.3984 40.6004 58.3984C42.4004 56.2984 43.3004 53.1984 43.3004 48.9984C43.3004 45.0984 42.5004 42.2984 40.8004 40.6984C39.2004 38.9984 36.7004 38.0984 33.4004 38.0984H29.0004V61.3984H32.9004Z" fill="white"/>
</g>
</g>
<defs>
<clipPath id="clip0_4068_12204">
<rect width="72" height="194" fill="white"/>
</clipPath>
</defs>
</svg>
