<svg width="93" height="194" viewBox="0 0 93 194" fill="none" xmlns="http://www.w3.org/2000/svg">
<g clip-path="url(#clip0_4068_12499)">
<mask id="mask0_4068_12499" style="mask-type:alpha" maskUnits="userSpaceOnUse" x="0" y="0" width="93" height="194">
<path d="M0 0H93V194H0V0Z" fill="#D9D9D9"/>
</mask>
<g mask="url(#mask0_4068_12499)">
<path d="M52.7996 120.998H39.9996V101.798H33.5996V82.4984H27.1996V63.2984H20.7996V44.0984H14.3996V24.7984H1.59961V18.3984H39.9996V24.7984H27.1996V43.9984H33.5996V63.2984H39.9996V82.4984H46.3996V101.798H52.7996V120.998ZM78.4996 44.0984H71.9996V24.7984H59.1996V18.3984H91.1996V24.7984H78.4996V44.0984ZM71.9996 63.2984H65.5996V44.0984H71.9996V63.2984ZM65.5996 82.4984H59.1996V63.2984H65.5996V82.4984ZM59.1996 101.798H52.7996V82.4984H59.1996V101.798Z" fill="white"/>
</g>
</g>
<defs>
<clipPath id="clip0_4068_12499">
<rect width="93" height="194" fill="white"/>
</clipPath>
</defs>
</svg>
