<svg width="69" height="194" viewBox="0 0 69 194" fill="none" xmlns="http://www.w3.org/2000/svg">
<g clip-path="url(#clip0_4068_12294)">
<mask id="mask0_4068_12294" style="mask-type:alpha" maskUnits="userSpaceOnUse" x="0" y="0" width="69" height="194">
<path d="M0 0H69V194H0V0Z" fill="#D9D9D9"/>
</mask>
<g mask="url(#mask0_4068_12294)">
<path d="M38.5998 35.1992C47.3998 35.1992 48.8998 50.7992 55.9998 50.7992C61.2998 50.7992 68.5998 34.5992 68.5998 22.2992C68.5998 20.0992 67.1998 18.2992 63.9998 18.2992C61.6998 18.2992 46.2998 19.4992 35.3998 19.4992C21.9998 19.5992 10.9998 18.1992 3.6998 18.1992C0.699805 18.1992 0.299805 19.7992 0.299805 21.9992C0.299805 24.2992 1.3998 28.5992 1.3998 32.0992C1.3998 36.2992 0.499805 42.9992 0.499805 44.9992C0.499805 46.9992 1.3998 47.9992 3.1998 47.9992C7.0998 47.9992 14.3998 31.7992 24.2998 31.7992C29.1998 31.7992 31.4998 33.9992 31.4998 37.8992C31.3998 52.9992 3.2998 71.3992 3.2998 94.6992C3.2998 113.899 14.7998 120.999 35.5998 120.999C51.4998 120.999 67.8998 112.599 67.8998 94.5992C67.8998 90.2992 65.6998 87.9992 61.0998 81.7992C55.9998 74.8992 55.2998 70.4992 52.6998 70.4992C51.0998 70.4992 49.6998 71.3992 49.4998 76.7992C47.1998 109.399 47.6998 119.799 37.6998 119.799C28.5998 119.799 25.8998 107.499 25.8998 91.2992C25.9998 60.1992 31.2998 35.1992 38.5998 35.1992V35.1992Z" fill="white"/>
</g>
</g>
<defs>
<clipPath id="clip0_4068_12294">
<rect width="69" height="194" fill="white"/>
</clipPath>
</defs>
</svg>
