<svg fill="none" height="512" viewBox="0 0 289 512" width="289" xmlns="http://www.w3.org/2000/svg"><path d="m254.69 243.48-12.21 38.52v.09h-5.9c17.72 26.24 33.49 0 33.49 0h-5.22v-.09zm-7.42 0c.11-3.86-.06-7.94-.44-12.29l-.19-.67c6.82-1.88 13.28-4.23 17.68-6.52-3.06-7.58-13.91-19.35-18.26-26.27.22-8.82-3.48-17.63-8.27-25.58l.73-.44 18.58-106.91c4.95 0 8.96-4.01 8.96-8.96s-4.01-8.97-8.96-8.97-8.97 4.02-8.97 8.97c0 2.78 1.27 5.27 3.27 6.92l-.34.36s-11.68 30.22-46.12 31.89l-1.3-.05c.03-.59-.01-1.18-.15-1.76-.48-1.94-1.7-2.97-3.74-2.63l-.4-.16c1.34-3.35 2.41-6.7 2.83-10.78.35-3.39-.18-7.4-3.07-9.21-2.78-1.74-6.54-.62-9.1 1.43-2.56 2.04-4.38 4.86-6.76 7.1l-.59-.06c-.11-.05-.21-.09-.33-.12.28-2.44-.35-4.05-1.26-5.1l.19-.18c2.19-2.01 4.53-4.34 4.67-7.3.14-2.97-3.61-5.86-5.82-3.88 1.58-1.63-.08-4.61-2.3-5.09-.23-.05-.46-.08-.69-.1l.02-.55c3.97-8.55 13.59-13.5 23.01-13.85 9.41-.35 18.57 3.25 26.67 8.07-4.31-5.74-9.27-11.12-15.38-14.9-6.1-3.78-13.46-5.86-20.54-4.67-10.31 1.73-18.58 9.23-22.32 18.99l-.08.4c-1.73-.3-3.64.26-4.84 1.53 1.14-1.89-.47-4.85-2.77-5.39-2.52-.59-5.08.8-7.07 2.45-2.76 2.3-5.02 5.21-6.55 8.46.67-1.61-.7-3.64-2.45-4.07-1.86-.46-3.79.37-5.38 1.44s-3.02 2.41-4.79 3.15c2.13-2.32-1.04-6.29-4.17-6.01s-4.46 2.98-6.44 5.42c.19-1.64.67-2.8-1.84-3.62-.25-.01-.5 0-.74.03l-.03-.28c-.63-8.03-5.17-14.42-12.2-18.35-7.04-3.94-15.46-4.89-23.46-3.94-8.01.96-15.69 3.7-23.14 6.79 9.95-1.23 20.14-2.44 29.92-.25s17.56 12.6 20.73 22.11l.68.21c-.15.5-.25 1.03-.29 1.56-.17-.86-1.15-1.57-2.08-1.49-1.16.1-2.09 1.03-2.64 2.05-2.1 3.9 1.57 10.34 5.97 10.84-.06 2.43-.12 4.85-.18 7.28-.85-.31-2.11-.03-2.97.65l-.52-.91c-2.56-3.5-5.57-6.67-8.93-9.4-.56-.46-1.19-.93-1.92-.94-1.46 0-2.23 1.69-2.56 3.1-.28 1.18-.51 2.37-.69 3.59l-.85-.13c-1.33.28-2.72.58-3.79 1.42s-1.7 2.41-1.06 3.61c.75 1.4 2.76 1.57 4.25 1.01.32-.12.63-.26.93-.41-.18 4.61.27 9.33 1.38 13.89l-1 .25c-45.28.64-60.37-33.14-60.37-33.14l-.66-.1c2.18-1.63 3.59-4.24 3.59-7.18 0-4.95-4.01-8.97-8.96-8.97s-8.97 4.02-8.97 8.97 4.01 8.96 8.97 8.96l13.97 84.8.17.35c-.48.21-.93.46-1.34.79-.88.72-1.44 1.72-1.76 2.82l-.54-.15c-1.3-.63-4.05.72-4.8 1.96-.68 1.13-1.09 2.38-1.27 3.68l-.18-.03c-1.81.37-4.18 2.19-4.87 3.9-1.21 3 .09 5.79 1.42 8.73.46 1 .96 1.99 1.47 2.99l-.03.02c-7.12 6.7-11.25 15.91-11.25 26.47 0 6.03 1.45 11.73 4.02 16.75l-.85.35c-1.6 1.12-2.09 3.06-1.75 4.78.35 1.72 1.38 3.28 2.4 4.8-.92-.89-2.76-.63-3.73.2-.98.84-2.15 1.83-2.43 2.97-.18.69-.1 1.49.68 2.3.49.52 2.11 1.67 2.95 1.69-1.06 1.05-3.15 1.95-3.36 3.31-.22 1.36.3 2.84 1.57 3.71 1.33.92 3.26 1.02 4.92.64s3.12-1.2 4.55-1.99c-.67.53-1.39 1.89.21 2.81.16.09 1.65.79 3.07.38 2.56-.74 2.77-3.19 4.1-5.15.34.99 2.45 1.7 3.71 1.7-1.34 2.94-2.83 6.04-4.02 9.02l5.27 2.96c-1.31-.1-2.61.61-3.36 1.68-.75 1.08-1.31 3.28-1.07 4.57l-.7.09c-.76-.39-1.46-.73-2.74-1.33-.84 2.33-3.87 7.46-4.33 11.61-.28 2.5.21 5.07 1.01 7.45 1.81 5.39 7.2 9.21 12.86 9.7-.77 4.87-1.35 10.23-1.43 15.16-4.68 5.43-5.74 13.29-4.43 20.35.15.84.34 1.7.19 2.54-.13.73-.5 1.39-.86 2.05-2.84 5.16-5.4 10.79-5.11 16.67.02.43.12.95.53 1.08.27.09.57-.05.82-.19 1.56-.85 3.03-1.92 4.37-3.17l.41.43c0 7.03 1.36 15.37 3.45 24.09l-1.56.12c-1.54 0-3.06 1.02-3.54 2.49.38-1.48-.87-3.16-2.4-3.22-1.54-.07-2.92 1.5-2.67 3.01-.36-1.98-2.7-3.34-4.61-2.69-1.91.66-2.91 3.18-1.97 4.97-.63-1.04-2.29-.96-3.17-.13-.89.84-1.17 2.11-1.35 3.31-.27 1.82-.09 4.17 1.63 4.83-1.08-.22-2.21.51-2.71 1.5s-.46 2.18-.18 3.26c.28 1.09.85 2.18 1.83 2.76.98.57 2.42.43 3.04-.51.08 1.11 1.61 1.68 2.57 1.11.9-.53 1.94-1.99 1.94-3.08l2.32-.13c6.78 4.86 11.38 12.14 14.27 19.82 2.89 7.67 3.15 16.23 4.45 24.3l.61-.05c.06.72.13 1.43.21 2.15l.19.04c-.33 1.65-.55 3.33-.67 5.02-1.22-7.79-2.51-15.78-6.46-22.6-2.5-4.33-6.02-8.05-10.2-10.79-.51 7.5 1.27 15.13 5.04 21.63-3.62-2.02-8.4-.8-11.47 1.99-3.07 2.78-4.72 6.8-5.82 10.79 1.95-4.5 6.99-7.45 11.87-6.94 4.87.5 9.2 4.41 10.19 9.22-4.17-3.01-10.46-1.16-13.68 2.85-3.22 4-3.98 9.46-3.88 14.59 2.4-3.52 4.98-7.21 8.84-9.01 3.59-1.67 8.02-1.37 11.36.76 3.34 2.12 5.47 6.02 5.48 9.97l.22.29c-4.77 3.49-8.11 8.81-11.25 13.93-.36.59-.73 1.23-.69 1.92.07 1.27 1.42 2 2.59 2.49 6.74 2.77 13.81 5.13 21.1 5.2s14.89-2.44 19.58-8.02l1.09-.3c3.56 3.26 8.15 5.48 12.87 6.63 6.87 1.67 14.08 1.33 21.11.55 18.29-2.05 37.23-7.65 49.69-21.2-.21 6.75-1.1 13.44-.7 20.19 9.65.01 19.29.4 28.91 1.18.15-4.12.31-8.27.33-12.4h.25c17.25 7.35 39.39.18 49.05-15.89 7.15-11.88 7.52-26.65 5.69-40.39-1.81-13.59-8-25.85-11.94-38.99l-.23-.3c5.31-4.01 10.32-8.42 16.03-11.84-18.17-23.86-28.42-41.22-33.7-70.74l-.06-.23c6.07-1.47 11.81-9.43 15.46-14.35 6.69-9.04 9.53-18.83 9.85-30.73zm-221.86 170.72c2.5-.4 2.85-2.72 3.03-3.38.19-.73.05-1.89-.53-2.37-.58-.49-1.96-.43-2.34.22.38-1.48.38-3.05 0-4.53-.12-.45-.28-.9-.61-1.22-.63-.62-1.71-.54-2.45-.06-.69.44-1.16 1.15-1.59 1.85.05-.22-.16-.51-.42-.53-.33-.02-1.29-.43-2.56.44-2.31 1.6-2.91 4.13-2.43 6.9.27 1.49 1.31 1.63 1.31 1.63.26.21 1.82.13 1.82.13-1.06 1.53-2.37 3.2-1.54 4.87.32.64.8 1.25 1.48 1.49.55.2 1.23.07 1.62-.33-.27.67.32 1.61 1.09 1.87 1.55.55 3.3-.6 3.96-2.11.65-1.51.48-3.25.16-4.87zm262.02-386.34v455.48c0 14.83-12.03 26.86-26.87 26.86h-232.69c-14.84 0-26.87-12.03-26.87-26.86v-455.48c0-14.83 12.03-26.86 26.87-26.86h232.69c14.84 0 26.87 12.03 26.87 26.86zm-23.78 11.9c0-3.62-2.93-6.55-6.55-6.55s-6.56 2.93-6.56 6.55 2.94 6.55 6.56 6.55 6.55-2.93 6.55-6.55zm-226.49 0c0-3.62-2.93-6.55-6.55-6.55s-6.56 2.93-6.56 6.55 2.94 6.55 6.56 6.55 6.55-2.93 6.55-6.55z" fill="#c3e9f9"/><path d="m264.848 282.09h5.22s-15.77 26.24-33.49 0z" fill="#ffd127"/><path d="m264.85 282v.09h-22.37v-.09l12.21-38.52z" fill="#c3e9f9"/><path d="m257.099 46.8691c4.95 0 8.96 4.02 8.96 8.97s-4.01 8.96-8.96 8.96c-2.16 0-4.15-.77-5.7-2.04-2-1.65-3.27-4.14-3.27-6.92 0-4.95 4.02-8.97 8.97-8.97z" fill="#ffd127"/><path d="m257.099 33.2109c3.62 0 6.55 2.93 6.55 6.55s-2.93 6.55-6.55 6.55-6.56-2.93-6.56-6.55 2.94-6.55 6.56-6.55z" fill="#dabbf2"/><path d="m257.099 64.7998-18.58 106.9102-.73.44c-.09-.15-.18-.29-.27-.44-5.6-9.18-10.68-15.52-19.34-21.9l-.47-.05c.82-.75 1.27-1.78.91-2.89.48 2.34 2.9 4.23 5.24 3.76 2.02-.4 3.41-2.76 2.86-4.66.95 1.19 3.2 1.32 4.35.13 1.37-1.44 1.23-3.84.2-5.54-1.02-1.7-2.72-2.87-4.36-3.98 3.26-1.06 4.15-5.75 2.24-8.6-1.92-2.85-5.38-2.44-8.82-2.48.84-1.54 1.08-3.85.35-4.98-.91-1.75-2.85-2.77-5.03-2.42 1.3-4.49 1.38-7.28.51-10.5s-5.16-4.6-7.52-2.43c1.34-1.73 1.19-4.58-.33-6.1302-1.52-1.55-4.17-1.55-5.7-.01.47-1.31.95-2.69 1.03-4.07l1.3.05c34.44-1.67 46.12-31.89 46.12-31.89l.34-.36c1.55 1.27 3.54 2.04 5.7 2.04z" fill="#b6efa3"/><path d="m246.061 197.73c4.35 6.92 15.2 18.69 18.26 26.27-4.4 2.29-10.86 4.64-17.68 6.51-8.75 2.42-18.09 4.07-24.45 3.88l-.47.18c-3.56-9.21-7.38-18.32-12.54-26.72-6.35-10.35-12.35-18.48-23.27-23.79l-.56-.26c.89-1.86 2.37-3.51 4.33-4.16 2.49-.83 5.29.11 7.32 1.76 2.04 1.64 3.47 3.91 4.86 6.13.09-4.71-2.21-9.62-6.38-11.82-4.17-2.19-11.84-.53-14.07 3.63l-.24.15c-1.93-3.13-6.59-5.6-10.78-6l.03-.33c2.84-3.86 5.6-9.99 7.29-16.04l.02-.28c1.28.14 2.59-.13 3.68-.82-.36 2.38-.72 4.82-.25 7.18.46 2.35 1.82 5.04 4.19 5.47 3.3.6 6.24-4.11 6.46-6.43 6.86.29 10.84-6.53 8.34-13.33 0 0 4.55.71 4.69-3.22l.02-.08c1.31.3 2.77-.09 3.3-1.29 1.06 2.58 2.43 5.35 5.01 6.39 1.5.61 3.39.1 4.54-.95l.47.05c8.66 6.38 13.74 12.72 19.34 21.9.09.15.18.29.27.44 4.79 7.95 8.49 16.76 8.27 25.58z" fill="#fca265"/><path d="m129.239 354.81c-.26-8.88.08-17.98 1.16-26.98 1.1-9.16 2.96-18.22 5.72-26.83 2.88-8.98 6.67-17.88 12.96-24.9 4.42-4.93 10-8.82 16.16-11.25 3.79-1.49 7.86-2.44 11.91-2.09 6.53.56 12.27 4.39 17.64 8.16 3.9 2.73 7.81 5.54 10.9 9.16.42.49.83 1 1.21 1.51 5.79 7.73 7.68 17.8 9.16 27.43 3.35 21.79 5.7 43.72 7.64 65.69l.44-.04c3.13 1.22 9.25 1.22 12.53-1.08 1.02-.72 2.03-1.46 3.02-2.22l.23.3c3.94 13.14 10.13 25.4 11.94 38.99 1.83 13.74 1.46 28.51-5.69 40.39-9.66 16.07-31.8 23.24-49.05 15.89h-.25c.06-8.11-.37-16.2-2.2-24.08l-.52-.21c-3.91 2.5-9.99 1.73-12.57-2.3 0 2.63-2.43 5.01-5.05 4.95-2.62-.05-4.95-2.53-4.84-5.15-2.6 3.34-5.85 6.57-10.01 7.36s-9.18-1.98-9.27-6.22c-2.45 3.5-7.14 5.26-11.28 4.23-4.14-1.04-7.46-4.79-7.98-9.03-3.1 2.99-7.2 5.37-11.48 4.94-1.31-.13-2.59-.61-3.71-1.33-2.54-1.65-4.23-4.57-3.48-7.47-3.28 2.72-7.66 1.03-9.12-2.97 1.51-4.84 3.02-9.68 4.54-14.51 6.31-20.16 12.68-40.3 19.34-60.34z" fill="#fca265"/><path d="m246.829 231.19c.38 4.35.55 8.43.44 12.29h-22.33c-.23-.9-.49-1.74-.77-2.48-.81-2.14-1.62-4.29-2.45-6.43l.47-.18c6.36.19 15.7-1.46 24.45-3.87z" fill="#efede7"/><path d="m224.941 243.48h22.33c-.32 11.9-3.16 21.69-9.85 30.73-3.65 4.92-9.39 12.88-15.46 14.35-.63.15-1.27.23-1.91.23-5.41 0-9.92-3.88-12.8-7.47-.9-1.14-1.64-2.24-2.2-3.19-5.78-9.89-8.23-22.63-9.77-34.8 1.2.17 2.43.18 3.71.15z" fill="#efede7"/><path d="m255.718 359.53c-5.71 3.42-10.72 7.83-16.03 11.84-.99.76-2 1.5-3.02 2.22-3.28 2.3-9.4 2.3-12.53 1.08l-.44.04c-1.94-21.97-4.29-43.9-7.64-65.69-1.48-9.63-3.37-19.7-9.16-27.43l.35-.27c2.88 3.59 7.39 7.47 12.8 7.47.64 0 1.28-.08 1.91-.23l.06.23c5.28 29.52 15.53 46.88 33.7 70.74z" fill="#fca265"/><path d="m215.651 118.1c2.18-.35 4.12.67 5.03 2.42.73 1.13.49 3.44-.35 4.98 3.44.04 6.9-.37 8.82 2.48 1.91 2.85 1.02 7.54-2.24 8.6 1.64 1.11 3.34 2.28 4.36 3.98 1.03 1.7 1.17 4.1-.2 5.54-1.15 1.19-3.4 1.06-4.35-.13-.08-.3-.21-.59-.4-.85.07.33.21.61.4.85.55 1.9-.84 4.26-2.86 4.66-2.34.47-4.76-1.42-5.24-3.76.36 1.11-.09 2.14-.91 2.89-1.15 1.05-3.04 1.56-4.54.95-2.58-1.04-3.95-3.81-5.01-6.39-.53 1.2-1.99 1.59-3.3 1.29l-.02.08c-.14 3.93-4.69 3.22-4.69 3.22 2.5 6.8-1.48 13.62-8.34 13.33-.22 2.32-3.16 7.03-6.46 6.43-2.37-.43-3.73-3.12-4.19-5.47-.47-2.36-.11-4.8.25-7.18-1.09.69-2.4.96-3.68.82-1.58-.14-3.11-.88-4.1-2.13-1.79-2.25-1.58-5.85.47-7.88-2.29 1.32-5.34-.7-6.07-3.23-.73-2.54.12-5.24.97-7.74l-.04-.02c2.54-5.15 4.26-10.83 5.43-16.4.16-.76.31-1.53.45-2.29l.27.05c1.94-.21 3.82-1.04 5.29-2.34h.08c-.18 1.61-.36 3.21-.54 4.81 1.54-.95 3.19-1.73 4.9-2.32l.6-4.89.25.03c6.03-4.24 8.26-9.21 9.3-11.85 1.51-3.8398 3.07-7.0398 4.36-10.2298l.4.16c2.04-.34 3.26.6899 3.74 2.6299.14.58.18 1.1701.15 1.7601-.08 1.38-.56 2.76-1.03 4.07 1.53-1.54 4.18-1.54 5.7.01 1.52 1.5498 1.67 4.3998.33 6.1298 2.36-2.17 6.65-.79 7.52 2.43s.79 6.01-.51 10.5z" fill="#dabbf2"/><path d="m167.84 206.621c-1.42-2.65-1.99-5.76-1.52-8.73l.27-.16c-1.37-2.49-1.69-5.66-.46-8.12.52-1.04 3.12-3.21 3.65-3.47 6.76-3.3 5.89.69 6.24 2.26.5 2.25-.54 4.24 1.56 5.2s5.55.87 6.77-2.16c.25-2.22-.08-5.11.78-7.17.07-.16.14-.31.22-.47l.56.26c10.92 5.31 16.92 13.44 23.27 23.79 5.16 8.4 8.98 17.51 12.54 26.72.83 2.14 1.64 4.29 2.45 6.43.28.74.54 1.58.77 2.48h-25.95c-1.28.03-2.51.02-3.71-.15-.53-4.14-.95-8.22-1.37-12.1-.19-1.82-.35-3.78-1.55-5.15-1.23-1.42-3.24-1.83-5.11-2.11-.98-.14-1.97-.28-2.96-.41-2.75-.39-5.51-.83-8.09-1.69-1.41-.47-2.77-1.06-4.04-1.84-4.47-2.74-7.52-8.69-5.09-13.33z" fill="#efede7"/><path d="m211.44 35.8897c6.11 3.78 11.07 9.16 15.38 14.9-8.1-4.82-17.26-8.42-26.67-8.07-9.42.35-19.04 5.3-23.01 13.85l-.02.55c-1.99-.14-3.96.86-5.74 1.83 1.82-2.11 1.45-5.72-.75-7.43-.62-.48-1.36-.78-2.13-.91l.08-.4c3.74-9.76 12.01-17.26 22.32-18.99 7.08-1.19 14.44.89 20.54 4.67z" fill="#ffd127"/><path d="m131.31 243.62c-.9 5.79-2.04 11.58-3.66 17.05 1.93 4.84 4.88 8.94 8.11 13.03 3.42-3.96 21.26-19.51 21.11-20.53-.4-2.79-1.04-5.96-1.8-9.55h6.4c2.73.07 5.23-.05 7.62-1.41.86-.5 1.69-1.1 2.44-1.86 3.89-4 4.75-11.81 4.65-18.42l.02-.06c2.58.86 5.34 1.3 8.09 1.69-.11 6.61.76 12.65 4.65 16.64.75.77 1.58 1.37 2.44 1.86 1.26.73 2.56 1.1 3.9 1.27 1.54 12.17 3.99 24.91 9.77 34.8.56.95 1.3 2.05 2.2 3.19l-.35.27c-.38-.51-.79-1.02-1.21-1.51-3.09-3.62-7-6.43-10.9-9.16-5.37-3.77-11.11-7.6-17.64-8.16-4.05-.35-8.12.6-11.91 2.09-6.16 2.43-11.74 6.32-16.16 11.25-6.29 7.02-10.08 15.92-12.96 24.9-2.76 8.61-4.62 17.67-5.72 26.83l-.85-.04c-14.57-7.78-16.34-8.99-24.96-12.36l-.22-.28c.99-.77 1.98-1.53 2.97-2.3-3.41-4.29-6.63-8.43-10.5195-12.29-.91.77-1.84 1.52-2.77 2.26l-.36-.46c-1.43-2.37-4.05-3.96-6.81-4.13l-.18.13-.18-.36c-.63-1.23-1.44-2.38-2.38-3.4l-.02-.02c.5-.46 1-.91 1.5-1.36-5.25-5.54-10.55-11.13-16.86-15.42-1.54-1.05-3.97-2.17-5.78-1.71 1.82-1.41 3.22-3.26 3.84-5.47.19-.66.29-1.34.31-2.03h.07c.31.88 1.71 2.05 2.64 1.91.92-.15 1.68-1.01 1.71-1.95.73.56 1.49 1.14 2.39 1.35.9.2 1.98-.08 2.42-.9.29-.55.32-1.34.9-1.58.26-.12.57-.07.86-.02 1.33.19 2.78.12 3.88-.65 1.11-.77 1.68-2.4.96-3.53-.95-1.48-3.12-1.23-4.81-1.69-.19-.05-.37-.11-.55-.19l.03-.08c1.32-2.01 1.86-4.53 1.47-6.91 1.61 1.36 4.3.8 5.58-.87s1.28-4.08.41-5.99c-.88-1.91-2.5-3.39-4.25-4.56 2.05.6 4.45-.87 4.83-2.97.04-.19.05-.38.05-.57l1.04.03c1.85 1.37 4.6.9 6.37-.56 1.78-1.45 2.74-3.67 3.37-5.88 1.41 2.34 4.6695 3.35 7.1495 2.22s3.86-4.25 3.01-6.85c1.54 1.44 4.42.46 5.06-1.54s-.77-4.29-2.76-4.97c-1.99-.67-4.27.07-5.8 1.51-.85-1.91-3.4895-2.51-5.2795-1.58.56-.74.85-1.69.74-2.61-.12-1.03-.74-1.98-1.6-2.57 3.4695 1.27 5.9395-.95 6.4195-3.12.96 1.39 2.95 1.94 4.49 1.25s2.44-2.55 2.04-4.19c.4 1.79 2.87 2 4.64 1.55 1.93-.49 3.87-1.36 5.03-2.97 1.17-1.61 1.27-4.09-.19-5.44 1.63 0 2.81-1.95 2.32-3.5-.49-1.56-2.21-2.5-3.84-2.45-1.62.05-3.13.92-4.32 2.03.62-1.81-.2-4-1.85-4.96-1.66-.96-3.97-.58-5.23.85.33-1.42.72-2.94.26-4.32-1.14-3.43-5.21-3.56-6.65-3.3 3-1.83 4.04-4.07 3.84-6.67l.1-.31c.5.27 1.04.47 1.62.54 2.32.32 4.85-1.96 4.14-4.19 1.85.18 3.59-1.35 3.96-3.16.36-1.82-.49-3.74-1.87-4.97s-3.22-1.84-5.06-2.07c.39-2.24-1.08-4.65-3.26-5.31-2.17-.67-4.7395.5-5.6695 2.57-.5-2.24-3.34-3.38-5.49-2.59-2.14.79-3.52 2.99-3.94 5.24-1.39-1.31-3.61-1.63-5.31-.77s-2.76 2.84-2.53 4.73l-.4.5c-2.04-1.51-4.23-2.81-6.56-3.88l2.91-.09c5.07-5.61 3.52-11.65 1.5-15.06-.18-.3-.36-.6-.56-.89l.21-.14c5.81-12.1 14.02-13.18 17.32-13.82l.07-.07c.16.25.35.48.57.69 1.18 1.07 3.09.95 4.4695.14 1.38-.8 2.36-2.14 3.29-3.43-.76 2.72-1.13 5.54-1.08 8.37.01.87.08 1.78.57 2.5.92 1.35 3 1.4 4.4.55 1.39-.86 2.25-2.34 3.05-3.75-.36 2.28.25 4.71 1.65 6.55.18.03.37.04.55.04l.87.37c-.38 4.78 1.78 9.36 3.88 13.67 2.01 4.13 4.02 8.26 6.04 12.39 5.97-4.82 11.51-10.17 16.53-15.97l.07.06c.51 3.28.34 5.85 1.67 8.89.14.31.3.63.57.84h-.01c-.04.1-.07.2-.11.29l-.37-.14c-7.46 11.97-13.56 25.15-15.49 39.12-.92 6.67-2.07 12.93-4.73 19.11 1.7 2.24 2.33 5.25 4.03 7.49 2.48-5.52 4.25-10.74 4.99-16.74.79-6.34 2.12-10.06 4.32-21.47h.07c-.37 2.59-.64 5.19-.83 7.79-.69 9.6-.24 19.28-1.45 28.82-.41 3.23-.85 6.53-1.37 9.83zm-23.54 0-9.7195 37.74v.77h-7.11c17.7195 26.23 33.4895 0 33.4895 0h-7.22v-.77z" fill="#fca265"/><path d="m187.081 94.6995c-.44.18-.9.32-1.37.41.4 3.62-1.73 8.4995-5.14 11.5695-1.22 1.11-2.61 1.98-4.1 2.48l-.42-.05c.67-5.58.92-11.2095.77-16.8295l.16-.47c.21.15.42.3.63.46.44.34 1.04.7 1.48.37.21-.16.29-.43.36-.69.48-1.73.91-3.47 1.3-5.23l.03-.48c1.75.04 2.96-1.81 3.26-3.53.17-.94.16-1.95-.3-2.79-.24-.44-.63-.81-1.08-1.03l.59.06c2.38-2.24 4.2-5.06 6.76-7.1 2.56-2.05 6.32-3.17 9.1-1.43 2.89 1.81 3.42 5.82 3.07 9.21-.42 4.08-1.49 7.43-2.83 10.78-1.29 3.19-2.85 6.39-4.36 10.2295-1.04 2.64-3.27 7.61-9.3 11.85l-.25-.03c.24-2.01.49-4.02.73-6.03.04-.31.08-.63.23-.9.17-.34.49-.58.78-.84 2.78-2.46 2.95-7.3095.34-9.9695z" fill="#efede7"/><path d="m181.17 179.49.24-.15c2.23-4.16 9.9-5.82 14.07-3.63 4.17 2.2 6.47 7.11 6.38 11.82-1.39-2.22-2.82-4.49-4.86-6.13-2.03-1.65-4.83-2.59-7.32-1.76-1.96.65-3.44 2.3-4.33 4.16-.08.16-.15.31-.22.47-.86 2.06-.53 4.95-.78 7.17-1.22 3.03-4.67 3.12-6.77 2.16s-1.06-2.95-1.56-5.2c-.33-8.9-8.85-8.33-12.14-6.25-2.19 1.38-7.66 6.61-9.15 8.72.45-4.58 4.81-12.18 9.07-15.54.61-.48 1.22-.88 1.81-1.16 1.36-.66 3.03-.85 4.78-.68 4.19.4 8.85 2.87 10.78 6z" fill="#ffd127"/><path d="m194.67 442.86c1.83 7.88 2.26 15.97 2.2 24.08-.02 4.13-.18 8.28-.33 12.4-9.62-.78-19.26-1.17-28.91-1.18-.4-6.75.49-13.44.7-20.19-12.46 13.55-31.4 19.15-49.69 21.2-7.03.78-14.24 1.12-21.1105-.55-4.72-1.15-9.31-3.37-12.87-6.63-1.62-1.48-3.03-3.18-4.14-5.09 11.56-22.65 30.4805-10.87 37.0405-26.39l.4-.41c1.12.72 2.4 1.2 3.71 1.33 4.28.43 8.38-1.95 11.48-4.94.52 4.24 3.84 7.99 7.98 9.03 4.14 1.03 8.83-.73 11.28-4.23.09 4.24 5.11 7.01 9.27 6.22s7.41-4.02 10.01-7.36c-.11 2.62 2.22 5.1 4.84 5.15 2.62.06 5.05-2.32 5.05-4.95 2.58 4.03 8.66 4.8 12.57 2.3z" fill="#b6efa3"/><path d="m193.91 231.231c.42 3.88.84 7.96 1.37 12.1-1.34-.17-2.64-.54-3.9-1.27-.86-.49-1.69-1.09-2.44-1.86-3.89-3.99-4.76-10.03-4.65-16.64.99.13 1.98.27 2.96.41 1.87.28 3.88.69 5.11 2.11 1.2 1.37 1.36 3.33 1.55 5.15z" fill="#fca265"/><path d="m187.521 94.7192c2.61 2.66 2.44 7.5098-.34 9.9698-.29.26-.61.5-.78.84-.15.27-.19.59-.23.9-.24 2.01-.49 4.02-.73 6.03l-.6 4.89c-1.71.59-3.36 1.37-4.9 2.32l.54-4.8c.3-2.66.6-5.32.89-7.98l-.8-.21c3.41-3.07 5.54-7.9498 5.14-11.5698.47-.09.93-.23 1.37-.41z" fill="#c3e9f9"/><path d="m147.272 57.6595c1.53-3.25 3.79-6.16 6.55-8.46 1.99-1.65 4.55-3.04 7.07-2.45 2.3.54 3.91 3.5 2.77 5.39-.15.16-.28.33-.41.51.16-.16.3-.33.41-.51 1.2-1.27 3.11-1.83 4.84-1.53.77.13 1.51.43 2.13.91 2.2 1.71 2.57 5.32.75 7.43 1.78-.97 3.75-1.97 5.74-1.83.23.02.46.05.69.1 2.22.48 3.88 3.46 2.3 5.09 2.21-1.98 5.96.91 5.82 3.88-.14 2.96-2.48 5.29-4.67 7.3l-.19.18c-.93-1.07-2.17-1.55-3.04-1.71-8.18-1.5-16.68-1.28-24.77.65l-.14.11c-1.93-2.52-3.92-5.06-5.33-7.42-1.96 2.37-3.54 4.86-4.99 7.44l-.72-.4c-9-1.49-18.28-1.18-27.16.91-4.4-.5-8.07-6.94-5.97-10.84.55-1.02 1.48-1.95 2.64-2.05.93-.08 1.91.63 2.08 1.49-.02.21-.02.43-.02.65.06-.22.07-.44.02-.65.04-.53.14-1.06.29-1.56.95-3.32 4.05-6.01 7.5-6.29.24-.03.49-.04.74-.03 2.51.82 2.03 1.98 1.84 3.62 1.98-2.44 3.31-5.14 6.44-5.42s6.3 3.69 4.17 6.01c1.77-.74 3.2-2.08 4.79-3.15s3.52-1.9 5.38-1.44c1.75.43 3.12 2.46 2.45 4.07z" fill="#dabbf2"/><path d="m182.331 78.7708c.12.03.22.07.33.12.45.22.84.59 1.08 1.03.46.84.47 1.85.3 2.79-.3 1.72-1.51 3.57-3.26 3.53-1.2-.03-2.25-1.01-2.57-2.16s.56-4.79 3.17-5.34c.32-.08.65-.07.95.03z" fill="#dabbf2"/><path d="m167.901 76.7905c-1.09.55-1.92 1.63-1.89 2.85.06 2.23 2.93 3.82 4.85 2.69s1.92-4.41 0-5.54zm13.17-3.1201c.91 1.05 1.54 2.66 1.26 5.1-.3-.1-.63-.11-.95-.03-2.61.55-3.49 4.1901-3.17 5.3401s1.37 2.1299 2.57 2.1599l-.03.4801c-.39 1.76-.82 3.4999-1.3 5.2299-.07.26-.15.5301-.36.6901-.44.33-1.04-.0301-1.48-.3701-.21-.16-.42-.31-.63-.46-6.63-4.67-15.49-4.6299-23.35-6.8699l-.51-.3801c1.43-1.92 2.86-3.83 4.3-5.75-1.16-1.95-2.71-4.0099-4.3-6.0899l.14-.11c8.09-1.93 16.59-2.15 24.77-.65.87.16 2.11.6399 3.04 1.7099z" fill="#fca265"/><path d="m181.37 106.89c-.29 2.66-.59 5.32-.89 7.98h-.08c-1.47 1.29-3.35 2.12-5.29 2.33l-.27-.05c.5-2.67.91-5.35 1.21-8.04l.42.05c1.49-.5 2.88-1.37 4.1-2.48z" fill="#efede7"/><path d="m177.73 156.84-.02.28c-1.69 6.05-4.45 12.18-7.29 16.04l-.03.33c-1.75-.17-3.42.02-4.78.68-.59.28-1.2.68-1.81 1.16l-.34-.88c-1.53-5.61-5.16-12.12-9.43-16.93-1.2-1.34-2.45-2.56-3.71-3.58l-.09-.34c1.49-.43 2.93-1.06 4.3-1.79 6.5-3.51 11.14-9.29 14.43-15.97l.04.02c-.85 2.5-1.7 5.2-.97 7.74.73 2.53 3.78 4.55 6.07 3.23-2.05 2.03-2.26 5.63-.47 7.88.99 1.25 2.52 1.99 4.1 2.13z" fill="#efede7"/><path d="m149.881 128.161.09.63c.56 2.35 1.54 4.6 2.89 6.59 1.11-2.47 1.76-5.14 1.89-7.85l-.12-.41c-1.55.47-3.17.8-4.75 1.04zm-7.29.43c-1.82-.15-3.53-.54-5.12-1.21l-.03.78c.56 2.41 1.26 4.79 2.1 7.12 1.24-2.05 2.26-4.24 3.03-6.51zm34.39-36.7805-.16.47c.15 5.62-.1 11.2505-.77 16.8305-.3 2.69-.71 5.37-1.21 8.04-.14.76-.29 1.53-.45 2.29-1.17 5.57-2.89 11.25-5.43 16.4-3.29 6.68-7.93 12.46-14.43 15.97-1.37.73-2.81 1.36-4.3 1.79-1.4.41-2.86.65-4.32.66-.68 0-1.35-.04-2.01-.14-6.98-.97-12.58-6.98-16.39-13.12-.13-.2-.25-.4-.37-.61-4.29-7.05-7.34-14.84-9.08-22.9-.44-2-.79-4.02-1.05-6.05-.89-6.67-.88-13.4605.07-20.1305 7.92-3.06 16.19-5.1899 24.59-6.3299l1.14-.33c1.63 2.37 3.43 4.6499 4.94 7.0899l.63-.8399c1.58-2.11 3.16-4.2301 4.74-6.3401l.51.3801c7.86 2.24 16.72 2.1999 23.35 6.8699zm-11.21 13.6405c3.43-2.21 5.51-6.6304 5.15-10.6904-3.77-.29-7.63.81-10.68 3.04-3.05 2.2304-5.27 5.5704-6.15 9.2504 4.02.66 8.26.6 11.68-1.6zm-25.31 2.21c-.87-3.67-3.09-7.01-6.14-9.2405-3.05-2.23-6.91-3.3299-10.68-3.0499-.36 4.06 1.72 8.4804 5.15 10.6904 3.42 2.21 7.65 2.27 11.67 1.6z" fill="#efede7"/><path d="m176.198 221.87-.02.06c.1 6.61-.76 14.42-4.65 18.42-.75.76-1.58 1.36-2.44 1.86-2.39 1.36-4.89 1.48-7.62 1.41h-6.4c-3.36-15.88-8.92-39.85-5.34-74.32.28-.18.4-.52.54-.83.36-.74.98-1.32 1.5-1.96 1.82-2.25 2.52-5.79 1.64-8.55l.62-.44c4.27 4.81 7.9 11.32 9.43 16.93l.34.88c-4.26 3.36-8.62 10.96-9.07 15.54 1.49-2.11 6.96-7.34 9.15-8.72 3.29-2.08 11.81-2.65 12.14 6.25-.35-1.57.52-5.56-6.24-2.26-.53.26-3.13 2.43-3.65 3.47-1.23 2.46-.91 5.63.46 8.12l-.27.16c-.47 2.97.1 6.08 1.52 8.73l-.77.08c-2.43 4.64.62 10.59 5.09 13.33 1.27.78 2.63 1.37 4.04 1.84z" fill="#fca265"/><path d="m170.859 76.7891c1.92 1.13 1.92 4.41 0 5.54s-4.79-.46-4.85-2.69c-.03-1.22.8-2.3 1.89-2.85z" fill="#dabbf2"/><path d="m159.83 100.481c-.09-.13-.19-.25-.31-.37-.2.25-.35.53-.47.82-.53 1.15-.33 2.6.46 3.58.02.22.05.45.1.67.07.36.32.8.67.7.01-.04.02-.08.02-.12.09.2.19.39.3.58 1.09-1.45 1.3-3.5.62-5.17-.06-.16-.13-.31-.21-.46 0-.01-.01-.01-.01-.01-.07-.29-.18-.57-.3-.8405-.03.04-.05.09-.07.13-.07-.11-.13-.21-.2-.31-.22.29-.39.6105-.5.9505-.02-.05-.06-.1-.1-.15zm11.09-5.7205c.36 4.06-1.72 8.4805-5.15 10.6905-3.42 2.2-7.66 2.26-11.68 1.6.88-3.68 3.1-7.02 6.15-9.2505 3.05-2.23 6.91-3.33 10.68-3.04z" fill="#efede7"/><path d="m161.221 101.17c.68 1.67.47 3.72-.62 5.17-.11-.19-.21-.38-.3-.58.03-.11.05-.23.07-.35.65-1.06.94-2.33.84-3.57.02-.23.03-.45.01-.67z" fill="#efede7"/><path d="m161.211 101.84c.1 1.24-.19 2.51-.84 3.57.07-.4.14-.81.17-1.22.33-.55.52-1.18.57-1.82.01 0 0-.01 0-.01.04-.17.08-.34.1-.52z" fill="#efede7"/><path d="m160.801 100.351c.27.63.38 1.33.31 2.01 0 0 .01.01 0 .01-.11.39-.28.76-.52 1.09.03-.88-.08-1.73-.45-2.46.12-.33.27-.65.45-.95.07.09.13.18.19.27.01.01.01.02.02.03z" fill="#efede7"/><path d="m160.592 103.461c0 .24-.02.49-.05.73-.15.26-.33.5-.54.72-.15-.53-.23-1.08-.24-1.63 0 0 0-.01 0-.02.06-.29.08-.58.05-.87.08.48.26.95.55 1.35.08-.09.16-.18.23-.28z" fill="#efede7"/><path d="m160.302 105.76s-.01.08-.02.12c-.35.1-.6-.34-.67-.7-.05-.22-.08-.45-.1-.67.09.12.2.24.32.34.08.17.18.33.3.48.05.14.11.29.17.43z" fill="#efede7"/><path d="m159.93 100.631c.06.07.1.15.14.22-.13.28-.23.57-.32.87 0-.37.07-.74.18-1.09z" fill="#efede7"/><path d="m159.521 100.109c.12.12.22.24.31.37-.09.3-.17.6-.24.9-.09-.26-.22-.51-.39-.74-.06.09-.11.19-.15.29.12-.29.27-.57.47-.82z" fill="#efede7"/><path d="m159.48 104.09c0 .14.01.28.03.42-.79-.98-.99-2.43-.46-3.58-.41 1.06-.28 2.34.39 3.25.02-.03.03-.06.04-.09z" fill="#efede7"/><path d="m157.421 78.8105c-1.44 1.92-2.87 3.83-4.3 5.75-1.58 2.11-3.16 4.2301-4.74 6.3401l-.28-.21c-.25-3.65-.3-7.4201-.3-11.2001 3.3.14 6.62.02 9.62-.68z" fill="#ffd127"/><path d="m156.868 253.169c.15 1.02-17.69 16.57-21.11 20.53-3.23-4.09-6.18-8.19-8.11-13.03 1.62-5.47 2.76-11.26 3.66-17.05h23.76c.76 3.59 1.4 6.76 1.8 9.55z" fill="#b6efa3"/><path d="m155.069 243.621h-23.76c.52-3.3.96-6.6 1.37-9.83 1.21-9.54.76-19.22 1.45-28.82.19-2.6.46-5.2.83-7.78 1.3-9.37 3.71-18.58 7.18-27.38.04-.09.07-.19.11-.28h.01s.02.01.03.02c.34.24.79.24 1.21.24 1.13-.01 4.32-.32 5.45-.33.27-.01.55-.01.78-.16-3.58 34.47 1.98 58.44 5.34 74.32z" fill="#b6efa3"/><path d="m154.629 127.119.12.41c-.13 2.71-.78 5.38-1.89 7.85-1.35-1.99-2.33-4.24-2.89-6.59l-.09-.63c1.58-.24 3.2-.57 4.75-1.04z" fill="#efede7"/><path d="m154.029 157.52-.62.44c-3.7 1.56-9.58 3.08-13.39 1.83l-.07-.06c1.32-1.51 2.59-3.05 3.83-4.62l.12-.99c.66.1 1.33.14 2.01.14 1.46-.01 2.92-.25 4.32-.66l.09.34c1.26 1.02 2.51 2.24 3.71 3.58z" fill="#fca265"/><path d="m153.41 157.961c.88 2.76.18 6.3-1.64 8.55-.52.64-1.14 1.22-1.5 1.96-.14.31-.26.65-.54.83-.23.15-.51.15-.78.16-1.13.01-4.32.32-5.45.33-.42 0-.87 0-1.21-.24l-.03-.03c-.27-.21-.43-.53-.57-.84-1.33-3.04-1.16-5.61-1.67-8.89 3.81 1.25 9.69-.27 13.39-1.83z" fill="#b6efa3"/><path d="m153.119 72.7208c1.59 2.08 3.14 4.14 4.3 6.09-3 .7-6.32.82-9.62.68.01-4.77.11-9.57-.01-14.19 1.41 2.36 3.4 4.9 5.33 7.42z" fill="#ffd127"/><path d="m148.38 90.8998-.63.84c-1.51-2.44-3.31-4.72-4.94-7.09-1.27-1.84-2.44-3.72-3.31-5.78.06-.12.13-.24.19-.36l.58.31c2.39.29 4.95.56 7.53.67 0 3.78.05 7.55.3 11.2z" fill="#ffd127"/><path d="m147.791 65.3008c.12 4.62.02 9.42.01 14.19-2.58-.11-5.14-.38-7.53-.67l-.58-.31c1.04-1.97 2.04-3.89 3.11-5.77 1.45-2.58 3.03-5.07 4.99-7.44z" fill="#ffd127"/><path d="m143.899 154.121-.12.99c-1.24 1.57-2.51 3.11-3.83 4.62-5.02 5.8-10.56 11.15-16.53 15.97-2.02-4.13-4.03-8.26-6.04-12.39-2.1-4.31-4.26-8.89-3.88-13.67l-.87-.37c2.83 0 5.08-3.5 6.18-6.36-.5 1.94 2.27 3.76 4.25 2.97 2.1-.83 3.15-3.16 3.8-5.32l.28-.17c.12.21.24.41.37.61 3.81 6.14 9.41 12.15 16.39 13.12z" fill="#efede7"/><path d="m117.078 91.3105c-.18.06-.35.13-.53.2-.5-1.93-1.28-3.8-2.29-5.52l-.02-.13c1.68-.32 3.64-2.21 3.17-3.81-.32-1.06-2-1-2.67-1.52.06-2.43.12-4.85.18-7.28 8.88-2.09 18.16-2.4 27.16-.91l.72.4c-1.07 1.88-2.07 3.8-3.11 5.77-.06.12-.13.24-.19.36.87 2.06 2.04 3.94 3.31 5.78l-1.14.33c-8.4 1.14-16.67 3.27-24.59 6.33zm11.12-9.99c1.82-.61 2.47-3.33 1.11-4.7l-.44-.36c-1.6-1.07-4.14.08-4.4 1.99-.25 1.91 1.91 3.69 3.73 3.07z" fill="#fca265"/><path d="m142.591 128.591-.02.18c-.77 2.27-1.79 4.46-3.03 6.51-.84-2.33-1.54-4.71-2.1-7.12l.03-.78c1.59.67 3.3 1.06 5.12 1.21z" fill="#efede7"/><path d="m141.771 169.67.37.14c-3.47 8.8-5.88 18.01-7.18 27.38h-.07c-2.2 11.4-3.53 15.12-4.32 21.46-.74 6-2.51 11.22-4.99 16.74-1.7-2.24-2.33-5.25-4.03-7.49 2.66-6.18 3.81-12.44 4.73-19.11 1.93-13.97 8.03-27.15 15.49-39.12z" fill="#b6efa3"/><path d="m131.582 100.809c-.67 1.67-.47 3.71.63 5.16.11-.18.2-.37.29-.56.01.03.01.07.02.1.35.1.6-.34.67-.7.05-.22.08-.45.1-.67.79-.99.99-2.44.46-3.59-.11-.29-.27-.57-.46-.82-.12.12-.23.25-.32.38-.04.05-.07.1-.1.15-.11-.34-.28-.67-.5-.96-.07.1-.13.2-.19.3-.02-.04-.05-.08-.07-.12-.12.27-.23.54-.3.82-.09.16-.17.33-.23.51zm2.74-2.39c3.05 2.23 5.27 5.57 6.14 9.24-4.02.67-8.25.61-11.67-1.6-3.43-2.21-5.51-6.63-5.15-10.69 3.77-.28 7.63.82 10.68 3.05z" fill="#efede7"/><path d="m131.812 100.3c.06-.1.11-.2.18-.29-.26.6-.36 1.26-.31 1.91-.04-.13-.06-.28-.08-.42.02-.41.09-.81.21-1.2z" fill="#efede7"/><path d="m129.55 327.789.85.04c-1.08 9-1.42 18.1-1.16 26.98-6.66 20.04-13.03 40.18-19.34 60.34l-1.03-.32c-2.88-.07-5.73-1.08-8.01-2.83.02 2.83.24 5.52-1.1798 7.97l-.05.14c-7.36-3.03-15.87-3.26-23.34-.5-8.88 3.29-16.11 10.74-19.14 19.71.03-6.03 3.64-11.5 7.86-15.81 4.22-4.32 9.18-7.9 13.05-12.54 4.61-5.52 7.45-12.27 10.22-18.91-2.35.44-4.64 1.08-6.87 1.91l-.15-.4c1.06-1.49.42-3.89-1.25-4.65.6-.55.79-1.5.45-2.25-.34-.74-1.18-1.22-1.99-1.13.42-.96.63-2.09.19-3.04s-1.69-1.55-2.59-1.01c.14-1.21.11-2.68-.91-3.34-.81-.53-1.93-.28-2.68.33s-1.21 1.49-1.64 2.35c.39-.62-.35-1.46-1.09-1.42-.73.04-1.32.62-1.75 1.21-1.01 1.35-1.67 3.06-1.37 4.71-.15-.48-.88-.68-1.33-.39-.51.31-.71.95-.79 1.54-.19 1.46.16 2.99.96 4.24-5.65 2.03-9.67 5.96-11.9 10.26-2.98-8.38-6.19-17.86-8.83-27.29-.8-2.87-1.55-5.73-2.22-8.55-2.09-8.72-3.45-17.06-3.45-24.09l-.41-.43c3.75-3.43 6.47-8.18 7.16-13.09 1.12.75 2.36 1.01 3.47 1.75 1.01-1.35 1.71-3.07 2.63-4.49-2.16-1.44-3.71-3.78-4.2-6.33 3.37-4.94 7.7-8.08 13.71-9.52.99.72 2.07 1.32 3.21 1.78 3.17 1.3 6.81 1.31 11.27.22l.06-.02c.27 1.03.75 2 1.43 2.82l.44.68c-1.02.66-2.04 1.3-3.06 1.94 3.87 4.27 8.01 8.46 11.87 12.74 5.87-4.7 11.78-9.34 17.7198-13.95l.22.28c8.62 3.37 10.39 4.58 24.96 12.36z" fill="#fca265"/><path d="m129.309 76.6197c1.36 1.37.71 4.09-1.11 4.7-1.82.62-3.98-1.16-3.73-3.07.26-1.91 2.8-3.06 4.4-1.99z" fill="#dabbf2"/><path d="m118.83 142.869c.03-.1.07-.19.1-.28-.04.09-.08.19-.1.28zm-.02.04c-1.1 2.86-3.35 6.36-6.18 6.36-.18 0-.37 0-.55-.04-1.4-1.84-2.01-4.27-1.65-6.55-.8 1.41-1.66 2.89-3.05 3.75-1.4.85-3.48.8-4.4-.55-.49-.72-.56-1.63-.57-2.5-.05-2.83.32-5.65 1.08-8.37-.93 1.29-1.91 2.63-3.29 3.43-1.3796.81-3.2896.93-4.4696-.14-.22-.21-.41-.44-.57-.69-.46-.77-.64-1.72-.72-2.63-.2-2.43.09-4.9.89-7.2.18-.25.3-.55.33-.9-.12.3-.23.6-.33.9-.91 1.27-3.4 1.35-4.55.03-1.38-1.58-1.2-3.99-.58-5.99.81-2.65 2.27-5.09 4.21-7.07-2.12.94-5.03 1.7-6.41-.17-1-1.37-.44-3.29.31-4.81 2.13-4.32 5.56-7.98 9.72-10.3896l.84-.27c1.6696 5.2996 4.2696 10.2796 7.8396 14.4796h.44c.04 1.55.08 3.11.11 4.66 0 .37.03.77.27 1.04.17.19.42.29.66.38.97.34 1.98.54 3.01.61-.18-1.13-.33-2.27-.46-3.41l.39-.04c1.97 1.13 4.43 1.58 6.54.74l.39-.08c1.74 8.06 4.79 15.85 9.08 22.9l-.28.17c-.65 2.16-1.7 4.49-3.8 5.32-1.98.79-4.75-1.03-4.25-2.97z" fill="#dabbf2"/><path d="m117.211 282.131h7.22s-15.77 26.23-33.4896 0z" fill="#ffd127"/><path d="m85.7194 239.39c0 .19-.01.38-.05.57-.38 2.1-2.78 3.57-4.83 2.97 1.75 1.17 3.37 2.65 4.25 4.56.87 1.91.87 4.32-.41 5.99s-3.97 2.23-5.58.87c.39 2.38-.15 4.9-1.47 6.91l-.03.08c-1.63-.63-2.97-1.93-4.64-2.51-2.17-.74-4.63-.16-6.85-.63l.06-.29c2.49-.17 4.6-2.57 4.45-5.06l-.12-.33c3.77-1.36 6.86-2.85 6.86-2.85-2.19-4.82-4.16-9.15-5.86-14.16 13.84-5.28 23.67-18.68 23.67-34.38 0-12.12-5.86-22.87-14.9-29.57l.4-.5c-.23-1.89.83-3.87 2.53-4.73s3.92-.54 5.31.77c.42-2.25 1.8-4.45 3.94-5.24 2.15-.79 4.99.35 5.49 2.59.93-2.07 3.4996-3.24 5.6696-2.57 2.18.66 3.65 3.07 3.26 5.31 1.84.23 3.68.84 5.06 2.07s2.23 3.15 1.87 4.97c-.37 1.81-2.11 3.34-3.96 3.16.71 2.23-1.82 4.51-4.14 4.19-.58-.07-1.12-.27-1.62-.54l-.1.31c.2 2.6-.84 4.84-3.84 6.67 1.44-.26 5.51-.13 6.65 3.3.46 1.38.07 2.9-.26 4.32 1.26-1.43 3.57-1.81 5.23-.85 1.65.96 2.47 3.15 1.85 4.96 1.19-1.11 2.7-1.98 4.32-2.03 1.63-.05 3.35.89 3.84 2.45.49 1.55-.69 3.5-2.32 3.5 1.46 1.35 1.36 3.83.19 5.44-1.16 1.61-3.1 2.48-5.03 2.97-1.77.45-4.24.24-4.64-1.55.4 1.64-.5 3.5-2.04 4.19s-3.53.14-4.49-1.25c-.48 2.17-2.95 4.39-6.4196 3.12-.34-.23-.71-.41-1.11-.51.38.21.75.38 1.11.51.86.59 1.48 1.54 1.6 2.57.11.92-.18 1.87-.74 2.61-.46.23-.87.57-1.17 1.02.46-.25.86-.6 1.17-1.02 1.79-.93 4.4296-.33 5.2796 1.58 1.53-1.44 3.81-2.18 5.8-1.51 1.99.68 3.4 2.97 2.76 4.97s-3.52 2.98-5.06 1.54c.85 2.6-.53 5.72-3.01 6.85s-5.7396.12-7.1496-2.22c-.63 2.21-1.59 4.43-3.37 5.88-1.77 1.46-4.52 1.93-6.37.56z" fill="#dabbf2"/><path d="m121.429 53.7207.03.28c-3.45.28-6.55 2.97-7.5 6.29l-.68-.21c-3.17-9.51-10.95-19.92-20.7301-22.11-9.78-2.19-19.97-.98-29.92.25 7.45-3.09 15.13-5.83 23.14-6.79 8-.95 16.4201 0 23.4601 3.94 7.03 3.93 11.57 10.32 12.2 18.35z" fill="#ffd127"/><path d="m118.061 117.49-.39.08c-2.11.84-4.57.39-6.54-.74l-.39.04c-.27-2.25-.44-4.5-.53-6.76.86-.39 1.65-.95 2.29-1.65l.67-.36c.72 1.35 1.7 2.53 3.06 3.44l.78-.1c.26 2.03.61 4.05 1.05 6.05z" fill="#efede7"/><path d="m117.96 440.1-.4.41c-6.56 15.52-25.4801 3.74-37.0401 26.39 1.11 1.91 2.52 3.61 4.14 5.09l-1.09.3c-4.69 5.58-12.29 8.09-19.58 8.02s-14.36-2.43-21.1-5.2c-1.17-.49-2.52-1.22-2.59-2.49-.04-.69.33-1.33.69-1.92 3.14-5.12 6.48-10.44 11.25-13.93.78-.59 1.6-1.11 2.46-1.58 1.75-.96 3.63-1.64 5.41-2.53.29-.15.58-.3.87-.46 5.98-3.21 10.59-8.35 12.62-14.85l-.13-.34c5-1.83 10.38-2.65 15.37-4.55 5.68-2.16 10.82-5.75 14.8101-10.35-1.29-.77-2.63-1.43-4.0201-2l.05-.14c1.4201-2.45 1.2001-5.14 1.1801-7.97 2.28 1.75 5.13 2.76 8.01 2.83l1.03.32c-1.52 4.83-3.03 9.67-4.54 14.51 1.46 4 5.84 5.69 9.12 2.97-.75 2.9.94 5.82 3.48 7.47z" fill="#b6efa3"/><path d="m117.41 82.0501c.47 1.6-1.49 3.49-3.17 3.81l-.18.03c-1.72.2-3.42-1.46-3.21-3.18.08-.62.43-1.14.92-1.53.86-.68 2.12-.96 2.97-.65.67.52 2.35.46 2.67 1.52z" fill="#dabbf2"/><path d="m117.211 281.359v.77h-19.1602v-.77l9.7202-37.74z" fill="#fca265"/><path d="m109.088 98.1797-.08.37c-.54-.07-1.14.16-1.56.55-.56.51-.87 1.2503-1.13 1.9703-.59 1.66-.99 3.53-.32 5.16.26.62.66 1.17.86 1.81.19.57.2 1.17.21 1.77.03 1.26.06 2.51.08 3.77h-.44c-3.57-4.19-6.17-9.17-7.8397-14.4703-.32-1.02-.61-2.06-.86-3.1-1.11-4.56-1.56-9.28-1.38-13.89.07-1.86.24-3.7.52-5.5.18-1.22.41-2.41.69-3.59.33-1.41 1.1-3.11 2.5597-3.1.73.01 1.36.48 1.92.94 3.36 2.73 6.37 5.9 8.93 9.4l.52.91c-.49.39-.84.91-.92 1.53-.21 1.72 1.49 3.38 3.21 3.18l.18-.03.02.13c1.01 1.72 1.79 3.59 2.29 5.52.18-.07.35-.14.53-.2-.95 6.67-.96 13.4603-.07 20.1303l-.78.1c-1.36-.91-2.34-2.09-3.06-3.44-1.36-2.49-1.86-5.56-2.4-8.5403-.07-.35-.15-.74-.42-.98-.26-.22-.61-.26-.94-.33-.11-.02-.22-.05-.32-.07z" fill="#efede7"/><path d="m109.011 98.5497.08-.37c.1.02.21.05.32.07.33.07.68.11.94.33.27.24.35.63.42.98.54 2.9803 1.04 6.0503 2.4 8.5403l-.67.36c-.64.7-1.43 1.26-2.29 1.65.09 2.26.26 4.51.53 6.76.13 1.14.28 2.28.46 3.41-1.03-.07-2.04-.27-3.01-.61-.24-.09-.49-.19-.66-.38-.24-.27-.26-.67-.27-1.04-.03-1.55-.07-3.11-.11-4.67-.02-1.26-.05-2.51-.08-3.77-.01-.6-.02-1.2-.21-1.77-.2-.64-.6-1.19-.86-1.81-.67-1.63-.27-3.5.32-5.16.26-.72.57-1.4603 1.13-1.9703.42-.39 1.02-.62 1.56-.55z" fill="#c3e9f9"/><path d="m107.341 312.851c-.99.77-1.98 1.53-2.97 2.3-5.9397 4.61-11.8497 9.25-17.7197 13.95-3.86-4.28-8.0001-8.47-11.8701-12.74 1.02-.64 2.04-1.28 3.06-1.94 1.29-.82 2.56-1.66 3.83-2.52 2.17-1.46 4.31-2.96 6.42-4.51.83-.6 1.6501-1.21 2.4601-1.84 1.18-.89 2.35-1.8 3.5-2.73.93-.74 1.86-1.49 2.77-2.26 3.8897 3.86 7.1097 8 10.5197 12.29z" fill="#dabbf2"/><path d="m99.6298 420.111c1.3902.57 2.7302 1.23 4.0202 2-3.9902 4.6-9.1302 8.19-14.8102 10.35-4.99 1.9-10.37 2.72-15.37 4.55-.92.33-1.83.7-2.72 1.12-5.72 2.7-10.99 6.95-10.21 13.23l.44.84c-.29.16-.58.31-.87.46-1.78.89-3.66 1.57-5.41 2.53-.86.47-1.68.99-2.46 1.58l-.22-.29c0-3.95-2.14-7.85-5.48-9.97-3.34-2.13-7.77-2.43-11.36-.76-3.86 1.8-6.44 5.49-8.84 9.01-.1-5.13.66-10.59 3.88-14.59 3.22-4.01 9.51-5.86 13.68-2.85-.99-4.81-5.32-8.72-10.19-9.22-4.88-.51-9.92 2.44-11.87 6.94 1.1-3.99 2.75-8.01 5.82-10.79 3.07-2.79 7.85-4.01 11.47-1.99-3.77-6.5-5.55-14.13-5.04-21.63 4.18 2.74 7.7 6.46 10.2 10.79 3.95 6.82 5.24 14.81 6.46 22.6.12-1.69.34-3.37.67-5.02 1.13-5.84 3.48-11.4 6.77-16.38 4-6.06 9.36-11.24 15.57-14.97 2.43-1.46 4.99-2.7 7.65-3.68 2.23-.83 4.52-1.47 6.87-1.91-2.77 6.64-5.61 13.39-10.22 18.91-3.87 4.64-8.83 8.22-13.05 12.54-4.22 4.31-7.83 9.78-7.86 15.81 3.03-8.97 10.26-16.42 19.14-19.71 7.47-2.76 15.98-2.53 23.34.5z" fill="#ffd127"/><path d="m98.8694 99.1095-.84.27c-4.16 2.4105-7.59 6.0705-9.72 10.3905-.75 1.52-1.31 3.44-.31 4.81 1.38 1.87 4.29 1.11 6.41.17-1.94 1.98-3.4 4.42-4.21 7.07-.62 2-.8 4.41.58 5.99 1.15 1.32 3.64 1.24 4.55-.03-.8 2.3-1.09 4.77-.89 7.2.08.91.26 1.86.72 2.63l-.07.07c-3.3.64-11.51 1.72-17.32 13.82l-.21.14c-2-3.03-4.71-5.6-7.12-8.37-2.64-3.03-4.99-6.46-5.37-10.44-3.39 1.04-5.81 2.09-4.94 7.34.46 2.74 2.01 4.48 3.11 5.94.93 1.25 1.29 2.06 1.5 2.99l-.13.03c-1.94-1.09-4.59-2.27-6.8-2.51-2.21-.23-4.69.63-5.7 2.61-.05.1-.09.2-.14.3l-.54-.21c-1.59-.77-3.47-.41-5.16.09-.52.15-1.03.32-1.52.54l-.17-.35-13.97-84.8005c2.02 0 3.87-.66 5.37-1.78l.66.1s15.09 33.78 60.37 33.14l1-.25c.25 1.04.54 2.08.86 3.1z" fill="#b6efa3"/><path d="m96.2986 76.4902.85.13c-.28 1.8-.4501 3.64-.5201 5.5-.3.15-.61.29-.93.41-1.49.56-3.5.39-4.25-1.01-.64-1.2-.0099-2.77 1.0601-3.61s2.46-1.14 3.79-1.42z" fill="#c3e9f9"/><path d="m93.6892 302.36.36.46c-1.15.93-2.32 1.84-3.5 2.73l-.36-.47c-.55-1.43-1.17-2.05-2.58-2.65l-.45-.08c.15-.39.23-.81.24-1.22.03-.96-.28-1.89-.7-2.77l.18-.13c2.76.17 5.38 1.76 6.81 4.13z" fill="#dabbf2"/><path d="m90.1902 305.08.36.47c-.81.63-1.6301 1.24-2.4601 1.84l-.4399-.61c-.24-1.14-.86-2.19-1.74-2.95.58-.32 1-.86 1.25-1.48l.45.08c1.41.6 2.03 1.22 2.58 2.65z" fill="#fbba96"/><path d="m85.9095 303.829c.88.76 1.5 1.81 1.74 2.95l.44.61c-2.11 1.55-4.25 3.05-6.42 4.51l-.31-.47c-.51-.79-.79-1.73-.81-2.67l-.28-.04c.53-.33.91-.88 1.18-1.46.11-.23.2-.47.27-.71l.07.02c1.24-.28 3.07-1.61 3.12-2.88h.85s.1.08.15.14z" fill="#b6efa3"/><path d="m81.7188 306.55c-.0701.24-.1601.48-.2701.71-.27.58-.65 1.13-1.18 1.46-.07.05-.15.09-.23.13-.66.3-1.55.18-1.95-.42-.45-.67-.15-1.57-.3-2.36-.07-.4-.26-.85-.5-1.3-.42-.74-1.0099-1.45-1.5699-1.84 2.66-2.87 5.52-5.71 8.4-8.35l.0199.02c.94 1.02 1.75 2.17 2.38 3.4l.18.36c.42.88.7301 1.81.7001 2.77-.01.41-.09.83-.24 1.22-.25.62-.67 1.16-1.25 1.48-.05-.06-.1-.1-.15-.14h-.85c-.05 1.27-1.8801 2.6-3.1201 2.88z" fill="#efede7"/><path d="m71.5016 235.509c-4.07 1.56-8.49 2.41-13.11 2.41-5.12 0-9.99-1.05-14.42-2.93-7.93-3.39-14.43-9.48-18.35-17.11-2.57-5.02-4.02-10.72-4.02-16.75 0-10.56 4.13-19.77 11.25-26.47l.03-.02c1.46 2.85 2.92 5.72 3.11 8.86.72-.03 2.69-1.29 2.69-2.01h.08c.02 1 0 2-.05 3 2.83-.59 5.48-2.77 6.22-5.57h.17c.03 1.08-.02 2.14-.17 3.19 1.74-.04 5.07-2.99 5.75-4.59l.12.02c-.11.54-.22 1.08-.33 1.61 3.23-.08 6.14-2.31 7.71-5.13s1.97-6.16 1.88-9.39c0-.05 0-.1-.01-.15l1.08-.04c4.46.33 8.7 1.46 12.58 3.24 2.33 1.07 4.52 2.37 6.56 3.88 9.04 6.7 14.9 17.45 14.9 29.57 0 15.7-9.83 29.1-23.67 34.38zm-23.94-48.89c-.23-.02-.45.03-.65.17.22-.03.44-.09.65-.17zm32.94 5.21c1.27-2.18 5.06-2.91 7.56-3.24-2.76-.47-7.39-.92-9.7-2.47-2.24-1.51-2.93-3.72-4.55-5.87-2.72-3.63-5.91-7.12-9.53-9.86 2.46 3.56 5.14 7.81 6.8 11.85 1.21 2.95 1.3 5.04-.27 6.89-1.46 1.74-6.3 3.9-8.29 5 3.08-.59 7.95-1.17 10.6.52 1.44.92 2.5 2.35 3.39 3.81 1.81 2.98 3.03 6.36 3.53 10.32.58 4.62.54 10.2-.97 14.6 1.77-3.27 3.21-7.67 3.49-11.72.25-3.71.01-7.56-1.06-11.13-.44-1.44-1.07-2.83-1.41-4.3s-.35-3.09.41-4.4z" fill="#c3e9f9"/><path d="m88.0595 188.591c-2.5.33-6.29 1.06-7.56 3.24-.76 1.31-.75 2.93-.41 4.4s.97 2.86 1.41 4.3c1.07 3.57 1.31 7.42 1.06 11.13-.28 4.05-1.72 8.45-3.49 11.72 1.51-4.4 1.55-9.98.97-14.6-.5-3.96-1.72-7.34-3.53-10.32-.89-1.46-1.95-2.89-3.39-3.81-2.65-1.69-7.52-1.11-10.6-.52 1.99-1.1 6.83-3.26 8.29-5 1.57-1.85 1.48-3.94.27-6.89-1.66-4.04-4.34-8.29-6.8-11.85 3.62 2.74 6.81 6.23 9.53 9.86 1.62 2.15 2.31 4.36 4.55 5.87 2.31 1.55 6.94 2 9.7 2.47z" fill="#efede7"/><path d="m54.1702 290.251c.14-4.16 3.76-7.57 4.51-11.83l-.04-.11c1.57-.5 3.06-1.25 4.34-2.22 1.81-.46 4.24.66 5.78 1.71 6.31 4.29 11.61 9.88 16.86 15.42-.5.45-1 .9-1.5 1.36-2.88 2.64-5.74 5.48-8.4 8.35-.53.57-1.06 1.15-1.57 1.72-1.54-1.79-3.01-3.7-4.28-5.71l-.13.08c-1.92 1.27-3.85 2.54-5.98 3.42-2 .83-4.22 1.3-6.36.99-.13 0-.25-.03-.38-.05l-.32-.06c-1.25-3.98-2.05-7.88-2.5-12.03-.04-.35-.05-.7-.03-1.04zm26.44 2.66c.55-.15.87-.84.63-1.36-.15.01-.31.03-.41.13-.04.03-.06.08-.06.13-.31.25-.4.76-.16 1.1z" fill="#b6efa3"/><path d="m82.9608 263.22c.72 1.13.15 2.76-.96 3.53-1.1.77-2.55.84-3.88.65-.29-.05-.6-.1-.86.02-.58.24-.61 1.03-.9 1.58-.44.82-1.52 1.1-2.42.9-.9-.21-1.66-.79-2.39-1.35-.03.94-.79 1.8-1.71 1.95-.93.14-2.33-1.03-2.64-1.91h-.07c.13-3.5-1.75-7.06-4.83-8.78l1.52-2.57c.43.27.87.51 1.33.69.31.12.63.21.96.27 2.22.47 4.68-.11 6.85.63 1.67.58 3.01 1.88 4.64 2.51.18.08.36.14.55.19 1.69.46 3.86.21 4.81 1.69z" fill="#efede7"/><path d="m81.359 311.43.31.47c-1.27.86-2.54 1.7-3.83 2.52l-.44-.68c-.68-.82-1.16-1.79-1.43-2.82-.54-1.99-.31-4.2.75-5.98l.57-.17c.24.45.43.9.5 1.3.15.79-.15 1.69.3 2.36.4.6 1.29.72 1.95.42.08-.04.16-.08.23-.13l.28.04c.02.94.3 1.88.81 2.67z" fill="#dabbf2"/><path d="m66.6316 385.331c-.3-1.65.36-3.36 1.37-4.71.43-.59 1.02-1.17 1.75-1.21.74-.04 1.48.8 1.09 1.42.43-.86.89-1.74 1.64-2.35s1.87-.86 2.68-.33c1.02.66 1.05 2.13.91 3.34.9-.54 2.15.06 2.59 1.01s.23 2.08-.19 3.04c.81-.09 1.65.39 1.99 1.13.34.75.15 1.7-.45 2.25 1.67.76 2.31 3.16 1.25 4.65l.15.4c-2.66.98-5.22 2.22-7.65 3.68l-.09-.15c-1.52-.79-2.61-2.36-2.83-4.05-.86 1.22-2.49 1.97-3.91 1.5s-2.29-2.97-1.45-4.21c0-.01-.01-.01-.01-.02-.8-1.25-1.15-2.78-.96-4.24.08-.59.28-1.23.79-1.54.45-.29 1.18-.09 1.33.39z" fill="#dabbf2"/><path d="m60.0483 164.48s.01.1.01.15c.09 3.23-.31 6.57-1.88 9.39s-4.48 5.05-7.71 5.13c.11-.53.22-1.07.33-1.61.43-2.25.78-4.52.63-6.8-.12-1.79-.54-3.54-.76-5.32-.58-4.54.1-9.13.78-13.65.11-.76.24-1.54.52-2.24.05-.1.09-.2.14-.3 1.01-1.98 3.49-2.84 5.7-2.61 2.21.24 4.86 1.42 6.8 2.51l.13-.03c-.21-.93-.57-1.74-1.5-2.99-1.1-1.46-2.65-3.2-3.11-5.94-.87-5.25 1.55-6.3 4.94-7.34.38 3.98 2.73 7.41 5.37 10.44 2.41 2.77 5.12 5.34 7.12 8.37.2.29.38.59.56.89 2.02 3.41 3.57 9.45-1.5 15.06l-2.91.09c-3.88-1.78-8.12-2.91-12.58-3.24z" fill="#efede7"/><path d="m61.4298 308.939c-1.79-1.3-3.25-3.01-4.09-5.05l.06-.46c2.14.31 4.36-.16 6.36-.99 2.13-.88 4.06-2.15 5.98-3.42l.13-.08c1.27 2.01 2.74 3.92 4.28 5.71.51-.57 1.04-1.15 1.57-1.72.56.39 1.15 1.1 1.57 1.84l-.57.17c-1.06 1.78-1.29 3.99-.75 5.98l-.06.02c-4.46 1.09-8.1 1.08-11.27-.22-1.14-.46-2.22-1.06-3.21-1.78z" fill="#b6efa3"/><path d="m73.6703 397.501.09.15c-6.21 3.73-11.57 8.91-15.57 14.97l-.55-.37c-1.24-3.41-2.63-7.21-4.07-11.27 2.23-4.3 6.25-8.23 11.9-10.26 0 .01.01.01.01.02-.84 1.24.03 3.74 1.45 4.21s3.05-.28 3.91-1.5c.22 1.69 1.31 3.26 2.83 4.05z" fill="#fca265"/><path d="m73.4718 437.01.13.34c-2.03 6.5-6.64 11.64-12.62 14.85l-.44-.84c-.78-6.28 4.49-10.53 10.21-13.23.89-.42 1.8-.79 2.72-1.12z" fill="#c3e9f9"/><path d="m41.6606 240.38c.73-1.61 1.42-3.17 1.98-4.64l.33-.75c4.43 1.88 9.3 2.93 14.42 2.93 4.62 0 9.04-.85 13.11-2.41 1.7 5.01 3.67 9.34 5.86 14.16 0 0-3.09 1.49-6.86 2.85-3 1.08-6.42 2.07-9.06 2.16l-.57-.17c1.97-1.1 3.54-2.92 4.31-5.04.34-.92.47-2.07-.22-2.75-.77-.74-2.07-.45-2.93.17-1.34.96-2.23 2.56-3.76 3.16-1.19.48-2.53.25-3.81.34-1.6.12-3.15.76-4.36 1.8-.58.5-1.11 1.1-1.83 1.36-1.75.64-3.5-1.04-5.36-1.19l-5.27-2.96c1.19-2.98 2.68-6.08 4.02-9.02z" fill="#c3e9f9"/><path d="m70.6219 252.85c.15 2.49-1.96 4.89-4.45 5.06l-.06.29c-.33-.06-.65-.15-.96-.27-.46-.18-.9-.42-1.33-.69-.7-.43-1.38-.93-2.12-1.31-.52-.26-1.12-.52-1.78-.73l.09-.26c.3-.13.58-.27.86-.43l.57.17c2.64-.09 6.06-1.08 9.06-2.16z" fill="#efede7"/><path d="m55.9187 270.71v-.02c-.01-.53-.02-1.05-.03-1.58 0-.14-.05-.34-.16-.32-.06.24-.11.48-.14.73-.03.21-.04.43-.04.65 0 .12.01.24.05.35.02.19.06.37.11.55.14.06.21-.18.21-.36zm-6.5-2.26c-.74-.47-1.54-.91-2.4-.84-.36.03-.74.14-1.07.01l-.61.04c-.07-.89-.1-1.79-.13-2.68l-2.4899-1.5c.36-.52.7299-1.02 1.1299-1.52 2.41-3.06 5.4-5.69 9.07-6.88 2.37-.84 4.96-.54 7 .12.66.21 1.26.47 1.78.73.74.38 1.42.88 2.12 1.31l-1.52 2.57c3.08 1.72 4.96 5.28 4.83 8.78-.02.69-.12 1.37-.31 2.03-.62 2.21-2.02 4.06-3.84 5.47-1.28.97-2.77 1.72-4.34 2.22-.89.28-1.81.47-2.73.58-1.63.18-3.34.13-4.86-.5-1.34-.56-2.45-1.53-3.3-2.72-.1-.13-.1899-.26-.2799-.4l2.8499-.28 1.5801-2.54c.15-.3-.0401-.71-.3601-.78-.03.05-.05.1-.0699.16l-2.3801-.91c.27-.51.33-1.22.14-1.84-.03-.11-.11-.24-.19-.21 0-.03 0-.06.01-.09z" fill="#efede7"/><path d="m64.9613 246.72c.69.68.56 1.83.22 2.75-.77 2.12-2.34 3.94-4.31 5.04-.28.16-.5601.3-.8601.43l-.09.26c-2.04-.66-4.63-.96-7-.12-3.67 1.19-6.66 3.82-9.07 6.88l-.2299-.19c-3.46-1.82-4.72-2.5-5.8401-3.07l.7001-.09c-.24-1.29.32-3.49 1.07-4.57.75-1.07 2.05-1.78 3.36-1.68 1.86.15 3.61 1.83 5.36 1.19.72-.26 1.2499-.86 1.8299-1.36 1.21-1.04 2.7601-1.68 4.3601-1.8 1.28-.09 2.62.14 3.81-.34 1.53-.6 2.4199-2.2 3.7599-3.16.8601-.62 2.1601-.91 2.9301-.17z" fill="#efede7"/><path d="m57.3396 303.89c.84 2.04 2.3 3.75 4.09 5.05-6.01 1.44-10.34 4.58-13.71 9.52-.48-2.55.1-5.29 1.58-7.42 1.93-2.78 5.51-3.72 7.11-6.69l-.16-.96c.15-.01.3-.04.45-.07l.32.06c.13.02.25.04.38.05z" fill="#c3e9f9"/><path d="m58.6382 278.311.04.11c-.75 4.26-4.37 7.67-4.51 11.83-.73-2.02-1.4499-4.04-2.1799-6.06-.58-1.62-1.17-3.29-1.16-5.01l.2199-.79c1.52.63 3.23.68 4.86.5.92-.11 1.84-.3 2.73-.58z" fill="#efede7"/><path d="m57.6398 412.25.55.37c-3.29 4.98-5.64 10.54-6.77 16.38l-.19-.04c-.08-.72-.15-1.43-.21-2.15-.32-3.65-.45-7.3-.4-10.94.06-4.82.46-9.71 2.63-14.26.1-.21.2-.42.32-.63 1.44 4.06 2.83 7.86 4.07 11.27z" fill="#c3e9f9"/><path d="m43.1483 301.289c.08-4.93.66-10.29 1.43-15.16-5.66-.49-11.05-4.31-12.86-9.7-.8-2.38-1.29-4.95-1.01-7.45.46-4.15 3.49-9.28 4.33-11.61 1.28.6 1.98.94 2.74 1.33 1.12.57 2.38 1.25 5.84 3.07l.23.19c-.4.5-.77 1-1.13 1.52-.17.24-.34.49-.51.74-.75 1.11-1.46 2.3-1.7 3.62-.25 1.4.05 2.84.52 4.17.46 1.31 1.1 2.6 2.18 3.46s2.68 1.19 3.86.48l.68-.28c.85 1.19 1.96 2.16 3.3 2.72l-.22.79c-.01 1.72.58 3.39 1.16 5.01.73 2.02 1.45 4.04 2.18 6.06-.02.34-.01.69.03 1.04.45 4.15 1.25 8.05 2.5 12.03-.15.03-.3.06-.45.07-3.08.48-6.23-.28-9.27-1.03-1.31-.32-2.52-.65-3.83-.98zm-6.62-39.56c-.01-.21-.08-.41-.21-.58-.43.26-.54.94-.2 1.32l.12-.18c.01.07.03.13.04.2.18-.21.26-.49.25-.76z" fill="#b6efa3"/><path d="m56.2505 303.389.16.96c-1.6 2.97-5.18 3.91-7.11 6.69-1.48 2.13-2.06 4.87-1.58 7.42.49 2.55 2.04 4.89 4.2 6.33-.92 1.42-1.62 3.14-2.63 4.49-1.11-.74-2.35-1-3.47-1.75-.69 4.91-3.41 9.66-7.16 13.09-1.34 1.25-2.81 2.32-4.37 3.17-.25.14-.55.28-.82.19-.41-.13-.51-.65-.53-1.08-.29-5.88 2.27-11.51 5.11-16.67.36-.66.73-1.32.86-2.05.15-.84-.04-1.7-.19-2.54-1.31-7.06-.25-14.92 4.43-20.35v.09c1.31.33 2.52.66 3.83.98 3.04.75 6.19 1.51 9.27 1.03z" fill="#b6efa3"/><path d="m55.5914 269.52c.03-.25.08-.49.14-.73.11-.02.16.18.16.32.01.53.02 1.05.03 1.58v.02c-.08.07-.22 0-.29-.11-.01-.03-.03-.05-.03-.08-.05-.33-.05-.67-.01-1z" fill="#efede7"/><path d="m53.5716 400.979c-.12.21-.22.42-.32.63-2.17 4.55-2.57 9.44-2.63 14.26-.05 3.64.08 7.29.4 10.94l-.61.05c-1.3-8.07-1.56-16.63-4.45-24.3-2.89-7.68-7.49-14.96-14.27-19.82l-2.32.13c0-.08-.01-.17-.02-.25 2.28-.53 3.97-2.93 3.68-5.25.86.98 2.41 1.27 3.57.68s1.82-2.02 1.52-3.29c1.73 1.7 5.07 1.19 6.2-.95l.42-.12c2.64 9.43 5.85 18.91 8.83 27.29z" fill="#c3e9f9"/><path d="m51.4303 149.321.54.21c-.28.7-.41 1.48-.52 2.24-.68 4.52-1.36 9.11-.78 13.65.22 1.78.64 3.53.76 5.32.15 2.28-.2 4.55-.63 6.8l-.12-.02c-.68 1.6-4.01 4.55-5.75 4.59.15-1.05.2-2.11.17-3.19-.21-7.29-3.97-15.29-3.88-22.39.01-.99.13-2.02.43-2.97.32-1.1.88-2.1 1.76-2.82.41-.33.86-.58 1.34-.79.49-.22 1-.39 1.52-.54 1.69-.5 3.57-.86 5.16-.09z" fill="#efede7"/><path d="m51.8998 272.451-1.58 2.54-2.85.28c-.54-.81-.96-1.71-1.26-2.63-.54-1.61-.76-3.29-.87-4.98l.61-.04c.33.13.71.02 1.07-.01.86-.07 1.66.37 2.4.84l-.37.33s-.01.06-.01.09c0 0-.01 0-.01.01-.03.02-.05.09-.07.14-.12.47-.14.99-.05 1.49.04-.01.07-.04.09-.08.02.17.05.33.09.49l2.38.91c-.04.12-.04.26.04.36s.25.06.32-.02c0 .09.02.19.07.28z" fill="#efede7"/><path d="m48.9614 269.021s.04-.12.07-.14c-.1.49-.11 1.03-.03 1.55-.02.04-.05.07-.09.08-.09-.5-.07-1.02.05-1.49z" fill="#efede7"/><path d="m47.4683 275.27c.09.14.18.27.28.4l-.68.28c-1.18.71-2.78.38-3.86-.48s-1.72-2.15-2.18-3.46c-.47-1.33-.77-2.77-.52-4.17.24-1.32.95-2.51 1.7-3.62.17-.25.34-.5.51-.74l2.49 1.5c.03.89.06 1.79.13 2.68.11 1.69.33 3.37.87 4.98.3.92.72 1.82 1.26 2.63z" fill="#efede7"/><path d="m45.1005 178.92h-.17c-.74 2.8-3.39 4.98-6.22 5.57.06-1 .07-2 .05-3-.07-3.06-.49-6.12-1.27-9.08-.75-2.84-1.83-5.6-2.33-8.49-.28-1.6-.36-3.27-.12-4.87.18-1.3.59-2.55 1.27-3.68.75-1.24 3.5-2.59 4.8-1.96l.54.15c-.3.95-.42 1.98-.43 2.97-.09 7.1 3.67 15.1 3.88 22.39z" fill="#efede7"/><path d="m40.96 365.26 1.56-.12c.67 2.82 1.42 5.68 2.22 8.55l-.42.12c-1.13 2.14-4.47 2.65-6.2.95.3 1.27-.36 2.7-1.52 3.29s-2.71.3-3.57-.68c.29 2.32-1.4 4.72-3.68 5.25.01.08.02.17.02.25 0 1.09-1.04 2.55-1.94 3.08-.96.57-2.49 0-2.57-1.11-.62.94-2.06 1.08-3.04.51-.98-.58-1.55-1.67-1.83-2.76-.28-1.08-.32-2.27.18-3.26s1.63-1.72 2.71-1.5c-1.72-.66-1.9-3.01-1.63-4.83.18-1.2.46-2.47 1.35-3.31.88-.83 2.54-.91 3.17.13-.94-1.79.06-4.31 1.97-4.97 1.91-.65 4.25.71 4.61 2.69-.25-1.51 1.13-3.08 2.67-3.01 1.53.06 2.78 1.74 2.4 3.22.48-1.47 2-2.49 3.54-2.49z" fill="#dabbf2"/><path d="m43.9701 234.991-.33.75c-.56 1.47-1.25 3.03-1.98 4.64-1.26 0-3.37-.71-3.71-1.7-1.33 1.96-1.54 4.41-4.1 5.15-1.42.41-2.91-.29-3.07-.38-1.6-.92-.88-2.28-.21-2.81-1.43.79-2.89 1.61-4.55 1.99s-3.59.28-4.92-.64c-1.27-.87-1.79-2.35-1.57-3.71.21-1.36 2.3-2.26 3.36-3.31-.84-.02-2.46-1.17-2.95-1.69-.78-.81-.86-1.61-.68-2.3.28-1.14 1.45-2.13 2.43-2.97.97-.83 2.81-1.09 3.73-.2-1.02-1.52-2.05-3.08-2.4-4.8-.34-1.72.15-3.66 1.75-4.78l.85-.35c3.92 7.63 10.42 13.72 18.35 17.11z" fill="#dabbf2"/><path d="m38.6783 181.49c0 .72-1.97 1.98-2.69 2.01-.19-3.14-1.65-6.01-3.11-8.86-.51-1-1.01-1.99-1.47-2.99-1.33-2.94-2.63-5.73-1.42-8.73.69-1.71 3.06-3.53 4.87-3.9l.18.03c-.24 1.6-.16 3.27.12 4.87.5 2.89 1.58 5.65 2.33 8.49.78 2.96 1.2 6.02 1.27 9.08z" fill="#efede7"/><path d="m30.6106 46.8691c4.95 0 8.96 4.02 8.96 8.97 0 2.94-1.41 5.55-3.59 7.18-1.5 1.12-3.35 1.78-5.37 1.78-4.96 0-8.97-4.01-8.97-8.96s4.01-8.97 8.97-8.97z" fill="#ffd127"/><path d="m30.6108 33.2109c3.62 0 6.55 2.93 6.55 6.55s-2.93 6.55-6.55 6.55-6.56-2.93-6.56-6.55 2.94-6.55 6.56-6.55z" fill="#dabbf2"/><path d="m20.1992 419.309c-.39.4-1.07.53-1.62.33-.68-.24-1.16-.85-1.48-1.49-.83-1.67.48-3.34 1.54-4.87 0 0-1.56.08-1.82-.13 0 0-1.04-.14-1.31-1.63-.48-2.77.12-5.3 2.43-6.9 1.27-.87 2.23-.46 2.56-.44.26.02.47.31.42.53-.03.06-.07.11-.1.17.06-.05.09-.1.1-.17.43-.7.9-1.41 1.59-1.85.74-.48 1.82-.56 2.45.06.33.32.49.77.61 1.22.38 1.48.38 3.05 0 4.53.38-.65 1.76-.71 2.34-.22.58.48.72 1.64.53 2.37-.18.66-.53 2.98-3.03 3.38.32 1.62.49 3.36-.16 4.87-.66 1.51-2.41 2.66-3.96 2.11-.77-.26-1.36-1.2-1.09-1.87zm0-.01c.09-.09.17-.19.22-.31-.1.1-.17.2-.22.31z" fill="#dabbf2"/><g stroke="#010101" stroke-linecap="round" stroke-linejoin="round" stroke-width="2"><path d="m157.42 78.8108c-1.44 1.92-2.87 3.83-4.3 5.75-1.58 2.11-3.16 4.23-4.74 6.34l-.63.84c-1.51-2.44-3.31-4.72-4.94-7.09-1.27-1.84-2.44-3.72-3.31-5.78.06-.12.13-.24.19-.36 1.04-1.97 2.04-3.89 3.11-5.77 1.45-2.58 3.03-5.07 4.99-7.44 1.41 2.36 3.4 4.9 5.33 7.42 1.59 2.08 3.14 4.14 4.3 6.09z"/><path d="m157.42 78.8105c-3 .7-6.32.82-9.62.68-2.58-.11-5.14-.38-7.53-.67"/><path d="m148.099 90.6908c-.25-3.65-.3-7.42-.3-11.2.01-4.77.11-9.57-.01-14.19"/><path d="m142.08 72.3405c-9-1.49-18.28-1.18-27.16.91-.06 2.43-.12 4.85-.18 7.28-.85-.31-2.11-.03-2.97.65-.49.39-.84.91-.92 1.53-.21 1.72 1.49 3.38 3.21 3.18l.18-.03c1.68-.32 3.64-2.21 3.17-3.81-.32-1.06-2-1-2.67-1.52"/><path d="m153.262 72.6105c8.09-1.93 16.59-2.15 24.77-.65.87.16 2.11.6399 3.04 1.7099.91 1.05 1.54 2.66 1.26 5.1 0 .03-.01.07-.01.11"/><path d="m114.262 85.9905c1.01 1.72 1.79 3.59 2.29 5.52.18-.07.35-.14.53-.2 7.92-3.06 16.19-5.19 24.59-6.33"/><path d="m153.629 84.9395c7.86 2.24 16.72 2.1999 23.35 6.8699.21.15.42.3.63.46.44.34 1.04.7001 1.48.3701.21-.16.29-.4301.36-.6901.48-1.73.91-3.4699 1.3-5.2299"/><path d="m170.859 76.7905c1.92 1.13 1.92 4.41 0 5.54s-4.79-.46-4.85-2.69c-.03-1.22.8-2.3 1.89-2.85.88-.45 1.93-.54 2.82-.08"/><path d="m129.309 76.6197c1.36 1.37.71 4.09-1.11 4.7-1.82.62-3.98-1.16-3.73-3.07.26-1.91 2.8-3.06 4.4-1.99"/><path d="m181.381 78.7408c-2.61.55-3.49 4.19-3.17 5.34s1.37 2.13 2.57 2.16c1.75.04 2.96-1.81 3.26-3.53.17-.94.16-1.95-.3-2.79-.24-.44-.63-.81-1.08-1.03-.11-.05-.21-.09-.33-.12-.3-.1-.63-.11-.95-.03"/><path d="m111.129 116.83c1.97 1.13 4.43 1.58 6.54.74"/><path d="m111.248 80.2697c-2.56-3.5-5.57-6.67-8.93-9.4-.56-.46-1.19-.93-1.92-.94-1.4597 0-2.2297 1.69-2.5597 3.1-.28 1.18-.51 2.37-.69 3.59-.28 1.8-.45 3.64-.52 5.5-.18 4.61.27 9.33 1.38 13.89.25 1.04.54 2.08.86 3.1 1.6697 5.3003 4.2697 10.2803 7.8397 14.4803"/><path d="m183.25 78.9495c2.38-2.24 4.2-5.06 6.76-7.1 2.56-2.05 6.32-3.17 9.1-1.43 2.89 1.81 3.42 5.82 3.07 9.21-.42 4.08-1.49 7.43-2.83 10.78-1.29 3.19-2.85 6.39-4.36 10.2295-1.04 2.64-3.27 7.61-9.3 11.85"/><path d="m116.231 111.541c-1.36-.91-2.34-2.09-3.06-3.44-1.36-2.49-1.86-5.56-2.4-8.5405-.07-.35-.15-.7399-.42-.9799-.26-.22-.61-.2601-.94-.3301-.11-.02-.22-.05-.32-.07-1.6-.44-2.9-1.69-3.73-3.12-.88-1.54-1.31-3.28-1.74-5"/><path d="m176.469 109.16c1.49-.5 2.88-1.37 4.1-2.48 3.41-3.07 5.54-7.9499 5.14-11.5699.47-.09.93-.23 1.37-.41 1.91-.8 3.46-2.42 4.47-4.26 1.24-2.26 1.78-4.82 2.26-7.36"/><path d="m117.101 91.1406c-.01.06-.02.11-.02.17-.95 6.67-.96 13.4604-.07 20.1304.26 2.03.61 4.05 1.05 6.05 1.74 8.06 4.79 15.85 9.08 22.9.12.21.24.41.37.61 3.81 6.14 9.41 12.15 16.39 13.12.66.1 1.33.14 2.01.14 1.46-.01 2.92-.25 4.32-.66 1.49-.43 2.93-1.06 4.3-1.79 6.5-3.51 11.14-9.29 14.43-15.97 2.54-5.15 4.26-10.83 5.43-16.4.16-.76.31-1.53.45-2.29.5-2.67.91-5.35 1.21-8.04.67-5.58.92-11.2104.77-16.8304"/><path d="m170.92 94.7605c-3.77-.29-7.63.81-10.68 3.04-3.05 2.2305-5.27 5.5705-6.15 9.2505 4.02.66 8.26.6 11.68-1.6 3.43-2.21 5.51-6.6305 5.15-10.6905z"/><path d="m161.21 101.829c.02-.22.03-.44.01-.66-.02-.33-.09-.66-.22-.97"/><path d="m161.109 102.36c.04-.17.08-.34.1-.52"/><path d="m159.809 102.389c.08.48.26.95.55 1.35.08-.09.16-.18.23-.28.24-.33.41-.7.52-1.09"/><path d="m160.78 100.32c-.04-.11-.1-.22-.15-.3303-.07-.11-.13-.21-.2-.31-.22.29-.39.6103-.5.9503-.11.35-.18.72-.18 1.09 0 .09 0 .19.02.28 0 .13.01.26.04.38"/><path d="m159.81 102.38c0-.13-.01-.26-.04-.38 0-.07-.02-.13-.05-.19-.02-.15-.06-.29-.13-.43-.09-.26-.22-.51-.39-.74-.06.09-.11.19-.15.29-.53 1.15-.33 2.6.46 3.58.09.12.2.24.32.34.04.04.08.08.12.11l.05-.05c.21-.22.39-.46.54-.72.33-.55.52-1.18.57-1.82.01 0 0-.01 0-.01.07-.68-.04-1.38-.31-2.01"/><path d="m159.762 103.261c.06-.29.08-.58.05-.87"/><path d="m159.46 103.649c0 .15 0 .29.02.44 0 .14.01.28.03.42.02.22.05.45.1.67.07.36.32.8.67.7.01-.04.02-.08.02-.12.03-.11.05-.23.07-.35.07-.4.14-.81.17-1.22.03-.24.05-.49.05-.73.03-.88-.08-1.73-.45-2.46-.01-.05-.04-.1-.07-.15-.04-.07-.08-.15-.14-.22-.02-.05-.06-.1-.1-.15-.09-.13-.19-.25-.31-.37-.2.25-.35.53-.47.82-.41 1.06-.28 2.34.39 3.25.02-.03.03-.06.04-.09.02-.03.04-.06.04-.09.12-.23.19-.47.24-.72"/><path d="m161.001 100.701c-.06-.12-.13-.24-.2-.35-.01-.01-.01-.02-.02-.03-.06-.09-.12-.18-.19-.27-.02-.03-.04-.05-.06-.0803-.18.2803-.33.5803-.46.8803-.13.28-.23.57-.32.87-.01.03-.01.06-.03.09-.16.59-.25 1.21-.26 1.82"/><path d="m159.762 103.281c0 .55.09 1.1.24 1.63.03.14.08.28.13.42s.11.29.17.43c.09.2.19.39.3.58 1.09-1.45 1.3-3.5.62-5.17-.06-.16-.13-.31-.21-.46"/><path d="m159.762 103.28s0-.01 0-.02"/><path d="m158.378 101.021c-.1 1.46.13 2.95.68 4.32.18.44.4.87.77 1.17s.92.41 1.32.16c.35-.22.5-.66.62-1.06.62-2.1 1.14-4.47.08-6.3803-.19-.34-.51-.69-.89-.64-.36.05-.56.43-.71.76-.15.36-.3.7403-.42 1.1303-.09.3-.17.6-.24.9-.17.76-.23 1.53-.13 2.25v.02c.02.12.04.24.06.35.07.3.17.58.31.85.08.17.18.33.3.48.05.07.1.14.16.21.03-.04.05-.08.08-.13.65-1.06.94-2.33.84-3.57-.03-.39-.1-.77-.2-1.13 0-.01-.01-.01-.01-.01-.07-.29-.18-.57-.3-.8403-.03.04-.05.09-.07.13-.02.0203-.03.0403-.04.0603-.18.3-.33.62-.45.95-.16.44-.27.91-.33 1.38-.04.29-.06.58-.05.88"/><path d="m123.642 95.369c3.77-.28 7.63.82 10.68 3.05s5.27 5.57 6.14 9.24c-4.02.67-8.25.61-11.67-1.6-3.43-2.21-5.51-6.63-5.15-10.69z"/><path d="m132.991 102.02c-.08.48-.26.95-.54 1.35-.09-.1-.17-.2-.24-.3-.25-.34-.43-.73-.53-1.15-.04-.13-.06-.28-.08-.42-.03-.23-.04-.46-.02-.69.02-.33.09-.67.22-.9799"/><path d="m132.99 101.941c0-.11.02-.22.04-.33.01-.06.02-.12.04-.17.03-.15.07-.3.14-.44.09-.26.22-.51.39-.74.06.09.11.19.15.29.53 1.15.33 2.6-.46 3.59-.1.13-.21.24-.33.34-.03.05-.07.08-.11.11l-.04-.04c-.22-.22-.4-.46-.55-.73-.34-.57-.54-1.23-.58-1.9-.05-.65.05-1.31.31-1.91.05-.1402.12-.2802.19-.4102.06-.1.12-.2.19-.3.22.29.39.62.5.9602.11.35.18.72.18 1.09 0 .09 0 .18-.02.26.01.13-.01.25-.04.37"/><path d="m132.989 101.98s-.01.02 0 .04"/><path d="m132.991 101.98c.04.31.06.63.06.95-.01.55-.09 1.09-.24 1.62-.03.13-.07.26-.12.39-.06.16-.12.32-.19.47-.09.19-.18.38-.29.56-1.1-1.45-1.3-3.49-.63-5.16.06-.18.14-.35.23-.51.06-.1.11-.2.18-.29.06-.1204.14-.2304.23-.3404.01-.02.03-.05.05-.07.18.28.33.5804.46.8804.13.28.23.57.32.87.01.03.01.06.02.09.17.62.27 1.25.27 1.89 0 .13 0 .26-.02.39 0 .14-.01.28-.03.42-.02.22-.05.45-.1.67-.07.36-.32.8-.67.7 0-.03 0-.07-.02-.1-.03-.13-.05-.26-.07-.4-.08-.39-.14-.79-.17-1.19-.03-.25-.05-.5-.05-.75-.03-.88.09-1.72.45-2.45.02-.05.05-.09.07-.14.04-.08.09-.15.14-.22.03-.05.06-.1.1-.15.09-.1304.2-.2604.32-.3804.19.25.35.5304.46.8204.41 1.06.28 2.34-.39 3.26-.02-.03-.03-.06-.04-.09-.02-.02-.03-.05-.04-.08-.11-.23-.19-.46-.23-.71-.07-.3-.09-.61-.06-.91"/><path d="m132.989 101.979s-.01-.03 0-.04"/><path d="m134.419 100.64c.1 1.47-.13 2.96-.68 4.32-.18.44-.4.88-.77 1.18-.36.29-.91.41-1.31.15-.36-.22-.51-.65-.63-1.05-.62-2.1-1.14-4.48-.08-6.3904.19-.34.51-.6899.89-.6299.36.05.57.43.71.76.15.36.3.74.42 1.1303.1.29.18.59.24.89.18.79.25 1.59.13 2.33-.02.11-.04.21-.06.31-.07.29-.17.57-.32.84-.07.16-.16.32-.27.46-.05.08-.11.15-.17.22l-.09-.15c-.64-1.05-.93-2.3-.83-3.51.02-.41.09-.81.21-1.2.07-.28.18-.5503.3-.8203.02.04.05.0799.07.1199.02.02.03.04.04.07.18.3.33.6204.44.9504.16.42.27.87.33 1.32"/><path d="m152.439 116.67c-1.13.72-2.08 1.68-3.17 2.45s-2.42 1.35-3.74 1.12c-1.82-.31-3.03-1.99-3.99-3.56"/><path d="m146.18 120.439v7.52"/><path d="m133.02 124.539c1.37 1.23 2.85 2.17 4.45 2.84 1.59.67 3.3 1.06 5.12 1.21 1.15.1 2.35.09 3.59 0 1.17-.09 2.42-.22 3.7-.42 1.58-.24 3.2-.57 4.75-1.04 2.58-.76 4.96-1.87 6.68-3.51"/><path d="m142.571 128.77c-.77 2.27-1.79 4.46-3.03 6.51-.84-2.33-1.54-4.71-2.1-7.12"/><path d="m149.969 128.789c.56 2.35 1.54 4.6 2.89 6.59 1.11-2.47 1.76-5.14 1.89-7.85"/><path d="m163.66 52.1406c1.2-1.27 3.11-1.83 4.84-1.53.77.13 1.51.43 2.13.91 2.2 1.71 2.57 5.32.75 7.43 1.78-.97 3.75-1.97 5.74-1.83.23.02.46.05.69.1 2.22.48 3.88 3.46 2.3 5.09 2.21-1.98 5.96.91 5.82 3.88-.14 2.96-2.48 5.29-4.67 7.3"/><path d="m163.66 52.1406c-.11.18-.25.35-.41.51.13-.18.26-.35.41-.51z"/><path d="m147.121 57.9595c.06-.1.11-.2.15-.3 1.53-3.25 3.79-6.16 6.55-8.46 1.99-1.65 4.55-3.04 7.07-2.45 2.3.54 3.91 3.5 2.77 5.39"/><path d="m113.672 61.8503c.04-.53.14-1.06.29-1.56.95-3.32 4.05-6.01 7.5-6.29.24-.03.49-.04.74-.03 2.51.82 2.03 1.98 1.84 3.62 1.98-2.44 3.31-5.14 6.44-5.42s6.3 3.69 4.17 6.01c1.77-.74 3.2-2.08 4.79-3.15s3.52-1.9 5.38-1.44c1.75.43 3.12 2.46 2.45 4.07"/><path d="m113.668 61.8496c.05.21.04.43-.02.65 0-.22 0-.44.02-.65z"/><path d="m114.922 73.2497c-4.4-.5-8.07-6.94-5.97-10.84.55-1.02 1.48-1.95 2.64-2.05.93-.08 1.91.63 2.08 1.49"/><path d="m113.279 60.0807c-3.17-9.51-10.95-19.92-20.7301-22.11-9.78-2.19-19.97-.98-29.92.25 7.45-3.09 15.13-5.83 23.14-6.79 8-.95 16.4201 0 23.4601 3.94 7.03 3.93 11.57 10.32 12.2 18.35"/><path d="m168.578 50.2097c3.74-9.76 12.01-17.26 22.32-18.99 7.08-1.19 14.44.89 20.54 4.67 6.11 3.78 11.07 9.16 15.38 14.9-8.1-4.82-17.26-8.42-26.67-8.07-9.42.35-19.04 5.3-23.01 13.85"/><path d="m118.809 142.911c-.5 1.94 2.27 3.76 4.25 2.97 2.1-.83 3.15-3.16 3.8-5.32"/><path d="m118.828 142.87c.03-.1.07-.19.1-.28-.04.09-.08.19-.1.28z"/><path d="m118.829 142.869s-.01.02-.02.04"/><path d="m95.33 127.779c-.8 2.3-1.09 4.77-.89 7.2.08.91.26 1.86.72 2.63.16.25.35.48.57.69 1.18 1.07 3.09.95 4.47.14 1.38-.8 2.36-2.14 3.29-3.43-.76 2.72-1.13 5.54-1.08 8.37.01.87.08 1.78.57 2.5.92 1.35 3 1.4 4.4.55 1.39-.86 2.25-2.34 3.05-3.75-.36 2.28.25 4.71 1.65 6.55.18.03.37.04.55.04 2.83 0 5.08-3.5 6.18-6.36"/><path d="m95.3281 127.781c.18-.25.3-.55.33-.9-.12.3-.23.6-.33.9z"/><path d="m98.0304 99.3809c-4.16 2.4101-7.59 6.0701-9.72 10.3901-.75 1.52-1.31 3.44-.31 4.81 1.38 1.87 4.29 1.11 6.41.17-1.94 1.98-3.4 4.42-4.21 7.07-.62 2-.8 4.41.58 5.99 1.15 1.32 3.64 1.24 4.55-.03"/><path d="m199.75 90.5701c2.04-.34 3.26.6899 3.74 2.6299.14.58.18 1.1701.15 1.7601-.08 1.38-.56 2.76-1.03 4.07 1.53-1.54 4.18-1.54 5.7.01 1.52 1.5499 1.67 4.3999.33 6.1299 2.36-2.17 6.65-.79 7.52 2.43s.79 6.01-.51 10.5c0 .01-.01.03-.01.04"/><path d="m246.83 231.189c.38 4.35.55 8.43.44 12.29-.32 11.9-3.16 21.69-9.85 30.73-3.65 4.92-9.39 12.88-15.46 14.35-.63.15-1.27.23-1.91.23-5.41 0-9.92-3.88-12.8-7.47-.9-1.14-1.64-2.24-2.2-3.19-5.78-9.89-8.23-22.63-9.77-34.8-.53-4.14-.95-8.22-1.37-12.1-.19-1.82-.35-3.78-1.55-5.15-1.23-1.42-3.24-1.83-5.11-2.11-.98-.14-1.97-.28-2.96-.41-2.75-.39-5.51-.83-8.09-1.69-1.41-.47-2.77-1.06-4.04-1.84-4.47-2.74-7.52-8.69-5.09-13.33"/><path d="m180.472 213.821c-4.05.16-8.14-1.59-10.84-4.62-.7-.79-1.3-1.66-1.79-2.58-1.42-2.65-1.99-5.76-1.52-8.73"/><path d="m179.45 204.16c-3.8-.6-7.75-1.42-10.74-3.84-.86-.69-1.57-1.59-2.12-2.59-1.37-2.49-1.69-5.66-.46-8.12.52-1.04 3.12-3.21 3.65-3.47 6.76-3.3 5.89.69 6.24 2.26.5 2.25-.54 4.24 1.56 5.2s5.55.87 6.77-2.16"/><path d="m223.6 265.901c3.11-6.22 2.94-16.05 1.34-22.42-.23-.9-.49-1.74-.77-2.48-.81-2.14-1.62-4.29-2.45-6.43-3.56-9.21-7.38-18.32-12.54-26.72-6.35-10.35-12.35-18.48-23.27-23.79"/><path d="m184.35 191.44c.25-2.22-.08-5.11.78-7.17.07-.16.14-.31.22-.47.89-1.86 2.37-3.51 4.33-4.16 2.49-.83 5.29.11 7.32 1.76 2.04 1.64 3.47 3.91 4.86 6.13.09-4.71-2.21-9.62-6.38-11.82-4.17-2.19-11.84-.53-14.07 3.63"/><path d="m181.4 179.89c-.07-.13-.15-.27-.23-.4-1.93-3.13-6.59-5.6-10.78-6-1.75-.17-3.42.02-4.78.68-.59.28-1.2.68-1.81 1.16-4.26 3.36-8.62 10.96-9.07 15.54 1.49-2.11 6.96-7.34 9.15-8.72 3.29-2.08 11.81-2.65 12.14 6.25"/><path d="m184.29 223.551c-.11 6.62.76 12.66 4.65 16.65.75.77 1.58 1.37 2.44 1.86 1.26.73 2.56 1.1 3.9 1.27 1.2.17 2.43.18 3.71.15h55.7l10.16 38.52"/><path d="m254.69 243.48-12.21 38.52"/><path d="m264.848 282.09h5.22s-15.77 26.24-33.49 0z"/><path d="m176.181 221.93c.1 6.61-.76 14.42-4.65 18.42-.75.76-1.58 1.36-2.44 1.86-2.39 1.36-4.89 1.48-7.62 1.41h-53.7l-9.7202 37.74"/><path d="m107.77 243.619 9.44 37.74"/><path d="m117.211 282.131h7.22s-15.77 26.23-33.4896 0z"/><path d="m226.719 145.97c.95 1.19 3.2 1.32 4.35.13 1.37-1.44 1.23-3.84.2-5.54-1.02-1.7-2.72-2.87-4.36-3.98 3.26-1.06 4.15-5.75 2.24-8.6-1.92-2.85-5.38-2.44-8.82-2.48.84-1.54 1.08-3.85.35-4.98-.91-1.75-2.85-2.77-5.03-2.42-2.36.38-4.99 2.39-6.86 6.86"/><path d="m226.72 145.969c-.08-.3-.21-.59-.4-.85.07.33.21.61.4.85z"/><path d="m189.91 138.6c.19 2.33 2.48 4.13 4.81 4.28 2.33.16 4.59-1.03 6.26-2.67.51 1.74 1.09 3.6 2.5 4.74.4.32.88.54 1.38.66 1.31.3 2.77-.09 3.3-1.29 1.06 2.58 2.43 5.35 5.01 6.39 1.5.61 3.39.1 4.54-.95.82-.75 1.27-1.78.91-2.89.48 2.34 2.9 4.23 5.24 3.76 2.02-.4 3.41-2.76 2.86-4.66"/><path d="m218.18 149.811c8.66 6.38 13.74 12.72 19.34 21.9.09.15.18.29.27.44 4.79 7.95 8.49 16.76 8.27 25.58-.19 8.02-1.31 10.12 1.34 20.43"/><path d="m246.061 197.73c4.35 6.92 15.2 18.69 18.26 26.27-4.4 2.29-10.86 4.64-17.68 6.51-8.75 2.42-18.09 4.07-24.45 3.88"/><path d="m95.0895 137.68c-3.3.64-11.51 1.72-17.32 13.82"/><path d="m227.469 422.4c-1.18-15.9-2.37-31.81-3.77-47.69-1.94-21.97-4.29-43.9-7.64-65.69-1.48-9.63-3.37-19.7-9.16-27.43-.38-.51-.79-1.02-1.21-1.51-3.09-3.62-7-6.43-10.9-9.16-5.37-3.77-11.11-7.6-17.64-8.16-4.05-.35-8.12.6-11.91 2.09-6.16 2.43-11.74 6.32-16.16 11.25-6.29 7.02-10.08 15.92-12.96 24.9-2.76 8.61-4.62 17.67-5.72 26.83-1.08 9-1.42 18.1-1.16 26.98v.16"/><path d="m188.292 314.49c5.17 38.85 7.89 78.03 8.13 117.21.02 3 0 8.7 0 8.7-.6.92-1.38 1.67-2.28 2.25-3.91 2.5-9.99 1.73-12.57-2.3 0 2.63-2.43 5.01-5.05 4.95-2.62-.05-4.95-2.53-4.84-5.15-2.6 3.34-5.85 6.57-10.01 7.36s-9.18-1.98-9.27-6.22c-2.45 3.5-7.14 5.26-11.28 4.23-4.14-1.04-7.46-4.79-7.98-9.03-3.1 2.99-7.2 5.37-11.48 4.94-1.31-.13-2.59-.61-3.71-1.33-2.54-1.65-4.23-4.57-3.48-7.47-3.28 2.72-7.66 1.03-9.12-2.97 1.51-4.84 3.02-9.68 4.54-14.51 6.31-20.16 12.68-40.3 19.34-60.34 5.13-15.43 10.42-30.8 15.99-46.08"/><path d="m198.738 330.84c-2.84 16.9-2.55 24.54-4.41 41.58"/><path d="m129.55 327.79c-14.57-7.78-16.34-8.99-24.96-12.36"/><path d="m39.0703 341.051c0 7.03 1.36 15.37 3.45 24.09.67 2.82 1.42 5.68 2.22 8.55 2.64 9.43 5.85 18.91 8.83 27.29 1.44 4.06 2.83 7.86 4.07 11.27"/><path d="m52.0198 456.481c0-3.95-2.14-7.85-5.48-9.97-3.34-2.13-7.77-2.43-11.36-.76-3.86 1.8-6.44 5.49-8.84 9.01-.1-5.13.66-10.59 3.88-14.59 3.22-4.01 9.51-5.86 13.68-2.85-.99-4.81-5.32-8.72-10.19-9.22-4.88-.51-9.92 2.44-11.87 6.94 1.1-3.99 2.75-8.01 5.82-10.79 3.07-2.79 7.85-4.01 11.47-1.99-3.77-6.5-5.55-14.13-5.04-21.63 4.18 2.74 7.7 6.46 10.2 10.79 3.95 6.82 5.24 14.81 6.46 22.6.12-1.69.34-3.37.67-5.02 1.13-5.84 3.48-11.4 6.77-16.38 4-6.06 9.36-11.24 15.57-14.97 2.43-1.46 4.99-2.7 7.65-3.68 2.23-.83 4.52-1.47 6.87-1.91-2.77 6.64-5.61 13.39-10.22 18.91-3.87 4.64-8.83 8.22-13.05 12.54-4.22 4.31-7.83 9.78-7.86 15.81 3.03-8.97 10.26-16.42 19.14-19.71 7.47-2.76 15.98-2.53 23.34.5 1.3902.57 2.7302 1.23 4.0202 2-3.9902 4.6-9.1302 8.19-14.8102 10.35-4.99 1.9-10.37 2.72-15.37 4.55-.92.33-1.83.7-2.72 1.12-5.72 2.7-10.99 6.95-10.21 13.23"/><path d="m73.5999 437.35c-2.03 6.5-6.64 11.64-12.62 14.85-.29.16-.58.31-.87.46-1.78.89-3.66 1.57-5.41 2.53-.86.47-1.68.99-2.46 1.58-4.77 3.49-8.11 8.81-11.25 13.93-.36.59-.73 1.23-.69 1.92.07 1.27 1.42 2 2.59 2.49 6.74 2.77 13.81 5.13 21.1 5.2s14.89-2.44 19.58-8.02"/><path d="m117.56 440.51c-6.56 15.52-25.4805 3.74-37.0405 26.39 1.11 1.91 2.52 3.61 4.14 5.09 3.56 3.26 8.15 5.48 12.87 6.63 6.8705 1.67 14.0805 1.33 21.1105.55 18.29-2.05 37.23-7.65 49.69-21.2-.21 6.75-1.1 13.44-.7 20.19 9.65.01 19.29.4 28.91 1.18.15-4.12.31-8.27.33-12.4.06-8.11-.37-16.2-2.2-24.08"/><path d="m197.121 466.94c17.25 7.35 39.39.18 49.05-15.89 7.15-11.88 7.52-26.65 5.69-40.39-1.81-13.59-8-25.85-11.94-38.99"/><path d="m108.87 414.83c-2.88-.07-5.73-1.08-8.01-2.83.02 2.83.24 5.52-1.1803 7.97"/><path d="m93.5312 334.49c8.6598 15.52 17.9098 31.88 26.5698 47.41 1.13-6.14-1.74-13.54-3.52-19.52-2.49-8.38-4.98-16.75-7.47-25.13"/><path d="m51.2298 428.959c-.08-.72-.15-1.43-.21-2.15-.32-3.65-.45-7.3-.4-10.94.06-4.82.46-9.71 2.63-14.26.1-.21.2-.42.32-.63 2.23-4.3 6.25-8.23 11.9-10.26.02-.01.05-.02.07-.03"/><path d="m37.6102 420.83c-2.79-5.82-5.55-6.78-12.2-6.63"/><path d="m162.169 90.2305c-3.49 1.34-6.71 3.36-9.45 5.91"/><path d="m139.541 97.2792c-1.66-2.61-4.35-4.56-7.35-5.33"/><path d="m216.589 190.939c.19 6.86.06 17.08-3.55 22.91"/><path d="m169.001 135.859c-.85 2.5-1.7 5.2-.97 7.74.73 2.53 3.78 4.55 6.07 3.23-2.05 2.03-2.26 5.63-.47 7.88.99 1.25 2.52 1.99 4.1 2.13 1.28.14 2.59-.13 3.68-.82-.36 2.38-.72 4.82-.25 7.18.46 2.35 1.82 5.04 4.19 5.47 3.3.6 6.24-4.11 6.46-6.43 6.86.29 10.84-6.53 8.34-13.33 0 0 4.55.71 4.69-3.22"/><path d="m177.581 193.601c-2.42-1.1-3.24-2.98-4.94-3.21"/><path d="m35.9806 63.0191c2.18-1.63 3.59-4.24 3.59-7.18 0-4.95-4.01-8.97-8.96-8.97s-8.97 4.02-8.97 8.97 4.01 8.96 8.97 8.96c2.02 0 3.87-.66 5.37-1.78z"/><path d="m24.0508 39.7609c0 3.62 2.94 6.55 6.56 6.55s6.55-2.93 6.55-6.55-2.93-6.55-6.55-6.55-6.56 2.93-6.56 6.55z"/><path d="m30.6094 64.8008 13.97 84.8002"/><path d="m36.6406 63.1191s15.09 33.78 60.37 33.14"/><path d="m251.399 62.7591c-2-1.65-3.27-4.14-3.27-6.92 0-4.95 4.02-8.97 8.97-8.97s8.96 4.02 8.96 8.97-4.01 8.96-8.96 8.96c-2.16 0-4.15-.77-5.7-2.04z"/><path d="m263.649 39.7609c0 3.62-2.93 6.55-6.55 6.55s-6.56-2.93-6.56-6.55 2.94-6.55 6.56-6.55 6.55 2.93 6.55 6.55z"/><path d="m257.1 64.8008-18.58 106.9102"/><path d="m251.061 63.1191s-11.68 30.22-46.12 31.89"/><path d="m222.02 288.789c5.28 29.52 15.53 46.88 33.7 70.74-5.71 3.42-10.72 7.83-16.03 11.84-.99.76-2 1.5-3.02 2.22-3.28 2.3-9.4 2.3-12.53 1.08"/><path d="m255.721 359.53c-9.65-.2-20.72-8.28-23.78-17.43"/><path d="m109.561 98.7296c-.17-.1-.36-.16-.55-.18-.54-.07-1.14.16-1.56.55-.56.51-.87 1.2504-1.13 1.9704-.59 1.66-.99 3.53-.32 5.16.26.62.66 1.17.86 1.81.19.57.2 1.17.21 1.77.03 1.26.06 2.51.08 3.77.04 1.56.08 3.12.11 4.67 0 .37.03.77.27 1.04.17.19.42.29.66.38.97.34 1.98.54 3.01.61-.18-1.13-.33-2.27-.46-3.41-.27-2.25-.44-4.5-.53-6.76.86-.39 1.65-.95 2.29-1.65"/><path d="m187.521 94.7207c2.61 2.66 2.44 7.5103-.34 9.9703-.29.26-.61.5-.78.84-.15.27-.19.59-.23.9-.24 2.01-.49 4.02-.73 6.03l-.6 4.89c-1.71.59-3.36 1.37-4.9 2.32l.54-4.8c.3-2.66.6-5.32.89-7.98"/><path d="m180.399 114.859c-1.47 1.3-3.35 2.13-5.29 2.34"/><path d="m99.9786 80.4302c-1.19.39-2.2301 1.12-3.3501 1.69-.3.15-.61.29-.93.41-1.49.56-3.5.39-4.25-1.01-.64-1.2-.0099-2.77 1.0601-3.61s2.46-1.14 3.79-1.42"/><path d="m143.781 155.111c-1.24 1.57-2.51 3.11-3.83 4.62-5.02 5.8-10.56 11.15-16.53 15.97-2.02-4.13-4.03-8.26-6.04-12.39-2.1-4.31-4.26-8.89-3.88-13.67"/><path d="m150.32 153.939c1.26 1.02 2.51 2.24 3.71 3.58 4.27 4.81 7.9 11.32 9.43 16.93"/><path d="m170.422 173.159c2.84-3.86 5.6-9.99 7.29-16.04"/><path d="m153.41 157.961c-3.7 1.56-9.58 3.08-13.39 1.83.51 3.28.34 5.85 1.67 8.89.14.31.3.63.57.84l.03.03c.34.24.79.24 1.21.24 1.13-.01 4.32-.32 5.45-.33.27-.01.55-.01.78-.16.28-.18.4-.52.54-.83.36-.74.98-1.32 1.5-1.96 1.82-2.25 2.52-5.79 1.64-8.55z"/><path d="m149.728 169.301c-3.58 34.47 1.98 58.44 5.34 74.32.76 3.59 1.4 6.76 1.8 9.55.15 1.02-17.69 16.57-21.11 20.53-3.23-4.09-6.18-8.19-8.11-13.03 1.62-5.47 2.76-11.26 3.66-17.05.52-3.3.96-6.6 1.37-9.83 1.21-9.54.76-19.22 1.45-28.82.19-2.6.46-5.2.83-7.78 1.3-9.37 3.71-18.58 7.18-27.38.04-.09.07-.19.11-.28"/><path d="m141.771 169.67c-7.46 11.97-13.56 25.15-15.49 39.12-.92 6.67-2.07 12.93-4.73 19.11 1.7 2.24 2.33 5.25 4.03 7.49 2.48-5.52 4.25-10.74 4.99-16.74.79-6.34 2.12-10.06 4.32-21.47"/><path d="m61.1316 164.439c4.46.33 8.7 1.46 12.58 3.24 2.33 1.07 4.52 2.37 6.56 3.88 9.04 6.7 14.9 17.45 14.9 29.57 0 15.7-9.83 29.1-23.67 34.38-4.07 1.56-8.49 2.41-13.11 2.41-5.12 0-9.99-1.05-14.42-2.93-7.93-3.39-14.43-9.48-18.35-17.11-2.57-5.02-4.02-10.72-4.02-16.75 0-10.56 4.13-19.77 11.25-26.47"/><path d="m64.6083 149.13c-1.94-1.09-4.59-2.27-6.8-2.51-2.21-.23-4.69.63-5.7 2.61-.05.1-.09.2-.14.3-.28.7-.41 1.48-.52 2.24-.68 4.52-1.36 9.11-.78 13.65.22 1.78.64 3.53.76 5.32.15 2.28-.2 4.55-.63 6.8-.11.54-.22 1.08-.33 1.61 3.23-.08 6.14-2.31 7.71-5.13s1.97-6.16 1.88-9.39c0-.05 0-.1-.01-.15-.1-3.18-.62-6.33-.81-9.5"/><path d="m51.4303 149.321c-1.59-.77-3.47-.41-5.16.09-.52.15-1.03.32-1.52.54-.48.21-.93.46-1.34.79-.88.72-1.44 1.72-1.76 2.82-.3.95-.42 1.98-.43 2.97-.09 7.1 3.67 15.1 3.88 22.39.03 1.08-.02 2.14-.17 3.19 1.74-.04 5.07-2.99 5.75-4.59"/><path d="m41.1105 153.41c-1.3-.63-4.05.72-4.8 1.96-.68 1.13-1.09 2.38-1.27 3.68-.24 1.6-.16 3.27.12 4.87.5 2.89 1.58 5.65 2.33 8.49.78 2.96 1.2 6.02 1.27 9.08.02 1 0 2-.05 3 2.83-.59 5.48-2.77 6.22-5.57"/><path d="m34.8583 159.02c-1.81.37-4.18 2.19-4.87 3.9-1.21 3 .09 5.79 1.42 8.73.46 1 .96 1.99 1.47 2.99 1.46 2.85 2.92 5.72 3.11 8.86.72-.03 2.69-1.29 2.69-2.01"/><path d="m70.6014 158.71c-2.86-1.26-4.84-3.82-5.36-6.65-.24-1.3-.32-2.17-.5-2.96-.21-.93-.57-1.74-1.5-2.99-1.1-1.46-2.65-3.2-3.11-5.94-.87-5.25 1.55-6.3 4.94-7.34.38 3.98 2.73 7.41 5.37 10.44 2.41 2.77 5.12 5.34 7.12 8.37.2.29.38.59.56.89 2.02 3.41 3.57 9.45-1.5 15.06"/><path d="m47.5586 186.62c1.11-.44 1.95-1.54 2.01-2.73.07-1.43-.58-2.62-1.97-2.96"/><path d="m47.5602 186.619c-.23-.02-.45.03-.65.17.22-.03.44-.09.65-.17z"/><path d="m33.5117 206.959c2.96 2.87 5.64-.11 5.64-1.66 1.18 2.24 2.55 4.65 4.91 5.55 2.37.9 5.73-.98 5.14-3.44 1.3 1.81 2.74 3.73 4.85 4.43 2.12.71 4.99-.55 5.03-2.78 1.17 3.75 5.43 6.24 9.26 5.41.74-.15 1.01-.14 1.85-1.17.36-.44.66-1.52.57-2.08-.47-2.88-2.28-6.11-5.19-6.08 1.89-1.44.78-4.77-1.39-5.74s-4.68-.33-6.95.36c-.01-2.44-1.37-4.83-3.47-6.08-2.09-1.25-4.84-1.31-6.99-.16.06-1.01.7-1.87 1.29-2.69.58-.82 1.15-1.76 1.02-2.76-.1-.76-.82-1.43-1.52-1.45"/><path d="m33.9018 179.131c-2.64 1.66-3.45 5.64-1.67 8.21-2.43 1.05-3.83 4.05-3.08 6.59.2.67.53 1.3.86 1.93"/><path d="m54.3692 218.101h-.01c-1.63.01-2.77 1.11-3.3 2.66-.54 1.55-.42 3.25-.29 4.89-.5-.97-1.02-1.96-1.86-2.64s-2.1-.97-3.02-.4c-1.02.64-1.29 2.09-2.27 2.78-.22-1.58-.45-3.19-1.14-4.64-.69-1.44-1.93-2.71-3.49-3.03-1.57-.32-3.41.58-3.78 2.13-.07-1.28-.17-2.64-.92-3.68-.76-1.04-2.42-1.52-3.34-.63"/><path d="m71.4414 235.34c.02.06.04.12.06.17 1.7 5.01 3.67 9.34 5.86 14.16 0 0-3.09 1.49-6.86 2.85-3 1.08-6.42 2.07-9.06 2.16"/><path d="m43.6406 235.74c-.56 1.47-1.25 3.03-1.98 4.64-1.34 2.94-2.83 6.04-4.02 9.02l5.27 2.96"/><path d="m52.9183 255.08c-3.67 1.19-6.66 3.82-9.07 6.88-.4.5-.77 1-1.13 1.52-.17.24-.34.49-.51.74-.75 1.11-1.46 2.3-1.7 3.62-.25 1.4.05 2.84.52 4.17.46 1.31 1.1 2.6 2.18 3.46s2.68 1.19 3.86.48"/><path d="m52.9219 255.08c2.37-.84 4.96-.54 7 .12.66.21 1.26.47 1.78.73.74.38 1.42.88 2.12 1.31.43.27.87.51 1.33.69.31.12.63.21.96.27 2.22.47 4.68-.11 6.85.63 1.67.58 3.01 1.88 4.64 2.51.18.08.36.14.55.19 1.69.46 3.86.21 4.81 1.69.72 1.13.15 2.76-.96 3.53-1.1.77-2.55.84-3.88.65-.29-.05-.6-.1-.86.02-.58.24-.61 1.03-.9 1.58-.44.82-1.52 1.1-2.42.9-.9-.21-1.66-.79-2.39-1.35-.03.94-.79 1.8-1.71 1.95-.93.14-2.33-1.03-2.64-1.91"/><path d="m45.2109 264.981c.03.89.06 1.79.13 2.68.11 1.69.33 3.37.87 4.98.3.92.72 1.82 1.26 2.63.09.14.18.27.28.4.85 1.19 1.96 2.16 3.3 2.72 1.52.63 3.23.68 4.86.5.92-.11 1.84-.3 2.73-.58 1.57-.5 3.06-1.25 4.34-2.22 1.82-1.41 3.22-3.26 3.84-5.47.19-.66.29-1.34.31-2.03.13-3.5-1.75-7.06-4.83-8.78"/><path d="m43.6183 261.769c-3.46-1.82-4.72-2.5-5.84-3.07-.76-.39-1.46-.73-2.74-1.33-.84 2.33-3.87 7.46-4.33 11.61-.28 2.5.21 5.07 1.01 7.45 1.81 5.39 7.2 9.21 12.86 9.7-.77 4.87-1.35 10.23-1.43 15.16v.09c1.31.33 2.52.66 3.83.98 3.04.75 6.19 1.51 9.27 1.03.15-.01.3-.04.45-.07-1.25-3.98-2.05-7.88-2.5-12.03-.04-.35-.05-.7-.03-1.04.14-4.16 3.76-7.57 4.51-11.83"/><path d="m54.1982 290.34-.03-.09c-.73-2.02-1.4499-4.04-2.1799-6.06-.58-1.62-1.17-3.29-1.16-5.01"/><path d="m48.8995 295.77c-1.63-.56-3.26-1.13-4.88-1.7"/><path d="m62.9016 276.101s.05-.01.08-.01c1.81-.46 4.24.66 5.78 1.71 6.31 4.29 11.61 9.88 16.86 15.42-.5.45-1 .9-1.5 1.36-2.88 2.64-5.74 5.48-8.4 8.35-.53.57-1.06 1.15-1.57 1.72-1.54-1.79-3.01-3.7-4.28-5.71-.39-.61-.75-1.23-1.1-1.86-.66-1.21-1.27-2.44-2.05-3.57-2.09-3.02-5.33-5.16-7.12-8.36"/><path d="m80.7689 291.811c-.03.1 0 .21.1.24.14.04.22-.24.08-.24"/><path d="m80.7694 291.811c-.31.25-.4.76-.16 1.1.55-.15.87-.84.63-1.36-.15.01-.31.03-.41.13-.04.03-.06.08-.06.13z"/><path d="m80.9195 291.711c-.06.03-.11.06-.15.1"/><path d="m36.6883 261.87s-.1-.1-.16-.14c-.13-.08-.27-.13-.42-.16.05.24.09.48.13.72.01.07.03.13.04.2.18-.21.26-.49.25-.76-.01-.21-.08-.41-.21-.58-.43.26-.54.94-.2 1.32l.12-.18c.05-.06.09-.12.13-.18"/><path d="m63.1094 295.241c1.17-.5 2.22-1.29 3.03-2.28"/><path d="m69.7395 299.02c-1.92 1.27-3.85 2.54-5.98 3.42-2 .83-4.22 1.3-6.36.99-.13 0-.25-.03-.38-.05"/><path d="m56.4105 304.35c-1.6 2.97-5.18 3.91-7.11 6.69-1.48 2.13-2.06 4.87-1.58 7.42.49 2.55 2.04 4.89 4.2 6.33-.92 1.42-1.62 3.14-2.63 4.49-1.11-.74-2.35-1-3.47-1.75-.69 4.91-3.41 9.66-7.16 13.09-1.34 1.25-2.81 2.32-4.37 3.17-.25.14-.55.28-.82.19-.41-.13-.51-.65-.53-1.08-.29-5.88 2.27-11.51 5.11-16.67.36-.66.73-1.32.86-2.05.15-.84-.04-1.7-.19-2.54-1.31-7.06-.25-14.92 4.43-20.35.07-.09.15-.18.23-.27"/><path d="m84.1406 294.6c.94 1.02 1.75 2.17 2.38 3.4l.18.36c.42.88.73 1.81.7 2.77-.01.41-.09.83-.24 1.22-.25.62-.67 1.16-1.25 1.48-.01 0-.03.02-.05.03"/><path d="m83.9291 300.02c.51 1.17 1.02 2.39.98 3.67-.05 1.27-1.88 2.6-3.12 2.88"/><path d="m81.6787 302.57c.45 1.28.45 2.69.0401 3.98-.0701.24-.1601.48-.2701.71-.27.58-.65 1.13-1.18 1.46-.07.05-.15.09-.23.13-.66.3-1.55.18-1.95-.42-.45-.67-.15-1.57-.3-2.36-.07-.4-.26-.85-.5-1.3-.42-.74-1.0099-1.45-1.5699-1.84"/><path d="m76.719 304.939c-1.06 1.78-1.29 3.99-.75 5.98.27 1.03.75 2 1.43 2.82"/><path d="m86.8789 298.23c2.76.17 5.38 1.76 6.81 4.13"/><path d="m96.8213 300.561c-.91.77-1.84 1.52-2.77 2.26-1.15.93-2.32 1.84-3.5 2.73-.81.63-1.6301 1.24-2.4601 1.84-2.11 1.55-4.25 3.05-6.42 4.51-1.27.86-2.54 1.7-3.83 2.52-1.02.66-2.04 1.3-3.06 1.94"/><path d="m74.7812 316.361c3.87 4.27 8.0101 8.46 11.8701 12.74 5.87-4.7 11.78-9.34 17.7197-13.95.99-.77 1.98-1.53 2.97-2.3-3.41-4.29-6.63-8.43-10.5197-12.29"/><path d="m75.9098 310.941c-4.46 1.09-8.1 1.08-11.27-.22-1.14-.46-2.22-1.06-3.21-1.78-1.79-1.3-3.25-3.01-4.09-5.05"/><path d="m55.0003 274.5c-1.21 1.23-3.23 1.44-4.68.49"/><path d="m51.8816 271.98-.03.09s-.02.06-.02.1c0 .09.02.19.07.28.15-.3-.04-.71-.36-.78-.03.05-.05.1-.07.16-.04.12-.04.26.04.36s.25.06.32-.02c.03-.03.04-.06.02-.1 0-.01 0-.02-.01-.03"/><path d="m59.3394 266.65c-1.53.52-2.97 1.31-4.23 2.34"/><path d="m49.7092 268.641c-.1-.06-.19-.13-.29-.19-.74-.47-1.54-.91-2.4-.84-.36.03-.74.14-1.07.01"/><path d="m59.7108 262.449c-.29-.08-.58.1-.83.26-.96.66-1.93 1.32-2.89 1.98.57-.66 1.14-1.32 1.7-1.98-.75.49-1.47 1.05-2.14 1.65.09-.36.3-.7.59-.95"/><path d="m48.1194 265.041c-.63-.44-1.36-.73-2.12-.83.51.21 1.01.48 1.47.8-.66-.07-1.29-.28-1.86-.62"/><path d="m49.0314 268.881s-.05.09-.07.14c-.12.47-.14.99-.05 1.49.04-.01.07-.04.09-.08.03-.04.04-.1.04-.16"/><path d="m49.0486 268.779s-.01.06-.01.09c0 0-.01 0-.01.01-.1.49-.11 1.03-.03 1.55.02.17.05.33.09.49.27-.51.33-1.22.14-1.84-.03-.11-.11-.24-.19-.21"/><path d="m55.6908 269.04c-.04.15-.08.31-.1.48-.04.33-.04.67.01 1 .02.19.06.37.11.55.14.06.21-.18.21-.36v-.02c-.01-.53-.02-1.05-.03-1.58 0-.14-.05-.34-.16-.32-.06.24-.11.48-.14.73-.03.21-.04.43-.04.65 0 .12.01.24.05.35 0 .03.02.05.03.08.07.11.21.18.29.11l.02-.02s.06-.13.07-.21c.05-.41.06-.83.03-1.25"/><path d="m60.0081 254.94c.3-.13.58-.27.86-.43 1.97-1.1 3.54-2.92 4.31-5.04.34-.92.47-2.07-.22-2.75-.77-.74-2.07-.45-2.93.17-1.34.96-2.23 2.56-3.76 3.16-1.19.48-2.53.25-3.81.34-1.6.12-3.15.76-4.36 1.8-.58.5-1.11 1.1-1.83 1.36-1.75.64-3.5-1.04-5.36-1.19-1.31-.1-2.61.61-3.36 1.68-.75 1.08-1.31 3.28-1.07 4.57"/><path d="m81.3608 311.43c-.51-.79-.79-1.73-.81-2.67"/><path d="m90.1894 305.08c-.55-1.43-1.17-2.05-2.58-2.65"/><path d="m87.6517 306.779c-.24-1.14-.86-2.19-1.74-2.95-.05-.06-.1-.1-.15-.14"/><path d="m66.1719 257.91c2.49-.17 4.6-2.57 4.45-5.06"/><path d="m61.4688 308.93s-.0301.01-.0401.01c-6.01 1.44-10.34 4.58-13.7099 9.52"/><path d="m80.6719 171.06c-.23-1.89.83-3.87 2.53-4.73s3.92-.54 5.31.77c.42-2.25 1.8-4.45 3.94-5.24 2.15-.79 4.99.35 5.49 2.59.93-2.07 3.5001-3.24 5.6701-2.57 2.18.66 3.65 3.07 3.26 5.31 1.84.23 3.68.84 5.06 2.07s2.23 3.15 1.87 4.97c-.37 1.81-2.11 3.34-3.96 3.16.71 2.23-1.82 4.51-4.14 4.19-.58-.07-1.12-.27-1.62-.54-1.5-.83-2.61-2.44-3.14-4.11-.74 1.62-3.0701 2.05-4.5701 1.09-1.5-.95-2.15-2.89-1.98-4.65-1.4 1.05-3.77.28-4.28-1.4"/><path d="m103.98 181.35c.2 2.6-.84 4.84-3.84 6.67 1.44-.26 5.51-.13 6.65 3.3.46 1.38.07 2.9-.26 4.32 1.26-1.43 3.57-1.81 5.23-.85 1.65.96 2.47 3.15 1.85 4.96 1.19-1.11 2.7-1.98 4.32-2.03 1.63-.05 3.35.89 3.84 2.45.49 1.55-.69 3.5-2.32 3.5 1.46 1.35 1.36 3.83.19 5.44-1.16 1.61-3.1 2.48-5.03 2.97-1.77.45-4.24.24-4.64-1.55.4 1.64-.5 3.5-2.04 4.19s-3.53.14-4.49-1.25c-.48 2.17-2.95 4.39-6.4199 3.12-.36-.13-.7299-.3-1.1099-.51"/><path d="m24.7701 218.23c-1.6 1.12-2.09 3.06-1.75 4.78.35 1.72 1.38 3.28 2.4 4.8-.92-.89-2.76-.63-3.73.2-.98.84-2.15 1.83-2.43 2.97-.18.69-.1 1.49.68 2.3.49.52 2.11 1.67 2.95 1.69-1.06 1.05-3.15 1.95-3.36 3.31-.22 1.36.3 2.84 1.57 3.71 1.33.92 3.26 1.02 4.92.64s3.12-1.2 4.55-1.99c-.67.53-1.39 1.89.21 2.81.16.09 1.65.79 3.07.38 2.56-.74 2.77-3.19 4.1-5.15.34.99 2.45 1.7 3.71 1.7h.04"/><path d="m77.6289 261.261c1.32-2.01 1.86-4.53 1.47-6.91 1.61 1.36 4.3.8 5.58-.87s1.28-4.08.41-5.99c-.88-1.91-2.5-3.39-4.25-4.56 2.05.6 4.45-.87 4.83-2.97.04-.19.05-.38.05-.57.01-1.91-1.58-3.77-3.51-3.92"/><path d="m97.8801 221.77c.56-.74.8501-1.69.7401-2.61-.12-1.03-.7401-1.98-1.6001-2.57-.34-.23-.7099-.41-1.1099-.51"/><path d="m97.8809 221.77c-.46.23-.87.57-1.17 1.02.46-.25.86-.6 1.17-1.02z"/><path d="m86.7617 239.42c1.85 1.37 4.6.9 6.37-.56 1.78-1.45 2.74-3.67 3.37-5.88 1.41 2.34 4.6703 3.35 7.1503 2.22s3.86-4.25 3.01-6.85c1.54 1.44 4.42.46 5.06-1.54s-.77-4.29-2.76-4.97c-1.99-.67-4.27.07-5.8 1.51-.85-1.91-3.4903-2.51-5.2803-1.58"/><path d="m50.4114 426.86c-1.3-8.07-1.56-16.63-4.45-24.3-2.89-7.68-7.49-14.96-14.27-19.82"/><path d="m66.6316 385.329c-.15-.48-.88-.68-1.33-.39-.51.31-.71.95-.79 1.54-.19 1.46.16 2.99.96 4.24 0 .01.01.01.01.02-.84 1.24.03 3.74 1.45 4.21s3.05-.28 3.91-1.5c.22 1.69 1.31 3.26 2.83 4.05"/><path d="m81.2614 393.571c1.06-1.49.42-3.89-1.25-4.65.6-.55.79-1.5.45-2.25-.34-.74-1.18-1.22-1.99-1.13.42-.96.63-2.09.19-3.04s-1.69-1.55-2.59-1.01c.14-1.21.11-2.68-.91-3.34-.81-.53-1.93-.28-2.68.33s-1.21 1.49-1.64 2.35c.39-.62-.35-1.46-1.09-1.42-.73.04-1.32.62-1.75 1.21-1.01 1.35-1.67 3.06-1.37 4.71.02.05.03.11.03.17"/><path d="m44.32 373.81c-1.13 2.14-4.47 2.65-6.2.95.3 1.27-.36 2.7-1.52 3.29s-2.71.3-3.57-.68c.29 2.32-1.4 4.72-3.68 5.25.01.08.02.17.02.25 0 1.09-1.04 2.55-1.94 3.08-.96.57-2.49 0-2.57-1.11-.62.94-2.06 1.08-3.04.51-.98-.58-1.55-1.67-1.83-2.76-.28-1.08-.32-2.27.18-3.26s1.63-1.72 2.71-1.5c-1.72-.66-1.9-3.01-1.63-4.83.18-1.2.46-2.47 1.35-3.31.88-.83 2.54-.91 3.17.13-.94-1.79.06-4.31 1.97-4.97 1.91-.65 4.25.71 4.61 2.69-.25-1.51 1.13-3.08 2.67-3.01 1.53.06 2.78 1.74 2.4 3.22.48-1.47 2-2.49 3.54-2.49.24 0 .48.03.72.08"/><path d="m20.1993 419.309c-.27.67.32 1.61 1.09 1.87 1.55.55 3.3-.6 3.96-2.11.65-1.51.48-3.25.16-4.87 2.5-.4 2.85-2.72 3.03-3.38.19-.73.05-1.89-.53-2.37-.58-.49-1.96-.43-2.34.22.38-1.48.38-3.05 0-4.53-.12-.45-.28-.9-.61-1.22-.63-.62-1.71-.54-2.45-.06-.69.44-1.16 1.15-1.59 1.85"/><path d="m20.1992 419.3c.09-.09.17-.19.22-.31-.1.1-.17.2-.22.31z"/><path d="m20.9192 404.71c.05-.22-.16-.51-.42-.53-.33-.02-1.29-.43-2.56.44-2.31 1.6-2.91 4.13-2.43 6.9.27 1.49 1.31 1.63 1.31 1.63.26.21 1.82.13 1.82.13-1.06 1.53-2.37 3.2-1.54 4.87.32.64.8 1.25 1.48 1.49.55.2 1.23.07 1.62-.33"/><path d="m20.9203 404.711c-.03.06-.07.11-.1.17.06-.05.09-.1.1-.17z"/><path d="m54.2401 212.58c-1.05 1.97-1.13 3.91.12 5.52.17.24.39.47.63.7.4.36 1.27.77 1.79.88.79.17 1.76-.06 2.7-1.01.34 1.74-.53 3.45.82 4.6 1.35 1.16 3.93.91 4.38-.81.35 2.38 2.14 4.66 4.52 4.96 2.38.31 4.9-2.03 4.28-4.35"/><path d="m71.0795 182.241c1.21 2.95 1.3 5.04-.27 6.89-1.46 1.74-6.3 3.9-8.29 5 3.08-.59 7.95-1.17 10.6.52 1.44.92 2.5 2.35 3.39 3.81 1.81 2.98 3.03 6.36 3.53 10.32.58 4.62.54 10.2-.97 14.6 1.77-3.27 3.21-7.67 3.49-11.72.25-3.71.01-7.56-1.06-11.13-.44-1.44-1.07-2.83-1.41-4.3s-.35-3.09.41-4.4c1.27-2.18 5.06-2.91 7.56-3.24-2.76-.47-7.39-.92-9.7-2.47-2.24-1.51-2.93-3.72-4.55-5.87-2.72-3.63-5.91-7.12-9.53-9.86 2.46 3.56 5.14 7.81 6.8 11.85z"/></g></svg>