<svg width="94" height="194" viewBox="0 0 94 194" fill="none" xmlns="http://www.w3.org/2000/svg">
<g clip-path="url(#clip0_4068_12504)">
<mask id="mask0_4068_12504" style="mask-type:alpha" maskUnits="userSpaceOnUse" x="0" y="0" width="94" height="194">
<path d="M0 0H94V194H0V0Z" fill="#D9D9D9"/>
</mask>
<g mask="url(#mask0_4068_12504)">
<path d="M66.3998 120.998H27.8998V114.598H40.6998V76.0984H34.2998V63.2984H27.8998V50.4984H21.4998V37.6984H15.0998V24.7984H2.2998V18.3984H40.6998V24.7984H27.8998V37.5984H34.2998V50.3984H40.6998V63.1984H47.0998V75.9984H53.4998V114.498H66.2998V120.998H66.3998ZM79.1998 37.6984H72.7998V24.7984H59.9998V18.3984H91.9998V24.7984H79.1998V37.6984ZM72.7998 50.4984H66.3998V37.6984H72.7998V50.4984ZM66.3998 63.2984H59.9998V50.4984H66.3998V63.2984ZM59.9998 76.0984H53.5998V63.2984H59.9998V76.0984Z" fill="white"/>
</g>
</g>
<defs>
<clipPath id="clip0_4068_12504">
<rect width="94" height="194" fill="white"/>
</clipPath>
</defs>
</svg>
