<svg width="38" height="194" viewBox="0 0 38 194" fill="none" xmlns="http://www.w3.org/2000/svg">
<g clip-path="url(#clip0_4068_12279)">
<mask id="mask0_4068_12279" style="mask-type:alpha" maskUnits="userSpaceOnUse" x="0" y="0" width="38" height="194">
<path d="M0 0H38V194H0V0Z" fill="#D9D9D9"/>
</mask>
<g mask="url(#mask0_4068_12279)">
<path d="M18.5004 64.1984C18.5004 42.5984 28.0004 32.5984 31.7004 23.2984C32.6004 20.9984 32.0004 18.3984 28.9004 18.3984C26.9004 18.3984 22.7004 18.6984 18.8004 18.6984C14.9004 18.6984 11.2004 18.3984 9.50039 18.3984C6.40039 18.3984 4.80039 19.4984 4.80039 21.5984C4.80039 26.2984 17.2004 42.3984 17.2004 64.0984C17.2004 83.6984 0.400391 110.198 0.400391 115.998C0.400391 118.298 1.60039 119.598 3.50039 119.598C7.10039 119.598 14.6004 119.198 20.4004 119.198C26.1004 119.198 33.1004 119.598 34.9004 119.598C36.8004 119.598 37.7004 119.098 37.7004 117.598C37.7004 108.298 18.5004 86.0984 18.5004 64.1984V64.1984Z" fill="white"/>
</g>
</g>
<defs>
<clipPath id="clip0_4068_12279">
<rect width="38" height="194" fill="white"/>
</clipPath>
</defs>
</svg>
