<svg width="84" height="194" viewBox="0 0 84 194" fill="none" xmlns="http://www.w3.org/2000/svg">
<g clip-path="url(#clip0_4068_12569)">
<mask id="mask0_4068_12569" style="mask-type:alpha" maskUnits="userSpaceOnUse" x="0" y="0" width="84" height="194">
<path d="M0 0H84V194H0V0Z" fill="#D9D9D9"/>
</mask>
<g mask="url(#mask0_4068_12569)">
<path d="M44 122C55.1 121.7 63.6 118.8 69.5 113.4C75.4 107.9 78.4 101 78.4 92.8C77.9 83.2 74.7 76.3 68.9 72.3C63 68.2 57.2 65.5 51.5 64.3C45.4 63.1 39 61.2 32.2 58.8C25.4 56.4 21.7 51.9 21 45.3C21.1 40.6 23 36.8 26.7 33.9C30.3 31 35.3 29.5 41.8 29.4C50.3 29.7 56.4 32.2 60.1 36.8C63.8 41.4 65.6 46.3 65.6 51.4H79.2C79.3 42.4 76.2 34.5 69.9 27.7C63.7 21 54.5 17.4 42.3 17C31.9 17.2 23.5 19.9 17.1 25.2C10.6 30.5 7.19998 37.2 6.99998 45.3C7.19998 54 9.99998 60.4 15.6 64.7C21.1 69.1 28.4 72.4 37.6 74.6C43.6 75.7 49.4 77.5 55 79.8C60.6 82.1 63.6 86.5 64 92.7C64 97.2 62.4 101.2 59.1 104.6C55.8 107.9 50.6 109.6 43.4 109.8C35.5 109.7 29.3 107.6 24.9 103.6C20.5 99.6 18.4 94.2 18.5 87.3H4.19998C3.69998 96.6 6.69998 104.6 13.4 111.3C20.1 118.2 30.3 121.7 44 122V122Z" fill="white"/>
</g>
</g>
<defs>
<clipPath id="clip0_4068_12569">
<rect width="84" height="194" fill="white"/>
</clipPath>
</defs>
</svg>
