<svg width="106" height="194" viewBox="0 0 106 194" fill="none" xmlns="http://www.w3.org/2000/svg">
<g clip-path="url(#clip0_4068_12509)">
<mask id="mask0_4068_12509" style="mask-type:alpha" maskUnits="userSpaceOnUse" x="0" y="0" width="106" height="194">
<path d="M0 0H106V194H0V0Z" fill="#D9D9D9"/>
</mask>
<g mask="url(#mask0_4068_12509)">
<path d="M81.1002 107.102C81.6002 106.402 82.2002 105.302 83.1002 103.802C84.0002 102.302 84.9002 100.402 85.8002 98.0016C86.7002 95.6016 87.4002 92.7016 88.0002 89.2016C88.7002 85.6016 89.0002 81.4016 89.0002 76.5016C89.0002 68.7016 87.9002 61.9016 85.7002 56.3016C83.6002 50.5016 80.5002 45.8016 76.5002 42.0016C72.6002 38.2016 67.8002 35.4016 62.2002 33.7016C56.7002 31.8016 50.5002 30.9016 43.8002 30.9016C37.3002 30.9016 31.8002 31.8016 27.5002 33.5016C23.1002 35.2016 19.6002 37.3016 16.8002 40.1016C14.1002 42.8016 12.2002 45.9016 11.0002 49.3016C9.9002 52.6016 9.4002 56.0016 9.4002 59.5016C9.4002 62.5016 9.9002 65.5016 10.9002 68.2016C11.9002 71.0016 13.4002 73.4016 15.5002 75.5016C17.6002 77.6016 20.2002 79.3016 23.4002 80.6016C26.7002 81.8016 30.5002 82.3016 35.0002 82.2016L34.9002 49.8016C35.9002 48.3016 38.1002 46.0016 41.6002 42.8016L52.1002 33.2016L52.6002 79.8016L35.0002 95.4016L34.9002 82.3016C30.3002 82.5016 26.3002 82.0016 22.9002 80.7016C19.6002 79.4016 16.8002 77.6016 14.5002 75.2016C12.2002 72.8016 10.5002 69.8016 9.4002 66.3016C8.3002 62.8016 7.8002 58.9016 7.8002 54.5016C7.8002 50.1016 8.6002 45.7016 10.3002 41.3016C12.0002 36.9016 14.6002 32.9016 18.1002 29.3016C21.7002 25.7016 26.3002 22.8016 31.9002 20.6016C37.5002 18.3016 44.2002 17.1016 52.0002 17.1016C61.0002 17.1016 68.9002 18.3016 75.5002 20.7016C82.2002 23.1016 87.8002 26.4016 92.1002 30.6016C96.5002 34.8016 99.8002 39.7016 102 45.5016C104.2 51.3016 105.3 57.5016 105.3 64.3016C105.3 68.9016 104.9 72.9016 104 76.3016C103.2 79.7016 102.2 82.6016 100.9 85.1016C99.7002 87.5016 98.4002 89.6016 97.0002 91.4016C95.6002 93.1016 94.3002 94.6016 93.2002 95.9016C91.3002 98.0016 89.2002 100.102 86.9002 102.202C84.8002 104.102 82.8002 105.802 81.1002 107.102V107.102ZM80.5002 107.602C78.4002 109.502 76.1002 111.502 73.8002 113.502C71.5002 115.402 69.5002 117.002 67.9002 118.302C66.2002 119.602 64.8002 120.502 63.5002 121.102C62.3002 121.602 60.8002 121.902 58.9002 121.902C55.6002 121.902 52.3002 121.302 48.8002 120.102C45.4002 118.902 42.0002 117.602 38.5002 116.202C35.0002 114.802 31.6002 113.502 28.0002 112.302C24.5002 111.102 21.1002 110.502 17.7002 110.502C15.3002 110.502 12.6002 111.602 9.6002 113.702C6.6002 115.802 3.3002 118.702 -0.299805 122.202C3.9002 118.002 7.6002 114.202 10.9002 111.002C14.2002 107.802 17.2002 105.102 19.9002 103.002C22.6002 100.802 24.9002 99.2016 27.0002 98.1016C29.1002 97.0016 31.1002 96.4016 32.9002 96.4016C34.6002 96.4016 36.5002 96.7016 38.7002 97.3016C40.9002 97.9016 43.3002 98.7016 45.8002 99.6016C48.3002 100.502 50.9002 101.502 53.6002 102.602C56.3002 103.702 58.8002 104.702 61.4002 105.602C64.0002 106.502 66.4002 107.302 68.8002 107.902C71.2002 108.502 73.3002 108.802 75.2002 108.802C77.6002 108.702 79.4002 108.302 80.5002 107.602V107.602ZM83.4002 76.1016L68.7002 90.0016L55.6002 79.0016L70.5002 64.5016L83.4002 76.1016Z" fill="white"/>
</g>
</g>
<defs>
<clipPath id="clip0_4068_12509">
<rect width="106" height="194" fill="white"/>
</clipPath>
</defs>
</svg>
