<svg width="85" height="194" viewBox="0 0 85 194" fill="none" xmlns="http://www.w3.org/2000/svg">
<g clip-path="url(#clip0_4068_12329)">
<mask id="mask0_4068_12329" style="mask-type:alpha" maskUnits="userSpaceOnUse" x="0" y="0" width="85" height="194">
<path d="M0 0H85V194H0V0Z" fill="#D9D9D9"/>
</mask>
<g mask="url(#mask0_4068_12329)">
<path d="M15.4998 85C19.7998 89.6 23.8998 93 27.7998 95.1C31.6998 97.2 35.7998 98.3 39.9998 98.3C43.4998 98.3 46.1998 97.5 48.2998 95.8C50.3998 94.1 51.3998 91.9 51.3998 89.1C51.3998 85.4 47.1998 81.3 38.8998 77C38.0998 76.6 37.4998 76.3 36.9998 76C28.8998 71.8 23.2998 67.7 20.2998 63.9C17.2998 60 15.7998 55.3 15.7998 49.7C15.7998 39.5 19.1998 31.2 26.0998 24.8C32.9998 18.2 41.8998 15 52.6998 15C58.3998 15 63.8998 16 69.1998 18C74.4998 20 79.4998 23 84.1998 26.9L72.3998 47.2C68.6998 44 65.2998 41.7 62.2998 40.1C59.1998 38.6 56.3998 37.8 53.7998 37.8C50.9998 37.8 48.5998 38.6 46.7998 40.3C44.8998 41.9 43.9998 43.9 43.9998 46.2C43.9998 49.1 47.4998 52.4 54.5998 56C57.0998 57.3 58.9998 58.3 60.3998 59.1C67.5998 63.1 72.6998 67.2 75.4998 71.3C78.2998 75.4 79.6998 80.6 79.6998 86.8C79.6998 97.8 75.8998 106.6 68.1998 113.2C60.4998 119.8 50.0998 123 36.9998 123C30.0998 123 23.5998 121.5 17.5998 118.6C11.5998 115.7 6.1998 111.3 1.2998 105.5L15.4998 85Z" fill="white"/>
</g>
</g>
<defs>
<clipPath id="clip0_4068_12329">
<rect width="85" height="194" fill="white"/>
</clipPath>
</defs>
</svg>
