<svg fill="none" height="512" viewBox="0 0 289 512" width="289" xmlns="http://www.w3.org/2000/svg"><path d="m39.66 225.61c21.18-7.59 36.34-27.85 36.34-51.64 0-1.65-.07-3.29-.22-4.9h.04l41.6-64.4-70.98 180.05.07.54c-2.97.38-5.91 1.1-6.94 1.91-1.62 1.28-2.78 3.05-3.63 4.95-.35-1.34-.62-2.85-.69-3.62h-.06c-.1 1.19-.2 3.58-.3 4.96.06-1.1-.33-2.24-1.14-2.96-.91-.8-1.99-1.4-2.79-2.3-1.05-1.18-1.52-2.75-2.06-4.23-1.06-2.9-4.49-6.91-6.25-9.45.4 2.39.19 7.53.35 9.95.28 4.15 4.31 6.75 8.34 7.8-4.23 2.97-8.23 7.3-9.92 12.18 4.53-.63 7.59-2.02 10.8-5.28l.19.09c-.28.61-.35 1.27-.44 3.04v108.58l.25.14c-4.88 8.7-5.2 16.45-11.41 22.65 4.05.38 7.75.58 11.14.56v43.77l5.8.09v-43.67l-.04-.48c10.73-1.07 18-5.34 23.82-15.24 6.55-11.14 9.1-24.9 17.89-34.38-6.12 17.34-11.05 34.75-3.22 44.03 7.83-22.92 21.17-20.89 28.13-40.03 2.1-5.77 2.13-25.48 6.26-31.66 1.26 1.79 2.51 3.51 3.74 5.14 13.35 17.71 18.32 37.98 31.66 55.69 3.34-7.07 5.31-11.76 6.41-16.21l.27.07c1.11 3.09 2.32 5.85 3.8 8.68l-.07.04c-.63-.95-1.59-.68-2.22.27-.63.96-.56 2.19-.45 3.33.31 3.09.8 6.16 1.47 9.2.38 1.72.89 3.55 2.26 4.66 1.69 1.35 4.12 1.08 6-.1l.65.08c1.31 2.1 4.6 2.16 6.55.64.61-.48 1.11-1.06 1.52-1.7l.8.33c1.62 1.22 4.06.94 5.66-.31 1.6-1.26 2.45-3.28 2.7-5.3.07-.53.1-1.06.1-1.59h.45c1.13 3.36 1.48 6.92 2.19 10.38.31 1.53.71 3.08 1.27 4.56l-.69.25c-4.93 2.89-9.86 5.77-14.78 8.66-3.54 2.07-7.47 4.73-7.87 8.8-.39 4.01 2.83 7.35 5.8 10.07 6.21 5.69 12.43 11.39 18.64 17.09 1.42 1.3 4.58 2.64 7.67 1.27 11.93-3.92 23.86-7.85 35.8-11.77 5.9-1.94 11.79-3.92 17.7-5.83 5.1-1.64 7.89-1.85 9.85-7.46 3.66-10.45 7.32-20.89 10.98-31.34.66-1.89 1.01-4.58-.84-5.37-.73-.31-1.57-.16-2.36-.01-9.32 1.84-18.68 3.69-27.72 6.56l-.04-.12c-3.21-2.7-6.42-5.39-9.63-8.08-.97-.81-1.97-1.64-3.17-2.05-2.65-.9-5.48.47-7.95 1.8-6.96 3.74-13.92 7.49-20.89 11.24l-.67.13c-.35-1.81-.71-3.62-1.08-5.42l.77-.16c15.84-9.98 33.13-18.47 51.24-23.37 2.43-.66 4.88-1.25 7.34-1.77l-.25-1.18v-38.53c1.11-.65 2.17-1.41 3.12-2.31 2.05-1.94 3.5-4.45 4.43-7.12 1.28-3.64.97-7.19.32-10.99-.65-3.81-4.11-9.18-7.55-10.95h-.32v-15.92l-.2-.21c1.85-1.74 3.6-3.45 4.77-5.71 2.84-5.47.76-12.97-4.49-16.2h-.08v-17.55l-.77-.34c2.07-1.52 4.13-3.03 5.3-5.28 2.83-5.47.75-12.96-4.5-16.19h-.03v-18l-.2-.17c1.5-1.74 2.93-3.53 4-5.59 2.84-5.47 1.47-12.6-3.78-15.83h-.02v-18.26l-1.09-.12c2.21-1.83 4.45-3.61 5.71-6.03 2.83-5.47.75-12.96-4.5-16.19h-.12v-10.72l-1.74-.05c.96-.45 1.77-.76 2.18-.95 4.8-2.26 9.29-7.11 10.48-12.28 1.2-5.17-.15-10.33-1.09-15.56.03 7.41-3.79 14.66-9.67 19.12l-.16-.22v-89.74c-.27-4.05 3.02-8.13 3.88-12.1.63-2.94.99-6.24 3.9-7.03 3.88-1.06 7.31 3.46 7.2 7.48.14-3.81-.03-7.79-1.82-11.15-1.8-3.37-5.66-5.9-9.37-5.04-4.79 1.11-6.01 7.34-7.21 12.11-.55-2.93-1.11-5.94-2.66-8.49s-4.32-4.58-7.29-4.38c-2.05.13-3.89 1.28-5.47 2.58-3.1 2.56-5.57 5.89-7.11 9.6 3.92-3.04 7.97-4.14 12.17-1.61 1.54.93 2.84 2.35 3.87 4.02l-.6.23-18.82 8.94-.16.32c-2.16-1.03-4.33-2.22-6.46-3.47-4.36-2.55-8.87-4.81-13.49-6.84-8.56-3.76-18.72-3.7-27.23.17-7.02 3.2-13.15 9.73-20.87 9.62-6.2-.1-12.33-6.16-21.98-7l-3.22-12.28-20.97-.11-5.44 12.25-.16-.07c-9.65.42-17.77 7.24-26.04 8.33-11.06 1.45-22.48-4.54-33.19-1.43-8.03 2.34-14.62 9.57-22.98 9.4 9.09 3.25 16.97 8.86 32 7.59l.5-.04c.12 1.65.26 3.36.43 5.09l-.42.04c-1.24 1.33-3.82 3.06-6.33 4.07-7.07 2.84-15.45 3.14-22.16-.46 7.93 5.49 15.98 10.92 30.05 9.28l.24-.03c1.09 9.38 2.23 18.86 2.55 26.81l30.39-4.19c.21-2.61.32-4.97.38-7.17h.02l26.82 1.01v.05l-58.65 27.77-.23.26c-9.64-8.46-22.28-13.58-36.12-13.58v109.69c6.5 0 12.73-1.13 18.51-3.2zm247.76-197.75v455.47c0 14.84-12.03 26.87-26.86 26.87h-232.7c-14.84 0-26.86-12.03-26.86-26.87v-455.47c0-14.84 12.02-26.86 26.86-26.86h232.7c14.83 0 26.86 12.02 26.86 26.86zm-158.98 423.07c.96-2.25.72-5.05-.85-6.92-1.57-1.88-3.67-2.72-5.8-1.51l-.51.09c-.71-.81-1.94-1.41-3.81-1.71-1.33-.22-2.87-.3-5.19.21-1.2-.76-2.81-.83-4.07-.18 2.41-1.76 4.67-3.83 6.12-6.43 1.45-2.61 1.99-5.84.89-8.62-3.11-1-6.22.9-8.82 3.04.89-1.04 1.27-2.49.94-3.81-5.11.82-9.56 4.85-10.88 9.85.67-.21 1.35-.43 2.02-.65-2.96 2.45-5.25 5.71-6.53 9.34 2.15 1.41 5.24 1.17 7.14-.56-.73.71-1.36 1.51-1.88 2.38l-.51-.21c-3.28 1.45-5.5 3.21-7.98 5.8s-4.17 6.12-3.87 9.7c.07.91.29 1.84.86 2.55 2.62 4.58 5.5 9.56 10.74 10.09 1.68.17 3.36-.17 5-.57 4.64-1.15 9.15-2.86 13.4-5.07 2.78-1.45 5.61-3.29 6.87-6.16.79-1.77.89-3.76.88-5.7v-.14h.58c2.28-.87 4.3-2.57 5.26-4.81zm-6.5-44.56c.33-3.14-2.31-4.87-4.9-1.72 1.41-1.71 3.29-4.94 3.91-7.06-.4-.42-1.63.38-2.03-.05-3.54 1.21-6.76 3.31-9.31 6.04.01-.04.02-.09.02-.13-4.9 2.48-8.55 7.29-9.64 12.68.77.66 1.97.66 2.81.13-1.16 1.35-1.55 3.18-1.02 4.84 1.63-.21 3.22-.96 4.5-2.05-.43.44-.83.91-1.21 1.31 3.89-.83 8.04-3.96 11.05-6.57 1.98-1.7 5.53-4.64 5.82-7.42zm-82.77-124.82s.07-.1.1-.15c-1.04-2.45-2.46-4.7-3.5-7.15-.68 2.32-2.56 4.76-3.79 6.94-.08.14-.16.29-.23.43.94 1.92 2.78 3.89 3.52 5.89 1.08-2.17 2.56-3.95 3.9-5.96z" fill="#dabbf2"/><path d="m267.611 418.89c1.85.79 1.5 3.48.84 5.37-3.66 10.45-7.32 20.89-10.98 31.34-1.96 5.61-4.75 5.82-9.85 7.46-5.91 1.91-11.8 3.89-17.7 5.83-11.94 3.92-23.87 7.85-35.8 11.77-.96.32-2.15.58-2.86-.14-.41-.43-.5-1.07-.54-1.67-.29-5.16 1.95-10.1 4.15-14.77 3.08-6.51 6.2-13 9.38-19.45.96-1.96 1.96-3.95 3.52-5.47 1.43-1.38 3.24-2.27 5.01-3.15 6.29-3.09 12.59-6.19 19.16-8.65 1.85-.69 3.71-1.33 5.59-1.92 9.04-2.87 18.4-4.72 27.72-6.56.79-.15 1.63-.3 2.36.01z" fill="#63bfef"/><path d="m266.36 35.7706c1.79 3.36 1.96 7.34 1.82 11.15.11-4.02-3.32-8.54-7.2-7.48-2.91.79-3.27 4.09-3.9 7.03-.86 3.97-4.15 8.05-3.88 12.1v89.7404l.16.22c-1.72 1.31-3.63 2.38-5.66 3.15-.56.21-1.14.41-1.71.63l-.04-.11v-98.4004c-.03-3.01-.96-6.47-2.66-9.24-1.03-1.67-2.33-3.09-3.87-4.02-4.2-2.53-8.25-1.43-12.17 1.61 1.54-3.71 4.01-7.04 7.11-9.6 1.58-1.3 3.42-2.45 5.47-2.58 2.97-.2 5.74 1.83 7.29 4.38s2.11 5.56 2.66 8.49c1.2-4.77 2.42-11 7.21-12.11 3.71-.86 7.57 1.67 9.37 5.04z" fill="#f5eb9e"/><path d="m263.028 129.41c.94 5.23 2.29 10.39 1.09 15.56-1.19 5.17-5.68 10.02-10.48 12.28-.41.19-1.22.5-2.18.95-2.1.97-4.87 2.6-5.41 5.12l-.1.52-.03 9.51h-.31c-3.77-3.15-5.72-8.88-4.88-13.83.16-.97.43-1.91.81-2.79.53-1.24 1.25-2.45 2.32-3.28.64-.5 1.37-.84 2.13-1.14.57-.22 1.15-.42 1.71-.63 2.03-.77 3.94-1.84 5.66-3.15 5.88-4.46 9.7-11.71 9.67-19.12z" fill="#b6efa3"/><path d="m261.069 337.511c.65 3.8.96 7.35-.32 10.99-.93 2.67-2.38 5.18-4.43 7.12-.95.9-2.01 1.66-3.13 2.31-1.54.91-3.21 1.64-4.88 2.28-1.08.41-2.58.95-4.25 1.49-3.18 1.04-6.98 2.1-9.63 2.4-1.14.13-2.35.11-3.55 0-3.44-.29-6.79-1.29-8.26-1.66-1.99-.5-3.85-2.04-4.12-4.06-.4-2.91 2.1-5.76 4.9-6.64.5-.16 1.15-.29 1.88-.38 3.38-.47 8.71-.4 11.5-.71 2.25-.25 5.49-2.09 8.97-3.75.22-.1.43-.21.63-.32 3.54-1.94 5.46-5.14 6.8-8.56l.02-.72v-10.74h.32c3.44 1.77 6.9 7.14 7.55 10.95z" fill="#b6efa3"/><path d="m253.318 168.971c5.25 3.23 7.33 10.72 4.5 16.19-1.26 2.42-3.5 4.2-5.71 6.03-2.83 2.36-5.61 4.82-6.16 8.91v10.36h-.4c-3.21-2.36-5.43-6.03-6.03-9.97-.59-3.93.44-8.09 2.8-11.3 1.07-1.46 2.4-2.7 3.71-3.96.96-.91 1.92-1.84 2.78-2.85 2.29-2.7 4.43-8.01 4.39-12.25v-1.16z" fill="#b6efa3"/><path d="m253.28 288.52c5.25 3.23 7.33 10.73 4.49 16.2-1.17 2.26-2.92 3.97-4.77 5.71-2.68 2.53-5.55 5.12-7.05 9.52v10.07h-.45c-3.2-2.36-5.42-6.03-6.02-9.97s.43-8.1 2.8-11.3c1.15-1.56 2.57-2.87 3.97-4.21.87-.84 1.73-1.68 2.51-2.6 2.3-2.71 3.89-6.88 4.44-10.39v-3.03z" fill="#b6efa3"/><path d="m253.231 249.16c5.25 3.23 7.33 10.72 4.5 16.19-1.17 2.25-3.23 3.76-5.3 5.28-3.04 2.23-6.11 4.51-6.48 9.23v10.79h-.49c-3.21-2.36-5.43-6.03-6.02-9.97-.6-3.93.43-8.09 2.79-11.3 1.17-1.59 2.63-2.92 4.06-4.3.85-.8 1.68-1.62 2.43-2.51 2.29-2.7 4.38-4.75 4.48-10.07v-3.34z" fill="#b6efa3"/><path d="m253.221 209.57c5.25 3.23 6.62 10.36 3.78 15.83-1.07 2.06-2.5 3.85-4 5.59-2.52 2.93-5.24 5.7-6.8 9.29l-.25.5v10.29h-.51c-3.21-2.36-5.42-6.03-6.02-9.97s.43-8.1 2.8-11.3c.71-.96 1.52-1.83 2.36-2.67.58-.57 1.17-1.13 1.76-1.68.82-.8 1.63-1.6 2.36-2.46 2.3-2.71 4.57-5.15 4.5-9.51v-3.91z" fill="#b6efa3"/><path d="m253.199 396.46.25 1.18c-2.46.52-4.91 1.11-7.34 1.77l-.16-.82v-36.76l-1.89-.13c1.67-.54 3.17-1.08 4.25-1.49 1.67-.64 3.34-1.37 4.88-2.28v.02z" fill="#f5eb9e"/><path d="m253.199 326.56v10.74l-.02.72c-1.34 3.42-3.26 6.62-6.8 8.56l-.43-.84v-25.79c1.5-4.4 4.37-6.99 7.05-9.52l.2.21z" fill="#f5eb9e"/><path d="m253.199 288.521v3.03c-.55 3.51-2.14 7.68-4.44 10.39-.78.92-1.64 1.76-2.51 2.6l-.3-.32v-24.36c.37-4.72 3.44-7 6.48-9.23l.77.34z" fill="#f5eb9e"/><path d="m253.199 249.16v3.34c-.1 5.32-2.19 7.37-4.48 10.07-.75.89-1.58 1.71-2.43 2.51l-.34-.36v-23.94l.25-.5c1.56-3.59 4.28-6.36 6.8-9.29l.2.17z" fill="#f5eb9e"/><path d="m253.199 213.479c.07 4.36-2.2 6.8-4.5 9.51-.73.86-1.54 1.66-2.36 2.46l-.39-.4v-24.95c.55-4.09 3.33-6.55 6.16-8.91l1.09.12z" fill="#f5eb9e"/><path d="m253.199 170.129c.04 4.24-2.1 9.55-4.39 12.25-.86 1.01-1.82 1.94-2.78 2.85l-.15-.15.04-11.73.03-9.51.1-.52c.54-2.52 3.31-4.15 5.41-5.12l1.74.05z" fill="#f5eb9e"/><path d="m245.95 345.741.43.84c-.2.11-.41.22-.63.32-3.48 1.66-6.72 3.5-8.97 3.75-2.79.31-8.12.24-11.5.7v-.04l-41.13-94.04-.17-.16c4.71-5.12 9.52-10.2 13.64-15.69 1.39-1.85 2.69-3.76 3.89-5.71l.39.23 44.05 68.28.3.32c-1.4 1.34-2.82 2.65-3.97 4.21-2.37 3.2-3.4 7.36-2.8 11.3s2.82 7.61 6.02 9.97h.45z" fill="#dabbf2"/><path d="m245.951 225.049.39.4c-.59.55-1.18 1.11-1.76 1.68l-.03-.04-33.92-33.06h-.14c-.71-7.06-2.16-14.1-3.7-21.05-2.38 3.1-4.67 6.38-6.83 9.78l-.22-.14c-.49-5.82 1.66-11.55 5.08-16.28 3.43-4.73 7.62-8.88 10.78-13.79.7-1.09 1.34-2.21 1.92-3.36l.13.07 22.5 10.16.58.1c-.84 4.95 1.11 10.68 4.88 13.83h.31l-.04 11.73.15.15c-1.31 1.26-2.64 2.5-3.71 3.96-2.36 3.21-3.39 7.37-2.8 11.3.6 3.94 2.82 7.61 6.03 9.97h.4z" fill="#dabbf2"/><path d="m245.952 264.719.34.36c-1.43 1.38-2.89 2.71-4.06 4.3-2.36 3.21-3.39 7.37-2.79 11.3.59 3.94 2.81 7.61 6.02 9.97h.49v13.57l-44.05-68.28-.39-.23c5.15-8.36 8.47-17.6 9.24-27.5.37-4.73.22-9.46-.26-14.17h.14l33.92 33.05.03.04c-.84.84-1.65 1.71-2.36 2.67-2.37 3.2-3.4 7.36-2.8 11.3s2.81 7.61 6.02 9.97h.51z" fill="#dabbf2"/><path d="m199.11 341.939c-6.5-11.86-2.04-24.31-10.22-30.67-13.77-10.71-16.08-27.75-15.22-41.89l-.06-.04c.94-1.33 1.93-2.62 2.96-3.86 2.36-2.84 4.87-5.61 7.41-8.37l.17.16 41.12 94.04v.04h.01c-.73.09-1.38.22-1.88.38-2.8.88-5.3 3.73-4.9 6.64.27 2.02 2.13 3.56 4.12 4.06 1.47.37 4.82 1.37 8.26 1.66v.04l15.07 34.45.16.82c-18.11 4.9-35.4 13.39-51.24 23.37l-.77.16c-.83-3.95-1.74-7.87-2.82-11.74l.41-.11c.5-1.63 1.63-4.43 2.23-6.02 1.5-3.99.75-8.74-1.92-12.07-1.84-2.3-4.48-2.9-6.16-5.33l.04-.42c2.84.31 5.63-.03 8.31-1.49-7.42-18-24.9-41.29-38.56-53.45-4.97-4.44-10.51-8.76-16.15-13.16l.41-.53c5.84-.25 10.86-4.63 13.52-9.84.97-1.9 1.67-3.9 2.21-5.95l.15.04c3.47 1.15 4.5 6.48 5.42 9.28 2.24 6.83 3.59 14.25 8.13 19.82 3.49 4.29 8.56 7.04 13.85 8.65 5.12 1.55 10.48 2.11 15.81 2.64l.13-1.32z" fill="#dabbf2"/><path d="m245.95 152.2.04.11c-.76.3-1.49.64-2.13 1.14-1.07.83-1.79 2.04-2.32 3.28-.38.88-.65 1.82-.81 2.79l-.58-.1-22.5-10.16-.13-.07c3.86-7.53 5.3-16.3 3.97-24.66-.23-1.41-1.03-3.19-2.44-2.97-1.06.16-1.56 1.38-1.85 2.41-.2.71-.41 1.43-.61 2.14l-.07-.02c.6-4.19-.17-10.6-2.38-14.21-.29-.48-.67-.99-1.22-1.07-.92-.15-1.53.92-1.79 1.82-.38 1.34-.62 2.7-.8 4.08l-.13-.02c-.23-1.67-.93-4.19-1.79-5.63-.43-.71-.99-1.42-1.79-1.6-1.1-.26-2.2.63-2.62 1.68s-.36 2.22-.38 3.35c-.2-.92-.85-3.47-1.44-4.19s-1.68-1.13-2.48-.67c-.6.35-.88 1.05-1.12 1.7-1.02 2.79-2.71 6.96-3.73 9.75l-.22.48c-2.06-.95-4.31-1.51-6.3-2.62-7.05-3.92-8.89-13.05-9.99-21.0405.68-.2 1.34-.47 1.99-.8l.05.11 64.94-7.69h.63z" fill="#dabbf2"/><path d="m245.949 361.829v36.76l-15.07-34.45v-.04c1.2.11 2.41.13 3.55 0 2.65-.3 6.45-1.36 9.63-2.4z" fill="#dabbf2"/><path d="m245.948 76.0198v13.5h-.63l-64.94 7.69-.05-.11c4.04-2.04 7.36-6.29 8.66-10.51 1.26-4.09 1.08-8.51-.06-12.65l.59-.15c14.77-3.97 26.09.7 32.5 3.86 8.41 4.14 16.37 1.54 23.58-1.63z" fill="#dabbf2"/><path d="m245.95 55.2098v20.81h-.35c-7.21 3.17-15.17 5.77-23.58 1.63-6.41-3.16-17.73-7.83-32.5-3.86l-.59.15c-.23-.82-.49-1.63-.79-2.43-1.02-2.73-2.47-7.37-4.72-9.22.7 2.54 1.19 6.14 1.46 8.76-1.3-2.5-3.07-5.76-5.18-7.63.81 1.99 1.42 5.05 1.83 7.15-1.27-2.26-3.16-5.17-5.41-6.45 1.94 3.12 3.48 7.6 4.61 11.66l-.7.14c-1.23.35-2.42.35-3.58.12-4.03-.78-7.62-4.24-10.96-4.53-7.58-.67-11.68 7.14-19.77 8.06l-.6.13c-.87-4.27-1.83-8.58-4.58-11.87.1 2.1.2 4.2.31 6.3-.89-1.81-2.03-3.49-3.38-4.99.28 2.52.57 5.04.85 7.56l-4.23-5.55c1.11 2.88 1.74 5.97 2.36 9.04l-.9.19c-2.19-.16-4.04-.47-5.64-.86-6.56-1.63-9.07-4.66-14.32-4.88-5.6-.24-9.71 2-13.2 4.04-.65.37-1.28.74-1.89 1.09-4.7103 2.66-10.5203 4.31-10.5203 4.31l-.1.13-.56-.41c.1-3.11.34-6.48.84-10.4-.69-.71-24.57-6.59-36.29-8.46.07 1.68.17 3.43.31 5.23l-.5.04c-15.03 1.27-22.91-4.34-32-7.59 8.36.17 14.95-7.06 22.98-9.4 10.71-3.11 22.13 2.88 33.19 1.43 8.27-1.09 16.39-7.91 26.0403-8.33l.16.07-2.68 6.04 6.41 13.14 18.64 4.07 9.57-14.3-2.31-8.81c9.65.84 15.78 6.9 21.98 7 7.72.11 13.85-6.42 20.87-9.62 8.51-3.87 18.67-3.93 27.23-.17 4.62 2.03 9.13 4.29 13.49 6.84 2.13 1.25 4.3 2.44 6.46 3.47 8.26 3.98 16.39 5.83 22.02 1.16z" fill="#efede7"/><path d="m245.951 53.8005v1.41h-.22c-5.63 4.67-13.76 2.82-22.02-1.16l.16-.32 18.82-8.94.6-.23c1.7 2.77 2.63 6.23 2.66 9.24z" fill="#dabbf2"/><path d="m198.729 447.239c-.1 0-.21.01-.32.02-.08.01-.16.02-.23.05-.04 0-.07.01-.1.02-.11.02-.22.06-.33.11-.11.03-.23.08-.33.15-.03.01-.06.02-.08.04-.05.02-.1.05-.15.09-.37.22-.7.53-.94.89.03.02.06.04.09.05-.04.07-.08.15-.11.23.6.46 1.54.32 2.06-.21.55-.27.99-.74 1.12-1.34-.22-.07-.45-.1-.68-.1zm38.76-21.92.04.12c-1.88.59-3.74 1.23-5.59 1.92-6.57 2.46-12.87 5.56-19.16 8.65-1.77.88-3.58 1.77-5.01 3.15-1.56 1.52-2.56 3.51-3.52 5.47-3.18 6.45-6.3 12.94-9.38 19.45-2.2 4.67-4.44 9.61-4.15 14.77.04.6.13 1.24.54 1.67.71.72 1.9.46 2.86.14-3.09 1.37-6.25.03-7.67-1.27-6.21-5.7-12.43-11.4-18.64-17.09-2.97-2.72-6.19-6.06-5.8-10.07.4-4.07 4.33-6.73 7.87-8.8 4.92-2.89 9.85-5.77 14.78-8.66l.69-.25c.68 1.85 1.62 3.58 2.94 5.03 2.37 2.62 6.26 4.12 9.56 2.86-.58-3.03-1.15-6.06-1.72-9.08-.31-1.66-.63-3.31-.95-4.97l.67-.13c6.97-3.75 13.93-7.5 20.89-11.24 2.47-1.33 5.3-2.7 7.95-1.8 1.2.41 2.2 1.24 3.17 2.05 3.21 2.69 6.42 5.38 9.63 8.08z" fill="#63bfef"/><path d="m182.999 150.909.11-.12c3.52-.68 6.78-2.59 9.1-5.33-.91 2.25-1.81 4.49-2.72 6.74 2.98-1.46 5.6-3.66 7.53-6.35.12 2.34.24 4.68.35 7.02 3.06-4.68 5.52-9.96 5.8-15.54l.64.04c3.95-4.55 5.36-10.74 6.06-16.72.16-1.31.28-2.63.46-3.94.18-1.38.42-2.74.8-4.08.26-.9.87-1.97 1.79-1.82.55.08.93.59 1.22 1.07 2.21 3.61 2.98 10.02 2.38 14.21l.07.02c.2-.71.41-1.43.61-2.14.29-1.03.79-2.25 1.85-2.41 1.41-.22 2.21 1.56 2.44 2.97 1.33 8.36-.11 17.13-3.97 24.66-.58 1.15-1.22 2.27-1.92 3.36-3.16 4.91-7.35 9.06-10.78 13.79-3.42 4.73-5.57 10.46-5.08 16.28l.22.14c-3.91 6.16-7.36 12.71-10.02 19.29-1.56-9.41-5.92-18.33-12.32-25.4l.13-.12c-1.06-6.85-2.88-13.58-5.42-20.04-2.2-5.67-4.96-11.12-8.22-16.26-.42-.66-.86-1.38-.83-2.16.06-1.81 2.4-2.53 4.2-2.34 2 .21 4.01.98 5.33 2.49 1.06 1.21 1.59 2.78 2.36 4.19 1.18 2.16 2.9 3.92 4.71 5.6 1.04.97 2.1 1.91 3.12 2.9z" fill="#f5eb9e"/><path d="m173.609 269.34.06.04c-.86 14.14 1.45 31.18 15.22 41.89 8.18 6.36 3.72 18.81 10.22 30.67l-.13 1.32c-5.33-.53-10.69-1.09-15.81-2.64-5.29-1.61-10.36-4.36-13.85-8.65-4.54-5.57-5.89-12.99-8.13-19.82-.92-2.8-1.95-8.13-5.42-9.28l-.15-.04c.93-3.57 1.35-7.32 1.72-11.02.58-5.89 1.05-12-.82-17.62-.82-2.49-2.08-4.81-2.98-7.27-1.77-4.89-.03-12.98-2.93-17.83l1.16-.15c7.72-5.48 13.84-15.25 17.01-27.03.48-1.77.89-3.6 1.23-5.46 1.63-8.96 1.71-18.15 1.72-27.78.01-5.62-.01-11.39.25-17.35 2.02 1.62 3.91 3.41 5.64 5.33 6.4 7.07 10.76 15.99 12.32 25.4 2.66-6.58 6.11-13.13 10.02-19.29 2.16-3.4 4.45-6.68 6.83-9.78 1.54 6.95 2.99 13.99 3.7 21.06.48 4.71.63 9.44.26 14.17-.77 9.9-4.09 19.14-9.24 27.5-1.2 1.95-2.5 3.86-3.89 5.71-4.12 5.49-8.93 10.57-13.64 15.69-2.54 2.76-5.05 5.53-7.41 8.37-1.03 1.24-2.02 2.53-2.96 3.86z" fill="#b6efa3"/><path d="m210.2 116.69.13.02c-.18 1.31-.3 2.63-.46 3.94-.7 5.98-2.11 12.17-6.06 16.72l-.64-.04c.02-.17.03-.35.03-.52.11-3.82-.99-7.78-3.22-10.84 2.28-3.38 3.56-7.41 3.64-11.48.02-1.13-.04-2.3.38-3.35s1.52-1.94 2.62-1.68c.8.18 1.36.89 1.79 1.6.86 1.44 1.56 3.96 1.79 5.63z" fill="#f5eb9e"/><path d="m199.739 128.131c-.21 1.49.12 3.06.93 4.34-.03-1.49-.35-2.97-.93-4.34zm-.52-1.1c.27-.34.52-.7.76-1.06 2.23 3.06 3.33 7.02 3.22 10.84 0 .17-.01.35-.03.52-.28 5.58-2.74 10.86-5.8 15.54-.11-2.34-.23-4.68-.35-7.02-1.93 2.69-4.55 4.89-7.53 6.35.91-2.25 1.81-4.49 2.72-6.74-2.32 2.74-5.58 4.65-9.1 5.33 5.47-5.07 11.38-11.1 11.2-18.57-.02-.81-.13-1.66-.57-2.35l2.78-.78c-.17-.84-.13-1.71.13-2.52.39.8.7 1.65.91 2.52-.04.95.08 1.9.35 2.81-.01-.94-.13-1.89-.35-2.81.02-.65.12-1.29.28-1.92.44.64.79 1.36 1.03 2.1 0 .8.12 1.6.36 2.37.01-.8-.12-1.6-.36-2.37 0-.74.1-1.47.31-2.18.01-.02.03-.04.04-.06z" fill="#63bfef"/><path d="m202.179 110.3c.59.72 1.24 3.27 1.44 4.19-.08 4.07-1.36 8.1-3.64 11.48-1.12-1.56-2.53-2.89-4.23-3.85-.36-.2-.74-.39-1.12-.56l.22-.48c1.02-2.79 2.71-6.96 3.73-9.75.24-.65.52-1.35 1.12-1.7.8-.46 1.89-.05 2.48.67z" fill="#f5eb9e"/><path d="m164.93 102.949c.16.3.36.58.59.83-.17-.29-.36-.57-.59-.83zm-.28-4.7599c1.06.28 2.07.63 3.01 1.09.14-.96-.11-3.01-.38-3.94-.06-.21-.15-.44-.34-.54-.29-.14-.62.07-.84.29-.7.68-1.17 1.6-1.3 2.57zm-4.43-.99.19-.96c-.02-2.25 1.8-4.35 4.01-4.67v-.05c-2.99-1.01-5.49-3.25-6.95-6.03-.69-1.3-1.14-2.73-1.31-4.2-.07-.62-.09-1.28.19-1.84.39-.8 1.3-1.22 2.17-1.39s1.78-.14 2.65-.34c.85-.2 1.64-.62 2.5-.8.85-.19 1.86-.1 2.44.56.74.85.63 2.41 1.68 2.81.48.18.99.02 1.5-.13.22-.05.43-.11.65-.13 1.01-.1 1.99.54 2.54 1.4.55.85.74 1.88.85 2.89.29 2.56.11 5.18-.51 7.68l.53.26c2.79 1.61 6.59-.28 8.02-3.17s1.07-6.33.34-9.47c-.28-1.19-.61-2.49-.98-3.84-1.13-4.06-2.67-8.54-4.61-11.66 2.25 1.28 4.14 4.19 5.41 6.45-.41-2.1-1.02-5.16-1.83-7.15 2.11 1.87 3.88 5.13 5.18 7.63-.27-2.62-.76-6.22-1.46-8.76 2.25 1.85 3.7 6.49 4.72 9.22.3.8.56 1.61.79 2.43 1.14 4.14 1.32 8.56.06 12.65-1.3 4.22-4.62 8.47-8.66 10.51-.65.33-1.31.6-1.99.8 1.1 7.9899 2.94 17.1199 9.99 21.0399 1.99 1.11 4.24 1.67 6.3 2.62.38.17.76.36 1.12.56 1.7.96 3.11 2.29 4.23 3.85-.24.36-.49.72-.76 1.06 0-.01 0-.03-.02-.04-.01.03-.02.07-.02.1-.21.71-.31 1.44-.31 2.18-.24-.74-.59-1.46-1.03-2.1-.16.63-.26 1.27-.28 1.92-.21-.87-.52-1.72-.91-2.52-.26.81-.3 1.68-.13 2.52l-2.78.78c-.57-.92-1.61-1.4-2.63-1.81-.1-.03-.2-.07-.3-.11-4.82-1.89-9.75-4.24-12.82-8.41-2.93-3.98-3.94-9.33-7.64-12.6-1.75-1.55-3.88-2.44-6.15-3.06-1.55-.43-3.16-.73-4.75-1.02-.56-.1-1.12-.21-1.67-.31-2.45-.47-4.94-1.13-7.28-2.06-3.4-1.3299-6.5-3.2599-8.77-6.0999-.27-.34-.52-.68-.76-1.03-1.55-2.27-2.51-4.82-3.24-7.49-.5-1.85-.89-3.76-1.28-5.68-.62-3.07-1.25-6.16-2.36-9.04l4.23 5.55c-.28-2.52-.57-5.04-.85-7.56 1.35 1.5 2.49 3.18 3.38 4.99-.11-2.1-.21-4.2-.31-6.3 2.75 3.29 3.71 7.6 4.58 11.87.17.85.35 1.7.53 2.54.56 2.63 1.37 5.36 2.67 7.72 1.18 2.16 2.77 4 4.95 5.15 2.05 1.08 4.48 1.6 6.95 2.09zm-3.44.39c.67.53 1.42.97 2.21 1.29-.68-.52-1.42-.95-2.21-1.29zm23.86 15.5999c-.23-.91-.57-1.8-1.01-2.63.22.91.56 1.8 1.01 2.63zm8.7 8.51c-.6-.41-1.25-.75-1.93-1.01-.29-.23-.6-.45-.92-.66.19.19.39.37.59.54-.05-.02-.1-.03-.15-.05.09.05.18.11.27.16.49.42 1 .8 1.53 1.16.71.46 1.45.86 2.22 1.2-.49-.5-1.02-.95-1.61-1.34zm-8.94-5.87s-.02-.01-.02-.02c-.32-1.64-.82-3.25-1.5-4.78-.08 1.7.46 3.43 1.5 4.78.04.14.06.29.09.43-.02-.14-.05-.27-.07-.41zm-5.89-18.0099c-.13.61-.19 1.24-.2 1.86.24-.59.3-1.24.2-1.86zm3.46 5.8399c.07.68.19 1.35.38 2-.02-.68-.14-1.36-.38-2zm-5.55 2.82c-.1.82 0 1.66.32 2.42-.04-.81-.14-1.62-.32-2.42zm-3.78-6.6699c-.05-.71-.07-1.63-.24-1.89.1.28.12 1.24.24 1.89zm8.45 2.7699c-.01-.08-.03-.15-.05-.23 0 .18-.02.35-.03.53-.13.54-.17 1.1-.1 1.66.05.46.16.92.35 1.35.12-1.1.06-2.22-.17-3.31zm-8.72-2.22c-.22-.27-.47-.5099-.73-.7399.01.18.03.35.07.5199-.13-.1699-.3-.3299-.47-.4699.13.3899.36.7399.67 1.0099.13.25.3.49.51.69-.05-.16-.12-.32-.19-.48.04.03.07.05.11.07.14.07.34.12.43-.01.05.06.1.12.15.17-.04-.07-.09-.14-.13-.2-.13-.2-.27-.38-.42-.56zm5.27 7.78c.01.35.02.71.03 1.06.02-.35.01-.71-.03-1.06zm-24.36-10.5399c.06.19.16.37.26.53.53.83 1.22 1.54 2.03 2.0899-.51-1.0599-1.31-1.9699-2.29-2.6199zm-9.58-10.62c.02.62.09 1.26.19 1.88-.02-.63-.08-1.26-.19-1.88zm7.48 4.63c-.14-.69-.4-1.35-.78-1.95-.15-.24-.31-.47-.5-.68.01-.01 0-.01 0-.01-.22-.42-.53-.85-1-.94.17 1.34.67 2.63 1.43 3.74.19.29.48.59.81.58l.03.06s-.01-.04-.02-.06c.04 0 .09 0 .13-.02-.02-.24-.05-.48-.1-.72z" fill="#63bfef"/><path d="m198.29 448.68c-.61.3-1.36.33-1.95-.02.19-.38.49-.7.85-.94.05-.04.1-.07.15-.09.02-.02.05-.03.08-.04.11-.06.21-.11.33-.15.11-.04.22-.08.33-.11.03-.01.06-.02.1-.02.08-.02.16-.03.23-.05.1-.01.21-.02.32-.02.23 0 .46.03.68.1-.13.6-.57 1.07-1.12 1.34z" fill="#efede7"/><path d="m156.469 410.031c-1.48-2.83-2.69-5.59-3.8-8.68l-.27-.07c.84-3.42 1.17-6.69 1.2-10.79.04-5.64.38-11.39-4.74-18.94 7.7 4.56 13.24 8.37 20.98 10.82 5.39 1.71 10.81 4.36 16.04 4.88l-.04.42c1.68 2.43 4.32 3.03 6.16 5.33 2.67 3.33 3.42 8.08 1.92 12.07-.6 1.59-1.73 4.39-2.23 6.02l-.41.11c1.08 3.87 1.99 7.79 2.82 11.74.37 1.8.73 3.61 1.08 5.42.32 1.66.64 3.31.95 4.97.57 3.02 1.14 6.05 1.72 9.08-3.3 1.26-7.19-.24-9.56-2.86-1.32-1.45-2.26-3.18-2.94-5.03-.56-1.48-.96-3.03-1.27-4.56-.71-3.46-1.06-7.02-2.19-10.37h-.45c0 .52-.03 1.05-.1 1.58-.25 2.02-1.1 4.04-2.7 5.3-1.6 1.25-4.04 1.53-5.66.31l-.8-.33c-.41.64-.91 1.22-1.52 1.7-1.95 1.52-5.24 1.46-6.55-.64l-.65-.08c-1.88 1.18-4.31 1.45-6 .1-1.37-1.11-1.88-2.94-2.26-4.66-.67-3.04-1.16-6.11-1.47-9.2-.11-1.14-.18-2.37.45-3.33.63-.95 1.59-1.22 2.22-.27z" fill="#f5eb9e"/><path d="m194.309 132.221c.18 7.47-5.73 13.5-11.2 18.57l-.11.12c-1.02-.99-2.08-1.93-3.12-2.9l.37-.4c-.48-3.65 1.74-7.09 4.16-9.86.9-1.03 1.86-2.04 2.76-3.08 1.53-1.76 2.92-3.62 3.64-5.82l.3-.79c1.02.41 2.06.89 2.63 1.81.44.69.55 1.54.57 2.35z" fill="#f5eb9e"/><path d="m191.109 128.061-.3.79c-.72 2.2-2.11 4.06-3.64 5.82l-.1-.09-17.6-7.84c-.34-1.5-.69-3.04-1.04-4.03 1.6 1.43 3.54 2.47 5.6 3.01-2.27-2.55-4.55-5.12-6.31-8.05-1.75-2.93-3.98-7.99-3.68-13.19l.16-.6c2.27.62 4.4 1.51 6.15 3.06 3.7 3.27 4.71 8.62 7.64 12.6 3.07 4.17 8 6.52 12.82 8.41.1.04.2.08.3.11z" fill="#dabbf2"/><path d="m89.9989 270.67.04-.8c-1.37-3.29-3.15-5.41-5.28-8.27 4.44-.83 9.66-1.27 14.67-1.49 2.6501-.12 5.2401-.17 7.6301-.19 2.92 2.74 4.55 6.36 5.6 10.26.47 1.71.83 3.48 1.13 5.26.28 1.58.52 3.17.76 4.73.06.37.12.75.19 1.13.39 2.41.87 5 1.4 7.64.36 1.75.74 3.52 1.14 5.26.61 2.69 1.26 5.3 1.91 7.66l-.26.27c1.28 1.2 2.59 2.38 3.92 3.54 5.35 4.68 11.04 9.12 16.63 13.48 5.64 4.4 11.18 8.72 16.15 13.16 13.66 12.16 31.14 35.45 38.56 53.45-2.68 1.46-5.47 1.8-8.31 1.49-5.23-.52-10.65-3.17-16.04-4.88-7.74-2.45-13.28-6.26-20.98-10.82 5.12 7.55 4.78 13.3 4.74 18.94-.03 4.1-.36 7.37-1.2 10.79-1.1 4.45-3.07 9.14-6.41 16.21-13.34-17.71-18.31-37.98-31.66-55.69-1.23-1.63-2.48-3.35-3.74-5.14-7.63-10.84-15.5301-24.17-19.5601-34.73-.81-2.13-1.46-4.14-1.93-6-3.57-14.27-6.56-27.53-2.83-41.37.42-1.53 1.01-3.23 2.31-3.75.45-.18.94-.19 1.42-.14z" fill="#b6efa3"/><path d="m169.6 127.29c-.04-.18-.08-.36-.13-.55l17.6 7.84.1.09c-.9 1.04-1.86 2.05-2.76 3.08-2.42 2.77-4.64 6.21-4.16 9.86l-.37.4c-1.81-1.68-3.53-3.44-4.71-5.6-.77-1.41-1.3-2.98-2.36-4.19-1.32-1.51-3.33-2.28-5.33-2.49-1.8-.19-4.14.53-4.2 2.34-.03.78.41 1.5.83 2.16 3.26 5.14 6.02 10.59 8.22 16.26l-.16.06-53.4-52.04.66-.08 42.45 19.34.24-.1c.98 2.2 2.14 4.31 3.43 6.27-.33-1.72.34-4.44 0-6.16 1.29 1.85 2.95 5.43 4.87 6.62-.27-.79-.55-1.92-.83-3.11z" fill="#dabbf2"/><path d="m181.712 79.6193c.73 3.14 1.09 6.58-.34 9.47s-5.23 4.78-8.02 3.17l-.53-.26c.62-2.5.8-5.12.51-7.68-.11-1.01-.3-2.04-.85-2.89-.55-.86-1.53-1.5-2.54-1.4-.22.02-.43.08-.65.13l-.03-.11 7.15-3.78.04-.23c1.16.23 2.35.23 3.58-.12l.7-.14c.37 1.35.7 2.65.98 3.84z" fill="#dabbf2"/><path d="m180.399 115.831c.02.14.05.27.07.41-.03-.14-.05-.29-.09-.43 0 .01 0 .02.02.02z" fill="#ffdd18"/><path d="m177.752 176.53-.13.12c-1.73-1.92-3.62-3.71-5.64-5.33-.26 5.96-.24 11.73-.25 17.35h-.25l-54.06-84 1.35-.16 53.4 52.04.16-.06c2.54 6.46 4.36 13.19 5.42 20.04z" fill="#dabbf2"/><path d="m176.451 76.0395-.04.2299-7.15 3.7801.03.11c-.51.15-1.02.31-1.5.13-1.05-.4-.94-1.96-1.68-2.81-.58-.66-1.59-.75-2.44-.56-.86.18-1.65.6-2.5.8-.87.2-1.78.17-2.65.34s-1.78.5899-2.17 1.3899c-.28.56-.26 1.2201-.19 1.8401.17 1.47.62 2.9 1.31 4.2l-.51.29-8.13 3.89-.51.29c-1.3-2.36-2.11-5.09-2.67-7.72-.18-.84-.36-1.6901-.53-2.5401l.6-.1299c8.09-.92 12.19-8.73 19.77-8.06 3.34.29 6.93 3.75 10.96 4.53z" fill="#dabbf2"/><path d="m171.482 188.67h.25c-.01 9.63-.09 18.82-1.72 27.78-.34 1.86-.75 3.69-1.23 5.46l-.11-.03-51.25-117.21z" fill="#dabbf2"/><path d="m169.469 126.739c.05.19.09.37.13.55.28 1.19.56 2.32.83 3.11-1.92-1.19-3.58-4.77-4.87-6.62.33 1.72-.34 4.44 0 6.16-1.29-1.96-2.45-4.07-3.43-6.27-2.92-6.57-4.24-13.96-2.73-20.46l.06-.35c1.59.29 3.2.59 4.75 1.02l-.16.6c-.3 5.2 1.93 10.26 3.68 13.19 1.76 2.93 4.04 5.5 6.31 8.05-2.06-.54-4-1.58-5.6-3.01.35.99.7 2.53 1.04 4.03z" fill="#63bfef"/><path d="m168.672 221.88.11.03c-3.17 11.78-9.29 21.55-17.01 27.03l-1.16.15c-.54-.9-1.23-1.69-2.14-2.33h-.21c.32-4.52 1.27-8.37.83-8.79-.54-.52-6.43.93-8.77.92l-1.01.04c-.27-7.1.5-14.05.72-21.41 1.34-1.11 2.47-2.47 3.32-3.99.65-1.18 1.15-2.58.76-3.87-.39-1.3-2.01-2.25-3.15-1.54 1.27-.8 2.59-1.64 3.44-2.89.86-1.25 1.13-3.02.24-4.25-.76-1.04-2.47-1.26-3.38-.48 4.45-5.76 4.75-14.26.56-20.23-1.72 6.3-4.2 12.4-7.37 18.13l-.31-.17-5.24-29.31-5.56-31.13-1.2-6.73-4.72-26.39z" fill="#dabbf2"/><path d="m167.278 95.3391c.27.93.52 2.98.38 3.94-.94-.46-1.95-.81-3.01-1.09l.15-.53c.13-.97.6-1.89 1.3-2.57.22-.22.55-.43.84-.29.19.1.28.33.34.54z" fill="#c3acd3"/><path d="m164.41 91.5202v.05c-2.2.32-4.02 2.42-4 4.67l-.19.96c-2.47-.49-4.9-1.01-6.95-2.09-2.18-1.15-3.77-2.99-4.95-5.15l.51-.29 8.13-3.89.51-.29c1.46 2.78 3.96 5.02 6.94 6.03z" fill="#dabbf2"/><path d="m162.12 123.67-.24.1-42.45-19.34 30.96-3.66.11-.28c2.34.93 4.83 1.59 7.28 2.06.55.1 1.11.21 1.67.31l-.06.35c-1.51 6.5-.19 13.89 2.73 20.46z" fill="#dabbf2"/><path d="m133.642 305.51s-.01-.02-.02-.03v.03c.54 1.68.86 3.44.94 5.21.48.05 2.6.6 2.58.11-.01-.48-.3-.91-.57-1.31-1.06-1.54-1.88-2.48-2.94-4.01zm22.88-31.32c1.87 5.62 1.4 11.73.82 17.62-.37 3.7-.79 7.45-1.72 11.02-.54 2.05-1.24 4.05-2.21 5.95-2.66 5.21-7.68 9.59-13.52 9.84l-.41.53c-5.59-4.36-11.28-8.8-16.63-13.48l.18-.21c3.79-1.75 7.53-6.45 9.1-11.3 1.56-4.86 2.02-10.17 4.74-14.48.55-.88 1.18-1.69 1.85-2.48 1.63-1.92 3.49-3.67 4.91-5.75 3.94-5.75 4.87-9.18 4.58-20.32-.09-1.47-.05-2.96.05-4.38h.21c.91.65 1.6 1.44 2.14 2.34 2.9 4.85 1.16 12.94 2.93 17.83.9 2.46 2.16 4.78 2.98 7.27z" fill="#63bfef"/><path d="m150.5 100.489-.11.28-30.96 3.66-.77-.35 22.03-10.5196.28-.2c.24.35.49.69.76 1.03 2.27 2.84 5.37 4.77 8.77 6.0996z" fill="#dabbf2"/><path d="m149.089 237.97c.44.42-.51 4.27-.83 8.78-.1 1.42-.14 2.91-.05 4.38.29 11.14-.64 14.57-4.58 20.32-1.42 2.08-3.28 3.83-4.91 5.75l-.09-.08c-2.2-5.32-2.56-11.1-1.43-16.89v-.16c2.64-.11 5.05-1.29 7.03-3.58-2.39-2.15-3.74-7.03-4.24-10.2-.4-2.49-.6-4.93-.68-7.36l1.01-.04c2.34.01 8.23-1.44 8.77-.92z" fill="#b6efa3"/><path d="m91.5481 241.77-.84-.09c1.67-1.04 3.34-2.07 5.01-3.1 3.45-2.11 6.9099-4.23 10.3099-6.43.53-.34 1.05-.68 1.57-1.02-1.33-2.91-3.08-5.66-5.45-7.81-2.3799-2.14-5.4099-3.63-8.5999-3.81l-.35.1c-.05-.17-.1-.33-.14-.5-1.59-2.17-2.37-7.66-1.11-10.03-2.22-.35-3.52-.86-3.93-3.07-.38-1.98 2.22-2.47 3.36-2.82-2.04-.86-2.55-3.58-2.13-5.75.42-2.18 1.46-4.26 1.41-6.47 3.08 6.74 2.92 8.57 7.62 14.31.31.38.63.76.96 1.12.8799.99 1.8299 1.9 2.9599 2.55 1.55.89 3.35 1.25 5.12 1.49 6.91.9 14.6-.07 21.09-2.6 2.23-3.01 4.25-6.16 6.04-9.44 3.17-5.73 5.65-11.83 7.37-18.13 4.19 5.97 3.89 14.47-.56 20.23-.16.14-.3.31-.4.51.14-.17.28-.34.4-.51.91-.78 2.62-.56 3.38.48.89 1.23.62 3-.24 4.25-.85 1.25-2.17 2.09-3.44 2.89 1.14-.71 2.76.24 3.15 1.54.39 1.29-.11 2.69-.76 3.87-.85 1.52-1.98 2.88-3.32 3.99-.22 7.36-.99 14.31-.72 21.41.08 2.43.28 4.87.68 7.36.5 3.17 1.85 8.05 4.24 10.2-1.98 2.29-4.39 3.47-7.03 3.58-1.41.06-2.9-.19-4.42-.74.78 1.8.34 4.06-1.06 5.44-1.39 1.38-3.66 1.79-5.45.98-1.86 4.4-8.56 6.36-12.82 4.21l-.79.22c-1.05-3.9-2.68-7.52-5.6-10.26-2.39.02-4.98.07-7.6299.19l-.03-.72c-.32-1.59-1.6-12.09-1.92-13.68l.11-.38c-.42-.12-.84-.27-1.25-.42-1.76-.66-3.46-1.55-4.82-2.85zm44.7099-23.06c-3.99.88-8.04 1.77-11.66 3.69-.13.07-.25.14-.38.21-3.45 1.92-6.46 4.93-7.52 8.73 3.05.48 6.23-.06 9.14-1.36 4.85-2.14 8.95-6.35 10.42-11.27z" fill="#f5eb9e"/><path d="m140.97 93.3591-.28.2-22.03 10.5199-.41-.18 19.2-17.9499.28-.08c.73 2.67 1.69 5.22 3.24 7.49z" fill="#dabbf2"/><path d="m138.63 277.12.09.08c-.67.79-1.3 1.6-1.85 2.48-2.72 4.31-3.18 9.62-4.74 14.48-1.57 4.85-5.31 9.55-9.1 11.3l-.18.21c-1.33-1.16-2.64-2.34-3.92-3.54l.26-.27c-.65-2.36-1.3-4.97-1.91-7.66l.48-.11c1.21-.53 1.9-2.03 1.51-3.3-.4-1.26-1.83-2.11-3.13-1.85-.53-2.64-1.01-5.23-1.4-7.64l.14-.02c1.66-.01 3.12-1.65 2.95-3.3-.18-1.65-1.95-2.95-3.57-2.62l-.47.08c-.3-1.78-.66-3.55-1.13-5.26l.79-.22c4.26 2.15 10.96.19 12.82-4.21 1.79.81 4.06.4 5.45-.98 1.4-1.38 1.84-3.64 1.06-5.44 1.52.55 3.01.8 4.42.74v.16c-1.13 5.79-.77 11.57 1.43 16.89z" fill="#b6efa3"/><path d="m137.732 85.8695-.28.08-19.2 17.9505-.21-.1.15.15-.77.72 12.46-25.0205.03-.13c1.6.39 3.45.7 5.64.86l.9-.19c.39 1.92.78 3.83 1.28 5.68z" fill="#dabbf2"/><path d="m133.68 46.53 2.31 8.81-9.57 14.3-4.65-14.11 8.69-21.28z" fill="#f5eb9e"/><path d="m105.438 207.69c-.35.25-.65.55-.87.93.56-.4 1.1-.84 1.6-1.32 1.64-1.54 2.96-3.42 3.85-5.49-1.69 1.74-3.17 3.69-4.4 5.77-.06.04-.12.08-.18.11zm19.41-8.73c1.13.75 2.31 1.4 3.55 1.94-1.18-.65-2.37-1.29-3.55-1.94zm-.08-.05c-1.02-.69-1.99-1.46-2.89-2.31 2.37-.34 4.73-.69 7.1-1.04.62-.09 1.36-.28 1.55-.88-2.95.4-5.87 1.01-8.73 1.84-.06-.05-.12-.11-.18-.17 2.98-1.42 5.83-3.15 8.48-5.14-3.41.9-6.69 2.3-9.69 4.16.05-.16.11-.32.16-.47.09-.08.17-.16.26-.24-.07.04-.13.07-.2.11.06-.17.13-.34.2-.51 2.27-2.69 4.31-5.6 4.9-9.02-2 2.79-3.65 5.83-4.9 9.02l-.6.72s-.09.05-.14.07c-.02-.09-.04-.17-.07-.26-.15-2.56-.96-5.08-2.32-7.26.95 2.37 1.73 4.79 2.32 7.26.02.1.02.19.02.29-.03.02-.07.03-.1.05-1.53-1.97-3.12-3.95-5.23-5.29.87 1.08 3.59 3.29 2.98 4.51-1.74-.4-3.66-.5-5.46-.81-1.28-.57-2.5-1.08-3.29-1.06.98.54 2.11.85 3.29 1.06 1.88.83 3.89 1.77 4.89 1.31.29-.14.47-.3.57-.5.61.14 1.2.31 1.75.55-2.51.71-5.02 1.43-7.53 2.15 2.77-.03 5.54-.69 8.03-1.92.02.03.04.06.07.09-.27.32-.55.63-.82.94.07-.05.14-.09.21-.14-1.67 1.59-3.34 3.19-5.01 4.78 1.78-1.73 3.67-3.34 5.66-4.82 0 .15 0 .29-.01.44.06-.19.13-.39.2-.58.05-.04.11-.08.16-.12-.61 3.32-1.13 6.66-1.57 10.01 1.11-2.85 1.77-5.87 1.96-8.91l.09-.03c.21.12.41.23.62.34.99 2.15 1.98 4.28 2.98 6.42-.83-2.05-1.65-4.09-2.47-6.14zm9.37-.68.31.17c-1.79 3.28-3.81 6.43-6.04 9.44-6.49 2.53-14.18 3.5-21.09 2.6-1.77-.24-3.57-.6-5.12-1.49-1.13-.65-2.08-1.56-2.9597-2.55l.07-.06 5.0997-28.62.3.05c3.32-1.22 6.65-2.43 9.97-3.65.1.08.19.17.28.25-.06-.09-.13-.19-.19-.28l.72-.27h1.1c-.15.29-.32.58-.51.87l-.07-.07s.04.06.05.09c-2.55 3.9-7.61 7.24-7.74 11.49 2.66-3.8 5.25-7.62 7.76-11.46.16.26.31.52.46.79.09 2.36.84 4.71 2.2 6.88.24-2.36-.9-4.66-2.2-6.88 0-.13-.02-.26 0-.39 2.38 2.41 5.19 4.64 8.33 6.63-1.78-2.76-4.69-5.19-8.34-6.95v-.03c2.99 1.02 6.75.96 9.67-.16-3.14-.51-6.37-.78-9.6-.81h.01c3.71-.15 7.34-1.16 10.08-2.85.81-.5 1.58-1.24 1.45-1.91l.77-.14 5.24 29.31z" fill="#b6efa3"/><path d="m124.6 222.401c3.62-1.92 7.67-2.81 11.66-3.69-1.47 4.92-5.57 9.13-10.42 11.27l-.68-.98c.12-.2.23-.41.32-.62 0 0 .02-.01.02-.02 1.25-1.86 1.43-4.41.41-6.42-.14.21-.26.43-.38.65-.03-.16-.08-.31-.13-.47-1.12 1.62-1.37 3.77-.72 5.62 0 .08 0 .17.02.26-.02.04-.05.07-.07.11-1.05-1.61-1.21-3.76-.41-5.5.13-.07.25-.14.38-.21z" fill="#efede7"/><path d="m130.461 34.2506-8.69 21.28-20.4-3.1 2.68-6.04 5.44-12.25z" fill="#f5eb9e"/><path d="m129.91 79.5206-.03.13-12.46 25.0204-1.83-30.0304c5.25.22 7.76 3.25 14.32 4.88z" fill="#dabbf2"/><path d="m130.531 194.68c-.19.6-.93.79-1.55.88-2.37.35-4.73.7-7.1 1.04-.03-.02-.06-.05-.08-.08 2.86-.83 5.78-1.44 8.73-1.84z" fill="#b6efa3"/><path d="m121.929 168.329c.49-.4 1.03-.86 1.62-1.39-.37.25-.95.76-1.62 1.39zm-.49-23.54c.07 2.15.14 4.3.22 6.45-.08.03-.16.07-.23.11-.98-2.11-1.94-4.22-2.91-6.33.14 2.36.91 4.68 2.18 6.67-.03 0-.05.02-.07.03-1.32-1.57-2.82-2.98-4.47-4.19-.34.1-.12.61.15.83 1.39 1.15 2.77 2.3 4.16 3.44-.39.2-.77.4-1.15.63-1.75-.49-3.52-.79-5.31-.6 1.64.28 3.27.56 4.9.83-1.56.93-3.01 2.02-4.33 3.26 2.33-.85 4.65-1.71 6.97-2.56-.09.21-.18.41-.28.61-.08.17-.18.34-.29.51-1.86 1.61-3.77 3.36-4.58 5.38.94-1.9 3.39-3.53 4.58-5.38.44-.38.87-.75 1.29-1.12.05.02.1.03.15.05-.03-.03-.07-.05-.1-.09.22-.19.43-.38.64-.57-.85 2.09-.98 5.07-1.34 7.11 1.14-1.77 1.33-4.9 1.77-7.11.01-.07.02-.13.04-.19.8 2.36 2.63 5.12 3.6 7.11-.56-2.37-2.77-5.61-3.57-7.9-.07.1-.13.21-.18.32-.03-.09-.05-.17-.08-.26 0-.02-.01-.04-.01-.07h-.01c-.02-.11-.05-.23-.06-.34 0 .23.02.47.04.71-.99-2.32-1.57-4.81-1.72-7.34zm.47 23.56c-7.88 6.46-4.06-1.87-3.27-4.21-1.73 2.25-3.32 6.44-2.56 9.04-.95-2.43-1.92-4.06-4.34-8.11.71 2.93 1.07 5.76 2.68 8.46-.19-.05-.38-.1-.57-.16-1.99-1.76-4.22-3.45-7.22-4.28l-.66-.12 6.34-35.62.18.03c.44-.09.82-.13 1.16-.16.37.02.65.06.93-.05.01.01.02.01.03 0 .21-.03.41-.06.59-.12.16.21.33.42.5.62-.1-.23-.2-.47-.29-.71.21-.08.41-.22.61-.42.03.12.07.24.1.36.02-.17.03-.34.05-.51.1-.12.22-.27.33-.44-.29 2.77-.95 5.51-1.96 8.11 1.37-1.7 2.05-3.82 2.59-5.96.13.12.29.22.45.3.09 1.71-.01 3.43-.31 5.12.5-1.59.78-3.24.83-4.89.21.08.42.14.63.19.23.05.62.25 1.06.53 1.01.98 2.08 2.06 3.14 2.51l.41-.07 5.56 31.13-.77.14c-.03-.15-.1-.29-.22-.43-2.9 1.76-6.53 3.3-10.32 3.96.73-.67 2.75-2.76 4.32-4.24z" fill="#b6efa3"/><path d="m127.591 444.01c1.57 1.87 1.81 4.67.85 6.92-.96 2.24-2.98 3.94-5.26 4.81h-.58c-.02-3.32.14-7.32-.47-10.56h-.07c.09-.99-.14-1.88-.78-2.59l.51-.09c2.13-1.21 4.23-.37 5.8 1.51z" fill="#f5eb9e"/><path d="m115.488 173.821-.72.27c-.08-.12-.16-.24-.23-.37.15-.01.29-.03.44-.04-.19-.05-.37-.09-.56-.15-1.61-2.7-1.97-5.53-2.68-8.46 2.42 4.05 3.39 5.68 4.34 8.11-.76-2.6.83-6.79 2.56-9.04-.79 2.34-4.61 10.67 3.27 4.21-1.57 1.48-3.59 3.57-4.32 4.24 3.79-.66 7.42-2.2 10.32-3.96.12.14.19.28.22.43.13.67-.64 1.41-1.45 1.91-2.74 1.69-6.37 2.7-10.08 2.84.09-.16.17-.32.24-.48-.45.16-.89.33-1.34.49z" fill="#b6efa3"/><path d="m121.771 55.5297 4.65 14.11-18.64-4.07-6.41-13.14z" fill="#f5eb9e"/><path d="m125.5 228.359c.76-1.63.97-3.52.59-5.28-.14.19-.26.38-.38.58-.03-.36-.09-.72-.18-1.07.12-.22.24-.44.38-.65 1.02 2.01.84 4.56-.41 6.42z" fill="#efede7"/><path d="m126.09 223.08c.38 1.76.17 3.65-.59 5.28 0 .01-.02.02-.02.02-.09.15-.19.29-.3.42-.07-.12-.14-.24-.2-.36-.01-.01-.01-.02-.01-.03-.06-.21-.11-.41-.15-.62.71-1.24 1.02-2.7.89-4.13.12-.2.24-.39.38-.58z" fill="#efede7"/><path d="m124.699 227.999s.04-.06.05-.09c.06.17.13.34.22.5 0 .01 0 .02.01.03.05.19.11.38.18.56l.68.98c-2.91 1.3-6.09 1.84-9.14 1.36 1.06-3.8 4.07-6.81 7.52-8.73-.8 1.74-.64 3.89.41 5.5.02-.04.05-.07.07-.11z" fill="#efede7"/><path d="m125.711 223.66c.13 1.43-.18 2.89-.89 4.13-.06-.28-.1-.57-.13-.85v-.05c.09-1.14.44-2.25 1.02-3.23z" fill="#efede7"/><path d="m125.53 222.59c.09.35.15.71.18 1.07-.58.98-.93 2.09-1.02 3.23-.12-1.48.17-2.99.84-4.3z" fill="#efede7"/><path d="m125.402 222.119c.05.16.1.31.13.47-.67 1.31-.96 2.82-.84 4.3v.05c-.02.26-.02.53-.01.8-.65-1.85-.4-4 .72-5.62z" fill="#f4f4f0"/><path d="m125.728 185.24c-.59 3.42-2.63 6.33-4.9 9.02 1.25-3.19 2.9-6.23 4.9-9.02z" fill="#b6efa3"/><path d="m122.14 131.061 1.2 6.73-.41.07c-.38-.53-1.97-1.79-3.14-2.51-.58-.56-1.14-1.1-1.68-1.45 0-.23-.01-.45-.02-.68 1.16.06 2.48-1.57 3.53-2.07z" fill="#a5f9c7"/><path d="m130.098 191.211c-2.65 1.99-5.5 3.72-8.48 5.14-.02-.01-.04-.03-.06-.05.01.02.02.05.03.07-.12.06-.24.11-.36.16-.14-.28-.27-.57-.4-.85-.01.35-.02.7-.04 1.06-.18.08-.35.16-.53.24.18-.06.35-.11.53-.16-.19 3.04-.85 6.06-1.96 8.91.44-3.35.96-6.69 1.57-10.01-.05.04-.11.08-.16.12.05-.16.11-.32.17-.47 3-1.86 6.28-3.26 9.69-4.16z" fill="#b6efa3"/><path d="m122.131 445.18c.61 3.24.45 7.24.47 10.56v.14c.01 1.94-.09 3.93-.88 5.7-1.26 2.87-4.09 4.71-6.87 6.16-4.25 2.21-8.76 3.92-13.4 5.07-1.6401.4-3.3201.74-5.0001.57-5.24-.53-8.12-5.51-10.74-10.09.6.75 1.48 1.13 2.43 1.31.83.15 1.73.15 2.57.11 6.29-.32 12.6301-1.54 18.2401-4.42 2.43-1.25 7.6-5.54 10.68-9.79 1.35-1.87 2.3-3.73 2.43-5.32z" fill="#f5eb9e"/><path d="m117.439 132.92h-.01l-.01.02c-.12.1-.25.19-.37.29.85-2.14 1.7-4.28 2.56-6.42-1.34 2.01-2.36 4.22-3 6.55-.05-3.1.05-6.19.31-9.28-.25 2.77-.51 5.54-.75 8.31-.05.06-.1.11-.15.15-.41-1.48-.81-2.97-1.22-4.45-.44.15-.47.76-.4 1.22.18 1.12.47 2.23.87 3.29-.1.07-.24.09-.37.06-.65-.9-1.2-1.87-1.64-2.89-.08-.18-.15-.35-.22-.53l4.38-24.57 4.72 26.39-.52.09c-1.05.5-2.37 2.13-3.53 2.07.01.23.02.45.02.68-.2-.14-.4-.25-.6-.32-.02-.22-.04-.44-.07-.66 1.22-.93 2.44-1.87 3.65-2.81-1.41.63-2.56 1.7-3.65 2.81z" fill="#b6efa3"/><path d="m121.278 442.59c.64.71.87 1.6.78 2.59-.13 1.59-1.08 3.45-2.43 5.32l-.18-.13c-2.19-3.6-5.02-5.02-8.71-4.35.82-1.79 1.4-3.49 1.7-4.83-.05-.04-.1-.07-.16-.1 2.32-.51 3.86-.43 5.19-.21 1.87.3 3.1.9 3.81 1.71z" fill="#f5eb9e"/><path d="m106.278 419.049c-1.28 1.09-2.87 1.84-4.5 2.05-.53-1.66-.14-3.49 1.02-4.84.28-.17.51-.4.68-.68-.26.21-.49.44-.68.68-.84.53-2.04.53-2.8097-.13 1.0897-5.39 4.7397-10.2 9.6397-12.68 0 .04 0 .09-.02.13-.6.65-1.17 1.33-1.69 2.04.9-.27 1.59-1.11 1.69-2.04 2.55-2.73 5.77-4.83 9.31-6.04.4.43 1.63-.37 2.03.05-.62 2.12-2.5 5.35-3.91 7.06 2.59-3.15 5.23-1.42 4.9 1.72-.29 2.78-3.84 5.72-5.82 7.42-3.01 2.61-7.16 5.74-11.05 6.57.38-.4.78-.87 1.21-1.31z" fill="#efede7"/><path d="m116.52 174.82c3.65 1.76 6.56 4.19 8.34 6.95-3.14-1.99-5.95-4.22-8.33-6.63-.01-.11-.01-.21-.01-.32z" fill="#b6efa3"/><path d="m126.188 174.63c-2.92 1.12-6.68 1.18-9.67.16 0-.26.02-.52.04-.78-.15.23-.3.47-.46.7-.01-.01-.02-.01-.02-.02.19-.29.36-.58.51-.87 3.23.03 6.46.3 9.6.81z" fill="#b6efa3"/><path d="m121.528 153.11s.07.02.11.04l-.09.21c-2.32.85-4.64 1.71-6.97 2.56 1.32-1.24 2.77-2.33 4.33-3.26l2.61.45z" fill="#b6efa3"/><path d="m118.52 145.02c.97 2.11 1.93 4.22 2.91 6.33-.25.1-.49.22-.73.34-1.27-1.99-2.04-4.31-2.18-6.67z" fill="#efede7"/><path d="m120.632 151.719c-.06.03-.11.06-.16.08-1.39-1.14-2.77-2.29-4.16-3.44-.27-.22-.49-.73-.15-.83 1.65 1.21 3.15 2.62 4.47 4.19z" fill="#b6efa3"/><path d="m120.151 195.31c.14-.14.28-.27.42-.41-.05.15-.11.31-.16.47-.12.07-.24.15-.36.23 0-.06 0-.13 0-.19.02-.03.04-.05.06-.06.02.04.05.07.08.11-.01-.05-.02-.1-.04-.15z" fill="#a2e5bf"/><path d="m120.239 195.84c-.07.19-.14.39-.2.58.01-.15.01-.29.01-.44.06-.05.12-.09.19-.14z" fill="#a2e5bf"/><path d="m116.398 159.86c.81-2.02 2.72-3.77 4.58-5.38-1.19 1.85-3.64 3.48-4.58 5.38z" fill="#b6efa3"/><path d="m119.451 450.37.18.13c-3.08 4.25-8.25 8.54-10.68 9.79-5.61 2.88-11.9504 4.1-18.2404 4.42-.84.04-1.74.04-2.57-.11l.04-.26c.25-5.25 3.77-11.22 8.14-14.13l.11-.28c.39.13.88.02 1.3-.11 1.49-.46 2.9804-.92 4.4804-1.38-2.3704 1.36-3.7604 4.24-3.3804 6.94.96.39 2.1204.17 2.9004-.49-.51.46-1.03.68-1.08 1.7 4.16-.54 7.92-5.84 10.08-10.57h.01c3.69-.67 6.52.75 8.71 4.35z" fill="#a3897a"/><path d="m119.609 126.811c-.86 2.14-1.71 4.28-2.56 6.42-.11.08-.22.17-.33.25h-.03s-.04-.07-.05-.11h-.03c.64-2.34 1.66-4.55 3-6.56z" fill="#ffd127"/><path d="m111.91 197.05c2.51-.72 5.02-1.44 7.53-2.15-.55-.24-1.14-.41-1.75-.55.61-1.22-2.11-3.43-2.98-4.51 2.11 1.34 3.7 3.32 5.23 5.29-2.49 1.23-5.26 1.89-8.03 1.92z" fill="#a5f9c7"/><path d="m119.271 290.789c.39 1.27-.3 2.77-1.51 3.3l-.48.11c-.4-1.74-.78-3.51-1.14-5.26 1.3-.26 2.73.59 3.13 1.85z" fill="#b6efa3"/><path d="m119.322 152.429c-.14.07-.28.15-.41.23-1.63-.27-3.26-.55-4.9-.83 1.79-.19 3.56.11 5.31.6z" fill="#b6efa3"/><path d="m119.792 135.35c-.44-.28-.83-.48-1.06-.53-.21-.05-.42-.11-.63-.19 0-.25.01-.49.01-.73.54.35 1.1.89 1.68 1.45z" fill="#a2e5bf"/><path d="m116.539 175.529c1.3 2.22 2.44 4.52 2.2 6.88-1.36-2.17-2.11-4.52-2.2-6.88z" fill="#efede7"/><path d="m120.019 194.789c-.59-2.47-1.37-4.89-2.32-7.26 1.36 2.18 2.17 4.7 2.32 7.26z" fill="#efede7"/><path d="m118.112 133.9c0 .24-.01.48-.01.73-.18-.06-.36-.13-.52-.23-.02-.27-.04-.55-.07-.82.2.07.4.18.6.32z" fill="#a2e5bf"/><path d="m117.829 277.98c.17 1.65-1.29 3.29-2.95 3.3l-.14.02c-.07-.38-.13-.76-.19-1.13-.24-1.56-.48-3.15-.76-4.73l.47-.08c1.62-.33 3.39.97 3.57 2.62z" fill="#b6efa3"/><path d="m117.58 134.4c.16.1.34.17.52.23-.05 1.65-.33 3.3-.83 4.89.3-1.69.4-3.41.31-5.12z" fill="#a5f9c7"/><path d="m117.439 132.92c.03.22.05.44.07.66-.07-.03-.15-.05-.22-.07.05-.19.1-.39.14-.58h.01z" fill="#ffd127"/><path d="m115.591 74.6408 1.83 30.0302-14.93-25.8202-.1-.17c3.49-2.04 7.6-4.28 13.2-4.04z" fill="#dabbf2"/><path d="m102.489 78.8497 14.93 25.8203-27.5401-20.4603.1-.13s5.81-1.65 10.5201-4.31c.61-.35 1.24-.72 1.89-1.09z" fill="#dabbf2"/><path d="m113.041 129.24-.73 4.11-6.34 35.62-1.56 8.75-5.1004 28.62-.07.06c-.33-.36-.65-.74-.96-1.12-4.7-5.74-4.54-7.57-7.62-14.31.05 2.21-.99 4.29-1.41 6.47-.42 2.17.09 4.89 2.13 5.75-1.14.35-3.74.84-3.36 2.82.41 2.21 1.71 2.72 3.93 3.07-1.26 2.37-.48 7.86 1.11 10.03-.34 7.55-.26 11.96 2.4 19.04l.26.43c-1.67 1.03-3.34 2.06-5.01 3.1l.84.09-.03.29c1.36 1.3 3.06 2.19 4.82 2.85.41.15.83.3 1.25.42l-.11.38c.32 1.59 1.6 12.09 1.92 13.68l.03.72c-5.01.22-10.23.66-14.67 1.49 2.13 2.86 3.91 4.98 5.28 8.27l-.04.8c-.48-.05-.97-.04-1.42.14-1.3.52-1.89 2.22-2.31 3.75-3.73 13.84-.74 27.1 2.83 41.37.47 1.86 1.12 3.87 1.93 6l-.35.13c-3.31 7.49-6.92 14.91-10.87 22.23l1.29.69c-.69-.15-1.39-.26-2.12-.32-3.64-.29-7.23.76-10.86 1.18-11.67 1.34-22.62-5.59-30.35-13.59v-11.09h.25c1.94 1.65 3.67 2.37 5.78 3.52 3.89 2.1 10.27 1.44 14.34-.59 10.45-5.22 19.16-3.52 21.05-.76-2.43-3.71-4.9-7.46-7.88-10.23-2.98-2.76-6.57-4.47-10.06-3.68-4.03.92-9.25 2.49-13.06.37-3.79-2.1-6.74-3.95-10.42-7.88v-.03c.3-1.79.33-4.07-.37-5.75-.33-.81-.27-1.06-.7-1.82-.1-.18-.21-.42-.31-.71 2.25-.09 5.35.09 7.06-.8 3.62-1.87 7.49-6.44 10.21-7.43-1.19-.54-4.19-.5-7.15-.11l-.07-.54 70.9804-180.05z" fill="#dabbf2"/><path d="m117.42 104.669-41.6005 64.4h-.04c-1.28-14.48-8.18-27.33-18.51-36.37l.23-.26 58.6505-27.77v-.05z" fill="#dabbf2"/><path d="m117.42 104.671-1.27-.05-26.8202-1.01h-.02c.21-7.4102-.22-12.9902.01-19.8102l.56.41z" fill="#dabbf2"/><path d="m117.69 194.349c-.1.2-.28.36-.57.5-1 .46-3.01-.48-4.89-1.31 1.8.31 3.72.41 5.46.81z" fill="#b6efa3"/><path d="m116.169 132.39c.24-2.77.5-5.54.75-8.31-.26 3.09-.36 6.18-.31 9.28l.03.01c.01.04.03.08.05.12.09.24.24.44.44.61-.54 2.14-1.22 4.26-2.59 5.96 1.01-2.6 1.67-5.34 1.96-8.11-.11.17-.23.32-.33.44z" fill="#b6efa3"/><path d="m116.06 174.711s.02.02.02.03c-2.51 3.84-5.1 7.66-7.76 11.46.13-4.25 5.19-7.59 7.74-11.49z" fill="#b6efa3"/><path d="m115.3 132.57s-.02.02-.03.03c-.4-1.06-.69-2.17-.87-3.29-.07-.46-.04-1.07.4-1.22.41 1.48.81 2.97 1.22 4.45-.2.2-.4.34-.61.42-.05-.11-.1-.22-.14-.34 0 0 .03-.03.03-.05z" fill="#b6efa3"/><path d="m115.269 132.619c.04.12.09.23.14.34-.07.04-.14.07-.21.09-.05-.06-.1-.13-.14-.19.07-.06.14-.14.21-.24z" fill="#ffcee2"/><path d="m112.279 441.09c.06.03.11.06.16.1-.3 1.34-.88 3.04-1.7 4.83h-.01c-2.16 4.73-5.92 10.03-10.08 10.57.05-1.02.57-1.24 1.08-1.7-.78.66-1.9398.88-2.8998.49-.38-2.7 1.01-5.58 3.3798-6.94-1.5.46-2.9898.92-4.4798 1.38-.42.13-.91.24-1.3.11-.12-.04-.23-.1-.33-.2-.37-.38-.28-1-.13-1.51.29-.97.71-1.9 1.24-2.77.52-.87 1.15-1.67 1.88-2.38-1.9 1.73-4.99 1.97-7.14.56 1.28-3.63 3.57-6.89 6.53-9.34-.67.22-1.35.44-2.02.65 1.32-5 5.7698-9.03 10.8798-9.85.33 1.32-.05 2.77-.94 3.81-.36.3-.72.6-1.06.9.41-.23.77-.54 1.06-.9 2.6-2.14 5.71-4.04 8.82-3.04 1.1 2.78.56 6.01-.89 8.62-1.45 2.6-3.71 4.67-6.12 6.43 1.26-.65 2.87-.58 4.07.18z" fill="#efede7"/><path d="m114.899 132.66c.05.07.1.13.16.2-.15.16-.3.25-.45.31-.01.01-.02.01-.03 0-.28.02-.58.03-.93.05-.31 0-.68.01-1.16.16l-.18-.03.73-4.11c.07.18.14.35.22.53.31.78.67 1.54 1.05 2.29.11.21.24.43.45.55.04.02.09.04.14.05z" fill="#a2e5bf"/><path d="m114.281 173.75c.14.12.27.25.4.37-3.32 1.22-6.65 2.43-9.97 3.65.49-1.39 2.19-2.46 4.11-3.07 1.71-.54 3.59-.77 5.46-.95z" fill="#b6efa3"/><path d="m113.85 173.371c.15.13.29.25.43.38-1.87.18-3.75.41-5.46.95-1.92.61-3.62 1.68-4.11 3.07l-.3-.05 1.56-8.75.66.12c1.69 1.87 4.25 3.38 7.22 4.28z" fill="#b6efa3"/><path d="m106.629 169.09c3 .83 5.23 2.52 7.22 4.28-2.97-.9-5.53-2.41-7.22-4.28z" fill="#b6efa3"/><path d="m112.231 193.539c-1.18-.21-2.31-.52-3.29-1.06.79-.02 2.01.49 3.29 1.06z" fill="#a2e5bf"/><path d="m102.789 230.13c.2-.08.38-.27.5-.46.84-1.3.56-3.2-.63-4.2-.02.37-.03.75-.03 1.12-.03-.1-.07-.2-.11-.29-.06-.64-.2-1.27-.4-1.88-.11.28-.21.57-.29.85-.01.02-.02.05-.02.08-.14.4-.23.83-.27 1.25-.2 1.42-.08 2.89.36 4.26.19-.23.36-.48.49-.75.04.02.09.03.14.04.09.01.18 0 .26-.02zm4.81 1c-.52.34-1.04.68-1.57 1.02l-.29-.45c-2.09.29-5.11-1.24-6.6598-2.67-2.76-2.53-4.81-5.83-5.88-9.42l.35-.1c3.19.18 6.22 1.67 8.5998 3.81 2.37 2.15 4.12 4.9 5.45 7.81z" fill="#efede7"/><path d="m110.589 356.66c-4.13 6.18-4.16 25.89-6.26 31.66-6.9604 19.14-20.3004 17.11-28.1304 40.03-7.83-9.28-2.9-26.69 3.22-44.03-8.79 9.48-11.34 23.24-17.89 34.38-5.82 9.9-13.09 14.17-23.82 15.24-1.81.19-3.73.28-5.76.29-3.39.02-7.09-.18-11.14-.56 6.21-6.2 6.53-13.95 11.41-22.65 1.43-2.56 3.26-5.21 5.74-7.92.05-.05.09-.1.14-.15 12.06-13.05 22.43-26.34 31.53-40.81l-.06-.17c.26-.08.52-.17.78-.26 4.4-1.62 8.32-4.18 12.78-5.65 4.46-1.48 9.96-1.65 13.51 1.18-4.03-5.17-8.89-10.8-15.54-12.26l-1.29-.69c3.95-7.32 7.56-14.74 10.87-22.23l.35-.13c4.03 10.56 11.9304 23.89 19.5604 34.73z" fill="#b6efa3"/><path d="m110.021 201.811c-.89 2.07-2.21 3.95-3.85 5.49-.19.08-.38.18-.55.28 1.23-2.08 2.71-4.03 4.4-5.77z" fill="#b6efa3"/><path d="m105.74 231.699.29.45c-3.4 2.2-6.8595 4.32-10.3095 6.43l-.26-.43c-2.66-7.08-2.74-11.49-2.4-19.04.04.17.09.33.14.5 1.07 3.59 3.12 6.89 5.88 9.42 1.5495 1.43 4.5695 2.96 6.6595 2.67z" fill="#f5eb9e"/><path d="m102.659 225.471c1.19 1 1.47 2.9.63 4.2-.12.19-.3.38-.5.45-.03-.29-.06-.57-.08-.85.25-.88.23-1.83-.08-2.68 0-.37.01-.75.03-1.12z" fill="#efede7"/><path d="m102.629 226.591c-.02.9.01 1.79.08 2.68-.07.29-.18.57-.32.84-.25-.12-.38-.43-.46-.71-.02-.1-.04-.19-.05-.29.07.21.16.41.26.6.37-1.09.49-2.26.38-3.41.04.09.08.19.11.29z" fill="#efede7"/><path d="m102.519 226.301c.11 1.15-.01 2.32-.38 3.41-.1-.19-.19-.39-.26-.6 0 0 0 0 0-.02-.2-1.08-.05-2.22.43-3.21.08.13.15.27.22.42z" fill="#efede7"/><path d="m101.83 225.27c.08-.28.18-.57.29-.85.2.61.34 1.24.4 1.88-.07-.15-.14-.29-.22-.42-.48.99-.63 2.13-.43 3.21-.29-.79-.4-1.64-.33-2.49.06-.42.15-.84.27-1.25 0-.03.01-.06.02-.08z" fill="#efede7"/><path d="m102.389 230.11c-.13.27-.3.52-.49.75-.44-1.37-.56-2.84-.36-4.26-.07.85.04 1.7.33 2.49v.02c.01.1.03.19.05.29.08.28.21.59.46.71z" fill="#efede7"/><path d="m96.7009 445.24.51.21c-.53.87-.95 1.8-1.24 2.77-.15.51-.24 1.13.13 1.51.1.1.21.16.33.2l-.11.28c-4.37 2.91-7.89 8.88-8.14 14.13l-.04.26c-.95-.18-1.83-.56-2.43-1.31-.57-.71-.79-1.64-.86-2.55-.3-3.58 1.39-7.11 3.87-9.7s4.7-4.35 7.98-5.8z" fill="#f5eb9e"/><path d="m81.0995 344.98c6.65 1.46 11.51 7.09 15.54 12.26-3.55-2.83-9.05-2.66-13.51-1.18-4.46 1.47-8.38 4.03-12.78 5.65-.26.09-.52.18-.78.26-10.19 3.41-23.5 1.31-31.42-5.33h-.38v-24.39c7.73 8 18.68 14.93 30.35 13.59 3.63-.42 7.22-1.47 10.86-1.18.73.06 1.43.17 2.12.32z" fill="#efede7"/><path d="m89.3211 83.7995c-.23 6.82.2 12.4-.01 19.8095-.06 2.2-.17 4.56-.38 7.17-10.39-13.6496-24.02-32.8595-35.06-45.8395 11.72 1.87 35.6 7.75 36.29 8.46-.5 3.92-.74 7.29-.84 10.4z" fill="#f5eb9e"/><path d="m88.9311 110.779-30.39 4.19c-.32-7.95-1.46-17.4295-2.55-26.8095-.5-4.38-.99-8.73-1.38-12.9-.17-1.73-.31-3.4401-.43-5.0901-.14-1.8-.24-3.5499-.31-5.2299 11.04 12.98 24.67 32.1899 35.06 45.8395z" fill="#f5eb9e"/><path d="m71.3095 313.1c2.98 2.77 5.45 6.52 7.88 10.23-1.89-2.76-10.6-4.46-21.05.76-4.07 2.03-10.45 2.69-14.34.59-2.11-1.15-3.84-1.87-5.78-3.52h-.25v-19.25c3.68 3.93 6.63 5.78 10.42 7.88 3.81 2.12 9.03.55 13.06-.37 3.49-.79 7.08.92 10.06 3.68z" fill="#efede7"/><path d="m75.7784 169.069c.15 1.61.22 3.25.22 4.9 0 23.79-15.16 44.05-36.34 51.64-5.78 2.07-12.01 3.2-18.51 3.2v-8.69h.11l5.88-23.83 14.91 19.12-5.64-23.59 21.73 10.76-15.31-18.8 24.25.26-21.96-10.29 21.96-10.29-24.25.26 15.33-18.8-21.74 10.75 5.65-23.58-14.92 19.11-5.89-24.3h-.11v-7.78c13.84 0 26.48 5.12 36.12 13.58 10.33 9.04 17.23 21.89 18.51 36.37z" fill="#f5eb9e"/><path d="m69.5695 361.971.06.17c-9.1 14.47-19.47 27.76-31.53 40.81-.05.05-.09.1-.14.15l-.19-.17v-46.29h.38c7.92 6.64 21.23 8.74 31.42 5.33z" fill="#dabbf2"/><path d="m67.0784 163.46-21.96 10.29 21.96 10.29-24.25-.26 15.31 18.8-21.73-10.76 5.64 23.59-14.91-19.12-5.88 23.83h-.11v-93.22h.11l5.89 24.3 14.92-19.11-5.65 23.58 21.74-10.75-15.33 18.8z" fill="#63bfef"/><path d="m55.9892 88.1598-.24.03c-14.07 1.64-22.12-3.79-30.05-9.28 6.71 3.6 15.09 3.3 22.16.46 2.51-1.01 5.09-2.74 6.33-4.07l.42-.04c.39 4.17.88 8.52 1.38 12.9z" fill="#efede7"/><path d="m46.5114 285.259c2.96-.39 5.96-.43 7.15.11-2.72.99-6.59 5.56-10.21 7.43-1.71.89-4.81.71-7.06.8-.16-.42-.31-.94-.45-1.48.85-1.9 2.01-3.67 3.63-4.95 1.03-.81 3.97-1.53 6.94-1.91z" fill="#efede7"/><path d="m39.2705 281.4s-.07.1-.1.15l-.2-.13c-1.82-.09-3.66-.07-5.48.07l-1.51-.3c1.23-2.18 3.11-4.62 3.79-6.94 1.04 2.45 2.46 4.7 3.5 7.15z" fill="#f5eb9e"/><path d="m38.97 281.419.2.13c-1.34 2.01-2.82 3.79-3.9 5.96-.74-2-2.58-3.97-3.52-5.89.07-.14.15-.29.23-.43l1.51.3c1.82-.14 3.66-.16 5.48-.07z" fill="#f5eb9e"/><path d="m37.7688 332.25v70.68l.1899.17c-2.48 2.71-4.3099 5.36-5.7399 7.92l-.25-.14v-108.58c.09-1.77.16-2.43.44-3.04.17-.37.41-.72.79-1.29.37-.56.83-1.07 1.11-1.68.29-.6.4-1.26.5-1.92.02-.12.04-.31.05-.54.01-.06.02-.12.02-.18.01-.06.01-.13.01-.19.1-1.38.1999-3.77.2999-4.97h.0601c.07.78.3399 2.29.6899 3.63-.24.51-.45 1.03-.64 1.55.33-.04.7001-.06 1.0901-.07.1.29.21.53.31.71.43.76.37 1.01.7 1.82.7 1.68.67 3.96.37 5.75z" fill="#f5eb9e"/><path d="m37.7492 434.419v43.67l-5.8-.09v-43.77c2.03-.01 3.95-.1 5.76-.29z" fill="#f5eb9e"/><path d="m33.7484 290.5c.81.72 1.2 1.86 1.14 2.96 0 .06 0 .13-.01.19 0 .06 0 .12-.02.18-.72-1.1-2.25-1.23-3.52-1.56-4.03-1.05-8.06-3.65-8.34-7.8-.16-2.42.05-7.56-.35-9.95 1.76 2.54 5.19 6.55 6.25 9.45.54 1.48 1.01 3.05 2.06 4.23.8.9 1.88 1.5 2.79 2.3z" fill="#efede7"/><path d="m34.8594 293.83c.01-.06.02-.12.02-.18 0 .06 0 .12-.02.18z" fill="#efede7"/><path d="m34.8619 293.83c-.01.23-.03.42-.05.54-.1.66-.21 1.32-.5 1.92-.28.61-.74 1.12-1.11 1.68-.38.57-.62.92-.79 1.29l-.19-.09c-3.21 3.26-6.27 4.65-10.8 5.28 1.69-4.88 5.69-9.21 9.92-12.18 1.27.33 2.8.46 3.52 1.56z" fill="#efede7"/><g stroke="#010101" stroke-linecap="round" stroke-linejoin="round" stroke-width="2"><path d="m125.839 229.981c4.85-2.14 8.95-6.35 10.42-11.27-3.99.88-8.04 1.77-11.66 3.69-.13.07-.25.14-.38.21-3.45 1.92-6.46 4.93-7.52 8.73 3.05.48 6.23-.06 9.14-1.36z"/><path d="m93.5508 219.51c3.19.18 6.22 1.67 8.6002 3.81 2.37 2.15 4.12 4.9 5.45 7.81"/><path d="m109.631 229.779c-.67.45-1.35.9-2.03 1.35-.52.34-1.04.68-1.57 1.02-3.4 2.2-6.8601 4.32-10.3101 6.43-1.67 1.03-3.34 2.06-5.01 3.1l.84.09c7.48.69 15.1701-.96 21.7001-4.66"/><path d="m114.51 244.051c-5.2 2.54-11.39 2.99-16.9205 1.28-.42-.12-.84-.27-1.25-.42-1.76-.66-3.46-1.55-4.82-2.85"/><path d="m93.0586 219.109c.04.17.09.33.14.5 1.07 3.59 3.12 6.89 5.88 9.42 1.5504 1.43 4.5704 2.96 6.6604 2.67"/><path d="m124.688 226.939c-.02.26-.02.53-.01.8 0 .08 0 .17.02.26.01.29.05.59.11.89"/><path d="m125.501 228.36c.76-1.63.97-3.52.59-5.28-.14.19-.26.38-.38.58-.58.98-.93 2.09-1.02 3.23"/><path d="m124.98 228.441c.05.19.11.38.18.56.12-.2.23-.41.32-.62"/><path d="m124.22 222.609c-.8 1.74-.64 3.89.41 5.5.02-.04.05-.07.07-.11.02-.03.04-.06.05-.09.03-.04.05-.08.07-.12.71-1.24 1.02-2.7.89-4.13-.03-.36-.09-.72-.18-1.07-.03-.16-.08-.31-.13-.47-1.12 1.62-1.37 3.77-.72 5.62.02.06.04.11.07.17.06.17.13.34.22.5 0 .01 0 .02.01.03.06.12.13.24.2.36.11-.13.21-.27.3-.42 0 0 .02-.01.02-.02 1.25-1.86 1.43-4.41.41-6.42-.14.21-.26.43-.38.65-.67 1.31-.96 2.82-.84 4.3v.05c.03.28.07.57.13.85.04.21.09.41.15.62"/><path d="m102.789 230.131c.02.22.05.45.08.67"/><path d="m102.791 230.121c.2-.07.38-.26.5-.45.84-1.3.56-3.2-.63-4.2-.02.37-.03.75-.03 1.12-.02.9.01 1.79.08 2.68.02.28.05.56.08.85"/><path d="m102.789 230.119v.01"/><path d="m101.879 229.109c.01.1.03.19.05.29.08.28.21.59.46.71.04.02.09.03.14.04.09.01.18 0 .26-.02"/><path d="m101.809 225.35c-.12.41-.21.83-.27 1.25-.2 1.42-.08 2.89.36 4.26.19-.23.36-.48.49-.75.14-.27.25-.55.32-.84.25-.88.23-1.83-.08-2.68-.03-.1-.07-.2-.11-.29-.07-.15-.14-.29-.22-.42-.48.99-.63 2.13-.43 3.21"/><path d="m101.89 225.1c-.02.06-.04.11-.06.17-.01.02-.02.05-.02.08-.14.4-.23.83-.27 1.25-.07.85.04 1.7.33 2.49v.02c.07.21.16.41.26.6.37-1.09.49-2.26.38-3.41-.06-.64-.2-1.27-.4-1.88-.11.28-.21.57-.29.85"/><path d="m130.441 213.949c-4.08 1.05-7.92 3-11.16 5.69"/><path d="m108.051 221.159c-2.31-3.14-6.12-5.13-10.0198-5.22"/><path d="m141.258 200.5c4.45-5.76 4.75-14.26.56-20.23-1.72 6.3-4.2 12.4-7.37 18.13-1.79 3.28-3.81 6.43-6.04 9.44-6.49 2.53-14.18 3.5-21.09 2.6-1.77-.24-3.57-.6-5.12-1.49-1.13-.65-2.08-1.56-2.9599-2.55-.33-.36-.65-.74-.96-1.12-4.7-5.74-4.54-7.57-7.62-14.31.05 2.21-.99 4.29-1.41 6.47-.42 2.17.09 4.89 2.13 5.75-1.14.35-3.74.84-3.36 2.82.41 2.21 1.71 2.72 3.93 3.07-1.26 2.37-.48 7.86 1.11 10.03-.34 7.55-.26 11.96 2.4 19.04"/><path d="m141.259 200.5c-.16.14-.3.31-.4.51.14-.17.28-.34.4-.51z"/><path d="m113.449 269.961c4.26 2.15 10.96.19 12.82-4.21 1.79.81 4.06.4 5.45-.98 1.4-1.38 1.84-3.64 1.06-5.44 1.52.55 3.01.8 4.42.74 2.64-.11 5.05-1.29 7.03-3.58-2.39-2.15-3.74-7.03-4.24-10.2-.4-2.49-.6-4.93-.68-7.36-.27-7.1.5-14.05.72-21.41 1.34-1.11 2.47-2.47 3.32-3.99.65-1.18 1.15-2.58.76-3.87-.39-1.3-2.01-2.25-3.15-1.54 1.27-.8 2.59-1.64 3.44-2.89.86-1.25 1.13-3.02.24-4.25-.76-1.04-2.47-1.26-3.38-.48"/><path d="m97.4805 245.711c.32 1.59 1.6 12.09 1.92 13.68"/><path d="m119.192 301.86c-.65-2.36-1.3-4.97-1.91-7.66-.4-1.74-.78-3.51-1.14-5.26-.53-2.64-1.01-5.23-1.4-7.64-.07-.38-.13-.76-.19-1.13-.24-1.56-.48-3.15-.76-4.73-.3-1.78-.66-3.55-1.13-5.26-1.05-3.9-2.68-7.52-5.6-10.26-2.39.02-4.98.07-7.6303.19-5.01.22-10.23.66-14.67 1.49 2.13 2.86 3.91 4.98 5.28 8.27"/><path d="m106.609 273.09c-5.31-.77-10.6201-1.55-15.9301-2.33-.22-.04-.45-.07-.68-.09-.48-.05-.97-.04-1.42.14-1.3.52-1.89 2.22-2.31 3.75-3.73 13.84-.74 27.1 2.83 41.37.47 1.86 1.12 3.87 1.93 6 4.03 10.56 11.9301 23.89 19.5601 34.73 1.26 1.79 2.51 3.51 3.74 5.14 13.35 17.71 18.32 37.98 31.66 55.69 3.34-7.07 5.31-11.76 6.41-16.21.84-3.42 1.17-6.69 1.2-10.79.04-5.64.38-11.39-4.74-18.94 7.7 4.56 13.24 8.37 20.98 10.82 5.39 1.71 10.81 4.36 16.04 4.88 2.84.31 5.63-.03 8.31-1.49-7.42-18-24.9-41.29-38.56-53.45-4.97-4.44-10.51-8.76-16.15-13.16-5.59-4.36-11.28-8.8-16.63-13.48-1.33-1.16-2.64-2.34-3.92-3.54-4.42-4.12-8.51-8.46-12.01-13.12"/><path d="m114.262 275.36c1.62-.33 3.39.97 3.57 2.62.17 1.65-1.29 3.29-2.95 3.3"/><path d="m116.141 288.939c1.3-.26 2.73.59 3.13 1.85.39 1.27-.3 2.77-1.51 3.3"/><path d="m79.7305 344.451s.06-.11.08-.16c3.95-7.32 7.56-14.74 10.87-22.23"/><path d="m110.589 356.66c-4.13 6.18-4.16 25.89-6.26 31.66-6.9604 19.14-20.3004 17.11-28.1304 40.03-7.83-9.28-2.9-26.69 3.22-44.03-8.79 9.48-11.34 23.24-17.89 34.38-5.82 9.9-13.09 14.17-23.82 15.24-1.81.19-3.73.28-5.76.29-3.39.02-7.09-.18-11.14-.56 6.21-6.2 6.53-13.95 11.41-22.65 1.43-2.56 3.26-5.21 5.74-7.92.05-.05.09-.1.14-.15 12.06-13.05 22.43-26.34 31.53-40.81"/><path d="m138.629 277.12c-2.2-5.32-2.56-11.1-1.43-16.89"/><path d="m199.49 343.309c-.17-.02-.34-.03-.51-.05-5.33-.53-10.69-1.09-15.81-2.64-5.29-1.61-10.36-4.36-13.85-8.65-4.54-5.57-5.89-12.99-8.13-19.82-.92-2.8-1.95-8.13-5.42-9.28"/><path d="m140.32 238.89c2.34.01 8.23-1.44 8.77-.92.44.42-.51 4.27-.83 8.78-.1 1.42-.14 2.91-.05 4.38"/><path d="m199.78 343.091c-.23-.38-.46-.76-.67-1.15-6.5-11.86-2.04-24.31-10.22-30.67-13.77-10.71-16.08-27.75-15.22-41.89"/><path d="m166 294.36c-1.24-8.87 2.38-17.61 7.61-25.02.94-1.33 1.93-2.62 2.96-3.86 2.36-2.84 4.87-5.61 7.41-8.37 4.71-5.12 9.52-10.2 13.64-15.69 1.39-1.85 2.69-3.76 3.89-5.71 5.15-8.36 8.47-17.6 9.24-27.5.37-4.73.22-9.46-.26-14.17-.71-7.07-2.16-14.11-3.7-21.06-2.38 3.1-4.67 6.38-6.83 9.78-3.91 6.16-7.36 12.71-10.02 19.29-1.56-9.41-5.92-18.33-12.32-25.4-1.73-1.92-3.62-3.71-5.64-5.33-.26 5.96-.24 11.73-.25 17.35-.01 9.63-.09 18.82-1.72 27.78-.34 1.86-.75 3.69-1.23 5.46-3.17 11.78-9.29 21.55-17.01 27.03"/><path d="m185.84 387.67c1.68 2.43 4.32 3.03 6.16 5.33 2.67 3.33 3.42 8.08 1.92 12.07-.6 1.59-1.73 4.39-2.23 6.02"/><path d="m188.721 403.131c.96 2.66 1.8 5.35 2.56 8.07 1.08 3.87 1.99 7.79 2.82 11.74.37 1.8.73 3.61 1.08 5.42.32 1.66.64 3.31.95 4.97.57 3.02 1.14 6.05 1.72 9.08-3.3 1.26-7.19-.24-9.56-2.86-1.32-1.45-2.26-3.18-2.94-5.03-.56-1.48-.96-3.03-1.27-4.56-.71-3.46-1.06-7.02-2.19-10.37"/><path d="m181.03 415.1c.21 1.48.41 2.98.41 4.48 0 .53-.03 1.06-.1 1.59-.25 2.02-1.1 4.04-2.7 5.3-1.6 1.25-4.04 1.53-5.66.31"/><path d="m174.439 414.221c-.54 2.42-.42 4.93-.71 7.38-.21 1.69-.66 3.43-1.55 4.85-.41.64-.91 1.22-1.52 1.7-1.95 1.52-5.24 1.46-6.55-.64"/><path d="m167.889 418.07c-.48 2.82-1.02 5.78-2.84 7.98-.44.54-.99 1.01-1.59 1.38-1.88 1.18-4.31 1.45-6 .1-1.37-1.11-1.88-2.94-2.26-4.66-.67-3.04-1.16-6.11-1.47-9.2-.11-1.14-.18-2.37.45-3.33.63-.95 1.59-1.22 2.22-.27"/><path d="m161.932 419.28c-2.19-3.42-3.96-6.37-5.46-9.25-1.48-2.83-2.69-5.59-3.8-8.68"/><path d="m194.121 480.66c11.93-3.92 23.86-7.85 35.8-11.77 5.9-1.94 11.79-3.92 17.7-5.83 5.1-1.64 7.89-1.85 9.85-7.46 3.66-10.45 7.32-20.89 10.98-31.34.66-1.89 1.01-4.58-.84-5.37-.73-.31-1.57-.16-2.36-.01-9.32 1.84-18.68 3.69-27.72 6.56-1.88.59-3.74 1.23-5.59 1.92-6.57 2.46-12.87 5.56-19.16 8.65-1.77.88-3.58 1.77-5.01 3.15-1.56 1.52-2.56 3.51-3.52 5.47-3.18 6.45-6.3 12.94-9.38 19.45-2.2 4.67-4.44 9.61-4.15 14.77.04.6.13 1.24.54 1.67.71.72 1.9.46 2.86.14z"/><path d="m237.492 425.319c-3.21-2.7-6.42-5.39-9.63-8.08-.97-.81-1.97-1.64-3.17-2.05-2.65-.9-5.48.47-7.95 1.8-6.96 3.74-13.92 7.49-20.89 11.24"/><path d="m184.659 434.77c-4.93 2.89-9.86 5.77-14.78 8.66-3.54 2.07-7.47 4.73-7.87 8.8-.39 4.01 2.83 7.35 5.8 10.07 6.21 5.69 12.43 11.39 18.64 17.09 1.42 1.3 4.58 2.64 7.67 1.27"/><path d="m220.611 428.49c-4.18-.88-8.53.25-12.47 1.9-3.94 1.66-7.13 3.86-11.18 5.24"/><path d="m188.839 440.26c-2.85 1.88-5.71 3.76-8.57 5.64-1.74 1.15-3.53 2.33-4.8 3.99s-1.95 3.93-1.21 5.89"/><path d="m197.19 447.721c-.36.24-.66.56-.85.94-.04.07-.08.15-.11.23.6.46 1.54.32 2.06-.21.14-.14.25-.3.32-.49"/><path d="m198.082 447.33c-.11.02-.22.06-.33.11-.11.03-.23.08-.33.15"/><path d="m199.61 447.32c-.29-.07-.58-.1-.88-.08-.1 0-.21.01-.32.02-.07.02-.15.03-.23.05-.04 0-.07.01-.1.02-.11.03-.22.07-.33.11-.12.04-.22.09-.33.15-.03.01-.06.02-.08.04-.05.02-.1.05-.15.09-.37.22-.7.53-.94.89.03.02.06.04.09.05.59.35 1.34.32 1.95.02.55-.27.99-.74 1.12-1.34-.22-.07-.45-.1-.68-.1-.11 0-.22.01-.32.02-.08.01-.16.02-.23.05"/><path d="m184.211 466.251c1.91-4.29 7.6-7.17 12.28-6.93"/><path d="m96.7009 445.24c-3.28 1.45-5.5 3.21-7.98 5.8s-4.17 6.12-3.87 9.7c.07.91.29 1.84.86 2.55.6.75 1.48 1.13 2.43 1.31.83.15 1.73.15 2.57.11 6.29-.32 12.6301-1.54 18.2401-4.42 2.43-1.25 7.6-5.54 10.68-9.79 1.35-1.87 2.3-3.73 2.43-5.32.09-.99-.14-1.88-.78-2.59-.71-.81-1.94-1.41-3.81-1.71-1.33-.22-2.87-.3-5.19.21-.07.02-.14.03-.22.05"/><path d="m85.7109 463.29c2.62 4.58 5.5 9.56 10.74 10.09 1.68.17 3.36-.17 5.0001-.57 4.64-1.15 9.15-2.86 13.4-5.07 2.78-1.45 5.61-3.29 6.87-6.16.79-1.77.89-3.76.88-5.7v-.14c-.02-3.32.14-7.32-.47-10.56"/><path d="m121.789 442.5c2.13-1.21 4.23-.37 5.8 1.51 1.57 1.87 1.81 4.67.85 6.92-.96 2.24-2.98 3.94-5.26 4.81"/><path d="m177.749 176.531c-1.06-6.85-2.88-13.58-5.42-20.04-2.2-5.67-4.96-11.12-8.22-16.26-.42-.66-.86-1.38-.83-2.16.06-1.81 2.4-2.53 4.2-2.34 2 .21 4.01.98 5.33 2.49 1.06 1.21 1.59 2.78 2.36 4.19 1.18 2.16 2.9 3.92 4.71 5.6 1.04.97 2.1 1.91 3.12 2.9.15.14.31.29.46.44 2.9 2.87 5.46 6.71 4.84 10.75"/><path d="m199.741 182.62c-.49-5.82 1.66-11.55 5.08-16.28 3.43-4.73 7.62-8.88 10.78-13.79.7-1.09 1.34-2.21 1.92-3.36 3.86-7.53 5.3-16.3 3.97-24.66-.23-1.41-1.03-3.19-2.44-2.97-1.06.16-1.56 1.38-1.85 2.41-.2.71-.41 1.43-.61 2.14-1.98 6.89-3.94 13.76-5.92 20.65"/><path d="m216.519 126.089c.6-4.19-.17-10.6-2.38-14.21-.29-.48-.67-.99-1.22-1.07-.92-.15-1.53.92-1.79 1.82-.38 1.34-.62 2.7-.8 4.08-.18 1.31-.3 2.63-.46 3.94-.7 5.98-2.11 12.17-6.06 16.72"/><path d="m210.202 116.69c-.23-1.67-.93-4.19-1.79-5.63-.43-.71-.99-1.42-1.79-1.6-1.1-.26-2.2.63-2.62 1.68s-.36 2.22-.38 3.35c-.08 4.07-1.36 8.1-3.64 11.48-.24.36-.49.72-.76 1.06 0 .02-.03.04-.04.06-.09.11-.17.22-.26.33"/><path d="m203.622 114.49c-.2-.92-.85-3.47-1.44-4.19s-1.68-1.13-2.48-.67c-.6.35-.88 1.05-1.12 1.7-1.02 2.79-2.71 6.96-3.73 9.75"/><path d="m53.8711 64.9395c11.04 12.98 24.67 32.1899 35.06 45.8395.21-2.61.32-4.97.38-7.17.21-7.4095-.22-12.9895.01-19.8095.1-3.11.34-6.48.84-10.4-.69-.71-24.57-6.59-36.29-8.46z"/><path d="m21.1484 220.119v8.69c6.5 0 12.73-1.13 18.51-3.2 21.18-7.59 36.34-27.85 36.34-51.64 0-1.65-.07-3.29-.22-4.9-1.28-14.48-8.18-27.33-18.51-36.37-9.64-8.46-22.28-13.58-36.12-13.58z"/><path d="m129.88 79.6506-12.46 25.0204-1.83-30.0304"/><path d="m144.82 49.5406 7.74-15.4"/><path d="m22.6797 34.2891 24.6 18.27"/><path d="m102.489 78.8496 14.93 25.8204-27.5404-20.4604-.56-.41-.01-.01"/><path d="m76.5195 34.4199 9.87 16.95"/><path d="m57.2491 102.401-34.96-1.52"/><path d="m117.418 104.669-1.27-.05-26.8199-1.01"/><path d="m57.5 132.44 58.65-27.77"/><path d="m253.57 88.5396 10.92-1.19"/><path d="m180.379 97.2095 64.94-7.69"/><path d="m75.8203 169.07 41.5997-64.4 1.35-.16.66-.08 30.96-3.66"/><path d="m39.6603 225.609-17.34 26.95"/><path d="m223.871 53.7291 18.82-8.94"/><path d="m169.262 80.0495 7.15-3.78"/><path d="m148.828 89.6693 8.13-3.89"/><path d="m137.452 85.9492-19.2 17.9498-.06.05-.77.72 1.02-.48.22-.11 22.03-10.5198"/><path d="m192.59 34.4199-7.02 6.56"/><path d="m264.489 246.77-11.29-11.25"/><path d="m210.629 194.029 33.92 33.06"/><path d="m161.879 123.771-42.45-19.34-.77-.35-.41-.18-.21-.1.15.15.25.24.33.32 53.4 52.04"/><path d="m186.229 134.86-16.63-7.57-.24-.11"/><path d="m240.148 159.42-22.5-10.16"/><path d="m253.449 165.4 11.04 4.97"/><path d="m187.071 134.581-17.6-7.84-.6-.27"/><path d="m253.609 316.289 10.86 17.18"/><path d="m201.898 235.939 44.05 68.28"/><path d="m117.422 104.67 54.06 84"/><path d="m117.421 104.67-70.9796 180.05"/><path d="m168.672 221.88-51.25-117.21"/><path d="m225.268 351.31-41.12-94.04"/><path d="m245.949 398.591-15.07-34.45"/><path d="m101.728 454.89c-.51.46-1.03.68-1.08 1.7 4.16-.54 7.92-5.84 10.08-10.57"/><path d="m106.399 428.9c.89-1.04 1.27-2.49.94-3.81-5.11.82-9.5598 4.85-10.8798 9.85.67-.21 1.35-.43 2.02-.65-2.96 2.45-5.25 5.71-6.53 9.34 2.15 1.41 5.24 1.17 7.14-.56-.73.71-1.36 1.51-1.88 2.38-.53.87-.95 1.8-1.24 2.77-.15.51-.24 1.13.13 1.51.1.1.21.16.33.2.39.13.88.02 1.3-.11 1.49-.46 2.9798-.92 4.4798-1.38-2.3698 1.36-3.7598 4.24-3.3798 6.94.96.39 2.1198.17 2.8998-.49 0 0 .004-.003.01-.01.11-.08.2-.18.29-.28.07-.08.14-.17.21-.28"/><path d="m106.4 428.9c-.36.3-.72.6-1.06.9.41-.23.77-.54 1.06-.9z"/><path d="m110.738 446.02c.82-1.79 1.4-3.49 1.7-4.83-.05-.04-.1-.07-.16-.1-1.2-.76-2.81-.83-4.07-.18 2.41-1.76 4.67-3.83 6.12-6.43 1.45-2.61 1.99-5.84.89-8.62-3.11-1-6.22.9-8.82 3.04"/><path d="m106.73 418.629-.45.42c-.43.44-.83.91-1.21 1.31 3.89-.83 8.04-3.96 11.05-6.57 1.98-1.7 5.53-4.64 5.82-7.42.33-3.14-2.31-4.87-4.9-1.72 1.41-1.71 3.29-4.94 3.91-7.06-.4-.42-1.63.38-2.03-.05-3.54 1.21-6.76 3.31-9.31 6.04"/><path d="m102.8 416.26c-1.16 1.35-1.55 3.18-1.02 4.84 1.63-.21 3.22-.96 4.5-2.05"/><path d="m102.801 416.26c.28-.17.51-.4.68-.68-.26.21-.49.44-.68.68z"/><path d="m109.608 403.579s.02-.09.02-.13c-4.9 2.48-8.55 7.29-9.6397 12.68.7697.66 1.9697.66 2.8097.13"/><path d="m109.612 403.58c-.6.65-1.17 1.33-1.69 2.04.9-.27 1.59-1.11 1.69-2.04z"/><path d="m88.1797 464.341c.25-5.25 3.77-11.22 8.14-14.13"/><path d="m119.45 450.37c-2.19-3.6-5.02-5.02-8.71-4.35h-.01"/><path d="m148.211 251.131c.29 11.14-.64 14.57-4.58 20.32-1.42 2.08-3.28 3.83-4.91 5.75-.67.79-1.3 1.6-1.85 2.48-2.72 4.31-3.18 9.62-4.74 14.48-1.57 4.85-5.31 9.55-9.1 11.3"/><path d="m148.471 246.76c.91.64 1.6 1.43 2.14 2.33 2.9 4.85 1.16 12.94 2.93 17.83.9 2.46 2.16 4.78 2.98 7.27 1.87 5.62 1.4 11.73.82 17.62-.37 3.7-.79 7.45-1.72 11.02-.54 2.05-1.24 4.05-2.21 5.95-2.66 5.21-7.68 9.59-13.52 9.84"/><path d="m150.02 270.029c-2.68 7.93-5.36 15.87-8.04 23.8-1.58 4.69-3.7 9.96-8.34 11.68h-.01s-.03.02-.04.02"/><path d="m152.119 276.73c-.4 8.17-2.07 16.29-4.93 23.96-1.24 3.33-3.04 6.9-6.38 8.07"/><path d="m133.639 305.51c1.06 1.53 1.88 2.47 2.94 4.01.27.4.56.83.57 1.31.02.49-2.1-.06-2.58-.11-.08-1.77-.4-3.53-.94-5.21 0-.01 0-.02 0-.03 0 .01 0 .02.02.03z"/><path d="m140.861 310.16c.56 1.57 1.11 3.14 1.67 4.72-.67.63-1.52 1.07-2.41 1.25-.41-2.35-.17-4.81.67-7.04"/><path d="m183.709 428.641c-13.98 6.84-36.09 15.85-54.08 17.64"/><path d="m264.471 395.789c-3.7.45-7.37 1.07-11.02 1.85-2.46.52-4.91 1.11-7.34 1.77-18.11 4.9-35.4 13.39-51.24 23.37"/><path d="m85.0088 457.801c-11.22 5.7-22.33 10.99-31.29 19.84"/><path d="m37.7492 434.42v43.67l-5.8-.09v-43.38"/><path d="m253.179 338.021c-1.34 3.42-3.26 6.62-6.8 8.56-.2.11-.41.22-.63.32-3.48 1.66-6.72 3.5-8.97 3.75-2.79.31-8.12.24-11.5.7-.73.1-1.38.23-1.88.39-2.8.88-5.3 3.73-4.9 6.64.27 2.02 2.13 3.56 4.12 4.06 1.47.37 4.82 1.37 8.26 1.66 1.2.11 2.41.13 3.55 0 2.65-.3 6.45-1.36 9.63-2.4 1.67-.54 3.17-1.08 4.25-1.49 1.67-.64 3.34-1.37 4.88-2.28 1.12-.65 2.18-1.41 3.13-2.31 2.05-1.94 3.5-4.45 4.43-7.12 1.28-3.64.97-7.19.32-10.99-.65-3.81-4.11-9.18-7.55-10.95"/><path d="m245.949 361.83v36.76"/><path d="m245.949 319.949v10.07 15.72"/><path d="m245.949 279.859v10.79 13.57"/><path d="m245.949 240.779v10.29 13.65"/><path d="m245.949 200.1v10.36 14.59"/><path d="m245.949 163.84-.03 9.51-.04 11.73"/><path d="m253.2 148.311v-89.7404c-.27-4.05 3.02-8.13 3.88-12.1.63-2.94.99-6.24 3.9-7.03 3.88-1.06 7.31 3.46 7.2 7.48.14-3.81-.03-7.79-1.82-11.15-1.8-3.37-5.66-5.9-9.37-5.04-4.79 1.11-6.01 7.34-7.21 12.11-.55-2.93-1.11-5.94-2.66-8.49s-4.32-4.58-7.29-4.38c-2.05.13-3.89 1.28-5.47 2.58-3.1 2.56-5.57 5.89-7.11 9.6 3.92-3.04 7.97-4.14 12.17-1.61 1.54.93 2.84 2.35 3.87 4.02 1.7 2.77 2.63 6.23 2.66 9.24v98.4004"/><path d="m253.199 170.13v-1.16-10.72"/><path d="m253.199 213.481v-3.91-18.26"/><path d="m253.199 252.5v-3.34-13.64-4.36"/><path d="m253.199 291.551v-3.03-17.55"/><path d="m253.199 337.301v-10.74-15.92"/><path d="m253.199 396.459v-38.51"/><path d="m189.52 73.7898c14.77-3.97 26.09.7 32.5 3.86 8.41 4.14 16.37 1.54 23.58-1.63"/><path d="m54.1892 75.3008c-1.24 1.33-3.82 3.06-6.33 4.07-7.07 2.84-15.45 3.14-22.16-.46 7.93 5.49 15.98 10.92 30.05 9.28"/><path d="m103.89 46.3203c-9.6503.42-17.7703 7.24-26.0403 8.33-11.06 1.45-22.48-4.54-33.19-1.43-8.03 2.34-14.62 9.57-22.98 9.4 9.09 3.25 16.97 8.86 32 7.59"/><path d="m245.73 55.2098c-5.63 4.67-13.76 2.82-22.02-1.16-2.16-1.03-4.33-2.22-6.46-3.47-4.36-2.55-8.87-4.81-13.49-6.84-8.56-3.76-18.72-3.7-27.23.17-7.02 3.2-13.15 9.73-20.87 9.62-6.2-.1-12.33-6.16-21.98-7"/><path d="m245.5 330.021c-3.2-2.36-5.42-6.03-6.02-9.97s.43-8.1 2.8-11.3c1.15-1.56 2.57-2.87 3.97-4.21.87-.84 1.73-1.68 2.51-2.6 2.3-2.71 3.89-6.88 4.44-10.39"/><path d="m245.949 319.95c1.5-4.4 4.37-6.99 7.05-9.52 1.85-1.74 3.6-3.45 4.77-5.71 2.84-5.47.76-12.97-4.49-16.2"/><path d="m245.461 290.65c-3.21-2.36-5.43-6.03-6.02-9.97-.6-3.93.43-8.09 2.79-11.3 1.17-1.59 2.63-2.92 4.06-4.3.85-.8 1.68-1.62 2.43-2.51 2.29-2.7 4.38-4.75 4.48-10.07"/><path d="m245.949 279.86c.37-4.72 3.44-7 6.48-9.23 2.07-1.52 4.13-3.03 5.3-5.28 2.83-5.47.75-12.96-4.5-16.19"/><path d="m245.441 251.07c-3.21-2.36-5.42-6.03-6.02-9.97s.43-8.1 2.8-11.3c.71-.96 1.52-1.83 2.36-2.67.58-.57 1.17-1.13 1.76-1.68.82-.8 1.63-1.6 2.36-2.46 2.3-2.71 4.57-5.15 4.5-9.51"/><path d="m246.199 240.28c1.56-3.59 4.28-6.36 6.8-9.29 1.5-1.74 2.93-3.53 4-5.59 2.84-5.47 1.47-12.6-3.78-15.83"/><path d="m245.548 210.461c-3.21-2.36-5.43-6.03-6.03-9.97-.59-3.93.44-8.09 2.8-11.3 1.07-1.46 2.4-2.7 3.71-3.96.96-.91 1.92-1.84 2.78-2.85 2.29-2.7 4.43-8.01 4.39-12.25"/><path d="m245.949 200.101c.55-4.09 3.33-6.55 6.16-8.91 2.21-1.83 4.45-3.61 5.71-6.03 2.83-5.47.75-12.96-4.5-16.19"/><path d="m229.032 358.721c-2.88 2.24-7.28 2.27-10.18.07"/><path d="m228.681 354.801c-.55.64-1.16 1.33-1.98 1.5-.83.17-1.86-.51-1.67-1.33"/><path d="m218.691 359.171c-1.59-.49-3.12-1.37-4.08-2.73s-1.25-3.26-.44-4.72c.74-1.31 2.21-2.1 2.92-3.43.63-1.19.53-2.63.42-3.98"/><path d="m216.49 348.559c-1.13-1.08-2.66-1.76-4.22-1.87"/><path d="m245.608 173.35c-3.77-3.15-5.72-8.88-4.88-13.83.16-.97.43-1.91.81-2.79.53-1.24 1.25-2.45 2.32-3.28.64-.5 1.37-.84 2.13-1.14.57-.22 1.15-.42 1.71-.63 2.03-.77 3.94-1.84 5.66-3.15 5.88-4.46 9.7-11.71 9.67-19.12.94 5.23 2.29 10.39 1.09 15.56-1.19 5.17-5.68 10.02-10.48 12.28-.41.19-1.22.5-2.18.95-2.1.97-4.87 2.6-5.41 5.12"/><path d="m178.34 97.9001c1.1 7.9899 2.94 17.1199 9.99 21.0399 1.99 1.11 4.24 1.67 6.3 2.62.38.17.76.36 1.12.56 1.7.96 3.11 2.29 4.23 3.85 2.23 3.06 3.33 7.02 3.22 10.84 0 .17-.01.35-.03.52-.28 5.58-2.74 10.86-5.8 15.54-.11-2.34-.23-4.68-.35-7.02-1.93 2.69-4.55 4.89-7.53 6.35.91-2.25 1.81-4.49 2.72-6.74-2.32 2.74-5.58 4.65-9.1 5.33 5.47-5.07 11.38-11.1 11.2-18.57-.02-.81-.13-1.66-.57-2.35-.57-.92-1.61-1.4-2.63-1.81-.1-.03-.2-.07-.3-.11-4.82-1.89-9.75-4.24-12.82-8.41-2.93-3.98-3.94-9.33-7.64-12.6-1.75-1.55-3.88-2.44-6.15-3.06-1.55-.43-3.16-.73-4.75-1.02-.56-.1-1.12-.21-1.67-.31-2.45-.47-4.94-1.13-7.28-2.06-3.4-1.3299-6.5-3.2599-8.77-6.0999-.27-.34-.52-.68-.76-1.03-1.55-2.27-2.51-4.82-3.24-7.49-.5-1.85-.89-3.76-1.28-5.68-.62-3.07-1.25-6.16-2.36-9.04l4.23 5.55c-.28-2.52-.57-5.04-.85-7.56 1.35 1.5 2.49 3.18 3.38 4.99-.11-2.1-.21-4.2-.31-6.3 2.75 3.29 3.71 7.6 4.58 11.87.17.85.35 1.7.53 2.54.56 2.63 1.37 5.36 2.67 7.72 1.18 2.16 2.77 4 4.95 5.15 2.05 1.08 4.48 1.6 6.95 2.09 1.5.3 3.01.59 4.43.99 1.06.28 2.07.63 3.01 1.09"/><path d="m164.51 91.5508s-.06.01-.09.02c-2.21.32-4.03 2.42-4.01 4.67"/><path d="m159.392 103.211c-1.51 6.5-.19 13.89 2.73 20.46.98 2.2 2.14 4.31 3.43 6.27-.33-1.72.34-4.44 0-6.16 1.29 1.85 2.95 5.43 4.87 6.62-.27-.79-.55-1.92-.83-3.11-.04-.18-.08-.36-.13-.55-.34-1.5-.69-3.04-1.04-4.03 1.6 1.43 3.54 2.47 5.6 3.01-2.27-2.55-4.55-5.12-6.31-8.05-1.75-2.93-3.98-7.99-3.68-13.19"/><path d="m164.801 97.6591c.13-.97.6-1.89 1.3-2.57.22-.22.55-.43.84-.29.19.1.28.33.34.54.27.93.52 2.98.38 3.94"/><path d="m164.412 91.5196c-2.98-1.01-5.48-3.25-6.94-6.03-.69-1.3-1.14-2.73-1.31-4.2-.07-.62-.09-1.28.19-1.84.39-.8 1.3-1.22 2.17-1.39s1.78-.14 2.65-.34c.85-.2 1.64-.62 2.5-.8.85-.19 1.86-.1 2.44.56.74.85.63 2.41 1.68 2.81.48.18.99.02 1.5-.13.22-.05.43-.11.65-.13 1.01-.1 1.99.54 2.54 1.4.55.85.74 1.88.85 2.89.29 2.56.11 5.18-.51 7.68"/><path d="m164.211 80.6697c-1.33-.06-2.43-1.43-2.21-2.74"/><path d="m170.239 84.0002c-.48.58-1.36.79-2.05.49-.7-.3-1.15-1.08-1.05-1.83"/><path d="m165.08 86.2704c-1.63.69-3.52-.2-4.82-1.4-1.63-1.51-2.75-3.54-3.17-5.72"/><path d="m177.969 103.659c-.18-.52-.43-1.01-.75-1.46-.05.13-.1.25-.13.38-.03.1-.06.2-.08.3-.13.54-.17 1.1-.1 1.66.05.46.16.92.35 1.35.12-1.1.06-2.22-.17-3.31-.01-.08-.03-.15-.05-.23 0 .18-.02.35-.03.53-.04.55-.07 1.11-.1 1.66-.01.1-.01.2-.02.3"/><path d="m177.969 103.66c.07.68.19 1.35.38 2-.02-.68-.14-1.36-.38-2z"/><path d="m178.198 102.45c.15-.02.01-.3-.14-.23-.14.06-.16.25-.16.4.01.35.03.7.07 1.04"/><path d="m174.509 97.8209c-.08-.52-.28-1.02-.59-1.44-.3.99-.46 2.02-.48 3.04-.13-.92-.25-1.85-.38-2.77-.23 1.09-.35 2.2-.36 3.31"/><path d="m174.509 97.8203c-.13.61-.19 1.24-.2 1.86.24-.59.3-1.24.2-1.86z"/><path d="m174.832 96.6094c-.13.39-.24.8-.32 1.21"/><path d="m172.42 106.48c-.14-.68-.34-1.34-.58-1.99-.26.97-.36 1.98-.31 2.98-.22-.96-.44-1.92-.66-2.89-.1.77 0 1.57.29 2.29"/><path d="m172.42 106.48c-.1.82 0 1.66.32 2.42-.04-.81-.14-1.62-.32-2.42z"/><path d="m173.642 108.14c-.09-.99-.42-1.95-.93-2.81-.15.37-.24.76-.29 1.15"/><path d="m173.641 108.141c.01.35.02.71.03 1.06.02-.35.01-.71-.03-1.06z"/><path d="m173.602 106.619c.01.51.03 1.01.04 1.52"/><path d="m180.641 113.19c.49.96 1.13 1.84 1.87 2.62-.14-1.11-.71-2.15-1.55-2.88"/><path d="m180.639 113.191c-.23-.91-.57-1.8-1.01-2.63.22.91.56 1.8 1.01 2.63z"/><path d="m180.379 115.809s0 .02.02.02c.17.25.37.47.59.69.04-1.12-.08-2.24-.35-3.33"/><path d="m180.379 115.809c-.32-1.64-.82-3.25-1.5-4.78-.08 1.7.46 3.43 1.5 4.78z"/><path d="m179.84 112.779c.19 1.01.37 2.03.56 3.05.02.14.05.27.07.41-.03-.14-.05-.29-.09-.43"/><path d="m187.008 120.609c.93 1.03 1.97 1.96 3.1 2.76-.43-.54-.89-1.06-1.38-1.53-.3-.29-.6-.57-.92-.83-.13-.11-.26-.22-.4-.32-.29-.23-.6-.45-.92-.66.19.19.39.37.59.54.04.04.08.08.12.11.49.42 1 .8 1.53 1.16.71.46 1.45.86 2.22 1.2-.49-.5-1.02-.95-1.61-1.34-.6-.41-1.25-.75-1.93-1.01l-.33-.12s-.1-.03-.15-.05c.09.05.18.11.27.16.2.12.4.23.61.33.5.26 1.01.49 1.53.69.75.29 1.52.52 2.31.69-.64-.69-1.39-1.27-2.22-1.71 1.07.36 2.11.81 3.1 1.35"/><path d="m197.561 129.09c-.21-.87-.52-1.72-.91-2.52-.26.81-.3 1.68-.13 2.52.06.33.16.66.3.97"/><path d="m197.558 129.09c-.04.95.08 1.9.35 2.81-.01-.94-.13-1.89-.35-2.81z"/><path d="m198.869 129.27c-.24-.74-.59-1.46-1.03-2.1-.16.63-.26 1.27-.28 1.92"/><path d="m198.871 129.27c0 .8.12 1.6.36 2.37.01-.8-.12-1.6-.36-2.37z"/><path d="m199.741 128.12c-.15-.37-.33-.74-.52-1.09 0-.01 0-.03-.02-.04-.01.03-.02.07-.02.1-.21.71-.31 1.44-.31 2.18"/><path d="m199.741 128.131c-.21 1.49.12 3.06.93 4.34-.03-1.49-.35-2.97-.93-4.34z"/><path d="m199.738 128.129v-.01"/><path d="m199.808 127.66c-.03.15-.06.3-.07.46"/><path d="m190.809 128.85c-.72 2.2-2.11 4.06-3.64 5.82-.9 1.04-1.86 2.05-2.76 3.08-2.42 2.77-4.64 6.21-4.16 9.86"/><path d="m178.342 97.8991c.68-.2 1.34-.47 1.99-.8 4.04-2.04 7.36-6.29 8.66-10.51 1.26-4.09 1.08-8.51-.06-12.65-.23-.82-.49-1.63-.79-2.43-1.02-2.73-2.47-7.37-4.72-9.22.7 2.54 1.19 6.14 1.46 8.76-1.3-2.5-3.07-5.76-5.18-7.63.81 1.99 1.42 5.05 1.83 7.15-1.27-2.26-3.16-5.17-5.41-6.45 1.94 3.12 3.48 7.6 4.61 11.66.37 1.35.7 2.65.98 3.84.73 3.14 1.09 6.58-.34 9.47s-5.23 4.78-8.02 3.17"/><path d="m130.461 34.2506-8.69 21.28-20.4-3.1 2.68-6.04 5.44-12.25z"/><path d="m101.371 52.4297 6.41 13.14 18.64 4.07-4.65-14.11"/><path d="m130.462 34.25 3.22 12.28 2.31 8.81-9.57 14.3"/><path d="m37.7383 301.881.03.03c3.68 3.93 6.63 5.78 10.42 7.88 3.81 2.12 9.03.55 13.06-.37 3.49-.79 7.08.92 10.06 3.68 2.98 2.77 5.45 6.52 7.88 10.23-1.89-2.76-10.6-4.46-21.05.76-4.07 2.03-10.45 2.69-14.34.59-2.11-1.15-3.84-1.87-5.78-3.52"/><path d="m34.8906 293.46c.1-1.38.2-3.77.3-4.97.02-.25.04-.45.06-.58"/><path d="m31.9688 410.88v-108.58c.09-1.77.16-2.43.44-3.04.17-.37.41-.72.79-1.29.37-.56.83-1.07 1.11-1.68.29-.6.4-1.26.5-1.92.02-.12.04-.31.05-.54.01-.06.02-.12.02-.18"/><path d="m37.77 402.93v-101.05c.3-1.79.33-4.07-.37-5.75-.33-.81-.27-1.06-.7-1.82-.1-.18-.21-.42-.31-.71-.16-.42-.31-.94-.45-1.48-.35-1.34-.62-2.85-.69-3.62"/><path d="m39.17 281.55c-1.34 2.01-2.82 3.79-3.9 5.96-.74-2-2.58-3.97-3.52-5.89.07-.14.15-.29.23-.43 1.23-2.18 3.11-4.62 3.79-6.94 1.04 2.45 2.46 4.7 3.5 7.15-.03.05-.07.1-.1.15z"/><path d="m33.4883 281.49c1.82-.14 3.66-.16 5.48-.07"/><path d="m36.3908 293.599c-.39 0-.76.03-1.09.07.19-.52.4-1.04.64-1.55.85-1.9 2.01-3.67 3.63-4.95 1.03-.81 3.97-1.53 6.94-1.91 2.96-.39 5.96-.43 7.15.11-2.72.99-6.59 5.56-10.21 7.43-1.71.89-4.81.71-7.06.8z"/><path d="m34.8584 293.83c-.72-1.1-2.25-1.23-3.52-1.56-4.03-1.05-8.06-3.65-8.34-7.8-.16-2.42.05-7.56-.35-9.95 1.76 2.54 5.19 6.55 6.25 9.45.54 1.48 1.01 3.05 2.06 4.23.8.9 1.88 1.5 2.79 2.3.81.72 1.2 1.86 1.14 2.96 0 .06 0 .13-.01.19 0 .06 0 .12-.02.18z"/><path d="m37.75 332.23.02.02c7.73 8 18.68 14.93 30.35 13.59 3.63-.42 7.22-1.47 10.86-1.18.73.06 1.43.17 2.12.32 6.65 1.46 11.51 7.09 15.54 12.26-3.55-2.83-9.05-2.66-13.51-1.18-4.46 1.47-8.38 4.03-12.78 5.65-.26.09-.52.18-.78.26-10.19 3.41-23.5 1.31-31.42-5.33"/><path d="m89.9805 84.0808s5.81-1.65 10.5195-4.31c.61-.35 1.24-.72 1.89-1.09 3.49-2.04 7.6-4.28 13.2-4.04 5.25.22 7.76 3.25 14.32 4.88 1.6.39 3.45.7 5.64.86"/><path d="m145.719 79.5695c8.09-.92 12.19-8.73 19.77-8.06 3.34.29 6.93 3.75 10.96 4.53 1.16.23 2.35.23 3.58-.12"/><path d="m31.3419 292.27c-4.23 2.97-8.23 7.3-9.92 12.18 4.53-.63 7.59-2.02 10.8-5.28"/><path d="m21.2617 126.9 5.89 24.3 14.92-19.11-5.65 23.58 21.74-10.75-15.33 18.8 24.25-.26-21.96 10.29 21.96 10.29-24.25-.26 15.31 18.8-21.73-10.76 5.64 23.59-14.91-19.12-5.88 23.83"/><path d="m88.9311 110.779-30.39 4.19c-.32-7.95-1.46-17.4295-2.55-26.8095-.5-4.38-.99-8.73-1.38-12.9-.17-1.73-.31-3.4401-.43-5.0901-.14-1.8-.24-3.5499-.31-5.2299"/><path d="m134.139 198.23-5.24-29.31-5.56-31.13-1.2-6.73-4.72-26.39-4.38 24.57-.73 4.11-6.34 35.62-1.56 8.75-5.1004 28.62"/><path d="m121.93 168.329c.67-.63 1.25-1.14 1.62-1.39-.59.53-1.13.99-1.62 1.39z"/><path d="m121.93 168.33-.02.02"/><path d="m116.129 173.82c.16-.01.31-.01.47-.01 3.71-.14 7.34-1.15 10.08-2.84.81-.5 1.58-1.24 1.45-1.91-.03-.15-.1-.29-.22-.43-2.9 1.76-6.53 3.3-10.32 3.96.73-.67 2.75-2.76 4.32-4.24"/><path d="m115.449 173.82h.04"/><path d="m115.5 173.82h.63"/><path d="m116.542 175.53c-.15-.27-.3-.53-.46-.79 0-.01-.01-.02-.02-.03 0-.03-.03-.06-.05-.09l.07.07s.01 0 .02.02c.14.15.28.29.43.43 2.38 2.41 5.19 4.64 8.33 6.63-1.78-2.76-4.69-5.19-8.34-6.95-.05-.03-.11-.05-.16-.08.05.02.1.04.16.05 2.99 1.02 6.75.96 9.67-.16-3.14-.51-6.37-.78-9.6-.81h-.46"/><path d="m116.539 175.529c.09 2.36.84 4.71 2.2 6.88.24-2.36-.9-4.66-2.2-6.88z"/><path d="m121.911 168.351c-7.88 6.46-4.06-1.87-3.27-4.21-1.73 2.25-3.32 6.44-2.56 9.04-.95-2.43-1.92-4.06-4.34-8.11.71 2.93 1.07 5.76 2.68 8.46.04.07.07.13.12.19.07.13.15.25.23.37.06.09.13.19.19.28-.09-.08-.18-.17-.28-.25-.13-.12-.26-.25-.4-.37-.14-.13-.28-.25-.43-.38-1.99-1.76-4.22-3.45-7.22-4.28 1.69 1.87 4.25 3.38 7.22 4.28.19.06.38.11.57.16.19.06.37.1.56.15-.15.01-.29.03-.44.04-.09.01-.17.02-.26.03-1.87.18-3.75.41-5.46.95-1.92.61-3.62 1.68-4.11 3.07 3.32-1.22 6.65-2.43 9.97-3.65l.09-.03.72-.27h.01c.45-.16.89-.33 1.34-.49-.07.16-.15.32-.24.48h-.01c-.15.3-.32.59-.51.88 0 0-.01 0-.02.02-2.55 3.9-7.61 7.24-7.74 11.49 2.66-3.8 5.25-7.62 7.76-11.46.01-.01.02-.02.02-.03.16-.23.31-.47.46-.7-.02.26-.04.52-.04.78v.03c0 .11 0 .21.01.32-.01.13 0 .26 0 .39"/><path d="m105.619 208.71c-.22-.07.02.32.25.28 1.23-.2 2.48-.41 3.6-.95s2.12-1.47 2.45-2.67c-1.47.47-2.93.94-4.4 1.42-.45.14-.92.3-1.35.51-.19.08-.38.18-.55.28-.06.04-.12.08-.18.11-.35.25-.65.55-.87.93.56-.4 1.1-.84 1.6-1.32 1.64-1.54 2.96-3.42 3.85-5.49-1.69 1.74-3.17 3.69-4.4 5.77-.07.11-.13.21-.19.32.01-.07.01-.14.01-.21.23-2.76-.13-5.58-1.05-8.2-.61 2.66-.1 5.44.41 8.12-.7-2.97-1.92-5.81-3.59-8.35-.24 2.81 1.29 5.43 2.78 7.84-1.26-1.08-2.51-2.15-3.77-3.22.11 1.74 1.23 3.37 2.81 4.1"/><path d="m121.398 143.711c0 .36.02.72.04 1.08.15 2.53.73 5.02 1.72 7.34-.02-.24-.04-.48-.04-.71-.06-2.26.59-4.38.36-6.67.48 3.16.12 6.07 1.05 9.12"/><path d="m121.532 153.109s.07.02.11.04c.08.02.17.05.25.08.13.04.25.09.38.13.05.02.1.03.15.05-.03-.03-.07-.05-.1-.09-.19-.15-.39-.31-.58-.47-.19-.15-.37-.31-.56-.47-.02-.01-.04-.03-.06-.04-.22-.18-.43-.36-.65-.54-1.39-1.14-2.77-2.29-4.16-3.44-.27-.22-.49-.73-.15-.83 1.65 1.21 3.15 2.62 4.47 4.19.16.2.33.41.49.62.1.12.2.25.3.38-.09-.11-.17-.23-.24-.34-.18-.22-.33-.45-.48-.69-1.27-1.99-2.04-4.31-2.18-6.67.97 2.11 1.93 4.22 2.91 6.33.08.18.17.36.25.54-.01-.22-.02-.43-.02-.65-.08-2.15-.15-4.3-.22-6.45"/><path d="m121.522 153.109-2.61-.45c-1.63-.27-3.26-.55-4.9-.83 1.79-.19 3.56.11 5.31.6.74.2 1.47.43 2.2.68z"/><path d="m121.52 153.109h.01"/><path d="m120.978 154.481c.11-.17.21-.34.29-.51.1-.2.19-.4.28-.61l.09-.21v-.02c.04-.09.07-.19.1-.28.17-.56.21-1.12-.04-1.63-.01.01-.03.01-.04.02-.08.03-.16.07-.23.11-.25.1-.49.22-.73.34-.03 0-.05.02-.07.03-.06.03-.11.06-.16.08-.39.2-.77.4-1.15.63-.14.07-.28.15-.41.23-1.56.93-3.01 2.02-4.33 3.26 2.33-.85 4.65-1.71 6.97-2.56.11-.04.23-.08.34-.13.04-.01.08-.03.12-.04-.12-.02-.25-.04-.37-.06-.04-.01-.07-.01-.11-.02"/><path d="m120.978 154.48c-1.86 1.61-3.77 3.36-4.58 5.38.94-1.9 3.39-3.53 4.58-5.38z"/><path d="m122.96 152.75c-.21.19-.42.38-.64.57-.02.02-.03.03-.05.04-.42.37-.85.74-1.29 1.12"/><path d="m123.199 151.83c.03.09.05.17.08.26.02.09.05.19.08.28.02.06.04.13.07.19.8 2.36 2.63 5.12 3.6 7.11-.56-2.37-2.77-5.61-3.57-7.9-.07.1-.13.21-.18.32-.01.01-.02.02-.02.03-.11.19-.21.4-.29.62-.85 2.1-.98 5.08-1.34 7.12 1.14-1.77 1.33-4.9 1.77-7.11.01-.07.02-.13.04-.19.01-.11.04-.21.06-.31-.04.04-.08.08-.13.12-.01.01-.02.03-.04.04-.11.11-.23.22-.35.33"/><path d="m123.102 151.34s.01.05.02.08"/><path d="m123.121 151.42c0 .11.04.23.06.34h.01s.01.05.01.07"/><path d="m123.449 153.07c-.02-.11-.04-.21-.06-.32-.03-.11-.05-.22-.07-.34-.03-.09-.05-.19-.06-.29-.03-.09-.05-.19-.06-.29"/><path d="m120.02 194.79c.03.09.05.17.07.26.01.02.02.05.01.07.03.06.04.13.05.19.02.05.03.1.04.15-.03-.04-.06-.07-.08-.11-.03-.03-.05-.05-.07-.08 0-.02-.02-.03-.03-.05-.03-.03-.05-.06-.07-.09-1.53-1.97-3.12-3.95-5.23-5.29.87 1.08 3.59 3.29 2.98 4.51-.1.2-.28.36-.57.5-1 .46-3.01-.48-4.89-1.31"/><path d="m120.019 194.789c-.15-2.56-.96-5.08-2.32-7.26.95 2.37 1.73 4.79 2.32 7.26z"/><path d="m120.83 194.26c-.07.17-.14.34-.2.51-.02.04-.04.08-.06.13-.05.15-.11.31-.16.47-.06.15-.12.31-.17.47-.07.19-.14.39-.2.58.01-.15.01-.29.01-.44 0-.12 0-.25 0-.38 0-.06 0-.13 0-.19 0-.05 0-.09-.01-.14.01-.03.01-.05 0-.08.01-.04.01-.07 0-.11 0-.1 0-.19-.02-.29"/><path d="m120.828 194.26c2.27-2.69 4.31-5.6 4.9-9.02-2 2.79-3.65 5.83-4.9 9.02z"/><path d="m124.771 198.911-2.76-1.5c-.17-.09-.34-.19-.51-.28-.21-.11-.41-.22-.62-.34l-.06-.03c.11-.02.22-.03.33-.05.05-.01.1-.01.15-.02l.39-.06c.06-.01.13-.02.19-.03 2.37-.34 4.73-.69 7.1-1.04.62-.09 1.36-.28 1.55-.88-2.95.4-5.87 1.01-8.73 1.84-.05.01-.09.02-.14.04-.12.03-.25.07-.37.11-.05.01-.09.02-.14.04-.09.02-.18.05-.27.08l-.09.03c-.18.05-.35.1-.53.16.18-.08.35-.16.53-.24.15-.07.29-.13.44-.21.12-.05.24-.1.36-.16.01-.01.02-.01.03-.02 2.98-1.42 5.83-3.15 8.48-5.14-3.41.9-6.69 2.3-9.69 4.16-.12.07-.24.15-.36.23-.22.14-.44.28-.65.42-.07.05-.14.09-.21.14.27-.31.55-.62.82-.94l.03-.03s.04-.04.06-.07c.04-.05.08-.09.13-.14l.6-.72"/><path d="m124.852 198.961c1.13.75 2.31 1.4 3.55 1.94-1.18-.65-2.37-1.29-3.55-1.94z"/><path d="m124.85 198.96s-.06-.03-.08-.05"/><path d="m112.23 193.539c1.8.31 3.72.41 5.46.81.61.14 1.2.31 1.75.55-2.51.71-5.02 1.43-7.53 2.15 2.77-.03 5.54-.69 8.03-1.92.03-.02.07-.03.1-.05.02-.01.03-.02.05-.03.05-.02.09-.04.14-.07.14-.07.27-.14.4-.21.07-.04.13-.07.2-.11-.09.08-.17.16-.26.24-.14.14-.28.27-.42.41-.01.01-.03.02-.04.04-.02 0-.04.03-.06.06-.22.2-.43.4-.65.61-1.67 1.59-3.34 3.19-5.01 4.78 1.78-1.73 3.67-3.34 5.66-4.82.06-.05.12-.09.19-.14.05-.04.11-.08.16-.12-.61 3.32-1.13 6.66-1.57 10.01 1.11-2.85 1.77-5.87 1.96-8.91v-.08c.02-.36.03-.71.04-1.06.13.28.26.57.4.85.01.05.04.1.06.14 0 .01 0 .02.01.02.06.15.13.3.2.44.99 2.15 1.98 4.28 2.98 6.42-.83-2.05-1.65-4.09-2.47-6.14-.11-.26-.21-.52-.32-.78-.01-.02-.02-.05-.03-.07-.02-.06-.05-.13-.07-.19-.01-.02-.02-.05-.03-.07.02.02.04.04.06.05.06.06.12.12.18.17.02.03.05.06.08.08.9.85 1.87 1.62 2.89 2.31"/><path d="m108.941 192.479c.98.54 2.11.85 3.29 1.06-1.28-.57-2.5-1.08-3.29-1.06z"/><path d="m117.421 132.939c-.12.1-.25.19-.37.29-.11.08-.22.17-.33.25.18-.04.37-.02.57.03.07.02.15.04.22.07.2.07.4.18.6.32.54.35 1.1.89 1.68 1.45 1.01.98 2.08 2.06 3.14 2.51-.38-.53-1.97-1.79-3.14-2.51-.44-.28-.83-.48-1.06-.53-.21-.05-.42-.11-.63-.19-.18-.06-.36-.13-.52-.23-.16-.08-.32-.18-.45-.3-.2-.17-.35-.37-.44-.61-.02-.04-.04-.08-.05-.12"/><path d="m117.441 132.919c1.09-1.11 2.24-2.18 3.65-2.81-1.21.94-2.43 1.88-3.65 2.81z"/><path d="m117.432 132.93-.01.01"/><path d="m116.609 133.371c.64-2.34 1.66-4.55 3-6.56-.86 2.14-1.71 4.28-2.56 6.42-.02.06-.05.11-.07.17.15-.15.3-.3.44-.46"/><path d="m115.27 132.61c-.4-1.07-.69-2.18-.87-3.3-.07-.46-.04-1.07.4-1.22.41 1.48.81 2.97 1.22 4.45.03.12.07.24.1.36.02-.17.03-.34.05-.51.24-2.77.5-5.54.75-8.31-.26 3.09-.36 6.18-.31 9.28"/><path d="m113.262 129.77c.44 1.02.99 1.99 1.64 2.89.05.07.1.13.16.2.04.06.09.13.14.19.16.21.33.42.5.62-.1-.23-.2-.47-.29-.71-.05-.11-.1-.22-.14-.34"/><path d="m113.012 129.16s.02.05.03.08"/><path d="m113.039 129.24c.07.18.14.35.22.53"/><path d="m115.302 132.57s-.02.02-.03.03c-.1.07-.24.09-.37.06-.05-.01-.1-.03-.14-.05-.21-.12-.34-.34-.45-.55-.38-.75-.74-1.51-1.05-2.29"/><path d="m114.609 133.171c.15-.06.3-.15.45-.31.07-.06.14-.14.21-.24 0 0 .03-.03.03-.05.03-.02.06-.06.08-.1"/><path d="m114.578 133.17c-.28.02-.58.03-.93.05-.34.03-.72.07-1.16.16.48-.15.85-.16 1.16-.16.37.02.65.06.93-.05z"/><path d="m114.578 133.17s.02.01.03 0"/><path d="m117.439 132.899v.02h-.01c-.04.2-.09.4-.14.59-.05.2-.1.4-.16.59-.54 2.14-1.22 4.26-2.59 5.96 1.01-2.6 1.67-5.34 1.96-8.11-.11.17-.23.32-.33.44-.05.06-.1.11-.15.15-.2.2-.4.34-.61.42-.07.04-.14.07-.21.09-.18.06-.38.09-.59.12"/><path d="m121.62 131.15c-1.05.5-2.37 2.13-3.53 2.07.01.23.02.45.02.68s-.01.48-.01.73c-.05 1.65-.33 3.3-.83 4.89.3-1.69.4-3.41.31-5.12-.02-.27-.04-.55-.07-.82-.02-.22-.04-.44-.07-.66"/><path d="m117.729 111.75c.47 2.26.65 4.58.52 6.88-.49-2.7-.68-5.46-.56-8.2-.62 2.44-.99 4.94-1.11 7.45.04-2.27.18-4.54.43-6.8-.4 2.22-.85 4.42-1.37 6.61-.02-.63.11-1.26.39-1.83"/><path d="m164.921 102.92c-.45-.57-.97-1.08-1.54-1.51-.03.67.3 1.34.84 1.73"/><path d="m164.93 102.949c.16.3.36.58.59.83-.17-.29-.36-.57-.59-.83z"/><path d="m164.932 102.95s0-.02-.01-.03"/><path d="m165.15 101.94c.68.75 1.48 2.18 2.08 2.99-.88-.98-1.92-2.61-2.8-3.58.06.55.22 1.08.49 1.57"/><path d="m168.648 99.8594c.06.2796.13.4896.24.5696"/><path d="m168.638 99.8099c-.05-.71-.07-1.63-.24-1.89.1.28.12 1.24.24 1.89z"/><path d="m168.641 99.8105s.01.04.01.05"/><path d="m168.158 99.8591c.06.1699.12.3399.21.4999.11.21.24.41.4.59.05.06.1.12.15.17-.04-.07-.09-.14-.13-.2-.13-.2-.27-.38-.42-.56-.22-.27-.47-.5099-.73-.7399.01.18.03.35.07.5199.05.19.11.37.2.54.13.25.3.49.51.69-.05-.16-.12-.32-.19-.48-.14-.27-.31-.52-.52-.75-.13-.1699-.3-.3299-.47-.4699.13.3899.36.7399.67 1.0099.1.08.21.15.32.21.04.03.07.05.11.07.14.07.34.12.43-.01.01 0 .01-.02.02-.03.05-.09.02-.22-.03-.33-.06-.13-.09-.4-.11-.7299"/><path d="m156.78 97.5896c-.41-.19-.84-.35-1.28-.49.43 1.12 1.45 1.98 2.63 2.21.01-.22-.09-.45-.25-.61"/><path d="m156.781 97.5898c.67.53 1.42.97 2.21 1.29-.68-.52-1.42-.95-2.21-1.29z"/><path d="m156.859 97.7802c.49.33.98.65 1.47.98.35.23.75.47 1.15.35-.75-1.32-2.05-2.31-3.51-2.7-.14.26.09.56.3.75.16.15.33.2899.51.4299"/><path d="m149.28 97.5997c-.4-.27-.83-.5-1.28-.67.13 1.1 1.09 1.88 1.98 2.53"/><path d="m149.281 97.5996c.06.19.16.37.26.53.53.83 1.22 1.54 2.03 2.0904-.51-1.0604-1.31-1.9704-2.29-2.6204z"/><path d="m150.18 97.6194c.6 1.16 1.53 2.15 2.65 2.8196-.75-1.5396-2.01-2.8196-3.54-3.5796-.11.23-.09.49 0 .74"/><path d="m145.899 88.9701c-.11-.14-.23-.27-.36-.39.16.86.54 1.69 1.08 2.39.06.1.13.19.22.28.1.13.22.25.34.36.09.1.18.18.28.26"/><path d="m146.388 88.8293c-.01.28-.01.55.01.83.01.18.03.35.06.53.03.26.09.52.16.78.12.48.29.94.52 1.38l.03.06s-.01-.04-.02-.06c-.08-.37-.19-.74-.31-1.1-.11-.36-.24-.71-.38-1.06-.15-.37-.31-.73-.49-1.09-.02-.04-.04-.08-.07-.12.01-.01 0-.01 0-.01-.22-.42-.53-.85-1-.94.17 1.34.67 2.63 1.43 3.74.19.29.48.59.81.58h.01s.09 0 .13-.02c-.02-.24-.05-.48-.1-.72-.14-.69-.4-1.35-.78-1.95-.15-.24-.31-.47-.5-.68"/><path d="m139.701 86.9806c-.19-1.15-.52-2.27-.98-3.34-.31 1.38-.27 2.83.13 4.18"/><path d="m139.699 86.9805c.02.62.09 1.26.19 1.88-.02-.63-.08-1.26-.19-1.88z"/><path d="m140.541 85.4504c-.08 1.17.08 2.36.46 3.47.1-1.52-.08-3.07-.52-4.53-.04-.16-.13-.35-.29-.36-.21-.02-.32.24-.35.45-.13.83-.17 1.66-.14 2.5"/></g></svg>