<svg width="91" height="194" viewBox="0 0 91 194" fill="none" xmlns="http://www.w3.org/2000/svg">
<g clip-path="url(#clip0_4068_12514)">
<mask id="mask0_4068_12514" style="mask-type:alpha" maskUnits="userSpaceOnUse" x="0" y="0" width="91" height="194">
<path d="M0 0H91V194H0V0Z" fill="#D9D9D9"/>
</mask>
<g mask="url(#mask0_4068_12514)">
<path d="M44.2998 83.0016L27.4998 98.3016L27.2998 52.6016C27.7998 52.0016 28.4998 51.3016 29.3998 50.5016C30.2998 49.6016 31.5998 48.4016 33.3998 46.8016L43.8998 37.2016L44.2998 83.0016ZM25.8998 29.5016C28.1998 27.3016 30.6998 25.1016 33.3998 22.8016C36.0998 20.6016 38.4998 18.5016 40.5998 16.6016C44.0998 17.7016 47.6998 18.8016 51.5998 20.0016C55.4998 21.1016 59.1998 22.2016 62.7998 23.1016C66.3998 24.0016 69.6998 24.7016 72.7998 25.2016C75.8998 25.7016 78.2998 26.0016 80.0998 26.0016C82.3998 26.0016 84.4998 25.6016 86.1998 24.7016C87.9998 23.8016 90.0998 22.3016 92.3998 20.1016C88.4998 24.1016 85.0998 27.3016 82.0998 29.8016C79.1998 32.2016 76.5998 34.2016 74.2998 35.7016C71.9998 37.1016 69.9998 38.0016 68.0998 38.6016C66.1998 39.2016 64.3998 39.4016 62.4998 39.4016C60.5998 39.4016 58.1998 39.2016 55.4998 38.7016C52.7998 38.2016 49.7998 37.5016 46.4998 36.6016C43.2998 35.7016 39.9998 34.7016 36.3998 33.5016C32.7998 32.3016 29.2998 31.0016 25.8998 29.5016V29.5016ZM86.5998 83.2016C85.6998 87.4016 84.0998 91.7016 81.7998 96.3016C79.4998 100.902 76.4998 105.102 72.6998 108.902C68.9998 112.702 64.6998 115.902 59.6998 118.302C54.7998 120.802 49.1998 122.102 43.0998 122.102C36.0998 122.102 29.9998 121.002 24.6998 118.802C19.4998 116.602 15.0998 113.702 11.4998 110.002C7.9998 106.302 5.2998 102.002 3.3998 97.1016C1.6998 92.2016 0.799805 87.0016 0.799805 81.5016C0.799805 76.7016 1.1998 72.4016 1.8998 68.5016C2.5998 64.6016 3.8998 60.8016 5.6998 57.0016C7.4998 53.2016 9.8998 49.2016 12.9998 45.1016C16.0998 40.9016 19.9998 36.2016 24.7998 30.8016C22.2998 34.0016 20.3998 37.2016 19.0998 40.3016C17.7998 43.3016 16.8998 46.3016 16.3998 49.2016C15.8998 52.1016 15.5998 55.0016 15.4998 57.7016V65.7016C15.4998 79.6016 18.8998 90.1016 25.7998 97.1016C32.5998 104.002 42.5998 107.502 55.7998 107.502C60.0998 107.502 63.9998 106.902 67.4998 105.602C70.9998 104.302 73.9998 102.602 76.5998 100.402C79.1998 98.2016 81.2998 95.6016 82.9998 92.7016C84.4998 89.8016 85.7998 86.6016 86.5998 83.2016V83.2016ZM58.7998 59.0016C61.6998 60.3016 64.1998 61.3016 66.3998 62.1016C68.5998 62.8016 70.4998 63.4016 72.1998 63.8016C73.8998 64.2016 75.3998 64.5016 76.5998 64.6016C77.8998 64.7016 78.9998 64.8016 79.9998 64.8016C81.0998 64.8016 82.2998 64.4016 83.3998 63.7016C84.4998 63.0016 86.0998 61.6016 88.1998 59.6016C84.4998 63.3016 81.3998 66.4016 78.7998 68.8016C76.1998 71.2016 73.9998 73.1016 72.0998 74.6016C70.1998 76.0016 68.5998 77.0016 67.2998 77.6016C65.9998 78.1016 64.6998 78.4016 63.5998 78.4016C62.3998 78.4016 61.0998 78.3016 59.7998 78.2016C58.4998 78.0016 57.0998 77.7016 55.5998 77.3016C54.0998 76.8016 52.4998 76.2016 50.6998 75.5016C48.8998 74.8016 46.8998 73.8016 44.5998 72.7016C46.8998 70.4016 49.2998 68.1016 51.6998 65.8016C54.0998 63.3016 56.3998 61.1016 58.7998 59.0016Z" fill="white"/>
</g>
</g>
<defs>
<clipPath id="clip0_4068_12514">
<rect width="91" height="194" fill="white"/>
</clipPath>
</defs>
</svg>
