<svg width="94" height="194" viewBox="0 0 94 194" fill="none" xmlns="http://www.w3.org/2000/svg">
<g clip-path="url(#clip0_4068_12264)">
<mask id="mask0_4068_12264" style="mask-type:alpha" maskUnits="userSpaceOnUse" x="0" y="0" width="94" height="194">
<path d="M0 0H94V194H0V0Z" fill="#D9D9D9"/>
</mask>
<g mask="url(#mask0_4068_12264)">
<path d="M29.0004 121.099C31.6004 120.299 33.6004 119.399 35.2004 118.299C36.9004 117.199 38.2004 115.899 39.0004 114.399C40.0004 112.799 40.6004 110.899 40.9004 108.799C41.3004 106.599 41.5004 103.999 41.5004 100.899V76.2992L26.6004 49.1992C23.2004 42.9992 20.2004 37.9992 17.7004 34.1992C15.3004 30.3992 13.2004 27.4992 11.3004 25.4992C9.40039 23.2992 7.70039 21.7992 6.10039 20.8992C4.50039 19.9992 2.90039 19.2992 1.40039 18.7992H35.7004C33.4004 19.6992 31.7004 20.5992 30.4004 21.4992C29.2004 22.3992 28.6004 23.6992 28.6004 25.4992C28.6004 27.5992 29.4004 30.3992 31.0004 34.0992C32.6004 37.6992 35.1004 42.5992 38.5004 48.7992L54.0004 75.9992V100.899C54.0004 103.999 54.1004 106.599 54.4004 108.799C54.8004 110.999 55.4004 112.899 56.3004 114.399C57.3004 115.899 58.6004 117.199 60.1004 118.299C61.8004 119.399 63.9004 120.299 66.5004 121.099H29.0004ZM93.0004 18.7992C91.3004 19.1992 89.5004 19.8992 87.5004 20.9992C85.6004 21.9992 83.6004 23.6992 81.3004 25.9992C79.0004 28.3992 76.5004 31.5992 73.8004 35.7992C71.0004 39.8992 68.0004 45.1992 64.6004 51.7992C66.6004 46.6992 68.3004 42.0992 69.9004 37.9992C71.5004 33.7992 72.3004 30.2992 72.3004 27.4992C72.3004 25.1992 71.7004 23.3992 70.5004 21.9992C69.3004 20.4992 67.2004 19.3992 64.1004 18.6992H93.0004V18.7992Z" fill="white"/>
</g>
</g>
<defs>
<clipPath id="clip0_4068_12264">
<rect width="94" height="194" fill="white"/>
</clipPath>
</defs>
</svg>
