<svg width="84" height="194" viewBox="0 0 84 194" fill="none" xmlns="http://www.w3.org/2000/svg">
<g clip-path="url(#clip0_4068_12549)">
<mask id="mask0_4068_12549" style="mask-type:alpha" maskUnits="userSpaceOnUse" x="0" y="0" width="84" height="194">
<path d="M0 0H84V194H0V0Z" fill="#D9D9D9"/>
</mask>
<g mask="url(#mask0_4068_12549)">
<path d="M25.3 18.1016H1V120.502H27.1C45.1 120.502 58.7 115.702 67.9 106.202C77.1 96.6016 81.7 83.9016 81.7 68.3016C81.6 52.8016 76.6 40.5016 66.7 31.5016C56.9 22.5016 43.1 18.1016 25.3 18.1016V18.1016ZM26.1 30.9016C41.1 31.2016 51.7 34.9016 57.9 42.0016C64.1 49.2016 67.1 58.0016 66.9 68.3016C67.2 78.3016 64.5 87.2016 58.8 95.1016C53 103.002 42.5 107.102 27.3 107.402H15.7V30.9016H26.1Z" fill="white"/>
</g>
</g>
<defs>
<clipPath id="clip0_4068_12549">
<rect width="84" height="194" fill="white"/>
</clipPath>
</defs>
</svg>
