<svg width="106" height="194" viewBox="0 0 106 194" fill="none" xmlns="http://www.w3.org/2000/svg">
<g clip-path="url(#clip0_4068_12604)">
<mask id="mask0_4068_12604" style="mask-type:alpha" maskUnits="userSpaceOnUse" x="0" y="0" width="106" height="194">
<path d="M0 0H106V194H0V0Z" fill="#D9D9D9"/>
</mask>
<g mask="url(#mask0_4068_12604)">
<path d="M79.9 84.3L103.9 118.9C104.2 119.4 104.2 119.8 103.9 120.3C103.6 120.8 103.2 121 102.6 121H55.9C55.4 121 55.1 120.8 54.8 120.4L46.5 108.7V119.6C46.5 120.5 46 121 45.1 121H3.4C2.5 121 2 120.5 2 119.6V19.4C2 18.5 2.5 18 3.4 18H65.4C75.7 18 84.1 21.2 90.7 27.6C97.4 34 100.7 42.3 100.7 52.5C100.7 59.4 98.8 65.7 94.9 71.6C91.1 77.3 86.2 81.5 79.9 84.3V84.3ZM46.9 56.9H49.3C50.6 56.9 51.7 56.5 52.5 55.6C53.4 54.8 53.9 53.7 53.9 52.5C53.9 51.3 53.4 50.2 52.5 49.4C51.7 48.6 50.6 48.1 49.3 48.1H46.9V56.9Z" fill="white"/>
</g>
</g>
<defs>
<clipPath id="clip0_4068_12604">
<rect width="106" height="194" fill="white"/>
</clipPath>
</defs>
</svg>
