<svg width="77" height="194" viewBox="0 0 77 194" fill="none" xmlns="http://www.w3.org/2000/svg">
<g clip-path="url(#clip0_4068_12299)">
<mask id="mask0_4068_12299" style="mask-type:alpha" maskUnits="userSpaceOnUse" x="0" y="0" width="77" height="194">
<path d="M0 0H77V194H0V0Z" fill="#D9D9D9"/>
</mask>
<g mask="url(#mask0_4068_12299)">
<path d="M0.599609 23.6984C0.599609 27.4984 6.49961 26.8984 10.1996 43.2984C13.7996 59.7984 12.7996 72.3984 20.9996 89.1984C27.4996 102.398 19.7996 115.498 19.7996 117.898C19.7996 119.898 20.6996 120.898 23.5996 120.898C65.7996 120.898 76.2996 72.0984 76.2996 49.9984C76.2996 27.2984 72.6996 17.8984 64.6996 17.8984C60.3996 17.8984 56.1996 18.7984 53.7996 18.7984C49.6996 18.7984 45.5996 17.8984 42.3996 17.8984C40.0996 17.8984 38.8996 18.3984 38.8996 20.1984C38.8996 26.3984 44.3996 35.3984 52.4996 39.3984C63.5996 44.4984 73.5996 49.0984 73.5996 65.5984C73.5996 76.2984 60.4996 89.9984 39.3996 89.9984C30.5996 89.9984 18.0996 87.2984 18.0996 76.8984C18.0996 69.1984 22.3996 64.9984 29.6996 55.9984C33.4996 51.4984 36.8996 45.4984 36.8996 38.0984C36.8996 28.4984 34.4996 17.9984 17.6996 17.9984C8.59961 17.8984 0.599609 20.1984 0.599609 23.6984V23.6984Z" fill="white"/>
</g>
</g>
<defs>
<clipPath id="clip0_4068_12299">
<rect width="77" height="194" fill="white"/>
</clipPath>
</defs>
</svg>
