<svg width="96" height="194" viewBox="0 0 96 194" fill="none" xmlns="http://www.w3.org/2000/svg">
<g clip-path="url(#clip0_4068_12414)">
<mask id="mask0_4068_12414" style="mask-type:alpha" maskUnits="userSpaceOnUse" x="0" y="0" width="96" height="194">
<path d="M0 0H96V194H0V0Z" fill="#D9D9D9"/>
</mask>
<g mask="url(#mask0_4068_12414)">
<path d="M17.1999 119.9C16.8999 120 16.6999 120 16.4999 119.9C16.2999 119.9 16.0999 119.9 15.6999 119.9C15.1999 120.1 14.6999 120.1 14.3999 120C14.1999 120 13.9999 119.9 13.5999 119.6C13.2999 119.3 13.0999 119.1 12.8999 118.9C12.4999 119 12.0999 118.9 11.9999 118.8C11.8999 118.6 11.7999 118.4 11.5999 118.3C11.1999 117.9 11.0999 117.2 11.0999 116.4C11.1999 115.6 11.2999 114.7 11.4999 113.6C11.7999 112.6 11.9999 111.6 12.2999 110.5C12.6999 109.5 12.9999 108.6 13.1999 107.7C13.5999 106 14.1999 104.1 14.7999 102.1C15.4999 100 16.0999 98.2 16.6999 96.5C18.1999 92.5 19.5999 88.6 20.6999 85C21.7999 81.4 23.1999 77.7 24.6999 74.2C26.1999 70.5 27.5999 66.8 28.9999 63.2C30.2999 59.6 31.7999 56.1 33.2999 52.8C33.8999 51.1 34.5999 49.4 35.2999 47.6C35.9999 45.8 36.6999 44 37.3999 42.1C38.0999 40.3 38.7999 38.6 39.4999 36.9C40.1999 35.2 40.7999 33.5 41.1999 31.8C41.2999 31.4 41.2999 31 41.1999 30.6C41.1999 30.2 41.2999 29.7 41.4999 29.3C41.8999 28.8 42.4999 28.3 43.3999 27.8C44.3999 27.4 45.1999 27.1 45.7999 27C46.6999 26.8 47.5999 26.9 48.5999 27.3C49.5999 27.6 50.4999 28 51.2999 28.6C52.0999 29.1 52.6999 29.8 53.1999 30.6C53.5999 31.4 53.7999 32.2 53.6999 33C53.4999 34.1 53.0999 35 52.3999 35.8C51.7999 36.6 51.1999 37.5 50.6999 38.3C49.4999 40.4 48.2999 42.5 47.1999 44.7C46.0999 46.9 45.0999 49.2 43.9999 51.5C42.4999 54.4 41.0999 57.6 39.8999 60.9C38.6999 64.2 37.3999 67.5 35.8999 70.7C34.3999 73.9 32.9999 77.1 31.8999 80.3C31.1999 81.9 30.4999 83.6 29.7999 85.3C29.1999 86.9 28.5999 88.6 28.1999 90.3C27.6999 92 26.9999 93.7 26.2999 95.4C25.6999 97 24.9999 98.7 24.2999 100.5C23.6999 102.2 23.0999 103.8 22.5999 105.5C22.0999 107.2 21.3999 108.8 20.6999 110.5C20.4999 111 20.2999 111.6 19.8999 112.1C19.5999 112.7 19.3999 113.3 19.1999 113.8C18.7999 114.8 18.3999 115.8 18.0999 116.9C17.6999 117.8 17.4999 118.9 17.1999 119.9V119.9ZM93.8999 16.2V16.3C93.6999 16.6 93.5999 16.7 93.4999 16.6C93.4999 16.4 93.4999 16.4 93.3999 16.6C91.3999 16.2 89.4999 15.9 87.4999 15.8C85.4999 15.7 83.5999 15.8 81.5999 16.1C79.5999 16.3 77.6999 16.5 75.6999 16.9C73.7999 17.2 71.9999 17.5 70.0999 17.8C66.2999 18.5 62.3999 19.3 58.5999 20.1C54.8999 20.9 50.9999 21.8 47.0999 22.6C46.2999 22.8 45.3999 23 44.2999 23.1C43.2999 23.3 42.2999 23.5 41.3999 23.6C38.5999 24.3 35.7999 25.1 32.9999 26C30.0999 26.8 27.2999 27.8 24.3999 29.1C22.5999 29.5 20.6999 30.2 18.7999 31.1C16.8999 31.9 15.0999 32.8 13.1999 33.9C12.1999 34.3 11.1999 34.8 10.2999 35.4C9.39993 35.9 8.39993 36.4 7.39993 36.9C6.49993 37.4 5.49993 37.9 4.49993 38.4C3.49993 38.8 2.59993 38.8 1.69993 38.3C1.29993 38 0.999935 37.6 0.799935 37.1C0.499935 36.5 0.499935 35.8 0.699935 35C1.59993 33.8 2.49993 33 3.49993 32.5C4.49993 31.9 5.49993 31.3 6.39993 30.8C9.29993 29.2 12.2999 27.8 15.1999 26.5C18.0999 25.2 20.9999 23.9 23.8999 22.6C27.5999 20.8 31.3999 19.2 35.2999 17.8C39.1999 16.3 43.0999 14.9 47.0999 13.5C49.0999 13 51.0999 12.5 52.9999 12C54.8999 11.6 56.7999 11.1 58.8999 10.7C62.6999 9.9 66.5999 9.3 70.4999 8.8C74.1999 8.2 78.0999 8 82.0999 8C82.9999 8.2 83.8999 8.3 84.7999 8.3C85.7999 8.2 86.7999 8.3 87.8999 8.4C89.0999 8.8 90.2999 9.1 91.4999 9.5C92.6999 9.9 93.7999 10.7 94.9999 12C94.9999 12.2 94.8999 12.2 94.6999 12C94.4999 11.7 94.3999 11.8 94.2999 12.3C94.2999 12.7 94.3999 12.9 94.5999 13.1C94.8999 13.2 94.8999 13.3 94.6999 13.4C94.6999 13.6 94.5999 13.7 94.2999 13.7V14.5C94.3999 14.6 94.3999 14.8 94.2999 15C94.1999 15.3 94.1999 15.3 94.1999 15.1C94.1999 14.9 94.0999 15 93.8999 15.4C93.7999 15.8 93.7999 16 93.8999 16.1C94.0999 16 94.0999 16.1 93.8999 16.2V16.2Z" fill="white"/>
</g>
</g>
<defs>
<clipPath id="clip0_4068_12414">
<rect width="96" height="194" fill="white"/>
</clipPath>
</defs>
</svg>
