<svg width="102" height="194" viewBox="0 0 102 194" fill="none" xmlns="http://www.w3.org/2000/svg">
<g clip-path="url(#clip0_4068_12309)">
<mask id="mask0_4068_12309" style="mask-type:alpha" maskUnits="userSpaceOnUse" x="0" y="0" width="102" height="194">
<path d="M0 0H102V194H0V0Z" fill="#D9D9D9"/>
</mask>
<g mask="url(#mask0_4068_12309)">
<path d="M1 120.402L17.1 17.6016H34.9C48.1 17.6016 57.6 18.0016 63.2 18.7016C68.9 19.4016 73.5 20.6016 77 22.4016C84.7 26.2016 90.5 31.9016 94.5 39.3016C98.5 46.7016 100.6 55.5016 100.6 65.7016C100.6 75.6016 98.8 84.2016 95.2 91.6016C91.6 99.0016 86.2 105.302 78.9 110.402C73.7 114.002 67.6 116.502 60.5 118.102C53.4 119.602 41.5 120.302 24.9 120.302H21H1V120.402ZM32.3 97.5016C34.2 97.6016 35.6 97.7016 36.5 97.8016H39.1C50.1 97.8016 58.5 95.0016 64.3 89.5016C70 84.0016 72.9 75.9016 72.9 65.2016C72.9 56.5016 70.8 50.2016 66.6 46.2016C62.4 42.2016 55.7 40.2016 46.3 40.2016H41.1L32.3 97.5016Z" fill="white"/>
</g>
</g>
<defs>
<clipPath id="clip0_4068_12309">
<rect width="102" height="194" fill="white"/>
</clipPath>
</defs>
</svg>
