<svg width="123" height="194" viewBox="0 0 123 194" fill="none" xmlns="http://www.w3.org/2000/svg">
<g clip-path="url(#clip0_4068_12409)">
<mask id="mask0_4068_12409" style="mask-type:alpha" maskUnits="userSpaceOnUse" x="0" y="0" width="123" height="194">
<path d="M0 0H123V194H0V0Z" fill="#D9D9D9"/>
</mask>
<g mask="url(#mask0_4068_12409)">
<path d="M55.6003 121.701C51.1003 124.201 47.8003 125.901 45.8003 126.901C43.8003 128.001 42.5003 128.601 41.9003 128.901C41.4003 129.301 41.2003 129.401 41.4003 129.301C41.6003 129.201 41.5003 129.201 41.1003 129.301C40.7003 129.401 39.8003 129.801 38.3003 130.501C36.8003 131.201 34.1003 132.501 30.3003 134.401C30.4003 134.101 29.6003 134.301 27.9003 134.901C26.3003 135.501 24.3003 136.201 22.0003 137.001C19.8003 137.901 17.5003 138.701 15.2003 139.401C12.9003 140.201 11.1003 140.601 9.70031 140.601C9.00031 140.801 8.40031 140.701 8.00031 140.501C7.50031 140.301 6.90031 140.101 6.30031 140.001C5.80031 140.001 5.20031 140.001 4.70031 140.001C4.10031 140.001 3.50031 139.901 3.10031 139.701C2.60031 139.601 2.20031 139.301 1.90031 138.901C1.50031 138.501 1.40031 138.001 1.40031 137.201C1.30031 135.701 1.80031 134.301 2.70031 133.101C3.60031 131.901 4.50031 130.801 5.40031 129.601C10.8003 123.401 16.3003 118.001 21.8003 113.401C27.4003 108.801 33.2003 104.901 39.3003 101.501C45.4003 98.0008 51.9003 95.0008 58.7003 92.4008C65.5003 89.7008 72.7003 87.2008 80.5003 84.9008C80.7003 83.3008 80.4003 81.7008 79.7003 80.2008C79.0003 78.6008 78.1003 77.3008 77.2003 76.3008C75.3003 74.9008 72.9003 73.6008 70.0003 72.4008C67.1003 71.2008 64.0003 70.7008 60.9003 70.7008C57.1003 70.6008 53.2003 70.7008 49.4003 71.1008C45.6003 71.5008 41.7003 71.9008 37.6003 72.3008C36.4003 72.5008 35.1003 72.6008 33.7003 72.7008C32.4003 72.7008 31.1003 72.5008 30.0003 72.0008C29.6003 71.9008 29.3003 71.8008 28.9003 71.6008C28.5003 71.4008 28.1003 71.2008 27.7003 71.1008C26.9003 70.8008 26.2003 70.7008 25.6003 70.6008C25.1003 70.5008 24.4003 70.2008 23.7003 69.8008C23.2003 69.4008 22.6003 68.7008 22.0003 67.8008C21.4003 66.9008 21.1003 65.8008 21.1003 64.6008C21.1003 63.3008 21.4003 61.9008 21.9003 60.4008C22.4003 58.9008 23.0003 57.6008 23.6003 56.5008C24.3003 55.1008 25.0003 53.9008 25.7003 52.9008C26.5003 51.9008 27.3003 51.0008 28.0003 50.1008C34.9003 42.0008 42.8003 35.3008 51.9003 30.0008C54.2003 28.5008 56.7003 27.2008 59.4003 26.1008C62.2003 24.9008 65.1003 24.1008 68.1003 23.7008C68.8003 23.5008 69.7003 23.4008 70.6003 23.4008C71.6003 23.3008 72.5003 23.2008 73.3003 23.1008C75.1003 22.9008 76.7003 22.8008 78.2003 22.8008C79.7003 22.8008 81.0003 23.3008 82.1003 24.3008C82.5003 24.5008 82.8003 24.7008 83.0003 25.1008C83.3003 25.5008 83.8003 25.7008 84.5003 25.9008C84.7003 26.5008 84.7003 27.1008 84.5003 27.8008C84.4003 28.3008 84.3003 28.9008 84.1003 29.4008C84.5003 29.6008 84.6003 29.6008 84.5003 29.4008C84.5003 29.1008 84.6003 29.1008 84.8003 29.3008C84.6003 30.3008 84.4003 31.1008 84.1003 31.8008C83.8003 32.5008 83.6003 33.4008 83.3003 34.3008C82.7003 35.9008 82.1003 37.2008 81.7003 38.2008C81.4003 38.6008 81.2003 39.1008 80.9003 39.7008C80.6003 40.1008 80.5003 40.6008 80.4003 41.2008C79.8003 41.0008 79.5003 41.1008 79.5003 41.5008C79.5003 41.8008 79.4003 42.0008 79.2003 42.3008C78.8003 42.2008 78.3003 42.3008 77.9003 42.4008C77.5003 42.5008 77.1003 42.5008 76.7003 42.5008C76.4003 42.4008 76.3003 42.4008 76.2003 42.4008C76.1003 42.3008 75.9003 42.3008 75.7003 42.4008C75.3003 42.5008 75.0003 42.7008 74.8003 43.1008C74.5003 43.4008 74.2003 43.4008 73.7003 43.1008C73.6003 41.9008 73.7003 40.9008 73.8003 39.9008C74.0003 38.9008 74.2003 38.0008 74.5003 37.1008C74.9003 36.1008 75.2003 35.2008 75.4003 34.3008C75.8003 33.3008 76.0003 32.3008 76.2003 31.4008C74.5003 31.4008 72.8003 31.6008 71.0003 31.9008C69.2003 32.3008 67.6003 32.7008 66.1003 33.4008C64.9003 33.8008 63.7003 34.4008 62.6003 35.0008C61.6003 35.6008 60.5003 36.2008 59.3003 36.7008C54.7003 38.9008 50.5003 41.3008 46.9003 43.8008C45.9003 44.3008 45.0003 45.0008 44.2003 45.9008C43.5003 46.8008 42.8003 47.7008 42.1003 48.6008C39.8003 51.0008 37.6003 53.6008 35.4003 56.5008C33.4003 59.4008 31.8003 62.6008 30.9003 66.1008C31.7003 66.5008 32.5003 66.7008 33.3003 66.5008C37.2003 66.6008 41.3003 66.5008 45.5003 66.1008C49.8003 65.7008 53.8003 65.5008 57.5003 65.7008C61.1003 65.9008 64.5003 66.3008 67.8003 66.9008C71.1003 67.5008 74.1003 68.5008 76.8003 69.7008C79.6003 70.9008 81.9003 72.6008 83.9003 74.7008C85.9003 76.8008 87.4003 79.3008 88.4003 82.3008C91.6003 81.5008 94.5003 80.9008 97.0003 80.4008C99.6003 80.0008 102.1 79.6008 104.5 79.3008C107 78.9008 109.6 78.7008 112.4 78.5008C115.2 78.2008 118.3 77.9008 121.9 77.6008C121.9 77.9008 121.8 78.0008 121.5 78.0008C121.2 77.9008 121.1 78.0008 121 78.1008C121.2 78.4008 121.5 78.5008 121.9 78.5008C122.4 78.5008 122.9 78.5008 123.4 78.4008C122.6 78.7008 121.9 79.0008 121.3 79.3008C120.8 79.6008 120 79.7008 118.9 79.8008C119.1 80.0008 119.3 80.0008 119.7 79.9008C120.1 79.8008 120.5 79.8008 120.9 79.8008C120.4 80.3008 119.7 80.6008 118.8 80.6008C118 80.6008 117.1 80.7008 116.1 81.0008C116.4 81.2008 116.9 81.2008 117.6 81.0008C117.5 81.1008 117.5 81.2008 117.5 81.4008C116.5 81.8008 115.5 82.0008 114.4 82.2008C113.4 82.3008 112.3 82.4008 111.1 82.6008C107.9 83.3008 105.7 83.8008 104.4 84.1008C103.2 84.3008 102.3 84.4008 101.9 84.5008C101.5 84.5008 101.3 84.5008 101.2 84.6008C101.1 84.7008 100.5 84.9008 99.5003 85.3008C99.3003 85.4008 99.1003 85.5008 99.0003 85.7008C98.8003 85.8008 98.6003 85.8008 98.3003 85.8008C97.3003 86.2008 96.3003 86.6008 95.1003 86.7008C93.9003 86.9008 92.9003 87.2008 91.9003 87.6008L91.1003 88.1008C90.7003 88.4008 90.1003 88.5008 89.5003 88.6008C88.9003 88.7008 88.4003 89.0008 88.2003 89.4008C87.8003 90.6008 87.2003 91.9008 86.6003 93.1008C86.0003 94.3008 85.3003 95.4008 84.6003 96.6008C84.1003 97.3008 83.6003 98.0008 83.1003 98.6008C82.7003 99.2008 82.1003 99.9008 81.4003 100.601C80.3003 101.901 79.3003 103.101 78.3003 104.101C75.4003 107.001 72.4003 109.601 69.2003 112.001C68.8003 112.201 68.5003 112.401 68.3003 112.701C68.1003 113.101 67.8003 113.301 67.4003 113.401C67.2003 113.501 67.2003 113.601 67.3003 113.701C67.4003 113.801 67.3003 113.901 67.0003 114.101C66.2003 114.501 65.4003 115.001 64.7003 115.601C64.1003 116.101 63.3003 116.601 62.3003 116.901C61.7003 117.701 60.8003 118.501 59.6003 119.201C57.9003 120.201 56.8003 120.901 55.6003 121.701V121.701ZM77.5003 91.9008C77.3003 91.9008 77.2003 91.9008 77.1003 92.0008C77.0003 92.0008 76.9003 92.0008 76.8003 92.0008C77.2003 91.8008 77.6003 91.5008 77.9003 91.1008C74.6003 92.4008 71.8003 93.6008 69.3003 94.6008C66.9003 95.5008 64.7003 96.3008 62.8003 97.1008C60.8003 97.9008 59.0003 98.8008 57.2003 99.6008C55.4003 100.501 53.5003 101.501 51.5003 102.501C49.5003 103.601 47.4003 104.901 45.0003 106.401C42.6003 107.901 39.7003 109.701 36.4003 111.801C33.2003 114.101 30.7003 115.901 29.1003 117.201C27.4003 118.501 26.0003 119.701 24.8003 120.701C23.6003 121.801 22.5003 122.801 21.3003 123.801C20.2003 124.801 18.8003 126.101 16.9003 127.801C16.5003 128.201 16.1003 128.601 15.8003 129.001C15.6003 129.501 15.4003 130.001 15.0003 130.301C14.5003 131.001 15.5003 131.101 18.1003 130.401C20.7003 129.801 24.1003 128.701 28.4003 127.101C32.7003 125.501 37.4003 123.401 42.7003 120.901C48.0003 118.501 53.0003 115.701 57.8003 112.601C62.6003 109.601 66.8003 106.301 70.5003 102.701C74.1003 99.3008 76.4003 95.7008 77.5003 91.9008V91.9008ZM107.8 83.1008C107.2 83.1008 106.8 83.1008 106.7 83.2008C106.9 83.1008 107.1 83.1008 107.2 83.2008C107.6 83.3008 107.8 83.3008 107.8 83.1008ZM117.3 81.1008H117H117.3ZM117.6 81.0008C117.5 81.0008 117.5 81.0008 117.5 81.1008C117.5 81.1008 117.5 81.1008 117.4 81.1008H117.5C117.5 81.0008 117.5 81.0008 117.6 81.0008Z" fill="white"/>
</g>
</g>
<defs>
<clipPath id="clip0_4068_12409">
<rect width="123" height="194" fill="white"/>
</clipPath>
</defs>
</svg>
