<svg width="83" height="194" viewBox="0 0 83 194" fill="none" xmlns="http://www.w3.org/2000/svg">
<g clip-path="url(#clip0_4068_12284)">
<mask id="mask0_4068_12284" style="mask-type:alpha" maskUnits="userSpaceOnUse" x="0" y="0" width="83" height="194">
<path d="M0 0H83V194H0V0Z" fill="#D9D9D9"/>
</mask>
<g mask="url(#mask0_4068_12284)">
<path d="M9.20039 18.3008C6.60039 18.3008 5.10039 19.2008 5.10039 21.4008C5.10039 27.2008 18.5004 39.7008 18.5004 72.9008C18.5004 89.5008 0.400391 111.201 0.400391 116.101C0.400391 118.401 1.80039 119.701 3.60039 119.701C7.70039 119.701 15.6004 119.301 22.0004 119.301C29.3004 119.301 38.2004 120.001 40.4004 120.001C42.6004 120.001 43.4004 119.501 43.4004 118.001C43.4004 108.001 19.9004 98.7008 19.9004 73.1008C19.9004 47.6008 29.0004 29.4008 40.8004 29.4008C49.3004 29.4008 53.5004 35.3008 53.5004 47.9008C53.5004 60.8008 48.6004 71.8008 33.0004 74.7008C29.9004 75.2008 30.2004 79.0008 33.7004 79.2008C44.1004 79.6008 47.8004 84.9008 47.9004 95.1008C48.2004 111.601 53.4004 120.501 71.5004 120.501C79.2004 120.501 82.4004 119.001 82.4004 115.501C82.4004 114.201 81.7004 113.101 79.7004 111.501C76.2004 108.501 73.6004 103.401 72.5004 96.8008C70.5004 84.4008 64.9004 80.7008 52.2004 79.4008C47.7004 78.9008 44.2004 77.6008 44.2004 74.5008C44.2004 64.1008 75.7004 62.9008 75.7004 40.4008C75.7004 28.5008 66.9004 18.8008 53.4004 18.8008C47.0004 18.8008 40.3004 19.2008 32.9004 19.2008C23.8004 19.2008 12.5004 18.3008 9.20039 18.3008V18.3008Z" fill="white"/>
</g>
</g>
<defs>
<clipPath id="clip0_4068_12284">
<rect width="83" height="194" fill="white"/>
</clipPath>
</defs>
</svg>
