<svg width="57" height="194" viewBox="0 0 57 194" fill="none" xmlns="http://www.w3.org/2000/svg">
<g clip-path="url(#clip0_4068_12459)">
<mask id="mask0_4068_12459" style="mask-type:alpha" maskUnits="userSpaceOnUse" x="0" y="0" width="57" height="194">
<path d="M0 0H57V194H0V0Z" fill="#D9D9D9"/>
</mask>
<g mask="url(#mask0_4068_12459)">
<path d="M2.0002 124.301C4.5002 121.801 5.8002 118.701 5.8002 114.901C5.8002 113.001 5.5002 110.801 5.0002 108.501C4.5002 106.101 4.3002 104.701 4.2002 104.301C2.5002 97.8008 1.7002 92.2008 1.7002 87.5008C1.7002 85.2008 1.8002 83.1008 2.1002 81.1008C2.5002 79.2008 3.0002 76.8008 3.6002 74.2008C4.3002 71.2008 4.9002 68.7008 5.1002 66.7008C5.5002 64.6008 5.7002 62.2008 5.7002 59.5008C5.7002 56.6008 5.6002 54.3008 5.3002 52.4008C5.0002 50.5008 4.6002 48.1008 3.9002 45.3008C2.9002 41.4008 2.4002 38.1008 2.4002 35.3008C2.4002 31.1008 3.0002 27.9008 4.3002 25.6008C5.7002 23.3008 7.3002 21.7008 9.2002 20.7008C11.1002 19.7008 13.5002 18.8008 16.4002 17.9008C18.8002 17.3008 20.6002 16.6008 21.8002 16.0008L22.6002 17.0008C19.4002 19.0008 17.1002 21.4008 15.6002 24.2008C14.2002 26.9008 13.5002 30.2008 13.5002 34.1008C13.5002 36.5008 13.9002 40.0008 14.8002 44.5008C15.7002 50.2008 16.2002 54.8008 16.2002 58.3008C16.2002 61.8008 16.0002 64.9008 15.5002 67.5008C15.1002 70.0008 14.5002 73.0008 13.6002 76.5008C12.9002 79.3008 12.3002 81.7008 11.8002 83.9008C11.4002 86.0008 11.2002 88.4008 11.2002 91.0008C11.2002 95.2008 11.7002 99.3008 12.6002 103.401H13.6002C13.5002 98.4008 14.0002 94.0008 15.1002 90.0008C16.2002 85.9008 17.6002 82.4008 19.1002 79.4008C20.7002 76.4008 22.8002 72.8008 25.5002 68.6008C27.9002 64.8008 29.8002 61.7008 31.1002 59.2008C32.5002 56.6008 33.5002 54.0008 34.0002 51.3008C34.5002 49.0008 35.0002 45.6008 35.5002 41.0008C35.9002 37.4008 36.3002 34.4008 36.8002 32.1008C37.3002 29.7008 38.1002 27.2008 39.2002 24.7008C40.2002 22.4008 41.8002 20.7008 43.9002 19.6008C46.0002 18.4008 48.8002 17.3008 52.3002 16.3008C53.8002 15.9008 54.9002 15.6008 55.6002 15.3008L56.4002 16.3008C53.0002 18.4008 50.6002 21.4008 49.4002 25.2008C48.3002 28.9008 47.4002 34.0008 46.8002 40.5008C46.2002 46.7008 45.6002 51.2008 44.9002 54.1008C44.0002 58.1008 42.7002 61.5008 41.1002 64.4008C39.5002 67.2008 37.3002 70.5008 34.4002 74.4008C30.4002 79.6008 27.4002 84.4008 25.3002 88.7008C23.9002 91.8008 22.7002 95.6008 21.7002 100.001C20.7002 103.901 19.9002 106.401 19.5002 107.501C18.0002 111.301 15.8002 114.701 12.8002 117.801C9.8002 120.901 6.6002 123.301 3.1002 125.201L2.0002 124.301Z" fill="white"/>
</g>
</g>
<defs>
<clipPath id="clip0_4068_12459">
<rect width="57" height="194" fill="white"/>
</clipPath>
</defs>
</svg>
