<svg width="100" height="194" viewBox="0 0 100 194" fill="none" xmlns="http://www.w3.org/2000/svg">
<g clip-path="url(#clip0_4068_12484)">
<mask id="mask0_4068_12484" style="mask-type:alpha" maskUnits="userSpaceOnUse" x="0" y="0" width="100" height="194">
<path d="M0 0H100V194H0V0Z" fill="#D9D9D9"/>
</mask>
<g mask="url(#mask0_4068_12484)">
<path d="M40.0996 120.998H1.59961V114.598H14.3996V24.7984H1.59961V18.3984H65.6996V24.7984H72.0996V31.1984H78.4996V63.2984H72.0996V69.6984H65.6996V76.0984H52.8996V82.4984H59.2996V88.8984H65.6996V95.2984H72.0996V101.698H78.4996V108.098H84.8996V114.498H97.6996V120.898H72.0996V114.498H65.6996V108.098H59.2996V101.698H52.8996V95.2984H46.4996V88.8984H40.0996V82.4984H33.6996V76.0984H27.2996V114.598H40.0996V120.998ZM27.1996 69.6984H59.1996V63.2984H65.5996V31.2984H59.1996V24.8984H27.1996V69.6984Z" fill="white"/>
</g>
</g>
<defs>
<clipPath id="clip0_4068_12484">
<rect width="100" height="194" fill="white"/>
</clipPath>
</defs>
</svg>
