<svg width="123" height="194" viewBox="0 0 123 194" fill="none" xmlns="http://www.w3.org/2000/svg">
<g clip-path="url(#clip0_4068_12624)">
<mask id="mask0_4068_12624" style="mask-type:alpha" maskUnits="userSpaceOnUse" x="0" y="0" width="123" height="194">
<path d="M0 0H123V194H0V0Z" fill="#D9D9D9"/>
</mask>
<g mask="url(#mask0_4068_12624)">
<path d="M84.2002 121H39.0002C38.1002 121 37.6002 120.6 37.6002 119.7V83.8L1.6002 20.1C1.2002 19.6 1.1002 19.2 1.3002 18.7C1.5002 18.2 1.9002 18 2.6002 18H51.6002C52.1002 18 52.4002 18.2 52.7002 18.6L60.9002 33.7C61.2002 34.3 61.4002 34.5 61.6002 34.5C61.8002 34.5 62.0002 34.2 62.3002 33.7L70.5002 18.6C70.8002 18.2 71.2002 18 71.6002 18H120.6C121.3 18 121.7 18.2 121.9 18.7C122.1 19.2 122 19.6 121.6 20.1L85.6002 83.8V119.7C85.6002 120.6 85.1002 121 84.2002 121V121Z" fill="white"/>
</g>
</g>
<defs>
<clipPath id="clip0_4068_12624">
<rect width="123" height="194" fill="white"/>
</clipPath>
</defs>
</svg>
