<svg width="61" height="194" viewBox="0 0 61 194" fill="none" xmlns="http://www.w3.org/2000/svg">
<g clip-path="url(#clip0_4068_12449)">
<mask id="mask0_4068_12449" style="mask-type:alpha" maskUnits="userSpaceOnUse" x="0" y="0" width="61" height="194">
<path d="M0 0H61V194H0V0Z" fill="#D9D9D9"/>
</mask>
<g mask="url(#mask0_4068_12449)">
<path d="M21.1998 121.4C15.3998 121.4 10.6998 119.9 6.89981 116.8C3.19981 113.7 1.2998 109.6 1.2998 104.6C1.2998 102.5 1.5998 100.6 2.0998 98.9C2.6998 97.1 3.6998 95.1 4.9998 92.8C6.3998 90.2 7.3998 88 8.0998 86.1C8.6998 84.2 9.0998 82.1 9.0998 79.7C9.0998 78.7 9.0998 77.9 8.9998 77.3L9.9998 77C11.0998 80.1 11.6998 83.1 11.6998 86C11.6998 88.1 11.4998 90.4 10.9998 92.9C10.5998 95.7 10.3998 97.8 10.3998 99.2C10.3998 102.8 11.2998 105.7 13.1998 108C15.0998 110.2 17.9998 111.3 21.6998 111.3C26.4998 111.3 30.2998 109.6 33.0998 106.2C35.9998 102.7 37.3998 98.3 37.3998 93.1C37.3998 88.7 36.4998 85 34.5998 81.8C32.6998 78.6 29.9998 74.8 26.1998 70.5C22.1998 66 19.1998 61.9 17.0998 58.3C15.0998 54.7 13.9998 50.3 13.9998 45.2C13.9998 39.7 15.1998 34.8 17.5998 30.3C19.9998 25.9 23.2998 22.4 27.4998 19.9C31.7998 17.3 36.4998 16 41.5998 16C47.2998 16 51.6998 17.5 54.9998 20.4C58.1998 23.3 59.8998 26.8 59.8998 31.1C59.8998 33.7 59.2998 35.8 58.0998 37.5C56.9998 39.1 55.1998 40.9 52.7998 42.9C50.4998 44.8 48.6998 46.6 47.4998 48C46.2998 49.5 45.4998 51.5 45.0998 54L43.9998 54.4C43.8998 53.9 43.8998 53.2 43.8998 52.3C43.8998 50.6 44.1998 49.1 44.6998 47.6C45.2998 46.1 46.0998 44.4 47.2998 42.3C48.3998 40.2 49.1998 38.5 49.6998 37.2C50.2998 35.9 50.4998 34.5 50.4998 33C50.4998 30.2 49.4998 28.1 47.5998 26.7C45.6998 25.3 43.4998 24.6 40.7998 24.6C37.8998 24.6 35.1998 25.4 32.5998 27.1C30.0998 28.7 28.0998 30.9 26.4998 33.8C24.9998 36.7 24.2998 39.9 24.2998 43.4C24.2998 47.6 25.1998 51.2 27.0998 54.4C28.9998 57.5 31.7998 61.4 35.6998 65.9C39.8998 70.5 42.9998 74.7 45.1998 78.4C47.2998 82.1 48.3998 86.5 48.3998 91.6C48.3998 96.6 47.2998 101.4 45.0998 105.9C42.9998 110.4 39.7998 114.1 35.5998 117C31.3998 120 26.5998 121.4 21.1998 121.4V121.4Z" fill="white"/>
</g>
</g>
<defs>
<clipPath id="clip0_4068_12449">
<rect width="61" height="194" fill="white"/>
</clipPath>
</defs>
</svg>
