<svg width="99" height="194" viewBox="0 0 99 194" fill="none" xmlns="http://www.w3.org/2000/svg">
<g clip-path="url(#clip0_4068_12539)">
<mask id="mask0_4068_12539" style="mask-type:alpha" maskUnits="userSpaceOnUse" x="0" y="0" width="99" height="194">
<path d="M0 0H99V194H0V0Z" fill="#D9D9D9"/>
</mask>
<g mask="url(#mask0_4068_12539)">
<path d="M63.2996 17.1992C65.4996 17.1992 67.4996 17.5992 69.2996 18.4992C71.0996 19.3992 72.8996 20.2992 74.6996 21.2992C76.5996 22.2992 78.5996 23.1992 80.6996 24.0992C82.8996 24.9992 85.4996 25.3992 88.4996 25.3992C89.4996 25.3992 90.3996 25.2992 91.2996 25.0992C92.1996 24.7992 93.0996 24.3992 93.9996 23.8992C94.8996 23.3992 95.8996 22.6992 96.9996 21.7992C98.0996 20.8992 99.3996 19.7992 100.9 18.4992C96.7996 22.7992 93.2996 26.2992 90.2996 28.8992C87.3996 31.4992 84.9996 33.4992 82.7996 34.9992C80.6996 36.3992 78.7996 37.2992 77.0996 37.7992C75.3996 38.2992 73.6996 38.4992 71.9996 38.4992C69.4996 38.4992 67.3996 38.0992 65.4996 37.1992C63.5996 36.2992 61.7996 35.3992 60.0996 34.2992C58.3996 33.1992 56.6996 32.1992 54.9996 31.2992C53.2996 30.3992 51.2996 29.8992 49.1996 29.8992C48.0996 29.8992 46.5996 30.3992 44.8996 31.3992C43.1996 32.2992 40.7996 34.1992 37.7996 37.1992C41.8996 32.9992 45.2996 29.5992 47.9996 26.9992C50.6996 24.3992 52.9996 22.2992 54.8996 20.7992C56.7996 19.2992 58.3996 18.3992 59.6996 17.8992C60.8996 17.4992 62.0996 17.1992 63.2996 17.1992V17.1992ZM58.8996 101.899C60.9996 99.9992 62.4996 98.0992 63.4996 95.9992C64.4996 93.8992 65.1996 91.5992 65.5996 89.0992C65.9996 86.5992 66.1996 83.7992 66.0996 80.6992C65.9996 77.4992 65.9996 73.9992 65.8996 70.0992C65.7996 65.8992 65.9996 62.2992 66.5996 59.2992C67.2996 56.2992 68.4996 53.4992 70.1996 50.8992C71.9996 48.2992 74.4996 45.5992 77.5996 42.8992C80.6996 40.0992 84.6996 36.7992 89.5996 33.0992C87.7996 34.8992 86.3996 36.4992 85.4996 38.0992C84.5996 39.5992 83.9996 41.2992 83.5996 43.2992C83.2996 45.1992 83.0996 47.4992 83.1996 49.9992C83.2996 52.4992 83.3996 55.6992 83.4996 59.4992C83.6996 66.0992 83.5996 71.5992 83.0996 76.1992C82.5996 80.7992 81.4996 84.6992 79.6996 87.8992C77.9996 91.0992 75.3996 93.8992 72.0996 96.0992C68.6996 98.0992 64.2996 100.099 58.8996 101.899V101.899ZM36.3996 121.299C33.9996 121.299 31.7996 120.999 29.6996 120.399C27.6996 119.899 25.7996 119.199 23.8996 118.499C22.0996 117.799 20.2996 117.199 18.4996 116.599C16.6996 115.999 14.7996 115.699 12.8996 115.699C10.6996 115.699 8.89961 116.199 7.39961 117.199C5.99961 118.199 4.39961 119.599 2.59961 121.399C6.19961 117.399 9.19961 114.099 11.7996 111.499C14.3996 108.899 16.6996 106.799 18.5996 105.299C20.4996 103.799 22.2996 102.899 23.7996 102.299C25.2996 101.699 26.8996 101.399 28.4996 101.399C30.2996 101.399 32.0996 101.699 33.7996 102.299C35.5996 102.799 37.3996 103.399 39.1996 104.099L44.5996 105.899C46.3996 106.399 48.1996 106.699 50.0996 106.699C52.2996 106.699 53.9996 106.299 55.1996 105.499C56.4996 104.599 57.5996 103.499 58.6996 101.999C57.3996 104.399 55.7996 106.699 54.0996 108.999C52.3996 111.199 50.5996 113.299 48.6996 115.199C46.7996 116.999 44.7996 118.399 42.6996 119.599C40.6996 120.799 38.5996 121.299 36.3996 121.299V121.299ZM45.3996 85.3992C44.6996 86.2992 43.5996 87.6992 42.0996 89.4992C40.5996 91.2992 39.0996 93.0992 37.4996 94.8992C35.5996 96.9992 33.5996 99.2992 31.4996 101.599C30.7996 98.6992 29.8996 95.3992 28.7996 91.6992C27.7996 87.8992 26.6996 84.0992 25.5996 80.1992C24.4996 76.1992 23.2996 72.2992 22.0996 68.3992C20.9996 64.3992 19.8996 60.7992 18.7996 57.5992C17.7996 54.2992 16.8996 51.3992 16.1996 49.0992C15.4996 46.6992 14.9996 45.0992 14.6996 44.1992C13.9996 41.9992 13.2996 39.8992 12.5996 38.0992C11.9996 36.2992 11.2996 34.8992 10.4996 33.7992C9.79961 32.8992 8.99961 32.1992 7.99961 31.5992C6.99961 30.9992 5.79961 30.6992 4.29961 30.6992C3.39961 30.6992 2.49961 30.8992 1.79961 31.2992C1.09961 31.6992 0.299609 32.1992 -0.400391 32.6992C0.0996094 32.1992 0.899609 31.3992 1.99961 30.0992C3.09961 28.7992 4.29961 27.4992 5.59961 25.9992C6.89961 24.4992 8.19961 23.1992 9.49961 21.7992C10.7996 20.3992 11.8996 19.3992 12.6996 18.6992C13.7996 17.6992 15.3996 17.1992 17.4996 17.1992C18.6996 17.1992 19.8996 17.4992 20.9996 17.9992C22.1996 18.4992 23.4996 19.5992 24.8996 21.3992C25.9996 22.8992 26.9996 24.4992 27.7996 26.4992C28.6996 28.3992 29.3996 30.2992 29.9996 32.2992C30.2996 33.4992 30.8996 35.1992 31.5996 37.4992C32.2996 39.6992 33.0996 42.1992 33.9996 45.0992C34.8996 47.9992 35.8996 51.1992 36.8996 54.5992C37.9996 58.0992 38.9996 61.5992 39.9996 65.0992C41.0996 68.5992 41.9996 72.0992 42.8996 75.5992C43.8996 79.0992 44.6996 82.2992 45.3996 85.3992V85.3992Z" fill="white"/>
</g>
</g>
<defs>
<clipPath id="clip0_4068_12539">
<rect width="99" height="194" fill="white"/>
</clipPath>
</defs>
</svg>
