<svg width="68" height="194" viewBox="0 0 68 194" fill="none" xmlns="http://www.w3.org/2000/svg">
<g clip-path="url(#clip0_4068_12289)">
<mask id="mask0_4068_12289" style="mask-type:alpha" maskUnits="userSpaceOnUse" x="0" y="0" width="68" height="194">
<path d="M0 0H68V194H0V0Z" fill="#D9D9D9"/>
</mask>
<g mask="url(#mask0_4068_12289)">
<path d="M30.6996 17.3008C13.0996 17.3008 1.79961 28.1008 1.79961 43.7008C1.69961 65.8008 17.0996 72.0008 39.5996 77.0008C57.6996 81.0008 64.5996 83.6008 64.5996 91.6008C64.5996 99.3008 58.6996 102.501 46.9996 102.501C26.1996 102.501 17.4996 92.8008 17.4996 81.1008C17.4996 79.8008 17.0996 78.9008 14.8996 78.9008C6.49961 78.9008 0.599609 86.5008 0.599609 95.8008C0.599609 107.301 7.49961 120.501 34.6996 120.501C56.2996 120.501 65.8996 107.301 65.8996 91.6008C65.8996 59.1008 16.8996 54.4008 16.8996 31.2008C16.8996 23.1008 21.5996 19.2008 27.2996 19.2008C44.1996 19.2008 45.3996 53.9008 55.3996 53.9008C60.7996 53.9008 66.6996 41.6008 66.6996 33.8008C66.6996 31.5008 66.1996 30.0008 64.0996 30.0008C55.7996 29.9008 48.8996 17.3008 30.6996 17.3008V17.3008Z" fill="white"/>
</g>
</g>
<defs>
<clipPath id="clip0_4068_12289">
<rect width="68" height="194" fill="white"/>
</clipPath>
</defs>
</svg>
