<svg fill="none" height="512" viewBox="0 0 289 512" width="289" xmlns="http://www.w3.org/2000/svg"><path d="m245.95 428.48-5.34-3.51.14 5.91 5.21-2.39h-.01zm-183.54-331.68c-.84 5.94.28 12.16 3.2 17.4-.11.17-.23.33-.33.5-22.47 33.35-22.65 76.61-22.65 84.83v152.78c-.15 3.34.53 6.68 2.3 9.5l.58.19c-2.72 8.33-3.71 17.08-2.11 25.62h-.01c-.97 9.34-3.95 8.75-5.06 12.27-1.99 6.29.57 15.95 3.12 22.04 2.97-6.35 4.48-8.31 7.45-14.66 1.02-2.18 2.05-4.37 3.5-6.29 2.86-3.8 7.29-6.43 9.32-10.73 1.91-4.06 2.8-16.19 4.32-20.41 1.78-4.91 6.31-8.78 6.75-13.98.07-.83.02-1.66-.07-2.49l.68-.07c4.91 1.29 8.67-.02 11.97-2.31l.14.2c2.36 2.3 5.9 2.18 9.41 1.12 5.32-1.59 10.58-5.33 11.66-6.1-.67 4.63-1.46 8.95-1.13 13.59.01.14.02.29.03.43-1.39 6.09-.7 9.88-.38 15.06l.08.04c-.09.19-.17.36-.25.53-.58 1.26-.63 3.62-.65 5.01-.32-.11-.63-.04-.66-.25-2.62 4.8-4.57 9.88-5.42 15.28 2.75-.01 6.1.55 8.85.54.4 0 1.97-3.6 2.73-4.92 3.23 7.05 9.1 9.85 16.46 12.3 2.46.82 6.08 1.3 8.28 1.73 2.63.51 7.18.53 9.85.31.16-3.83.13-7.91-1.89-11.17-1.66-2.68-6.44-4.44-9.12-6.1-.14-.08-.27-.17-.41-.25-2.92-1.8-5.88-3.53-8.83-5.29-1.43-.85-2.86-1.71-4.28-2.59.02-.03.02-.04.01-.04l.04-.68c-1.54-7.43.03-12.89.05-19.33v-.7c0-.68.01-1.36.01-2.05 0-1.09.19-3.19.24-5.74h.47l4.6.01c.01.16.03.32.04.48 3.97.24 9.26.47 13.23.71.2.01.47-.57.81-1.34l.31.15h11.64v-.02l.66.06c6.23.5 13.19 1.37 19.43 1.19.03-.25.05-.5.07-.76h.11l14.2-.09h.74l-.73 53.28h-.17c-4.22 2.62-4.72 6.26-3.05 10.94.68 1.91 1.69 3.64 2.91 5.25l.09.12-.45 32.87-20.74 23.15h91.84l-20.42-23.15v-.95l-.04-1.74-1.03-75.85h.28c.17-.43.48-.76.86-.99l-.14-.21c3.23-2.54 2.84-7.84.33-11.09-.46-.6-.97-1.15-1.52-1.65l-.14-10.01h.53l14.84-.01h.16v-152.78c0-4.35-.26-19.69-3.66-37.04l-.18-.37c2.66-1.26 4.89-3.39 5.99-6.23.55-1.43.8-2.97.95-4.5.58-6.3-.87-13.07-5-17.62l.05-.04-10.95-18.4h-8.87l-.87-.17c.07-.29.11-.58.15-.87.86-6.97 2.82-6.91 5.98-12.79 2.97-5.51 2.74-15.62-3.45-22.29-3.16-3.4-6.73-6.36-9.84-9.8-.53-.58-1-1.27-1.44-2.04l1.48-.37c.08.12.16.23.25.34.72.87 1.76 1.51 2.88 1.57 1.13.06 2.3-.52 2.79-1.54.48-1.02.1-2.41-.9-2.92s-2.45.14-2.61 1.25l-2.96.18c-.83-2.5.39-5.7 2.9-6.7.95-.38 2-.47 2.99-.76 3.3-.96 5.71-4.29 5.78-7.74.07-3.44-2.07-6.78-5.15-8.34-3.08-1.55-6.92-1.34-9.92.36l-.42-.04c.37-3.15.97-5.96 1.74-8.05-4.1.09-8.2.19-12.3.28-.38 2.18-.89 4.92-1.45 7.94l-.9-.16c-2.36-1.41-14.96-2.09-14.59 12.41.1 4.12 2.68 7.82 6.25 9.87 1.15.65 2.39 1.22 3.24 2.23.65.78.99 1.8.99 2.81h1.25c-.05 3 .19 5.98 1.32 8.72 1.82 4.42 5.08 9.57 6.19 14.48l-.41.03c-14.49-11.04-33.89-18.38-59.87-18.67h-.56v.02c-30.77 0-52.45 9.81-67.72 23.96l-1.35-2.36-4.33-7.09-1.47 4.08-.43-.15c-2.72-.88-6.78 1.84-8.79 3.87l-.29-.04zm-2.45-59.5-.03.03 5.21 1.7-.95-5.55zm227.47-9.43v455.47c0 14.84-12.03 26.86-26.87 26.86h-232.69c-14.84 0-26.87-12.02-26.87-26.86v-455.47c0-14.84 12.03-26.87 26.87-26.87h232.69c14.84 0 26.87 12.03 26.87 26.87zm-28.95 409.63 4.61-3.18-4.74-4.66zm-3.02-15.64 2.43-6.56-8.76 2.81zm-6.53 27.12 6.14-2.08-5.28-4.31zm1.98 9.81 3.41-6.32-6.68 1.4zm-.96-50.91 1.41-8.02-7.46 3.24zm-5.54-26.42-.42-5.63-5.21 4.08zm-.16 31.49-4.17-6.91-1.48 5.16zm-1.57-48.53-3.18-7.04-3.77 5.08zm-65.92 53.91 5.26-3-7.87-1.83zm-.62 12.08 5.2-2.39-5.35-3.52zm2.38-24.14.27-7.5-5.12 4.91zm-23.98 67.47c2.22 2.72 6.2 5.29 9.53 4.14-1.88-.82-3.03-3.34-3.51-5.33s-.46-4.07-.84-6.08c-.78-4.16-3.26-7.9-6.54-10.57s-7.32-4.31-11.48-5.08c1.64 1.45 2.42 2.36 3.91 3.96 2.41 2.57 3.57 6.03 4.62 9.4 1.04 3.36 2.08 6.83 4.31 9.56zm-3.95-435.07 5.92-5.7-7.79-1.29zm2.38 9.38 3.28-4.34-7.3-1.14zm.25 379.52.29-.39c-.76-1.92-3.45-2.06-5.44-1.5s-4.16 1.49-6.02.59c1.33 1.68 3.35 2.8 5.48 3.04-2.17 1.87-3.57 4.59-3.84 7.44 1.57-1.73 3.4-3.22 5.41-4.41-.8 1.38-.4 3.19.55 4.47.95 1.27 2.35 2.12 3.71 2.94-1.62-1.38-1.71-3.85-1.27-5.93s1.29-4.13 1.13-6.25zm-13.7-368.54 5.91-5.69-7.79-1.29zm-5.94-20.56-3.67-6.99-4.44 5.71zm-3.39 435.77c1.76-.13 1.52-2.33.94-3.37s-1.54-1.8-2.48-2.53c-2-1.57-7.43-3.03-9.5-4.5-1.51-1.07-4.58-1.88-7.29-4.14-1.54-1.29-2.06-4.26-2.05-7.48h.45l9.44-.11 6.71-5.58c-1.74-9.68-7.32-18.62-15.25-24.43h-.23c-.14-2.72-.28-5.45-.41-8.18-.84 2.06-1.71 4.1-2.62 6.13l-.06-.03c-2.42-.98-5.18-1.15-7.7-.45-.29-2.22-.85-4.4-1.63-6.49-.86 2.03-1.32 4.63-1.83 7.1l-.11-.02c-8.69.62-13.66 8.84-16.17 14.92l-.34-.02h-6.26l-.44.29-11.78-17.8-10.22 18.77-.24-.13s-23.66 3.09-13.42 24.93l.12.07-3.36 6.17 27.12 13.06 33.04-12.94c4.71 4.99 8.08 7.83 13.55 11.98 1.01.77 2.08 1.54 3.32 1.8 1.25.25 2.72-.17 3.31-1.29l.79.02c.8.32 2.05-.17 2.21-1.38l.77.12c1.25-.26 2.43-1.31 2.71-2.51h.09c.94 1.13 2.25 1.92 3.67 2.23.37.09.77.13 1.13.01.44-.16.73-.56.84-1.02l.56.03c2.25-.31 2.56-1.78 2.06-3.22h.56zm-2.89-415.96-2.05-5.25-3.4 4.64zm-6.39 9.69 5.83-5.41-5.72-3.88zm-12.08-22.61 6.63-2.74-6.89-4.38zm3.42 18.81-2.25-7.04-3.1 6.06zm-8.47 14.98 1.07-7.88-6.88.64zm-7.16-40.74 7.61-3.1-6.76-4.08zm-5.77 16.33 2.68-6.33-6.62.42zm-8.53 9.23 7.48-2.28-8.3-4.98zm4.17 20.19v-5.77l-5.07 4.22zm-12.39-6.19 1.69-10.42-4.79 4.37zm-7.2-.55-2.05-5.24-3.4 4.63zm-3.51 11.94-5.49-5.75-3.8 5.78zm-7.46-31.1 5.1-3.37-4.84-2.82zm4.94-9.15-.99-5.91-6.48 5.06zm-.44 28.03-2.06-5.24-3.39 4.63zm-3.65 22.65-.14-5.63-6.47 2.39zm-2.25-67.15-2.11-5.77-5.35 4.64zm-6.21 47.08 1.06-7.88-6.88.64zm.58 29.5-4.79-5.63-1.97 6.34zm-2.27-48.04-1.67-4.89-3.82 4.55zm-3.65-16.87-5.49-5.75-3.8 5.78zm-6.44 42.52-4.32-8.66-3.22 6.56zm-7.8-16.32 6.48-1.27-6.48-5.21zm3.86 36.2-7.09-8.68-.17 10.66z" fill="#efede7"/><path d="m263.092 434.32-4.61 3.18-.13-7.84z" fill="#efede7"/><path d="m257.889 415.301-2.43 6.56-6.33-3.75z" fill="#efede7"/><path d="m235.789 454.77 20.42 23.15h-20.55v-.49c-3.52-6.78-7.59-15.1-10.71-22.07v-.59z" fill="#c3e9f9"/><path d="m255.07 446.9-6.14 2.08.86-6.39z" fill="#efede7"/><path d="m254.321 452.471-3.41 6.32-3.27-4.92z" fill="#efede7"/><path d="m190.871 159.289c-.6.56-1.24 1.07-1.93 1.53-.88.59-1.81 1.08-2.78 1.47-1.7.69-3.51 1.07-5.34 1.13-5.04.16-10.39-2.61-12.31-7.57-.55-1.43-.8-2.97-.94-4.5-.59-6.32.87-13.11 5.03-17.66h75.38s.02.03.04.04c4.13 4.55 5.58 11.32 5 17.62-.15 1.53-.4 3.07-.95 4.5-1.1 2.84-3.33 4.97-5.99 6.23-1.97.94-4.17 1.41-6.32 1.34-1.82-.06-3.64-.44-5.34-1.13-.89-.36-1.75-.8-2.56-1.32-1.26-.81-2.41-1.81-3.36-2.98l-.09.08c-2.01-.45-4.11.51-5.62 1.99-1.5 1.48-2.5 3.42-3.48 5.32-.69-1.96-1.55-4.11-3.35-4.95-1.66-.78-3.68-.14-5.01 1.15s-2.07 3.13-2.54 4.97c.14-2.13-.12-4.54-1.67-5.9-1.77-1.55-4.57-1.04-6.35.49-1.79 1.53-2.81 3.81-3.76 6.01.22-3.57-2.36-7.09-5.69-7.78z" fill="#c3e9f9"/><path d="m251.358 399.859-1.41 8.02-6.05-4.78z" fill="#efede7"/><path d="m239.282 298.099-2.15 2.93 5.45.61-2.05-5.25zm-4.35-1.31-.2-1.06c3.45-3.28 4.07-9.12 1.39-13.05-.75-1.09-1.69-2.02-2.71-2.87l-.56-41.17h6.89v-15.77h10.18v129.4h-15.53l-.75-55.37h.88c.14-.04.28-.07.41-.11zm7.83-17.33-1.67-4.88-3.82 4.55z" fill="#efede7"/><path d="m249.919 199.491v23.38h-10.18v15.77h-6.89l-1.06-77.56.07-.11c.81.52 1.67.96 2.56 1.32 1.7.69 3.52 1.07 5.34 1.13 2.15.07 4.35-.4 6.32-1.34l.18.37c3.4 17.35 3.66 32.69 3.66 37.04z" fill="#dabbf2"/><path d="m237.118 115.289 10.95 18.4-.05.04s-.03-.03-.04-.04h-75.33l10.94-18.4h15.88l.33.1c-.55 1.79-.79 3.64-.43 5.44.6 3.03 5.05 5.85 5.05 5.85 7.34 3.48 14.36-.1 14.36-.1 2.87-1.91 7.54-6.19 8.6-11.46l.87.17z" fill="#c3e9f9"/><path d="m245.949 428.481.01.01-5.21 2.39-.14-5.91z" fill="#efede7"/><path d="m243.991 375.83.42 5.63-5.63-1.55z" fill="#efede7"/><path d="m240.082 406.039 4.17 6.91-5.65-1.75z" fill="#efede7"/><path d="m239.5 357.381 3.18 7.04-6.95-1.96z" fill="#efede7"/><path d="m233.41 280.411v-.6c1.02.85 1.96 1.78 2.71 2.87 2.68 3.93 2.06 9.77-1.39 13.05l.2 1.06c-.13.04-.27.07-.41.1h-.88z" fill="#efede7"/><path d="m236.051 363.939c2.51 3.25 2.9 8.55-.33 11.09l.14.21c-.38.23-.69.56-.86.99h-.28l-.19-13.94c.55.5 1.06 1.05 1.52 1.65z" fill="#efede7"/><path d="m235.749 452.08.03 1.74c-.05.32-.08.63-.1.95h-50.57l.45-32.87c1.75 2.3 3.91 4.33 6.07 6.26 6.28 5.61 13.42 11.04 21.79 11.88 5.21.52 10.76-.75 15.53 1.42 4.06 1.83 6.8 6.19 6.8 10.62zm-17.38-6.19-3.8-5.34-2.25 5.2zm-19.99 3.95 6.33-3.38-6.33-2.54z" fill="#c3e9f9"/><path d="m186.759 334v-.91c1.24 1.22 2.64 2.3 4.03 3.33 10.95 8.11 22.72 15.1 35.09 20.82 3.04 1.4 6.22 2.81 8.65 5.05l.19 13.94 1.03 75.85c0-4.43-2.74-8.79-6.8-10.62-4.77-2.17-10.32-.9-15.53-1.42-8.37-.84-15.51-6.27-21.79-11.88-2.16-1.93-4.32-3.96-6.07-6.26v-.11l.22-16.2.73-53.27zm43.15 107.11 5.21-2.39-5.35-3.52zm-1.64-74.62-3.94-4.79-1.55 5.91zm-3.28 65.61 1.4-8.03-7.46 3.24zm-8.73-69.37.33-9.19-5.68 4.69zm-6.47 76.07 3.98-5.12-6.78-.7zm-3.11-80.81-3.94-4.78-1.55 5.91zm-1.12 72 .33-9.2-5.68 4.69zm-3.47-77.86-3.95-4.79-1.54 5.91zm-9.7 71.61-.42-6.47-5.53 3.98z" fill="#c3e9f9"/><path d="m235.661 477.43v.49h-25.54v-.37c.08-6.87.85-15.09 1.93-21.88v-.9h12.9v.59c3.12 6.97 7.19 15.29 10.71 22.07z" fill="#c3e9f9"/><path d="m194.59 332.929h2.77l-2.63-4.99-2.85 4.99zm2.04-165.78c.95-2.2 1.97-4.48 3.76-6.01 1.78-1.53 4.58-2.04 6.35-.49 1.55 1.36 1.81 3.77 1.67 5.9.47-1.84 1.21-3.68 2.54-4.97s3.35-1.93 5.01-1.15c1.8.84 2.66 2.99 3.35 4.95v109.32l.75.62c1.91-1.62 4.94-1.82 7.01-.38l.1-.1c1.82 1.86 4.2 3.26 6.24 4.97v.6l.23 16.49.75 55.38.14 10.01c-2.43-2.24-5.61-3.65-8.65-5.05-12.37-5.72-24.14-12.71-35.09-20.82-1.39-1.03-2.79-2.11-4.02-3.33l.21-15.77.71-52.02.81-59.67.34-24.76.27-19.79-.17-.26c.69-.46 1.33-.97 1.93-1.53l.07.08c3.33.69 5.91 4.21 5.69 7.78zm28.71 121.73 4.31-3.58-5.73-2.37zm3.54 60.63-2.06-5.25-3.39 4.64zm-12.92-69.14 6.48-1.27-6.48-5.21zm.63 67.91-2.55-6.27-4.26 5.81zm-10.47-10.32-1.97-7.04-3.1 3.94z" fill="#c3e9f9"/><path d="m230.06 79.1703c6.19 6.67 6.42 16.78 3.45 22.2897-3.16 5.88-5.12 5.82-5.98 12.79-.04.29-.08.58-.15.87-1.06 5.27-5.73 9.55-8.6 11.46 0 0-7.02 3.58-14.36.1 0 0-4.45-2.82-5.05-5.85-.36-1.8-.12-3.65.43-5.44.47-1.53 1.16-3.02 1.9-4.41 2.68-5.05 6.53-9.43 6.3-15.1397-.03-.88-.17-1.78-.37-2.69-1.11-4.91-4.37-10.06-6.19-14.48-1.13-2.74-1.37-5.72-1.32-8.71.02-1.08.07-2.16.14-3.24.36-5.9 2.13-15.87 3.62-23.93.56-3.02 1.07-5.76 1.45-7.94 4.1-.09 8.2-.19 12.3-.28-.77 2.09-1.37 4.9-1.74 8.05-.96 8.3-.33 18.92 2.89 24.71.44.77.91 1.46 1.44 2.04 3.11 3.44 6.68 6.4 9.84 9.8z" fill="#f5ccc0"/><path d="m227.169 274.841-.1.1c-2.07-1.44-5.1-1.24-7.01.38l-.75-.62v-109.32c.98-1.9 1.98-3.84 3.48-5.32 1.51-1.48 3.61-2.44 5.62-1.99l.09-.08c.95 1.17 2.1 2.17 3.36 2.98l-.07.11 1.06 77.56.56 41.17c-2.04-1.71-4.42-3.11-6.24-4.97zm1.82-12.73-.95-5.55-4.26 3.85z" fill="#c3e9f9"/><path d="m226.231 42.3001c3.08 1.56 5.22 4.9 5.15 8.34-.07 3.45-2.48 6.78-5.78 7.74-.99.29-2.04.38-2.99.76-2.51 1-3.73 4.1999-2.9 6.6999.13.39.31.7701.55 1.1201l-1.48.37c-3.22-5.79-3.85-16.41-2.89-24.71l.42.04c3-1.7 6.84-1.91 9.92-.36z" fill="#efede7"/><path d="m225.281 64.4108c1 .51 1.38 1.9.9 2.92-.49 1.02-1.66 1.6-2.79 1.54-1.12-.06-2.16-.7-2.88-1.57-.09-.11-.17-.22-.25-.34-.24-.35-.42-.73-.55-1.12l2.96-.18c.16-1.11 1.61-1.76 2.61-1.25z" fill="#efede7"/><path d="m212.048 454.77v.9c-1.08 6.79-1.85 15.01-1.93 21.88v.37h-27.88v-.12c6.53-6.38 10.92-16.65 17.92-22.5v-.53z" fill="#c3e9f9"/><path d="m208.002 95.8398c.23 5.7102-3.62 10.0902-6.3 15.1402-.74 1.39-1.43 2.88-1.9 4.41l-.33-.1h-15.88l-10.94 18.4h-.05c-4.16 4.55-5.62 11.34-5.03 17.66.14 1.53.39 3.07.94 4.5 1.92 4.96 7.27 7.73 12.31 7.57 1.83-.06 3.64-.44 5.34-1.13.97-.39 1.9-.88 2.78-1.47l.17.26-.27 19.79h-.79c-4.4 1.91-11.17 5.44-15.85 4.34-7.19-1.68-10.67-10.73-17.79-12.67-2.28-.62-4.52-.44-6.75.15v-97.5902l-.31-.05v-.54c25.98.29 45.38 7.63 59.87 18.67l.41-.03c.2.91.34 1.81.37 2.69z" fill="#dabbf2"/><path d="m202.981 42.6299.9.16c-1.49 8.06-3.26 18.03-3.62 23.93-.07 1.08-.12 2.16-.14 3.24h-1.25c0-1.02-.34-2.04-.99-2.82-.85-1.01-2.09-1.58-3.24-2.23-3.57-2.05-6.15-5.75-6.25-9.87-.37-14.5 12.23-13.82 14.59-12.41z" fill="#efede7"/><path d="m185.111 454.77h15.05v.53c-7 5.85-11.39 16.12-17.92 22.5v.12h-17.87z" fill="#c3e9f9"/><path d="m147.658 172.689c2.23-.59 4.47-.77 6.75-.15 7.12 1.94 10.6 10.99 17.79 12.67 4.68 1.1 11.45-2.43 15.85-4.35h.79l-.34 24.77c-4.81 2.4-7.06 1.96-13.32-.84-2.91-1.31-5.76-2.96-8.93-3.33-9.38-1.1-18.16 9.23-27.05 6.04-4.78-1.71-7.89-7.02-12.91-7.8-4.76-.74-8.94 2.86-13.23 5.07-3.72 1.92-8.05 2.87-12.17 2.1-4.1296-.78-7.9796-3.43-9.6896-7.26-1.07-2.37-1.28-5.06-.99-7.64.66-6.1 4.13-11.83 9.22-15.26 5.0796-3.43 11.6996-4.48 17.5996-2.8 4.42 1.25 8.5 3.96 13.09 4.16 6.08.27 11.78-3.88 17.54-5.38z" fill="#efede7"/><path d="m88.061 259.091 7.17-14.1c-3.06 3.34-5.46 5.78-8.31 7.93-1.33 1-2.67 2.02-3.68 3.34l-.49-.15c1.64-5.11 2.94-10.35 3.87-15.64-2.82 4.45-5.65 8.89-8.48 13.33-.82 1.29-1.65 2.59-2.69 3.72-.99 1.06-2.14 1.95-3.3 2.83-4.12 3.13-7.6 5.82-10.63 8.67l-.31-.33v-69.16c0-5.39-.1-26.09 6.31-49.19l.21.06c5.1-1.92 10.15-4.48 13.65-8.66 2.31-2.77 3.81-6.39 3.88-9.95l.45.27 7.39 4.48v-6.47l-7.22 1.55-.62.13c.04-1.8-.29-3.58-1.06-5.23-1.08-2.33-2.76-4.04-4.78-5.43 12.36-21.7402 33.11-40.8002 67.93-46.0402l.31.05v97.5902c-5.76 1.5-11.46 5.65-17.54 5.38-4.59-.2-8.67-2.91-13.09-4.16-5.9-1.68-12.52-.63-17.6 2.8-5.09 3.43-8.56 9.16-9.22 15.26-.29 2.58-.08 5.27.99 7.64 1.71 3.83 5.56 6.48 9.69 7.26 4.12.77 8.45-.18 12.17-2.1 4.29-2.21 8.47-5.81 13.23-5.07 5.02.78 8.13 6.09 12.91 7.8 8.89 3.19 17.67-7.14 27.05-6.04 3.17.37 6.02 2.02 8.93 3.33 6.26 2.8 8.51 3.24 13.32.84l-.81 59.67h-.46l-9.06-.01v15.77h-15.77v15.67h-14.92v15.77h-15.77v11.55l-.29.11c-.13-.18-.24-.33-.31-.43-1.76-2.29-3.16-4.27-4.38-6.07-2.08-3.11-3.6-5.69-5.5-8.42-1.53-2.2-3.34-5.35-5.98-5.73-3.3-.47-6.27 1.9-8.76 4.12-1.12.99-2.19 2.04-3.22 3.11l-.39-.38c-.62-.94-1.22-1.88-1.81-2.84l.25-.16c7.55-6.32 14.81-12.34 22.66-18.04l.24.34c.3 1.95.06 4.06.7 5.97 1.71-.27 3.42-1.32 5.13-1.59.09-2.96-1.09-4.93-1.21-7.89l-.12-.18c2.31-1.6 4.73-3.3 5.85-5.87.41-.92.62-2 .21-2.92s-1.61-1.51-2.47-.99c.91-1.05.94-2.77.05-3.85-.88-1.08-2.57-1.38-3.78-.69.82-.96-.25-2.58-1.51-2.64-.34-.02-.68.04-.99.16l-.14-.61c-.31-4.61-1.72-13.07-2.69-17.59l-.69-.08c.2-.15.4-.31.6-.47-1.21-1.84-2.69-3.34-3.9-5.17-.63 2.13-2.05 4.17-1.88 6.38v.17c.3 2.63 1.43 9.9 1.84 12.51l-.08.09c-.43-.36-.95-.63-1.5-.87-.99-.42-2.62-.53-1.55 2.09.36.88.34 1.85.58 2.76 1.07 4.07-.4 8.48-2.91 11.85-2.51 3.38-14.27 14.83-17.67 17.31l-.57.3c-.56-1.06-1.09-2.12-1.62-3.19-2.14 2.3-4.3 4.61-6.16 7.14l-.21-.16c-.26.1-.52.19-.78.28l-.05-.14c-.42-3.43-.85-6.86-1.28-10.29-1.06.05-2.11.1-3.17.15l-.04-.79c.32-1.89.63-3.78.94-5.67l-.14-.49c.94-.26 1.85-.62 2.71-1.09 1.98-1.08 3.68-2.77 4.55-4.85.4-.97.63-2 .85-3.03l.84-3.9c2.38-1 4.68-1.43 7.63-2.26-4.16-4.14-9.15-7.44-13.52-11.36.61.29 1.28.6 1.97.9 0 0 .01-.01.01 0zm23.63-129.16-4.23-8.31-5.35 7.88zm-14.93-8.03 3.38-6.05-6.47.28zm-8.44 31.68 2.53-7.46-7.04 1.69zm-11.12-.99-3.52-4.5-2.12 6.19z" fill="#dabbf2"/><path d="m186.762 333.999-.25 18.32h-.74l-14.2.09h-.11c.37-3.97.32-9.2-2.48-11.76-1.5-1.38-3.55-1.97-5.53-2.42-2.02-.46-4.07-.79-6.14-1.03-3.13-.37-6.29-.52-9.39-.57-.69-.02-1.84-.13-2.99-.26-1.79-.22-3.56-.48-3.56-.48s-.05.05-.15.14l-.23-.29c-.79-1.55-2.13-2.81-3.71-3.56l.02-.04c-.7-.98-4.58-6.2-5.88-7.98l.29-.11v-11.55h15.77v-15.77h14.92v-15.67h15.77v-15.77h9.52l-.71 52.03h-.43c-4.49 3.06-5.08 7.17-2.61 12.02.72 1.41 1.7 2.63 2.83 3.75v.91zm-10.78 5.65 6.48-1.27-6.48-5.21zm2.12-20.84 3.52-4.22-4.93-1.55zm.33 8.48 2.83-4.87-5.74.23z" fill="#efede7"/><path d="m185.782 405.59-.22 16.2s-.06-.01-.09-.01c-1.22-1.61-2.23-3.34-2.91-5.25-1.67-4.68-1.17-8.32 3.05-10.94z" fill="#efede7"/><path d="m182.018 415.33-5.26 3-2.61-4.83z" fill="#efede7"/><path d="m181.338 428.02-5.2 2.39-.15-5.91z" fill="#efede7"/><path d="m178.792 398.77-.27 7.5-4.85-2.59z" fill="#efede7"/><path d="m126.241 340.591c6.02 3.03 13.8-3.53 14.98-4.56.1-.09.15-.14.15-.14s1.77.26 3.56.48c-.12 2.04.58 4.32 2.35 5.35.93.54 2.05.67 3.13.66 2.06-.01 4.29-.59 5.5-2.25.63-.85.92-1.89 1.39-2.84v-.09c2.08.24 4.13.57 6.15 1.03 1.98.45 4.03 1.04 5.53 2.42 2.8 2.56 2.85 7.79 2.48 11.75-.02.26-.04.51-.07.76-6.24.18-13.2-.69-19.43-1.19l-.66-.06c-3.66-.37-6.94-1.31-9.83-3.64-.86.46-1.58 2.24-2.12 3.51-.34.77-.61 1.35-.81 1.34-3.97-.24-9.26-.47-13.23-.71-.01-.16-.03-.32-.04-.48-.25-3.6-.06-8.08.55-11.56.14.08.28.16.42.22z" fill="#dabbf2"/><path d="m164.069 477.88c-3.33 1.15-7.31-1.42-9.53-4.14-2.23-2.73-3.27-6.2-4.31-9.56-1.05-3.37-2.21-6.83-4.62-9.4-1.49-1.6-2.27-2.51-3.91-3.96 4.16.77 8.2 2.41 11.48 5.08s5.76 6.41 6.54 10.57c.38 2.01.36 4.09.84 6.08s1.63 4.51 3.51 5.33z" fill="#efede7"/><path d="m157.311 337.199v.09c-.48.95-.77 1.99-1.4 2.84-1.21 1.66-3.44 2.24-5.5 2.25-1.08.01-2.2-.12-3.13-.66-1.77-1.03-2.47-3.31-2.35-5.35 1.15.13 2.3.24 2.99.26 3.1.05 6.26.2 9.39.57z" fill="#f5ccc0"/><path d="m156.509 32.9697-5.92 5.7-1.87-6.99z" fill="#efede7"/><path d="m156.249 43.7103-3.28 4.34-4.02-5.48z" fill="#efede7"/><path d="m153.511 427.18-.29.39c.16 2.12-.69 4.17-1.13 6.25s-.35 4.55 1.27 5.93c-1.36-.82-2.76-1.67-3.71-2.94-.95-1.28-1.35-3.09-.55-4.47-2.01 1.19-3.84 2.68-5.41 4.41.27-2.85 1.67-5.57 3.84-7.44-2.13-.24-4.15-1.36-5.48-3.04 1.86.9 4.03-.03 6.02-.59s4.68-.42 5.44 1.5z" fill="#efede7"/><path d="m147.349 74.5098v.54c-34.82 5.24-55.5696 24.3-67.9296 46.0402-3.77-2.58-8.75-3.99-13.29-6-.18-.29-.36-.59-.52-.89 3.82-5.59 8.27-10.9 13.46-15.7102 15.27-14.15 36.9496-23.96 67.7196-23.96v-.02z" fill="#c3e9f9"/><path d="m145.431 53.3408-5.91 5.69-1.88-6.98z" fill="#efede7"/><path d="m142.491 394.691c2.02 3.26 2.05 7.34 1.89 11.17-2.67.22-7.22.2-9.85-.31-2.2-.43-5.82-.91-8.28-1.73-7.36-2.45-13.23-5.25-16.46-12.3-.76 1.32-2.33 4.92-2.73 4.92-2.75.01-6.1-.55-8.8501-.54.85-5.4 2.8001-10.48 5.4201-15.28.03.21.34.14.66.25 2.95.73 4.1.95 7.2 1.23 2.78.24 6.39.3 8.36-1.64 1.42.88 2.85 1.74 4.28 2.59l-.25.43c-1.09 1.24-1.81 2.8-2.04 4.43-.08.56-.1 1.15.09 1.69.42 1.26 1.8 1.94 3.11 2.17 2.71.47 5.62-.51 7.5-2.51.08-.08.16-.19.12-.29-.01-.02-.02-.04-.05-.05l.35-.58c.14.08.27.17.41.25 2.68 1.66 7.46 3.42 9.12 6.1z" fill="#dabbf2"/><path d="m137.279 332.18c1.58.75 2.92 2.01 3.71 3.56l.23.29c-1.18 1.03-8.96 7.59-14.98 4.56-1.82-2.39-2.37-3.4-4.04-5.55-.26-.34-.55-.71-.88-1.12-1.58-2.81-4.19-5.12-6.44-7.57l1.53-.22c3.39-2.01 6.54-5.21 9.65-8.02l.67-.45c1.22 1.8 2.62 3.78 4.38 6.07.07.1.18.25.31.43 1.3 1.78 5.18 7 5.88 7.98z" fill="#f5ccc0"/><path d="m121.541 273.16h.04c1.02-.74 1.62-1.27 2.38-2.27.55-.74 1.28-1.42 2.12-1.72.31-.12.65-.18.99-.16 1.26.06 2.33 1.68 1.51 2.64 1.21-.69 2.9-.39 3.78.69.89 1.08.86 2.8-.05 3.85.86-.52 2.06.07 2.47.99s.2 2-.21 2.92c-1.12 2.57-3.54 4.27-5.85 5.87-.04.02-.08.05-.12.08-1.57 1.08-3.11 2.17-4.62 3.27-7.85 5.7-15.11 11.72-22.66 18.04l-.25.16c-1.9697-3.15-3.8197-6.38-5.5398-9.68l.57-.3c3.4-2.48 15.1598-13.93 17.6698-17.31 2.51-3.37 3.98-7.78 2.91-11.85-.24-.91-.22-1.88-.58-2.76-1.07-2.62.56-2.51 1.55-2.09.55.24 1.07.51 1.5.87.41.35.74.77.94 1.32.79 2.12 1.47 4.96 1.45 7.44z" fill="#efede7"/><path d="m129.909 31.4805 3.67 6.99-8.11-1.28z" fill="#efede7"/><path d="m132.609 388.921s.04.03.05.05c.04.1-.04.21-.12.29-1.88 2-4.79 2.98-7.5 2.51-1.31-.23-2.69-.91-3.11-2.17-.19-.54-.17-1.13-.09-1.69.23-1.63.95-3.19 2.04-4.43l.25-.43c2.95 1.76 5.91 3.49 8.83 5.29z" fill="#f5ccc0"/><path d="m99.0606 435.77c-.1.08-.19.16-.26.26-.06-.02-.13-.03-.19-.03-.07.22-.09.45-.08.68-.04.26-.01.54.12.78.02 0 .04 0 .06-.01.02.05.04.1.07.15.09-.08.17-.17.24-.27.2-.13.35-.37.34-.62 0-.08-.02-.16-.05-.24 0-.03 0-.05 0-.08v-.04s0-.09 0-.13c-.01-.18-.06-.36-.16-.51zm5.2804 3.74c.18.07.37.14.55.21.2-.28-.39-.44-.55-.21zm5.05-3.61c-.1.07-.19.15-.26.25-.06-.01-.13-.02-.19-.02-.07.22-.09.44-.08.67-.04.27-.01.55.12.79.02 0 .04 0 .06-.01.02.05.04.09.07.14.08-.07.16-.16.23-.25.21-.14.36-.38.35-.63 0-.08-.02-.17-.05-.24.01-.05.01-.09.01-.13s0-.08-.01-.13c0-.18-.06-.35-.16-.5zm.71 11.97c-.18 1.41-.29 2.91-.29 4.35-.01 3.22.51 6.19 2.05 7.48 2.71 2.26 5.78 3.07 7.29 4.14 2.07 1.47 7.5 2.93 9.5 4.5.94.73 1.9 1.49 2.48 2.53s.82 3.24-.94 3.37h-.56c.5 1.45.19 2.92-2.06 3.23l-.56-.03c-.11.46-.4.86-.84 1.02-.36.12-.76.08-1.13-.01-1.42-.31-2.73-1.1-3.67-2.22h-.09c-.28 1.19-1.46 2.24-2.71 2.5l-.77-.12c-.16 1.21-1.41 1.7-2.21 1.38l-.79-.02c-.59 1.12-2.06 1.54-3.31 1.29-1.24-.26-2.31-1.03-3.32-1.8-5.47-4.15-8.8404-6.99-13.5504-11.98l-12.73-19.24.03-.02 10.99-3.53c.31-3.49.79-6.97 1.43-10.42.75-4.03 2.18-8.59 5.9704-10.13 3.08-1.25 6.77.1 8.97 2.58s3.13 5.86 3.43 9.16.16 8.78-2.61 11.99z" fill="#efede7"/><path d="m128.84 286.151c.12 2.96 1.3 4.93 1.21 7.89-1.71.27-3.42 1.32-5.13 1.59-.64-1.91-.4-4.02-.7-5.97l-.24-.34c1.51-1.1 3.05-2.19 4.62-3.27.04-.03.08-.06.12-.08z" fill="#dfd1bc"/><path d="m125.252 53.0391 2.05 5.25-5.45-.61z" fill="#efede7"/><path d="m126.74 62.5695-5.83 5.41.11-9.29z" fill="#efede7"/><path d="m126.73 317.659-.67.45c-3.11 2.81-6.26 6.01-9.65 8.02l-1.53.22c-1.36-1.47-2.59-3-3.39-4.72-2.26 3.73-4.47 6.95-6.68 9.82-3.67 4.78-7.3201 8.59-11.1801 12.14-2.7 2.49-5.29 5.35-8.25 7.4-3.3 2.29-7.06 3.6-11.97 2.31l-.68.07c-.12-1.18-.33-2.35-.45-3.52-.6-5.98-1.92-13.58 6.71-19.97l-.04-.22c1.12-.19 2.26-.55 3.43-.98l.7-.23c8.72-3.92 13.96-11.31 20.1901-17.71 1.03-1.07 2.1-2.12 3.22-3.11 2.49-2.22 5.46-4.59 8.76-4.12 2.64.38 4.45 3.53 5.98 5.73 1.9 2.73 3.42 5.31 5.5 8.42z" fill="#efede7"/><path d="m126.409 446.529-6.71 5.58-9.44.12h-.45c0-1.45.11-2.95.29-4.36 4.5.13 11.83-.73 16.31-1.34z" fill="#efede7"/><path d="m126.24 340.589c-.14-.06-.28-.14-.42-.22-.61 3.48-.8 7.96-.55 11.56h-5.07c.1-5.28-.4-12.5-4.43-16.78h.01l6.29-.01.13-.1c1.67 2.15 2.22 3.16 4.04 5.55z" fill="#efede7"/><path d="m125.941 268.561.14.61c-.84.3-1.57.98-2.12 1.72-.76 1-1.36 1.53-2.38 2.27h-.04c.02-2.48-.66-5.32-1.45-7.44-.2-.55-.53-.97-.94-1.32l.08-.09c-.41-2.61-1.54-9.88-1.84-12.51 0-.06 0-.11 0-.17l.32-.02c.77.67 1.92.73 2.88.4.73-.24 1.37-.66 1.98-1.12l.69.08c.97 4.52 2.38 12.98 2.69 17.59z" fill="#dfd1bc"/><path d="m123.161 250.42c-.2.16-.4.32-.6.47-.61.46-1.25.88-1.98 1.12-.96.33-2.11.27-2.88-.4l-.32.02c-.17-2.21 1.25-4.25 1.88-6.38 1.21 1.83 2.69 3.33 3.9 5.17z" fill="#dfd1bc"/><path d="m122.199 335.041-.13.1h-6.3c-2.19-2.35-5.47-3.82-10.31-3.57l-.65-.12c2.21-2.87 4.42-6.09 6.68-9.82.8 1.72 2.03 3.25 3.39 4.72 2.25 2.45 4.86 4.76 6.44 7.57.33.41.62.78.88 1.12z" fill="#dabbf2"/><path d="m96.6802 420.18c.51-2.47.97-5.07 1.83-7.1.78 2.09 1.34 4.27 1.6298 6.49 2.52-.7 5.28-.53 7.7.45l.06.03c.91-2.03 1.78-4.07 2.62-6.13.13 2.73.27 5.46.41 8.19h.23c7.93 5.8 13.51 14.74 15.25 24.42-4.48.61-11.81 1.47-16.31 1.34 2.77-3.21 2.91-8.69 2.61-11.99s-1.23-6.68-3.43-9.16-5.89-3.83-8.97-2.58c-3.7898 1.54-5.2199 6.1-5.9699 10.13-.64 3.45-1.1199 6.93-1.4299 10.42-2.58-1.82-5.17-3.63-7.75-5.45 2.01-6.77 2.74-15.1 11.41-19.08z" fill="#efede7"/><path d="m94.9289 352.309c-3.51 1.06-7.05 1.18-9.41-1.12l-.14-.2c2.96-2.05 5.55-4.91 8.25-7.4 3.86-3.55 7.5101-7.36 11.1801-12.14l.65.12c4.84-.25 8.12 1.22 10.31 3.58 4.03 4.28 4.53 11.5 4.43 16.77-.05 2.55-.24 4.65-.24 5.74 0 .69-.01 1.37-.01 2.05h-.51c-4.86.06-9.55.2-13.75.08h-.23c-.33-4.63.46-8.95 1.13-13.58-1.08.77-6.34 4.51-11.6601 6.1z" fill="#efede7"/><path d="m105.189 375.331-.08-.04c-.32-5.18-1.01-8.97.38-15.06-.01-.14-.02-.29-.03-.43h.23c4.2.11 8.89-.03 13.75-.09h.51v.7c-.02 6.44-1.59 11.9-.05 19.33l-.04.68s-.11.08-.01.04c-1.97 1.94-5.58 1.88-8.36 1.64-3.1-.28-4.25-.5-7.2-1.23.02-1.39.07-3.75.65-5.01.08-.17.16-.34.25-.53z" fill="#f5ccc0"/><path d="m115.46 42.63-6.63 2.74-.26-7.12z" fill="#efede7"/><path d="m109.998 57.1406 2.25 7.04-5.35-.98z" fill="#efede7"/><path d="m107.459 121.619 4.23 8.31-9.58-.43z" fill="#efede7"/><path d="m104.849 71.2793-1.07 7.88-5.8102-7.24z" fill="#efede7"/><path d="m104.231 35.3202-7.6099 3.1.85-7.18z" fill="#efede7"/><path d="m43.4095 387.62c-1.6-8.54-.61-17.29 2.11-25.62l-.58-.19c-1.77-2.82-2.45-6.16-2.3-9.5.1-2.17.55-4.35 1.28-6.39 1.85-5.17 5.29-9.61 8.9-13.75 1.48-1.7 3-3.37 4.42-5.12l-.89-.7c-3.38-4.09-3.36-10.6.04-14.67l.21-.08c.51 1.31 1.18 2.55 2.02 3.68h.08c.2-8.04 3.47-15.98 9.01-21.82.42-.44.87-.88 1.44-1.09.4-.15.82-.18 1.25-.2h.07l11.79-.54c1.06-.05 2.11-.1 3.17-.15.43 3.43.86 6.86 1.28 10.29l.05.14c.26-.09.52-.18.78-.28l.21.16c1.86-2.53 4.02-4.84 6.16-7.14.53 1.07 1.06 2.13 1.62 3.19 1.72 3.3 3.57 6.53 5.5405 9.68.59.96 1.19 1.9 1.81 2.84l.39.38c-6.2305 6.4-11.4705 13.79-20.1905 17.71l-.7.23c-1.17.43-2.31.79-3.43.98l.04.22c-8.63 6.39-7.31 13.99-6.71 19.97.12 1.17.33 2.34.45 3.52.09.83.14 1.66.07 2.49-.44 5.2-4.97 9.07-6.75 13.98-1.52 4.22-2.41 16.35-4.32 20.41-2.03 4.3-6.46 6.93-9.32 10.73-1.45 1.92-2.48 4.11-3.5 6.29-2.97 6.35-4.48 8.31-7.45 14.66-2.55-6.09-5.11-15.75-3.12-22.04 1.11-3.52 4.09-2.93 5.06-12.27z" fill="#f5ccc0"/><path d="m100.142 115.85-3.3801 6.05-3.09-5.77z" fill="#efede7"/><path d="m99.1113 436.949c.1-.14.1699-.31.1999-.48-.01.3-.11.61-.29.86-.1.07-.1999.11-.3099.12-.12-.24-.1801-.5-.1801-.77.03-.23.1201-.46.2701-.65.1.02.2.07.28.14z" fill="#f5ccc0"/><path d="m86.0816 258.19c-1.67-.81-2.97-1.54-3.48-1.59.05-.16.11-.33.15-.49l.49.15c1.01-1.32 2.35-2.34 3.68-3.34 2.85-2.15 5.25-4.59 8.31-7.93l-7.17 14.1h-.01c-.69-.3-1.36-.61-1.97-.9z" fill="#efede7"/><path d="m81.8881 448.241 12.73 19.24-33.04 12.94v-62.87l11.78 17.8 4.37 6.61z" fill="#c3e9f9"/><path d="m85.7596 265.531c-.14.73.01 1.52.45 2.14.09.12.19.24.32.32.05.07.1.13.16.19.01-.04.03-.07.03-.11.04-.1.07-.21.09-.32 0 .02 0 .03.02.05.48-.77.29-1.85-.35-2.47-.12-.22-.26-.42-.43-.6-.14.25-.24.52-.29.8zm-17.33 9.73c-2.03 2.18-4.27 4.16-6.51 6.14-4.07 3.6-3.14 4.19-7.21 7.79-1.26 1.12-3.04 2.29-4.48 1.42-1.55-.94-1.13-3.29-.39-4.95 3.29-7.39 6.94-12.2 11.68-16.64 3.03-2.85 6.51-5.54 10.63-8.67 1.16-.88 2.31-1.77 3.3-2.83 1.04-1.13 1.87-2.43 2.69-3.72 2.83-4.44 5.66-8.88 8.48-13.33-.93 5.29-2.23 10.53-3.87 15.64-.04.16-.1.33-.15.49.51.05 1.81.78 3.48 1.59 4.37 3.92 9.36 7.22 13.52 11.36-2.95.83-5.25 1.26-7.63 2.26l-.84 3.9c-.22 1.03-.45 2.06-.85 3.03-.87 2.08-2.57 3.77-4.55 4.85-.86.47-1.77.83-2.71 1.09l.14.49c-.31 1.89-.62 3.78-.94 5.67l.04.79-11.79.54h-.07l-.02-.35c.12-1.64.23-3.55.17-5.41-.05-1.42-.21-2.82-.55-4.04-.28-.98-.68-1.92-.94-2.9-.34-1.27-.45-2.61-.32-3.92z" fill="#efede7"/><path d="m93.5302 48.4199-2.68 6.33-3.94-5.91z" fill="#efede7"/><path d="m93.1009 130.07v6.47l-7.39-4.48c.06-.15.11-.3.17-.44z" fill="#efede7"/><path d="m92.9105 444.69-10.99 3.53-.03.02-4.16-6.28.55-.36 6.88-2.36c2.58 1.82 5.17 3.63 7.75 5.45z" fill="#efede7"/><path d="m90.8486 146.119-2.53 7.46-4.51-5.77z" fill="#efede7"/><path d="m89.8 61.7007-7.48 2.28-.82-7.26z" fill="#efede7"/><path d="m96.5713 420.16c-8.67 3.98-9.4 12.31-11.41 19.08l-6.8801 2.36s.6201-2.87 2.1201-6.52c2.51-6.08 7.48-14.3 16.17-14.92z" fill="#efede7"/><path d="m86.4919 78.4004v5.77l-5.07-1.55z" fill="#efede7"/><path d="m84.1995 126.52c.77 1.65 1.1 3.43 1.06 5.23h-.04l.04.04c-.07 3.56-1.57 7.18-3.88 9.95-3.5 4.18-8.55 6.74-13.65 8.66l-.21-.06c2.67-9.64 6.48-19.71 11.9-29.25 2.02 1.39 3.7 3.1 4.78 5.43z" fill="#dabbf2"/><path d="m80.0594 435.061.34.02c-1.5 3.65-2.12 6.52-2.12 6.52l-.55.36-4.37-6.61.44-.29z" fill="#efede7"/><path d="m77.7183 96.1309 1.35 2.3601c-5.19 4.81-9.64 10.12-13.46 15.71-2.92-5.24-4.04-11.46-3.2-17.4l.29.0399c2.01-2.03 6.07-4.7499 8.79-3.8699l.43.15-.72 2.0099z" fill="#efede7"/><path d="m73.3892 89.0391 4.33 7.09-6.52-1 .72-2.01z" fill="#efede7"/><path d="m75.79 67.5605-1.69 10.4201-3.1-6.0501z" fill="#efede7"/><path d="m66.1306 115.089c4.54 2.01 9.52 3.42 13.29 6-5.42 9.54-9.23 19.61-11.9 29.25-6.41 23.1-6.31 43.8-6.31 49.19v69.16l.31.33c-4.74 4.44-8.39 9.25-11.68 16.64-.74 1.66-1.16 4.01.39 4.95 1.44.87 3.22-.3 4.48-1.42 4.07-3.6 3.14-4.19 7.21-7.79v9.1l.26.29c-2.29 1.98-4.16 4.43-5.35 7.22-1.82 4.27-1.92 9.29-.23 13.59l-.21.08c-3.4 4.07-3.42 10.58-.04 14.67l.89.7c-1.42 1.75-2.94 3.42-4.42 5.12-3.61 4.14-7.05 8.58-8.9 13.75-.73 2.04-1.18 4.22-1.28 6.39v-152.78c0-8.22.18-51.48 22.65-84.83.28.13.56.26.85.39zm5.15 11.18 4.09-6.9-6.9 2.53z" fill="#c3e9f9"/><path d="m70.5487 286.41c.06 1.86-.05 3.77-.17 5.41l.02.35c-.43.02-.85.05-1.25.2-.57.21-1.02.65-1.44 1.09-5.54 5.84-8.81 13.78-9.01 21.82h-.08c-.84-1.13-1.51-2.37-2.02-3.68-1.69-4.3-1.59-9.32.23-13.59 1.19-2.79 3.06-5.24 5.35-7.22s5.01-3.48 7.91-4.37h.46z" fill="#f5ccc0"/><path d="m70.5519 286.41h-.46c-2.9.9-5.62 2.4-7.91 4.38l-.26-.29v-9.1c2.24-1.98 4.48-3.96 6.51-6.14l.31.29c-.13 1.31-.02 2.65.32 3.92.26.98.66 1.92.94 2.9.34 1.22.5 2.62.55 4.04z" fill="#dabbf2"/><g fill="#efede7"><path d="m64.8492 72.1895 2.05 5.24-5.45-.61z"/><path d="m59.9597 37.3005 4.23-3.82.95 5.55-5.21-1.7z"/><path d="m57.9016 83.6191 5.49 5.75-9.29.03z"/><path d="m61.5809 417.551v62.87l-27.12-13.06 3.36-6.17 13.54-24.87z"/><path d="m61.0297 54.9001-5.1 3.37.26-6.19z"/><path d="m59.8784 43.2109.99 5.91-7.47-.85z"/><path d="m58.3705 71.9102 2.06 5.24-5.45-.61z"/><path d="m56.6419 94.1699.14 5.63-6.61-3.24z"/><path d="m52.4203 26.8809 2.11 5.77-7.46-1.13z"/><path d="m51.3594 436.319-13.54 24.87-.12-.07c-10.24-21.84 13.42-24.93 13.42-24.93z"/><path d="m49.38 71.8496-1.06 7.88-5.82-7.24z"/><path d="m44.1106 103.6 4.79 5.63-6.76.71z"/><path d="m44.9606 56.3008 1.67 4.89-5.49-.34z"/><path d="m37.4914 38.5703 5.49 5.75-9.29.03z"/><path d="m32.22 78.1797 4.32 8.66-7.54-2.1z"/><path d="m35.2183 69.2491-6.48 1.27v-6.48z"/><path d="m25.5098 98.0391 7.09 8.6799-7.26 1.98z"/></g><g stroke="#010101" stroke-linecap="round" stroke-linejoin="round" stroke-width="2"><path d="m107.102 421.8c.27-.58.53-1.16.8-1.75.91-2.03 1.78-4.07 2.62-6.13.13 2.73.27 5.46.41 8.19.03.53.05 1.06.08 1.59"/><path d="m100.291 420.9c-.04-.45-.09-.89-.15-1.33-.2899-2.22-.8499-4.4-1.6299-6.49-.86 2.03-1.32 4.63-1.83 7.1-.25 1.14-.5 2.24-.81 3.26"/><path d="m110.098 447.869c-1.83 2.38-5.21 3.75-7.95 2.53"/><path d="m96.5702 420.16c-8.67 3.98-9.4 12.31-11.41 19.08 2.58 1.82 5.17 3.63 7.75 5.45.31-3.49.7899-6.97 1.4299-10.42.75-4.03 2.1801-8.59 5.9699-10.13 3.08-1.25 6.77.1 8.97 2.58s3.13 5.86 3.43 9.16.16 8.78-2.61 11.99c4.5.13 11.83-.73 16.31-1.34-1.74-9.68-7.32-18.62-15.25-24.43"/><path d="m100.078 419.591s.04-.01.06-.02c2.52-.7 5.28-.53 7.7.45"/><path d="m104.341 439.509s-.04.08-.04.13c.01.39.67.47.88.13.28-.16.31-.61.07-.82s-.67-.11-.8.19"/><path d="m104.34 439.51c.18.07.37.14.55.21.2-.28-.39-.44-.55-.21z"/><path d="m104.172 439.449c.06.02.11.04.17.06"/><path d="m102.141 443.451c1.11-.15 2.26.14 3.17.79"/><path d="m110.099 447.869c-.18 1.41-.29 2.91-.29 4.35-.01 3.22.51 6.19 2.05 7.48 2.71 2.26 5.78 3.07 7.29 4.14 2.07 1.47 7.5 2.93 9.5 4.5.94.73 1.9 1.49 2.48 2.53s.82 3.24-.94 3.37"/><path d="m127.469 471.42c.86.56 1.76 1.69 2.16 2.83.5 1.44.19 2.91-2.06 3.22"/><path d="m125.081 474.301c.72.52 1.48 1.07 1.83 1.89.17.39.2.84.1 1.25-.11.46-.4.86-.84 1.02-.36.12-.76.08-1.13-.01-1.42-.31-2.73-1.1-3.67-2.22"/><path d="m103.672 457.711c.5 3.73 2.08 5.85 5.3 8.85 1.34 1.25 2.81 2.37 4.45 3.16 1.49.72 3.1 1.15 4.57 1.9 1.47.76 2.84 1.93 3.28 3.52.1.36.1.73.01 1.08-.28 1.2-1.46 2.25-2.71 2.51"/><path d="m115.87 475.09c.7.51 1.63 1.73 1.85 2.53.1.37.12.7.08.99-.16 1.21-1.41 1.7-2.21 1.38"/><path d="m113.261 476.86c1.32.39 2.13 1.98 1.54 3.11-.59 1.12-2.06 1.54-3.31 1.29-1.24-.26-2.31-1.03-3.32-1.8-5.47-4.15-8.8399-6.99-13.5499-11.98"/><path d="m94.8711 435.08c1.56-.11 3.13-.08 4.69.1"/><path d="m105.961 435.061h4.44"/><path d="m99.3191 436.351s0-.09 0-.13c0-.06-.02-.11-.03-.17"/><path d="m99.0482 435.551c0 .07.01.15.01.22 0 .14 0 .27.02.4l.03.78c.1-.14.17-.31.2-.48 0-.03 0-.05 0-.08v-.04s0-.09 0-.13c-.01-.18-.06-.36-.16-.51l-.09.06c-.1.08-.19.16-.26.26-.15.19-.24.42-.27.65-.04.26-.01.54.12.78.02 0 .04 0 .06-.01.11-.01.21-.05.31-.12.2-.13.35-.37.34-.62 0-.08-.02-.16-.05-.24-.05-.11-.13-.22-.23-.3-.08-.07-.18-.12-.28-.14-.06-.02-.13-.03-.19-.03-.07.22-.09.45-.08.68 0 .27.06.53.18.77.02.05.04.1.07.15.09-.08.17-.17.24-.27.18-.25.28-.56.29-.86"/><path d="m109.379 435.67v.23c.01.13.01.26.02.39.01.26.02.53.03.79.11-.14.17-.31.2-.48 0-.04.01-.09.01-.13s0-.08-.01-.13c0-.18-.06-.35-.16-.5l-.09.06c-.1.07-.19.15-.26.25-.14.18-.24.41-.27.65-.04.27-.01.55.12.79.02 0 .04 0 .06-.01.11-.01.21-.05.3-.11.21-.14.36-.38.35-.63 0-.08-.02-.17-.05-.24-.05-.12-.13-.22-.23-.31-.08-.06-.18-.11-.28-.14-.06-.01-.13-.02-.19-.02-.07.22-.09.44-.08.67 0 .27.07.54.18.78.02.05.04.09.07.14.08-.07.16-.16.23-.25.18-.25.29-.56.3-.87.01-.05.01-.09.01-.13s0-.09-.01-.13c0-.06 0-.11-.03-.17"/><path d="m61.5809 417.551v62.87l-27.12-13.06 3.36-6.17 13.54-24.87z"/><path d="m61.5781 480.421 33.04-12.94-12.73-19.24-4.16-6.28-4.37-6.61-11.78-17.8"/><path d="m80.0608 435.061h-6.26"/><path d="m51.1194 436.189s-23.66 3.09-13.42 24.93"/><path d="m126.412 446.529-6.71 5.58-9.44.12"/><path d="m235.791 454.77 20.42 23.15h-20.55-25.54-27.88-17.87l20.74-23.15h15.05 11.89 12.9 10.73z"/><path d="m235.789 454.81v-.04l-.01-.95-.03-1.74-1.03-75.85-.19-13.94-.14-10.01-.75-55.38-.23-16.49v-.6l-.56-41.17-1.06-77.56"/><path d="m185.109 454.81v-.04l.45-32.87v-.11l.22-16.2.73-53.27.25-18.32.01-.91.21-15.77.71-52.02.81-59.67.34-24.76.27-19.79"/><path d="m183.461 147.329c.31-1.03 1.52-1.56 2.49-1.25.97.32 1.66 1.33 1.83 2.39.44 2.76-2.58 5.23-5.13 4.52s-4.09-3.8-3.74-6.58c.44-3.55 3.6-6.4 6.97-6.59s6.67 2.08 8.16 5.3 1.26 7.19-.32 10.36c-.72 1.45-1.7 2.72-2.85 3.81-.6.56-1.24 1.07-1.93 1.53-.88.59-1.81 1.08-2.78 1.47-1.7.69-3.51 1.07-5.34 1.13-5.04.16-10.39-2.61-12.31-7.57-.55-1.43-.8-2.97-.94-4.5-.59-6.32.87-13.11 5.03-17.66h75.38s.02.03.04.04c4.13 4.55 5.58 11.32 5 17.62-.15 1.53-.4 3.07-.95 4.5-1.1 2.84-3.33 4.97-5.99 6.23-1.97.94-4.17 1.41-6.32 1.34-1.82-.06-3.64-.44-5.34-1.13-.89-.36-1.75-.8-2.56-1.32-1.26-.81-2.41-1.81-3.36-2.98-.64-.77-1.19-1.6-1.64-2.51-1.57-3.17-1.81-7.14-.32-10.36s4.79-5.49 8.16-5.3 6.53 3.04 6.97 6.59c.35 2.78-1.19 5.87-3.74 6.58s-5.57-1.76-5.13-4.52c.18-1.06.86-2.07 1.83-2.39.97-.31 2.18.22 2.49 1.25"/><path d="m172.648 133.689 10.94-18.4h15.88"/><path d="m248.07 133.689-10.95-18.4h-8.87"/><path d="m228.411 158.071c-2.01-.45-4.11.51-5.62 1.99-1.5 1.48-2.5 3.42-3.48 5.32-.69-1.96-1.55-4.11-3.35-4.95-1.66-.78-3.68-.14-5.01 1.15s-2.07 3.13-2.54 4.97c.14-2.13-.12-4.54-1.67-5.9-1.77-1.55-4.57-1.04-6.35.49-1.79 1.53-2.81 3.81-3.76 6.01.22-3.57-2.36-7.09-5.69-7.78"/><path d="m42.6289 352.309v-152.78c0-8.22.18-51.48 22.65-84.83.1-.17.22-.33.33-.5 3.82-5.59 8.27-10.9 13.46-15.7097 15.27-14.15 36.9501-23.96 67.7201-23.96"/><path d="m104.512 352.311h-9.5804-.08"/><path d="m125.312 351.93h-.04-4.6"/><path d="m151.3 351.93h-11.64"/><path d="m185.77 352.311-14.2.1"/><path d="m61.211 268.691v-69.16c0-5.39-.1-26.09 6.31-49.19 2.67-9.64 6.48-19.71 11.9-29.25 12.36-21.7402 33.11-40.8002 67.93-46.0402"/><path d="m249.762 352.27h-14.84"/><path d="m207.222 93.1798c-14.49-11.04-33.89-18.38-59.87-18.67h-.56c-.34 0-.69 0-1.03 0"/><path d="m249.922 352.269v-152.78c0-4.35-.26-19.69-3.66-37.04"/><path d="m162.399 280.961v.1 15.67h-14.77"/><path d="m147.481 296.73v15.77h-15.77"/><path d="m187.228 265.289h-9.06v15.77h-15.77"/><path d="m248.789 222.869h-9.05v15.77h-6.77"/><path d="m131.711 312.779v11.27"/><path d="m199.8 115.39c.47-1.53 1.16-3.02 1.9-4.41 2.68-5.05 6.53-9.43 6.3-15.1397-.03-.88-.17-1.78-.37-2.69-1.11-4.91-4.37-10.06-6.19-14.48-1.13-2.74-1.37-5.72-1.32-8.71.02-1.08.07-2.16.14-3.24.36-5.9 2.13-15.87 3.62-23.93.56-3.02 1.07-5.76 1.45-7.94 4.1-.09 8.2-.19 12.3-.28-.77 2.09-1.37 4.9-1.74 8.05-.96 8.3-.33 18.92 2.89 24.71.44.77.91 1.46 1.44 2.04 3.11 3.44 6.68 6.4 9.84 9.8 6.19 6.67 6.42 16.78 3.45 22.2897-3.16 5.88-5.12 5.82-5.98 12.79-.04.29-.08.58-.15.87-1.06 5.27-5.73 9.55-8.6 11.46 0 0-7.02 3.58-14.36.1 0 0-4.45-2.82-5.05-5.85-.36-1.8-.12-3.65.43-5.44z"/><path d="m188.498 205.629c-4.81 2.4-7.06 1.96-13.32-.84-2.91-1.31-5.76-2.96-8.93-3.33-9.38-1.1-18.16 9.23-27.05 6.04-4.78-1.71-7.89-7.02-12.91-7.8-4.76-.74-8.94 2.86-13.23 5.07-3.72 1.92-8.05 2.87-12.17 2.1-4.1296-.78-7.9796-3.43-9.6896-7.26-1.07-2.37-1.28-5.06-.99-7.64.66-6.1 4.13-11.83 9.22-15.26 5.0796-3.43 11.6996-4.48 17.5996-2.8 4.42 1.25 8.5 3.96 13.09 4.16 6.08.27 11.78-3.88 17.54-5.38 2.23-.59 4.47-.77 6.75-.15 7.12 1.94 10.6 10.99 17.79 12.67 4.68 1.1 11.45-2.43 15.85-4.35"/><path d="m147.66 178.92v-6.23-97.5904"/><path d="m83.0781 328.449c8.72-3.92 13.96-11.31 20.1899-17.71 1.03-1.07 2.1-2.12 3.22-3.11 2.49-2.22 5.46-4.59 8.76-4.12 2.64.38 4.45 3.53 5.98 5.73 1.9 2.73 3.42 5.31 5.5 8.42 1.22 1.8 2.62 3.78 4.38 6.07"/><path d="m121.32 333.921c-1.58-2.81-4.19-5.12-6.44-7.57-1.36-1.47-2.59-3-3.39-4.72-2.26 3.73-4.47 6.95-6.68 9.82-3.67 4.78-7.3199 8.59-11.1799 12.14-2.7 2.49-5.29 5.35-8.25 7.4-3.3 2.29-7.0599 3.6-11.9699 2.31"/><path d="m116.41 326.129c3.39-2.01 6.54-5.21 9.65-8.02"/><path d="m144.931 336.371c1.15.13 2.3.24 2.99.26 3.1.05 6.26.2 9.39.57 2.07.24 4.12.57 6.14 1.03 1.98.45 4.03 1.04 5.53 2.42 2.8 2.56 2.85 7.79 2.48 11.75-.02.26-.04.51-.07.76-6.24.18-13.2-.69-19.43-1.19l-.66-.06c-3.66-.37-6.94-1.31-9.83-3.64-.86.46-1.58 2.24-2.12 3.51-.34.77-.61 1.35-.81 1.34-3.97-.24-9.26-.47-13.23-.71-.01-.16-.03-.32-.04-.48-.25-3.6-.06-8.08.55-11.56.14.08.28.16.42.22 6.02 3.03 13.8-3.53 14.98-4.56.1-.09.15-.14.15-.14s1.77.26 3.56.48z"/><path d="m144.931 336.35v.02c-.12 2.04.58 4.32 2.35 5.35.93.54 2.05.67 3.13.66 2.06-.01 4.29-.59 5.5-2.25.63-.85.92-1.89 1.39-2.84"/><path d="m126.762 340.27c-.58-1.98-.74-4.08-.47-6.12"/><path d="m134.379 331.43c1 .06 1.99.32 2.9.75 1.58.75 2.92 2.01 3.71 3.56"/><path d="m121.32 333.92c.33.41.62.78.88 1.12 1.67 2.15 2.22 3.16 4.04 5.55.03.05.07.1.11.15"/><path d="m131.109 323.73c.07.1.18.25.31.43 1.3 1.78 5.18 7 5.88 7.98"/><path d="m105.461 331.571c4.84-.25 8.12 1.22 10.31 3.58 4.03 4.28 4.53 11.5 4.43 16.77-.05 2.55-.24 4.65-.24 5.74 0 .69-.01 1.37-.01 2.05v.7c-.02 6.44-1.59 11.9-.05 19.33"/><path d="m85.5195 351.191c2.36 2.3 5.9 2.18 9.41 1.12 5.3205-1.59 10.5805-5.33 11.6605-6.1-.67 4.63-1.46 8.95-1.13 13.59.01.14.02.29.03.43"/><path d="m105.489 360.23c-1.39 6.09-.7 9.88-.38 15.06"/><path d="m108.139 370.369c-1.06 1.19-2.19 3.37-2.95 4.96-.09.19-.17.36-.25.53-.58 1.26-.63 3.62-.65 5.01"/><path d="m119.441 359.711c-4.86.06-9.55.2-13.75.08"/><path d="m132.961 388.34c.14.08.27.17.41.25 2.68 1.66 7.46 3.42 9.12 6.1 2.02 3.26 2.05 7.34 1.89 11.17-2.67.22-7.22.2-9.85-.31-2.2-.43-5.82-.91-8.28-1.73-7.36-2.45-13.23-5.25-16.46-12.3-.76 1.32-2.33 4.92-2.73 4.92-2.75.01-6.1-.55-8.8501-.54.85-5.4 2.8001-10.48 5.4201-15.28.03.21.34.14.66.25 2.95.73 4.1.95 7.2 1.23 2.78.24 6.39.3 8.36-1.64-.1.04-.01-.04.01-.04.01 0 .01.01-.01.04 1.42.88 2.85 1.74 4.28 2.59 2.95 1.76 5.91 3.49 8.83 5.29z"/><path d="m123.879 383.48c-1.09 1.24-1.81 2.8-2.04 4.43-.08.56-.1 1.15.09 1.69.42 1.26 1.8 1.94 3.11 2.17 2.71.47 5.62-.51 7.5-2.51.08-.08.16-.19.12-.29-.01-.02-.02-.04-.05-.05-.06-.05-.18-.02-.16.06"/><path d="m75.6094 315.07c2.6-3.17 6.16-5.44 8.77-8.6 1.1-1.33 2.01-2.8 3.01-4.2.12-.16.23-.32.36-.48 1.86-2.53 4.02-4.84 6.16-7.14.53 1.07 1.06 2.13 1.62 3.19 1.72 3.3 3.57 6.53 5.5396 9.68.59.96 1.19 1.9 1.81 2.84"/><path d="m76.6211 304.951c3.44-.82 6.83-1.83 10.14-3.04.26-.09.52-.18.78-.28"/><path d="m66.3203 319.449c.55 3.11 2.93 5.54 5.25 7.69.66.61 1.32 1.22 2.1 1.68 1.74 1.02 3.48 1.16 5.28.84 1.12-.19 2.26-.55 3.43-.98"/><path d="m78.9895 329.881c-8.63 6.39-7.31 13.99-6.71 19.97.12 1.17.33 2.34.45 3.52.09.83.14 1.66.07 2.49-.44 5.2-4.97 9.07-6.75 13.98-1.52 4.22-2.41 16.35-4.32 20.41-2.03 4.3-6.46 6.93-9.32 10.73-1.45 1.92-2.48 4.11-3.5 6.29-2.97 6.35-4.48 8.31-7.45 14.66-2.55-6.09-5.11-15.75-3.12-22.04 1.11-3.52 4.09-2.93 5.06-12.27"/><path d="m45.7295 398.72c-.2-3.2-1.26-6.27-1.97-9.39-.13-.57-.25-1.14-.35-1.71-1.6-8.54-.61-17.29 2.11-25.62 2.31-7.11 5.87-13.92 10.14-20.02"/><path d="m71.5709 327.141c-8.68 4.08-3.75 15.55-10.41 22.45-10.51 10.89 2.44 10.52-8.45 28.72"/><path d="m86.7114 301.77c-.42-3.43-.85-6.86-1.28-10.29-1.06.05-2.11.1-3.17.15l-11.79.54h-.07c-.43.02-.85.05-1.25.2-.57.21-1.02.65-1.44 1.09-5.54 5.84-8.81 13.78-9.01 21.82-.01.15-.01.29-.01.44"/><path d="m67.3712 303.211c-1.8 7.19-3.68 14.53-7.79 20.69-.73 1.09-1.51 2.13-2.34 3.15-1.42 1.75-2.94 3.42-4.42 5.12-3.61 4.14-7.05 8.58-8.9 13.75-.73 2.04-1.18 4.22-1.28 6.39-.15 3.34.53 6.68 2.3 9.5"/><path d="m67.4011 303.08s-.02.07-.03.1"/><path d="m101.32 307.36c7.55-6.32 14.81-12.34 22.66-18.04 1.51-1.1 3.05-2.19 4.62-3.27.04-.03.08-.06.12-.08 2.31-1.6 4.73-3.3 5.85-5.87.41-.92.62-2 .21-2.92s-1.61-1.51-2.47-.99c.91-1.05.94-2.77.05-3.85-.88-1.08-2.57-1.38-3.78-.69.82-.96-.25-2.58-1.51-2.64-.34-.02-.68.04-.99.16-.84.3-1.57.98-2.12 1.72-.76 1-1.36 1.53-2.38 2.27"/><path d="m121.362 275.12c.13-.61.18-1.27.18-1.96.02-2.48-.66-5.32-1.45-7.44-.2-.55-.53-.97-.94-1.32-.43-.36-.95-.63-1.5-.87-.99-.42-2.62-.53-1.55 2.09.36.88.34 1.85.58 2.76 1.07 4.07-.4 8.48-2.91 11.85-2.51 3.38-14.2704 14.83-17.6704 17.31"/><path d="m125.94 268.561c-.31-4.61-1.72-13.07-2.69-17.59"/><path d="m119.229 264.31c-.41-2.61-1.54-9.88-1.84-12.51 0-.06 0-.11 0-.17-.17-2.21 1.25-4.25 1.88-6.38 1.21 1.83 2.69 3.33 3.9 5.17"/><path d="m117.699 251.61c.77.67 1.92.73 2.88.4.73-.24 1.37-.66 1.98-1.12.2-.15.4-.31.6-.47"/><path d="m118.842 244.599v-.81c-.09.49-.03 1.01.16 1.47"/><path d="m128.839 286.15c.12 2.96 1.3 4.93 1.21 7.89-1.71.27-3.42 1.32-5.13 1.59-.64-1.91-.4-4.02-.7-5.97"/><path d="m86.0287 258.141s.0301.03.0501.05c4.37 3.92 9.3599 7.22 13.5199 11.36-2.95.83-5.2499 1.26-7.6299 2.26l-.8401 3.9c-.22 1.03-.45 2.06-.85 3.03-.87 2.08-2.5699 3.77-4.5499 4.85-.86.47-1.7701.83-2.7101 1.09-1.23.36-2.52.55-3.7999.62"/><path d="m88.0496 259.091c-.69-.3-1.36-.61-1.97-.9-1.67-.81-2.97-1.54-3.48-1.59.05-.16.11-.33.15-.49 1.64-5.11 2.94-10.35 3.87-15.64-2.82 4.45-5.65 8.89-8.48 13.33-.82 1.29-1.65 2.59-2.69 3.72-.99 1.06-2.14 1.95-3.3 2.83-4.12 3.13-7.6 5.82-10.63 8.67-4.74 4.44-8.39 9.25-11.68 16.64-.74 1.66-1.16 4.01.39 4.95 1.44.87 3.22-.3 4.48-1.42 4.07-3.6 3.14-4.19 7.21-7.79 2.24-1.98 4.48-3.96 6.51-6.14.22-.22.42-.45.63-.68 3.32-3.68 6-7.93 7.89-12.51"/><path d="m94.0586 260.42c-1.93.12-4.07-.53-6-1.33"/><path d="m83.2383 256.26c1.01-1.32 2.35-2.34 3.68-3.34 2.85-2.15 5.25-4.59 8.31-7.93l-7.17 14.1h-.01l-.17.34"/><path d="m80.9219 267.36c1.61-.61 3.22-1.21 4.84-1.83.07-.03.15-.06.23-.09.14-.05.29-.11.43-.16-.12.67.17 1.81.39 2.47 0 .02 0 .03.02.05.48-.77.29-1.85-.35-2.47-.02-.02-.04-.04-.06-.05-.09-.09-.2-.17-.31-.23-.05.13-.09.26-.12.39-.21.87-.01 1.84.54 2.55.05.07.1.13.16.19.01-.04.03-.07.03-.11.04-.1.07-.21.09-.32.2-.81.07-1.69-.33-2.42-.12-.22-.26-.42-.43-.6-.14.25-.24.52-.29.8-.14.73.01 1.52.45 2.14.09.12.19.24.32.32.06.04.12.07.19.08.03.02.05.03.08.03.25.04.54-.16.5-.41"/><path d="m85.2617 277.169c1.78.48 4.31-.85 5.01-.89"/><path d="m82.2188 290.84c.3199-1.89.63-3.78.94-5.67"/><path d="m70.3805 291.821c.12-1.64.23-3.55.17-5.41-.05-1.42-.21-2.82-.55-4.04-.28-.98-.68-1.92-.94-2.9-.34-1.27-.45-2.61-.32-3.92"/><path d="m70.0887 286.42c-2.9.89-5.62 2.39-7.91 4.37s-4.16 4.43-5.35 7.22c-1.82 4.27-1.92 9.29-.23 13.59.51 1.31 1.18 2.55 2.02 3.68"/><path d="m56.3507 326.35c-3.38-4.09-3.36-10.6.04-14.67"/><path d="m76.4111 296.171c-2.1-.23-4.29.38-5.95 1.68-1.66 1.29-2.8 3.24-3.09 5.33v.03"/><path d="m84.1403 260.65c-.66.25-1.29.62-1.82 1.09"/><path d="m92.9119 444.689-10.99 3.53"/><path d="m85.1613 439.24-6.8801 2.36s.6201-2.87 2.1201-6.52c2.51-6.08 7.48-14.3 16.17-14.92"/><path d="m109.378 430.69c-.87.12-1.72.5-2.39 1.08.97-.32 2.76-.83 3.54-1.5"/><path d="m100.699 431.75c-1.1399.07-4.0499-.01-5.1599-.26.97 0 3.7.01 4.6699.01"/><path d="m216.309 42.6601c3-1.7 6.84-1.91 9.92-.36 3.08 1.56 5.22 4.9 5.15 8.34-.07 3.45-2.48 6.78-5.78 7.74-.99.29-2.04.38-2.99.76-2.51 1-3.73 4.1999-2.9 6.6999.13.39.31.7701.55 1.1201.08.12.16.23.25.34.72.87 1.76 1.51 2.88 1.57 1.13.06 2.3-.52 2.79-1.54.48-1.02.1-2.41-.9-2.92s-2.45.14-2.61 1.25"/><path d="m202.981 42.6299c-2.36-1.41-14.96-2.09-14.59 12.41.1 4.12 2.68 7.82 6.25 9.87 1.15.65 2.39 1.22 3.24 2.23.65.78.99 1.8.99 2.81 0 .68-.16 1.36-.47 1.97-.77 1.51-2.5 2.47-4.2 2.34-1.25-.1-2.12-1.61-1.74-2.82.43-1.39 1.34-2.24 2.6-1.51"/><path d="m219.309 165.381v109.32"/><path d="m208.41 166.551v128.61"/><path d="m196.629 167.15v144.9"/><path d="m141.699 450.82c4.16.77 8.2 2.41 11.48 5.08s5.76 6.41 6.54 10.57c.38 2.01.36 4.09.84 6.08s1.63 4.51 3.51 5.33c-3.33 1.15-7.31-1.42-9.53-4.14-2.23-2.73-3.27-6.2-4.31-9.56-1.05-3.37-2.21-6.83-4.62-9.4-1.49-1.6-2.27-2.51-3.91-3.96z"/><path d="m163.648 477.22c-1.08-3.27.45-6.75 1.67-9.97 3.58-9.48 4.52-20.18 1.31-29.8-.93-2.8-2.25-5.56-4.36-7.63s-5.11-3.39-8.03-2.92"/><path d="m153.511 427.18c-.76-1.92-3.45-2.06-5.44-1.5s-4.16 1.49-6.02.59c1.33 1.68 3.35 2.8 5.48 3.04-2.17 1.87-3.57 4.59-3.84 7.44 1.57-1.73 3.4-3.22 5.41-4.41-.8 1.38-.4 3.19.55 4.47.95 1.27 2.35 2.12 3.71 2.94-1.62-1.38-1.71-3.85-1.27-5.93s1.29-4.13 1.13-6.25"/><path d="m162.54 420.579c-3.48-.69-7.39 2.39-8.27 5.82-2.27-2.07-1.93-6.28.65-7.96"/><path d="m182.238 477.801c6.53-6.38 10.92-16.65 17.92-22.5"/><path d="m235.659 477.429c-3.52-6.78-7.59-15.1-10.71-22.07"/><path d="m210.121 477.55c.08-6.87.85-15.09 1.93-21.88"/><path d="m115.781 335.141h6.29"/><path d="m61.9219 281.4v9.1"/><path d="m235.722 452.85c.02-.26.03-.51.03-.77 0-4.43-2.74-8.79-6.8-10.62-4.77-2.17-10.32-.9-15.53-1.42-8.37-.84-15.51-6.27-21.79-11.88-2.16-1.93-4.32-3.96-6.07-6.26l-.09-.12c-1.22-1.61-2.23-3.34-2.91-5.25-1.67-4.68-1.17-8.32 3.05-10.94"/><path d="m235.72 375.031c3.23-2.54 2.84-7.84.33-11.09-.46-.6-.97-1.15-1.52-1.65-2.43-2.24-5.61-3.65-8.65-5.05-12.37-5.72-24.14-12.71-35.09-20.82-1.39-1.03-2.79-2.11-4.02-3.33-1.13-1.12-2.11-2.34-2.83-3.75-2.47-4.85-1.88-8.96 2.61-12.03"/><path d="m226.171 440.441c-.89-.18-1.73-.58-2.45-1.14-2.59-2.01-3.3-6.07-1.53-8.84"/><path d="m202.262 444.971c1.81-3.13 6.58-5.23 10.2-5.03"/><path d="m201.572 435.709c-.89-.96-1.23-3.1-.79-4.33.43-1.24 1.29-2.27 2.15-3.26"/><path d="m179.578 426.229c.43-2.69 3.2-4.75 5.89-4.45.03 0 .06.01.09.01.02 0 .05.01.07.01"/><path d="m179.031 403.59c.72-.44 1.73.04 2.12.78.39.75 1.18 3 .76 5.63"/><path d="m235 376.229c.17-.43.48-.76.86-.99.69-.43 1.64-.52 2.43-.26 1.22.41 2.13 1.45 2.87 2.51"/><path d="m234.268 362.479c-2.47-1.44-5.94-.84-7.78 1.34"/><path d="m223.842 356.23c-1.79-1.9-2.02-5.08-.52-7.22"/><path d="m202.83 352.62c-.09-1.38.96-2.62 2.21-3.19s2.67-.6 4.04-.61"/><path d="m203.779 345.181c-1.11-.87-1.64-2.34-1.63-3.75s.5-2.77 1.11-4.05"/><path d="m179.672 335.011c1.76-1.89 4.87-2.3 7.09-1.01.12.07.23.14.34.22"/><path d="m179.898 317.199c.63.59.89 1.46 1.13 2.3.24.83.49 1.71 1.11 2.31"/><path d="m224.99 432.1-6.06-4.79 7.46-3.24z"/><path d="m249.948 407.879-6.05-4.78 7.46-3.24z"/><path d="m244.252 412.949-5.65-1.75 1.48-5.16z"/><path d="m204.709 446.46-6.33-2.54v5.92z"/><path d="m254.321 452.471-6.68 1.4 3.27 4.92z"/><path d="m214.57 440.551-2.25 5.2 6.05.14z"/><path d="m205.561 429.989-5.35-4.51 5.68-4.69z"/><path d="m257.889 415.301-2.43 6.56-6.33-3.75z"/><path d="m209.788 438.8-2.8-5.82 6.78.7z"/><path d="m248.93 448.98.86-6.39 5.28 4.31z"/><path d="m192.391 423.74-5.95-2.49 5.53-3.98z"/><path d="m216.26 362.729-5.35-4.5 5.68-4.69z"/><path d="m216.591 348.28-6.81-.46 4.26-5.81z"/><path d="m181.338 428.02-5.35-3.52.15 5.91z"/><path d="m235.12 438.719-5.35-3.52.14 5.91z"/><path d="m245.959 428.491-.01-.01-5.34-3.51.14 5.91z"/><path d="m263.092 434.32-4.74-4.66.13 7.84z"/><path d="m178.522 406.27.27-7.5-5.12 4.91z"/><path d="m238.781 379.91 5.21-4.08.42 5.63z"/><path d="m182.018 415.33-7.87-1.83 2.61 4.83z"/><path d="m178.441 327.29-2.91-4.64 5.74-.23z"/><path d="m228.991 262.111-5.21-1.7 4.26-3.85z"/><path d="m239.5 357.381 3.18 7.04-6.95-1.96z"/><path d="m206.681 357.991-5.49 1.13 1.55-5.91z"/><path d="m182.468 338.38-6.48-5.21v6.48z"/><path d="m219.641 275.73c.13-.14.28-.28.42-.41 1.91-1.62 4.94-1.82 7.01-.38"/><path d="m222.441 279.101-6.48-5.21v6.48z"/><path d="m178.109 318.809 3.52-4.22-4.93-1.55z"/><path d="m239.628 279.619c-.1.86-.65 1.59-1.18 2.27-.53.69-1.09 1.41-1.21 2.27"/><path d="m237.27 279.13 5.49.33-1.67-4.88z"/><path d="m206.121 337.96-5.07-3.1 3.1-3.94z"/><path d="m228.88 349.51-5.45-.61 3.39-4.64z"/><path d="m242.579 301.641-5.45-.61 2.15-2.93 1.25-1.71z"/><path d="m197.359 332.919-2.77.01h-2.71l2.85-4.99z"/><path d="m228.271 366.489-5.49 1.12 1.55-5.91z"/><path d="m202.092 352.13-5.49 1.12 1.54-5.91z"/><path d="m227.47 284.2c-.09-1.38.95-2.62 2.2-3.19 1.16-.53 2.46-.59 3.74-.6.1-.01.21-.01.31-.01"/><path d="m229.652 285.3-4.31 3.58-1.42-5.95z"/><path d="m236.121 453.93c.68-2.03 2.53-3.43 4.42-4.42 1.73-.91 3.68-1.59 5.61-1.3s3.78 1.8 3.9 3.75"/><path d="m235.68 454.781c.02-.33.05-.64.1-.96.49-4.1 2.44-8 5.45-10.84 2.83-2.68 6.61-4.5 8.58-7.87 1.73-2.94 1.72-6.82-.02-9.76-.81-1.37-1.96-2.52-2.87-3.82-3.19-4.53-3.28-11.02-.22-15.64"/><path d="m234.729 295.73c3.45-3.28 4.07-9.12 1.39-13.05-.75-1.09-1.69-2.02-2.71-2.87-2.04-1.71-4.42-3.11-6.24-4.97-.77-.77-1.43-1.62-1.94-2.6-1.05-2.05-1.09-6.5 1.16-10.59"/><path d="m234.52 296.889c.14-.03.28-.06.41-.1.42-.09.84-.16 1.26-.16 1.19-.02 2.36.54 3.09 1.47l.03.03"/><path d="m196.411 340.3c-2.06-3.18-2.36-4.7-1.82-7.37v-.03"/><path d="m248.781 436.74c2-1.86 6.23-4.08 8.9-3.5"/><path d="m250.329 426.279c-.32-1.8.3-4.67 1.56-5.99"/><path d="m250.799 431.02c-1.43-1.93-3.41-2.58-4.85-2.54-.18.01-.34.03-.5.05"/><path d="m67.7308 150.4c5.1-1.92 10.15-4.48 13.65-8.66 2.31-2.77 3.81-6.39 3.88-9.95.01-.02.01-.03 0-.04.04-1.8-.29-3.58-1.06-5.23-1.08-2.33-2.76-4.04-4.78-5.43-3.77-2.58-8.75-3.99-13.29-6-.29-.13-.57-.26-.85-.39-2.43-1.13-4.7-2.47-6.54-4.31-2.69-2.67-4.28-6.21-6.34-9.38-.67-1.0195-1.42-2.0395-2.26-2.9595-1.75-1.92-3.88-3.4201-6.41-3.8101-5.39-.83-10.02 3.5701-13.68 7.6096"/><path d="m50.1704 98.11-.03-.06c-2.61-4.72-5.98-10.62-7.32-15.82-1.34-5.23-1.29-11.03 1.31-15.76 1.07-1.96 2.54-3.67 4.03-5.34 2.27-2.54 4.67-5.07 7.7-6.63"/><path d="m40.8203 41.2791c3.03-2.39 7.87-.76 10.03 2.45 2.16 3.2 4.1 8.06.16 14.26"/><path d="m66.2683 115.329c-.05-.08-.1-.16-.14-.24-.18-.29-.36-.59-.52-.89-2.92-5.24-4.04-11.46-3.2-17.3998.19-1.34.47-2.65.86-3.94 2.02-6.73 6.73-12.58 12.81-16.05.67-.39 1.36-.75 2.06-1.07 2.89-1.32 5.98-2.14 8.86-3.47 5.5-2.53 9.84-7.07 12.58-12.45 3.6197-7.12 4.4197-15.72 1.3397-23.12"/><path d="m100.422 58.3399c2.28-3.48 5.68-5.67 9.85-5.67.69 0 1.38.06 2.06.19 3.41.59 6.57 2.62 8.46 5.53"/><path d="m85.25 133.539c.13-.5.29-.99.46-1.48.06-.15.11-.3.17-.44 1.34-3.45 3.73-6.52 7.01-8.18 3.87-1.97 9.02-1.61 12.13 1.42"/><path d="m84.8789 63.4004c1.11 2.63 3.16 5.15.55 9.51"/><path d="m60.9219 77.1699c3.05 2.37 4.87 7.68 3.96 11.44"/><path d="m31.9883 65.8702c2.54-2.95 6.19-1.18 7.54.37s2.05 5.12 2.33 10.05"/><path d="m51.8594 44.9008c1.14-3.37 4.56-7.52 8.1-7.6h.2"/><path d="m71.4892 92.971c-2.72-.88-6.78 1.8399-8.79 3.8699"/><path d="m82.7188 140.26c2.91.37 5.17 3.46 4.65 6.35"/><path d="m96.2383 65.4297c2.72.66 4.9297 3.06 5.3697 5.83"/><path d="m65.1397 39.0305-5.21-1.7.03-.03 4.23-3.82z"/><path d="m35.2183 69.2491-6.48-5.21v6.48z"/><path d="m36.54 86.8397-4.32-8.66-3.22 6.56z"/><path d="m89.8 61.7007-8.3-4.98.82 7.26z"/><path d="m77.7192 96.1291-4.33-7.09-1.47 4.08-.72 2.01z"/><path d="m32.5998 106.719-7.09-8.6799-.17 10.6599z"/><path d="m33.6914 44.3503 9.29-.03-5.49-5.75z"/><path d="m54.1016 89.3991 9.29-.03-5.49-5.75z"/><path d="m42.5 72.4896 5.82 7.24 1.06-7.88z"/><path d="m97.9688 71.9193 5.8102 7.24 1.07-7.88z"/><path d="m121.02 58.6895-.11 9.29 5.83-5.41z"/><path d="m41.1406 60.8508 5.49.34-1.67-4.89z"/><path d="m60.4305 77.1502-5.45-.61 3.39-4.63z"/><path d="m127.302 58.2891-5.45-.61 3.4-4.64z"/><path d="m66.8992 77.4295-5.45-.61 3.4-4.63z"/><path d="m56.1897 52.0801 4.84 2.82-5.1 3.37z"/><path d="m43.8313 85.5801s-3.8001-6.62-8.3001-3.66"/><path d="m83.9484 80.2296s-3.31-5.16-7.87-3.42c-.14.05-.28.11-.43.18"/><path d="m92.5391 51.6504s8.1699.85 5.77 10.14"/><path d="m46.9297 106.14s5.77-3.95 8.3-.29"/><path d="m51.0096 32.2305s-3.56 4.14-.16 11.5"/><path d="m112.309 52.8693s0-.01.02-.01c3.57-2.17-.13-8.58-.13-8.58"/><path d="m108.028 59.9609s-5.78-3.24-8.4499-.14"/><path d="m86.4919 78.4004-5.07 4.22 5.07 1.55z"/><path d="m44.1106 103.6 4.79 5.63-6.76.71z"/><path d="m56.6419 94.1699-6.47 2.39 6.61 3.24z"/><path d="m93.5302 48.4199-2.68 6.33-3.94-5.91z"/><path d="m115.46 42.63-6.63 2.74-.26-7.12z"/><path d="m109.998 57.1406-3.1 6.06 5.35.98z"/><path d="m148.949 42.5703 4.02 5.48 3.28-4.34z"/><path d="m104.231 35.3202-7.6099 3.1.85-7.18z"/><path d="m145.431 53.3408-5.91 5.69-1.88-6.98z"/><path d="m156.509 32.9697-5.92 5.7-1.87-6.99z"/><path d="m133.579 38.4705-8.11-1.28 4.44-5.71z"/><path d="m54.5303 32.6509-7.46-1.13 5.35-4.64z"/><path d="m53.3984 48.2709 6.48-5.06.99 5.91z"/><path d="m75.79 67.5605-4.79 4.37 3.1 6.0501z"/><path d="m107.459 121.619-5.35 7.88 9.58.43z"/><path d="m100.142 115.85-3.3801 6.05-3.09-5.77z"/><path d="m90.8486 146.119-7.04 1.69 4.51 5.77z"/><path d="m85.8787 131.62 7.22-1.55v6.47l-7.39-4.48-.4499-.27-.04-.03.04-.01z"/><path d="m73.6786 148.09 3.52 4.5-5.64 1.69z"/><path d="m75.3688 119.369-4.0901 6.9-2.8099-4.37z"/><path d="m150.449 38.9395s-4.69 9.05-13.21 7.01-21.05.64-24.29 6.9"/><path d="m129.139 38.6504s-.28 5.73-4.03 7.14"/><path d="m137.238 45.9492s4.86 2.18 4.2 6.13"/></g></svg>