<svg width="68" height="194" viewBox="0 0 68 194" fill="none" xmlns="http://www.w3.org/2000/svg">
<g clip-path="url(#clip0_4068_12274)">
<mask id="mask0_4068_12274" style="mask-type:alpha" maskUnits="userSpaceOnUse" x="0" y="0" width="68" height="194">
<path d="M0 0H68V194H0V0Z" fill="#D9D9D9"/>
</mask>
<g mask="url(#mask0_4068_12274)">
<path d="M39.8 120.999C54.8 121.099 67.9 110.599 67.9 93.9992C67.9 87.8992 66.5 84.9992 64.8 84.9992C60.3 84.9992 58.2 99.6992 36.7 99.6992C18.8 99.6992 8 86.9992 8 74.8992C8 66.7992 12.5 61.0992 19.8 61.2992C35.2 61.1992 38.6 82.4992 49.3 82.4992C56.9 82.4992 58.5 74.4992 58.5 61.2992C58.5 59.0992 58 58.4992 57 58.4992C54.2 58.4992 50.6 63.0992 40.7 63.0992C26.8 62.9992 4.4 56.7992 4.4 43.6992C4.4 37.0992 10.3 33.9992 16.8 33.9992C29.5 33.9992 41.5 47.7992 54.1 47.7992C63.4 47.7992 66.8 42.2992 66.8 32.7992C66.8 27.7992 66.3 17.1992 63.2 17.1992C60.6 17.1992 59.4 22.6992 50.6 22.6992C44.2 22.6992 34.7 18.0992 29 18.0992C11.6 18.0992 1 29.9992 1 68.6992C1 104.099 14.4 121.099 39.8 120.999V120.999Z" fill="white"/>
</g>
</g>
<defs>
<clipPath id="clip0_4068_12274">
<rect width="68" height="194" fill="white"/>
</clipPath>
</defs>
</svg>
