<svg width="48" height="194" viewBox="0 0 48 194" fill="none" xmlns="http://www.w3.org/2000/svg">
<g clip-path="url(#clip0_4068_12369)">
<mask id="mask0_4068_12369" style="mask-type:alpha" maskUnits="userSpaceOnUse" x="0" y="0" width="48" height="194">
<path d="M0 0H48V194H0V0Z" fill="#D9D9D9"/>
</mask>
<g mask="url(#mask0_4068_12369)">
<path d="M5.60039 94.6C7.00039 100.3 8.40039 104.8 10.0004 108.3C11.5004 111.7 13.3004 114.2 15.2004 115.9C17.2004 117.5 19.5004 118.3 22.2004 118.3C25.6004 118.3 28.2004 117 30.1004 114.5C32.0004 111.9 33.0004 108.4 33.0004 103.9C33.0004 97.8 30.6004 91.4 25.8004 84.7C24.2004 82.6 21.8004 79.8 18.7004 76.4C14.8004 72.2 11.8004 68.8 9.90039 66C7.40039 62.4 5.50039 58.8 4.30039 55.2C3.10039 51.5 2.50039 47.6 2.50039 43.4C2.50039 38.1 3.50039 33.5 5.40039 29.5C7.40039 25.5 10.2004 22.4 13.8004 20.2C17.4004 18 21.4004 17 26.2004 17C29.0004 17 31.7004 17.3 34.4004 17.9C37.1004 18.4 39.3004 19.1 41.0004 19.9C41.4004 27.7 42.1004 35.3 42.9004 42.5H39.6004C38.1004 37.1 36.5004 32.8 35.0004 29.7C33.5004 26.6 31.9004 24.3 30.2004 22.8C28.5004 21.4 26.5004 20.6 24.3004 20.6C21.5004 20.6 19.3004 21.6 17.8004 23.6C16.3004 25.6 15.5004 28.5 15.5004 32.2C15.5004 35.5 16.1004 38.5 17.2004 41.3C18.4004 44.1 20.0004 47 22.2004 50C23.6004 52 26.3004 55.2 30.3004 59.6C33.8004 63.5 36.4004 66.5 37.9004 68.4C40.6004 71.8 42.6004 75.4 44.0004 79.2C45.4004 83 46.1004 87.3 46.1004 92.2C46.1004 98.2 45.0004 103.4 42.9004 107.9C40.8004 112.3 37.8004 115.8 33.9004 118.2C30.0004 120.7 25.4004 121.9 20.2004 121.9C17.0004 121.9 13.9004 121.6 10.7004 121.1C7.60039 120.6 5.00039 119.9 3.10039 119.1C3.00039 111.6 2.80039 103.4 2.40039 94.5H5.60039V94.6Z" fill="white"/>
</g>
</g>
<defs>
<clipPath id="clip0_4068_12369">
<rect width="48" height="194" fill="white"/>
</clipPath>
</defs>
</svg>
