<svg width="42" height="194" viewBox="0 0 42 194" fill="none" xmlns="http://www.w3.org/2000/svg">
<g clip-path="url(#clip0_4068_12439)">
<mask id="mask0_4068_12439" style="mask-type:alpha" maskUnits="userSpaceOnUse" x="0" y="0" width="42" height="194">
<path d="M0 0H42V194H0V0Z" fill="#D9D9D9"/>
</mask>
<g mask="url(#mask0_4068_12439)">
<path d="M0.400391 120.798C5.40039 116.898 8.80039 112.398 10.6004 107.198C11.8004 103.698 12.4004 100.098 12.4004 96.4984C12.4004 94.3984 12.1004 91.4984 11.6004 87.6984C11.0004 83.9984 10.8004 81.0984 10.8004 79.0984C10.8004 76.5984 11.0004 74.3984 11.5004 72.3984C12.0004 70.3984 12.6004 68.1984 13.4004 65.9984C14.3004 63.7984 15.3004 61.5984 16.2004 59.5984C18.3004 55.2984 19.7004 51.7984 20.2004 48.9984C20.5004 47.5984 20.7004 45.9984 20.8004 44.0984C20.9004 42.1984 20.9004 40.9984 20.9004 40.4984C21.0004 35.3984 21.5004 31.2984 22.3004 28.0984C23.2004 24.9984 25.3004 22.3984 28.6004 20.4984C31.6004 18.6984 35.5004 17.8984 40.3004 17.8984L40.4004 18.9984C37.6004 19.9984 35.4004 22.0984 33.9004 25.3984C32.0004 29.0984 31.1004 33.3984 31.1004 38.1984L31.2004 44.9984C31.2004 47.0984 31.0004 49.0984 30.6004 50.7984C30.2004 52.6984 29.5004 54.6984 28.5004 56.7984C27.6004 58.6984 27.0004 59.8984 26.8004 60.2984C25.4004 63.1984 24.3004 65.5984 23.6004 67.4984C22.9004 69.3984 22.3004 71.6984 21.9004 74.1984C21.7004 75.2984 21.6004 76.9984 21.6004 79.1984C21.6004 81.0984 21.7004 83.1984 22.0004 85.4984C22.3004 87.5984 22.5004 89.0984 22.6004 89.7984C23.3004 93.4984 23.6004 96.6984 23.6004 99.4984C23.6004 103.898 22.7004 107.898 20.8004 111.598C19.3004 114.598 17.6004 116.598 15.8004 117.598C14.0004 118.498 11.6004 119.298 8.40039 119.798C5.10039 120.398 2.60039 120.998 1.00039 121.598L0.400391 120.798Z" fill="white"/>
</g>
</g>
<defs>
<clipPath id="clip0_4068_12439">
<rect width="42" height="194" fill="white"/>
</clipPath>
</defs>
</svg>
