<svg width="41" height="194" viewBox="0 0 41 194" fill="none" xmlns="http://www.w3.org/2000/svg">
<g clip-path="url(#clip0_4068_12239)">
<mask id="mask0_4068_12239" style="mask-type:alpha" maskUnits="userSpaceOnUse" x="0" y="0" width="41" height="194">
<path d="M0 0H41V194H0V0Z" fill="#D9D9D9"/>
</mask>
<g mask="url(#mask0_4068_12239)">
<path d="M1.7002 121.101C4.3002 120.301 6.3002 119.501 7.9002 118.601C9.6002 117.601 10.9002 116.401 11.7002 115.001C12.7002 113.601 13.3002 111.901 13.6002 109.801C14.0002 107.601 14.2002 104.901 14.2002 101.601V38.2008C14.2002 34.9008 14.0002 32.3008 13.6002 30.2008C13.3002 28.0008 12.7002 26.2008 11.7002 24.9008C10.8002 23.5008 9.5002 22.4008 7.9002 21.5008C6.3002 20.5008 4.3002 19.6008 1.7002 18.8008H39.2002C36.6002 19.6008 34.5002 20.5008 32.8002 21.5008C31.2002 22.4008 29.9002 23.5008 29.0002 24.9008C28.1002 26.3008 27.5002 28.1008 27.1002 30.2008C26.8002 32.3008 26.7002 34.9008 26.7002 38.2008V101.701C26.7002 105.001 26.8002 107.701 27.1002 109.901C27.5002 112.001 28.1002 113.701 29.0002 115.101C30.0002 116.501 31.3002 117.701 32.8002 118.701C34.5002 119.601 36.6002 120.401 39.2002 121.201H1.7002V121.101Z" fill="white"/>
</g>
</g>
<defs>
<clipPath id="clip0_4068_12239">
<rect width="41" height="194" fill="white"/>
</clipPath>
</defs>
</svg>
