<svg width="54" height="194" viewBox="0 0 54 194" fill="none" xmlns="http://www.w3.org/2000/svg">
<g clip-path="url(#clip0_4068_12599)">
<mask id="mask0_4068_12599" style="mask-type:alpha" maskUnits="userSpaceOnUse" x="0" y="0" width="54" height="194">
<path d="M0 0H54V194H0V0Z" fill="#D9D9D9"/>
</mask>
<g mask="url(#mask0_4068_12599)">
<path d="M27 68.0016C20 68.0016 14 65.6016 9 60.7016C4 55.7016 1.5 49.7016 1.5 42.8016C1.5 35.8016 3.9 30.0016 8.8 25.3016C13.8 20.5016 19.8 18.1016 26.9 18.1016C34 18.1016 39.9 20.5016 44.8 25.3016C49.8 30.0016 52.3 35.8016 52.3 42.8016C52.3 49.8016 49.8 55.8016 44.8 60.7016C40 65.6016 34 68.0016 27 68.0016V68.0016ZM3.7 71.0016H50.3C51.2 71.0016 51.7 71.5016 51.7 72.4016V119.602C51.7 120.502 51.2 121.002 50.3 121.002H3.7C2.8 121.002 2.3 120.502 2.3 119.602V72.4016C2.2 71.5016 2.7 71.0016 3.7 71.0016V71.0016Z" fill="white"/>
</g>
</g>
<defs>
<clipPath id="clip0_4068_12599">
<rect width="54" height="194" fill="white"/>
</clipPath>
</defs>
</svg>
