<svg width="50" height="194" viewBox="0 0 50 194" fill="none" xmlns="http://www.w3.org/2000/svg">
<g clip-path="url(#clip0_4068_12149)">
<mask id="mask0_4068_12149" style="mask-type:alpha" maskUnits="userSpaceOnUse" x="0" y="0" width="50" height="194">
<path d="M0 0H50V194H0V0Z" fill="#D9D9D9"/>
</mask>
<g mask="url(#mask0_4068_12149)">
<path d="M1 18.3984H24.1C31.7 18.3984 37.6 23.1984 42 32.7984C46.1 41.7984 48.2 53.5984 48.2 68.1984C48.2 70.7984 48.1 73.8984 47.9 77.5984C47.7 81.1984 47.3 84.9984 46.7 88.8984C46.2 92.7984 45.4 96.6984 44.2 100.598C43.2 104.498 41.7 107.898 39.9 110.998C38.1 113.998 35.9 116.498 33.2 118.498C30.6 120.398 27.5 121.298 23.8 121.298H1V18.3984ZM21.9 108.398C24.2 108.398 26.2 107.998 27.7 107.198C29.3 106.298 30.7 105.198 31.8 103.698C33 102.198 34 100.498 34.6 98.5984C35.4 96.5984 36.1 94.4984 36.7 92.2984C38.1 87.3984 38.8 82.6984 38.9 78.0984C39.1 73.5984 39.2 69.6984 39.2 66.3984C39.2 64.6984 39.2 63.0984 39.1 61.4984C39 59.8984 38.9 58.4984 38.7 57.2984C38.5 55.7984 38.3 54.4984 38.1 53.1984C37.4 47.4984 36.3 43.0984 34.6 40.1984C33.1 37.1984 31.4 35.0984 29.7 33.7984C27.6 32.2984 25.4 31.4984 23.1 31.4984H9.8V108.398H21.9Z" fill="white"/>
</g>
</g>
<defs>
<clipPath id="clip0_4068_12149">
<rect width="50" height="194" fill="white"/>
</clipPath>
</defs>
</svg>
