<svg width="74" height="194" viewBox="0 0 74 194" fill="none" xmlns="http://www.w3.org/2000/svg">
<g clip-path="url(#clip0_4068_12304)">
<mask id="mask0_4068_12304" style="mask-type:alpha" maskUnits="userSpaceOnUse" x="0" y="0" width="74" height="194">
<path d="M0 0H74V194H0V0Z" fill="#D9D9D9"/>
</mask>
<g mask="url(#mask0_4068_12304)">
<path d="M18.4002 33.2008C26.0002 35.8008 32.2002 38.9008 32.2002 43.7008C32.2002 46.8008 29.6002 49.1008 19.0002 52.1008C4.90019 56.0008 2.1002 60.7008 2.1002 66.5008C2.1002 77.8008 15.6002 82.4008 34.5002 82.4008C52.9002 82.4008 57.7002 84.7008 57.7002 91.2008C57.7002 97.7008 52.6002 101.201 45.7002 101.201C33.4002 101.201 21.9002 95.3008 13.5002 95.3008C7.1002 95.3008 4.2002 99.2008 4.2002 108.101C4.2002 111.201 3.8002 115.001 3.8002 116.901C3.8002 119.101 5.2002 119.701 7.3002 119.701C11.5002 119.701 15.7002 118.401 24.3002 118.401C32.3002 118.401 36.9002 120.301 44.0002 120.301C54.3002 120.301 59.1002 111.101 58.9002 91.4008C58.6002 78.6008 59.8002 63.2008 62.0002 51.9008C66.0002 31.6008 73.0002 22.4008 73.0002 20.5008C73.0002 19.0008 71.9002 17.8008 70.4002 17.8008C68.9002 17.8008 64.5002 18.6008 60.1002 18.6008C52.8002 18.6008 47.1002 17.9008 42.9002 17.9008C41.0002 17.9008 40.1002 18.4008 40.1002 19.9008C40.1002 24.1008 50.8002 37.8008 49.0002 57.5008C47.5002 74.1008 39.5002 81.1008 33.1002 81.1008C28.4002 81.1008 25.7002 77.7008 25.7002 70.6008C25.7002 58.5008 36.5002 45.2008 36.5002 28.5008C36.5002 21.1008 34.6002 18.2008 30.6002 18.2008C28.2002 18.2008 22.6002 18.9008 15.9002 18.9008C12.0002 18.9008 7.1002 18.2008 3.7002 18.2008C1.8002 18.2008 0.700195 19.3008 0.700195 20.6008C0.700195 25.5008 5.40019 28.7008 18.4002 33.2008V33.2008Z" fill="white"/>
</g>
</g>
<defs>
<clipPath id="clip0_4068_12304">
<rect width="74" height="194" fill="white"/>
</clipPath>
</defs>
</svg>
