<svg width="52" height="194" viewBox="0 0 52 194" fill="none" xmlns="http://www.w3.org/2000/svg">
<g clip-path="url(#clip0_4068_12354)">
<mask id="mask0_4068_12354" style="mask-type:alpha" maskUnits="userSpaceOnUse" x="0" y="0" width="52" height="194">
<path d="M0 0H52V194H0V0Z" fill="#D9D9D9"/>
</mask>
<g mask="url(#mask0_4068_12354)">
<path d="M51.7002 94.5992C51.1002 102.799 50.6002 111.499 50.4002 120.699H1.2002V116.999H6.60019V21.9992H1.2002V18.1992H49.2002C49.2002 26.9992 49.4002 34.9992 49.8002 42.3992H46.5002C45.0002 35.1992 42.6002 29.9992 39.2002 26.7992C35.9002 23.5992 31.2002 21.9992 25.2002 21.9992H23.8002V65.9992C31.4002 65.9992 35.8002 61.1992 37.0002 51.4992H40.3002V84.0992H37.0002C35.8002 74.3992 31.4002 69.5992 23.8002 69.5992V116.999H25.1002C31.5002 116.999 36.5002 115.199 40.1002 111.699C43.8002 108.199 46.5002 102.499 48.4002 94.6992H51.7002V94.5992Z" fill="white"/>
</g>
</g>
<defs>
<clipPath id="clip0_4068_12354">
<rect width="52" height="194" fill="white"/>
</clipPath>
</defs>
</svg>
