<?xml version="1.0" standalone="no"?>
<!DOCTYPE svg PUBLIC "-//W3C//DTD SVG 20010904//EN"
 "http://www.w3.org/TR/2001/REC-SVG-20010904/DTD/svg10.dtd">
<svg version="1.0" xmlns="http://www.w3.org/2000/svg"
 width="350.000000pt" height="350.000000pt" viewBox="0 0 350.000000 350.000000"
 preserveAspectRatio="xMidYMid meet">
<metadata>
Created by potrace 1.14, written by Peter Selinger 2001-2017
</metadata>
<g transform="translate(0.000000,350.000000) scale(0.100000,-0.100000)"
fill="#000000" stroke="none">
<path d="M1560 3459 c-435 -67 -744 -219 -1025 -504 -256 -259 -418 -583 -475
-955 -75 -482 77 -994 409 -1377 363 -418 960 -645 1500 -568 514 73 931 332
1212 753 226 339 328 769 274 1158 -38 269 -126 509 -269 729 -312 480 -871
779 -1443 774 -71 -1 -153 -5 -183 -10z m490 -84 c93 -18 101 -20 240 -65 253
-83 511 -256 697 -468 272 -311 409 -682 405 -1102 -2 -258 -54 -481 -162
-701 -122 -249 -298 -459 -515 -615 -124 -89 -176 -118 -370 -204 -39 -18
-226 -70 -308 -85 -134 -26 -361 -31 -502 -11 -130 19 -130 19 -285 66 -404
124 -758 420 -957 800 -28 52 -58 118 -68 145 -10 28 -22 55 -26 60 -9 14 -55
202 -75 310 -21 119 -21 386 1 510 94 535 405 962 880 1208 157 82 390 151
570 171 89 9 392 -2 475 -19z"/>
<path d="M1952 2751 c-43 -44 -57 -106 -56 -251 1 -128 17 -227 56 -344 62
-188 167 -289 236 -228 92 81 68 463 -43 690 -44 91 -72 130 -107 148 -39 20
-53 18 -86 -15z"/>
<path d="M1164 2609 c-29 -15 -51 -57 -69 -132 -18 -77 -17 -136 2 -271 20
-147 86 -329 140 -391 39 -44 75 -65 102 -59 115 26 133 288 40 589 -38 121
-68 183 -116 235 -36 41 -60 48 -99 29z"/>
<path d="M2726 1849 c-42 -33 -33 -70 23 -89 l44 -15 -6 -100 c-12 -204 -67
-386 -165 -539 -30 -47 -209 -227 -268 -269 -46 -34 -218 -118 -287 -141 -74
-25 -212 -46 -299 -46 -314 0 -600 138 -805 387 -24 28 -43 54 -43 58 0 3 -11
21 -25 39 -32 43 -108 204 -100 215 3 5 21 15 40 21 73 24 23 86 -67 82 -86
-4 -168 -52 -168 -98 0 -31 26 -44 64 -33 48 14 52 12 70 -33 96 -232 190
-362 349 -480 244 -181 511 -260 770 -229 439 53 786 306 935 681 57 144 80
254 81 396 l1 71 41 9 c83 18 78 62 -12 106 -68 35 -135 37 -173 7z"/>
</g>
</svg>
