<?xml version="1.0" encoding="utf-8"?>
<svg width="119" height="52" viewBox="0 0 119 52" fill="none" xmlns="http://www.w3.org/2000/svg">
<path d="M114.679 31.463C114.743 30.6167 115.12 29.8128 115.48 29.047C115.521 28.9588 115.563 28.8711 115.603 28.7839C116.003 27.9231 116.334 27.105 116.231 26.2487L116.23 26.2462C116.18 25.7639 116.172 25.2786 116.164 24.8031C116.163 24.7183 116.161 24.6337 116.16 24.5496C116.149 23.9899 116.128 23.4436 116.03 22.9074C115.984 22.6601 115.909 22.3877 115.827 22.0905L115.808 22.022C115.719 21.7016 115.626 21.357 115.564 21.0059C115.441 20.3044 115.439 19.5501 115.869 18.8716C117.066 16.961 117.96 14.9186 118.527 12.8001L112.102 9.00107L111.728 8.78049L112.15 8.68018L113.529 8.3522C112.212 8.01441 110.848 7.83018 109.473 7.80513L109.465 7.80497L109.456 7.8039L52.7539 0.967561L52.5846 0.947146L52.6006 0.777348C52.6108 0.670191 52.6143 0.562696 52.6113 0.455302C51.8783 0.525847 51.1513 0.637171 50.4346 0.788625L50.42 0.791698L50.4052 0.792274C49.1092 0.842561 47.8106 0.798186 46.5231 0.659505C46.1956 0.637336 45.8638 0.613771 45.5292 0.590012C43.8618 0.471605 42.1273 0.348436 40.5337 0.369737C38.6131 0.39541 36.937 0.631663 35.8433 1.30983C34.3259 2.26138 33.5686 3.52322 32.9204 4.85109C32.8065 5.08429 32.6958 5.32043 32.5845 5.55761C32.066 6.66297 31.5369 7.791 30.6363 8.74968L30.6283 8.75822L30.628 8.75793C29.1278 10.155 27.53 11.4698 25.8441 12.6948C25.7287 12.7857 25.6166 12.894 25.4909 13.0155L25.4854 13.0208C25.3587 13.1433 25.2199 13.2769 25.062 13.4031C24.7421 13.6587 24.3427 13.8848 23.7737 13.9635L23.7606 13.9653L23.7473 13.9652C23.0447 13.9556 22.3433 13.9119 21.6463 13.8343C20.7152 13.9764 19.7947 14.1655 18.8889 14.4006L18.8759 14.404L18.8759 14.4035C17.4061 14.6677 15.9969 14.8029 14.5594 14.9408C13.8315 15.0106 13.0962 15.0812 12.3422 15.1695C12.0775 15.2013 11.6768 15.2623 11.1868 15.337C11.0593 15.3564 10.9258 15.3768 10.7871 15.3978C10.1172 15.4992 9.33027 15.6148 8.52906 15.7116C7.72823 15.8084 6.91057 15.8866 6.17934 15.9128C5.54281 15.9356 4.96048 15.9196 4.50899 15.8372L0.43843 40.7631L89.7773 51.602C89.9107 51.237 90.2691 51.0465 90.6733 50.9213C90.9793 50.8265 91.3556 50.7567 91.7533 50.6829C91.953 50.6459 92.1582 50.6078 92.3625 50.5651C93.7658 50.2049 95.121 49.7162 96.4059 49.1075C98.6067 48.054 100.893 47.1429 103.246 46.3815C104.661 45.7808 106.116 45.2551 107.602 44.8071L108.293 40.5049L108.32 40.3334L108.492 40.3596C109.984 40.5875 110.714 40.58 111.214 40.4176C111.46 40.3376 111.659 40.2173 111.872 40.0544C111.98 39.9722 112.09 39.8804 112.213 39.7771L112.243 39.7518C112.357 39.6559 112.482 39.5514 112.621 39.4402L112.626 39.4365L112.626 39.4366C112.804 39.3038 112.982 39.1775 113.158 39.0531C113.561 38.7674 113.951 38.4916 114.296 38.1698L114.299 38.1675C114.613 37.8861 115.003 37.6068 115.388 37.3302L115.471 37.2703C115.888 36.9709 116.295 36.6737 116.619 36.3679C116.946 36.0598 117.167 35.7618 117.239 35.4672C117.308 35.1881 117.249 34.8828 116.947 34.5316C116.717 34.2705 116.46 34.0249 116.201 33.7833C116.159 33.7433 116.115 33.7032 116.072 33.6633C115.858 33.4641 115.645 33.2658 115.454 33.0678C115.003 32.5977 114.631 32.0813 114.679 31.463ZM114.679 31.463C114.679 31.4628 114.679 31.4627 114.679 31.4626L114.854 31.4763L114.679 31.4633C114.679 31.4632 114.679 31.4631 114.679 31.463Z" stroke="#1A1310" stroke-width="0.35"/>
</svg>
