<?xml version="1.0" encoding="utf-8"?>
<svg width="108" height="41" viewBox="0 0 108 41" fill="none" xmlns="http://www.w3.org/2000/svg">
<path d="M0.595671 40.7271C0.627898 40.6851 0.659901 40.6443 0.693366 40.6048C0.811055 40.466 0.916018 40.3821 1.02642 40.3616C1.16143 40.3365 1.29431 40.3266 1.43793 40.3159C1.46633 40.3138 1.49515 40.3116 1.52448 40.3093C1.69781 40.2957 1.8843 40.2768 2.07586 40.2214L2.07592 40.2216L2.08401 40.2188C2.57715 40.0496 3.04639 39.8246 3.48111 39.5488C3.75915 39.4288 4.0083 39.256 4.21228 39.0405L4.22232 39.0299L4.23046 39.0177C4.2759 38.9501 4.30773 38.8795 4.33342 38.8225L4.33812 38.812C4.36629 38.7497 4.38942 38.7006 4.42156 38.6544L4.42251 38.653C4.7616 38.1552 5.17749 37.6903 5.58689 37.2375L5.58716 37.2377L5.59419 37.2289C6.52748 36.0522 7.27599 34.7573 7.81671 33.3832L7.81764 33.3808C7.95856 33.0062 8.02064 32.6333 8.07965 32.279L8.08079 32.2722C8.14061 31.913 8.19783 31.5724 8.32459 31.2338C8.72877 30.3187 9.23829 29.4467 9.84436 28.6331L9.84982 28.6257L9.85449 28.6179C10.2125 28.0151 10.6413 27.4508 11.1333 26.9353L11.1436 26.9245L11.152 26.912C11.4593 26.4542 11.877 26.0676 12.3732 25.783L12.3887 25.7742L12.4021 25.7623C12.918 25.3062 13.3832 24.8025 13.7904 24.2588L13.7907 24.259L13.7968 24.2497C14.3545 23.3971 14.7953 22.4826 15.1088 21.5275C15.2922 21.1152 15.4629 20.7083 15.6325 20.3043C15.8463 19.7946 16.0583 19.2896 16.2912 18.7838L16.2915 18.7839L16.2948 18.7755C16.4573 18.3687 16.6477 17.9719 16.8647 17.5876C17.0872 17.2935 17.351 17.028 17.6495 16.7982L17.6572 16.7923L17.6642 16.7856C18.4398 16.0386 19.0888 15.1854 19.5884 14.2553C19.9483 13.7339 20.2313 13.1695 20.4296 12.5771L20.43 12.5772L20.4333 12.5642C20.4772 12.3896 20.4942 12.2064 20.5095 12.0414C20.5103 12.0323 20.5112 12.0232 20.512 12.0142C20.5286 11.8359 20.5449 11.6811 20.5853 11.5463C20.7735 10.9249 21.0122 10.3176 21.2995 9.72973L21.2998 9.72988L21.3039 9.71991C21.6091 8.98383 21.9849 8.27467 22.4269 7.60105C22.6628 7.27775 22.8705 6.93738 23.0483 6.58308C23.4373 5.80851 23.7614 5.01903 24.0748 4.2323C24.1256 4.10461 24.1762 3.97704 24.2267 3.84963C24.4727 3.22874 24.7174 2.6114 24.989 2.00029C25.0825 2.00321 25.1763 1.99366 25.2674 1.97171C25.4032 1.93902 25.5306 1.87946 25.6409 1.79641L25.6518 1.78818L25.6613 1.77835C25.7967 1.63858 25.9875 1.55084 26.1946 1.53716L26.365 1.5259L26.3579 1.35528C26.3559 1.3083 26.3642 1.26111 26.3826 1.21637C26.3932 1.1904 26.4073 1.16543 26.4244 1.14204L85.388 0.335126V0.573679V0.732467L85.5461 0.747856C86.1314 0.804849 86.7231 0.901431 87.3165 0.998299C87.388 1.00997 87.4595 1.02164 87.531 1.03325C87.7044 1.0619 87.8786 1.07348 88.0422 1.08435L88.0708 1.08626C88.2461 1.09796 88.4094 1.11001 88.5671 1.14002L88.5678 1.14015C88.8373 1.19031 89.0439 1.31361 89.241 1.47607C89.3408 1.55834 89.4364 1.64905 89.5379 1.7461L89.5514 1.75904C89.6469 1.85031 89.7477 1.94675 89.8562 2.03898C90.3088 2.4511 90.8314 2.79 91.4023 3.04222C91.6642 3.16452 91.9627 3.19664 92.2459 3.13439C92.588 3.21503 92.9201 3.32836 93.2368 3.47253L93.2392 3.4736C95.305 4.37616 97.2424 5.51331 99.0071 6.85892L99.0096 6.86081C99.8501 7.47781 100.692 8.08887 101.558 8.67876L101.568 8.68571L101.579 8.69116C102.108 8.9511 102.574 9.30692 102.95 9.73674C103.194 10.1169 103.403 10.5141 103.616 10.9187L103.634 10.9528C103.854 11.3706 104.08 11.7957 104.347 12.2018L104.347 12.2023C104.574 12.5449 104.762 12.9086 104.908 13.2872L104.912 13.2982L104.918 13.3086C105.228 13.8743 105.582 14.4186 105.975 14.9375C106.246 15.3699 106.45 15.8347 106.583 16.3186L106.586 16.3316L106.592 16.3438C106.831 16.8788 106.987 17.4426 107.054 18.0182C107.055 18.2488 107.088 18.4588 107.123 18.6564C107.128 18.6851 107.133 18.7134 107.137 18.7415C107.167 18.9108 107.196 19.0707 107.209 19.2408C107.21 19.5708 107.284 19.8887 107.358 20.1873C107.365 20.2135 107.371 20.2396 107.378 20.2655C107.447 20.5407 107.512 20.7995 107.532 21.0627C107.533 21.2323 107.579 21.3905 107.62 21.5256L107.628 21.5539C107.666 21.6811 107.699 21.7883 107.709 21.897C107.676 22.4303 107.595 22.9602 107.468 23.4813L107.462 23.5042L107.463 23.5278C107.477 24.0089 107.457 24.4902 107.404 24.9688C107.293 25.403 107.148 25.829 106.969 26.2429L106.964 26.2545L106.96 26.2667C106.807 26.8305 106.615 27.3845 106.384 27.9251C106.17 28.3662 105.903 28.7724 105.629 29.1884C105.542 29.3207 105.455 29.4541 105.368 29.5898C105.014 30.1437 104.681 30.7285 104.511 31.4089C104.334 31.8629 104.013 32.2586 103.587 32.5424L103.575 32.5503L103.565 32.5599C103.01 33.0758 102.43 33.5665 101.847 34.0593C101.774 34.1215 101.7 34.1838 101.626 34.2461C100.971 34.801 100.317 35.3624 99.7072 35.9627L99.707 35.9624L99.6998 35.9704C99.0634 36.6783 98.3419 37.3164 97.5493 37.8725C96.6803 38.4634 95.7582 38.9839 94.7931 39.4282L94.7866 39.4312L94.7804 39.4347C94.5542 39.5621 94.3012 39.6442 94.0379 39.6752C93.8372 39.6263 93.633 39.5914 93.4268 39.5708L93.417 39.5698L93.4072 39.5699L0.595671 40.7271Z" stroke="#1A1310" stroke-width="0.35"/>
</svg>
