<?xml version="1.0" encoding="utf-8"?>
<svg width="100" height="53" viewBox="0 0 100 53" fill="none" xmlns="http://www.w3.org/2000/svg">
<mask id="path-1-inside-1" fill="white">
<path d="M25.4539 3.52722C24.3885 3.49749 23.3191 3.43689 22.2635 3.33783C22.1831 3.2704 22.0873 3.23185 21.9869 3.22655C21.8865 3.22124 21.7855 3.24938 21.695 3.30778C21.6455 3.30076 21.6206 3.35786 21.6273 3.42953C21.436 3.57403 21.2176 3.65494 20.9961 3.66339C20.3228 3.71953 19.6657 3.89918 18.9883 3.92444C18.8617 3.91443 18.734 3.92003 18.607 3.94114C18.4141 3.99463 18.2787 4.1775 18.075 4.12845L13.299 4.37105C13.3225 4.85932 13.3831 4.84768 13.1456 5.09692C12.7115 5.43865 12.2218 5.65977 11.715 5.74289C11.2176 5.89565 10.7631 6.22224 10.4115 6.67962C9.81617 7.43381 9.74278 8.6055 9.2683 9.45765C8.83622 10.1736 8.4999 10.9615 8.27218 11.7917C8.08686 12.9514 7.7453 14.0769 7.26098 15.1239C7.00345 15.588 6.71843 16.0305 6.4081 16.4477C5.84173 17.2938 5.33414 18.1919 4.89072 19.1323C3.72931 21.2961 3.06785 23.7655 2.97713 26.2768C2.97574 27.1844 2.90319 28.0941 2.76049 28.9942C2.54924 30.7681 2.50525 32.5547 2.62916 34.3201C2.75618 35.5298 2.71468 36.7662 2.50635 37.9802C2.37172 38.3542 2.27675 38.7448 2.22375 39.1424C2.17182 39.5089 2.1213 39.8654 2.06938 40.2318C1.98658 40.8162 2.06472 41.4537 2.05904 42.0288C2.06401 43.2418 1.8597 44.4454 1.77245 45.6555C1.76155 45.834 1.71071 46.0083 1.62519 46.16C1.34861 47.0449 1.11948 47.9472 0.939226 48.8614C0.627979 49.9286 1.06482 51.7787 1.05485 52.919L1.18698 52.9377L99.5357 47.9302C99.5445 46.2039 99.3255 44.1825 99.2916 42.4602C99.2952 42.2128 99.3503 41.9672 99.4519 41.7454C99.5694 41.2335 99.6296 40.7085 99.6309 40.1846C99.6926 39.8106 99.7208 39.4319 99.7152 39.0549C99.6419 38.5458 99.5968 38.0298 99.5803 37.5102C99.6133 34.484 99.5968 31.4507 99.6463 28.4268C99.683 27.8098 99.6861 27.1926 99.6553 26.5792C99.5867 25.9936 99.1847 25.5023 99.0444 24.9469C98.8467 24.0346 98.697 23.1058 98.5963 22.1657C98.3276 20.7772 98.1223 19.3687 97.9814 17.9464C97.8572 17.2621 97.5902 16.634 97.2044 16.1188C96.6888 15.2716 96.2538 14.3565 95.9068 13.389C95.7368 12.738 95.7901 12.0208 96.0553 11.3894C96.303 10.4142 97.0547 8.85373 96.993 7.74376C96.4068 7.66069 95.9927 6.06635 95.8619 5.56287C95.6743 4.81537 95.4138 4.10046 95.0857 3.43228C94.8158 2.99838 94.4614 2.65061 94.0505 2.41668C93.5953 2.24105 93.1645 2.72556 92.6857 2.65771C92.5482 2.62346 92.4202 2.55365 92.3104 2.45303C91.9995 2.32367 91.6755 2.2371 91.3447 2.19495C90.7175 1.98485 90.1643 1.43162 89.5164 1.24889C88.504 0.963991 87.3614 0.943512 86.3172 0.704625C86.0316 0.598147 85.7295 0.555341 85.4256 0.578279C85.1408 0.682545 84.8489 0.749606 84.555 0.778227C84.1422 0.719731 83.7294 0.661232 83.2999 0.660991C82.7422 0.737834 82.1902 0.886575 81.6536 1.10461C81.1576 1.27679 80.8421 1.36341 80.3875 1.48085C79.9329 1.59829 79.5711 2.01177 79.1163 2.1898C78.2247 2.53831 77.9233 1.51565 77.1649 1.45871C76.6987 1.4619 76.2321 1.549 75.7807 1.71716C74.6703 2.07729 73.5312 2.25584 72.3956 2.2478C71.6632 2.24506 70.9621 1.90323 70.2339 1.87077C70.0411 1.83942 69.8427 1.85962 69.6529 1.9299C69.544 1.98519 69.4609 2.15528 69.3603 2.21174C69.006 2.39391 68.5192 2.20369 68.1775 2.29672C68.036 2.31278 67.8979 2.36769 67.7742 2.45712C67.6504 2.54655 67.5443 2.66801 67.4644 2.81195C67.2723 3.09792 67.0728 2.06946 66.7738 2.15843C66.5706 2.19475 66.3654 2.18045 66.1714 2.11643C65.9774 2.05241 65.799 1.94011 65.6473 1.78669C65.3478 1.5826 64.9369 2.81754 64.5928 2.80919C64.1197 2.81218 63.6477 2.93839 63.2097 3.17898C62.8414 3.31864 62.4679 3.43436 62.0909 3.52561C61.4402 3.78781 60.8202 4.15936 60.2502 4.62866L59.6186 5.04433C59.1725 5.10234 59.0285 5.88009 58.8698 5.5141C58.6331 4.98551 58.4704 4.58866 57.9004 4.62912C57.626 4.62553 57.3506 4.66812 57.0823 4.75566C56.3916 5.11244 55.986 5.95415 55.191 6.21532C54.9958 6.27912 54.8042 6.36003 54.6177 6.45738C53.9864 6.65367 53.3656 6.90335 52.76 7.20446C52.382 7.49441 52.4187 7.71176 52.3473 8.15628C52.3101 8.45363 52.2123 8.73919 52.0625 8.98761C51.9127 9.23603 51.7155 9.43961 51.4885 9.58033C50.566 10.1467 50.2661 11.6096 50.0674 12.7736C49.9862 13.8209 49.8551 14.8649 49.6749 15.9004C49.637 16.1678 49.5977 16.4452 49.5103 16.7056C49.3944 17.0264 49.221 17.3159 49.0028 17.553C48.3588 18.4721 47.8453 17.9952 47.1312 18.874C46.9187 18.296 46.6808 17.7328 46.4185 17.1868L46.2085 16.945C46.2422 16.7073 45.4934 15.6918 45.3714 15.4826L45.3904 13.0303C44.895 12.9601 44.9137 12.6495 44.8629 12.1169C44.812 11.5844 44.7638 11.0926 44.6799 10.5554C44.6175 10.2233 43.2421 9.76568 43.1947 9.50637C43.0944 8.90619 40.9184 7.73909 40.7672 7.1418L34.3799 5.55985C34.0506 5.71565 33.6979 5.77331 33.3538 5.72764C33.3847 5.50975 33.1837 5.50146 33.0532 5.41224C32.9226 5.32302 32.8612 5.16274 32.7623 5.08811C32.7285 5.06386 32.6906 5.04847 32.6508 5.04283C32.611 5.0372 32.5703 5.04143 32.5311 5.05535C32.474 5.06346 32.4173 5.04827 32.3703 5.01222C32.3234 4.97617 32.289 4.92146 32.2729 4.85713C32.1355 4.70377 31.9641 4.59927 31.7767 4.55448C31.6465 4.49874 31.5102 4.46242 31.3709 4.44642C31.2725 4.45204 31.1742 4.46858 31.0775 4.49579C30.8711 4.46654 30.7403 3.96308 30.5948 3.80102C30.3133 3.54318 29.9764 3.38077 29.6173 3.32988C29.2581 3.279 28.8893 3.34141 28.5473 3.51088C28.1763 3.68325 27.7835 3.76513 27.3929 3.75146L25.4539 3.52722Z"/>
</mask>
<path d="M25.4539 3.52722C24.3885 3.49749 23.3191 3.43689 22.2635 3.33783C22.1831 3.2704 22.0873 3.23185 21.9869 3.22655C21.8865 3.22124 21.7855 3.24938 21.695 3.30778C21.6455 3.30076 21.6206 3.35786 21.6273 3.42953C21.436 3.57403 21.2176 3.65494 20.9961 3.66339C20.3228 3.71953 19.6657 3.89918 18.9883 3.92444C18.8617 3.91443 18.734 3.92003 18.607 3.94114C18.4141 3.99463 18.2787 4.1775 18.075 4.12845L13.299 4.37105C13.3225 4.85932 13.3831 4.84768 13.1456 5.09692C12.7115 5.43865 12.2218 5.65977 11.715 5.74289C11.2176 5.89565 10.7631 6.22224 10.4115 6.67962C9.81617 7.43381 9.74278 8.6055 9.2683 9.45765C8.83622 10.1736 8.4999 10.9615 8.27218 11.7917C8.08686 12.9514 7.7453 14.0769 7.26098 15.1239C7.00345 15.588 6.71843 16.0305 6.4081 16.4477C5.84173 17.2938 5.33414 18.1919 4.89072 19.1323C3.72931 21.2961 3.06785 23.7655 2.97713 26.2768C2.97574 27.1844 2.90319 28.0941 2.76049 28.9942C2.54924 30.7681 2.50525 32.5547 2.62916 34.3201C2.75618 35.5298 2.71468 36.7662 2.50635 37.9802C2.37172 38.3542 2.27675 38.7448 2.22375 39.1424C2.17182 39.5089 2.1213 39.8654 2.06938 40.2318C1.98658 40.8162 2.06472 41.4537 2.05904 42.0288C2.06401 43.2418 1.8597 44.4454 1.77245 45.6555C1.76155 45.834 1.71071 46.0083 1.62519 46.16C1.34861 47.0449 1.11948 47.9472 0.939226 48.8614C0.627979 49.9286 1.06482 51.7787 1.05485 52.919L1.18698 52.9377L99.5357 47.9302C99.5445 46.2039 99.3255 44.1825 99.2916 42.4602C99.2952 42.2128 99.3503 41.9672 99.4519 41.7454C99.5694 41.2335 99.6296 40.7085 99.6309 40.1846C99.6926 39.8106 99.7208 39.4319 99.7152 39.0549C99.6419 38.5458 99.5968 38.0298 99.5803 37.5102C99.6133 34.484 99.5968 31.4507 99.6463 28.4268C99.683 27.8098 99.6861 27.1926 99.6553 26.5792C99.5867 25.9936 99.1847 25.5023 99.0444 24.9469C98.8467 24.0346 98.697 23.1058 98.5963 22.1657C98.3276 20.7772 98.1223 19.3687 97.9814 17.9464C97.8572 17.2621 97.5902 16.634 97.2044 16.1188C96.6888 15.2716 96.2538 14.3565 95.9068 13.389C95.7368 12.738 95.7901 12.0208 96.0553 11.3894C96.303 10.4142 97.0547 8.85373 96.993 7.74376C96.4068 7.66069 95.9927 6.06635 95.8619 5.56287C95.6743 4.81537 95.4138 4.10046 95.0857 3.43228C94.8158 2.99838 94.4614 2.65061 94.0505 2.41668C93.5953 2.24105 93.1645 2.72556 92.6857 2.65771C92.5482 2.62346 92.4202 2.55365 92.3104 2.45303C91.9995 2.32367 91.6755 2.2371 91.3447 2.19495C90.7175 1.98485 90.1643 1.43162 89.5164 1.24889C88.504 0.963991 87.3614 0.943512 86.3172 0.704625C86.0316 0.598147 85.7295 0.555341 85.4256 0.578279C85.1408 0.682545 84.8489 0.749606 84.555 0.778227C84.1422 0.719731 83.7294 0.661232 83.2999 0.660991C82.7422 0.737834 82.1902 0.886575 81.6536 1.10461C81.1576 1.27679 80.8421 1.36341 80.3875 1.48085C79.9329 1.59829 79.5711 2.01177 79.1163 2.1898C78.2247 2.53831 77.9233 1.51565 77.1649 1.45871C76.6987 1.4619 76.2321 1.549 75.7807 1.71716C74.6703 2.07729 73.5312 2.25584 72.3956 2.2478C71.6632 2.24506 70.9621 1.90323 70.2339 1.87077C70.0411 1.83942 69.8427 1.85962 69.6529 1.9299C69.544 1.98519 69.4609 2.15528 69.3603 2.21174C69.006 2.39391 68.5192 2.20369 68.1775 2.29672C68.036 2.31278 67.8979 2.36769 67.7742 2.45712C67.6504 2.54655 67.5443 2.66801 67.4644 2.81195C67.2723 3.09792 67.0728 2.06946 66.7738 2.15843C66.5706 2.19475 66.3654 2.18045 66.1714 2.11643C65.9774 2.05241 65.799 1.94011 65.6473 1.78669C65.3478 1.5826 64.9369 2.81754 64.5928 2.80919C64.1197 2.81218 63.6477 2.93839 63.2097 3.17898C62.8414 3.31864 62.4679 3.43436 62.0909 3.52561C61.4402 3.78781 60.8202 4.15936 60.2502 4.62866L59.6186 5.04433C59.1725 5.10234 59.0285 5.88009 58.8698 5.5141C58.6331 4.98551 58.4704 4.58866 57.9004 4.62912C57.626 4.62553 57.3506 4.66812 57.0823 4.75566C56.3916 5.11244 55.986 5.95415 55.191 6.21532C54.9958 6.27912 54.8042 6.36003 54.6177 6.45738C53.9864 6.65367 53.3656 6.90335 52.76 7.20446C52.382 7.49441 52.4187 7.71176 52.3473 8.15628C52.3101 8.45363 52.2123 8.73919 52.0625 8.98761C51.9127 9.23603 51.7155 9.43961 51.4885 9.58033C50.566 10.1467 50.2661 11.6096 50.0674 12.7736C49.9862 13.8209 49.8551 14.8649 49.6749 15.9004C49.637 16.1678 49.5977 16.4452 49.5103 16.7056C49.3944 17.0264 49.221 17.3159 49.0028 17.553C48.3588 18.4721 47.8453 17.9952 47.1312 18.874C46.9187 18.296 46.6808 17.7328 46.4185 17.1868L46.2085 16.945C46.2422 16.7073 45.4934 15.6918 45.3714 15.4826L45.3904 13.0303C44.895 12.9601 44.9137 12.6495 44.8629 12.1169C44.812 11.5844 44.7638 11.0926 44.6799 10.5554C44.6175 10.2233 43.2421 9.76568 43.1947 9.50637C43.0944 8.90619 40.9184 7.73909 40.7672 7.1418L34.3799 5.55985C34.0506 5.71565 33.6979 5.77331 33.3538 5.72764C33.3847 5.50975 33.1837 5.50146 33.0532 5.41224C32.9226 5.32302 32.8612 5.16274 32.7623 5.08811C32.7285 5.06386 32.6906 5.04847 32.6508 5.04283C32.611 5.0372 32.5703 5.04143 32.5311 5.05535C32.474 5.06346 32.4173 5.04827 32.3703 5.01222C32.3234 4.97617 32.289 4.92146 32.2729 4.85713C32.1355 4.70377 31.9641 4.59927 31.7767 4.55448C31.6465 4.49874 31.5102 4.46242 31.3709 4.44642C31.2725 4.45204 31.1742 4.46858 31.0775 4.49579C30.8711 4.46654 30.7403 3.96308 30.5948 3.80102C30.3133 3.54318 29.9764 3.38077 29.6173 3.32988C29.2581 3.279 28.8893 3.34141 28.5473 3.51088C28.1763 3.68325 27.7835 3.76513 27.3929 3.75146L25.4539 3.52722Z" stroke="#1A1310" stroke-width="0.7" mask="url(#path-1-inside-1)"/>
</svg>
