<svg width="224" height="78" viewBox="0 0 224 78" fill="none" xmlns="http://www.w3.org/2000/svg">
<path d="M72.3522 0L72.2952 0.013463L72.2278 0.0179506L72.1708 0.0448766L72.1345 0.0987285L72.0879 0.130142L72.0413 0.166043L71.9791 0.192969L71.948 0.242334L71.9428 0.305161L71.8858 0.341062L71.8651 0.390426L71.8133 0.426328L71.7977 0.48018L71.7874 0.534031L71.7355 0.57442L71.6993 0.619297L71.7148 0.691099L71.6526 0.727001L71.5905 0.749439L71.5542 0.794316L71.549 0.861631L71.4816 0.879581L71.4506 0.933433L71.378 0.937921L71.3262 0.969334L71.2692 0.982797L71.207 1.00075L71.1552 1.03216L71.0982 1.0546L71.0464 1.08601L70.9946 1.10845L70.9531 1.15782L70.8857 1.17128L70.8339 1.1982L70.7769 1.21616L70.7199 1.24308L70.6733 1.28347L70.6059 1.28796L70.5697 1.34181L70.5178 1.36874L70.466 1.40015L70.4038 1.4181L70.352 1.44503L70.2898 1.45849L70.238 1.49439L70.2173 1.55722L70.1551 1.58414L70.0826 1.57966L70.0359 1.62004L69.9997 1.66941L69.9479 1.70082L69.8857 1.71877L69.839 1.75019L69.782 1.77711L69.7147 1.79058L69.6836 1.84443L69.6162 1.8534L69.58 1.90277L69.5126 1.91623L69.4608 1.94764L69.4141 1.98355L69.3779 2.02842L69.326 2.05984L69.2587 2.06881L69.2172 2.11369L69.1654 2.1451L69.1136 2.17651L69.067 2.20793L69.0048 2.23037L68.9789 2.28422L68.9167 2.31114L68.8701 2.34256L68.8079 2.36051L68.7612 2.4009L68.7042 2.42334L68.6472 2.44577L68.5902 2.4727L68.5436 2.51309L68.5229 2.57143L68.4503 2.57592L68.4141 2.62528L68.3519 2.64772L68.3104 2.6926L68.2327 2.68811L68.2068 2.74645L68.155 2.77786L68.1239 2.8362L68.0617 2.84966L68.0203 2.89454L67.9633 2.91698L67.9063 2.93942L67.8596 2.97532L67.813 3.01122L67.756 3.03815L67.7042 3.06507L67.642 3.08302L67.6005 3.1279L67.5539 3.15931L67.5073 3.19521L67.4606 3.24009L67.3829 3.23111L67.3415 3.27599L67.2845 3.30292L67.2534 3.35677H67.1808L67.1394 3.40165L67.0772 3.41511L67.0461 3.47345L66.9787 3.48691L66.9217 3.50935L66.8958 3.57218L66.8181 3.56769L66.7766 3.61257L66.7145 3.62603L66.6782 3.67539L66.616 3.69783L66.559 3.71578L66.502 3.74271L66.4606 3.78758L66.4036 3.80553L66.3673 3.85041L66.2999 3.86836L66.2378 3.87734L66.1859 3.91324L66.1289 3.93119L66.0719 3.94914L66.0305 3.9985L65.9838 4.02992L65.9683 4.08377L65.9217 4.12865L65.8647 4.15557L65.818 4.19596L65.7869 4.24533L65.7662 4.29918L65.7299 4.33957L65.6729 4.37098L65.647 4.42483L65.5745 4.44727L65.5693 4.5101L65.5175 4.54151L65.4709 4.5819L65.4346 4.62678L65.3983 4.66717L65.3465 4.70307L65.305 4.74794L65.2584 4.77487L65.1962 4.80628L65.16 4.84667L65.0926 4.86013L65.0511 4.90501L65.0201 4.95438L64.9631 4.98579L64.9371 5.03515L64.8646 5.04413L64.8076 5.07554L64.7972 5.14286L64.7454 5.17876L64.6884 5.20568L64.6366 5.24159L64.5796 5.25954L64.5174 5.29095L64.5019 5.35378L64.4449 5.37622L64.3931 5.40763L64.3412 5.43904L64.2739 5.45251L64.2376 5.50187L64.1962 5.54226L64.1443 5.57816L64.0977 5.60957L64.0407 5.6365L63.9889 5.66343L63.9371 5.69484L63.9112 5.74869L63.8438 5.76664L63.7816 5.78908L63.7557 5.85191L63.6728 5.84742L63.6624 5.91473L63.6158 5.95961L63.5381 5.9641L63.5018 6.00898L63.4552 6.04936L63.4137 6.08527L63.3567 6.11668L63.3153 6.15258L63.2738 6.19746L63.2168 6.22438L63.1598 6.25131L63.1339 6.30516L63.0925 6.34555L63.0458 6.38594H62.9681L62.9318 6.43979L62.9007 6.48467L62.8541 6.52057L62.823 6.56993L62.7764 6.60583L62.7142 6.63276L62.6572 6.65969L62.6365 6.71803L62.5898 6.75393L62.5432 6.79432L62.5069 6.83919L62.4914 6.89753L62.424 6.91997L62.4188 6.98728L62.3307 6.99177L62.31 7.05011L62.253 7.07704L62.2116 7.11743H62.139L62.0872 7.15333L62.025 7.17128L61.9628 7.16679L61.9007 7.14884L61.8437 7.17577L61.8126 7.21167L61.7452 7.23859L61.7659 7.30591L61.7193 7.35079L61.6882 7.40015L61.6209 7.40913L61.5639 7.42708L61.5069 7.44951L61.4447 7.48093L61.3825 7.454L61.3048 7.44503L61.3307 7.51234L61.2944 7.56171L61.2892 7.61107L61.2581 7.66043L61.2374 7.7098L61.1908 7.7457L61.1441 7.7816L61.113 7.82648L61.0612 7.8534L61.0198 7.89828L60.9524 7.90726L60.8902 7.91623L60.8384 7.94316L60.797 7.99701L60.7296 7.99252L60.6674 8.00598L60.626 8.05086L60.5793 8.08676L60.512 8.09125L60.4602 8.12266L60.398 8.13164L60.341 8.16305L60.284 8.181L60.2218 8.18998L60.17 8.22139L60.113 8.24383L60.0508 8.25729L59.9938 8.27524L59.9472 8.32461H59.8798L59.8332 8.36051L59.7658 8.365L59.7192 8.40539L59.6622 8.42334L59.5896 8.42782L59.5482 8.47719H59.4808L59.4342 8.51309L59.3668 8.52206L59.3254 8.57592L59.2528 8.56694L59.2062 8.60733L59.1492 8.62079L59.0818 8.62977L59.0404 8.67913L58.9885 8.71055L58.9316 8.73298L58.8746 8.75542L58.8176 8.77786L58.7761 8.82723L58.6932 8.8003L58.6673 8.8721L58.5999 8.88556L58.5481 8.91698L58.5118 8.96185L58.4497 8.98878L58.3823 8.98429L58.3305 9.01571L58.2579 9.02019L58.2217 9.06956L58.1595 9.08751L58.1284 9.14585L58.0507 9.13687L58.004 9.17726L57.9522 9.20868L57.9108 9.24907L57.8486 9.26702L57.7968 9.29843L57.719 9.29394L57.6983 9.36126L57.6154 9.35228L57.5999 9.42408L57.5273 9.43306L57.4755 9.46447L57.4289 9.50486L57.3822 9.54076L57.3149 9.54525L57.263 9.58115L57.2164 9.60808L57.1594 9.63052L57.1128 9.67539L57.0661 9.70681L57.0143 9.73822L56.9729 9.7831L56.9262 9.819L56.864 9.83695L56.807 9.85939L56.7708 9.90426L56.719 9.93568L56.6723 9.97607L56.5894 9.96709L56.5687 10.0344L56.5065 10.0479L56.4391 10.0658L56.4029 10.1062L56.3407 10.1331L56.3251 10.196L56.2578 10.2184L56.1749 10.2139L56.1697 10.2902L56.1179 10.3171L56.0505 10.3261L55.9987 10.3665L55.9624 10.4114L55.8847 10.4159L55.8536 10.4652L55.8018 10.4921L55.75 10.5236L55.6878 10.546L55.6463 10.5909L55.6153 10.6358L55.579 10.6851L55.5013 10.6896L55.465 10.739L55.408 10.7614L55.3769 10.8153L55.3354 10.8556L55.2681 10.8691L55.2163 10.9005L55.1904 10.9634H55.1178L55.0815 11.0127L55.0504 11.0621L54.9986 11.098L54.9416 11.1204L54.8795 11.1384L54.8276 11.1698L54.7758 11.2012L54.7551 11.2595L54.6981 11.291L54.6618 11.3358L54.5996 11.3538L54.5634 11.3987L54.5012 11.4211L54.4546 11.4525L54.4079 11.4884L54.3768 11.5423L54.3095 11.5602L54.2576 11.5871L54.2058 11.6185L54.1799 11.6769L54.1281 11.7038L54.0867 11.7442L54.0452 11.7846L53.9778 11.807L53.9467 11.8564L53.9053 11.9013L53.8587 11.9327L53.8172 11.9686L53.7498 11.9865L53.7032 12.0224L53.6773 12.0853H53.5996L53.5944 12.1571L53.5167 12.1616L53.47 12.2019L53.4286 12.2423L53.3819 12.2827L53.3198 12.3007L53.2887 12.35L53.2472 12.3904L53.2058 12.4308L53.1643 12.4712L53.1229 12.5116L53.0659 12.5385L53.0348 12.5879L52.9726 12.6103L52.9363 12.6597L52.8949 12.7001L52.843 12.727L52.786 12.7584L52.7653 12.8123L52.7031 12.8347L52.641 12.8616L52.5788 12.8706L52.5166 12.8841L52.4803 12.9469L52.4181 12.9648H52.3508L52.2782 12.9693L52.242 13.0232L52.1746 13.0277L52.1228 13.0636L52.0762 13.1085L52.0192 13.1354L51.957 13.1488L51.9 13.1668L51.8533 13.2072L51.7912 13.2251L51.7601 13.279H51.6823L51.6461 13.3373L51.5839 13.3508L51.5476 13.4046L51.501 13.4405L51.4543 13.472L51.3922 13.4989L51.3196 13.5123L51.3041 13.5752L51.2626 13.62L51.2108 13.647L51.1538 13.6739L51.0968 13.7053L51.0605 13.7502L51.0191 13.7906L50.9828 13.8399L50.931 13.8714L50.8947 13.9162L50.8636 13.9656L50.8015 13.9925L50.7859 14.0509L50.7652 14.1047L50.7237 14.1496L50.6771 14.1855L50.6408 14.2304L50.5838 14.2663L50.589 14.3291L50.5216 14.356L50.4854 14.4009L50.4491 14.4503L50.3921 14.4727L50.3662 14.531L50.3092 14.558L50.304 14.6298L50.247 14.6567L50.19 14.6836L50.1693 14.742L50.1071 14.7689L50.0708 14.8138L50.0138 14.8362L49.962 14.8721L49.9206 14.9125L49.8687 14.9439L49.8377 14.9933L49.791 15.0292L49.7237 15.0426L49.6926 15.0965L49.6148 15.101L49.5682 15.1369L49.5216 15.1683L49.4801 15.2132L49.4335 15.2446L49.3713 15.267L49.3402 15.3164L49.2832 15.3433L49.2418 15.3837L49.1899 15.4196L49.1329 15.4375L49.0915 15.4869L49.0293 15.5004L48.9879 15.5453L48.9464 15.5856L48.8946 15.6171L48.8376 15.653L48.765 15.6395L48.734 15.6978L48.6614 15.7023L48.6251 15.7517L48.5785 15.7876L48.5215 15.8145L48.4541 15.8235L48.4179 15.8728L48.3764 15.9222H48.3039L48.2469 15.9491L48.2054 15.9895L48.1588 16.0209L48.107 16.0524L48.0551 16.0793L48.0137 16.1242L47.9463 16.1376L47.9101 16.1825L47.8323 16.178L47.8012 16.2408L47.7391 16.2543L47.7132 16.3171H47.6406L47.5836 16.3441L47.5162 16.362L47.5007 16.4293L47.4333 16.4383L47.3815 16.4742L47.3245 16.4966L47.2727 16.5191L47.2261 16.5639L47.1743 16.5954L47.138 16.6447L47.0706 16.6537L47.024 16.6851L46.967 16.712L46.9255 16.7569L46.8789 16.7883L46.8323 16.8242L46.7753 16.8512L46.7442 16.905L46.6872 16.9275L46.6509 16.9813L46.5887 16.9993L46.5576 17.0441L46.4695 17.0396L46.4385 17.0935L46.4022 17.1384L46.3504 17.1698L46.3037 17.2012L46.2571 17.2416L46.2001 17.264L46.1483 17.2999L46.1327 17.3628L46.0861 17.3987L46.0395 17.4346L45.9617 17.4435L45.9255 17.4839L45.8996 17.5423L45.8322 17.5602L45.8115 17.623L45.7389 17.6275L45.7078 17.6814H45.6301L45.5783 17.7128L45.5213 17.7307L45.4591 17.7487L45.4073 17.7846L45.3399 17.7936L45.2933 17.834L45.2415 17.8609L45.2 17.9102L45.1275 17.9147L45.1068 17.982L45.0394 17.9955L44.9876 18.0314L44.9306 18.0494L44.8632 18.0628L44.8166 18.1032L44.7492 18.1122L44.7026 18.1481L44.6508 18.184L44.5938 18.2019L44.5575 18.2513L44.5212 18.2962L44.5057 18.35L44.4798 18.3994L44.4383 18.4398L44.4072 18.4892L44.371 18.5295L44.2984 18.5475L44.2673 18.5969L44.231 18.6372L44.1792 18.6731L44.1222 18.6956L44.0652 18.7225L44.029 18.7764H43.9616L43.9046 18.8078L43.9616 18.8257L43.9979 18.8751L44.029 18.9245L44.1015 18.9604L44.029 18.9918L43.9616 18.9963L43.9201 19.0411L43.8735 19.0815L43.8165 19.104L43.7491 19.1129L43.7129 19.1668L43.6455 19.1803L43.6196 19.2386L43.5574 19.261L43.516 19.3059L43.459 19.3239L43.4382 19.3867L43.3709 19.4046L43.3398 19.454L43.2932 19.4944L43.2517 19.5303L43.2258 19.5886L43.1688 19.6156L43.117 19.647L43.0859 19.6963L43.0548 19.7457L42.9926 19.7726L42.9667 19.822L42.8993 19.8444L42.8734 19.8983L42.8164 19.9252L42.7646 19.9611L42.7335 20.0105L42.7024 20.0643L42.6558 20.1047L42.5936 20.1227L42.5677 20.1765L42.5159 20.2124L42.4641 20.2393L42.4175 20.2797L42.3605 20.2977L42.4175 20.2932L42.4693 20.3201L42.5004 20.347V20.3964V20.4368L42.4796 20.4817L42.4434 20.5266L42.4175 20.5759L42.3294 20.5984L42.4071 20.6298L42.4485 20.6702L42.5055 20.7016L42.4952 20.7644L42.5314 20.8182L42.49 20.8676L42.4641 20.926L42.5055 20.9888L42.4589 21.0381L42.49 21.092L42.4796 21.1503L42.5522 21.1907L42.547 21.2491L42.4952 21.2984L42.5263 21.3568L42.5314 21.4106L42.5004 21.4645L42.4537 21.5049L42.4071 21.5453L42.4123 21.6126L42.376 21.635L42.4123 21.653L42.4693 21.6395L42.5263 21.6305L42.5833 21.6395L42.6403 21.644L42.6869 21.6485V21.6978L42.6299 21.7292L42.5729 21.7607L42.5522 21.8145L42.5263 21.8639L42.49 21.9043L42.4641 21.9536L42.4485 22.0075L42.3915 22.0434L42.4019 22.1062L42.376 22.1556L42.3605 22.2094L42.2983 22.2408V22.3037L42.2516 22.3441L42.2154 22.3844L42.1895 22.4338V22.4921L42.1428 22.5325L42.1065 22.5774L42.0806 22.6268L42.0599 22.6761L42.034 22.7255L41.9977 22.7704L41.977 22.8197L41.9459 22.8691V22.923L41.92 22.9723L41.8578 23.0037V23.0711L41.7956 23.098L41.7542 23.1339L41.7127 23.1832V23.2416L41.6557 23.2685L41.6246 23.3179L41.6091 23.3717L41.5625 23.4166L41.5055 23.4435L41.4744 23.4839L41.4174 23.5153L41.3656 23.5467L41.3137 23.5826L41.3811 23.6006L41.4485 23.6051L41.4847 23.6589L41.4744 23.7173L41.407 23.7307L41.35 23.7622H41.2775L41.2205 23.8025L41.2619 23.8564L41.3086 23.8833L41.2982 23.9417L41.2205 23.9461L41.1583 23.9686L41.1272 24.0314L41.0702 24.0494L41.008 24.0718L40.9873 24.1257L40.9666 24.184L41.0132 24.2199L41.065 24.2468L41.1013 24.2962L41.1324 24.3321L41.0909 24.359L41.0858 24.4218L41.0236 24.4443L41.008 24.5026L40.9614 24.5475L40.9925 24.6103L40.9251 24.6462L40.9096 24.7001L40.8785 24.745L40.894 24.8033L40.8785 24.8571L40.8422 24.902L40.8163 24.9514L40.78 24.9918L40.7386 25.0322L40.7075 25.077L40.6868 25.1354L40.6401 25.1803L40.5779 25.1982L40.5054 25.1892L40.4588 25.2251L40.4277 25.27L40.4069 25.3194L40.3966 25.3777L40.4069 25.4361V25.4854L40.3707 25.5213L40.3344 25.5707L40.293 25.6111L40.236 25.647L40.1738 25.6515L40.1116 25.6694L40.0753 25.7188L40.0442 25.7637L40.0028 25.804L39.9717 25.8489L39.9613 25.9073V25.9566L39.9665 26.015L39.951 26.0688L39.9561 26.1272L39.9095 26.172H39.8318L39.7851 26.2079L39.7541 26.2663L39.6867 26.2708L39.6245 26.2887L39.5779 26.3246L39.5364 26.365L39.495 26.4009L39.4535 26.4413L39.3965 26.4727L39.3499 26.5041L39.3032 26.5355L39.2514 26.5714L39.1892 26.5849L39.1685 26.6522L39.1167 26.6791L39.0442 26.6836L39.0234 26.742L38.9561 26.7599L38.9146 26.8048L38.8576 26.8272L38.811 26.8631L38.7747 26.908L38.7177 26.926L38.6659 26.9574L38.6037 26.9753L38.583 27.0292L38.526 27.0606L38.4742 27.092L38.4172 27.1234L38.3705 27.1593L38.355 27.2177L38.3084 27.2491L38.2876 27.3029L38.241 27.3388L38.1892 27.3747L38.1633 27.4286L38.1374 27.4779L38.1011 27.5183L38.0337 27.5453L38.013 27.5991L37.9975 27.653L37.9405 27.6889L37.9145 27.7337L37.8835 27.7786L37.8679 27.8369L37.8161 27.8684L37.8057 27.9267L37.7435 27.9581L37.7021 28.003L37.6917 28.0568L37.6762 28.1152L37.6088 28.1376L37.614 28.2004L37.5726 28.2453L37.5363 28.2857L37.4793 28.3171L37.4896 28.3889L37.4171 28.4159L37.4016 28.4697L37.3653 28.5146L37.3186 28.5505L37.2927 28.5999L37.2772 28.6492L37.2254 28.6896L37.1891 28.7345L37.158 28.7794L37.1062 28.8153L37.101 28.8781L37.0181 28.8871L37.0026 28.9499L36.93 28.9634L36.9352 29.0352L36.8782 29.0666L36.8212 29.0935L36.7953 29.1473L36.7435 29.1788L36.6658 29.1877L36.6502 29.2551L36.5673 29.2461L36.5466 29.3089L36.4896 29.3448L36.4274 29.3538L36.36 29.3583L36.3238 29.4121L36.2668 29.4346L36.2253 29.4749L36.1631 29.4929L36.1113 29.5198L36.0439 29.5378L35.9973 29.5737L35.9507 29.6051L35.904 29.6455L35.8626 29.6904L35.8108 29.7218L35.7486 29.7352L35.6968 29.7666L35.6553 29.807L35.5828 29.8205L35.5413 29.8609L35.5102 29.9102H35.4325L35.3859 29.9462L35.3444 29.991L35.3133 30.0404L35.2511 30.0628L35.1941 30.0898L35.1372 30.1122L35.075 30.1346L35.0542 30.1975L34.9921 30.2154L34.9402 30.2513L34.8729 30.2648L34.847 30.3231L34.7848 30.3411L34.7278 30.359L34.6708 30.3904L34.6242 30.4218L34.5775 30.4622L34.5464 30.5161L34.4739 30.5251L34.4428 30.5744L34.3754 30.5879L34.3184 30.6103L34.2874 30.6687L34.2355 30.7001L34.1785 30.718L34.1267 30.7539L34.0904 30.8033L34.0334 30.8257L33.9816 30.8527L33.9246 30.8796L33.8832 30.9245L33.8417 30.9648L33.7847 30.9873L33.7277 31.0142L33.6915 31.0636H33.6137L33.5775 31.1129L33.5205 31.1309L33.4842 31.1803L33.4376 31.2206L33.3857 31.2476L33.3236 31.27L33.2976 31.3328L33.2406 31.3553L33.1733 31.3687L33.1267 31.4046L33.0748 31.4316L33.0282 31.4675L32.9764 31.4989L32.9194 31.5213L32.8987 31.5886L32.8313 31.6021L32.7847 31.638L32.7587 31.6963L32.6966 31.7188L32.6499 31.7592L32.5826 31.7726L32.5204 31.7906L32.4893 31.8399L32.4323 31.8624L32.3857 31.9028L32.3338 31.9342L32.2769 31.9611L32.2406 32.0015L32.1732 32.0194L32.1369 32.0688L32.0851 32.0957L32.0281 32.1182L31.9711 32.1451L31.9141 32.1675L31.8779 32.2214L31.826 32.2528L31.7483 32.2483L31.7172 32.3067L31.655 32.3201L31.6188 32.365L31.5566 32.3829L31.51 32.4233L31.4633 32.4592L31.4011 32.4817L31.3545 32.5086L31.3079 32.5535L31.2561 32.5804L31.225 32.6387L31.168 32.6657L31.1006 32.6702L31.0332 32.6881L31.0073 32.7509L30.9503 32.7689L30.9089 32.8138L30.8312 32.8093L30.7793 32.8407L30.7379 32.8811L30.6809 32.9035L30.6239 32.9304L30.5617 32.9484L30.5306 33.0067L30.4736 33.0337L30.4322 33.074L30.3648 33.083L30.2974 33.0965L30.2663 33.1503H30.1886L30.1523 33.1952L30.1109 33.2401L30.0643 33.2805H29.9917L29.9295 33.2984L29.8933 33.3478L29.8414 33.3747H29.7637L29.7223 33.4196L29.6705 33.4555L29.6238 33.4824L29.5616 33.5004L29.5098 33.5363L29.4476 33.5408L29.3855 33.5632L29.344 33.6081L29.2974 33.644H29.2248L29.1678 33.6664L29.1367 33.7292L29.0694 33.7337L29.0227 33.7696L28.9709 33.8055L28.9087 33.8235L28.8569 33.8549L28.7999 33.8773L28.7222 33.8729L28.717 33.9447L28.66 33.9716L28.5875 33.985L28.5512 34.0299L28.5149 34.0748L28.4942 34.1286L28.4217 34.1466L28.375 34.1825L28.3439 34.2319L28.3128 34.2812L28.2662 34.3171L28.2248 34.353L28.1937 34.4024L28.1315 34.4248L28.1004 34.4787L28.0538 34.5101L27.9864 34.5325L27.9501 34.5729L27.9242 34.6313L27.862 34.6492L27.805 34.6806L27.7688 34.721L27.7169 34.7524L27.691 34.8063L27.6392 34.8377L27.5822 34.8646L27.546 34.905L27.5097 34.9544L27.4475 34.9768L27.4112 35.0217L27.3801 35.0711L27.3335 35.107L27.2817 35.1384L27.2143 35.1563L27.1884 35.2102L27.147 35.2506L27.0848 35.2685L27.0278 35.2999L26.9967 35.3448L26.9397 35.3762L26.9138 35.4256L26.8723 35.466L26.7894 35.4705L26.7739 35.5333L26.7324 35.5782L26.6651 35.5961L26.6236 35.632L26.577 35.6679L26.5459 35.7128L26.4785 35.7352L26.4215 35.7666L26.3904 35.807L26.3386 35.8384L26.3075 35.8923L26.2557 35.9192L26.2039 35.9551L26.1521 35.9865L26.1054 36.018L26.0692 36.0628L26.0173 36.0942L25.9759 36.1301L25.9396 36.184L25.8671 36.193L25.8515 36.2558L25.7997 36.2872L25.7686 36.3366L25.7013 36.3545L25.6702 36.4039L25.6028 36.4218L25.5873 36.4892L25.5303 36.5116L25.4681 36.534L25.4474 36.5924L25.3904 36.6193L25.3282 36.6417L25.3126 36.7046L25.2556 36.7315L25.209 36.7674L25.1727 36.8078L25.1209 36.8392L25.0795 36.8841L25.0121 36.902L24.9758 36.9469L24.9706 37.0097L24.9033 37.0366L24.8774 37.086L24.8256 37.1174L24.7789 37.1533L24.7271 37.1847L24.6753 37.2206L24.6442 37.27L24.6131 37.3104L24.5665 37.3508L24.5147 37.3822L24.4991 37.445L24.4525 37.4764L24.4058 37.5123L24.3696 37.5572L24.3281 37.5976L24.2711 37.6245L24.2763 37.6963L24.24 37.7412L24.1934 37.7816L24.1623 37.831L24.1053 37.8579L24.0535 37.8893L24.0328 37.9432L23.9758 37.9701L23.9291 38.0105L23.898 38.0598L23.8877 38.1137L23.8566 38.1631L23.8151 38.2034L23.8048 38.2573V38.3156L23.7374 38.347L23.7167 38.3964L23.7115 38.4548L23.6597 38.4951L23.6856 38.5535L23.6389 38.5984L23.6441 38.6567L23.5819 38.6926L23.613 38.7509L23.5612 38.8048L23.556 38.8542L23.5405 38.9035L23.5923 38.9663L23.5249 39.0022L23.499 39.0516L23.4472 39.083L23.3902 39.1189L23.3177 39.1055L23.2762 39.1593L23.2089 39.1728L23.1519 39.1952L23.1052 39.2311L23.0482 39.258L23.0379 39.3074L23.0534 39.3568L23.0638 39.4106L23.0379 39.4555L23.043 39.5094L23.069 39.5767L22.9912 39.5856L22.9187 39.5587L22.8721 39.5991L22.8151 39.626L22.7943 39.6799L22.7477 39.7158L22.7218 39.7607L22.6959 39.81L22.6389 39.8414L22.5974 39.8773L22.5871 39.9402L22.5249 39.9626L22.4627 39.9716L22.4161 40.0075L22.3539 40.003L22.3487 40.0568L22.385 40.1107L22.3228 40.1511L22.3383 40.2049L22.3694 40.2543L22.3539 40.3037L22.3176 40.3485L22.2658 40.38L22.1984 40.3934L22.1725 40.4473L22.1259 40.4832L22.0741 40.5146L22.043 40.5639H21.9601L21.9186 40.6043L21.872 40.6358L21.8253 40.6717L21.7943 40.7255L21.7269 40.739L21.6906 40.7838L21.6492 40.8242L21.5922 40.8512L21.5404 40.8826L21.4937 40.9185L21.4471 40.9499L21.416 41.0082L21.3434 41.0127L21.3124 41.0666L21.2813 41.1159L21.2295 41.1473L21.1569 41.1518L21.1362 41.2147L21.074 41.2371L21.0274 41.2685L20.9755 41.2999L20.9341 41.3403L20.8978 41.3852L20.8356 41.4076L20.789 41.4435L20.7527 41.4839L20.6906 41.5019L20.6646 41.5602L20.6025 41.5827L20.561 41.6275L20.5247 41.6679L20.4626 41.6904L20.4107 41.7173L20.3589 41.7532L20.3123 41.7846L20.2708 41.8295L20.2553 41.8923L20.2138 41.9327L20.1413 41.9372L20.105 41.9865L20.0739 42.0314L20.0221 42.0673L19.9651 42.0898L19.9029 42.1167L19.8563 42.1526L19.8304 42.2064L19.7993 42.2558L19.7475 42.2872L19.6905 42.3141L19.6438 42.3456L19.6128 42.3949L19.5402 42.4129L19.4988 42.4533L19.4729 42.5026L19.4366 42.5475L19.3899 42.5834L19.3537 42.6283L19.3122 42.6642L19.2759 42.7091L19.2086 42.7315L19.162 42.7764L19.1827 42.8437L19.136 42.8886L19.0998 42.9379L19.1205 43.0007L19.0739 43.0456L19.0687 43.104L19.0065 43.1444L18.9702 43.1892L18.9858 43.261L18.9288 43.2969L18.8718 43.3239L18.8303 43.3598L18.7992 43.4226L18.7474 43.4495L18.6904 43.4809L18.6593 43.5258L18.6334 43.5752L18.6075 43.62L18.5971 43.6784L18.5557 43.7278L18.5868 43.7861L18.5246 43.8265L18.5401 43.8893L18.4935 43.9342L18.5142 43.997L18.4728 44.0419L18.4261 44.0823L18.4158 44.1361L18.4054 44.181L18.4417 44.2214L18.478 44.2573L18.5039 44.3156L18.5401 44.3426L18.5298 44.3829L18.5453 44.4413L18.5142 44.4907L18.4987 44.5445L18.4624 44.5894L18.4572 44.6432L18.4521 44.7016L18.4261 44.7509L18.4365 44.8048L18.421 44.8586V44.9125L18.4002 44.9619L18.3588 45.0112L18.4002 45.0696L18.3588 45.1189L18.3795 45.1818L18.3277 45.2221L18.3173 45.276L18.2707 45.3254L18.307 45.3882L18.2655 45.4331L18.25 45.4824L18.193 45.5138L18.1878 45.5812L18.1308 45.6081L18.0634 45.626L18.0168 45.6619L17.9702 45.6978L17.9183 45.7337L17.8769 45.7741L17.8613 45.8369L17.8303 45.8818L17.7525 45.8953L17.737 45.9581L17.6696 45.9806L17.6385 46.0344L17.5919 46.0658L17.5815 46.1242L17.5349 46.169L17.4624 46.187L17.4468 46.2453L17.4054 46.2857L17.3794 46.3396L17.3017 46.353L17.2447 46.3844L17.2395 46.4473L17.2033 46.5011L17.1411 46.5236L17.0789 46.546L17.0685 46.6133L17.0012 46.6313L16.9442 46.6627L16.9286 46.7255L16.8613 46.7479L16.8146 46.7838L16.7473 46.7973L16.711 46.8422L16.6695 46.8915L16.6022 46.9005L16.5659 46.9589L16.4882 46.9409L16.426 46.9544L16.3794 46.9993L16.3172 47.0217L16.2706 47.0576L16.2187 47.0935L16.2032 47.1518L16.2084 47.2102L16.1669 47.2551L16.1617 47.3089L16.141 47.3628L16.1514 47.4166L16.1203 47.4615L16.1151 47.5198L16.0685 47.5557L16.0011 47.5692L15.97 47.623L15.9337 47.6724L15.8716 47.6904L15.8405 47.7397L15.7835 47.7666L15.7368 47.807L15.7006 47.8474L15.6436 47.8743L15.5969 47.9147L15.5918 47.9776L15.5348 48.009L15.4622 48.0269L15.457 48.0898L15.4311 48.1436L15.3897 48.1885L15.3223 48.2064L15.3327 48.2782L15.2601 48.3007L15.2187 48.35L15.2135 48.4084L15.1824 48.4577L15.1928 48.5161L15.1669 48.5699L15.1461 48.6148L15.1099 48.6642L15.058 48.6911L15.0062 48.7225L14.9492 48.7539L14.9026 48.7943L14.8456 48.8168L14.773 48.8123L14.716 48.8392L14.6746 48.8841L14.6072 48.9065L14.6124 48.9648L14.6072 49.0187L14.5917 49.0726L14.5658 49.1219L14.5347 49.1713L14.5606 49.2341L14.5451 49.288L14.5036 49.3328L14.4829 49.3822L14.4518 49.4316L14.4466 49.4854L14.4362 49.5393L14.3948 49.5841L14.3637 49.629L14.3274 49.6784L14.3222 49.7322L14.2756 49.7681V49.8355L14.2082 49.8579L14.1823 49.9117L14.1461 49.9566L14.1357 50.0105L14.0735 50.0374V50.1047L14.0165 50.1361L13.9751 50.1765L13.9492 50.2259L13.9232 50.2752L13.8714 50.3111L13.8196 50.347L13.7937 50.3964L13.7419 50.4278L13.7056 50.4727L13.6693 50.5176L13.6279 50.558L13.5761 50.5894L13.5709 50.6567L13.4983 50.6702L13.4621 50.7195L13.4051 50.7464L13.3792 50.7958L13.3222 50.8227L13.2859 50.8676L13.2652 50.926L13.203 50.9484L13.1823 51.0112L13.1201 51.0292L13.0631 51.0606L13.0527 51.1234L12.9957 51.1503L12.9594 51.1907L12.9335 51.2401L12.861 51.258L12.8351 51.3119L12.7781 51.3433L12.7574 51.3972L12.7159 51.4375L12.6745 51.4779L12.6537 51.5318L12.5915 51.5587L12.576 51.6171L12.4983 51.644L12.4931 51.7068L12.519 51.7607L12.5035 51.81L12.5242 51.8684L12.4931 51.9177L12.4413 51.9581L12.4516 52.0254L12.3895 52.0524L12.3376 52.0972L12.3739 52.1556L12.405 52.1915L12.3895 52.2453L12.3687 52.2947L12.3843 52.3441L12.3998 52.3979L12.4724 52.3889L12.5294 52.3979L12.5086 52.4518L12.5345 52.5056L12.5035 52.5595L12.519 52.6178L12.5138 52.6717L12.4827 52.721L12.4568 52.7704L12.462 52.8287L12.4206 52.8691L12.405 52.9275L12.4309 52.9948L12.3636 53.0262L12.3532 53.08L12.3325 53.1339L12.3117 53.1832L12.2703 53.2281L12.2236 53.2685V53.3269L12.1511 53.3538L12.1459 53.4166L12.1045 53.457L12.0837 53.5108L12.0475 53.5557L12.0267 53.6051L11.9749 53.641L11.949 53.6904L11.9283 53.7487L11.8817 53.7846L11.8609 53.8384L11.8195 53.8743L11.7884 53.9237L11.778 53.9865L11.7262 54.018L11.7003 54.0673L11.6329 54.0898L11.6018 54.1436L11.6122 54.2064L11.5397 54.2378L11.5293 54.2962L11.5189 54.3545L11.4775 54.3994L11.4257 54.4308L11.3946 54.4757L11.3479 54.5116L11.2961 54.5475L11.2391 54.5744V54.6462L11.1977 54.6821L11.1459 54.718L11.1199 54.7719L11.0785 54.8123L11.0059 54.8257L10.9593 54.8661L10.9334 54.9155L10.8971 54.9604L10.8764 55.0142L10.7987 55.0277L10.7883 55.0905L10.7417 55.1264L10.7054 55.1713L10.6847 55.2251L10.6484 55.2745L10.5914 55.3014L10.5344 55.3283L10.493 55.3687L10.4722 55.4226L10.4204 55.454L10.3686 55.4899L10.3375 55.5393L10.3323 55.6066L10.2753 55.6335L10.2339 55.6739L10.208 55.7233L10.151 55.7547L10.1354 55.8085L10.094 55.8489L10.037 55.8848L10.0007 55.9207L9.9696 55.9701L9.90742 55.997L9.89706 56.0598L9.83488 56.0868L9.80379 56.1316L9.75715 56.1675L9.70015 56.199L9.68461 56.2528L9.63279 56.2842L9.6017 56.3381L9.53952 56.365L9.49807 56.4009L9.44625 56.4368L9.42552 56.4907L9.37889 56.5266L9.36334 56.5849L9.31671 56.6208L9.25453 56.6477L9.24416 56.7061L9.21307 56.7554L9.14053 56.7779L9.12499 56.8317L9.0628 56.8542L9.04208 56.9125L8.9799 56.9349L8.94881 56.9888L8.88144 57.0112L8.86072 57.0651L8.8089 57.092L8.78299 57.1458L8.7519 57.1952L8.68454 57.2177L8.65345 57.2625L8.63272 57.3209L8.58609 57.3523L8.54463 57.3972L8.48763 57.4196L8.45654 57.469L8.43064 57.5228L8.36327 57.5452L8.31664 57.5812L8.29591 57.635L8.23891 57.6619L8.1871 57.6978L8.18191 57.7651L8.10419 57.7786L8.08864 57.837L8.05237 57.8818L7.99537 57.9087L7.96946 57.9581L7.91247 57.9895L7.87101 58.0299L7.8451 58.0793L7.7881 58.1107L7.75701 58.1556L7.69483 58.1825L7.6482 58.2184L7.59638 58.2543L7.56529 58.2992L7.53938 58.353L7.48757 58.38L7.43057 58.4069L7.39948 58.4562L7.35802 58.4966L7.33211 58.546L7.29066 58.5909L7.24403 58.6268L7.19739 58.6672L7.15594 58.7031L7.09376 58.721L7.04194 58.7569L7.02121 58.8153L6.96421 58.8377L6.93831 58.8915L6.88649 58.9274L6.83467 58.9589L6.81394 59.0127L6.76731 59.0486L6.72067 59.089L6.65331 59.1114L6.64813 59.1743L6.65331 59.2281L6.63777 59.282L6.63258 59.3448L6.6844 59.3942L6.66367 59.4525L6.69476 59.5108L6.65849 59.5737L6.71549 59.5961L6.78285 59.6275L6.83467 59.5827H6.90203L6.95903 59.5692L7.01085 59.5333L7.05748 59.4974L7.11966 59.4749L7.19221 59.4884L7.22848 59.4346L7.29584 59.4166L7.36839 59.4076L7.35284 59.4705L7.39948 59.5108L7.43575 59.5378L7.49275 59.5647L7.55493 59.5378L7.62229 59.5557L7.66893 59.5378L7.71038 59.5602L7.72592 59.6141L7.75701 59.6589L7.75183 59.7173L7.73111 59.7711L7.71556 59.8205L7.67929 59.8654L7.65856 59.9192L7.60156 59.9506L7.58602 60.009L7.53938 60.0494L7.51347 60.1077L7.54456 60.166L7.50311 60.2199L7.46166 60.2558L7.38911 60.2693L7.35284 60.3141L7.32175 60.359L7.26993 60.3949L7.23884 60.4443L7.20257 60.4892L7.20775 60.5565L7.13521 60.5789V60.6417L7.09894 60.6866L7.07303 60.7315L7.03158 60.7809L7.00049 60.8212L6.95385 60.8661L6.97458 60.9334L6.95903 60.9873L6.93312 61.0322L6.88649 61.077L6.89685 61.1399L6.87094 61.1847L6.8554 61.2386L6.82949 61.2835L6.82431 61.3373L6.78804 61.3867L6.75695 61.436V61.4944L6.76213 61.5482L6.72067 61.5931L6.70513 61.647L6.69995 61.7008L6.6844 61.7547L6.68958 61.7861L6.73104 61.7816L6.78285 61.813L6.8554 61.7996L6.79322 61.8399L6.75695 61.8893V61.9476L6.72585 61.9925L6.67404 62.0329L6.66367 62.0913L6.66886 62.1451L6.68958 62.199L6.64813 62.2618L6.71549 62.2887L6.77249 62.3111L6.78804 62.3695L6.84503 62.4009L6.85022 62.4592L6.86576 62.5131L6.80358 62.558L6.81394 62.6163L6.80358 62.6746L6.73622 62.7061L6.72585 62.7644L6.72067 62.8182L6.69476 62.8721L6.64295 62.908L6.62222 62.9663L6.59631 63.0112L6.54968 63.0516L6.5134 63.092L6.4875 63.1503L6.53931 63.1907L6.58595 63.2177L6.64295 63.2491L6.65849 63.2939L6.63258 63.3433L6.63777 63.4061L6.59113 63.4465L6.5704 63.5004L6.54968 63.5497L6.5445 63.6081L6.51859 63.6574L6.50304 63.7113L6.50822 63.7696L6.47713 63.819L6.44604 63.8684L6.41495 63.9177L6.42013 63.9761L6.39941 64.0299L6.35795 64.0703L6.32168 64.1152L6.30614 64.1735L6.27505 64.2184L6.21287 64.2453L6.18696 64.2992L6.1455 64.3441L6.20768 64.371L6.26987 64.3485L6.33723 64.3351L6.3165 64.3979L6.26987 64.4383L6.26468 64.4966L6.23359 64.5415L6.21805 64.5954V64.6492L6.17141 64.6986L6.19214 64.7569L6.15587 64.8018L6.16105 64.8601L6.15069 64.914L6.14032 64.9678L6.16105 65.0262L6.1455 65.08L6.1196 65.1294L6.08851 65.1788L6.07814 65.2281L6.09369 65.2865L6.08332 65.3403L6.05223 65.3897L6.03151 65.4435L5.99005 65.4839L5.97969 65.5378L5.93824 65.5782L5.87606 65.6006L5.85015 65.6589L5.79833 65.6904L5.73097 65.6993L5.67915 65.7263L5.62733 65.7577L5.57552 65.7981L5.51852 65.8115L5.44079 65.825L5.45116 65.8923L5.39934 65.9282L5.3527 65.9686L5.36825 66.0314L5.33716 66.0808L5.2698 66.1077L5.25425 66.166L5.20243 66.2064L5.19207 66.2603L5.17652 66.3096L5.14025 66.3545L5.08844 66.3904V66.4488L5.0418 66.4936L5.02107 66.543L4.96407 66.5744L4.94335 66.6283L4.93298 66.6821L4.91744 66.736L4.88117 66.7809L4.85526 66.8302L4.81381 66.8706L4.76717 66.9065L4.74644 66.9604L4.72572 67.0097L4.69981 67.0591L4.66872 67.1085L4.62208 67.1444L4.60654 67.1982L4.58063 67.2431L4.54954 67.2924L4.48218 67.3194L4.49254 67.3867L4.4459 67.4271L4.42 67.4809L4.45109 67.5348L4.52363 67.5438L4.56508 67.5797L4.62208 67.62L4.58063 67.6784L4.55472 67.7322L4.49772 67.7681L4.47699 67.8175L4.46145 67.8758L4.43036 67.9207L4.40963 67.9701L4.39927 68.0284L4.34745 68.0688L4.31118 68.1182L4.31636 68.181L4.29045 68.2259L4.28009 68.2842L4.25936 68.3336L4.20755 68.374L4.23345 68.4413L4.192 68.4862L4.18164 68.5445L4.16091 68.5939L4.11946 68.6387L4.09873 68.6926L4.12464 68.7554L4.08318 68.8003V68.8586L4.04173 68.9035L4.03655 68.9619L3.97955 69.0022L3.96919 69.0561L3.94846 69.1099V69.1638L3.93292 69.2177L3.91737 69.2715L3.88628 69.3164L3.87592 69.3747L3.81374 69.4061L3.79819 69.4555L3.75156 69.4959L3.72047 69.5497L3.75156 69.6126L3.69456 69.653L3.67383 69.7023L3.64792 69.7472L3.62719 69.7966L3.60129 69.8459L3.5961 69.9043V69.9536L3.5702 70.0075L3.55465 70.0568V70.1152V70.1601L3.50283 70.187L3.45102 70.2139L3.3992 70.2543L3.33184 70.2633L3.28002 70.2902L3.21266 70.3171L3.19711 70.3665L3.19193 70.4203V70.4742L3.17639 70.5281L3.16602 70.5819L3.12457 70.6223L3.11939 70.6806L3.10902 70.7345L3.04166 70.7659L3.01575 70.8197L2.98984 70.8691L2.94321 70.9095L2.9173 70.9589L2.89139 71.0037L2.8603 71.0576L2.82921 71.1025V71.1653L2.76703 71.2012L2.76185 71.255L2.76703 71.3179L2.73594 71.3628L2.67376 71.3987L2.65303 71.4525L2.65822 71.5108L2.62713 71.5602L2.64785 71.6185L2.60122 71.6634L2.59085 71.7173L2.58049 71.7711V71.8295L2.56494 71.8833L2.55458 71.9327L2.54422 71.9865L2.50276 72.0359V72.0898L2.46131 72.1346L2.45613 72.193L2.44058 72.2423V72.3007L2.4354 72.3545L2.40949 72.4039V72.4577L2.39395 72.5116V72.5699L2.33177 72.6058L2.32659 72.6642L2.31104 72.718L2.30068 72.7719L2.30586 72.8302L2.25404 72.8706V72.9289L2.22295 72.9783L2.1815 73.0187L2.16595 73.0726L2.15559 73.1264L2.11932 73.1713L2.09859 73.2206V73.279L2.05714 73.3283L2.00532 73.3642L1.96387 73.4046L1.93278 73.4495L1.8965 73.4944L1.8706 73.5438L1.83951 73.5886L1.77733 73.6156L1.77214 73.6829L1.70478 73.7053L1.64778 73.7412L1.66333 73.7996L1.66851 73.8489L1.66333 73.8983L1.70996 73.9476L1.67887 73.997L1.68924 74.0509L1.66333 74.1047L1.60633 74.1451H1.53379L1.50269 74.2124L1.4457 74.2349L1.39388 74.2663L1.34724 74.2932L1.33688 74.347L1.31097 74.3964V74.4458L1.3317 74.4951L1.32652 74.5445L1.34206 74.5939L1.31615 74.6432L1.29024 74.6881L1.24361 74.7195L1.20216 74.7599L1.14516 74.7734L1.09852 74.8272L1.05189 74.8586L1.01043 74.899L0.968979 74.9439L0.943071 74.9978L0.979343 75.0516L0.968979 75.101L0.984524 75.1548L0.963797 75.2087L0.953434 75.2625L0.937889 75.3119L0.917162 75.3613L0.886072 75.4106L0.901617 75.469L0.896435 75.5183L0.891254 75.5722L0.8498 75.6215L0.865345 75.6754L0.829073 75.7248L0.808346 75.7741L0.839436 75.8325L0.813528 75.8818L0.829073 75.9402L0.787619 75.985L0.772074 76.0344L0.735802 76.0793L0.740984 76.1466L0.689167 76.1825L0.663258 76.2274L0.595896 76.2543L0.580351 76.3082L0.544079 76.353L0.523352 76.4069L0.48708 76.4473L0.440445 76.4877L0.378265 76.5146L0.347174 76.564L0.336811 76.6223L0.279812 76.6537L0.24354 76.6986L0.207268 76.739L0.176178 76.7883L0.108816 76.8108L0.0777256 76.8601L0.0259085 76.8915L0 78H224V0H72.3522Z" fill="#FAF7EF"/>
</svg>
