<svg width="77" height="194" viewBox="0 0 77 194" fill="none" xmlns="http://www.w3.org/2000/svg">
<g clip-path="url(#clip0_4068_12189)">
<mask id="mask0_4068_12189" style="mask-type:alpha" maskUnits="userSpaceOnUse" x="0" y="0" width="77" height="194">
<path d="M0 0H77V194H0V0Z" fill="#D9D9D9"/>
</mask>
<g mask="url(#mask0_4068_12189)">
<path d="M2 17.8984H38.5C50.2 17.8984 59.2 21.0984 65.6 27.4984C72 33.8984 75.2 43.7984 75.2 57.2984V80.7984C75.2 94.4984 72 104.598 65.5 111.098C59 117.598 49.6 120.898 37 120.898H2V17.8984ZM32.3 97.1984C35.4 97.1984 37.9 96.6984 39.8 95.6984C41.7 94.5984 43.2 92.8984 44.1 90.5984C45.1 88.2984 45.6 85.0984 45.6 81.0984V56.8984C45.6 53.0984 45.1 50.0984 44.1 47.8984C43.1 45.5984 41.7 43.9984 39.8 43.0984C37.9 42.0984 35.4 41.6984 32.3 41.6984H29.7V97.2984H32.3V97.1984Z" fill="white"/>
</g>
</g>
<defs>
<clipPath id="clip0_4068_12189">
<rect width="77" height="194" fill="white"/>
</clipPath>
</defs>
</svg>
