<svg width="178" height="194" viewBox="0 0 178 194" fill="none" xmlns="http://www.w3.org/2000/svg">
<mask id="mask0_4068_12389" style="mask-type:alpha" maskUnits="userSpaceOnUse" x="0" y="0" width="172" height="194">
<path d="M0 0H172V194H0V0Z" fill="#D9D9D9"/>
</mask>
<g mask="url(#mask0_4068_12389)">
<path d="M177.2 78.6984C177 79.1984 176.6 79.4984 176 79.4984C175.4 79.3984 174.9 79.4984 174.7 79.5984C174.8 79.6984 174.6 79.8984 174 80.0984C173.5 80.2984 172.9 80.4984 172.4 80.7984C171.9 80.9984 171.5 81.1984 171.2 81.2984C171 81.3984 171.3 81.2984 172.1 80.9984C172.2 81.2984 171.5 81.5984 170 82.0984C168.6 82.4984 166.9 82.7984 165.1 83.1984C163.3 83.5984 161.6 83.8984 159.9 84.0984C158.3 84.3984 157.4 84.4984 157.1 84.4984C156 84.5984 154.5 84.7984 152.6 85.1984C150.6 85.5984 148.6 85.9984 146.5 86.4984C144.4 86.8984 142.3 87.3984 140.2 87.7984C138.2 88.1984 136.7 88.3984 135.5 88.5984L135.2 88.8984C135.2 88.7984 135.2 88.7984 135.2 88.7984C135.2 88.7984 135 88.8984 134.7 89.1984C134.4 89.3984 134 89.6984 133.4 90.2984C132.8 90.7984 131.9 91.5984 130.7 92.5984C129.7 93.5984 128.7 94.5984 127.6 95.4984C126.6 96.3984 125.6 97.1984 124.5 97.8984C124 98.4984 123.4 99.0984 122.9 99.4984C122.4 99.8984 121.7 100.398 121 100.798C120.6 101.398 120 101.898 119.4 102.098C118.9 102.498 118.3 102.898 117.7 103.398C117.2 103.798 116.6 104.298 116 104.698C115.4 105.098 114.8 105.598 114.1 105.998C112.3 107.198 110.5 108.498 108.8 109.898C107 111.298 105.2 112.698 103.5 113.898C101.4 115.098 99.3998 116.398 97.4998 117.798C95.5998 119.198 93.5998 120.398 91.3998 121.398C90.9998 121.698 90.4998 121.998 90.0998 122.298C89.6998 122.698 89.0998 122.798 88.3998 122.798C87.1998 123.598 85.7998 124.398 84.3998 125.198C82.9998 126.098 81.4998 126.798 79.8998 127.298C78.6998 127.898 77.5998 128.398 76.3998 128.798C75.1998 129.198 73.9998 129.698 72.7998 130.298C72.5998 130.198 72.5998 130.198 72.7998 130.298C72.9998 130.498 72.9998 130.598 72.7998 130.598C72.1998 130.798 71.5998 130.998 71.1998 131.098C70.7998 131.398 70.2998 131.598 69.8998 131.798C69.2998 132.098 68.5998 132.298 67.8998 132.598C67.1998 132.998 66.4998 133.398 65.8998 133.798C65.4998 133.598 65.2998 133.598 65.0998 133.798C64.9998 133.998 64.7998 134.098 64.3998 134.098C63.5998 134.798 62.5998 135.298 61.4998 135.698C60.2998 136.098 59.2998 136.498 58.2998 136.998C58.2998 136.998 58.0998 136.998 57.7998 136.998C55.4998 138.098 53.1998 139.098 50.8998 139.898C48.6998 140.798 46.2998 141.598 43.6998 142.198C43.4998 142.298 43.3998 142.398 43.2998 142.498C43.2998 142.698 43.1998 142.798 42.8998 142.898C41.6998 143.298 40.4998 143.598 39.3998 143.998C38.3998 144.398 37.1998 144.598 35.6998 144.698C35.4998 144.698 35.3998 144.798 35.3998 144.998C35.4998 145.198 35.3998 145.298 35.2998 145.298C34.5998 145.298 33.9998 145.398 33.3998 145.598C32.9998 145.898 32.4998 145.998 31.8998 145.998C28.4998 146.598 24.8998 147.098 20.8998 147.298C16.9998 147.598 13.1998 147.198 9.49976 146.198L8.29976 145.698C7.79976 145.498 7.29976 145.398 6.79976 145.298C6.29976 145.298 5.69976 145.198 5.09976 144.898C3.99976 144.398 3.09976 143.598 2.29976 142.598C1.39976 141.698 1.19976 140.298 1.59976 138.498C1.99976 137.998 2.29976 137.398 2.69976 136.798C2.99976 136.298 3.19976 135.798 3.39976 135.298C3.99976 133.898 4.89976 132.598 5.89976 131.398C6.99976 130.198 7.99976 129.198 8.99976 128.298C9.39976 127.698 9.79976 127.098 10.4998 126.698C10.9998 126.298 11.4998 125.898 11.9998 125.398C15.4998 122.598 18.8998 120.198 22.2998 118.198C25.6998 116.198 29.0998 114.498 32.5998 112.798C36.0998 111.198 39.5998 109.598 43.2998 108.098C46.9998 106.598 50.7998 104.898 54.8998 102.998C55.3998 101.198 56.0998 99.1984 56.8998 96.7984C57.6998 94.3984 58.4998 91.9984 59.3998 89.5984C60.2998 87.1984 61.0998 84.8984 61.8998 82.5984C62.7998 80.2984 63.4998 78.1984 63.9998 76.3984C64.1998 75.4984 64.3998 74.7984 64.7998 74.3984C64.8998 73.6984 64.9998 73.0984 65.0998 72.6984C65.1998 72.2984 65.3998 71.8984 65.5998 71.4984C67.2998 66.7984 68.8998 62.1984 70.4998 57.6984C72.0998 53.0984 73.8998 48.6984 75.7998 44.3984L77.3998 40.1984C77.5998 39.7984 77.7998 39.3984 78.0998 39.2984C78.3998 38.9984 78.4998 38.5984 78.4998 37.9984C78.1998 37.5984 77.9998 37.4984 77.6998 37.6984C77.3998 37.8984 77.0998 38.0984 76.7998 38.1984C72.3998 39.7984 68.8998 41.0984 66.0998 42.0984C63.3998 43.0984 61.0998 43.9984 58.9998 44.7984C56.9998 45.5984 54.8998 46.4984 52.9998 47.4984C50.9998 48.3984 48.6998 49.5984 45.8998 51.1984C45.1998 51.5984 44.4998 52.1984 43.7998 52.7984C43.0998 53.2984 42.2998 53.6984 41.3998 53.9984C40.5998 54.3984 39.7998 54.7984 38.8998 55.1984C37.9998 55.4984 37.2998 55.8984 36.7998 56.3984C35.9998 56.8984 35.1998 57.4984 34.4998 58.0984C33.7998 58.5984 32.7998 58.7984 31.5998 58.5984C31.3998 58.5984 31.1998 58.5984 31.0998 58.4984C30.7998 58.2984 30.5998 58.0984 30.2998 57.9984C29.6998 57.7984 29.0998 57.6984 28.6998 57.5984C28.2998 57.4984 27.7998 57.1984 27.3998 56.7984C27.0998 56.4984 26.7998 56.1984 26.2998 55.8984C25.8998 55.4984 25.5998 55.0984 25.5998 54.7984C25.5998 54.3984 25.9998 53.8984 26.7998 53.2984C27.5998 52.6984 28.0998 52.2984 28.2998 52.0984C28.6998 51.8984 29.1998 51.6984 29.7998 51.5984C30.2998 51.2984 30.8998 50.9984 31.3998 50.6984C32.5998 49.9984 33.9998 49.2984 35.3998 48.5984C36.7998 47.8984 38.1998 47.0984 39.4998 46.2984C41.4998 45.2984 43.5998 44.3984 45.4998 43.5984C47.4998 42.6984 49.4998 41.7984 51.5998 40.8984C56.2998 38.8984 61.1998 36.9984 66.2998 34.9984C71.3998 32.9984 76.5998 31.3984 81.8998 30.1984C82.1998 29.7984 82.3998 29.2984 82.5998 28.8984C82.7998 28.3984 82.9998 27.8984 83.3998 27.5984V26.6984C83.6998 26.1984 83.8998 25.6984 84.1998 25.1984C84.5998 24.6984 85.0998 24.3984 85.7998 24.2984C85.8998 24.2984 85.8998 24.2984 85.8998 24.1984V23.8984C86.2998 23.6984 86.6998 23.4984 86.9998 23.3984C87.3998 23.1984 87.6998 22.9984 87.8998 22.8984C89.6998 23.1984 90.9998 23.6984 91.8998 24.5984C92.8998 25.3984 93.6998 26.3984 94.3998 27.4984C96.3998 27.3984 98.2998 27.1984 100.3 26.9984C102.3 26.6984 104.4 26.5984 106.6 26.4984C109.6 26.2984 113 26.1984 116.6 26.1984C120.3 26.0984 124 26.2984 127.7 26.6984C131.4 27.0984 134.8 27.6984 138.1 28.6984C141.5 29.5984 144.3 30.9984 146.7 32.8984C147.9 33.8984 149.1 34.9984 150.2 36.3984C151.3 37.6984 152.2 38.9984 153 40.2984C153.8 41.5984 154.5 43.0984 155.1 44.6984C155.8 46.1984 156.3 47.8984 156.6 49.6984C156.9 51.9984 156.4 54.7984 155.1 57.9984C153.9 61.1984 152.5 64.3984 150.7 67.5984C148.9 70.7984 147 73.7984 145.1 76.5984C143.1 79.3984 141.5 81.3984 140.3 82.7984C141.5 82.6984 143 82.4984 144.6 82.0984C146.3 81.6984 147.9 81.3984 149.5 80.9984C151.2 80.5984 152.8 80.1984 154.4 79.8984C156.1 79.4984 157.6 79.2984 158.8 79.0984C159.7 78.8984 160.6 78.7984 161.5 78.7984C162.4 78.6984 163.3 78.6984 164.3 78.6984C165.7 78.3984 166.9 78.2984 167.9 78.1984C168.9 77.9984 169.7 77.8984 170.4 77.7984C171.1 77.6984 171.8 77.6984 172.4 77.6984C173.1 77.5984 174 77.4984 174.9 77.2984C175.2 77.2984 175.5 77.2984 176 77.3984C176.5 77.4984 176.8 77.5984 176.8 77.7984C177.2 78.1984 177.2 78.4984 177.1 78.4984C176.6 78.4984 176.7 78.4984 177.2 78.6984V78.6984ZM82.8998 95.6984C86.8998 94.4984 90.7998 93.3984 94.4998 92.3984C98.1998 91.1984 102 90.1984 105.7 89.1984C109.4 88.1984 113.2 87.2984 117.1 86.4984C121 85.5984 125.1 84.7984 129.3 84.0984C130.1 83.2984 131 82.1984 132.1 80.8984C133.3 79.5984 134.4 78.1984 135.6 76.6984C136.8 75.2984 137.8 73.8984 138.8 72.4984C139.9 71.1984 140.8 70.0984 141.5 69.2984C142.3 68.0984 143.1 66.7984 143.9 65.2984C144.7 63.7984 145.4 62.1984 146 60.5984C146.7 58.9984 147.3 57.3984 147.7 55.7984C148.2 54.0984 148.5 52.4984 148.6 51.0984C148.8 48.1984 148.1 45.3984 146.6 42.6984C145.1 39.8984 143 38.0984 140.5 37.0984C135.3 35.0984 130.4 33.8984 125.7 33.3984C121.1 32.7984 116.7 32.5984 112.5 32.8984C108.4 33.0984 104.6 33.4984 101 34.0984C97.3998 34.6984 94.0998 35.1984 91.0998 35.5984C90.2998 37.1984 89.6998 38.4984 89.1998 39.2984C88.7998 40.0984 88.3998 40.9984 87.6998 42.0984C86.8998 43.5984 86.2998 44.9984 85.9998 46.2984C85.5998 46.6984 85.2998 47.1984 85.1998 47.5984C85.1998 47.8984 84.9998 48.3984 84.6998 49.2984C84.2998 49.9984 83.9998 50.6984 83.5998 51.2984C83.2998 51.8984 83.0998 52.5984 82.8998 53.3984C82.4998 54.1984 82.0998 54.9984 81.6998 55.6984C81.3998 56.3984 81.1998 57.0984 80.8998 57.7984C80.8998 58.0984 80.8998 58.3984 80.7998 58.6984C80.7998 59.0984 80.7998 59.4984 80.6998 59.8984L78.2998 64.6984C77.5998 65.9984 76.9998 67.4984 76.3998 69.0984C75.9998 70.5984 75.4998 71.9984 75.0998 73.3984C74.6998 74.8984 73.9998 76.3984 73.1998 77.9984C72.4998 79.3984 71.8998 80.8984 71.2998 82.3984C70.9998 83.1984 70.4998 84.4984 69.7998 86.2984C69.0998 87.9984 68.3998 89.8984 67.6998 91.8984C66.9998 93.8984 66.2998 95.7984 65.5998 97.6984C64.9998 99.5984 64.5998 100.998 64.3998 101.998C65.6998 101.598 67.1998 101.198 68.6998 100.698C70.2998 100.098 71.9998 99.4984 73.5998 98.9984C75.2998 98.3984 76.8998 97.7984 78.4998 97.2984C80.0998 96.4984 81.4998 95.9984 82.8998 95.6984V95.6984ZM114.3 91.2984C107.1 93.2984 101.2 94.8984 96.6998 96.2984C92.1998 97.4984 88.6998 98.5984 86.0998 99.3984C83.4998 100.198 81.6998 100.798 80.5998 101.098C79.4998 101.498 78.7998 101.698 78.4998 101.798C78.1998 102.198 78.0998 102.398 77.9998 102.298C75.0998 103.098 72.1998 104.298 69.2998 105.798C66.4998 107.298 64.1998 108.398 62.3998 108.998C61.6998 111.698 60.8998 114.098 59.9998 116.198C59.1998 118.398 58.2998 120.598 57.2998 122.598C57.1998 122.598 57.0998 122.598 56.9998 122.698C56.9998 122.798 56.8998 122.798 56.6998 122.798C56.3998 123.698 56.0998 124.298 55.5998 124.498C55.1998 124.898 54.6998 124.998 54.0998 124.998C53.6998 124.998 53.0998 124.898 52.4998 124.698C51.8998 124.598 51.2998 124.598 50.5998 124.598C50.2998 124.198 50.1998 123.598 50.0998 122.998C50.0998 122.398 50.0998 121.798 50.1998 121.098C50.2998 120.398 50.3998 119.398 50.5998 117.998C50.8998 116.698 51.0998 115.398 51.3998 114.098C51.7998 112.598 52.0998 111.098 52.2998 109.498C51.3998 109.698 50.4998 109.998 49.4998 110.598C48.5998 111.198 47.6998 111.798 46.6998 112.198C46.2998 112.398 45.7998 112.498 45.1998 112.598C44.6998 112.698 44.1998 112.998 43.6998 113.398C40.2998 114.598 37.2998 115.798 34.5998 116.898C31.8998 117.998 29.0998 119.498 25.9998 121.498C23.9998 122.898 21.9998 124.198 20.2998 125.198C18.3998 126.298 16.4998 127.598 14.3998 129.198C14.3998 129.398 14.3998 129.498 14.4998 129.498C14.4998 129.598 14.4998 129.698 14.3998 129.898C13.9998 130.398 13.6998 130.798 13.2998 131.098C12.8998 131.398 12.4998 131.598 12.0998 131.798C11.6998 132.098 11.2998 132.298 10.8998 132.598C10.4998 132.998 10.1998 133.398 9.79976 133.898C9.89976 134.098 10.0998 134.098 10.2998 133.998C10.4998 133.898 10.5998 133.898 10.6998 133.998C10.2998 134.798 9.79976 135.598 9.19976 136.398C8.59976 137.198 8.19976 138.198 8.09976 139.498C8.79976 139.998 9.59976 140.298 10.4998 140.398C11.3998 140.598 12.2998 140.698 13.2998 140.698C14.1998 140.698 15.0998 140.698 16.0998 140.598C16.9998 140.498 17.7998 140.498 18.5998 140.598C19.2998 140.398 19.8998 140.198 20.4998 140.098C20.8998 139.998 21.3998 139.998 21.7998 140.098C22.1998 139.998 22.4998 139.898 22.8998 139.798C23.1998 139.698 23.3998 139.698 23.5998 139.698C27.5998 138.998 31.2998 137.998 34.7998 136.898C38.2998 135.798 41.6998 134.798 45.1998 133.698C45.4998 133.398 45.7998 133.198 46.0998 132.898C46.4998 132.698 46.8998 132.598 47.2998 132.598C47.6998 132.398 47.9998 132.198 48.3998 131.898C48.7998 131.698 49.2998 131.598 49.8998 131.498C53.8998 129.698 57.7998 127.898 61.6998 125.998C65.4998 124.098 69.2998 122.098 73.0998 119.998C73.2998 120.198 73.3998 120.198 73.3998 119.998C73.4998 119.898 73.5998 119.898 73.7998 119.898C73.9998 119.698 74.1998 119.498 74.4998 119.398C74.8998 119.198 75.1998 118.998 75.3998 118.898C75.9998 118.898 76.5998 118.598 76.9998 118.098C77.4998 117.698 77.9998 117.398 78.4998 117.298C79.5998 116.998 80.9998 116.498 82.7998 115.598C84.5998 114.698 86.4998 113.598 88.4998 112.398C90.5998 111.198 92.7998 109.898 94.8998 108.498C97.0998 107.198 99.1998 105.898 101 104.598C102.9 103.398 104.5 102.198 105.8 101.298C107.1 100.198 108 99.4984 108.5 99.1984C109.1 98.8984 109.9 98.3984 110.9 97.6984C111.9 96.9984 112.9 96.1984 114 95.2984C115.2 94.2984 116.4 93.2984 117.6 92.3984C118.8 91.2984 120.1 90.3984 121.2 89.5984C120.5 89.6984 119.4 89.8984 117.9 90.2984C116.4 90.6984 115.5 90.8984 115.1 91.0984C114.9 91.0984 114.8 91.1984 114.7 91.3984C114.8 91.4984 114.6 91.4984 114.3 91.2984V91.2984Z" fill="white"/>
</g>
</svg>
