<svg width="96" height="194" viewBox="0 0 96 194" fill="none" xmlns="http://www.w3.org/2000/svg">
<g clip-path="url(#clip0_4068_12244)">
<mask id="mask0_4068_12244" style="mask-type:alpha" maskUnits="userSpaceOnUse" x="0" y="0" width="96" height="194">
<path d="M0 0H96V194H0V0Z" fill="#D9D9D9"/>
</mask>
<g mask="url(#mask0_4068_12244)">
<path d="M1.2002 121.099C3.8002 120.299 5.8002 119.499 7.4002 118.599C9.1002 117.599 10.4002 116.399 11.2002 114.899C12.2002 113.399 12.8002 111.599 13.1002 109.399C13.5002 107.199 13.7002 104.399 13.7002 100.899V38.8992C13.7002 35.4992 13.5002 32.7992 13.1002 30.5992C12.8002 28.2992 12.2002 26.3992 11.2002 24.9992C10.3002 23.4992 9.0002 22.2992 7.4002 21.3992C5.8002 20.3992 3.8002 19.4992 1.2002 18.6992H26.2002V100.799C26.2002 104.299 26.3002 107.099 26.6002 109.299C27.0002 111.499 27.6002 113.299 28.5002 114.799C29.5002 116.299 30.8002 117.499 32.3002 118.499C34.0002 119.399 36.1002 120.199 38.7002 120.999H1.2002V121.099ZM87.4002 121.099C83.4002 121.099 80.2002 120.999 77.8002 120.799C75.5002 120.599 73.6002 120.099 71.9002 119.299C70.3002 118.399 68.8002 117.099 67.3002 115.299C65.9002 113.399 64.1002 110.899 62.0002 107.599L40.1002 74.9992C43.7002 74.5992 47.1002 73.7992 50.2002 72.4992C53.4002 71.1992 56.1002 69.3992 58.3002 66.9992C60.6002 64.5992 62.3002 61.6992 63.6002 58.2992C64.9002 54.6992 65.5002 50.5992 65.5002 45.7992C65.5002 42.4992 65.1002 39.3992 64.2002 36.4992C63.3002 33.3992 61.8002 30.6992 59.8002 28.2992C57.8002 25.7992 55.3002 23.7992 52.1002 22.0992C49.0002 20.3992 45.3002 19.2992 40.9002 18.7992H45.2002C55.7002 18.7992 64.0002 20.9992 69.9002 25.4992C75.8002 29.7992 78.8002 36.4992 78.8002 45.4992C78.8002 49.6992 78.2002 53.2992 76.9002 56.4992C75.6002 59.6992 73.8002 62.3992 71.6002 64.7992C69.3002 67.0992 66.7002 68.9992 63.6002 70.3992C60.5002 71.8992 57.2002 72.9992 53.7002 73.7992L75.3002 103.899C77.7002 107.299 79.7002 109.899 81.4002 111.899C83.2002 113.899 84.8002 115.499 86.3002 116.599C87.8002 117.799 89.3002 118.699 90.9002 119.299C92.5002 119.899 94.3002 120.499 96.5002 121.099H87.4002Z" fill="white"/>
</g>
</g>
<defs>
<clipPath id="clip0_4068_12244">
<rect width="96" height="194" fill="white"/>
</clipPath>
</defs>
</svg>
