<svg width="60" height="194" viewBox="0 0 60 194" fill="none" xmlns="http://www.w3.org/2000/svg">
<g clip-path="url(#clip0_4068_12349)">
<mask id="mask0_4068_12349" style="mask-type:alpha" maskUnits="userSpaceOnUse" x="0" y="0" width="60" height="194">
<path d="M0 0H60V194H0V0Z" fill="#D9D9D9"/>
</mask>
<g mask="url(#mask0_4068_12349)">
<path d="M1 18.3008H26.8C33.3 18.3008 38.9 20.4008 43.5 24.5008C48.2 28.7008 51.8 34.6008 54.3 42.3008C56.8 49.9008 58 58.9008 58 69.1008C58 79.5008 56.7 88.5008 54.2 96.3008C51.7 104.101 48.1 110.101 43.3 114.401C38.6 118.601 33 120.701 26.6 120.701H1V117.001H6.4V22.0008H1V18.3008ZM26.6 117.001C29.7 117.001 32.2 115.401 34 112.301C35.9 109.201 37.2 104.201 38 97.4008C38.8 90.6008 39.2 81.6008 39.2 70.2008V69.2008C39.2 57.6008 38.8 48.3008 37.9 41.4008C37 34.5008 35.6 29.6008 33.8 26.6008C32 23.6008 29.4 22.0008 26.5 22.0008H23.8V117.001H26.6Z" fill="white"/>
</g>
</g>
<defs>
<clipPath id="clip0_4068_12349">
<rect width="60" height="194" fill="white"/>
</clipPath>
</defs>
</svg>
