<svg width="75" height="194" viewBox="0 0 75 194" fill="none" xmlns="http://www.w3.org/2000/svg">
<g clip-path="url(#clip0_4068_12234)">
<mask id="mask0_4068_12234" style="mask-type:alpha" maskUnits="userSpaceOnUse" x="0" y="0" width="75" height="194">
<path d="M0 0H75V194H0V0Z" fill="#D9D9D9"/>
</mask>
<g mask="url(#mask0_4068_12234)">
<path d="M0.799805 121.099C3.3998 120.299 5.3998 119.499 6.9998 118.599C8.6998 117.599 9.9998 116.399 10.7998 114.899C11.7998 113.399 12.3998 111.599 12.6998 109.399C13.0998 107.199 13.2998 104.399 13.2998 100.899V38.8992C13.2998 35.5992 13.0998 32.8992 12.6998 30.6992C12.3998 28.4992 11.7998 26.6992 10.7998 25.1992C9.9998 23.6992 8.6998 22.3992 6.9998 21.3992C5.3998 20.3992 3.3998 19.4992 0.799805 18.6992H25.7998V120.999H0.799805V121.099ZM45.9998 121.099C49.3998 119.799 52.1998 118.499 54.5998 117.199C57.0998 115.799 59.2998 114.299 61.3998 112.599C63.4998 110.799 65.4998 108.799 67.5998 106.499C69.6998 104.099 71.9998 101.199 74.4998 97.7992L71.4998 121.099H45.9998ZM60.6998 79.8992C57.5998 76.9992 54.2998 74.6992 50.7998 72.7992C47.2998 70.8992 42.6998 69.3992 37.1998 68.1992C42.6998 67.1992 47.2998 65.7992 50.7998 63.9992C54.2998 62.1992 57.5998 59.8992 60.6998 56.9992V79.8992ZM67.2998 39.6992C65.5998 37.1992 63.9998 34.9992 62.3998 32.8992C60.7998 30.6992 59.0998 28.7992 57.1998 27.0992C55.2998 25.2992 53.2998 23.7992 50.9998 22.4992C48.6998 21.0992 46.1998 19.8992 43.2998 18.7992H67.1998V39.6992H67.2998Z" fill="white"/>
</g>
</g>
<defs>
<clipPath id="clip0_4068_12234">
<rect width="75" height="194" fill="white"/>
</clipPath>
</defs>
</svg>
