<svg width="72" height="194" viewBox="0 0 72 194" fill="none" xmlns="http://www.w3.org/2000/svg">
<g clip-path="url(#clip0_4068_12209)">
<mask id="mask0_4068_12209" style="mask-type:alpha" maskUnits="userSpaceOnUse" x="0" y="0" width="72" height="194">
<path d="M0 0H72V194H0V0Z" fill="#D9D9D9"/>
</mask>
<g mask="url(#mask0_4068_12209)">
<path d="M35.8996 123C28.8996 123 22.7996 121.9 17.6996 119.6C12.5996 117.3 8.59961 114 5.79961 109.4C2.99961 104.9 1.59961 99.2 1.59961 92.5V90.3H29.4996V93.7C29.4996 96.5 29.9996 98.7 31.0996 100.1C32.0996 101.5 33.6996 102.3 35.5996 102.3C37.3996 102.3 38.7996 101.7 39.7996 100.4C40.7996 99.1 41.2996 97.1 41.2996 94.4C41.2996 92.4 40.9996 90.7 40.3996 89.4C39.8996 88 39.0996 87 37.9996 86.1C36.8996 85.2 35.2996 84.2 33.2996 83L22.5996 76.9C17.9996 74.3 14.2996 71.7 11.4996 69.3C8.69961 66.9 6.49961 63.8 4.79961 60.2C3.19961 56.5 2.39961 52 2.39961 46.7C2.39961 39.9 3.79961 34.2 6.69961 29.6C9.59961 25 13.5996 21.6 18.6996 19.4C23.7996 17.1 29.5996 16 36.0996 16C41.9996 16 47.3996 17.1 52.2996 19.2C57.2996 21.3 61.1996 24.6 64.1996 29C67.1996 33.4 68.6996 38.9 68.6996 45.5V47.3H41.6996V45.1C41.6996 42.4 41.1996 40.3 40.0996 38.9C39.0996 37.5 37.5996 36.8 35.7996 36.8C34.0996 36.8 32.7996 37.4 31.6996 38.5C30.6996 39.6 30.1996 41.2 30.1996 43.2C30.1996 44.9 30.4996 46.3 30.9996 47.4C31.4996 48.5 32.2996 49.5 33.2996 50.3C34.2996 51.1 35.6996 52 37.4996 53L47.4996 58.8L47.8996 59C52.9996 62 57.0996 64.8 60.1996 67.5C63.2996 70.1 65.6996 73.4 67.3996 77.3C69.1996 81.2 69.9996 86.1 69.9996 91.9C69.9996 99 68.5996 104.8 65.6996 109.4C62.8996 114 58.8996 117.4 53.8996 119.6C48.6996 121.9 42.7996 123 35.8996 123V123Z" fill="white"/>
</g>
</g>
<defs>
<clipPath id="clip0_4068_12209">
<rect width="72" height="194" fill="white"/>
</clipPath>
</defs>
</svg>
