<svg width="52" height="194" viewBox="0 0 52 194" fill="none" xmlns="http://www.w3.org/2000/svg">
<g clip-path="url(#clip0_4068_12164)">
<mask id="mask0_4068_12164" style="mask-type:alpha" maskUnits="userSpaceOnUse" x="0" y="0" width="52" height="194">
<path d="M0 0H52V194H0V0Z" fill="#D9D9D9"/>
</mask>
<g mask="url(#mask0_4068_12164)">
<path d="M2.2002 18.5H27.9002C29.2002 18.5 30.5002 18.7 31.9002 19C33.4002 19.3 34.7002 19.9 36.0002 20.5C37.4002 21.1 38.7002 21.9 39.9002 22.9C41.1002 23.8 42.1002 25 42.9002 26.2C46.1002 31.4 47.7002 38.7 47.7002 48.1C47.7002 52.6 47.2002 56.4 46.3002 59.4C45.4002 62.4 44.0002 65.3 42.3002 68.2C42.0002 68.6 41.6002 69.1 41.3002 69.5C41.0002 69.9 40.7002 70.4 40.4002 70.8C40.9002 71.2 41.5002 71.9 42.2002 72.7C43.0002 73.5 43.7002 74.5 44.3002 75.7C44.9002 76.9 45.4002 78.3 45.8002 79.9C46.2002 81.5 46.4002 83.4 46.4002 85.6L47.0002 109C47.1002 110.5 47.2002 111.8 47.4002 113.1C47.6002 114.1 47.8002 115.2 48.2002 116.2C48.5002 117.1 49.1002 117.7 49.7002 118V121.2H39.2002C39.0002 120.5 38.9002 119.7 38.7002 118.9C38.5002 118.1 38.4002 117.2 38.3002 116.2C38.2002 115.1 38.2002 113.9 38.2002 112.6L37.8002 90.7C37.8002 90 37.8002 89.2 37.7002 88.4C37.6002 87.7 37.5002 87 37.4002 86.2C37.3002 85.4 37.1002 84.7 36.9002 83.9C36.6002 83.1 36.3002 82.4 36.0002 81.6C35.7002 80.8 35.1002 80.2 34.3002 79.7C33.5002 79.1 32.5002 78.6 31.2002 78.3C29.9002 77.9 28.2002 77.7 26.2002 77.7H11.0002V121.3H2.2002V18.5ZM28.0002 65C31.6002 65 34.3002 63.7 36.0002 61C37.8002 58.3 38.7002 54.1 38.7002 48.4C38.7002 37.2 35.1002 31.5 28.0002 31.5H11.0002V65H28.0002Z" fill="white"/>
</g>
</g>
<defs>
<clipPath id="clip0_4068_12164">
<rect width="52" height="194" fill="white"/>
</clipPath>
</defs>
</svg>
