<svg fill="none" height="512" viewBox="0 0 290 512" width="290" xmlns="http://www.w3.org/2000/svg"><path d="m42.72 47.61c-.62.85-1.21 1.72-1.77 2.6-1.1 1.73-2.09 3.61-2.03 5.59.07 1.98 1.51 4.06 3.72 4.41 2.31.36 4.57-1.36 5.12-3.38s-.28-4.16-1.55-5.91c-.94-1.27-2.12-2.39-3.49-3.31zm139.17-5.99c-3.95 2.39-7.56 5.59-7.66 10.01-.02.63.08 1.33.56 1.73.5.42 1.25.36 1.89.2 4.78-1.23 7.15-7.41 5.21-11.94zm23.19 1.51c-1.05.57-2.07 1.17-3.07 1.82-3.33 2.15-7.94 7.77-5.49 9.56 3.1 2.2 7.65-2.82 8.67-6.59.42-1.57.36-3.23-.11-4.79zm-102.16-3.84c-3.47 2.28-5.89 5.85-6.28 9.67-.12 1.26.09 2.75 1.33 3.38 1.08.54 2.46.16 3.49-.44 4.41-2.6 4.61-8.71 1.53-12.52-.02-.03-.05-.06-.07-.09zm99.01 32.62c-3.4-1.98-7.23-3.28-11.04-3.98-4.79-.88-10.31-.56-14.58 1.56-1.74-3.38-4.78-6.28-8.13-7.99-1.21-.62-2.46-1.13-3.73-1.56-5.14-1.77-10.7-2.3-16.01-3.61-3.81-.93-7.81-2.54-10.34-5.48 1.12-1.09 2.24-2.2 3.37-3.3 4.4-4.25 11.7-17.52 3.68-19.41-8.59-1.73-10.79 15.61-8.68 20.21.43.93.98 1.76 1.63 2.5-1.37 1.33-2.75 2.64-4.2 3.87-1.8 1.53-3.5 3.19-5.09 4.96-1.86 2.07-3.56 4.3-5.07 6.66-1.59-2.82-3.98-5.23-6.78-6.7-6.33-3.33-14.06-2.64-20.67.03-5.39 2.18-10.24 5.86-14 10.44-3.5 4.23-6.06 9.24-7.28 14.52-3.76-.69-7.92.28-11.56 1.77-5.16 2.11-10.09 5.17-15.6 5.78-3.05.33-6.11-.24-8.9-1.51.13-7.11-.59-14.05-3.47-20.51-.51-1.16-1.16-2.35-2.25-2.95-1.68-.91-3.89.02-4.96 1.64-1.08 1.62-1.24 3.72-1.07 5.68.59 7.09 5.5 13.32 11.75 16.14-.14 8.64-1.55 17.55-1.85 26.18-.18 5.23.14 10.75 2.89 15.14.64 1.02 1.45 1.95 2.37 2.74-.29 1.03-.52 2.09-.7 3.13-1.19 6.98-1 14.15-2.07 21.15-.55 3.59-1.5 7.23-3.05 10.49-.31-.19-.62-.36-.95-.51-4.69-2.18-11.7 1.03-11.16 6.32.16 1.52 1.08 3.07 2.52 3.38 1.24.26 2.47-.44 3.48-1.23 2.66-2.09 4.66-4.86 6.11-7.96 4.09 2.39 6.51 7.15 8.53 11.62 1.32 2.91 5.56 10.89 7.68 13.54l.07.19c-8.8 3.24-19.66 9.69-21.91 21.95l.13.45c-3.31.88-7.42 3.42-8.2 6.02-1.1 3.68-1.71 9.76 1.75 17.09 2.87 6.08 7.55 14.13 10.82 18.47 0 0 5.57 7.05 10.87 13.02l-.12.1c-14.07 8.82-17.12 22.95-18.72 34.68-2.38 17.46-2.81 35.18-1.27 52.74 1.1 12.5 3.67 25.85 12.73 34.53l.27.08c-1.45 4.62-4.42 10.69-7.65 15.16-1.9-1.85-4.73-2.83-7.18-1.93-2.73 1.01-4.25 4.78-2.46 7.06 2.48 2.56 6.2-.38 9.64-5.13.2.2.4.41.58.63 1.86 2.23 2.61 5.17 2.95 8.06.41 3.42-.23 8.35-1.52 12.96-2-.52-4.11-.5-6.06.22-4.08 1.51-6.78 6.41-5.26 10.49 4.35 5.17 8.94-2.22 11.32-10.71 2.2.56 4.26 1.77 5.83 3.41 3 3.15 4.33 7.62 4.37 11.96.03 3.47-.68 6.79-1.91 9.96-.17.02-.33.05-.49.08-7.39 1.39-14.22 5.57-18.8 11.53-1.32 1.71-2.49 3.69-2.45 5.84s1.75 4.39 3.9 4.27c1.5-.08 2.72-1.2 3.78-2.26 5.65-5.66 11.23-12.16 14.06-19.46 7.1-1.19 15.19.61 19.39 6.43.72.99 1.3 2.1 1.7 3.27-.2.06-.39.13-.58.21-3.36 1.33-6.52 3.44-8.49 6.48-.49.77-.93 1.67-.75 2.57.28 1.4 1.9 2.12 3.32 2.12 3.18-.01 5.99-2.59 6.8-5.66.5-1.88.33-3.87-.3-5.72 10.08-3.74 21.57-1 31.24 3.77 2.04 1 4.1 2.16 5.38 4.03.11.16.21.33.3.5-.17.02-.33.06-.5.09-2.44.48-5.49 1.83-5.21 4.3.26 2.25 3.68 2.98 5.28 1.38 1.46-1.47 1.42-3.93.43-5.77 5.88-1.15 11.82-1.96 17.79-2.45 6.87-.55 13.77-.66 20.67-.58 2.89.03 5.87.12 8.49 1.33l.06.03-.11.11c-1.47 1.45-2.88 3.1-3.4 5.1-.51 2.01.14 4.44 1.96 5.43 2.54 1.37 5.92-1.08 6.12-3.97.2-2.86-1.97-5.46-4.57-6.67 5.67-5.51 12.05-8.31 19.93-10.89h.01c9.25 4.17 20.58 4.01 30.42.14 14.21-5.59 24.62-18.75 29.22-33.32.93-2.93 1.64-5.92 2.13-8.95 1.37-.1 2.72-.32 4.04-.67 5.99-1.59 11.21-5.9 13.89-11.49 1.75-3.62 2.44-7.66 2.84-11.66 1.55-15.39-1.04-31.09-7.09-45.34 3.54.14 6.64-.56 8.7-1.93 1.9-1.26 3.27-3.06 4.27-4.97 3.45-6.62 2.54-14.62-1.16-21.13-1.82-3.21-3.39-5.56-5.11-7.55 2.47-7.86 2.65-16.45.31-24.36 5.42-3.02 10-5.44 15.28-8.7.67-.42 1.4-.92 1.59-1.69.24-.97-.47-1.89-1.14-2.63-4.93-5.46-10.2-10.61-15.77-15.42l-.63-.09c1.59-1.96 2.61-3.26 2.61-3.26 3.27-4.35 7.92-12.41 10.78-18.5 3.43-7.34 2.81-13.41 1.7-17.1-.33-1.1-1.26-2.18-2.48-3.14l1.07-.02c3.87-.72 1.79-3.6 1.79-3.6 4.76-.28 1.93-5.88 1.93-5.88 2.83-2.45-1.04-5.03-1.04-5.03 2.93-1.56 2.09-4.89.3-6.61 1.93-.72 3.83-1.2 4.32-5.03.21-1.69-1.14-2.76-2.63-3.67.86-1.57 1.63-3.24 1.65-5.01s-.88-3.65-2.57-4.36c-2.15-.9-4.62.36-6.32 1.92-2.92 2.7-3.04 7-3.39 10.88-2.21-.3-4.72 1.35-5.55 3.34-1.15 2.78-.67 4.53-1.72 6.37-2.22-.21-5.49-2.37-8.91-3.37l.05-.16c7.83-3.65 11.82-13.48 11.82-18.34v-11.28l-7.44 8.25-.33.07c-.59-2.81-1.52-5.21-1.42-7.31.17-3.48 4.7-8.66 5.67-10.06 1.39-1.98 2.77-3.96 4.15-5.95-2.64-.39-5.27-.13-7.78.79l-.25-.67c2.61-8.3 5.11-16.84.8-24.34-.93-1.62-2.17-3.03-3.61-4.16.81-1.56 1.38-3.23 1.65-5.02 1.16-7.7-3.58-14.84-7.71-21.35-3.9-6.14-7.51-12.69-8.69-19.93-.29-1.79-.41-3.62-.34-5.46 1.1-.28 2.2-.55 3.3-.82 4.14-1.02 8.62-2.32 11.08-5.91s.98-10.02-3.26-10.31c-1.87-.13-3.63.96-5.03 2.25-3.98 3.69-5.89 9.2-6.09 14.79-5.49 1.39-10.96 3-15.74 6.02-2.08-3.84-5.28-6.79-9.01-8.92zm49.25-25.29c5.09-1.51 9.7-4.65 12.82-8.95.55-.76 1.07-1.59 1.19-2.52.33-2.72-3.14-4.67-5.75-3.84s-4.29 3.36-5.45 5.84c-1.4 3-2.34 6.2-2.81 9.47zm-19.03-.39c-.26.01-.53.02-.79.05-3.45.32-7.11 2.8-7.1 6.26 0 .91.35 1.92 1.18 2.29.43.19.93.18 1.39.1 3.77-.59 6.12-4.97 5.32-8.7zm-156.97-6.58c-.81.67-1.59 1.37-2.31 2.1-1.7 1.71-3.23 3.71-3.51 5.98-.27 2.27 1.07 4.83 3.55 5.48 3.02.79 6.18-1.7 6.63-4.46.46-2.76-1.08-5.49-3.01-7.69-.42-.49-.87-.96-1.35-1.41zm182.59 33.12c1.64 2 3.74 3.64 6.27 3.75 3.2.14 6.3-3.78 4.35-6.33-1.79-2.35-5.57-1.3-7.99.41-.93.65-1.81 1.38-2.63 2.17zm-13.2 393.1c.89-.6 1.75-1.24 2.59-1.92 6.36-5.19 10.86-12.78 11.74-20.94.28-2.67.17-5.47-.99-7.89-1.16-2.43-3.53-4.4-6.22-4.48-3.41-.11-6.19 2.64-8.2 5.4-5.41 7.4-8.45 18.03-3.21 25.56 1.16 1.67 2.65 3.06 4.29 4.27zm43.46 17.43c.02 14.83-11.99 26.88-26.83 26.9l-232.69.31c-14.84.02-26.87998-11.99-26.89998-26.83l-.61-455.47c-.019995-14.84 11.98998-26.87998 26.82998-26.89998l232.69-.31c14.84-.019995 26.88 11.98998 26.9 26.81998z" fill="#fca265"/><path d="m222.058 230.42c.05.1.13.18.24.22.31.11.61-.19.78-.47.26-.44.44-.92.53-1.42.11-.29.18-.59.15-.9-.05-.61-.65-1.21-1.23-1.01-.49.95-.7 2.04-.6 3.11.01.16.05.33.12.47zm2.96-31.27c2.2.2 4.5 1.35 6.02 3.04 1.34-1.66 2.82-2.5 4.35-2.82 1.54-.32 3.15-.1 4.72.36 3.42 1 6.69 3.16 8.91 3.37 1.05-1.84.57-3.59 1.72-6.37.83-1.99 3.34-3.64 5.55-3.34.35-3.88.47-8.18 3.39-10.88 1.7-1.56 4.17-2.82 6.32-1.92 1.69.71 2.59 2.59 2.57 4.36s-.79 3.44-1.65 5.01c1.49.91 2.84 1.98 2.63 3.67-.49 3.83-2.39 4.31-4.32 5.03 1.79 1.72 2.63 5.05-.3 6.61 0 0 3.87 2.58 1.04 5.03 0 0 2.83 5.6-1.93 5.88 0 0 2.08 2.88-1.79 3.6l-1.07.02c-2.86-2.25-7.29-3.76-9.16-2.94-2.67 1.18-8.07 14.72-7.71 16.71.41 2.26 5 6.28 5.31 8.56.17 1.23-2.58 5.59-5.13 9.32h-.01s-9.26 13.2-11.53 13.61c-2.26.42-7.51-2.68-9.79-2.36-.88.12-3.5 1.99-6.21 4.29l-.77-.71c-4.51 0-10.16-5.19-11.82-9.13-3.56 1.45-8.17-.35-9.69-3.78-.41-.93-.69-2.03-1.59-2.55-.54-.31-1.2-.35-1.81-.52-1.85-.55-2.99-2.45-3.17-4.31-.18-1.85.39-3.69.96-5.48-1.76-1.76-2.16-4.49-1.64-6.89.49-2.29 1.7-4.37 2.92-6.39l.18-.3c-1.53-2.24-1.29-5.28-.11-7.71 1.6-3.28 1.46-2.71 5.14-6.31-.05-1.65.51-3.22 1.46-4.56 2.11-3.01 6.19-4.85 9.86-3.79 1.8-3.5 6.33-5.25 10.22-4.42 1.01.21 1.97.6 2.83 1.17 1.13-1.75 3.07-2.36 5.1-2.16zm30.08 13.54c-.11-.09-.24-.16-.38-.21.12.09.24.16.38.21zm-50.59 15.79c-.02.08-.03.16-.03.24 0 .07-.02.16-.02.26 0 .33.06.73.21.85.15.13.24.19.33.2.16.02.27-.13.52-.4.4-.42.48-1.04.54-1.62.03-.27 0-.6-.1-.84-.05-.28-.13-.57-.23-.86-.84.17-.97.93-1.12 1.76-.05.13-.09.27-.1.41zm6.31 10.76c1.27-.72 1.49-2.63.67-3.83s-2.38-1.73-3.84-1.64c-.67.04-1.34.19-1.91.56-1.62 1.07-1.61 3.77-.13 5.03 1.49 1.25 3.81 1.23 5.21-.12z" fill="#efede7"/><path d="m268.39 70.1891c1.95 2.55-1.15 6.47-4.35 6.33-2.53-.11-4.63-1.75-6.27-3.75.82-.79 1.7-1.52 2.63-2.17 2.42-1.71 6.2-2.76 7.99-.41z" fill="#efede7"/><path d="m264.972 277.311c.67.74 1.38 1.66 1.14 2.63-.19.77-.92 1.27-1.59 1.69-5.28 3.26-9.86 5.68-15.28 8.7-3.1 1.72-7.04 4.15-10.48 5-2.1.52-4.23.71-6.37.7-.71-4.71-3.02-9.32-6.04-13.08v-.03c2.66-1.04 5.57-2.74 8.48-5.49 4.05-3.82 10.26-11.32 13.74-15.63l.63.09c5.57 4.81 10.84 9.96 15.77 15.42z" fill="#c3e9f9"/><path d="m259.44 31.3103c2.61-.83 6.08 1.12 5.75 3.84-.12.93-.64 1.76-1.19 2.52-3.12 4.3-7.73 7.44-12.82 8.95.47-3.27 1.41-6.47 2.81-9.47 1.16-2.48 2.84-5.01 5.45-5.84z" fill="#efede7"/><path d="m263.659 222.941c1.11 3.69 1.73 9.76-1.7 17.1-2.86 6.09-7.51 14.15-10.78 18.5 0 0-1.02 1.3-2.61 3.26-3.48 4.31-9.69 11.81-13.74 15.63-2.91 2.75-5.82 4.45-8.49 5.49-2.76 1.07-5.26 1.43-7.21 1.48-2.59.07-6.09-2.79-8.02-5.55-.93-1.33-1.49-2.64-1.4-3.59.16-1.63 3.76-5.31 7.24-8.27 2.71-2.3 5.33-4.17 6.21-4.29 2.28-.32 7.53 2.78 9.79 2.36 2.27-.41 11.53-13.62 11.53-13.62h.01c2.55-3.72 5.3-8.08 5.13-9.31-.31-2.28-4.9-6.3-5.31-8.56-.36-1.99 5.04-15.53 7.71-16.71 1.87-.82 6.3.69 9.16 2.94 1.22.96 2.15 2.04 2.48 3.14z" fill="#ffd127"/><path d="m257.908 435.12c1.16 2.42 1.27 5.22.99 7.89-.88 8.16-5.38 15.75-11.74 20.94-.84.68-1.7 1.32-2.59 1.92-1.64-1.21-3.13-2.6-4.29-4.27-5.24-7.53-2.2-18.16 3.21-25.56 2.01-2.76 4.79-5.51 8.2-5.4 2.69.08 5.06 2.05 6.22 4.48z" fill="#efede7"/><path d="m254.041 322.239c3.7 6.51 4.61 14.51 1.16 21.13-1 1.91-2.37 3.71-4.27 4.97-2.06 1.37-5.16 2.07-8.7 1.93-2.08-4.9-4.57-9.63-7.45-14.11 2.73-3.09 5.66-6.08 8.06-9.35 2.7-3.66 4.75-7.78 6.09-12.12 1.72 1.99 3.29 4.34 5.11 7.55z" fill="#fca265"/><path d="m252.611 154.951c-1.38 1.99-2.76 3.97-4.15 5.95-.97 1.4-5.5 6.58-5.67 10.06-.1 2.1.83 4.5 1.42 7.31 1.12 5.22 1.08 11.82-8.91 20.34l-.69-.68c-1.73-3.77-3.48-6.55-5.74-9.1l.3-.27c8.22-13.21 1.16-13.4 5.24-21.84 1.37-2.84 6.84-9.4 9.14-10.46.42-.19.85-.37 1.28-.52 2.51-.92 5.14-1.18 7.78-.79z" fill="#c3e9f9"/><path d="m251.981 169.949v11.28c0 4.86-3.99 14.69-11.82 18.34l-.05.16c-1.57-.46-3.18-.68-4.72-.36l-.09-.76c9.99-8.52 10.03-15.12 8.91-20.34l.33-.07z" fill="#c3e9f9"/><path d="m249.242 290.33c2.34 7.91 2.16 16.5-.31 24.36-1.78-2.04-3.72-3.71-6.28-5.54-3.36-2.4-6.8-4.26-10.48-6.1.55-2.31.59-4.68.22-7.02 2.14.01 4.27-.18 6.37-.7 3.44-.85 7.38-3.28 10.48-5z" fill="#b6efa3"/><path d="m242.232 350.269c6.05 14.25 8.64 29.95 7.09 45.34-.4 4-1.09 8.04-2.84 11.66-2.68 5.59-7.9 9.9-13.89 11.49-1.32.35-2.67.57-4.04.67 1.24-7.52 1.16-15.26-.27-22.75-1.01-5.26-2.67-10.36-4.86-15.24.64-4.02 1.1-8.06 1.39-12.11.34-4.65 1.15-11.41 1.76-19.37h.04c.34-1.55.87-3.02 1.53-4.42 4.6 3.09 9.69 4.56 14.09 4.73z" fill="#fca265"/><path d="m242.652 309.151c2.56 1.83 4.5 3.5 6.28 5.54-1.34 4.34-3.39 8.46-6.09 12.12-2.4 3.27-5.33 6.26-8.06 9.35-.66-1.05-1.36-2.08-2.07-3.1-2.51-3.59-5.27-7.01-8.39-10.08-5.09-5-11.08-8.97-17.02-12.92-.94-.62-1.93-1.26-2.95-1.78 1.26-5.53 1.58-7.27 4.07-14.22v-.17c1.61-.16 3.22-.21 4.8-.12 6.41.39 12.85 2.22 19.17 2.26.37 2.34.33 4.71-.22 7.02-.09-.05-.18-.09-.27-.14-2.53-1.26-5.69-2.28-8.06-.74-1.83 1.2-2.54 3.67-2.1 5.81.25 1.23.93 2.48 2.11 2.92.82.32 1.76.18 2.59-.13 2.64-.99 4.4-3.55 5.31-6.22.17-.5.31-1 .42-1.5 3.68 1.84 7.12 3.7 10.48 6.1z" fill="#b6efa3"/><path d="m245.38 130.73c4.31 7.5 1.81 16.04-.8 24.34l.25.67c-.43.15-.86.33-1.28.52-2.3 1.06-7.77 7.62-9.14 10.46-4.08 8.44 2.98 8.63-5.24 21.84l-.3.27c-1.76-1.98-3.82-3.84-6.44-5.93-1.8-1.43-3.75-2.78-6.02-3.45-3.6-1.05-7.54-.25-11.07.99-1.02.36-2.32.97-3.72 1.7l-.18-.47c-6.5-12.43-19.81-21.66-25-29.33l.13-.09c6-5.27 7.78-14.06 8.61-18.97 1.48-8.85-.2-18.61-4.92-26.04-1.26-1.98-3.39-4.26-5.99-6.53l1.83-.04c9-9.2298 17.62-18.8198 25.83-28.7598 3.73 2.13 6.93 5.08 9.01 8.92-.38.24-.77.4899-1.15.7599-5.97 4.17-10.51 11.4701-9.38 18.8399.17 1.09.53 2.27 1.43 2.88 1.04.69 2.43.37 3.56-.15 7.53-3.4798 9.63-14.5198 5.71-22.0299-.05-.1-.11-.1999-.17-.2999 4.78-3.02 10.25-4.63 15.74-6.02-.07 1.84.05 3.6699.34 5.4599 1.18 7.24 4.79 13.79 8.69 19.9299 4.13 6.51 8.87 13.65 7.71 21.35-.27 1.79-.84 3.46-1.65 5.02-2.81-2.26-6.38-3.5-9.92-3.31-5.36.29-10.43 3.86-12.68 8.91-.67 1.49-1.1 3.24-.54 4.78 1.44 3.95 7.1 3.02 10.71 1.04 4.94-2.7 9.86-6.46 12.43-11.42 1.44 1.13 2.68 2.54 3.61 4.16zm-11.85 29.91c1.08-1.6.13-3.56-1.2-4.96-1.42-1.5-6.79-3.95-6.71 1.54-.04 1.92 1.03 3.89 2.77 4.71 1.74.83 4.07.32 5.14-1.29zm-28.95 10.54c2.91 1.49 6.48-.74 6.43-4v-.05c-.04-1.54-.58-3.02-1.11-4.47-2.02-3.96-6.5-2.33-7.98.1-1.7 2.81-.27 6.92 2.66 8.42z" fill="#fca265"/><path d="m237.8 57.7703c4.24.29 5.72 6.72 3.26 10.31s-6.94 4.89-11.08 5.91c-1.1.27-2.2.54-3.3.82.2-5.59 2.11-11.1 6.09-14.79 1.4-1.29 3.16-2.38 5.03-2.25z" fill="#efede7"/><path d="m241.769 126.569c-2.57 4.96-7.49 8.72-12.43 11.42-3.61 1.98-9.27 2.91-10.71-1.04-.56-1.54-.13-3.29.54-4.78 2.25-5.05 7.32-8.62 12.68-8.91 3.54-.19 7.11 1.05 9.92 3.31z" fill="#efede7"/><path d="m234.781 336.16c2.88 4.48 5.37 9.21 7.45 14.11-4.4-.17-9.49-1.64-14.09-4.73 1.61-3.41 4.03-6.44 6.64-9.38z" fill="#efede7"/><path d="m206.21 187.591c-4.88-.54-10.89-.1-14.71.67 2.26-1.54 6.53-4.25 10.12-6.12 1.4-.73 2.7-1.34 3.72-1.7 3.53-1.24 7.47-2.04 11.07-.99 2.27.67 4.22 2.02 6.02 3.45 2.62 2.09 4.68 3.95 6.44 5.93 2.26 2.55 4.01 5.33 5.74 9.1l.69.68.09.76c-1.53.32-3.01 1.16-4.35 2.82-1.52-1.69-3.82-2.84-6.02-3.04-3.89-6.44-9.14-8.74-14.07-10.55-1.33-.49-2.96-.82-4.74-1.01z" fill="#c3e9f9"/><path d="m195.929 344.829-.57-.61c1.62-6.39 3.25-12.79 4.87-19.18l.81-3.18c.8-3.14 1.6-6.29 2.35-9.45.38-1.61.69-2.95.96-4.13 1.02.52 2.01 1.16 2.95 1.78 5.94 3.95 11.93 7.92 17.02 12.92 3.12 3.07 5.88 6.49 8.39 10.08.71 1.02 1.41 2.05 2.07 3.1-2.61 2.94-5.03 5.97-6.64 9.38-.66 1.4-1.19 2.87-1.53 4.42h-.04c-.61 7.96-1.42 14.72-1.76 19.37-.29 4.05-.75 8.09-1.39 12.11-3.78-8.41-9.12-16.17-15.39-22.96-2.8-3.04-8.7-9.67-12.15-11.93-.37-.24-.72-.47-1.07-.69.38-.34.75-.68 1.12-1.03z" fill="#b6efa3"/><path d="m232.328 155.68c1.33 1.4 2.28 3.36 1.2 4.96-1.07 1.61-3.4 2.12-5.14 1.29-1.74-.82-2.81-2.79-2.77-4.71-.08-5.49 5.29-3.04 6.71-1.54z" fill="#b6efa3"/><path d="m232.152 46.2305c.8 3.73-1.55 8.11-5.32 8.7-.46.08-.96.09-1.39-.1-.83-.37-1.18-1.38-1.18-2.29-.01-3.46 3.65-5.94 7.1-6.26.26-.03.53-.04.79-.05z" fill="#efede7"/><path d="m228.278 396.679c1.43 7.49 1.51 15.23.27 22.75-4.82.3-9.74-1.01-13.72-3.75l-.84-.31c4.45-10.9 7.63-22.31 9.43-33.93 2.19 4.88 3.85 9.98 4.86 15.24z" fill="#efede7"/><path d="m214.83 415.679c3.98 2.74 8.9 4.05 13.72 3.75-.49 3.03-1.2 6.02-2.13 8.95-4.6 14.57-15.01 27.73-29.22 33.32-9.84 3.87-21.17 4.03-30.42-.14h-.01c-4.13-1.86-7.84-4.58-10.83-8.21l-.12-.77c.55-.08 1.15-.17 1.8-.26 7.26-1.03 14.2-3.77 17.26-10.44l-.05-.2c2.53-.56 4.98-1.37 7.2-2.69 3.65-2.16 6.57-4.91 6.72-9.14l-.11-.13c1.13-.92 2.16-1.99 2.96-3.23l.53.35c3.19 3.64 5.36 7.82 9.41 10.47.3.19.64.39.98.3l.2-.12s0 .02.01.03c4.36-7.05 8.12-14.48 11.25-22.15l.84.31z" fill="#fca265"/><path d="m226.352 282.95c3.02 3.76 5.33 8.37 6.04 13.08-6.32-.04-12.76-1.87-19.17-2.26-1.58-.09-3.19-.04-4.81.12-4.73.47-9.54 1.91-13.81 3.62.44-2.27.57-5.47 1.73-7.47 1.43-2.43 3.78-4.16 6.13-5.72 2.56-1.69 5.19-3.28 7.89-4.74l.76-.73c1.93 2.76 5.43 5.62 8.02 5.55 1.95-.05 4.45-.41 7.21-1.48v.03z" fill="#c3e9f9"/><path d="m225.021 199.15c-2.03-.2-3.97.41-5.1 2.16-.86-.57-1.82-.96-2.83-1.17v-.03c-2.27-5.09-6.64-8.89-10.88-12.52 1.78.19 3.41.52 4.74 1.01 4.93 1.81 10.18 4.11 14.07 10.55z" fill="#fca265"/><path d="m208.03 358.479c6.27 6.79 11.61 14.55 15.39 22.96-1.8 11.62-4.98 23.03-9.43 33.93-3.13 7.67-6.89 15.1-11.25 22.15-.01 0-.01-.02-.01-.03-3.61-6.26-6.77-12.78-9.46-19.48-.29-.7-.57-1.41-.84-2.12-2.37-6.16-4.36-12.51-7.67-18.21-2.35-4.05-5.23-7.82-8.6-11.03-3.41-3.27-7.31-5.97-11.68-7.85 3.35-4.19 6.69-8.37 10.03-12.56 1.8-2.25 3.6-4.51 5.52-6.65.58-.65 1.17-1.29 1.78-1.92 3.29-3.42 6.97-6.43 10.52-9.57.84-.74 1.67-1.48 2.49-2.24.35.22.7.45 1.07.69 3.45 2.26 9.35 8.89 12.15 11.93z" fill="#b6efa3"/><path d="m184.389 204.899c-11.82-10.46-16.76-22.43-21.86-28.58-3.27-3.95-7.28-7.13-10.49-10.89-1.68-1.97-3.15-4.1-4.18-6.58.96-.58 1.95-1.19 2.97-1.84 4.38-2.76 9.17-6.1 13.4-9.83 4.06-3.56 7.6-7.47 9.78-11.56-.31 4.33-.61 8.76.55 12.94.34 1.22.99 2.48 1.88 3.78 5.19 7.67 18.5 16.9 25 29.33l.18.47c-3.59 1.87-7.86 4.58-10.12 6.12 3.82-.77 9.83-1.21 14.71-.67 4.24 3.63 8.61 7.43 10.89 12.52v.03c-3.9-.83-8.43.92-10.23 4.42-3.67-1.06-7.75.78-9.86 3.79l-.31-.23c-1.22-3.16-5.32-1.38-8.05.62-.33-2.08-2.52-3.42-4.64-3.42z" fill="#b6efa3"/><path d="m216.181 266.28.77.71c-3.48 2.96-7.08 6.64-7.24 8.27-.09.95.47 2.26 1.4 3.59l-.76.73c-2.7 1.46-5.33 3.05-7.89 4.74-2.35 1.56-4.7 3.29-6.13 5.72-1.16 2-1.29 5.2-1.73 7.47-.89-3.57-2.33-6.99-3.34-10.53-1.02-3.54-1.59-7.33-.71-10.91.47-1.93 2.69-7.05 6.41-11.87 2.03-2.63 4.51-5.18 7.4-7.05 1.66 3.94 7.31 9.13 11.82 9.13z" fill="#c3e9f9"/><path d="m211.49 235.41c.82 1.2.6 3.11-.67 3.83-1.4 1.35-3.72 1.37-5.21.12-1.48-1.26-1.49-3.96.13-5.03.57-.37 1.24-.52 1.91-.56 1.46-.09 3.02.44 3.84 1.64z" fill="#a5f9c7"/><path d="m211.112 81.1301c3.92 7.51 1.82 18.55-5.71 22.0299-1.13.52-2.52.84-3.56.15-.9-.61-1.26-1.79-1.43-2.88-1.13-7.3699 3.41-14.6699 9.38-18.8399.38-.27.77-.52 1.15-.76.06.1.12.2.17.3z" fill="#efede7"/><path d="m211.011 167.18c.05 3.26-3.52 5.49-6.43 4-2.93-1.5-4.36-5.61-2.66-8.42 1.48-2.43 5.96-4.06 7.98-.1.53 1.45 1.07 2.93 1.11 4.47z" fill="#b6efa3"/><path d="m160.089 331.26c-6.29 3.81-10.61 9.86-13.62 16.68-3.25 7.35-4.6 18.16-2.56 25.94h.35c.01 1.24.09 2.48.22 3.71l-.13.03c-3.02-11.98-12.18-26.97-23.75-30.92-3.71-1.26-7.65-1.62-11.49-.82 8.38 7.49 12.03 19.56 21.31 25.91 3.67 2.51 8.18 4.1 10.72 7.75l.31.51c-7.51 4.46-15.74 7.7-24.27 9.53-.43.09-.87.18-1.31.28l-.08-.37c-2.93-5.14-6.93-7.33-10.38-7.93 1.06-5.64.37-11.75-1.68-17.19-.94-2.5-2.2-4.96-4.1496-6.74-.47-.43-.98-.81-1.52-1.14.03-.53.03-1.05 0-1.58-.2-3.72-1.56-7.28-3.17-10.62-2.03-4.21-4.47-8.2-7.28-11.9-.97-1.28-2.08-2.58-3.35-3.52 2.05-7.41-.14-16.05-.61-24.08-.03-.5-.05-1.02-.05-1.52 2.69.46 5.44-.03 7.48-1.84.81-.73 1.51-1.69 1.61-2.81.19-2.08-1.93-3.91-3.94-3.77s-3.68 1.8-4.44 3.73c-.58 1.47-.73 3.08-.71 4.69-2-.34-3.98-1.21-5.61-2.45-3.82-2.92-6.95-8.18-8.45-15.83l-1.93-.38c1.76 0 3.92-1.32 5.72-3.02l.54.17c3.55 3.38 9.14 4.89 14.04 4.98.5.01 1.02.01 1.47-.21.39-.19.68-.52.96-.86 3.41-4.15 5.05-10.93 5.72-16.26.03.92.78.69 1.55 1.2 5.1296 3.4 11.1996 5.37 17.3496 5.63-.86-8.22-4.76-16.42-9.78-22.98l-.15-.02c.47-3.43.19-6.95-.82-10.29-.56-1.88-1.34-3.7-2.22-5.48l.46-.22c2.94-4.64 5.26-8.47 7.15-11.89 4.28-1.1 11.62-1.04 19.21 2.24 7.58 3.27 13.78 9.91 15.31 17.77-6.08.85-11.8 3.79-15.37 8.61-1.47 1.98-2.58 4.28-2.72 6.71s.82 4.99 2.84 6.45c3.06 2.2 7.68 1.22 10.42-1.34s3.95-6.28 4.62-9.9c.62-3.34.87-6.79.29-10.14-.02-.13-.05-.26-.08-.39 4.59-.66 9.38-.11 13.62 1.7 6.78 2.91 11.93 8.62 14.71 15.28-1.52.82-2.81 1.75-3.84 2.64-3.91 3.39-6.67 8.86-4.6 13.51.51 1.18 1.36 2.26 2.54 2.83 2.32 1.11 5.3-.17 6.71-2.27 1.42-2.1 1.59-4.75 1.43-7.25-.21-3.24-.98-6.45-2.24-9.46 5.45-2.95 13.92-4.52 24.4 1.77l.11.08c-3.72 4.82-5.94 9.94-6.41 11.87-.88 3.58-.31 7.37.71 10.91 1.01 3.54 2.45 6.96 3.34 10.53 4.27-1.71 9.08-3.15 13.81-3.62v.17c-2.48 6.95-2.8 8.69-4.06 14.22-1.69-.87-3.48-1.44-5.33-1.15-3.77.58-6.22 4.8-5.78 8.58.45 3.79 3.13 7 6.28 9.15l.71.18c-1.62 6.39-3.25 12.79-4.87 19.18l.57.61c-.37.35-.74.69-1.12 1.03-4.03-2.52-6.64-3.38-10.21-2.07-3.87 1.42-7.4 7.99-5.14 15.3l.56.5c-1.92 2.14-3.72 4.4-5.52 6.65-3.34 4.19-6.68 8.37-10.03 12.56-.82 2.11-1.51 3.67-1.7 5.93l-.05.38c-1.93-.26-3.78-.5-5.41-.7-4.07-.5-8.45-.94-12.03 1.06l-.65-.19c.15-.57.26-1.15.34-1.73l.95.14c5.14-5.58 5.72-14.03 9.96-20.31 3.68-5.48 9.74-8.78 14.69-13.14 4.64-4.1 8.36-9.25 10.8-14.94-1.43.56-2.9 1.1-4.38 1.64l-.14-.39c.32-1.82.57-3.15.16-4.95-.18-.79-.52-1.52-.96-2.18.52-.51 2.1.17 2.77.44.67.28 1.32.68 2.04.68.72-.01 1.49-.72 1.2-1.39.6.4 1.46-.22 1.54-.93.07-.71-.37-1.37-.87-1.89.65.24 1.29-.6 1.11-1.27s-.85-1.09-1.5-1.31c-.66-.22-1.37-.32-1.97-.67 1.22.05 2.17-1.41 1.75-2.56-.41-1.15-1.92-1.7-3.04-1.21.67-1 1.36-2.15 1.13-3.33-.24-1.18-1.99-1.96-2.67-.98.25-.72.43-1.47.54-2.23.03-.24.06-.49-.06-.69-.24-.41-.85-.35-1.3-.19-1.61.58-3.04 1.65-4.05 3.04.27-.46.34-1.04.18-1.56-1.58-2.51-3.99 2.14-5.14 4.04.17-.74.05-1.55-.32-2.22-1.67-2.57-4.14 3.43-4.68 5.99l-1.98.02c-1.72-.25-3.53.31-5.06 1.2-2.14 1.25-3.9 3.15-4.98 5.39 2.06-.87 3.87-2.55 6.1-2.62 1.4-.04 2.81.62 3.66 1.73.8 1.03 1.1 2.41.83 3.68-.41.21-.8.44-1.19.68zm3.79-26.93c-1.94.29-3.91.22-5.87.15v-.2c.87-.59 1.63-1.32 2.25-2.15.45-.59.84-1.33.64-2.05-.21-.71-1.31-1.09-1.7-.46.48-.62.39-1.6-.19-2.13-.57-.53-1.56-.53-2.13 0 .72-.59.55-1.87-.21-2.41-.76-.55-1.85-.44-2.64.05.01-1-.02-1.99-.08-2.99-.02-.34-.07-.72-.31-.98-.63-.66-1.68.17-2.19.93.07-.72.13-1.47-.1-2.16s-.84-1.31-1.57-1.3c-1.19.01-1.74 1.46-1.97 2.63.14-.72.03-1.77-.7-1.77-.36 0-.64.28-.86.56-.84 1.04-1.51 2.25-1.93 3.53.08-.41-.09-.87-.43-1.11-.4-.29-1.01-.24-1.36.1-.25.24-.37.58-.45.91-.17.71-.19 1.45-.08 2.17-.76-1.09-2.07-2.32-3.21-1.63-.66.41-.83 1.31-.81 2.09.06 2.27.59 4.94 2.38 6.34l-.04.24c-1.58-.25-3.22-.12-4.82.02 2.2 2.93 1.7 6.88 9.16 10.52 0 0 2.69-.32 4.97-3.01 1.51-1.8 4.66-.68 6.89-1.4 2.75-.88 5.09-2.7 7.36-4.49zm-40.02 14.76c1.88-2.53 5.32-3.8 8.39-3.1-3.1-1.56-6.85-2.31-10.03-.92-1.42.62-2.62 1.78-3.36 3.15l-.22-.12c-1.19-2.62.81-5.51 1.14-8.37.15-1.28-.28-2.86-1.52-3.19-1.23-.31-2.35.81-2.94 1.93-.56 1.05-.92 2.2-1.08 3.38.14-1.02-.94-1.92-1.96-1.84-1.03.08-1.87.92-2.26 1.87-.34.83-.4 1.74-.4 2.65-.05-.06-.11-.11-.18-.13-.22-.06-.45.04-.65.15-.98.54-1.84 1.32-2.47 2.25-.25.38-.48.81-.44 1.26.03.45.43.9.88.84-.71.46-1.43.93-1.93 1.6-.51.68-.77 1.6-.45 2.38.33.78 1.36 1.25 2.08.8-.9.91-1.52 2.09-1.78 3.34-.04.22-.07.44.01.65.29.75 1.43.31 2.03-.24-.39.42-.8.87-.95 1.42-.16.56.02 1.26.55 1.49.33.15.71.1 1.06.02 1.24-.27 3.27-1.15 4.34-1.83l.14.04c-.23.85-.33 1.74-.28 2.63.13 2.35 1.28 4.63 3.1 6.13-1.47-2.45-.61-6.01 1.8-7.53 1-.63 2.17-.92 3.31-1.2 3.52-.88 2.76-.73 2.53-3.88-.14-1.99.34-4.01 1.54-5.63z" fill="#fca265"/><path d="m205.082 43.1309c.47 1.56.53 3.22.11 4.79-1.02 3.77-5.57 8.79-8.67 6.59-2.45-1.79 2.16-7.41 5.49-9.56 1-.65 2.02-1.25 3.07-1.82z" fill="#efede7"/><path d="m204.348 308.281c-.27 1.18-.58 2.52-.96 4.13-.75 3.16-1.55 6.31-2.35 9.45l-.81 3.18-.71-.18c-3.15-2.15-5.83-5.36-6.28-9.15-.44-3.78 2.01-8 5.78-8.58 1.85-.29 3.64.28 5.33 1.15z" fill="#efede7"/><path d="m202.722 437.49-.2.12c-.34.09-.68-.11-.98-.3-4.05-2.65-6.22-6.83-9.41-10.47l-.53-.35c1.41-2.15 2.17-4.82 1.69-8.14-.01-.11-.03-.22-.05-.33h.02c2.69 6.69 5.85 13.21 9.46 19.47z" fill="#b6efa3"/><path d="m194.672 253.371c1.52 3.43 6.13 5.23 9.69 3.78-2.89 1.87-5.37 4.42-7.4 7.05l-.11-.08c-10.48-6.29-18.95-4.72-24.4-1.77-2.78-6.66-7.93-12.37-14.71-15.28-4.24-1.81-9.03-2.36-13.62-1.7-1.53-7.86-7.73-14.5-15.31-17.77-7.59-3.28-14.93-3.34-19.21-2.24 3.56-6.45 5.6-11.4 7.46-17.44l.81-.03c5.35 2.49 11.51 3.98 17.57 3.56.54.95 1.23 1.86 1.99 2.67 5.36 5.67 14.22 11.86 26.92 6.82l.46.39c-.54.81-.61 1.17-.76 1.94-.15.78 0 2.16.49 2.78.65.82 1.81.61 2.37.57 2.62-.2 4.4-1.87 6.27-3.72-1.05 1.21-.41 3.3 1 4.06 1.4.77 3.2.43 4.55-.43 1.34-.86 2.33-2.16 3.3-3.44 1.06 2.43 3.89 4.7 7.92 3.9l.39.24c-1.22 2.02-2.43 4.1-2.92 6.39-.52 2.4-.12 5.13 1.64 6.89-.57 1.79-1.14 3.63-.96 5.48.18 1.86 1.32 3.76 3.17 4.31.61.17 1.27.21 1.81.52.9.52 1.18 1.62 1.59 2.55z" fill="#fca265"/><path d="m201.928 71.9095c-8.21 9.94-16.83 19.53-25.83 28.7595l-1.83.04c-4.94-4.3095-11.58-8.5695-17.07-10.5695-.51-.18-1.05-.35-1.62-.5l.21-.76c1.5-5.34 2.48-5.53 3.98-10.86 1.69-6 3.38-12 4.68-18.08 1.27.43 2.52.94 3.73 1.56 3.35 1.71 6.39 4.61 8.13 7.99-2.73 1.35-4.95 3.44-6.14 6.42-.92 2.32-.73 5.58 1.48 6.61 2.42 1.12 5.06-1.45 5.8-4.09.85-3.05.29-6.16-1.14-8.94 4.27-2.12 9.79-2.44 14.58-1.56 3.81.7 7.64 2 11.04 3.98z" fill="#fca265"/><path d="m196.699 208.12.31.23c-.95 1.34-1.51 2.91-1.46 4.56-3.68 3.6-3.54 3.03-5.14 6.31-1.18 2.43-1.42 5.47.11 7.71l-.18.3-.39-.24c-4.03.8-6.86-1.47-7.92-3.9-.97 1.28-1.96 2.58-3.3 3.44-1.35.86-3.15 1.2-4.55.43-1.41-.76-2.05-2.85-1-4.06-1.87 1.85-3.65 3.52-6.27 3.72-.56.04-1.72.25-2.37-.57-.49-.62-.64-2-.49-2.78.15-.77.22-1.13.76-1.94.12-.19.27-.4.45-.64-6.34-7.8 2.68-7.31 2.68-7.31.39-4.51 3.99-5.32 6.48-5.63.93-.11 2.64.37 3.23 1.1 1.56-1.69 3.49-3.21 5.77-3.49.2-.02.39-.04.59-.04 2.12 0 4.31 1.34 4.64 3.42 2.73-2 6.83-3.78 8.05-.62z" fill="#efede7"/><path d="m194.809 345.86c-.82.76-1.65 1.5-2.49 2.24-3.55 3.14-7.23 6.15-10.52 9.57-.61.63-1.2 1.27-1.78 1.92l-.56-.5c-2.26-7.31 1.27-13.88 5.14-15.3 3.57-1.31 6.18-.45 10.21 2.07z" fill="#efede7"/><path d="m188.64 429.72.11.13c-.15 4.23-3.07 6.98-6.72 9.14-2.22 1.32-4.67 2.13-7.2 2.69l.05.2c-3.06 6.67-10 9.41-17.26 10.44-.65.09-1.25.18-1.8.26-5.64.78-6.83.88-13.49 1.36l-.43-.02c.02-.26 0-.51-.06-.77-.32-1.36-1.79-2.2-3.19-2.22-1.39-.02-2.71.61-3.92 1.31-2 1.14-3.86 2.51-5.55 4.07l-.31-.33c.36-.33.74-.68 1.12-1.04.92-1.02 2.43-2.74 2.58-4.1s-.47-2.87-1.71-3.45c-.76-.35-1.64-.33-2.48-.25-4.32.38-8.54 1.86-12.15 4.25-.94.62-1.86 1.32-2.66 2.12.24-.27.49-.56.73-.85.85-1.11 1.72-2.24 2.15-3.57s.35-2.91-.55-3.97c-1.1-1.28-3.02-1.44-4.7-1.33-5.37.36-10.65 2.62-14.42 6.46-1.08 1.1-2.06 2.48-2.51 3.93h-.01l-.27-.09c-2.44-.3-1.94-.23-4.14-1.34-2.91-1.46-5.08-4.19-8.1-5.41 3.18-9.7 4.45-17.78 5.75-26.74.55-3.81 1.09-7.62 1.63-11.43 7.8-1.57 12.18-12.54 18.95-16.72 2.34-1.45 5.08-2.03 7.79-2.59.44-.1.88-.19 1.31-.28 8.53-1.83 16.76-5.07 24.27-9.53 1.03-.6 2.04-1.24 3.04-1.89.59 1.76.72 3.58.48 5.39-.08.58-.19 1.16-.34 1.73-.86 3.29-2.86 6.4-5.4 8.71-4.36 3.95-10.04 6.06-15.58 8.05-5.53 2-11.23 4.05-15.65 7.94-7.8 6.86-10.11 17.9-11.93 28.13 7.31 2.14 14.72-2.89 20.09-8.29 5.36-5.4 10.59-11.8 18.03-13.44 7.72-1.71 15.39 2.24 22.73 5.16 5.84 2.32 12.03 4.06 18.31 3.92s12.7-2.35 16.98-6.95l1.08-.16c.48 3.32-.28 5.99-1.69 8.14-.8 1.24-1.83 2.31-2.96 3.23z" fill="#efede7"/><path d="m193.24 418.021c.02.11.04.22.05.33l-1.08.16c-4.28 4.6-10.7 6.81-16.98 6.95s-12.47-1.6-18.31-3.92c-7.34-2.92-15.01-6.87-22.73-5.16-7.44 1.64-12.67 8.04-18.03 13.44-5.37 5.4-12.78 10.43-20.0897 8.29 1.82-10.23 4.1297-21.27 11.9297-28.13 4.42-3.89 10.12-5.94 15.65-7.94 5.54-1.99 11.22-4.1 15.58-8.05 2.54-2.31 4.54-5.42 5.4-8.71l.65.19c3.58-2 7.96-1.56 12.03-1.06 1.63.2 3.48.44 5.41.7 4.48.61 9.42 1.31 13.21 1.77l.22-.23c3.37 3.21 6.25 6.98 8.6 11.03 3.31 5.7 5.3 12.05 7.67 18.21.27.71.55 1.42.84 2.12h-.02z" fill="#efede7"/><path d="m180.262 107.24c4.72 7.43 6.4 17.19 4.92 26.04-.83 4.91-2.61 13.7-8.61 18.97l-.13.09c-.89-1.3-1.54-2.56-1.88-3.78-1.16-4.18-.86-8.61-.55-12.94-4.49.3-8.63.87-12.59 3h-.33c.04-3.49.86-6.9.1-10.47l-1.25.03c.73-.13 1.37-.7 1.86-1.3 1.88-2.26 2.92-5.21 2.88-8.15-.01-.83-.12-1.69-.54-2.41-1.12-1.92-2.4-1.21-3.53.46l-.51-.15c.52-.88.81-1.9 1.07-2.9.55-2.09.92-7.17-2.49-7.31-1.54-.06-2.56 1.58-3.22 3.44l-1.26-.36c.3-1.13.21-2.35.09-3.52-.21-2.15-1.65-7.0405-4.89-5.9805-1.22.4005-1.69 1.8105-1.79 3.4105l-1.25-.03c.02-1.37-.17-2.73-.72-3.9805-.24-.54-.56-1.07-1.07-1.38-1.06-.66-2.52-.05-3.28.94s-.98 2.2705-1.46 3.4205c-.02.04-.03.08-.05.12l-.21-.09c-2.27-1.6-6.79-3.2405-9.28-2.04-.49.24-.99.55-1.22 1.05-.27.57-.12 1.28.24 1.81.36.52.89.9 1.42 1.24.1.06.19.12.28.17l-.08.13c-1.5-.45-4.04-1.05-5.49-.45-.56.23-1.1.55-1.42 1.07-.47.78-.27 1.84.26 2.58.19.26.41.48.65.69l-.1.12c-.91.27-1.87.57-2.51 1.27-1.11 1.23.08 2.62 1.86 3.73l-.03.06s-6.67 4.21 3.28 7.39h.02c-.49 1.55-.8 3.15-1.11 4.75-.77 3.95-1.53 7.91-2.3 11.87l-.32.39c-.84-.7-1.69-1.39-2.53-2.08-.27-.23-.65-.47-.96-.3-.14.07-.24.2-.32.34-1.09 1.75-2.15 3.95-2.07 6.01-3.49 1.95-5.52 5.61-7.14 9.35l-.5-.22c-2.63-2.18-4.51-5.27-5.84-8.54-2.97-7.3-3.36-15.61-1.89-23.4.81-4.25 2.28-8.39 4.7-11.86 1.43-2.05 3.46-4.27 5.93-6.45 3.52-3.1105 7.95-6.1205 12.79-8.3505 3.95-1.82 8.75-3.03 13.54-3.64 5.95-.76 11.89-.58 16.15.54.57.15 1.11.32 1.62.5 5.49 2 12.13 6.26 17.07 10.5705 2.6 2.27 4.73 4.55 5.99 6.53z" fill="#ffd127"/><path d="m184.39 204.9-.38.42c-.2 0-.39.02-.59.04-2.28.28-4.21 1.8-5.77 3.49-.59-.73-2.3-1.21-3.23-1.1-2.49.31-6.09 1.12-6.48 5.63 0 0-9.02-.49-2.68 7.31-.18.24-.33.45-.45.64l-.46-.39c-12.7 5.04-21.56-1.15-26.92-6.82-.76-.81-1.45-1.72-1.99-2.67.58-.04 1.16-.09 1.74-.17 2.54-.34 5.12-1.08 6.9-2.63 1.79-1.55 2.55-4.06 1.26-5.92-2.18-3.14-8.65-2.03-10.48 1.27-1.3 2.35-.8 5.06.58 7.45-6.06.42-12.22-1.07-17.57-3.56l-.81.03-.04-.05c1.25-.96 2.46-1.99 3.63-3.01l8.1-7.02c-2.95-.58-5.9-1.15-8.84-1.73l.11-.54c.76-2.8 1.45-4.06 2.3-7.12 1.54-5.51 2.65-11.22 5.22-16.34 1.08-2.13 2.39-4.13 3.54-6.21l.89.19c2.51 1.24 5.48 1.92 8.46 1.94 3.34.02 7.57-1.05 10.75-1.82l.86-.78c3.21 3.76 7.22 6.94 10.49 10.89 5.1 6.15 10.04 18.12 21.86 28.58z" fill="#fca265"/><path d="m166.39 324.089c.18-.74.26-1.51.25-2.27-.33.5-.5 1.12-.46 1.72.01.2.08.42.21.55zm6.2-1.32c.17-.03.33-.14.47-.26.61-.53 1.11-1.19 1.45-1.92-.81.55-1.47 1.31-1.92 2.18zm3.75 2.64c-.53.27-1.07.53-1.6.79.58-.14 1.13-.42 1.6-.79zm7.5-.35c.18.67-.46 1.51-1.11 1.27.5.52.94 1.18.87 1.89-.08.71-.94 1.33-1.54.93.29.67-.48 1.38-1.2 1.39-.72 0-1.37-.4-2.04-.68-.67-.27-2.25-.95-2.77-.44-.89-1.32-2.23-2.38-3.64-3.19-2.23-1.28-4.16-1.42-6.52-.45.41-2-2.39-3.82-4.35-4.41-.26-.08-.54-.14-.81-.17l1.98-.02c.54-2.56 3.01-8.56 4.68-5.99.37.67.49 1.48.32 2.22 1.15-1.9 3.56-6.55 5.14-4.04.16.52.09 1.1-.18 1.56 1.01-1.39 2.44-2.46 4.05-3.04.45-.16 1.06-.22 1.3.19.12.2.09.45.06.69-.11.76-.29 1.51-.54 2.23.68-.98 2.43-.2 2.67.98.23 1.18-.46 2.33-1.13 3.33 1.12-.49 2.63.06 3.04 1.21.42 1.15-.53 2.61-1.75 2.56.6.35 1.31.45 1.97.67.65.22 1.32.64 1.5 1.31z" fill="#ffd127"/><path d="m181.889 41.6191c1.94 4.53-.43 10.71-5.21 11.94-.64.16-1.39.22-1.89-.2-.48-.4-.58-1.1-.56-1.73.1-4.42 3.71-7.62 7.66-10.01z" fill="#efede7"/><path d="m162.571 354.139c1.88-.7 3.62-1.85 5.27-3.01-1.86.81-3.63 1.82-5.27 3.01zm-10.56 7.88c-.12.18-.21.38-.25.59-.21.51-.38 1.03-.53 1.56.65-.72 1.06-1.64 1.15-2.6-.15.13-.27.28-.37.45zm-6.44 9.28c0 .16-.03.31-.05.47-.05.39-.07.79-.07 1.19.17-.31.34-.63.48-.96-.08.74-.1 1.5-.06 2.24.08-.13.16-.27.23-.41-.01.04-.01.08-.01.12.25-.46.47-.93.66-1.41.03-.06.05-.12.08-.18.01-.03.02-.05.03-.08.72-1.68 1.17-3.47 1.31-5.29.01-.09.01-.19-.04-.27-.15-.22-.48-.02-.64.19-.11.14-.21.28-.3.42.07-.54.09-1.09.08-1.63-1.15 1.6-1.47 3.63-1.7 5.6zm7.66-10.16c-.86 1.28-1.44 2.74-1.71 4.26.69-1.37 1.26-2.79 1.71-4.26zm4.45-6.76c-.15.11-.29.24-.43.38.4.1.81.05 1.2-.08.45-.13.89-.36 1.3-.59.5-.28 1-.56 1.49-.85.03-.02.05-.03.07-.04.28-.15.54-.31.8-.49.08-.04.15-.09.22-.15 1.08-.7 2.09-1.5 2.93-2.48-.53.17-1.06.38-1.57.62-.01 0-.03.01-.05.02-2.19.84-4.22 2.07-5.96 3.66zm-8.51 20.78c.04-.1.07-.2.1-.3-.88.87-1.47 1.95-1.92 3.11-.01.02-.03.05-.03.08 0 .02-.03.05-.04.08-.11.22-.21.44-.3.66-.1.22-.19.45-.26.68-.14.36-.26.72-.36 1.09.04-.05.07-.09.1-.14-.04.15-.07.3-.1.45.06-.02.11-.04.17-.06-.06.27-.11.53-.17.79 1.09-1.64 1.92-3.45 2.43-5.36.14-.35.27-.71.38-1.07zm1.09-20.86c-1.03 2.01-1.8 4.17-2.28 6.38.2-.41.39-.82.57-1.23-.06.3-.1.6-.11.91 1.71-2.29 2.74-5.09 2.9-7.95-.39.61-.74 1.24-1.08 1.89zm3.46 8.27c-.96.83-1.67 1.95-1.99 3.19.87-.92 1.55-2.01 1.99-3.19zm6.92-7.98c1.89-.81 3.63-2.07 5.3-3.3-1.9.84-3.7 1.95-5.3 3.3zm16.35-17.66c1.48-.54 2.95-1.08 4.38-1.64-2.44 5.69-6.16 10.84-10.8 14.94-4.95 4.36-11.01 7.66-14.69 13.14-4.24 6.28-4.82 14.73-9.96 20.31l-.95-.14c.24-1.81.11-3.63-.48-5.39-.04-.18-.09-.36-.14-.54l.13-.03c-.13-1.23-.21-2.47-.22-3.72-.13-5.82.9-11.67 3.02-17.09 1.44-3.68 3.43-7.24 6.43-9.81 2.85-2.45 6.43-3.85 9.93-5.22 1.1-.43 2.21-.84 3.34-1.25 1.88-.69 3.79-1.37 5.7-2.04 1.44-.5 2.88-1.01 4.31-1.52z" fill="#ffd127"/><path d="m176.312 69.4902c1.43 2.78 1.99 5.89 1.14 8.94-.74 2.64-3.38 5.21-5.8 4.09-2.21-1.03-2.4-4.29-1.48-6.61 1.19-2.98 3.41-5.07 6.14-6.42z" fill="#efede7"/><path d="m161.281 330.58c.27-1.27-.03-2.65-.83-3.68-.85-1.11-2.26-1.77-3.66-1.73-2.23.07-4.04 1.75-6.1 2.62 1.08-2.24 2.84-4.14 4.98-5.39 1.53-.89 3.34-1.45 5.06-1.2.27.03.55.09.81.17 1.96.59 4.76 2.41 4.35 4.41 2.36-.97 4.29-.83 6.52.45 1.41.81 2.75 1.87 3.64 3.19.44.66.78 1.39.96 2.18.41 1.8.16 3.13-.16 4.95l.14.39c-1.43.51-2.87 1.02-4.31 1.52l-.19-.55c.03-1.52.06-3.06-.3-4.53-.37-1.48-1.19-2.91-2.5-3.68-2.4-1.42-3.95 2.58-7.91 1.12l-.53-.14s.02-.07.03-.1z" fill="#b6efa3"/><path d="m164.469 378.801c4.37 1.88 8.27 4.58 11.68 7.85l-.22.23c-3.79-.46-8.73-1.16-13.21-1.77l.05-.38c.19-2.26.88-3.82 1.7-5.93z" fill="#b6efa3"/><path d="m174.692 271.81c.16 2.5-.01 5.15-1.43 7.25-1.41 2.1-4.39 3.38-6.71 2.27-1.18-.57-2.03-1.65-2.54-2.83-2.07-4.65.69-10.12 4.6-13.51 1.03-.89 2.32-1.82 3.84-2.64 1.26 3.01 2.03 6.22 2.24 9.46z" fill="#efede7"/><path d="m161.25 330.681.53.14c3.96 1.46 5.51-2.54 7.91-1.12 1.31.77 2.13 2.2 2.5 3.68.36 1.47.33 3.01.3 4.53l.19.55c-1.91.67-3.82 1.35-5.7 2.04l-.93-2.58c.09-2.87-2.38-5.68-5.19-6.27l-.66-.24c-.03-.05-.06-.1-.11-.15.39-.24.78-.47 1.19-.68-.01.03-.02.07-.03.1z" fill="#fca265"/><path d="m161.421 138.619c3.96-2.13 8.1-2.7 12.59-3-2.18 4.09-5.72 8-9.78 11.56l-.45-.92c-1.29-.77-1.96-2.26-2.31-3.72-.32-1.33-.41-2.63-.38-3.93h.33z" fill="#b6efa3"/><path d="m160.861 331.65c2.81.59 5.28 3.4 5.19 6.27l.93 2.58c-1.13.41-2.24.82-3.34 1.25-3.5 1.37-7.08 2.77-9.93 5.22-3 2.57-4.99 6.13-6.43 9.81-2.12 5.42-3.15 11.27-3.02 17.09h-.35c-2.04-7.77-.69-18.58 2.56-25.93 3.01-6.82 7.33-12.87 13.62-16.68.05.05.08.1.11.15z" fill="#fca265"/><path d="m164.682 118.729c.04 2.94-1 5.89-2.88 8.15-.49.6-1.13 1.17-1.86 1.3-.19.04-.39.05-.59.01-.64-.11-1.16-.62-1.43-1.22s-.32-1.27-.32-1.92c0-1.24 1.34-5.8 3.01-8.27 1.13-1.67 2.41-2.38 3.53-.46.42.72.53 1.58.54 2.41z" fill="#efede7"/><path d="m141.02 120.941.21-.09c2.19-4.25 4.06-9.57 4.82-14.29.17-1.04.3-2.12.31-3.18l1.25.03c-.12 1.97.31 4.24.59 5.35.36 1.46 1.15 3.07 2.62 3.36 1.35.26 2.68-.79 3.2-2.07.07-.18.13-.36.18-.55l1.26.36c-.56 1.61-.86 3.37-.97 4.33-.17 1.5 0 3.28 1.28 4.07 1.17.72 2.79.2 3.72-.81.23-.25.43-.53.61-.82l.51.15c-1.67 2.47-3.01 7.03-3.01 8.27 0 .65.05 1.32.32 1.92s.79 1.11 1.43 1.22c.2.04.4.03.59-.01l1.25-.03c.76 3.57-.06 6.98-.1 10.46-.03 1.3.06 2.6.38 3.93.35 1.46 1.02 2.95 2.31 3.72l.45.92c-4.23 3.73-9.02 7.07-13.4 9.83l-.47-.75c-.78-.42-1.54-.87-2.27-1.36-4.13-2.77-7.48-6.65-9.7-11.08-1.69-3.37-2.73-7.06-2.97-10.83-.16-2.59.03-5.23-.56-7.76-.48-2.09-1.5-4.05-1.74-6.18-.16-1.33.16-2.92 1.38-3.46.94-.42 2.05-.02 2.9.55 1.72 1.15 2.83 2.87 3.62 4.8z" fill="#efede7"/><path d="m158.01 304.48c1.96.07 3.93.14 5.87-.15-2.27 1.79-4.61 3.61-7.36 4.49-2.23.72-5.38-.4-6.89 1.4-2.28 2.69-4.97 3.01-4.97 3.01-7.46-3.64-6.96-7.59-9.16-10.52 1.6-.14 3.24-.27 4.82-.02.46.06.91.16 1.36.3 1.98.62 3.81 2.22 4.02 4.29 2.26-2.19 5.61-2.84 8.75-2.88 1.18-.02 2.37.03 3.56.08z" fill="#b6efa3"/><path d="m158.679 106.42c3.41.14 3.04 5.22 2.49 7.31-.26 1-.55 2.02-1.07 2.9-.18.29-.38.57-.61.82-.93 1.01-2.55 1.53-3.72.81-1.28-.79-1.45-2.57-1.28-4.07.11-.96.41-2.72.97-4.33.66-1.86 1.68-3.5 3.22-3.44z" fill="#efede7"/><path d="m147.768 303.861c1.01-1.26 1.59-2.88 1.56-4.51-.18.16-.35.32-.52.49.22-.84.38-1.7.47-2.57-.7.88-1.29 1.84-1.75 2.85.03-.49.04-.99.01-1.48-.01-.18-.03-.38-.16-.5-.11-.1-.23-.11-.35-.06-.08-.34-.2-.67-.33-.99-.4.37-.67.81-.86 1.3-.04-.14-.1-.27-.15-.4-1.46 1.97-1.68 4.78-.55 6.96.16.32.43.66.78.64.31-.02.52-.3.68-.56l.03-.06c.42-.32.8-.69 1.14-1.11zm-3.45-10.28c.42-1.28 1.09-2.49 1.93-3.53.22-.28.5-.56.86-.56.73 0 .84 1.05.7 1.77.23-1.17.78-2.62 1.97-2.63.73-.01 1.34.61 1.57 1.3s.17 1.44.1 2.16c.51-.76 1.56-1.59 2.19-.93.24.26.29.64.31.98.06 1 .09 1.99.08 2.99.79-.49 1.88-.6 2.64-.05.76.54.93 1.82.21 2.41.57-.53 1.56-.53 2.13 0 .58.53.67 1.51.19 2.13.39-.63 1.49-.25 1.7.46.2.72-.19 1.46-.64 2.05-.62.83-1.38 1.56-2.24 2.15v.2c-1.2-.05-2.39-.1-3.57-.08-3.14.04-6.49.69-8.75 2.88-.21-2.07-2.04-3.67-4.02-4.29-.45-.14-.9-.24-1.36-.3l.04-.24c-1.79-1.4-2.32-4.07-2.38-6.34-.02-.78.15-1.68.81-2.09 1.14-.69 2.45.54 3.21 1.63-.11-.72-.09-1.46.08-2.17.08-.33.2-.67.45-.91.35-.34.96-.39 1.36-.1.34.24.51.7.43 1.11z" fill="#ffd127"/><path d="m164.449 59.9396c-1.3 6.08-2.99 12.08-4.68 18.08-1.5 5.33-2.48 5.52-3.98 10.86l-.21.76c-4.26-1.12-10.2-1.3-16.15-.54l-.06-.44c-4.3-9.35-7.84-19.05-10.56-28.98 1.59-1.77 3.29-3.43 5.09-4.96 1.45-1.23 2.83-2.54 4.2-3.87 2.53 2.94 6.53 4.55 10.34 5.48 5.31 1.31 10.87 1.84 16.01 3.61z" fill="#fca265"/><path d="m166.77 461.559c-7.88 2.58-14.26 5.38-19.93 10.89l-.06-.03c-2.62-1.21-5.6-1.3-8.49-1.33-6.9-.08-13.8.03-20.67.58-5.97.49-11.91 1.3-17.7905 2.45-.09-.17-.19-.34-.3-.5-1.28-1.87-3.34-3.03-5.38-4.03-9.67-4.77-21.16-7.51-31.24-3.77-.4-1.17-.98-2.28-1.7-3.27-4.2-5.82-12.29-7.62-19.39-6.43 1.23-3.17 1.94-6.49 1.91-9.96-.04-4.34-1.37-8.81-4.37-11.96-1.57-1.64-3.63-2.85-5.83-3.41 1.29-4.61 1.93-9.54 1.52-12.96-.34-2.89-1.09-5.83-2.95-8.06-.18-.22-.38-.43-.58-.63 3.23-4.47 6.2-10.54 7.65-15.16.15-.47.29-.92.4-1.36h.42c-.02 4.22.2 8.6 1.7 16.9 1.45 8.06 3.61 16.51 9.5 22.19 3.13 3.02 7.08 5.02 10.7 7.43l.69.09c-.07.52-.14 1.03-.21 1.55-.12.88-.24 1.81.08 2.65.31.85 1.03 1.48 1.75 2.05 4.55 3.6 10.05 5.98 15.8 6.84.65-1.71 1.23-3.37 1.75-4.98 3.02 1.22 5.19 3.95 8.1 5.41 2.2 1.11 1.7 1.04 4.14 1.34l.27.09c-.33 1.08-.38 2.2.04 3.27.63 1.62 2.24 2.71 3.94 3.1 1.69.39 3.4705.17 5.1605-.21 2.57-.58 6-2.42 9.41-6-.28.33-.54.68-.77 1.04-.98 1.55-1.42 3.76-.18 5.12.63.7 1.58 1.03 2.5 1.25 3.56.85 6.92 1.11 14.51-5.77l.31.33c-.48.45-.96.91-1.41 1.39-.43.45-.85.93-1.04 1.52-.42 1.35.59 2.81 1.86 3.46 5.1 2.63 9.68-2.37 12.26-6.21.52-.77 1-1.65 1.05-2.55l.43.02c6.66-.48 7.85-.58 13.49-1.36l.12.77c2.99 3.63 6.7 6.35 10.83 8.21z" fill="#fca265"/><path d="m154.29 105.98c.12 1.17.21 2.39-.09 3.52-.05.19-.109.37-.179.55-.52 1.28-1.85 2.33-3.2 2.07-1.47-.29-2.261-1.9-2.621-3.36-.28-1.11-.71-3.38-.59-5.35.1-1.6.57-3.01 1.79-3.41 3.24-1.06 4.68 3.83 4.89 5.98z" fill="#efede7"/><path d="m152.038 165.43-.86.78c-3.18.77-7.41 1.84-10.75 1.82-2.98-.02-5.95-.7-8.46-1.94l-.89-.19c.68-1.25 1.31-2.53 1.78-3.88.63-1.81.92-3.83.72-5.74l.27-.03c1.91-.57 3.28-2.34 3.85-4.25.17-.57.28-1.18.09-1.74-.2-.64-.75-1.11-1.27-1.54-.36-.29-.71-.58-1.07-.87l.46-.56c.73-1.11 1.45-2.22 2.18-3.32l.3-.15c2.22 4.43 5.57 8.31 9.7 11.08l-.1.15-.13 3.8c1.03 2.48 2.5 4.61 4.18 6.58z" fill="#ffd127"/><path d="m146.838 472.449c2.6 1.21 4.77 3.81 4.57 6.67-.2 2.89-3.58 5.34-6.12 3.97-1.82-.99-2.47-3.42-1.96-5.43.52-2 1.93-3.65 3.4-5.1z" fill="#efede7"/><path d="m149.441 357.13c.33-.93.6-1.87.82-2.82.34-.65.69-1.28 1.08-1.89-.16 2.86-1.19 5.66-2.9 7.95.01-.31.05-.61.11-.91.33-.77.63-1.54.89-2.33z" fill="#ff6235"/><path d="m145.639 99.3996c.55 1.2504.74 2.6104.72 3.9804-.01 1.06-.14 2.14-.31 3.18-.76 4.72-2.63 10.04-4.82 14.29l-.21.09c-.79-1.93-1.9-3.65-3.62-4.8-.85-.57-1.96-.97-2.9-.55-1.22.54-1.54 2.13-1.38 3.46.24 2.13 1.26 4.09 1.74 6.18.59 2.53.4 5.17.56 7.76.24 3.77 1.28 7.46 2.97 10.83l-.3.15c-.73 1.1-1.45 2.21-2.18 3.32l-.46.56c-3.91-3.21-7.82-6.41-11.73-9.61l.32-.39c.77-3.96 1.53-7.92 2.3-11.87.31-1.6.62-3.2 1.11-4.74.15-.49.33-.97.52-1.45.59-1.43 1.26-2.51 1.99-3.45 1.06-1.34 2.24-2.4 3.52-3.76 1.24-1.31 2.57-2.91 3.96-5.32.77-1.31 1.54-2.87 2.34-4.76.02-.04.03-.08.05-.12.48-1.15.7-2.4304 1.46-3.4204s2.22-1.6 3.28-.94c.51.31.83.84 1.07 1.38z" fill="#efede7"/><path d="m145.149 28.1404c8.02 1.89.72 15.16-3.68 19.41-1.13 1.1-2.25 2.21-3.37 3.3-.65-.74-1.2-1.57-1.63-2.5-2.11-4.6.09-21.94 8.68-20.21z" fill="#efede7"/><path d="m145.34 202.73c1.29 1.86.53 4.37-1.26 5.92-1.78 1.55-4.36 2.29-6.9 2.63-.58.08-1.16.13-1.74.17-1.38-2.39-1.88-5.1-.58-7.45 1.83-3.3 8.3-4.41 10.48-1.27z" fill="#efede7"/><path d="m142.289 374.02c.04-.2-.14-.45-.3-.61-.19-.18-.37-.36-.56-.55-.1-.09-.21-.19-.31-.29l-.14-.14c-.68-.66-1.37-1.33-2.05-2 .26.4.55.78.87 1.13-.48-.31-1-.57-1.53-.77.94 1.49 2.34 2.69 3.96 3.39.04-.05.06-.1.06-.16zm-16.93-16.24s-.09.03-.12.06c-.11.11-.09.3-.05.45s.09.3.16.45c0 .02.01.03.01.05.66 1.57 2.24 2.74 3.94 2.85.05-.11.06-.23.04-.34.06.04.13.07.2.1.22-.47-.11-1-.46-1.38-.92-.99-2.08-1.75-3.36-2.2-.11-.04-.25-.07-.36-.04zm3.74 10.14h-.09c-.34-.14-.69-.28-1.04-.41.19.15.38.3.59.43.92.64 1.96 1.1 3.05 1.35.24.06.51.1.74.02.24-.08.43-.34.36-.58-.07-.23-.33-.33-.56-.39-.99-.28-2.01-.42-3.04-.42zm.55-1.25c.68.27 1.38.49 2.09.65.67.6 1.54.97 2.44 1-.78-.84-1.84-1.29-2.96-1.56-.74-.18-1.51-.28-2.25-.37.22.1.45.2.68.28zm14.7 10.95c.05.18.1.36.14.54-1 .65-2.01 1.29-3.04 1.89l-.31-.51c-2.54-3.65-7.05-5.24-10.72-7.75-9.28-6.35-12.93-18.42-21.31-25.91 3.84-.8 7.78-.44 11.49.82 11.57 3.95 20.73 18.94 23.75 30.92zm-8.15-15.06c.2.28.42.55.66.8-.18-.38-.4-.73-.67-1.05-.08-.66-.43-1.26-.92-1.69-.02-.04-.05-.08-.08-.12.01.02.01.04.02.06-.52-.43-1.18-.68-1.85-.61.02.18.06.37.12.54-.02-.01-.03-.02-.05-.02.03.04.05.07.09.11.3.84 1.02 1.52 1.87 1.78 0 .01.01.01.01.01.25.16.52.31.79.45.01-.09.01-.17.01-.26z" fill="#ffd127"/><path d="m144.199 245.759c.58 3.35.33 6.8-.29 10.14-.67 3.62-1.88 7.34-4.62 9.9s-7.36 3.54-10.42 1.34c-2.02-1.46-2.98-4.02-2.84-6.45s1.25-4.73 2.72-6.71c3.57-4.82 9.29-7.76 15.37-8.61.03.13.06.26.08.39z" fill="#efede7"/><path d="m141.839 453.15c.06.26.08.51.06.77-.05.9-.53 1.78-1.05 2.55-2.58 3.84-7.16 8.84-12.26 6.21-1.27-.65-2.28-2.11-1.86-3.46.19-.59.61-1.07 1.04-1.52.45-.48.93-.94 1.41-1.39 1.69-1.56 3.55-2.93 5.55-4.07 1.21-.7 2.53-1.33 3.92-1.31 1.4.02 2.87.86 3.19 2.22z" fill="#efede7"/><path d="m139.572 102.41.21.09c-.8 1.89-1.57 3.45-2.34 4.76l-.35-.2c-3.22-1.21-4.12-1.2-6.08-2.42-.09-.05-.18-.11-.28-.17-.53-.34-1.06-.72-1.42-1.24-.36-.53-.51-1.24-.24-1.81.23-.5.73-.81 1.22-1.05 2.49-1.1999 7.01.44 9.28 2.04z" fill="#efede7"/><path d="m139.369 88.6595.06.44c-4.79.61-9.59 1.82-13.54 3.64-4.84 2.23-9.27 5.24-12.79 8.3505l-.33-.37c-5.06-5.4305-22.1499-21.5205-30.4799-30.6105 3.76-4.58 8.61-8.26 14-10.44 6.6099-2.67 14.3399-3.36 20.6699-.03 2.8 1.47 5.19 3.88 6.78 6.7-1.14 1.75-2.18 3.58-3.1 5.46-.9 1.83-1.71 3.92-1.19 5.9.53 1.99 3.03 3.44 4.59 2.16.57-.47.89-1.18 1.13-1.9 1.3-3.86.57-8.08-1.43-11.62 1.51-2.36 3.21-4.59 5.07-6.66 2.72 9.93 6.26 19.63 10.56 28.98z" fill="#fca265"/><path d="m133.579 156.28c.2 1.91-.09 3.93-.72 5.74-.47 1.35-1.1 2.63-1.78 3.88-1.15 2.08-2.46 4.08-3.54 6.21-2.57 5.12-3.68 10.83-5.22 16.34-.85 3.06-1.54 4.32-2.3 7.12l-.11.54-11.19-2.19c-3.51-.69-7.03-1.38-10.5998-1.38-4.57 0-8.14.12-11.11.5l-.06-.43c3.91-6.69 2.5-10.2 5.21-15.89 3.32-7 8.5798-13.18 15.0898-17.38l.23.1h.01c.77-1.92 1.54-3.83 2.32-5.74.29-.71.58-1.43.89-2.14 1.62-3.74 3.65-7.4 7.14-9.35-.08-2.06.98-4.26 2.07-6.01.08-.14.18-.27.32-.34.31-.17.69.07.96.3.84.69 1.69 1.38 2.53 2.08 3.91 3.2 7.82 6.4 11.73 9.61.36.29.71.58 1.07.87.52.43 1.07.9 1.27 1.54.19.56.08 1.17-.09 1.74-.57 1.91-1.94 3.68-3.85 4.25z" fill="#c3e9f9"/><path d="m137.088 107.061.35.2c-1.39 2.41-2.72 4.01-3.96 5.32l-.73-.51c-2.19-.55-4.32-1.37-6.31-2.43-.53-.28-1.06-.59-1.51-.98-.24-.21-.46-.43-.65-.69-.53-.74-.73-1.8-.26-2.58.32-.52.86-.84 1.42-1.07 1.45-.6 3.99 0 5.49.45l.08-.13c1.96 1.22 2.86 1.21 6.08 2.42z" fill="#efede7"/><path d="m133.48 112.58c-1.28 1.36-2.46 2.42-3.52 3.76l-.26-.52c-1.19-.05-3.67-.89-5.52-2.04-1.78-1.11-2.97-2.5-1.86-3.73.64-.7 1.6-1 2.51-1.27l.1-.12c.45.39.98.7 1.51.98 1.99 1.06 4.12 1.88 6.31 2.43z" fill="#efede7"/><path d="m130.86 447.39c1.24.58 1.86 2.09 1.71 3.45s-1.66 3.08-2.58 4.1c-.38.36-.76.71-1.12 1.04-7.59 6.88-10.95 6.62-14.51 5.77-.92-.22-1.87-.55-2.5-1.25-1.24-1.36-.8-3.57.18-5.12.23-.36.49-.71.77-1.04l.03-.03c.23-.25.47-.5.7-.77l.03-.03c.8-.8 1.72-1.5 2.66-2.12 3.61-2.39 7.83-3.87 12.15-4.25.84-.08 1.72-.1 2.48.25z" fill="#efede7"/><path d="m132.249 315.989c-3.07-.7-6.51.57-8.39 3.1-1.2 1.62-1.68 3.64-1.54 5.63.23 3.15.99 3-2.53 3.88-1.14.28-2.31.57-3.31 1.2-2.41 1.52-3.27 5.08-1.8 7.53-1.82-1.5-2.97-3.78-3.1-6.13-.05-.89.05-1.78.28-2.63.38-1.42 1.12-2.75 2.15-3.8 1.2-1.22 3.15-2.07 4.6-1.17-.91-1.69-.68-3.7.25-5.38.74-1.37 1.94-2.53 3.36-3.15 3.18-1.39 6.93-.64 10.03.92z" fill="#b6efa3"/><path d="m129.699 115.819.26.52c-.73.94-1.4 2.02-1.99 3.45-.19.48-.37.96-.52 1.45h-.02c-9.95-3.19-3.28-7.4-3.28-7.4l.03-.06c1.85 1.15 4.33 1.99 5.52 2.04z" fill="#efede7"/><path d="m129.079 360.02c.35.38.68.91.46 1.38-.07-.03-.14-.06-.2-.1-.04-.37-.36-.73-.68-.97-.76-.58-1.59-1.06-2.47-1.42-.31-.35-.59-.73-.83-1.13.11-.03.25 0 .36.04 1.28.45 2.44 1.21 3.36 2.2z" fill="#ffd127"/><path d="m128.661 360.33c.32.24.64.6.68.97-1.21-.55-2.3-1.38-3.15-2.39.88.36 1.71.84 2.47 1.42z" fill="#ffd127"/><path d="m63.0502 227.92c-2.64 1.36-4.95 3.16-6.79 5.25-.85.96-1.6 1.98-2.23 3.05 2.9-1.3 5.08-3.42 6.47-5.9-.03.15-.05.3-.06.45.72-.67 1.7-2.25 2.61-2.85zm20.23-5.72c1.21-.15 2.47-.37 3.89-.67-3.34-.39-6.74-.48-10.12-.27 2.04.45 4.12.77 6.23.94zm-18.75 20.32c-.08.02-.15.06-.22.11-.46.33-.57.98-.56 1.55.01.95.23 1.89.63 2.75.22.45.52.9.95 1.1l.02.02c.2.19.55.25.75.06l.02-.02.01-.01c.43-.12.8-.47.99-.88.27-.57.27-1.23.28-1.86 0-.45-.01-.92-.08-1.37 0-.04 0-.07 0-.11-.03-.46-.11-.92-.34-1.32-.19-.31-.48-.57-.81-.7-.02-.01-.04-.01-.05-.02-.2-.12-.42-.18-.64-.14-.35.06-.58.31-.73.63 0 .01-.01.01-.01.02-.04.05-.07.1-.1.16-.04 0-.07.01-.1.03zm21.69-11.87c-.07.02-.14.06-.21.11-.47.33-.57.98-.56 1.55.01.95.23 1.89.63 2.75.2.44.5.89.93 1.09l.03.03c.21.19.56.25.76.06l.02-.02c.43-.12.8-.48.99-.89.27-.57.28-1.23.28-1.86 0-.47-.01-.98-.08-1.46 0-.02 0-.04-.01-.07-.03-.45-.12-.89-.34-1.27-.17-.29-.44-.55-.75-.68-.22-.14-.49-.22-.75-.18-.34.06-.58.31-.73.63 0 .01-.01.02-.01.03-.03.05-.06.09-.09.14-.03.01-.07.02-.11.04zm-11.95-32.44.08.05c3.84-3.05 7.28-4.54 12.66-5.22 2.97-.38 6.54-.5 11.11-.5 3.5698 0 7.0898.69 10.5998 1.38l11.19 2.19c2.94.58 5.89 1.15 8.84 1.73l-8.1 7.02c-1.17 1.02-2.38 2.05-3.63 3.01-2.78 2.13-5.79 3.88-9.22 4.28-2.64.3-5.29-.23-7.9398-.23-2.41 0-4.79.45-7.15.89-1.54.29-2.91.07-4.22-.37 3.77 4.82 8.69 16.19 11.5798 21.39.66 1.2 1.32 2.41 1.92 3.64.88 1.78 1.66 3.6 2.22 5.48 1.01 3.34 1.29 6.86.82 10.29-.46 3.46-1.7 6.83-3.72 9.83-1.4898 2.21-3.4998 4.4-6.0798 6.22-4.38 3.09-10.43 5.1-18.55 4.38l-.42.28c-2.47-3.77-11.08-10.8-12.82-11.03-2.28-.32-7.52 2.8-9.78 2.38-2.27-.41-11.56-13.59-11.56-13.59h-.01c-2.57-3.72-5.33-8.06-5.16-9.3.3-2.28 4.88-6.31 5.29-8.57.35-1.99-5.09-15.52-7.76-16.69-.79-.34-2.04-.27-3.42.1l-.13-.45c2.25-12.26 13.11-18.71 21.91-21.95 1.84-.68 3.59-1.22 5.15-1.64 2.1-.57 4.3-.82 6.33-1.58 1.94-.73 3.67-1.89 5.37-3.04 3.6-2.41 7.19-4.83 10.78-7.25-.75 5.82-2.94 11.63-6.18 16.87zm14.12 22.44c-3.02-.8-6.28-.96-9.41-.45 3.09.47 6.26.62 9.41.45zm-29.7 9.37c.84-.8 2-2.78 3.06-3.34-2.97 1.56-5.59 3.64-7.66 6.07-.93 1.08-1.75 2.24-2.45 3.45 3.19-1.47 5.58-3.87 7.11-6.68-.03.17-.05.34-.06.5z" fill="#efede7"/><path d="m123.738 66.3398c2 3.54 2.73 7.76 1.43 11.62-.24.72-.56 1.43-1.13 1.9-1.56 1.28-4.06-.17-4.59-2.16-.52-1.98.29-4.0699 1.19-5.8999.92-1.88 1.96-3.7101 3.1-5.4601z" fill="#efede7"/><path d="m116.349 320.981c.14.36.32.7.53 1.02.25-1.41.1-2.9-.43-4.23-.11.18-.19.38-.25.58-.03-.35-.08-.69-.13-1.03-.3 1.21-.19 2.51.28 3.66zm-3.81 1.26c-.11-.76-.44-1.5-.96-2.06.09.27.2.54.31.8-.01-.01-.02-.01-.03-.01-.23-.56-.57-1.08-1.01-1.49-.76 1.52-.22 3.57 1.19 4.52.03-.09.05-.18.07-.26.09.09.18.17.28.24.19-.55.24-1.16.15-1.74zm5.72-15.7c1.24.33 1.67 1.91 1.52 3.19-.33 2.86-2.33 5.75-1.14 8.37l.22.12c-.93 1.68-1.16 3.69-.25 5.38-1.45-.9-3.4-.05-4.6 1.17-1.03 1.05-1.77 2.38-2.15 3.8l-.14-.04c-1.07.68-3.1 1.56-4.34 1.83-.35.08-.73.13-1.06-.02-.53-.23-.71-.93-.55-1.49.15-.55.56-1 .95-1.42-.6.55-1.74.99-2.03.24-.08-.21-.05-.43-.01-.65.26-1.25.88-2.43 1.78-3.34-.72.45-1.75-.02-2.08-.8-.32-.78-.06-1.7.45-2.38.5-.67 1.22-1.14 1.93-1.6-.45.06-.85-.39-.88-.84-.04-.45.19-.88.44-1.26.63-.93 1.49-1.71 2.47-2.25.2-.11.43-.21.65-.15.07.02.13.07.18.13 0 .12.01.26.01.39.11-.1.08-.27-.01-.39 0-.91.06-1.82.4-2.65.39-.95 1.23-1.79 2.26-1.87 1.02-.08 2.1.82 1.96 1.84.16-1.18.52-2.33 1.08-3.38.59-1.12 1.71-2.24 2.94-1.93zm-7.44 20.06v.94c-.39.24-.68.63-.82 1.06 1.01-.54 1.69-1.65 1.71-2.8-.88.42-1.63 1.09-2.15 1.91.56-.16 1.04-.58 1.27-1.11z" fill="#ffd127"/><path d="m109.598 225.359c-1.89 3.42-4.21 7.25-7.15 11.89l-.46.22c-.6-1.23-1.26-2.44-1.92-3.64-2.8897-5.2-7.8097-16.57-11.5797-21.39 1.31.44 2.68.66 4.22.37 2.36-.44 4.74-.89 7.15-.89 2.6497 0 5.2997.53 7.9397.23 3.43-.4 6.44-2.15 9.22-4.28l.04.05c-1.86 6.04-3.9 10.99-7.46 17.44z" fill="#c3e9f9"/><path d="m115.901 445.12c.9 1.06.98 2.64.55 3.97s-1.3 2.46-2.15 3.57c-.24.29-.49.58-.73.85l-.03.03c-.25.24-.49.5-.7.77l-.03.03c-3.41 3.58-6.84 5.42-9.41 6-1.69.38-3.4697.6-5.1597.21-1.7-.39-3.31-1.48-3.94-3.1-.42-1.07-.37-2.19-.04-3.27h.01c.45-1.45 1.43-2.83 2.51-3.93 3.7697-3.84 9.0497-6.1 14.4197-6.46 1.68-.11 3.6.05 4.7 1.33z" fill="#efede7"/><path d="m89.1297 409.17c-.54 3.81-1.08 7.62-1.63 11.43-1.3 8.96-2.57 17.04-5.75 26.74-.52 1.61-1.1 3.27-1.75 4.98-5.75-.86-11.25-3.24-15.8-6.84-.72-.57-1.44-1.2-1.75-2.05-.32-.84-.2-1.77-.08-2.65.07-.52.14-1.03.21-1.55l-.69-.09c-3.62-2.41-7.57-4.41-10.7-7.43-5.89-5.68-8.05-14.13-9.5-22.19-1.5-8.3-1.72-12.68-1.7-16.9h-.42c-.11.44-.25.89-.4 1.36l-.27-.08c-9.06-8.68-11.63-22.03-12.73-34.53-1.54-17.56-1.11-35.28 1.27-52.74 1.6-11.73 4.65-25.86 18.72-34.68l.12-.1c1.98 2.24 3.93 4.32 5.53 5.83 5.91 5.55 11.87 6.84 15.72 6.93h.08l1.93.38c1.5 7.65 4.63 12.91 8.45 15.83 1.63 1.24 3.61 2.11 5.61 2.45 0 .5.02 1.02.05 1.52.47 8.03 2.66 16.67.61 24.08-.98-.71-2.06-1.23-3.26-1.35-2.25-.24-4.54 1.1-5.5 3.21-.83 1.83-.44 4.44 1.33 5.33 2.12 1.08 4.49-.87 5.68-2.95.78-1.36 1.35-2.77 1.75-4.24 1.27.94 2.38 2.24 3.35 3.52 2.81 3.7 5.25 7.69 7.28 11.9 1.61 3.34 2.97 6.9 3.17 10.62.03.53.03 1.05 0 1.58-1.72-1.04-3.75-1.49-5.63-.96-3.14.9-5.15 4.74-4.18 8.01.3 1.02.89 2.01 1.81 2.48 1.44.73 3.17-.01 4.37-1.07 2.31-2.06 3.47-5.25 3.63-8.46.54.33 1.05.71 1.52 1.14 1.9503 1.78 3.2103 4.24 4.1503 6.74 2.05 5.44 2.74 11.55 1.68 17.19-1.1-.19-2.14-.22-3.08-.13-3.9003.37-7.5003 4.35-6.4303 8.3.44 1.62 1.92 3.14 3.51 2.85 1.1003-.2 1.8903-1.17 2.5203-2.13 1.75-2.68 2.89-5.71 3.48-8.89 3.45.6 7.45 2.79 10.38 7.93l.08.37c-2.71.56-5.45 1.14-7.79 2.59-6.77 4.18-11.1503 15.15-18.9503 16.72z" fill="#c3e9f9"/><path d="m112.769 100.719.33.37c-2.47 2.18-4.5 4.4-5.93 6.45-2.42 3.47-3.89 7.61-4.7 11.86-1.47 7.79-1.08 16.1 1.89 23.4 1.33 3.27 3.21 6.36 5.84 8.54l.5.22c-.31.71-.6 1.43-.89 2.14-.78 1.91-1.55 3.82-2.32 5.74h-.01l-.23-.1c-6.51 4.2-11.7699 10.38-15.0899 17.38-2.71 5.69-1.3 9.2-5.21 15.89l.06.43c-5.38.68-8.82 2.17-12.66 5.22l-.08-.05c3.24-5.24 5.43-11.05 6.18-16.87-3.59 2.42-7.18 4.84-10.78 7.25-1.7 1.15-3.43 2.31-5.37 3.04-2.03.76-4.23 1.01-6.33 1.58-1.56.42-3.31.96-5.15 1.64l-.07-.19c-2.12-2.65-6.36-10.63-7.68-13.54-2.02-4.47-4.44-9.23-8.53-11.62 1.55-3.26 2.5-6.9 3.05-10.49 1.07-7 .88-14.17 2.07-21.15.18-1.04.41-2.1.7-3.13 3.04 2.59 7.29 3.7 10.67 1.74 1.91-1.1 3.38-3.26 3.16-5.51-.39-4.01-5.88-5.59-9.18-3.44-2.43 1.58-3.82 4.3-4.65 7.21-.92-.79-1.73-1.72-2.37-2.74-2.75-4.39-3.07-9.91-2.89-15.14.3-8.63 1.71-17.5396 1.85-26.1796 2.79 1.27 5.85 1.84 8.9 1.51 5.51-.61 10.44-3.67 15.6-5.78 3.64-1.49 7.8-2.46 11.56-1.77-.91 3.92-1.08 8-.34 12.04.28 1.51.83 3.2 2.2 3.7896.81.35 1.75.23 2.56-.09 5.19-2.0296 4.63-10.7896.01-13.9596-1.36-.94-2.86-1.51-4.43-1.78 1.22-5.28 3.78-10.29 7.28-14.52 8.33 9.09 25.4199 25.18 30.4799 30.6096z" fill="#fca265"/><path d="m105.18 253.26c5.02 6.56 8.92 14.76 9.78 22.98-6.15-.26-12.22-2.23-17.3495-5.63-.77-.51-1.52-.28-1.55-1.2l-.83-.12c2.58-1.82 4.59-4.01 6.0795-6.22 2.02-3 3.26-6.37 3.72-9.83z" fill="#c3e9f9"/><path d="m102.989 39.3791c3.08 3.81 2.88 9.92-1.53 12.52-1.03.6-2.4102.98-3.4902.44-1.24-.63-1.45-2.12-1.33-3.38.39-3.82 2.81-7.39 6.2802-9.67.02.03.05.06.07.09z" fill="#efede7"/><path d="m99.8295 474.119c.9905 1.84 1.0305 4.3-.43 5.77-1.6 1.6-5.02.87-5.28-1.38-.28-2.47 2.77-3.82 5.21-4.3.17-.03.33-.07.5-.09z" fill="#efede7"/><path d="m95.2281 269.289.83.12c-.67 5.33-2.31 12.11-5.72 16.26-.28.34-.57.67-.96.86-.45.22-.97.22-1.47.21-4.9-.09-10.49-1.6-14.04-4.98l-.54-.17c2.13-2.02 3.75-4.59 3.6-6.15-.04-.39-.28-.9-.67-1.49l.42-.28c8.12.72 14.17-1.29 18.55-4.38z" fill="#c3e9f9"/><path d="m88.7494 294.849c2.01-.14 4.13 1.69 3.94 3.77-.1 1.12-.8 2.08-1.61 2.81-2.04 1.81-4.79 2.3-7.48 1.84-.02-1.61.13-3.22.71-4.69.76-1.93 2.43-3.59 4.44-3.73z" fill="#efede7"/><path d="m79.4405 86.4109c4.62 3.17 5.18 11.93-.01 13.9601-.81.32-1.75.44-2.56.09-1.37-.5901-1.92-2.2801-2.2-3.7901-.74-4.04-.57-8.12.34-12.04 1.57.27 3.07.84 4.43 1.78z" fill="#efede7"/><path d="m76.5285 41.0604c1.93 2.2 3.47 4.93 3.01 7.69-.45 2.76-3.61 5.25-6.63 4.46-2.48-.65-3.82-3.21-3.55-5.48.28-2.27 1.81-4.27 3.51-5.98.72-.73 1.5-1.43 2.31-2.1.48.45.93.92 1.35 1.41z" fill="#efede7"/><path d="m76.9292 275.44c.15 1.56-1.47 4.13-3.6 6.15-1.8 1.7-3.96 3.02-5.72 3.02h-.08c-3.85-.09-9.81-1.38-15.72-6.93-1.6-1.51-3.55-3.59-5.53-5.83-5.3-5.97-10.87-13.02-10.87-13.02-3.27-4.34-7.95-12.39-10.82-18.47-3.46-7.33-2.85-13.41-1.75-17.09.78-2.6 4.89-5.14 8.2-6.02 1.38-.37 2.63-.44 3.42-.1 2.67 1.17 8.11 14.7 7.76 16.69-.41 2.26-4.99 6.29-5.29 8.57-.17 1.24 2.59 5.58 5.16 9.31h.01s9.29 13.17 11.56 13.58c2.26.42 7.5-2.7 9.78-2.38 1.74.23 10.35 7.26 12.82 11.03.39.59.63 1.1.67 1.49z" fill="#ffd127"/><path d="m62.9119 465.82c.63 1.85.8 3.84.3 5.72-.81 3.07-3.62 5.65-6.8 5.66-1.42 0-3.04-.72-3.32-2.12-.18-.9.26-1.8.75-2.57 1.97-3.04 5.13-5.15 8.49-6.48.19-.08.38-.15.58-.21z" fill="#efede7"/><path d="m56.1894 130.96c.22 2.25-1.25 4.41-3.16 5.51-3.38 1.96-7.63.85-10.67-1.74.83-2.91 2.22-5.63 4.65-7.21 3.3-2.15 8.79-.57 9.18 3.44z" fill="#efede7"/><path d="m46.2106 50.9194c1.27 1.75 2.1 3.89 1.55 5.91s-2.81 3.74-5.12 3.38c-2.21-.35-3.65-2.43-3.72-4.41-.06-1.98.93-3.86 2.03-5.59.56-.88 1.15-1.75 1.77-2.6 1.37.92 2.55 2.04 3.49 3.31z" fill="#efede7"/><path d="m41.3291 456.199c.16-.03.32-.06.49-.08-2.83 7.3-8.41 13.8-14.06 19.46-1.06 1.06-2.28 2.18-3.78 2.26-2.15.12-3.86-2.12-3.9-4.27s1.13-4.13 2.45-5.84c4.58-5.96 11.41-10.14 18.8-11.53z" fill="#efede7"/><path d="m35.4786 70.1608c2.88 6.46 3.6 13.4 3.47 20.51-6.25-2.82-11.16-9.05-11.75-16.14-.17-1.96-.01-4.06 1.07-5.68 1.07-1.62 3.28-2.55 4.96-1.64 1.09.6 1.74 1.79 2.25 2.95z" fill="#efede7"/><path d="m35.5918 168.99c.33.15.64.32.95.51-1.45 3.1-3.45 5.87-6.11 7.96-1.01.79-2.24 1.49-3.48 1.23-1.44-.31-2.36-1.86-2.52-3.38-.54-5.29 6.47-8.5 11.16-6.32z" fill="#efede7"/><path d="m27.4702 431.009c1.95-.72 4.06-.74 6.06-.22-2.38 8.49-6.97 15.88-11.32 10.71-1.52-4.08 1.18-8.98 5.26-10.49z" fill="#efede7"/><path d="m24.3395 407.21c2.45-.9 5.28.08 7.18 1.93-3.44 4.75-7.16 7.69-9.64 5.13-1.79-2.28-.27-6.05 2.46-7.06z" fill="#efede7"/><g stroke="#171517" stroke-linecap="round" stroke-linejoin="round" stroke-width="2"><path d="m89.1289 409.17c7.8-1.57 12.1801-12.54 18.9501-16.72 2.34-1.45 5.08-2.03 7.79-2.59.44-.1.88-.19 1.31-.28 8.53-1.83 16.76-5.07 24.27-9.53 1.03-.6 2.04-1.24 3.04-1.89.59 1.76.72 3.58.48 5.39-.08.58-.19 1.16-.34 1.73-.86 3.29-2.86 6.4-5.4 8.71-4.36 3.95-10.04 6.06-15.58 8.05-5.53 2-11.23 4.05-15.65 7.94-7.8 6.86-10.1101 17.9-11.9301 28.13 7.3101 2.14 14.7201-2.89 20.0901-8.29 5.36-5.4 10.59-11.8 18.03-13.44 7.72-1.71 15.39 2.24 22.73 5.16 5.84 2.32 12.03 4.06 18.31 3.92s12.7-2.35 16.98-6.95"/><path d="m175.931 386.881c-3.79-.46-8.73-1.16-13.21-1.77-1.93-.26-3.78-.5-5.41-.7-4.07-.5-8.45-.94-12.03 1.06"/><path d="m145.102 433.07c6.08.57 12.15 1.14 18.23 1.7 5.69.54 11.58 1.05 17-.77 2.26-.76 5.58-2.08 8.31-4.28 1.13-.92 2.16-1.99 2.96-3.23 1.41-2.15 2.17-4.82 1.69-8.14-.01-.11-.03-.22-.05-.33"/><path d="m142.039 443.18c9.28.8 18.64.58 27.87-.66 1.64-.22 3.3-.47 4.92-.84 2.53-.56 4.98-1.37 7.2-2.69 3.65-2.16 6.57-4.91 6.72-9.14"/><path d="m142.328 453.941c6.66-.48 7.85-.58 13.49-1.36.55-.08 1.15-.17 1.8-.26 7.26-1.03 14.2-3.77 17.26-10.44"/><path d="m141.899 453.92c-.05.9-.53 1.78-1.05 2.55-2.58 3.84-7.16 8.84-12.26 6.21-1.27-.65-2.28-2.11-1.86-3.46.19-.59.61-1.07 1.04-1.52.45-.48.93-.94 1.41-1.39 1.69-1.56 3.55-2.93 5.55-4.07 1.21-.7 2.53-1.33 3.92-1.31 1.4.02 2.87.86 3.19 2.22.06.26.08.51.06.77z"/><path d="m112.81 454.34c-.28.33-.54.68-.77 1.04-.98 1.55-1.42 3.76-.18 5.12.63.7 1.58 1.03 2.5 1.25 3.56.85 6.92 1.11 14.51-5.77.36-.33.74-.68 1.12-1.04"/><path d="m113.54 453.539c-.25.24-.49.5-.7.77"/><path d="m129.99 454.94c.92-1.02 2.43-2.74 2.58-4.1s-.47-2.87-1.71-3.45c-.76-.35-1.64-.33-2.48-.25-4.32.38-8.54 1.86-12.15 4.25-.94.62-1.86 1.32-2.66 2.12"/><path d="m114.301 452.66c.85-1.11 1.72-2.24 2.15-3.57s.35-2.91-.55-3.97c-1.1-1.28-3.02-1.44-4.7-1.33-5.37.36-10.65 2.62-14.4197 6.46-1.08 1.1-2.06 2.48-2.51 3.93h-.01c-.33 1.08-.38 2.2.04 3.27.63 1.62 2.24 2.71 3.94 3.1 1.69.39 3.4697.17 5.1597-.21 2.57-.58 6-2.42 9.41-6l.03-.03c.23-.25.47-.5.7-.77l.03-.03c.24-.27.49-.56.73-.85"/><path d="m81.75 447.34c3.02 1.22 5.19 3.95 8.1 5.41 2.2 1.11 1.7 1.04 4.14 1.34"/><path d="m145.921 383.691c5.14-5.58 5.72-14.03 9.96-20.31 3.68-5.48 9.74-8.78 14.69-13.14 4.64-4.1 8.36-9.25 10.8-14.94-1.43.56-2.9 1.1-4.38 1.64-1.43.51-2.87 1.02-4.31 1.52-1.91.67-3.82 1.35-5.7 2.04-1.13.41-2.24.82-3.34 1.25-3.5 1.37-7.08 2.77-9.93 5.22-3 2.57-4.99 6.13-6.43 9.81-2.12 5.42-3.15 11.27-3.02 17.09.01 1.25.09 2.49.22 3.72"/><path d="m141.139 379.54c-2.54-3.65-7.05-5.24-10.72-7.75-9.28-6.35-12.93-18.42-21.31-25.91 3.84-.8 7.78-.44 11.49.82 11.57 3.95 20.73 18.94 23.75 30.92.05.18.1.36.14.54"/><path d="m143.911 373.881c-2.04-7.78-.69-18.59 2.56-25.94 3.01-6.82 7.33-12.87 13.62-16.68.39-.24.78-.47 1.19-.68.11-.07.22-.13.34-.19"/><path d="m123.371 328.08c4.58 3.22 13.29 6.91 17.65 39.42"/><path d="m141.489 363.549c.13-6.23-.43-23.68-.28-29.9.18-7.1.87-14.05 3.23-19.78.01-.03.02-.05.03-.08"/><path d="m61.7506 226.68c-2.97 1.56-5.59 3.64-7.66 6.07-.93 1.08-1.75 2.24-2.45 3.45 3.19-1.47 5.58-3.87 7.11-6.68-.03.17-.05.34-.06.5.84-.8 2-2.78 3.06-3.34z"/><path d="m63.0513 227.92c-2.64 1.36-4.9501 3.16-6.7901 5.25-.85.96-1.6 1.98-2.23 3.05 2.9001-1.3 5.0801-3.42 6.4701-5.9-.03.15-.0501.3-.0601.45.72-.67 1.7001-2.25 2.6101-2.85z"/><path d="m63.0508 227.92c.06-.04.12-.07.18-.1"/><path d="m88.39 220.649c1.13-.05 2.25-.15 3.37-.29-3.3-1.1-6.95-1.47-10.51-1.07"/><path d="m88.3905 220.649c-3.02-.8-6.28-.96-9.41-.45 3.09.47 6.26.62 9.41.45z"/><path d="m83.2812 222.2c1.4901.13 2.9801.19 4.4801.18.92-.01 2.2299-.57 1.7599-1.23-.15-.22-.4499-.31-.7199-.39-.14-.04-.27-.08-.41-.11"/><path d="m83.2808 222.201c1.21-.15 2.47-.37 3.89-.67-3.34-.39-6.74-.48-10.12-.27 2.04.45 4.12.77 6.23.94z"/><path d="m75.7188 222.439c2.91.1 5.1299.06 7.5599-.24"/><path d="m73.6602 238.93c3.87 1.6 7.77 3.11 11.71 4.53 1.01.37 2.05.74 2.88 1.43-1.94 1.4-3.8 2.91-5.56 4.52"/><path d="m82.4297 259.639c3.07.64 6.44-.57 8.41-3 .58-.72 1.04-1.53 1.5-2.34.57-1 1.15-2.01 1.72-3.01"/><path d="m55.2695 246.441c2.35-3.18 6.34-5.06 10.29-4.86"/><path d="m64.7284 242.33s-.07.1-.1.16c-.06.11-.11.22-.15.34-.17.51-.13 1.05-.1 1.59 0 .06.01.11.01.17.05.61.13 1.24.35 1.8.1.28.25.54.44.77"/><path d="m66.1083 241.82c-.17-.06-.35-.08-.53-.05-.34.05-.63.26-.84.54"/><path d="m67.3102 243.86c-.03-.46-.11-.92-.34-1.32-.19-.31-.48-.57-.81-.7"/><path d="m66.2812 247.771c.22 0 .4201-.07.5801-.23.19-.2.25-.49.3-.76.15-.86.2-1.73.17-2.6 0-.07-.01-.14-.01-.21"/><path d="m66.1284 248.08c.43-.12.8-.47.99-.88.27-.57.27-1.23.28-1.86 0-.45-.01-.92-.08-1.37 0-.04 0-.07 0-.11-.11-.76-.38-1.47-.98-1.91-.05-.04-.11-.08-.17-.11-.02-.01-.04-.01-.05-.02-.2-.12-.42-.18-.64-.14-.35.06-.58.31-.73.63 0 .01-.01.01-.01.02-.02.04-.04.09-.05.14-.12.29-.18.61-.21.91-.04.39-.07.8-.08 1.21 0 .75.08 1.49.41 2.1.13.27.32.51.56.72.13.11.28.2.45.27.15.06.31.09.46.09"/><path d="m64.5806 242.32c-.02.07-.04.13-.05.2-.45 1.66-.3 3.46.4 5.02.07.15.16.31.3.38.02.02.03.02.05.03.22.07.4-.07.53-.27.08-.12.13-.26.16-.4.3-1.28.04-2.69-.69-3.78-.16-.23-.47-.46-.66-.26-.13 1.05-.09 2.11.12 3.15 0 .1.03.2.06.3.04.21.1.43.16.64.06.2.14.42.27.59.03.04.06.08.1.11l.02.02c.2.19.55.25.75.06l.02-.02.01-.01c.07-.08.11-.2.14-.31h.01s.01-.07.02-.1c.18-.78.27-1.59.31-2.39.03-.74 0-1.52-.4-2.13-.32-.49-.98-.81-1.53-.68-.02 0-.04.01-.05.02-.04 0-.07.01-.1.03-.08.02-.15.06-.22.11-.46.33-.57.98-.56 1.55.01.95.23 1.89.63 2.75.22.45.52.9.95 1.1.09.04.18.07.28.09.17.03.35.02.51-.03"/><path d="m76.9609 234.57c2.35-3.18 6.35-5.06 10.29-4.86"/><path d="m86.4186 230.471s-.06.09-.09.14c-.07.11-.12.23-.16.35-.16.5-.13 1.05-.09 1.59 0 .06.01.11.01.17.05.61.13 1.24.35 1.8.1.28.25.54.44.77"/><path d="m88.9997 231.94c-.03-.45-.12-.89-.34-1.27-.17-.29-.44-.55-.75-.68-.2-.09-.42-.13-.64-.09-.34.05-.62.26-.84.54"/><path d="m86.9099 236.039s.06.08.1.11l.03.03c.21.19.56.25.76.06l.02-.02c.07-.08.12-.2.15-.32 0-.03 0-.07.02-.1.18-.78.28-1.59.31-2.39.03-.74.01-1.52-.4-2.13-.33-.51-.99-.82-1.54-.68-.01 0-.02.01-.03.01-.03.01-.07.02-.11.04-.07.02-.14.06-.21.11-.47.33-.57.98-.56 1.55.01.95.23 1.89.63 2.75.2.44.5.89.93 1.09.09.05.19.08.3.1.17.03.35.02.51-.03.43-.12.8-.48.99-.89.27-.57.28-1.23.28-1.86 0-.47-.01-.98-.08-1.46 0-.02 0-.04-.01-.07-.12-.74-.38-1.43-.97-1.87-.04-.03-.08-.05-.12-.08-.22-.14-.49-.22-.75-.18-.34.06-.58.31-.73.63 0 .01-.01.02-.01.03-.02.04-.04.08-.06.13-.1.29-.16.61-.19.91-.04.39-.07.8-.08 1.21-.01.76.08 1.5.41 2.12.14.26.32.5.55.7.13.11.29.2.45.27.16.06.32.09.47.09.22 0 .43-.07.58-.23.19-.2.26-.49.3-.76.15-.86.21-1.73.18-2.6 0-.1-.01-.2-.02-.3"/><path d="m86.2701 230.449c-.02.07-.04.13-.05.2-.45 1.66-.3 3.46.41 5.02.06.14.14.29.27.36v.01c.02.02.04.03.07.04.21.07.39-.07.52-.27.08-.12.14-.27.17-.4.29-1.28.04-2.69-.7-3.78-.15-.23-.47-.46-.66-.26-.12 1.04-.08 2.11.13 3.15.01.11.03.22.06.32.05.21.1.42.16.62s.13.4.24.57"/><path d="m88.4297 212.359s.04.05.06.08c3.77 4.82 8.69 16.19 11.5803 21.39.66 1.2 1.32 2.41 1.92 3.64.88 1.78 1.66 3.6 2.22 5.48 1.01 3.34 1.29 6.86.82 10.29-.46 3.46-1.7 6.83-3.72 9.83-1.4903 2.21-3.5003 4.4-6.0803 6.22-4.38 3.09-10.43 5.1-18.55 4.38"/><path d="m227.22 337.76c-.12 4.27-.36 8.37-.65 12.2-.61 7.96-1.42 14.72-1.76 19.37-.29 4.05-.75 8.09-1.39 12.11-1.8 11.62-4.98 23.03-9.43 33.93-3.13 7.67-6.89 15.1-11.25 22.15-.01 0-.01-.02-.01-.03-3.61-6.26-6.77-12.78-9.46-19.48-.29-.7-.57-1.41-.84-2.12-2.37-6.16-4.36-12.51-7.67-18.21-2.35-4.05-5.23-7.82-8.6-11.03-3.41-3.27-7.31-5.97-11.68-7.85 3.35-4.19 6.69-8.37 10.03-12.56 1.8-2.25 3.6-4.51 5.52-6.65.58-.65 1.17-1.29 1.78-1.92 3.29-3.42 6.97-6.43 10.52-9.57.84-.74 1.67-1.48 2.49-2.24.38-.34.75-.68 1.12-1.03 4.07-3.77 7.96-7.73 11.67-11.85"/><path d="m164.47 378.801c-.82 2.11-1.51 3.67-1.7 5.93"/><path d="m202.519 437.61c-.34.09-.68-.11-.98-.3-4.05-2.65-6.22-6.83-9.41-10.47"/><path d="m208.419 294.061c-2.49 6.95-2.81 8.69-4.07 14.22-.27 1.18-.58 2.52-.96 4.13-.75 3.16-1.55 6.31-2.35 9.45l-.81 3.18c-1.62 6.39-3.25 12.79-4.87 19.18"/><path d="m166.781 461.56c9.25 4.17 20.58 4.01 30.42.14 14.21-5.59 24.62-18.75 29.22-33.32.93-2.93 1.64-5.92 2.13-8.95 1.24-7.52 1.16-15.26-.27-22.75-1.01-5.26-2.67-10.36-4.86-15.24-3.78-8.41-9.12-16.17-15.39-22.96-2.8-3.04-8.7-9.67-12.15-11.93-.37-.24-.72-.47-1.07-.69-4.03-2.52-6.64-3.38-10.21-2.07-3.87 1.42-7.4 7.99-5.14 15.3"/><path d="m155.941 453.35c2.99 3.63 6.7 6.35 10.83 8.21"/><path d="m214.828 415.681c3.98 2.74 8.9 4.05 13.72 3.75 1.37-.1 2.72-.32 4.04-.67 5.99-1.59 11.21-5.9 13.89-11.49 1.75-3.62 2.44-7.66 2.84-11.66 1.55-15.39-1.04-31.09-7.09-45.34-2.08-4.9-4.57-9.63-7.45-14.11-.66-1.05-1.36-2.08-2.07-3.1-2.51-3.59-5.27-7.01-8.39-10.08-5.09-5-11.08-8.97-17.02-12.92-.94-.62-1.93-1.26-2.95-1.78-1.69-.87-3.48-1.44-5.33-1.15-3.77.58-6.22 4.8-5.78 8.58.45 3.79 3.13 7 6.28 9.15"/><path d="m232.172 303.049c.55-2.31.59-4.68.22-7.02-.71-4.71-3.02-9.32-6.04-13.08"/><path d="m232.17 303.051c-.09-.05-.18-.09-.27-.14-2.53-1.26-5.69-2.28-8.06-.74-1.83 1.2-2.54 3.67-2.1 5.81.25 1.23.93 2.48 2.11 2.92.82.32 1.76.18 2.59-.13 2.64-.99 4.4-3.55 5.31-6.22.17-.5.31-1 .42-1.5z"/><path d="m227.809 345.321c.11.08.22.15.33.22 4.6 3.09 9.69 4.56 14.09 4.73 3.54.14 6.64-.56 8.7-1.93 1.9-1.26 3.27-3.06 4.27-4.97 3.45-6.62 2.54-14.62-1.16-21.13-1.82-3.21-3.39-5.56-5.11-7.55-1.78-2.04-3.72-3.71-6.28-5.54-3.36-2.4-6.8-4.26-10.48-6.1"/><path d="m144.122 245.37c-1.53-7.86-7.73-14.5-15.31-17.77-7.59-3.28-14.93-3.34-19.21-2.24-.06.01-.12.02-.18.04"/><path d="m144.119 245.369c-6.08.85-11.8 3.79-15.37 8.61-1.47 1.98-2.58 4.28-2.72 6.71s.82 4.99 2.84 6.45c3.06 2.2 7.68 1.22 10.42-1.34s3.95-6.28 4.62-9.9c.62-3.34.87-6.79.29-10.14-.02-.13-.05-.26-.08-.39z"/><path d="m172.451 262.351c-2.78-6.66-7.93-12.37-14.71-15.28-4.24-1.81-9.03-2.36-13.62-1.7"/><path d="m172.452 262.35c-1.52.82-2.81 1.75-3.84 2.64-3.91 3.39-6.67 8.86-4.6 13.51.51 1.18 1.36 2.26 2.54 2.83 2.32 1.11 5.3-.17 6.71-2.27 1.42-2.1 1.59-4.75 1.43-7.25-.21-3.24-.98-6.45-2.24-9.46z"/><path d="m196.849 264.12c-10.48-6.29-18.95-4.72-24.4-1.77"/><path d="m105.41 381.561c3.45.6 7.45 2.79 10.38 7.93"/><path d="m105.412 381.56c-.59 3.18-1.73 6.21-3.48 8.89-.63.96-1.42 1.93-2.52 2.13-1.59.29-3.07-1.23-3.51-2.85-1.07-3.95 2.53-7.93 6.43-8.3.94-.09 1.98-.06 3.08.13z"/><path d="m98.0586 356.49c.54.33 1.05.71 1.52 1.14 1.9504 1.78 3.2104 4.24 4.1504 6.74 2.05 5.44 2.74 11.55 1.68 17.19"/><path d="m98.0594 356.49c-.16 3.21-1.32 6.4-3.63 8.46-1.2 1.06-2.93 1.8-4.37 1.07-.92-.47-1.51-1.46-1.81-2.48-.97-3.27 1.04-7.11 4.18-8.01 1.88-.53 3.91-.08 5.63.96z"/><path d="m84.2617 328.869c1.27.94 2.38 2.24 3.35 3.52 2.81 3.7 5.25 7.69 7.28 11.9 1.61 3.34 2.97 6.9 3.17 10.62.03.53.03 1.05 0 1.58"/><path d="m84.2594 328.87c-.4 1.47-.97 2.88-1.75 4.24-1.19 2.08-3.56 4.03-5.68 2.95-1.77-.89-2.16-3.5-1.33-5.33.96-2.11 3.25-3.45 5.5-3.21 1.2.12 2.28.64 3.26 1.35z"/><path d="m83.6016 303.27c0 .5.02 1.02.05 1.52.47 8.03 2.66 16.67.61 24.08"/><path d="m83.5994 303.269c2.69.46 5.44-.03 7.48-1.84.81-.73 1.51-1.69 1.61-2.81.19-2.08-1.93-3.91-3.94-3.77s-3.68 1.8-4.44 3.73c-.58 1.47-.73 3.08-.71 4.69z"/><path d="m69.5391 284.99c1.5 7.65 4.63 12.91 8.45 15.83 1.63 1.24 3.61 2.11 5.61 2.45"/><path d="m72.3514 412.64c4.5-4.51 4.96-7.88 5.77-10.06.2-.52.44-1.09.96-1.3.55-.22 1.16.07 1.68.37 2.39 1.37 4.71 2.87 6.94 4.49.61.44 1.25.96 1.45 1.69.11.44.05.89-.02 1.34-.54 3.81-1.08 7.62-1.63 11.43-1.3 8.96-2.57 17.04-5.75 26.74-.52 1.61-1.1 3.27-1.75 4.98-5.75-.86-11.25-3.24-15.8-6.84-.72-.57-1.44-1.2-1.75-2.05-.32-.84-.2-1.77-.08-2.65.07-.52.14-1.03.21-1.55.47-3.42.93-6.85 1.4-10.27"/><path d="m78.4281 401.3c-2.22-8.55-3.6-19.1-4.64-25.66-.83-5.3-1.86-10.33-3.22-15.6-1.84-7.13-4.2-13.25-12.49-21.22"/><path d="m61.8895 439.14c-3.62-2.41-7.57-4.41-10.7-7.43-5.89-5.68-8.05-14.13-9.5-22.19-1.5-8.3-1.72-12.68-1.7-16.9 0-2.78.12-5.49.04-9.21"/><path d="m68.5697 304.5c2.01 15.47 3.08 28.83-4.39 40.33"/><path d="m38.8997 393.899c-9.06-8.68-11.63-22.03-12.73-34.53-1.54-17.56-1.11-35.28 1.27-52.74 1.6-11.73 4.65-25.86 18.72-34.68"/><path d="m120.02 195.571c.76-2.8 1.45-4.06 2.3-7.12 1.54-5.51 2.65-11.22 5.22-16.34 1.08-2.13 2.39-4.13 3.54-6.21.68-1.25 1.31-2.53 1.78-3.88.63-1.81.92-3.83.72-5.74-.21-1.88-.91-3.65-2.25-4.98"/><path d="m102.449 237.25c2.94-4.64 5.26-8.47 7.15-11.89 3.56-6.45 5.6-11.4 7.46-17.44"/><path d="m133.85 156.25c1.91-.57 3.28-2.34 3.85-4.25.17-.57.28-1.18.09-1.74-.2-.64-.75-1.11-1.27-1.54-.36-.29-.71-.58-1.07-.87-3.91-3.21-7.82-6.41-11.73-9.61-.84-.7-1.69-1.39-2.53-2.08-.27-.23-.65-.47-.96-.3-.14.07-.24.2-.32.34-1.09 1.75-2.15 3.95-2.07 6.01-3.49 1.95-5.52 5.61-7.14 9.35-.31.71-.6 1.43-.89 2.14-.78 1.91-1.55 3.82-2.32 5.74h-.01l-2.55 6.3c-.9 2.2-1.8 4.45-1.95 6.83"/><path d="m107.249 159.34c-6.51 4.2-11.7698 10.38-15.0898 17.38-2.71 5.69-1.3 9.2-5.21 15.89"/><path d="m184.449 204.949s-.04-.04-.06-.05c-11.82-10.46-16.76-22.43-21.86-28.58-3.27-3.95-7.28-7.13-10.49-10.89-1.68-1.97-3.15-4.1-4.18-6.58.96-.58 1.95-1.19 2.97-1.84 4.38-2.76 9.17-6.1 13.4-9.83 4.06-3.56 7.6-7.47 9.78-11.56-.31 4.33-.61 8.76.55 12.94.34 1.22.99 2.48 1.88 3.78 5.19 7.67 18.5 16.9 25 29.33"/><path d="m144.49 134.6c-.65-2.83-1.3-5.67-1.95-8.5-.39-1.72-.83-3.52-1.52-5.16-.79-1.93-1.9-3.65-3.62-4.8-.85-.57-1.96-.97-2.9-.55-1.22.54-1.54 2.13-1.38 3.46.24 2.13 1.26 4.09 1.74 6.18.59 2.53.4 5.17.56 7.76.24 3.77 1.28 7.46 2.97 10.83 2.22 4.43 5.57 8.31 9.7 11.08.73.49 1.49.94 2.27 1.36"/><path d="m160.612 116.779c-1.67 2.47-3.01 7.03-3.01 8.27 0 .65.05 1.32.32 1.92s.79 1.11 1.43 1.22c.2.04.4.03.59-.01.73-.13 1.37-.7 1.86-1.3 1.88-2.26 2.92-5.21 2.88-8.15-.01-.83-.12-1.69-.54-2.41-1.12-1.92-2.4-1.21-3.53.46z"/><path d="m147.61 103.41c-.12 1.97.31 4.24.59 5.35.36 1.46 1.151 3.07 2.621 3.36 1.35.26 2.68-.79 3.2-2.07.07-.18.129-.36.179-.55.3-1.13.21-2.35.09-3.52-.21-2.15-1.65-7.04-4.89-5.98-1.22.4-1.69 1.81-1.79 3.41z"/><path d="m155.459 109.86c-.56 1.61-.86 3.37-.97 4.33-.17 1.5 0 3.28 1.28 4.07 1.17.72 2.79.2 3.72-.81.23-.25.43-.53.61-.82.52-.88.81-1.9 1.07-2.9.55-2.09.92-7.17-2.49-7.31-1.54-.06-2.56 1.58-3.22 3.44z"/><path d="m163.781 146.26c-1.29-.77-1.96-2.26-2.31-3.72-.32-1.33-.41-2.63-.38-3.93.04-3.48.86-6.89.1-10.46"/><path d="m141.229 120.85c2.19-4.25 4.06-9.57 4.82-14.29.17-1.04.3-2.12.31-3.18.02-1.37-.17-2.73-.72-3.9804-.24-.54-.56-1.07-1.07-1.38-1.06-.66-2.52-.05-3.28.94s-.98 2.2704-1.46 3.4204c-.02.04-.03.08-.05.12-.8 1.89-1.57 3.45-2.34 4.76-1.39 2.41-2.72 4.01-3.96 5.32-1.28 1.36-2.46 2.42-3.52 3.76-.73.94-1.4 2.02-1.99 3.45-.19.48-.37.96-.52 1.45-.49 1.54-.8 3.14-1.11 4.74-.77 3.95-1.53 7.91-2.3 11.87"/><path d="m135.91 147.291c.73-1.11 1.45-2.22 2.18-3.32"/><path d="m139.572 102.41c-2.27-1.6-6.79-3.2399-9.28-2.04-.49.24-.99.55-1.22 1.05-.27.57-.12 1.28.24 1.81.36.52.89.9 1.42 1.24.1.06.19.12.28.17 1.96 1.22 2.86 1.21 6.08 2.42"/><path d="m130.928 104.771c-1.5-.45-4.04-1.05-5.49-.45-.56.23-1.1.55-1.42 1.07-.47.78-.27 1.84.26 2.58.19.26.41.48.65.69.45.39.98.7 1.51.98 1.99 1.06 4.12 1.88 6.31 2.43"/><path d="m124.83 108.779c-.91.27-1.87.57-2.51 1.27-1.11 1.23.08 2.62 1.86 3.73 1.85 1.15 4.33 1.99 5.52 2.04"/><path d="m174.012 135.619c-4.49.3-8.63.87-12.59 3"/><path d="m36.5391 169.5c4.09 2.39 6.51 7.15 8.53 11.62 1.32 2.91 5.56 10.89 7.68 13.54"/><path d="m36.5418 169.5c-1.45 3.1-3.45 5.87-6.11 7.96-1.01.79-2.24 1.49-3.48 1.23-1.44-.31-2.36-1.86-2.52-3.38-.54-5.29 6.47-8.5 11.16-6.32.33.15.64.32.95.51z"/><path d="m42.3591 134.73c-.29 1.03-.52 2.09-.7 3.13-1.19 6.98-1 14.15-2.07 21.15-.55 3.59-1.5 7.23-3.05 10.49"/><path d="m42.3594 134.73c3.04 2.59 7.29 3.7 10.67 1.74 1.91-1.1 3.38-3.26 3.16-5.51-.39-4.01-5.88-5.59-9.18-3.44-2.43 1.58-3.82 4.3-4.65 7.21z"/><path d="m38.9495 90.6699c-.14 8.64-1.55 17.5501-1.85 26.1801-.18 5.23.14 10.75 2.89 15.14.64 1.02 1.45 1.95 2.37 2.74"/><path d="m38.9486 90.6708c-6.25-2.82-11.16-9.05-11.75-16.14-.17-1.96-.01-4.06 1.07-5.68 1.07-1.62 3.28-2.55 4.96-1.64 1.09.6 1.74 1.79 2.25 2.95 2.88 6.46 3.6 13.4 3.47 20.51z"/><path d="m75.0092 84.6309c-3.76-.69-7.92.28-11.56 1.77-5.16 2.11-10.09 5.17-15.6 5.78-3.05.33-6.11-.24-8.9-1.51"/><path d="m75.0105 84.6309c-.91 3.92-1.08 8-.34 12.04.28 1.51.83 3.2 2.2 3.7901.81.35 1.75.23 2.56-.09 5.19-2.0301 4.63-10.7901.01-13.9601-1.36-.94-2.86-1.51-4.43-1.78z"/><path d="m123.742 66.3395c-1.59-2.82-3.98-5.23-6.78-6.7-6.33-3.33-14.06-2.64-20.6703.03-5.39 2.18-10.24 5.86-14 10.44-3.5 4.23-6.06 9.24-7.28 14.52"/><path d="m123.738 66.3398c-1.14 1.75-2.18 3.5801-3.1 5.4601-.9 1.83-1.71 3.9199-1.19 5.8999.53 1.99 3.03 3.44 4.59 2.16.57-.47.89-1.18 1.13-1.9 1.3-3.86.57-8.08-1.43-11.62z"/><path d="m138.098 50.8496c-1.37 1.33-2.75 2.64-4.2 3.87-1.8 1.53-3.5 3.19-5.09 4.96-1.86 2.07-3.56 4.3-5.07 6.66"/><path d="m138.099 50.8504c-.65-.74-1.2-1.57-1.63-2.5-2.11-4.6.09-21.94 8.68-20.21 8.02 1.89.72 15.16-3.68 19.41-1.13 1.1-2.25 2.21-3.37 3.3z"/><path d="m176.312 69.4896c-1.74-3.38-4.78-6.28-8.13-7.99-1.21-.62-2.46-1.13-3.73-1.56-5.14-1.77-10.7-2.3-16.01-3.61-3.81-.93-7.81-2.54-10.34-5.48"/><path d="m176.312 69.4902c-2.73 1.35-4.95 3.44-6.14 6.42-.92 2.32-.73 5.58 1.48 6.61 2.42 1.12 5.06-1.45 5.8-4.09.85-3.05.29-6.16-1.14-8.94z"/><path d="m210.939 80.8305c-2.08-3.84-5.28-6.79-9.01-8.92-3.4-1.98-7.23-3.28-11.04-3.98-4.79-.88-10.31-.56-14.58 1.56"/><path d="m210.942 80.8301c-.38.24-.77.49-1.15.76-5.97 4.17-10.51 11.47-9.38 18.8399.17 1.09.53 2.27 1.43 2.88 1.04.69 2.43.37 3.56-.15 7.53-3.4799 9.63-14.5199 5.71-22.0299-.05-.1-.11-.2-.17-.3z"/><path d="m226.681 74.8105c-5.49 1.39-10.96 3.0001-15.74 6.0201"/><path d="m226.68 74.8103c.2-5.59 2.11-11.1 6.09-14.79 1.4-1.29 3.16-2.38 5.03-2.25 4.24.29 5.72 6.72 3.26 10.31s-6.94 4.89-11.08 5.91c-1.1.27-2.2.54-3.3.82z"/><path d="m241.77 126.571c.81-1.56 1.38-3.23 1.65-5.02 1.16-7.7-3.58-14.84-7.71-21.35-3.9-6.1405-7.51-12.6905-8.69-19.9305-.29-1.79-.41-3.62-.34-5.46"/><path d="m241.769 126.569c-2.81-2.26-6.38-3.5-9.92-3.31-5.36.29-10.43 3.86-12.68 8.91-.67 1.49-1.1 3.24-.54 4.78 1.44 3.95 7.1 3.02 10.71 1.04 4.94-2.7 9.86-6.46 12.43-11.42z"/><path d="m244.58 155.07c2.61-8.3 5.11-16.84.8-24.34-.93-1.62-2.17-3.03-3.61-4.16"/><path d="m110.202 151.34c-2.63-2.18-4.51-5.27-5.84-8.54-2.97-7.3-3.36-15.61-1.89-23.4.81-4.25 2.28-8.39 4.7-11.86 1.43-2.05 3.46-4.27 5.93-6.45 3.52-3.1105 7.95-6.1205 12.79-8.3505 3.95-1.82 8.75-3.03 13.54-3.64 5.95-.76 11.89-.58 16.15.54.57.15 1.11.32 1.62.5 5.49 2 12.13 6.26 17.07 10.5705 2.6 2.27 4.73 4.55 5.99 6.53 4.72 7.43 6.4 17.19 4.92 26.04-.83 4.91-2.61 13.7-8.61 18.97"/><path d="m103.208 140.539c-12.0497 7.85-23.7197 16.28-34.9697 25.26"/><path d="m137.94 194.981c-.05-8.8.66-17.6 2.11-26.27"/><path d="m131.969 166.09c2.51 1.24 5.48 1.92 8.46 1.94 3.34.02 7.57-1.05 10.75-1.82"/><path d="m211.428 149.839c-7.33-2.82-14.63-5.7-21.93-8.57-1.75-.69-3.51-1.38-5.26-2.07"/><path d="m227.499 116.441c-13.87-.7-27.82.04-41.53 2.21"/><path d="m176.102 100.669c9-9.2299 17.62-18.8199 25.83-28.7599 4.49-5.41 8.85-10.93 13.08-16.54"/><path d="m155.789 88.8794c1.5-5.34 2.48-5.53 3.98-10.86 1.69-6 3.38-12 4.68-18.08.35-1.6.67-3.21.96-4.83"/><path d="m139.371 88.66c-4.3-9.35-7.84-19.05-10.56-28.98-.79-2.87-1.51-5.77-2.17-8.68"/><path d="m112.77 100.719c-5.06-5.4298-22.1495-21.5198-30.4795-30.6098-1.52-1.66-2.75-3.08-3.56-4.16"/><path d="m101.781 119.85c-12.5304-.14-32.1204-3.35-44.6404-2.69"/><path d="m147.859 158.851.13-3.8"/><path d="m102.922 39.2907c1.48-.97 3.15-1.71 4.93-2.13 5.97-1.41 12.81.8 16.35 5.29"/><path d="m102.919 39.2891s.05.06.07.09c3.08 3.81 2.88 9.92-1.53 12.52-1.03.6-2.4102.98-3.4902.44-1.24-.63-1.45-2.12-1.33-3.38.39-3.82 2.81-7.39 6.2802-9.67z"/><path d="m75.1797 39.6493c3.49-2.83 7.74-4.94 12.39-5.55 5.7-.74 11.96 1.07 15.3503 5.19"/><path d="m75.1785 39.6504c.48.45.93.92 1.35 1.41 1.93 2.2 3.47 4.93 3.01 7.69-.45 2.76-3.61 5.25-6.63 4.46-2.48-.65-3.82-3.21-3.55-5.48.28-2.27 1.81-4.27 3.51-5.98.72-.73 1.5-1.43 2.31-2.1z"/><path d="m42.7188 47.6099c1.8999-2.58 4.0899-4.99 6.5399-7.19 3.38-3.02 7.5101-5.73 12.3001-6.13 5.13-.41 10.0799 1.98 13.6199 5.36"/><path d="m42.7206 47.6094c1.37.92 2.55 2.04 3.49 3.31 1.27 1.75 2.1 3.89 1.55 5.91s-2.81 3.74-5.12 3.38c-2.21-.35-3.65-2.43-3.72-4.41-.06-1.98.93-3.86 2.03-5.59.56-.88 1.15-1.75 1.77-2.6z"/><path d="m22.3984 49.0392c3.14-2.96 7.86-4.54 12.42-4.18 2.86.23 5.62 1.21 7.9 2.75"/><path d="m257.771 72.7695c-3.37 3.18-5.81 7.36-6.9 11.87-.99 4.07-.83 8.6 1.36 12.17 2.2 3.5705 6.73 5.8505 10.74 4.6005"/><path d="m257.77 72.7691c1.64 2 3.74 3.64 6.27 3.75 3.2.14 6.3-3.78 4.35-6.33-1.79-2.35-5.57-1.3-7.99.41-.93.65-1.81 1.38-2.63 2.17z"/><path d="m251.18 46.6191c-1.23 8.44.61 17.36 5.35 24.48.38.57.79 1.13 1.24 1.67"/><path d="m251.18 46.6203c5.09-1.51 9.7-4.65 12.82-8.95.55-.76 1.07-1.59 1.19-2.52.33-2.72-3.14-4.67-5.75-3.84s-4.29 3.36-5.45 5.84c-1.4 3-2.34 6.2-2.81 9.47z"/><path d="m232.148 46.2296c3.19-.1 6.33.91 9.52 1.27 3.19.37 6.44.05 9.51-.88"/><path d="m232.152 46.2305c.8 3.73-1.55 8.11-5.32 8.7-.46.08-.96.09-1.39-.1-.83-.37-1.18-1.38-1.18-2.29-.01-3.46 3.65-5.94 7.1-6.26.26-.03.53-.04.79-.05z"/><path d="m205.078 43.1297c2.18-1.19 4.46-2.21 6.81-3.05 3.71-1.32 7.72-2.18 11.58-1.42 3.87.75 7.54 3.41 8.59 7.21l.09.36"/><path d="m205.082 43.1309c.47 1.56.53 3.22.11 4.79-1.02 3.77-5.57 8.79-8.67 6.59-2.45-1.79 2.16-7.41 5.49-9.56 1-.65 2.02-1.25 3.07-1.82z"/><path d="m181.891 41.6206c.91-.54 1.83-1.04 2.74-1.51 5.13-2.63 11.4-5.12 16.4-2.24 1.97 1.13 3.4 3.08 4.05 5.26"/><path d="m181.889 41.6191c1.94 4.53-.43 10.71-5.21 11.94-.64.16-1.39.22-1.89-.2-.48-.4-.58-1.1-.56-1.73.1-4.42 3.71-7.62 7.66-10.01z"/><path d="m156.781 43.7598c2.87-4.17 7.13-7.61 12.13-8.44 4.99-.84 10.63 1.41 12.83 5.97l.15.33"/><path d="m146.84 472.451c5.67-5.51 12.05-8.31 19.93-10.89h.01"/><path d="m146.838 472.449c2.6 1.21 4.77 3.81 4.57 6.67-.2 2.89-3.58 5.34-6.12 3.97-1.82-.99-2.47-3.42-1.96-5.43.52-2 1.93-3.65 3.4-5.1z"/><path d="m99.8281 474.12c5.8799-1.15 11.8199-1.96 17.7899-2.45 6.87-.55 13.77-.66 20.67-.58 2.89.03 5.87.12 8.49 1.33l.06.03"/><path d="m99.8295 474.119c.9905 1.84 1.0305 4.3-.43 5.77-1.6 1.6-5.02.87-5.28-1.38-.28-2.47 2.77-3.82 5.21-4.3.17-.03.33-.07.5-.09z"/><path d="m62.9102 465.82c10.08-3.74 21.57-1 31.24 3.77 2.04 1 4.1 2.16 5.38 4.03.11.16.21.33.3.5"/><path d="m62.9119 465.82c.63 1.85.8 3.84.3 5.72-.81 3.07-3.62 5.65-6.8 5.66-1.42 0-3.04-.72-3.32-2.12-.18-.9.26-1.8.75-2.57 1.97-3.04 5.13-5.15 8.49-6.48.19-.08.38-.15.58-.21z"/><path d="m41.8203 456.121c7.1-1.19 15.19.61 19.39 6.43.72.99 1.3 2.1 1.7 3.27"/><path d="m41.8191 456.119c-2.83 7.3-8.41 13.8-14.06 19.46-1.06 1.06-2.28 2.18-3.78 2.26-2.15.12-3.86-2.12-3.9-4.27s1.13-4.13 2.45-5.84c4.58-5.96 11.41-10.14 18.8-11.53.16-.03.32-.06.49-.08z"/><path d="m33.5312 430.789c2.2001.56 4.2601 1.77 5.8301 3.41 3 3.15 4.33 7.62 4.37 11.96.03 3.47-.68 6.79-1.91 9.96"/><path d="m33.5302 430.789c-2.38 8.49-6.97 15.88-11.32 10.71-1.52-4.08 1.18-8.98 5.26-10.49 1.95-.72 4.06-.74 6.06-.22z"/><path d="m31.5195 409.141c.2.2.4.41.58.63 1.86 2.23 2.61 5.17 2.95 8.06.41 3.42-.23 8.35-1.52 12.96"/><path d="m31.5195 409.14c-3.44 4.75-7.16 7.69-9.64 5.13-1.79-2.28-.27-6.05 2.46-7.06 2.45-.9 5.28.08 7.18 1.93z"/><path d="m39.5695 392.619c-.11.44-.25.89-.4 1.36-1.45 4.62-4.42 10.69-7.65 15.16"/><path d="m244.57 465.869c1.01.77 2.08 1.46 3.16 2.11 5.41 3.24 11.31 5.66 17.44 7.12"/><path d="m244.568 465.87c.89-.6 1.75-1.24 2.59-1.92 6.36-5.19 10.86-12.78 11.74-20.94.28-2.67.17-5.47-.99-7.89-1.16-2.43-3.53-4.4-6.22-4.48-3.41-.11-6.19 2.64-8.2 5.4-5.41 7.4-8.45 18.03-3.21 25.56 1.16 1.67 2.65 3.06 4.29 4.27z"/><path d="m196.5 462.619c6.72 7.8 17.76 10.81 28.02 10.02 7.11-.55 14.15-2.78 20.05-6.77"/><path d="m135.441 211.451c-6.06.42-12.22-1.07-17.57-3.56"/><path d="m135.44 211.45c-1.38-2.39-1.88-5.1-.58-7.45 1.83-3.3 8.3-4.41 10.48-1.27 1.29 1.86.53 4.37-1.26 5.92-1.78 1.55-4.36 2.29-6.9 2.63-.58.08-1.16.13-1.74.17z"/><path d="m164.351 220.939c-12.7 5.04-21.56-1.15-26.92-6.82-.76-.81-1.45-1.72-1.99-2.67"/><path d="m124.149 113.84s-6.67 4.21 3.28 7.39"/><path d="m147.279 378.131c-.11.22-.21.44-.3.66s-.18.45-.26.68c-.1.31-.19.63-.26.95-.04.15-.07.3-.1.45.06-.02.11-.04.17-.06.08-.03.17-.06.25-.09"/><path d="m147.319 378.05c-.24.66-.44 1.33-.61 2.02-.06.25-.12.49-.18.74-.06.27-.11.53-.17.79 1.09-1.64 1.92-3.45 2.43-5.36.05-.17.09-.33.13-.5-.63.69-1.17 1.47-1.6 2.31z"/><path d="m149.172 375.159c.04-.1.07-.2.1-.3-.88.87-1.47 1.95-1.92 3.11"/><path d="m149.169 375.17c-.72.86-1.33 1.8-1.82 2.8-.01.02-.03.05-.03.08 0 .02-.03.05-.04.08-.11.22-.21.44-.3.66-.1.22-.19.45-.26.68-.14.36-.26.72-.36 1.09.04-.05.07-.09.1-.14.09-.11.18-.23.25-.35.85-1.19 1.55-2.48 2.08-3.83.14-.35.27-.71.38-1.07z"/><path d="m149.172 375.17v-.01"/><path d="m149.592 375.11c.09-.17-.25-.15-.37-.01-.02.02-.03.04-.05.06"/><path d="m145.519 371.77c.02-.16.04-.31.05-.47.16-1.63.33-3.27.5-4.9-.69 1.47-.91 3.16-.63 4.76"/><path d="m147.19 367.329c.07-.54.09-1.09.08-1.63-1.15 1.6-1.47 3.63-1.7 5.6"/><path d="m147.189 367.34c-.91 1.31-1.48 2.85-1.67 4.43-.05.39-.07.79-.07 1.19.17-.31.34-.63.48-.96.54-1.16.92-2.4 1.13-3.66.06-.33.11-.66.13-1z"/><path d="m147.191 367.34v-.01"/><path d="m146.859 372.281c.72-1.68 1.17-3.47 1.31-5.29.01-.09.01-.19-.04-.27-.15-.22-.48-.02-.64.19-.11.14-.21.28-.3.42"/><path d="m147.482 368.34c-.85 1.7-1.32 3.59-1.38 5.49-.01.04-.01.08-.01.12.25-.46.47-.93.66-1.41.03-.06.05-.12.08-.18.01-.03.02-.05.03-.08.62-1.61.96-3.32 1-5.05-.31.35-.57.72-.8 1.11-.64 1.1-.99 2.37-1.13 3.66-.08.74-.1 1.5-.06 2.24.08-.13.16-.27.23-.41.24-.42.45-.85.65-1.29"/><path d="m153.23 361.14c.22-.71.41-1.43.57-2.15-.72.93-1.32 1.95-1.79 3.03-.09.19-.18.39-.25.59-.21.51-.38 1.03-.53 1.56.65-.72 1.06-1.64 1.15-2.6-.15.13-.27.28-.37.45-.12.18-.21.38-.25.59-.07.21-.09.43-.08.65"/><path d="m153.23 361.141c-.86 1.28-1.44 2.74-1.71 4.26.69-1.37 1.26-2.79 1.71-4.26z"/><path d="m153.72 362.579c.2-.54.35-1.11.45-1.68.05-.3.07-.64-.12-.86-.3.35-.57.72-.82 1.1"/><path d="m153.72 362.58c-.96.83-1.67 1.95-1.99 3.19.87-.92 1.55-2.01 1.99-3.19z"/><path d="m153.309 363.84c-.77 1.2-1.27 2.57-1.45 3.99 1.38-1.94 2.52-4.05 3.38-6.26-.55.26-1.07.6-1.52 1.01"/><path d="m150.31 355.99c-.33.35-.62.73-.87 1.14-.44.71-.74 1.51-.89 2.33-.06.3-.1.6-.11.91 1.71-2.29 2.74-5.09 2.9-7.95-.39.61-.74 1.24-1.08 1.89-1.03 2.01-1.8 4.17-2.28 6.38.2-.41.39-.82.57-1.23.33-.77.63-1.54.89-2.33.33-.93.6-1.87.82-2.82.15-.61.28-1.22.39-1.84-1.2 1.86-2.12 3.9-2.73 6.03-.05.19.04.5.21.4"/><path d="m162.572 354.141c-.48.34-.95.7-1.4 1.07 1-.12 1.95-.64 2.59-1.41"/><path d="m162.57 354.141c1.88-.7 3.62-1.85 5.27-3.01-1.86.81-3.63 1.82-5.27 3.01z"/><path d="m160.639 354.601s-.07.05-.1.08c.7-.11 1.37-.3 2.03-.54"/><path d="m160.641 354.601c1.89-.81 3.63-2.07 5.3-3.3-1.9.84-3.7 1.95-5.3 3.3z"/><path d="m163.642 350.721c-1.77.82-3.38 1.98-4.7 3.41-.18.18-.34.36-.49.55-.21.24-.41.49-.6.75.97-.15 1.9-.44 2.79-.83"/><path d="m162.328 352.56c1.08-.7 2.09-1.5 2.93-2.48-.53.17-1.06.38-1.57.62"/><path d="m161.309 353.201c.27-.17.54-.33.8-.49"/><path d="m160.408 351.471c-1.65.32-3.11 1.46-3.83 2.98.37 0 .73-.03 1.1-.07.42-.05.84-.13 1.26-.25.8-.2 1.57-.5 2.3-.89.03-.02.05-.03.07-.04.28-.15.54-.31.8-.49.08-.04.15-.09.22-.15.86-.6 1.63-1.34 2.25-2.18-.3.1-.6.2-.89.32-.01 0-.03.01-.05.02-2.19.84-4.22 2.07-5.96 3.66-.15.11-.29.24-.43.38.4.1.81.05 1.2-.08.45-.13.89-.36 1.3-.59.5-.28 1-.56 1.49-.85"/><path d="m140.98 372.43c-.68-.66-1.37-1.33-2.05-2 .26.4.55.78.87 1.13.37.42.77.8 1.2 1.15"/><path d="m141.881 375.36c-1.45-1.57-2.9-3.13-4.35-4.69.76 1.6 1.81 3.05 3.1 4.26.49.46 1.13.92 1.79.78.28-.54.16-1.14-.13-1.69-.14-.3-.35-.58-.56-.83l-.3-.33c-.1-.09-.21-.19-.31-.29l-.14-.14c-.37-.32-.76-.62-1.18-.87-.48-.31-1-.57-1.53-.77.94 1.49 2.34 2.69 3.96 3.39.04-.05.06-.1.06-.16.04-.2-.14-.45-.3-.61-.19-.18-.37-.36-.56-.55"/><path d="m129.1 367.92h-.09c-.15 0-.3 0-.45.02-.08 0-.16 0-.24.01"/><path d="m129.879 368.3c-.29-.13-.58-.25-.87-.38-.34-.14-.69-.28-1.04-.41.19.15.38.3.59.43.92.64 1.96 1.1 3.05 1.35.24.06.51.1.74.02.24-.08.43-.34.36-.58-.07-.23-.33-.33-.56-.39-.99-.28-2.01-.42-3.04-.42"/><path d="m129.898 368.311c.61.3 1.22.59 1.83.89-.6-.31-1.21-.61-1.83-.89z"/><path d="m129.899 368.311s-.02 0-.02-.01"/><path d="m129.109 367.92c.26.13.51.25.77.38"/><path d="m129.112 367.92h-.01"/><path d="m135.51 367.629c-1.37-.81-2.95-1.25-4.55-1.27.08.14.17.27.26.4.03.04.06.08.1.12.12.16.26.31.42.44.67.6 1.54.97 2.44 1-.78-.84-1.84-1.29-2.96-1.56-.74-.18-1.51-.28-2.25-.37.22.1.45.2.68.28.68.27 1.38.49 2.09.65.38.09.76.16 1.14.21-.48-.32-1.01-.52-1.56-.65-.54-.13-1.1-.19-1.67-.21-.55-.02-1.11-.01-1.65 0-.29.01-.65.06-.77.33.62.3 1.25.61 1.87.91"/><path d="m135.398 362.369c.17.05.34.08.51.1"/><path d="m136.189 362.299c-.08-.65-.43-1.25-.92-1.68-.02-.03-.04-.04-.06-.06-.52-.43-1.18-.68-1.85-.61.02.18.06.37.12.54.01.03.02.06.04.09.3.84 1.02 1.52 1.87 1.78"/><path d="m135.87 361.481c-.2-.28-.4-.57-.6-.86-.02-.04-.05-.08-.08-.12.01.02.01.04.02.06.13.44.32.87.54 1.27.13.25.28.5.45.73.2.28.42.55.66.8-.18-.38-.4-.73-.67-1.05-.14-.18-.28-.34-.44-.48-.63-.63-1.42-1.1-2.27-1.34-.02-.01-.03-.02-.05-.02.03.04.05.07.09.11.51.7 1.15 1.3 1.87 1.78 0 .01.01.01.01.01.25.16.52.31.79.45.01-.09.01-.17.01-.26 0-.08 0-.17-.01-.25"/><path d="m125.359 358.791c.01.25.15.49.3.71.56.85 1.12 1.69 1.68 2.54l-2.85-3.24c-.18-.2-.46-.42-.69-.28-.23.15-.15.49-.03.74.5 1.06 1.18 2.04 2 2.88.01-.19-.04-.37-.13-.53"/><path d="m128.408 358.88c-1.06-.43-2.11-.86-3.17-1.29.04.07.08.13.12.19.24.4.52.78.83 1.13.85 1.01 1.94 1.84 3.15 2.39.06.04.13.07.2.1.22-.47-.11-1-.46-1.38-.92-.99-2.08-1.75-3.36-2.2-.11-.04-.25-.07-.36-.04-.04.01-.09.03-.12.06-.11.11-.09.3-.05.45s.09.3.16.45c0 .02.01.03.01.05.66 1.57 2.24 2.74 3.94 2.85.05-.11.06-.23.04-.34-.04-.37-.36-.73-.68-.97-.76-.58-1.59-1.06-2.47-1.42-.27-.11-.55-.21-.83-.3-.01.04-.01.09-.01.13"/><path d="m225.08 199.241-.06-.09c-3.89-6.44-9.14-8.74-14.07-10.55-1.33-.49-2.96-.82-4.74-1.01-4.88-.54-10.89-.1-14.71.67 2.26-1.54 6.53-4.25 10.12-6.12 1.4-.73 2.7-1.34 3.72-1.7 3.53-1.24 7.47-2.04 11.07-.99 2.27.67 4.22 2.02 6.02 3.45 2.62 2.09 4.68 3.95 6.44 5.93 2.26 2.55 4.01 5.33 5.74 9.1"/><path d="m240.16 199.569c7.83-3.65 11.82-13.48 11.82-18.34v-11.28l-7.44 8.25"/><path d="m229.172 188.561c8.22-13.21 1.16-13.4 5.24-21.84 1.37-2.84 6.84-9.4 9.14-10.46.42-.19.85-.37 1.28-.52 2.51-.92 5.14-1.18 7.78-.79-1.38 1.99-2.76 3.97-4.15 5.95-.97 1.4-5.5 6.58-5.67 10.06-.1 2.1.83 4.5 1.42 7.31 1.12 5.22 1.08 11.82-8.91 20.34"/><path d="m249.202 261.891c5.57 4.81 10.84 9.96 15.77 15.42.67.74 1.38 1.66 1.14 2.63-.19.77-.92 1.27-1.59 1.69-5.28 3.26-9.86 5.68-15.28 8.7-3.1 1.72-7.04 4.15-10.48 5-2.1.52-4.23.71-6.37.7-6.32-.04-12.76-1.87-19.17-2.26-1.58-.09-3.19-.04-4.81.12-4.73.47-9.54 1.91-13.81 3.62.44-2.27.57-5.47 1.73-7.47 1.43-2.43 3.78-4.16 6.13-5.72 2.56-1.69 5.19-3.28 7.89-4.74"/><path d="m194.601 297.51c-.89-3.57-2.33-6.99-3.34-10.53-1.02-3.54-1.59-7.33-.71-10.91.47-1.93 2.69-7.05 6.41-11.87 2.03-2.63 4.51-5.18 7.4-7.05"/><path d="m228.609 187.01c-.54-5.74-1.97-11.67-5.98-16.1-4-4.43-7.03-6.13-11.52-5.35"/><path d="m209.901 162.66c-2.02-3.96-6.5-2.33-7.98.1-1.7 2.81-.27 6.92 2.66 8.42 2.91 1.49 6.48-.74 6.43-4v-.05c-.04-1.54-.58-3.02-1.11-4.47z"/><path d="m223.99 172.42c-2.71-5.3-.52-9.91 2.55-11.82"/><path d="m225.618 157.22c-.04 1.92 1.03 3.89 2.77 4.71 1.74.83 4.07.32 5.14-1.29 1.08-1.6.13-3.56-1.2-4.96-1.42-1.5-6.79-3.95-6.71 1.54z"/><path d="m111.859 328.569c-.23.85-.33 1.74-.28 2.63.13 2.35 1.28 4.63 3.1 6.13-1.47-2.45-.61-6.01 1.8-7.53 1-.63 2.17-.92 3.31-1.2 3.52-.88 2.76-.73 2.53-3.88-.14-1.99.34-4.01 1.54-5.63 1.88-2.53 5.32-3.8 8.39-3.1-3.1-1.56-6.85-2.31-10.03-.92-1.42.62-2.62 1.78-3.36 3.15-.93 1.68-1.16 3.69-.25 5.38-1.45-.9-3.4-.05-4.6 1.17-1.03 1.05-1.77 2.38-2.15 3.8z"/><path d="m161.781 330.821c3.96 1.46 5.51-2.54 7.91-1.12 1.31.77 2.13 2.2 2.5 3.68.36 1.47.33 3.01.3 4.53"/><path d="m161.201 330.88c.02-.07.04-.13.05-.2.01-.03.02-.07.03-.1.27-1.27-.03-2.65-.83-3.68-.85-1.11-2.26-1.77-3.66-1.73-2.23.07-4.04 1.75-6.1 2.62 1.08-2.24 2.84-4.14 4.98-5.39 1.53-.89 3.34-1.45 5.06-1.2.27.03.55.09.81.17 1.96.59 4.76 2.41 4.35 4.41 2.36-.97 4.29-.83 6.52.45 1.41.81 2.75 1.87 3.64 3.19.44.66.78 1.39.96 2.18.41 1.8.16 3.13-.16 4.95"/><path d="m140.32 302.69c-1.58-.25-3.22-.12-4.82.02 2.2 2.93 1.7 6.88 9.16 10.52 0 0 2.69-.32 4.97-3.01 1.51-1.8 4.66-.68 6.89-1.4 2.75-.88 5.09-2.7 7.36-4.49-1.94.29-3.91.22-5.87.15-1.19-.05-2.38-.1-3.56-.08-3.14.04-6.49.69-8.75 2.88-.21-2.07-2.04-3.67-4.02-4.29-.45-.14-.9-.24-1.36-.3z"/><path d="m109.619 314.531c-.05-.06-.11-.11-.18-.13-.22-.06-.45.04-.65.15-.98.54-1.84 1.32-2.47 2.25-.25.38-.48.81-.44 1.26.03.45.43.9.88.84-.71.46-1.43.93-1.93 1.6-.51.68-.77 1.6-.45 2.38.33.78 1.36 1.25 2.08.8-.9.91-1.52 2.09-1.78 3.34-.04.22-.07.44.01.65.29.75 1.43.31 2.03-.24-.39.42-.8.87-.95 1.42-.16.56.02 1.26.55 1.49.33.15.71.1 1.06.02 1.24-.27 3.27-1.15 4.34-1.83"/><path d="m109.621 314.529c0 .12.01.26.01.39.11-.1.08-.27-.01-.39z"/><path d="m118.641 318.101c-1.19-2.62.81-5.51 1.14-8.37.15-1.28-.28-2.86-1.52-3.19-1.23-.31-2.35.81-2.94 1.93-.56 1.05-.92 2.2-1.08 3.38.14-1.02-.94-1.92-1.96-1.84-1.03.08-1.87.92-2.26 1.87-.34.83-.4 1.74-.4 2.65"/><path d="m144.25 293.791c.03-.07.05-.13.07-.2.42-1.29 1.09-2.5 1.93-3.54.22-.28.5-.56.86-.56.73 0 .84 1.05.7 1.77.23-1.17.78-2.62 1.97-2.63.73-.01 1.34.61 1.57 1.3s.17 1.44.1 2.16c.51-.76 1.56-1.59 2.19-.93.24.26.29.64.31.98.06 1 .09 1.99.08 2.99.79-.49 1.88-.6 2.64-.05.76.54.93 1.82.21 2.41.57-.53 1.56-.53 2.13 0 .58.53.67 1.51.19 2.13.39-.63 1.49-.25 1.7.46.2.72-.19 1.46-.64 2.05-.62.83-1.38 1.56-2.24 2.15"/><path d="m140.358 302.451c-1.79-1.4-2.32-4.07-2.38-6.34-.02-.78.15-1.68.81-2.09 1.14-.69 2.45.54 3.21 1.63-.11-.72-.09-1.46.08-2.17.08-.33.2-.67.45-.91.35-.34.96-.39 1.36-.1.34.24.51.7.43 1.11"/><path d="m162.711 321.179c.54-2.56 3.01-8.56 4.68-5.99.37.67.49 1.48.32 2.22 1.15-1.9 3.56-6.55 5.14-4.04.16.52.09 1.1-.18 1.56 1.01-1.39 2.44-2.46 4.05-3.04.45-.16 1.06-.22 1.3.19.12.2.09.45.06.69-.11.76-.29 1.51-.54 2.23.68-.98 2.43-.2 2.67.98.23 1.18-.46 2.33-1.13 3.33 1.12-.49 2.63.06 3.04 1.21.42 1.15-.53 2.61-1.75 2.56.6.35 1.31.45 1.97.67.65.22 1.32.64 1.5 1.31s-.46 1.51-1.11 1.27c.5.52.94 1.18.87 1.89-.08.71-.94 1.33-1.54.93.29.67-.48 1.38-1.2 1.39-.72 0-1.37-.4-2.04-.68-.67-.27-2.25-.95-2.77-.44"/><path d="m115.352 318.52c.22 1.27.54 2.53.97 3.75.02-.43.03-.86.03-1.29 0-.88-.05-1.76-.15-2.63-.03-.35-.08-.69-.13-1.03-.3 1.21-.19 2.51.28 3.66.14.36.32.7.53 1.02.25-1.41.1-2.9-.43-4.23-.11.18-.19.38-.25.58-.13.4-.16.83-.09 1.25"/><path d="m111.979 321.14c.02-.07-.02-.13-.09-.16-.01-.01-.02-.01-.03-.01-.06-.02-.13-.01-.17.04 0 0-.004.007-.01.02-.1.1-.08.26-.06.4.1.51.29 1.01.55 1.46.01-.14.01-.28 0-.43-.01-.51-.11-1.02-.31-1.49-.23-.56-.57-1.08-1.01-1.49-.76 1.52-.22 3.57 1.19 4.52.03-.09.05-.18.07-.26.1-.42.12-.86.06-1.28-.06-.51-.23-1-.49-1.43-.13-.22-.28-.42-.46-.6-.34 1.15.02 2.48.89 3.31.09.09.18.17.28.24.19-.55.24-1.16.15-1.74-.11-.76-.44-1.5-.96-2.06.09.27.2.54.31.8.18.43.4.86.65 1.26.2.36.43.71.68 1.04"/><path d="m110.811 327.541c-.39.24-.68.63-.82 1.06 1.01-.54 1.69-1.65 1.71-2.8-.88.42-1.63 1.09-2.15 1.91.56-.16 1.04-.58 1.27-1.11v.94z"/><path d="m152.841 303.02c.09-.07.18-.14.25-.23.2-.22.33-.48.39-.77-.6.59-1.19 1.17-1.79 1.75"/><path d="m155.01 302.161c-.47.52-.95 1.04-1.43 1.56.99-.24 1.73-1.24 1.68-2.26-.79.3-1.54.75-2.17 1.33"/><path d="m147.31 300.58c.04-.84-.05-1.69-.28-2.5-.08-.34-.2-.67-.33-.99-.4.37-.67.81-.86 1.3-.45 1.15-.42 2.55-.35 3.83"/><path d="m147.31 300.59c-.51 1.17-.86 2.42-1.04 3.69.11-.2.22-.41.31-.62.16-.35.29-.71.4-1.08.19-.64.3-1.31.33-1.99"/><path d="m147.309 300.59v-.01"/><path d="m146.19 299.81c-.06-.49-.18-.96-.35-1.42-.04-.14-.1-.27-.15-.4-1.46 1.97-1.68 4.78-.55 6.96.16.32.43.66.78.64.31-.02.52-.3.68-.56l.03-.06c.68-1.08 1.23-2.22 1.65-3.41.22-.56.39-1.14.53-1.72.22-.84.38-1.7.47-2.57-.7.88-1.29 1.84-1.75 2.85-.08.15-.15.3-.22.46"/><path d="m146.191 299.811c-.32 1.44-.49 2.92-.5 4.4.58-1.38.75-2.93.5-4.4z"/><path d="m146.911 303.09c.12-.33.22-.66.3-1 .17-.65.27-1.31.32-1.97.03-.49.04-.99.01-1.48-.01-.18-.03-.38-.16-.5-.11-.1-.23-.11-.35-.06-.26.09-.51.45-.6.77s-.17.64-.24.96"/><path d="m146.9 303.1c-.14.24-.26.48-.37.74-.21.49-.37 1.01-.46 1.54.2-.12.38-.26.56-.41.42-.32.8-.69 1.14-1.11 1.01-1.26 1.59-2.88 1.56-4.51-.18.16-.35.32-.52.49-.64.66-1.19 1.42-1.6 2.25-.09.16-.17.32-.23.49-.16.35-.29.71-.4 1.08-.02.06-.03.12-.05.18-.04.15-.08.3-.11.45.19-.39.35-.78.48-1.19"/><path d="m146.898 303.1.01-.01"/><path d="m147.52 304.28c.09-.13.17-.27.25-.42.37-.71.55-1.51.51-2.3.01-.05 0-.09 0-.14-.54.48-1.01 1.05-1.37 1.67"/><path d="m166.391 324.089s.11.08.18.09c.27.05.49-.22.63-.45.38-.62.75-1.24 1.13-1.86l-1.08 2.52"/><path d="m166.392 324.09c.18-.74.26-1.51.25-2.27-.33.5-.5 1.12-.46 1.72.01.2.08.42.21.55z"/><path d="m165.962 322.83c-.09-.19-.18-.39-.26-.59-.16.98-.02 2 .37 2.91.13-.35.24-.7.32-1.06"/><path d="m172.589 322.77c-.05.09-.1.18-.14.27.35.05.72-.04 1.02-.23"/><path d="m172.59 322.77c.17-.03.33-.14.47-.26.61-.53 1.11-1.19 1.45-1.92-.81.55-1.47 1.31-1.92 2.18z"/><path d="m173.602 320.739c-.65.42-1.16 1.04-1.46 1.75.48-1.22.81-2.49.99-3.79-.71.84-1.15 1.9-1.25 3-.04.45.09 1.03.54 1.08.06.01.12 0 .17-.01"/><path d="m176.34 325.409c.14-.12.28-.24.41-.38-.26-.11-.6-.02-.77.21"/><path d="m176.338 325.41c-.53.27-1.07.53-1.6.79.58-.14 1.13-.42 1.6-.79z"/><path d="m177.782 327.09c-.86.05-1.64.69-1.86 1.51 1.1-.57 2.03-1.47 2.64-2.56l-2.07.78c.12-.55.24-1.11.36-1.66-.17.08-.34.17-.51.25"/><path d="m107.402 334.721c-.19.76-.59 1.45-1.14 2"/><path d="m102.931 332.949c-.48.58-1.11 1.04-1.81 1.32"/><path d="m100.222 329.131c-.4801.26-1.0101.42-1.5501.48"/><path d="m99.3186 324.69c-.67-.11-1.37-.05-2.01.18"/><path d="m99.54 319.53c-.6.11-1.23.04-1.79-.19"/><path d="m100.652 315.081c-.6901-.37-1.4501-.61-2.2301-.7"/><path d="m102.26 311.419-1.83-1.05"/><path d="m104.709 307.67c-.36-.66-.83-1.26-1.4-1.75"/><path d="m107.771 304.81c-.54-.43-.86-1.12-.84-1.81"/><path d="m111.321 302.56-.63-1.8"/><path d="m115.16 301.871c0-.74 0-1.49 0-2.23"/><path d="m119.392 299.859c-.16.66-.31 1.33-.47 2"/><path d="m123.492 300.82c-.35.46-.71.92-1.07 1.38"/><path d="m126.32 303.75c-.52.31-1.03.61-1.55.92"/><path d="m127.829 307.25c-.6-.06-1.22.02-1.79.22"/><path d="m127.981 310.61c-.64-.09-1.1-.09-1.93 0"/><path d="m165.339 298.049c-.63.01-1.39 0-1.8-.01"/><path d="m162.569 287.98c-.51.32-1.02.63-1.53.95"/><path d="m159.832 285.57c-.44.36-.88.73-1.32 1.09"/><path d="m156.631 283.471c-.36.45-.73.9-1.1 1.35"/><path d="m152.77 283.859c-.01-.67.08-1.35.27-2"/><path d="m149.05 283.11c.08-.68 0-1.37-.23-2.01"/><path d="m145.721 283.27c-.15-.65-.29-1.3-.44-1.95"/><path d="m139.611 285.98c-.62-.27-1.16-.7-1.58-1.23"/><path d="m137.349 288.331c-.59-.12-1.16-.39-1.63-.77"/><path d="m135.469 291.071c-.55-.25-1.16-.37-1.77-.35"/><path d="m166.762 310.74v-2.24"/><path d="m170.1 309.18c-.25-.64-.31-1.34-.2-2.02"/><path d="m173.91 307.38v-1.79"/><path d="m177.481 306.931c-.06-.63.11-1.27.45-1.79"/><path d="m181.258 306.02c-.11.54-.42 1.04-.86 1.37"/><path d="m184.42 308.051c-.53.37-1.05.73-1.58 1.1"/><path d="m186.429 311.18c-.46.12-.91.24-1.37.37"/><path d="m188.67 314.551-1.35.42"/><path d="m189.561 318.49c-.59.08-1.19.15-1.78.23"/><path d="m190.53 322.691c-.67.08-1.37 0-2.01-.23"/><path d="m190.249 326.83-1.8-.42"/><path d="m188.459 330.939c-.68-.08-1.33-.37-1.83-.82"/><path d="m132.028 327.931c-2.57-1.71-6.82-1.82-9.29.02.78-3.75 4.98-6.41 8.71-5.5"/><path d="m123.039 337.199c-1.73-2.6-1.9-6.16-.41-8.91"/><path d="m148.54 318.28c.35-1.86-2.07-3.77-4.1-4.41-.26-.08-.52-.14-.77-.18-2.46-.36-5.07 1.15-5.99 3.46"/><path d="m166.048 337.92c.09-2.87-2.38-5.68-5.19-6.27 1.13 2.38 1.09 5.29-.12 7.63"/><path d="m153.98 330.18c1.85-1.4 4.85-.86 6.11 1.08.05.05.08.1.11.15"/><path d="m142.829 283.971c-.2-.7-.41-1.4-.61-2.09"/><path d="m162.699 291.681c.44-.15.89-.3 1.33-.46"/><path d="m163.828 294.761c.47 0 .93-.02 1.4-.04"/><path d="m132.59 294.34c.5 0 .99 0 1.49-.01"/><path d="m132.75 298.63c.59-.15 1.19-.3 1.78-.46"/><path d="m105.181 253.26c5.02 6.56 8.92 14.76 9.78 22.98-6.15-.26-12.22-2.23-17.3499-5.63-.77-.51-1.52-.28-1.55-1.2-.67 5.33-2.31 12.11-5.72 16.26-.28.34-.57.67-.96.86-.45.22-.97.22-1.47.21-4.9-.09-10.49-1.6-14.04-4.98"/><path d="m226.609 349.96c.34-1.55.87-3.02 1.53-4.42 1.61-3.41 4.03-6.44 6.64-9.38 2.73-3.09 5.66-6.08 8.06-9.35 2.7-3.66 4.75-7.78 6.09-12.12 2.47-7.86 2.65-16.45.31-24.36"/><path d="m261.179 219.801c-2.86-2.25-7.29-3.76-9.16-2.94-2.67 1.18-8.07 14.72-7.71 16.71.41 2.26 5 6.28 5.31 8.56.17 1.23-2.58 5.59-5.13 9.32h-.01s-9.26 13.2-11.53 13.61c-2.26.42-7.51-2.68-9.79-2.36-.88.12-3.5 1.99-6.21 4.29-3.48 2.96-7.08 6.64-7.24 8.27-.09.95.47 2.26 1.4 3.59 1.93 2.76 5.43 5.62 8.02 5.55 1.95-.05 4.45-.41 7.21-1.48 2.67-1.04 5.58-2.74 8.49-5.49 4.05-3.82 10.26-11.32 13.74-15.63 1.59-1.96 2.61-3.26 2.61-3.26 3.27-4.35 7.92-12.41 10.78-18.5 3.43-7.34 2.81-13.41 1.7-17.1-.33-1.1-1.26-2.18-2.48-3.14z"/><path d="m31.0392 217.25c1.38-.37 2.63-.44 3.42-.1 2.67 1.17 8.11 14.7 7.76 16.69-.41 2.26-4.99 6.29-5.29 8.57-.17 1.24 2.59 5.58 5.16 9.31h.01s9.29 13.17 11.56 13.58c2.26.42 7.5-2.7 9.78-2.38 1.74.23 10.35 7.26 12.82 11.03.39.59.63 1.1.67 1.49.15 1.56-1.47 4.13-3.6 6.15-1.8 1.7-3.96 3.02-5.72 3.02h-.08c-3.85-.09-9.81-1.38-15.72-6.93-1.6-1.51-3.55-3.59-5.53-5.83-5.3-5.97-10.87-13.02-10.87-13.02-3.27-4.34-7.95-12.39-10.82-18.47-3.46-7.33-2.85-13.41-1.75-17.09.78-2.6 4.89-5.14 8.2-6.02z"/><path d="m216.888 266.24c-.23.03-.47.04-.71.04-4.51 0-10.16-5.19-11.82-9.13-3.56 1.45-8.17-.35-9.69-3.78-.41-.93-.69-2.03-1.59-2.55-.54-.31-1.2-.35-1.81-.52-1.85-.55-2.99-2.45-3.17-4.31-.18-1.85.39-3.69.96-5.48-1.76-1.76-2.16-4.49-1.64-6.89.49-2.29 1.7-4.37 2.92-6.39l.18-.3c-1.53-2.24-1.29-5.28-.11-7.71 1.6-3.28 1.46-2.71 5.14-6.31-.05-1.65.51-3.22 1.46-4.56 2.11-3.01 6.19-4.85 9.86-3.79 1.8-3.5 6.33-5.25 10.22-4.42 1.01.21 1.97.6 2.83 1.17 1.13-1.75 3.07-2.36 5.1-2.16 2.2.2 4.5 1.35 6.02 3.04 1.34-1.66 2.82-2.5 4.35-2.82 1.54-.32 3.15-.1 4.72.36 3.42 1 6.69 3.16 8.91 3.37 1.05-1.84.57-3.59 1.72-6.37.83-1.99 3.34-3.64 5.55-3.34.35-3.88.47-8.18 3.39-10.88 1.7-1.56 4.17-2.82 6.32-1.92 1.69.71 2.59 2.59 2.57 4.36s-.79 3.44-1.65 5.01c1.49.91 2.84 1.98 2.63 3.67-.49 3.83-2.39 4.31-4.32 5.03 1.79 1.72 2.63 5.05-.3 6.61 0 0 3.87 2.58 1.04 5.03 0 0 2.83 5.6-1.93 5.88 0 0 2.08 2.88-1.79 3.6"/><path d="m255.102 212.69c.83.33 1.91-.15 2.44-.93.6-.91 2.04-3.63.73-6.66"/><path d="m255.099 212.69c-.11-.09-.24-.16-.38-.21.12.09.24.16.38.21z"/><path d="m254.289 216.479c.55-.59 1.12-1.21 1.32-2 .16-.64-.02-1.4-.51-1.79"/><path d="m210.82 239.24c1.27-.72 1.49-2.63.67-3.83s-2.38-1.73-3.84-1.64c-.67.04-1.34.19-1.91.56-1.62 1.07-1.61 3.77-.13 5.03 1.49 1.25 3.81 1.23 5.21-.12z"/><path d="m224.95 243.891c-2.55 2.69-5.65 4.98-9.23 5.93s-7.68.39-10.49-2.03"/><path d="m222.07 230.42c.05.1.13.18.24.22.31.11.61-.19.78-.47.26-.44.44-.92.53-1.42.08-.38.11-.77.08-1.15"/><path d="m232.53 227.84c-2.36-2.61-6.48-3.44-9.66-1.94-1.13.53-1.55 2.38-1.41 3.62.04.34.16.72.48.86.04.02.08.03.12.04.45.09.88-.42 1.13-.86.15-.26.31-.53.42-.81.11-.29.18-.59.15-.9-.05-.61-.65-1.21-1.23-1.01-.49.95-.7 2.04-.6 3.11.01.16.05.33.12.47"/><path d="m204.461 228.98c.01.42.15.78.49 1.02.01 0 .03.02.05.03.14.08.32.13.46.05.12-.07.18-.21.23-.33.38-1 .52-2.1.39-3.16"/><path d="m205.96 227.161c-.09-.18-.22-.3-.42-.32-.35-.02-.59.35-.74.68-.08.17-.15.36-.19.55-.05.13-.09.27-.1.41-.02.08-.03.16-.03.24"/><path d="m213.442 226.78c-2.38-1.93-5.95-2.24-8.64-.75-.39.79-.44 1.62-.29 2.45-.01.01-.01.02 0 .03.08.5.24 1 .44 1.49 1.02-.72 1.23-1.71 1.01-2.83-.05-.28-.13-.57-.23-.86-.84.17-.97.93-1.12 1.76-.03.15-.06.29-.1.44 0 .02 0 .05-.01.07 0 .04-.02.09-.02.14 0 .07-.02.16-.02.26 0 .33.06.73.21.85.15.13.24.19.33.2.16.02.27-.13.52-.4.4-.42.48-1.04.54-1.62.03-.27 0-.6-.1-.84"/><path d="m206.16 187.551s.03.03.05.04c4.24 3.63 8.61 7.43 10.89 12.52"/><path d="m165.262 220.689c-.18.24-.33.45-.45.64-.54.81-.61 1.17-.76 1.94-.15.78 0 2.16.49 2.78.65.82 1.81.61 2.37.57 2.62-.2 4.4-1.87 6.27-3.72-1.05 1.21-.41 3.3 1 4.06 1.4.77 3.2.43 4.55-.43 1.34-.86 2.33-2.16 3.3-3.44 1.06 2.43 3.89 4.7 7.92 3.9"/><path d="m196.701 208.12c-1.22-3.16-5.32-1.38-8.05.62-.33-2.08-2.52-3.42-4.64-3.42-.2 0-.39.02-.59.04-2.28.28-4.21 1.8-5.77 3.49-.59-.73-2.3-1.21-3.23-1.1-2.49.31-6.09 1.12-6.48 5.63"/><path d="m190.768 217.709c.33-.01-2.86.88-3.37-1.3-.85 1.09-2.41 1.59-3.74 1.19-1.33-.39-1.87-1.01-3.03-2.49-.78 1.8-3.44 2.84-5.23 2.03"/><path d="m257.98 205.149c2.15-1.01 3.01-4.06 1.71-6.04"/><path d="m251.781 203.221c-.8.01-3.33-.44-3.98 1.08-.42.97-.73 1.99-.82 3.04-.44-.66-1.36-.85-2.13-.67-.78.19-1.43.68-2.07 1.15"/><path d="m234.811 219.271c-.2-.61-.46-1.2-.79-1.75-.18-.32-.4-.64-.72-.81-.72-.39-1.59.09-2.4.11.09-.67-.04-1.47-.62-1.81-.42-.25-.96-.18-1.39.05-.43.22-.76.58-1.09.94-.27-.08-.18-.48-.26-.75-.14-.48-.82-.49-1.28-.33-.71.25-1.37.66-1.89 1.19"/><path d="m214.45 217.169c-.64-.65-.84-1.84-1.73-2.04-.42-.09-.85.1-1.24.28l-1.5.69c.04-.38.06-.81-.23-1.06-.35-.3-.91-.1-1.22.24s-.48.79-.79 1.13c-.02-.39-.41-.68-.79-.71s-.76.14-1.07.35c-.65.43-1.16 1.06-1.45 1.77"/><path d="m165.259 220.689c-6.34-7.8 2.68-7.31 2.68-7.31"/><path d="m72.3398 211.419c7.77-4.66 11.63-.5 16.15 1.02 1.31.44 2.68.66 4.22.37 2.36-.44 4.74-.89 7.15-.89 2.6502 0 5.3002.53 7.9402.23 3.43-.4 6.44-2.15 9.22-4.28 1.25-.96 2.46-1.99 3.63-3.01l8.1-7.02c-2.95-.58-5.9-1.15-8.84-1.73l-11.19-2.19c-3.51-.69-7.03-1.38-10.6001-1.38-4.5701 0-8.1401.12-11.1101.5-5.38.68-8.82 2.17-12.66 5.22"/><path d="m30.9102 216.8c2.25-12.26 13.11-18.71 21.91-21.95 1.84-.68 3.59-1.22 5.15-1.64 2.1-.57 4.3-.82 6.33-1.58 1.94-.73 3.67-1.89 5.37-3.04 3.6-2.41 7.19-4.83 10.78-7.25-.75 5.82-2.94 11.63-6.18 16.87-3.15 5.15-7.33 9.74-12.13 13.28-5.18 3.82-14.21-1.02-17.95 5.71"/></g></svg>