<svg width="60" height="194" viewBox="0 0 60 194" fill="none" xmlns="http://www.w3.org/2000/svg">
<g clip-path="url(#clip0_4068_12379)">
<mask id="mask0_4068_12379" style="mask-type:alpha" maskUnits="userSpaceOnUse" x="0" y="0" width="60" height="194">
<path d="M0 0H60V194H0V0Z" fill="#D9D9D9"/>
</mask>
<g mask="url(#mask0_4068_12379)">
<path d="M58.8998 18.2992V21.9992H58.6998C57.0998 21.9992 55.6998 22.6992 54.5998 23.9992C53.4998 25.2992 52.4998 27.4992 51.4998 30.5992C50.5998 33.5992 49.6998 37.6992 48.6998 43.0992L34.6998 121.499H27.0998L6.1998 21.9992H1.2998V18.1992H29.1998V21.9992H24.3998L37.2998 84.8992L44.5998 42.9992C45.7998 36.1992 46.2998 31.5992 46.2998 29.1992C46.2998 26.8992 45.7998 25.0992 44.8998 23.8992C43.9998 22.5992 42.3998 21.9992 40.0998 21.9992H38.9998V18.1992H58.8998V18.2992Z" fill="white"/>
</g>
</g>
<defs>
<clipPath id="clip0_4068_12379">
<rect width="60" height="194" fill="white"/>
</clipPath>
</defs>
</svg>
