<svg width="69" height="194" viewBox="0 0 69 194" fill="none" xmlns="http://www.w3.org/2000/svg">
<g clip-path="url(#clip0_4068_12454)">
<mask id="mask0_4068_12454" style="mask-type:alpha" maskUnits="userSpaceOnUse" x="0" y="0" width="69" height="194">
<path d="M0 0H69V194H0V0Z" fill="#D9D9D9"/>
</mask>
<g mask="url(#mask0_4068_12454)">
<path d="M6.1 123.099C8.9 120.499 10.9 117.799 12.2 114.999C13.6 112.199 14.4 109.499 14.7 106.899C15.1 104.299 15.3 101.099 15.3 97.2992C15.3 95.6992 15.3 94.1992 15.2 92.8992C15.1 91.3992 15 90.0992 14.9 88.9992C14.5 84.3992 14.3 80.9992 14.3 78.9992C14.3 75.7992 14.8 72.7992 15.7 70.1992C16.6 67.5992 18 64.5992 19.9 61.2992C21.6 57.9992 22.8 55.1992 23.7 52.9992C24.5 50.7992 25 48.2992 25 45.5992C25 41.5992 25.7 38.1992 27.1 35.4992C28.6 32.5992 30.5 30.0992 32.9 27.8992L32 27.2992C29.2 29.4992 26.2 30.5992 23.1 30.5992C21.6 30.5992 18.9 30.2992 15 29.5992C12.9 29.0992 11.1 28.8992 9.8 28.8992C8.3 28.8992 6.9 29.2992 5.6 29.9992C4.3 30.6992 3.3 31.7992 2.5 33.0992L1 32.4992C3.4 28.5992 5.8 25.5992 8.1 23.2992C10.4 20.9992 13.3 19.7992 16.7 19.7992C18.6 19.7992 20.9 20.3992 23.7 21.5992C24 21.6992 24.9 21.9992 26.3 22.5992C27.9 23.1992 29.5 23.3992 31 23.3992C34.1 23.3992 37.2 22.7992 40.3 21.4992C42.7 20.4992 44.8 19.9992 46.6 19.9992C47.6 19.9992 48.6 20.0992 49.7 20.3992C50.8 20.6992 51.8 20.9992 52.8 21.3992C55 22.3992 57.2 22.8992 59.3 22.8992C62.5 22.8992 65 21.7992 66.8 19.6992L68.1 20.4992C68.1 20.4992 67.1 21.7992 65.2 24.2992C63.3 26.8992 61.6 28.8992 60 30.2992C58.5 31.5992 56.5 32.1992 54 32.1992C52.9 32.1992 51.9 32.0992 51.1 31.7992C50.4 31.4992 49.5 31.0992 48.5 30.4992C47.5 29.8992 46.6 29.4992 45.7 29.1992C45 28.9992 44 28.8992 42.8 28.8992C40.4 28.8992 38.5 29.7992 37.1 31.4992C35.8 33.2992 35.2 35.6992 35.2 38.8992C35.2 43.4992 34.7 47.4992 33.8 50.6992C32.9 53.8992 31.5 57.6992 29.6 61.9992C28 65.4992 26.8 68.5992 26 71.2992C25.2 73.8992 24.7 76.8992 24.7 80.2992C24.7 81.6992 24.7 83.0992 24.8 84.5992C25 85.9992 25.1 86.9992 25.1 87.6992C25.5 90.9992 25.7 93.9992 25.7 96.5992C25.7 100.499 25.4 104.099 24.9 107.399C24.3 110.599 23 113.499 21 115.899C20 117.099 18.9 117.999 17.7 118.699C16.6 119.299 15.1 119.999 13.1 120.799C12.8 120.899 12 121.199 10.6 121.799C9.3 122.399 8 123.099 6.8 123.999L6.1 123.099Z" fill="white"/>
</g>
</g>
<defs>
<clipPath id="clip0_4068_12454">
<rect width="69" height="194" fill="white"/>
</clipPath>
</defs>
</svg>
