<svg width="63" height="194" viewBox="0 0 63 194" fill="none" xmlns="http://www.w3.org/2000/svg">
<g clip-path="url(#clip0_4068_12364)">
<mask id="mask0_4068_12364" style="mask-type:alpha" maskUnits="userSpaceOnUse" x="0" y="0" width="63" height="194">
<path d="M0 0H63V194H0V0Z" fill="#D9D9D9"/>
</mask>
<g mask="url(#mask0_4068_12364)">
<path d="M61.5 116.999V120.799H40.6C39.5 113.299 37.5 101.599 34.6 85.6992C33.8 81.1992 33 77.9992 32.3 76.0992C31.7 74.0992 30.8 72.7992 29.8 72.0992C28.8 71.3992 27.4 71.0992 25.4 71.0992H24.1V117.099H29.5V120.899H1.5V116.999H6.9V21.9992H1.5V18.1992H30.8C38.9 18.1992 44.8 20.4992 48.7 24.9992C52.6 29.4992 54.5 35.5992 54.5 43.1992C54.5 49.1992 53.2 54.1992 50.5 58.3992C47.9 62.4992 44.3 65.2992 39.7 66.7992V66.9992C43.1 68.2992 45.8 70.8992 47.6 74.6992C49.5 78.4992 51.1 83.7992 52.5 90.5992L58.1 116.799H61.5V116.999ZM36.5 43.9992C36.5 38.0992 36.2 33.5992 35.6 30.5992C35 27.4992 34 25.2992 32.6 23.9992C31.2 22.6992 29.2 22.0992 26.6 22.0992H24V67.1992H27.1C29.5 67.1992 31.4 66.5992 32.7 65.3992C34 64.0992 35 61.8992 35.6 58.7992C36.2 55.6992 36.5 51.0992 36.5 45.2992V43.9992Z" fill="white"/>
</g>
</g>
<defs>
<clipPath id="clip0_4068_12364">
<rect width="63" height="194" fill="white"/>
</clipPath>
</defs>
</svg>
