<svg width="73" height="194" viewBox="0 0 73 194" fill="none" xmlns="http://www.w3.org/2000/svg">
<g clip-path="url(#clip0_4068_12269)">
<mask id="mask0_4068_12269" style="mask-type:alpha" maskUnits="userSpaceOnUse" x="0" y="0" width="73" height="194">
<path d="M0 0H73V194H0V0Z" fill="#D9D9D9"/>
</mask>
<g mask="url(#mask0_4068_12269)">
<path d="M33.2 54.3983C24.8 54.3983 6.4 57.4983 6.4 68.2983C6.4 79.8983 14 86.7983 14 97.6983C14 107.298 4 114.298 4 118.098C4 121.298 6.2 121.098 8.6 121.098C12.9 121.098 28.7 118.698 39.5 118.698C49.9 118.698 61.4 120.898 65.6 120.898C67.8 120.898 68.6 119.098 68.6 117.898C68.6 114.498 59.4 104.398 59.4 95.4983C59.4 84.6983 72.4 70.2983 72.4 53.2983C72.4 31.2983 56.3 17.1983 25.4 17.1983C5.9 16.9983 1 21.1983 1 25.7983C1 29.3983 2.4 33.8983 2.4 39.7983C2.4 41.9983 2.4 44.0983 2.3 46.2983C2.3 48.1983 2.7 49.0983 4.1 49.0983C8.2 49.0983 17.2 39.6983 30.2 39.6983C45.9 39.6983 61.5 49.3983 61.5 71.8983C61.5 92.3983 53.9 105.898 35.8 105.798C24.3 105.898 15.1 102.198 15.1 93.2983C15.1 77.2983 36 61.4983 36 56.7983C36 55.2983 34.8 54.3983 33.2 54.3983V54.3983Z" fill="white"/>
</g>
</g>
<defs>
<clipPath id="clip0_4068_12269">
<rect width="73" height="194" fill="white"/>
</clipPath>
</defs>
</svg>
