<svg width="105" height="194" viewBox="0 0 105 194" fill="none" xmlns="http://www.w3.org/2000/svg">
<g clip-path="url(#clip0_4068_12229)">
<mask id="mask0_4068_12229" style="mask-type:alpha" maskUnits="userSpaceOnUse" x="0" y="0" width="105" height="194">
<path d="M0 0H105V194H0V0Z" fill="#D9D9D9"/>
</mask>
<g mask="url(#mask0_4068_12229)">
<path d="M1 121.102C3.6 120.302 5.6 119.502 7.2 118.602C8.9 117.602 10.2 116.402 11 114.902C12 113.402 12.6 111.602 12.9 109.402C13.3 107.202 13.5 104.402 13.5 100.902V38.9016C13.5 35.5016 13.3 32.8016 12.9 30.6016C12.6 28.3016 12 26.4016 11 25.0016C10.1 23.5016 8.8 22.3016 7.2 21.4016C5.6 20.4016 3.6 19.5016 1 18.7016H26V121.002H1V121.102ZM44.2 121.102C51.6 120.302 58 118.402 63.6 115.302C69.2 112.202 73.8 108.402 77.5 103.702C81.2 99.1016 84.1 93.8016 85.9 87.8016C87.8 81.8016 88.7 75.4016 88.7 68.8016C88.7 62.6016 87.8 56.6016 86 51.0016C84.2 45.3016 81.5 40.2016 77.9 35.7016C74.4 31.2016 69.9 27.4016 64.5 24.4016C59.1 21.4016 52.7 19.5016 45.4 18.6016H46.7C54.4 18.6016 61.6 19.6016 68.4 21.7016C75.2 23.8016 81.2 26.9016 86.3 31.0016C91.4 35.2016 95.5 40.3016 98.4 46.6016C101.5 52.7016 103 59.9016 103 68.1016C103 76.5016 101.6 84.0016 98.7 90.6016C95.8 97.1016 91.9 102.702 86.7 107.202C81.7 111.602 75.6 115.102 68.5 117.402C61.4 119.702 53.6 120.802 45.1 120.802H44.2V121.102Z" fill="white"/>
</g>
</g>
<defs>
<clipPath id="clip0_4068_12229">
<rect width="105" height="194" fill="white"/>
</clipPath>
</defs>
</svg>
