<svg fill="none" height="512" viewBox="0 0 289 512" width="289" xmlns="http://www.w3.org/2000/svg"><path d="m257.78 206.35c-.09.16-.18.32-.26.48-.05.07-.09.13-.12.2.1-.01.2-.04.3-.06.05.04.1.08.16.12-.01-.05-.01-.1-.02-.15-.02-.2-.04-.39-.06-.59zm-.99-78.91c.95.13 1.92.15 2.88.06 2.4-.24 5.2-1.97 4.68-4.32-.52-2.37-4.21-2.63-5.87-.86-1.27 1.35-1.65 3.23-1.69 5.12zm-27.82 167.41c-.01-.15-.03-.28-.11-.4-.32-.45-1.07-.17-1.47.24-.05.03-.1.06-.14.1-.53.46-.67 1.18-.72 1.86v.03c-.03.41.05.93.47 1.06.34.11.7-.13.95-.38.61-.64.98-1.48 1.02-2.34zm5.77-39.43c.23-.16 3.84-2.8 5.35-3.93.72 2.01 1.37 6.81 1.37 6.81.44-1.33 2.36-6.6 2.36-6.6s4.1 2.12 5.9 2.73c-.86-2.63-2.42-4.5-3.91-6.83 1.93.23 4.26-.67 6.08-1.34-1.51-.54-5.33-2.02-5.24-2.55.04-.18 2.27-3.69 3.43-5.24l-5.95 2.82c-.98-2.76-1.71-4.47-3.32-6.92-.03 2.51-.06 5.02-.1 7.54-2.61-1.01-5.17-2.16-7.66-3.45 1.01 2.24 2.55 4.25 4.46 5.8-1.97 1.56-3.94 3.12-5.9 4.68 1.98-.16 4.06-.24 5.9-.24-.96 2.29-2.67 6.46-2.77 6.72zm-15.69-74.53c.08-.07.15-.13.22-.2 3.64-3.37 8.99-14.39 3.94-13.2-5.1 2.61-4.84 7.84-4.32 12.32.04.36.1.72.16 1.08zm.76 3.33c-2.84 3.06-4.67 7.08-3.82 11.08 1.28 3.98 4.59-3.78 4.52-6.75-.03-1.46-.34-2.9-.7-4.33zm-20.41-61.53c4.68-2.99 9.83-5.08 15.17-6.64 4.91-1.44 9.99-2.42 15.03-3.25.63-.1 1.25-.2 1.88-.3 7.62-1.2 15.29-2.09 22.99-2.67-3.76-3.54-8.58-9.35-21.34-7.03l-.41-.04c.63-6.6.55-13.7.76-20.65.07-2.32-.05-4.61-.21-6.91l.21-.02c5.75-5.31 5.87-8.78 5.15-13.8-.16-1.17-.44-2.32-.48-3.51-.1-3.04 1.32-5.99 1.83-9.02.03-.19.05-.4-.04-.56-.11-.18-.35-.26-.56-.3-1.6-.31-3.35.23-4.67 1.24-1.33 1.01-2.87 2.7-3.48 4.21l-.12.02c-.2-1.08-.41-2.15-.62-3.22-.69-3.53 1.26-8.58-.49-11.7-2.67-4.76-8.01-7.83-12.68-11.45-2.17 3.26-1.89 7.77.66 10.51 1.02 1.1 2.37 1.94 3.17 3.21 1.97 3.14-.9 8.09-.25 11.79-1.33-4.31-2.92-8.81-5.11-12.18-2.2-3.4-4.35-6.84-6.7-10.15-6.16 4.48-3.1 8.9-.81 11.89.79 1.03-.29 5.39 1.22 9.01-2.67-5.63-6.17-12.14-10.65-15.69-2.79 3.03-3.43 7.01.2 11.89.61.81 1.68 1.9 2.04 2.85.66 1.72.47 3.98 1.34 5.59l-.03-.03c-2.9-3.68-6.86-8.25-10.01-9.34-3.17 5.85.23 9.34 2.89 13.18 2.04 2.97 4.45 5.94 4.09 9.94-.43 4.88-1.89 10.34-.82 15.08.64 2.81 1.35 7.26 2.46 10.24 2.02 5.43 4.78 10.24 8.52 14.94l-.39.31c-4.83 2.66-7.15 5.75-9.74 12.56zm-7.73-17.94.24-.18-.27-.09zm-30.75 286.76c.26-.21.49-.48.69-.75.08-.04.15-.07.23-.11-.03-.03-.06-.06-.09-.08.05-.05.09-.11.13-.17-.05-.09-.1-.19-.15-.28-.26-.45-.57-.89-1.03-1.1-.44-.2-.92-.07-1.26.23-.29.11-.52.31-.7.55-.51.62-.72 1.55-.21 2.16.46.56 1.58.46 1.84-.13h.01c.2-.08.38-.19.54-.32zm7.84-83.68c.65-.12 1.4-.21 2.21-.25-1.82 4.28-3.39 8.68-3.92 12.75 3.08-.3 7.16-2.31 9.75-4.01 1.95-1.27 3.82-3.38 3.31-5.65-.61-2.72-5.43-3.33-9.14-3.09.03-.08.07-.17.1-.25 4.08-.88 9.16-2 12.39-3.37.7-.3 1.44-.63 1.89-1.24 1.26-1.67-.34-4.09-2.2-5.05-1.84-.95-4.63-1.25-7.41-1.15v.49c-1.4 3.17-3.12 6.7-4.67 10.32-.82.18-1.59.34-2.31.5zm-20.63-76.42c-.46 1.21-.88 2.43-1.19 3.69-1.27 5.08 3.11 22 6.67 19.82 1.09-.67 1.03-4.47.83-6.39-.43-4.19-3.5-10.97-6.31-17.12zm-.94-45.44c-.11-8.14 4.26-15.18 10.11-18.9l-.03-.05c1.07-2.65 1.59-4.81 1.79-6.68l.31.03c7.91-2.26 8.57-10.43 8.24-14.01-.17-1.82-.8-3.59-1.78-5.15l.52-.34c1.18-3.21.17-5.18-.83-7.08l.77-.1c6.97-1.46 10.74-7.07 14.28-13.24-7.69-7.75-17.43-9.24-28.35-11.46l.12-.57c-.21-5.84-1.24-17.67-4.08-22.78-2.14-3.85-5.04-7.47-5.74-11.83-4.86 4.66-8.02 11.04-8.78 17.72l-2.07.22c-10.58-1.17-22.67 2.44-30.6 7.86-1.93 1.32-3.75 2.79-5.49 4.36l-.7-.76c-3.59-4.22-8.61-8.07-12.99-11.45.57 6.11-.88 12.19-1.6 18.29-.71 6.09.43 16.66 3.78 21.8l.36.32c-7.36 8.23-13.39 15.93-16.36 27.01l.54.26c3.68.24 9.08-.42 12.52-1.76l.56-.22c.98 2.52 2.7 4.62 5.16 6.08l.73.1c-.64 4.81-1.84 9.59-3.91 12.65 2.43-1.11 4.49-3.01 6.21-5.36l.07.05c.49 5.47 4.09 9.92 4.09 9.92h.04c-1.27 5.51-2.9 11.44-3.31 14.74-1 7.86.41 28.78 9.69 42.5 0 0-1.46-23.92-.21-27.68 1.7-5.09 2.82-12.43 1.32-16.57-.88-2.43-1.6-5.14-2.24-7.9 7.07 7.11 20.4 6.94 29.56 6.11l.56.24c-1.28 2.97-2.23 6.04-2.55 9.25-.5 5.02-5.39 14.61 4.23 25.34-1.06-3.14-1.07-6.63-.01-9.77.93-2.75 2.63-5.18 3.79-7.85 2.45-5.66 2.31-11.89 1.32-18.07.46-.08 7.79-1.43 10.53-5.26h.43zm-12.53 281.18c1.1.42 1.92 1.58 1.86 2.77 4.56-2.62 9.23-5.05 13.99-7.28.08 2.04.23 5.19.62 5.64 7.16 1.02 16.43-2.79 23.6-4.33l-.07-.31c1.11-.49 1.85-.74 2.77-.74-.08.25-.14.5-.18.76.26-.23.5-.47.72-.73.14.02.29.04.45.07-.09-.09-.18-.17-.27-.26l1.01-.67c.15.22.32.42.53.59.56.46 1.32.6 2.04.67 7.82.81 15.82-4.66 17.91-12.23-4.76-2.54-13.51-14-15.46-15.54-3.68 4.77-11.53 7.8-17.47 6.86l-.44-.03c-1.28.31-2.85.47-4.13.79-1.77 5.14-9.7 4.94-17.41 5.98 1.03 3.29 3.53 5.64 4.86 8.52.35.76.62 1.55.76 2.4-5.46 2.3-10.92 4.6-16.38 6.91.24.02.47.08.69.16zm-2.24-171.75c3.65.58 7.54.11 9.48.07l.57-.2c-1.63-4.66-3.77-9.14-6.37-13.33-1.3 3-2.36 8.12-3.68 13.46zm-25.82 164.63c-.1-.12-.15.25-.21 1.05h-.03c-.91-.02-4.58-.92-5.03 2.16-.12.77-.29 1.55.11 2.21.41.66 1.1 1.11 1.84 1.35.58.18 1.2.24 1.81.17l.87.07c-.03.29-.06.59-.09.9-.11 1.07-.2 2.24.36 3.16.43.73 1.19 1.18 1.95 1.55 3.1 1.48 6.94 1.87 9.89.11.45-.27.88-.6 1.15-1.05.31-.51.38-1.13.43-1.72.34-3.75.69-7.69.66-11.46-1.64 1.97-4 3.31-6.53 3.72-2.53.4-4.82.73-7.18-2.22zm6.11-385.15c-.74-.25-1.5-.45-2.27-.6.19.56.37 1.11.57 1.58.58-.22 1.15-.43 1.72-.66.14-.06.29-.11.43-.17.45.15.89.32 1.33.51-.06-.34-.09-.67-.1-1.01-.41.17-.82.34-1.23.5-.15-.06-.3-.11-.45-.15zm-40.07 229.56c3.4-6.08 4.85-13.1 4.11-19.93l-.03-.04c3.85-2.42 7.07-5.81 9.36-9.61 3.81-6.32 5.31-13.67 5.66-20.92.14-2.87.11-5.78-.69-8.55-1.34-4.68-4.74-8.58-6.83-13.01-1.55-3.29-2.36-6.88-2.37-10.48-.02-4.58 1.77-9.35-3.84-12.95-2.22 2.48-3.49 8.39-4.25 13.02-.01.08-.03.16-.03.24.07-1.88-1.75-3.44-2.01-5.33-.14-1.01.17-2.01.31-3.02.82-6.02-.63-8.74-4.57-10.87-2.51 3.99-2.71 9.85-2.41 15.33-.46-2.99-1.54-4.63-1.61-5.78-.18-3.12-.83-8.24-5.65-8.24.51-6.36-2.38-8.61-5.26-11.33-.9 2.47-.96 6.32-.13 8.82.25.76.59 1.5.67 2.3.24 2.31-2.11 3.61-1.71 5.86-.54-2.45-2.18-4.7-4.52-5.91-1.7 6.11-5.53 10.69-5.58 16.15-.02 3.57 4.12 7.06 5.22 10.48.33 1.04.67 2.09 1.01 3.13l-.12.04c-1.25-1.04-3.42-1.78-5.07-2.02s-3.44.12-4.69 1.17c-.17.14-.34.32-.35.53 0 .19.12.36.24.51 1.91 2.41 4.58 4.31 5.95 7.02.54 1.06.85 2.2 1.27 3.31 1.79 4.72 5.34 8.31 12.9 10.2 1.01 1.63 1.99 3.28 2.86 4.98 4.33 8.45 6.38 19.03 7.8 28.31 2.09 11.73.85 9.57 4.36 16.59zm-3.05-259.55.36.33c.01-.23.02-.46.03-.7.12-.12.24-.24.36-.35-.12 0-.24 0-.35.01-.37.02-.74.04-1.1.07.23.21.47.43.7.64zm-21.68 71.39c-2.3 2.92-4.1 6.72-3.8 9.47.24 2.24 2.07 4.85 4.2 4.09 1.31-.47 1.88-1.99 2.22-3.35.86-3.43 1.31-6.95 1.33-10.49.02-1.12-.02-2.25-.09-3.37-1.27.77-2.64 2.08-3.86 3.65zm-15 217.01c-.38.07-.67.15-.63.27.2.05.41.05.61 0 0-.09.01-.19.02-.28zm.83 3.67c-.3.02-.55.3-.46.55.31 0 .52-.31.46-.55zm7.23 108.25c-1.9.03-4.12.32-4.91 1.92-.76 1.53-.33 4.16.59 5.08 4.35 4.35 10.12 7.29 17.42 7.61.99.04 2.01.14 2.89.58.94.47 1.57 1.33 2.32 2.03 3.31 3.13 9.49 2.84 12.53-.49l-.35-.7c2.31-1.13 3.89-3.6 5.16-5.86v-.18c.41-.03.77-.31 1.09-.58 6.47-5.43 12.48-11.34 17.94-17.67 3.28 1.59 6.61 3.2 10.21 3.97 4.38.95 8.98.61 13.4-.17 7.42-1.32 14.58-3.9 21.02-7.58l.5-.85c1.4 1.17 2.63 2.45 3.17 4.11 6.38-3.75 14.17-7.58 21.05-10.43l.62-.67c.94.68 1.81 1.37 2.79 1.69 3.13 1.04 7.55 1.01 10.67-.06-.57-1.58-1.18-3.21-1.78-4.98l.22-.08c1.64.25 4.24-.28 5.82-.8 1.12-.38 2.25-.75 3.3-1.28l.76.07c4.41 4.94 11.17 4.94 13.42 4.94l.41.04c-.06.51.03 1.04.22 1.52.36.91 1.05 1.66 1.72 2.38l.11.23c-.11.08-.21.18-.3.28-.49.57-.69 1.33-.77 2.08.25 1.2.91 1.84 1.62 2.09v.02c-.7 1.62-1.32 3.5-1.37 5.26 2.71 4.18 23.45 25.52 24.96 26.33 1.87 1 4.15.43 6.19-.15 9.77-2.83 19.35-6.22 28.72-10.16 4.42-1.86 1.96-3.28 1.95-5.08l-1.66-.03c.89-.34 1.92-.84 2.06-1.78.05-.33-.02-.66-.12-.97-.25-.81-.67-1.55-1.09-2.28-.89-1.57-1.85-3.1-2.75-4.63-1.49-2.57-2.82-5.18-3.46-8.12l-.21-.07c.05-.11.09-.23.12-.36.36-1.28-.09-2.68-.87-3.77-.44-.61-.97-1.14-1.55-1.63l.16-.19c.35-1.05 2.41-1.85 1.44-2.7-2.84-2.48-5.69-4.96-8.53-7.45-.27-.23-.58-.48-.94-.46-.25.02-2.09 2.1-2.29 2.26-.25.05-.5.1-.75.16-2.03-2.27.28-7.72.63-10.75-4.76 1.18-12.6 3-19.7 4.63.32-2.39.5-4.73.53-7.04h.41c3.33-1.8 3.71-2.58 3.93-7.02.16-3.2.29-6.42-.16-9.6-.7-4.83-3.21-9.46-6.67-13.33l.09-.08c2.72 1.33 5.09 1.84 7.58.8 1.56-.64 5.92-2.6 6.76-5.7-.03 1.11.02 2.22.19 3.33.61 3.99 2.76 7.64 5.32 10.87.83 1.04 2.53 2.09 3.4 1.08.43-.5.31-1.22.18-1.85-.46-2.16-.93-4.32-1.39-6.49.92 2.09 1.83 4.18 2.75 6.28.33.75.8 1.62 1.66 1.74.87.13 1.65-.64 1.8-1.45.16-.81-.14-1.64-.44-2.41-.81-2.13-1.62-4.26-2.44-6.39 1.5 2.06 2.99 4.11 4.48 6.17.53.72 1.4 1.55 2.24 1.17.65-.29.76-1.12.69-1.79-.32-2.9-1.92-5.59-3.71-7.95-6.6-8.73-3.97-15.25-3.98-23.14l-.05-.21c1.21-.32 2.39-.73 3.52-1.24.42-.18.86-.41 1.06-.8.2-.4.1-.87 0-1.3l-2.34-9.96.16-.04c3.18.14 6.01-2.27 7.09-5.08s.77-5.91.21-8.85c-1.18-6.23-3.43-12.29-6.64-17.87-.2-.35-.41-.72-.42-1.12 0-.05 0-.1.01-.15.04-.51.39-.96.71-1.38.92-1.2 1.74-2.47 2.44-3.79.62-1.18 1.15-2.44 1.13-3.75-.03-1.32-.74-2.69-2.02-3.22-.94-.39-2.01-.25-2.94.2l-.34-.9c-.11-1.02-.06-.5-.26-1.51-.21-1.02-.71-2.04-1.63-2.59-1.34-.8-3.21-.35-4.34.69-1.12 1.05-1.62 2.54-1.88 4.01l-.15.4c-1.1-.4-2.33-.66-3.67-.66-.95 0-1.78.61-2.55 1.14-4.05 2.73-7.11 8.58-8.59 13.17-.06.18-.11.35-.16.52h-.5s-.1-.03-.15-.02c-1.7.26-2.38 2.38-4.02 3.48 1.23-1.17 2.32-2.46 3.23-3.86.6-.9.7-2.67-.24-3.26-3.15 1.37-5.75 3.6-8.3 5.81-1.37 1.21-2.66 2.55-3.44 4.15-.72 1.47-.97 3.1-.97 4.71.02 3.5 1.26 6.99 3.51 9.79l.75.78c-1.06 1.13-1.93 2.49-2.64 3.81-.42.77-.81 1.58-1.18 2.41l-.22-.1c-2.06-1.24-4.9-2.22-7.03-1.11-3.73 1.95-6.03 9.85-5.36 13.96l.3.89c-2.45.78-4.72 2.3-6.36 4.19-3.23 3.75-4.5 8.64-5.3 13.4-.55 3.23-.89 6.68.62 9.62.47.91 1.18 1.73 2.03 2.38-2.47 1.96-4.52 4.41-5.97 7.13l-1.26.11c-2.59-1.62-6.1-2.23-9.15-1.42-6.69 1.79-14.94 11-17.36 18.81l-.25-.03c-3.27-1.71-6.49-3.56-10.01-4.77-3.53-1.21-7.44-1.75-11.03-.76.2.78.38 1.57.53 2.35l-.85.15c-4.7.37-9.27 2.1-12.92 4.89l-.55.17c-1.8-2.97-4.01-5.86-6.64-7.83-3.83-2.86-9.43-4.1-13.72-1.87-4.13 2.15-5.95 6.74-7.21 11-1.37 4.66-.8 7.84-1.59 12.62l.11.2c-1.92 1.07-3.59 2.53-5.23 3.96-2.3 2.02-4.6 4.05-6.91 6.07l-.3-.34c-.2.02-.44.05-.69.09l-.03-.18c-.96-.1-1.92-.18-2.89-.21l.03-.59c3.24-2.72 5.28-6.81 5.53-11.03s-1.3-8.51-4.19-11.6c-1.68-1.79-3.79-3.2-5.52-4.92l.06-.06c4.13-1.47 4.99-.68 9.38-.72 1.66-.02 3.39.05 4.87-.7.9-.45 1.62-1.16 2.31-1.89 1.9-1.99 4.29-4.42 5.83-6.7-.05-.1-.09-.21-.14-.31l.28-.12c3.22 1.07 8 0 10.2-2.58.48-.56.88-1.26 1.26-2.03l.34.17c1.12 1.63 3.34 2.08 5.32 2.05 1.97-.04 3.99-.43 5.91.07l.07-.05c.06.11.14.21.23.31.41.44.99.68 1.55.89 1.81.7 3.67 1.27 5.56 1.71 2.92.69 6.12 1.04 8.83-.25 1.29-.62 2.39-1.95 3.03-3.46l.74.36c5.42 2.2 14.08.54 17.86-3.92l.66-.72c.53.45 1.13.76 1.74.86 2.31.38 4.61-.63 6.73-1.61 1.58-.72 3.18-1.47 4.43-2.66 1.26-1.19 2.13-2.93 1.86-4.63l.04-.35c1.08.17 2.18.19 3.27.04.51-.07 1.05-.19 1.45-.51.43-.35.65-.89.83-1.41.68-1.99.98-4.11 1.06-6.22.06-1.78-.04-3.65-.92-5.21s-2.73-2.69-4.46-2.24l-.61-.18c-1.38 4.64-2.56 9.42-7.2 13.45-1.68 1.45-3.81 2.81-6.57 4.02-.91.4-2.2.76-3.6 1.11-2.7.68-5.85 1.33-7.56 2.21-2.67 1.37-5.73 1.75-8.72 2.1-.32.04-.64.07-.96.11-3.7.43-7.45.78-11.13.22-2.35-.36-4.64-1.1-6.98-1.45-.19-.03-.37-.06-.56-.08-3.29-.41-6.4-.2-9.64.06-6.01.47-12.43 1.09-21.1-1.86l-.21.15c-2.38-3.1-5.36-7.12-8.72-7.78-2.11-.41-4.3-.3-6.43.04-5.54.89-5.64 1.69-9.86 5.39l-.03.03c-2.61-1.28-5.82-1.39-8.41-.04l-.91.26c-1.73-6.1-3.45-12.21-5.15-18.29-.72-2.6-1.44-5.19-2.15-7.78-.42-1.54-.84-3.07-1.26-4.6l-.03-.12c-.74-3.53-2.13-6.93-3.52-10.32-.2-.48-.39-.97-.62-1.45-.4-.88-.87-1.74-1.53-2.51-1.01-1.18-2.54-2.14-4.26-2.24-1.26 1.01-2.61 2.18-2.66 3.64-.02.65.21 1.29.45 1.91.19.51.39 1.03.58 1.54h.01c1.38 3.57 2.91 7.14 5.43 10.25l.38.25.06.24c.53 1.89 1.05 3.78 1.56 5.67 2.32 8.44 4.58 16.88 6.78 25.34l-.37.1c-.41.09-.81.21-1.2.35l-.09-.27c-2.92.78-4.57 1.14-7.07 2.5-2.75 1.51-4.41 4.6-4.74 7.73-.33 3.12.52 6.27 1.8 9.14.25.55.52 1.1.78 1.65l-.47.07c-2.08-.6-7.92.43-9.39 2.01-1.48 1.58-2.14 3.72-2.8 5.78-3.47 10.73-.06 20.7 3.48 30.45.18.5.4 1.03.85 1.3.36.23.82.24 1.24.23 5.99-.09 8.93-.61 13.72-4.19 3.29 2.01 5.75 1.92 9.6 2.06l.03-.1c1.82.57 3.75.71 5.64.29l.31.09c-.3.91-.28 1.92.1 2.81.73 1.7 3.98 2.88 5.92 2.69l.23.26c-1.22 1.06-2.43 2.13-3.65 3.2-.14.12-.28.25-.33.42-.1.35.23.66.52.89.21.16.41.32.62.49l-.21.27c-4.65 1.09-9.54-.06-14.34-.37-2.22-.14-4.42-.1-6.57.43-.23.06-.47.13-.69.21zm-9.21-167.77c.22-1.21.35-2.36.33-3.39-.05-3.59-.33-7.39-2.72-10.35-.65-.8-1.52-1.56-2.65-1.73-1.83-.27-3.51 1.2-3.84 2.77-.34 1.57.3 3.15.92 4.65.82 1.97 1.66 3.98 3.21 5.59 1.2 1.25 2.91 2.23 4.75 2.46zm255.66-249.57v455.47c0 14.84-12.03 26.86-26.86 26.86h-232.7c-14.84 0-26.86-12.02-26.86-26.86v-455.47c0-14.84 12.02-26.87 26.86-26.87h232.7c14.83 0 26.86 12.03 26.86 26.87zm-26.43 24.25c-.17-4.99 4.49-11.68 3.84-17.16-5.11 6.25-14.89 10.2-15.29 18.26-.21 4.04.58 8.09.56 12.14 0 1.72.61 7.12.61 7.12s4.44-7.4 5.26-8.48c3.37-4.37 5.21-6.37 5.02-11.88zm-68.93 299.73c.29-.64.12-1.5-.51-1.84-.21-.21-.52-.34-.82-.29-.04 0-.09.02-.13.04-.39 0-.79.16-1.08.41-.52.42-.79 1.05-.98 1.68-.06.19-.11.39-.06.58.04.15.14.26.27.34 0 .12.03.22.09.32.12.21.33.32.56.32.04.02.09.03.13.04.28.04.56-.07.82-.18.71-.31 1.39-.76 1.71-1.42zm-10.45-172.21c4.37-7.42 4.86-16.5 4.18-25.08-.68-8.59-2.42-17.12-2.08-25.73-1.75 11.6-11.56 20.7-13.51 32.26-.8 4.68-.25 9.54-1.28 14.17-1.47 6.61-6.12 12.78-5.01 19.46.83 5.03 3.66 8.38 1.84 13.45-4.6 12.84 2.13 25.9 2.13 25.9s8.11-13.2 7.58-22.57c-.4-7.16-1.64-18.06 1.52-24.49 1.28-2.61 3.16-4.87 4.63-7.37zm-80.24 299.91c-1.01-2.64-3.2-4.62-5.35-6.45-.15-.13-.3-.26-.48-.32-.34-.1-.69.04-1.01.18-1.45.62-3.91 1.55-4.29 3.28-.38 1.74 1.21 3.8 2.19 5.04.54.68 1.08 1.37 1.62 2.05 2.68.43 6.82-.35 7.32-3.78zm-6.98-18.39c.23-1.25-7.49-1.58-8.37-1.27-2.59.93-2.67 3.57-2.06 5.93.19.73.38 1.46.56 2.18 2.48.04 4.95.08 7.43.12.19 0 .41 0 .55-.13.1-.09.14-.21.18-.34.73-2.11 1.3-4.29 1.71-6.49zm-12.31 17.88c.64-2.05.53-4.33.41-6.53 0-.16-.01-.33-.08-.47-.09-.17-.25-.26-.4-.33-1.04-.47-2.16-.64-3.25-.47-1.29.2-5.01.92-5.85 2.33-.59 1 .21 7.24 1.42 7 2.58-.51 5.17-1.02 7.75-1.53zm-31.11-437.85-8.98 4.27c-1.48-4.17-2.58-6.76-5.01-10.46-.05 3.8-.1 7.59-.15 11.39-3.94-1.52-7.81-3.26-11.56-5.21 1.52 3.39 3.85 6.41 6.74 8.75-2.98 2.35-5.95 4.71-8.92 7.06 3-.24 6.14-.35 8.91-.35-1.5 3.55-4.2 10.15-4.2 10.15s5.74-4.19 8.09-5.95c1.1 3.04 2.08 10.28 2.08 10.28.66-2.01 3.55-9.96 3.55-9.96s6.19 3.19 8.9 4.12c-1.3-3.97-3.64-6.78-5.89-10.31 2.9.35 6.43-1 9.16-2.02-2.26-.81-8.03-3.04-7.89-3.85.05-.26 3.42-5.57 5.17-7.91zm-17.08 142.12c.95 3.34 7.43 12.76 10.87 12.7-.82-1.8-1.59-3.68-1.83-5.68-.32-2.52.04-5.1-.39-7.6-.54-3.15-2.27-5.93-3.47-8.89-1.34-3.34-2-6.9-2.64-10.44-.72 3.52-1.43 7.04-2.15 10.56-.62 3.09-1.25 6.32-.39 9.35z" fill="#fca265"/><path d="m264.829 34.9609c.65 5.48-4.01 12.17-3.84 17.16.19 5.51-1.65 7.51-5.02 11.88-.82 1.08-5.26 8.48-5.26 8.48s-.61-5.4-.61-7.12c.02-4.05-.77-8.1-.56-12.14.4-8.06 10.18-12.01 15.29-18.26z" fill="#ffd127"/><path d="m220.651 446.41 2.37-.72c.38.58 1.17.86 1.83.63s1.11-.94 1.04-1.63c1.61 1.15 4.18.54 5.1-1.2.73 1.09 2.53 1.23 3.43.27.27-.29.5-.68.89-.77.47-.11.9.27 1.32.5.25.14.54.23.83.26l-1.54 2.38c-.17 1.17-1.13 2.18-2.28 2.42-.18.04-.37.06-.56.06l.92 2.17c.79.82 2.07 1.01 3.16.69s2-1.08 2.76-1.92c.1-.11.2-.22.32-.32l-1.92-2.26c1.4 0 2.82-.69 3.48-1.94.07.06.14.11.22.16 1.67 1.14 4.35.34 5.04-1.57 1.95 1.43 5.19.31 5.83-2.02.46.71 1.41 1.08 2.23.87.83-.21 1.48-.99 1.54-1.84.57.58 1.63.59 2.21 0l1.85-.65c.9 1.53 1.86 3.06 2.75 4.63.42.73.84 1.47 1.09 2.28.1.31.17.64.12.97-.14.94-1.17 1.44-2.06 1.78l1.66.03c.01 1.8 2.47 3.22-1.95 5.08-9.37 3.94-18.95 7.33-28.72 10.16-2.04.58-4.32 1.15-6.19.15-1.51-.81-22.25-22.15-24.96-26.33.05-1.76.67-3.64 1.36-5.26v-.02c1.02.37 2.13-.03 2.34-.65.22-.3.37-.53.46-.72l.8.11c1.26-.27 1.99-.77 2.4-1.35l.98.12c-.85.92-1.5 2.11-1.56 3.05 0 4.83 4.62 7.45 8.33 8.87.73.28 1.49.39 2.26.4l-.02.6c.24.86.52 1.69.84 2.52z" fill="#dabbf2"/><path d="m264.349 123.181c.52 2.35-2.28 4.08-4.68 4.32-.96.09-1.93.07-2.88-.06.04-1.89.42-3.77 1.69-5.12 1.66-1.77 5.35-1.51 5.87.86z" fill="#ffd127"/><path d="m241.789 442.791c-.1 0-.2 0-.3-.02-.44-.08-.87-.32-1.3-.21-.37.1-.62.42-.91.67-.5.41-1.18.6-1.82.52-.29-.03-.58-.12-.83-.26-.42-.23-.85-.61-1.32-.5-.39.09-.62.48-.89.77-.9.96-2.7.82-3.43-.27l-.43-1.95c7.46-1.6 14.8-3.73 21.95-6.38 1.82-.67 3.84-1.6 4.54-3.36l.21.07c.64 2.94 1.97 5.55 3.46 8.12l-1.85.65c-.58.58-1.64.57-2.21 0-.06.85-.71 1.63-1.54 1.84-.82.21-1.77-.16-2.23-.87-.64 2.33-3.88 3.45-5.83 2.02-.69 1.91-3.37 2.71-5.04 1.57l-.23-2.4z" fill="#dabbf2"/><path d="m246.011 314.369c-1.18-.72-2.1-1.9-2.08-3.2l.24-1.22c-.48-.15-.88-.43-1.14-.88-.28-.5-.32-1.09-.32-1.66-.01-1.63.38-3.52 1.84-4.25.19-.09.42-.2.46-.4.03-.16-.06-.3-.14-.43-1.15-1.88-1.08-4.35-.07-6.29l1.86.06c.44 2.83 1.94 4.69 3.93 6.02-.01.05-.01.1-.01.15.01.4.22.77.42 1.12 3.21 5.58 5.46 11.64 6.64 17.87.56 2.94.87 6.04-.21 8.85s-3.91 5.22-7.09 5.08l-.16.04c-1.55-6.63-3.11-13.26-4.66-19.89h-.04z" fill="#dabbf2"/><path d="m256.298 427.67c.78 1.09 1.23 2.49.87 3.77-.03.13-.07.25-.12.36-.7 1.76-2.72 2.69-4.54 3.36-7.15 2.65-14.49 4.78-21.95 6.38-1.68.36-3.36.7-5.06 1-.84.16-1.68.31-2.52.45-1.03.17-2.11.33-3.15.3-.77-.01-1.53-.12-2.26-.4-3.71-1.42-8.33-4.04-8.33-8.87.06-.94.71-2.13 1.56-3.05.66-.71 1.44-1.26 2.17-1.39 4.07-.73 8.15-1.46 12.22-2.19.66-.12 1.54-.13 1.78.5.14.33 0 .71-.12 1.04-.51 1.29-1.1 2.54-1.77 3.74 1.54 2.42 13.88-2.08 16.22-3.09.88-.37 2.12-.97 1.68-1.82-.16-.31-.5-.47-.83-.57-1.13-.35-2.38-.11-3.53-.41-1.15-.29-2.24-1.58-1.63-2.6.32-.52.95-.75 1.53-.93 2.31-.74 4.61-1.48 6.92-2.21.62-.2 1.28-.4 1.92-.29.62.12 1.14.51 1.64.88l4.38 3.33c.46.35.93.71 1.37 1.08.58.49 1.11 1.02 1.55 1.63z" fill="#dabbf2"/><path d="m256.352 423.149c.97.85-1.09 1.65-1.44 2.7l-.16.19c-.44-.37-.91-.73-1.37-1.08l-4.38-3.33c-.5-.37-1.02-.76-1.64-.88-.64-.11-1.3.09-1.92.29-2.31.73-4.61 1.47-6.92 2.21-.58.18-1.21.41-1.53.93-.61 1.02.48 2.31 1.63 2.6 1.15.3 2.4.06 3.53.41.33.1.67.26.83.57.44.85-.8 1.45-1.68 1.82-2.34 1.01-14.68 5.51-16.22 3.09.67-1.2 1.26-2.45 1.77-3.74.13-.33.26-.71.12-1.04-.24-.63-1.12-.62-1.78-.5-4.07.73-8.15 1.46-12.22 2.19-.73.13-1.51.68-2.17 1.39l-.98-.12c.87-1.25.19-2.87-.14-3.38-.23-.37-.88-.78-1.67-.85 12.27-2.51 23.6-6.4 35.83-8.96.25-.06.5-.11.75-.16.2-.16 2.04-2.24 2.29-2.26.36-.02.67.23.94.46 2.84 2.49 5.69 4.97 8.53 7.45z" fill="#dabbf2"/><path d="m255.679 379.829c.07.67-.04 1.5-.69 1.79-.84.38-1.71-.45-2.24-1.17-1.49-2.06-2.98-4.11-4.48-6.17.82 2.13 1.63 4.26 2.44 6.39.3.77.6 1.6.44 2.41-.15.81-.93 1.58-1.8 1.45-.86-.12-1.33-.99-1.66-1.74-.92-2.1-1.83-4.19-2.75-6.28.46 2.17.93 4.33 1.39 6.49.13.63.25 1.35-.18 1.85-.87 1.01-2.57-.04-3.4-1.08-2.56-3.23-4.71-6.88-5.32-10.87-.17-1.11-.22-2.22-.19-3.33.18-6.81 3.43-13.75 1.2-20.25v-.14c1.1.01 2.19.08 3.09.1 2.16.05 4.33-.21 6.41-.75l.05.21c.01 7.89-2.62 14.41 3.98 23.14 1.79 2.36 3.39 5.05 3.71 7.95z" fill="#dabbf2"/><path d="m247.101 293.7c.32-.88.73-1.71 1.36-2.42.4-.45.9-.83 1.45-1.1.93-.45 2-.59 2.94-.2 1.28.53 1.99 1.9 2.02 3.22.02 1.31-.51 2.57-1.13 3.75-.7 1.32-1.52 2.59-2.44 3.79-.32.42-.67.87-.71 1.38-1.99-1.33-3.49-3.19-3.93-6.02l-1.86-.06c.51-.97 1.26-1.81 2.2-2.38z" fill="#dabbf2"/><path d="m252.521 345.19c.1.43.2.9 0 1.3-.2.39-.64.62-1.06.8-1.13.51-2.31.92-3.52 1.24-2.08.54-4.25.8-6.41.75-.9-.02-1.99-.09-3.09-.1-1.44-.01-2.91.08-3.98.53l-.72-.02c.13-1.66.22-3.32.14-4.98-.22-4.22-1.6-8.3-3.1-12.28-.81-2.15-1.69-4.34-3.22-6.11-.63-.73-1.4-1.39-2.26-1.89l.46-.19c1.6-2.52 2-6.13 3.09-8.88 1.2.67 3.35 2.29 4.55 2.96 1.26.7 2.57 1.41 4.03 1.53 2.44.2 4.67-1.31 6.35-2.97.35-.35 1.18-1.54 1.7-1.54h.04c1.55 6.63 3.11 13.26 4.66 19.89z" fill="#f5eb9e"/><path d="m244.129 241.289 5.95-2.82c-1.16 1.55-3.39 5.06-3.43 5.24-.09.53 3.73 2.01 5.24 2.55-1.82.67-4.15 1.57-6.08 1.34 1.49 2.33 3.05 4.2 3.91 6.83-1.8-.61-5.9-2.73-5.9-2.73s-1.92 5.27-2.36 6.6c0 0-.65-4.8-1.37-6.81-1.51 1.13-5.12 3.77-5.35 3.93.1-.26 1.81-4.43 2.77-6.72-1.84 0-3.92.08-5.9.24 1.96-1.56 3.93-3.12 5.9-4.68-1.91-1.55-3.45-3.56-4.46-5.8 2.49 1.29 5.05 2.44 7.66 3.45.04-2.52.07-5.03.1-7.54 1.61 2.45 2.34 4.16 3.32 6.92z" fill="#ffd127"/><path d="m249.569 289.28.34.9c-.55.27-1.05.65-1.45 1.1-.63.71-1.04 1.54-1.36 2.42l-.1-.04c-.97-.58-2.92-2.4-5.69-3.38l.15-.4c.26-1.47.76-2.96 1.88-4.01 1.13-1.04 3-1.49 4.34-.69.92.55 1.42 1.57 1.63 2.59.2 1.01.15.49.26 1.51z" fill="#dabbf2"/><path d="m238.15 296.789c-.03-.13-.07-.29-.1-.51-.32.17-.37.07-.37.04 0 .02-.01.1-.07.29-.2.65-.53 1.49.06 1.17 0-.15.03-.27.08-.39.58-.24.53-.08.4-.6zm8.85-3.14c-.94.58-1.69 1.42-2.2 2.39-1.01 1.94-1.08 4.41.07 6.29.08.13.17.27.14.43-.04.2-.27.31-.46.4-1.46.73-1.85 2.62-1.84 4.25 0 .57.04 1.16.32 1.66.26.45.66.73 1.14.88l-.24 1.22c-.02 1.3.9 2.48 2.08 3.2l-.53.97c-.52 0-1.35 1.19-1.7 1.54-1.68 1.66-3.91 3.17-6.35 2.97-1.46-.12-2.77-.83-4.03-1.53-1.2-.67-3.35-2.29-4.55-2.96l-1.52-.25c.38-.32.71-.68.97-1.1.67-1.11.61-2.68-.42-3.52-.12-.1-.26-.17-.39-.22l.08-.98c1.81.17 4.29.16 5.78-.63 1.54-.82 2.61-3.03 1.4-4.28-1.67-1.72-5.47.75-7.64-.26l-.61-.19c1.48-4.59 4.54-10.44 8.59-13.17.77-.53 1.6-1.14 2.55-1.14 1.34 0 2.57.26 3.67.66 2.77.98 4.72 2.8 5.69 3.37z" fill="#dabbf2"/><path d="m224.771 411.54c7.1-1.63 14.94-3.45 19.7-4.63-.35 3.03-2.66 8.48-.63 10.75-12.23 2.56-23.56 6.45-35.83 8.96-.13-.01-.26-.01-.4 0l-.03-.43c-.1-.84.03-2.49.26-4.25.39-3.09 1.05-6.55 1.2-6.7.13-.12 7.42-1.78 15.73-3.7z" fill="#efede7"/><path d="m241.792 442.79.23 2.4c-.08-.05-.15-.1-.22-.16-.66 1.25-2.08 1.94-3.48 1.94-.87 0-1.73-.27-2.4-.84l1.54-2.38c.64.08 1.32-.11 1.82-.52.29-.25.54-.57.91-.67.43-.11.86.13 1.3.21.1.02.2.03.3.02z" fill="#dabbf2"/><path d="m238.318 446.971 1.92 2.26c-.12.1-.22.21-.32.32-.76.84-1.67 1.6-2.76 1.92s-2.37.13-3.16-.69l-.92-2.17c.19 0 .38-.02.56-.06 1.15-.24 2.11-1.25 2.28-2.42.67.57 1.53.84 2.4.84z" fill="#dabbf2"/><path d="m239.939 48.2896c.09.16.07.37.04.56-.51 3.03-1.93 5.98-1.83 9.02.04 1.19.32 2.34.48 3.51.72 5.02.6 8.49-5.15 13.8l-.21.02c-.23-3.02-.53-6.03-.59-9.09-.1-4.27-.77-8.48-1.57-12.65l.12-.02c.61-1.51 2.15-3.2 3.48-4.21 1.32-1.01 3.07-1.55 4.67-1.24.21.04.45.12.56.3z" fill="#f5eb9e"/><path d="m233.13 102.799c12.76-2.32 17.58 3.49 21.34 7.03-7.7.58-15.37 1.47-22.99 2.67l-.16-1c.68-2.77 1.12-5.7 1.4-8.74z" fill="#fca265"/><path d="m233.74 349.689.72.02c1.07-.45 2.54-.54 3.98-.53v.14c2.23 6.5-1.02 13.44-1.2 20.25-.84 3.1-5.2 5.06-6.76 5.7-2.49 1.04-4.86.53-7.58-.8l-.09.08c-1.79-2.03-3.84-3.85-6.03-5.38l-.47.03c-.15-2.5-.38-4.99-.63-7.48-.3-3.08-.65-6.19-1.85-9.07-1.09-2.62-2.98-5.04-5.6-6.35l.14-.27c.73-4.44 2.08-9.46 4.02-13.78.37-.83.76-1.64 1.18-2.41.71-1.32 1.58-2.68 2.64-3.81 1.36-1.45 3.03-2.52 5.06-2.65.66-.04 1.32.02 1.95.19.73.17 1.43.47 2.08.86.86.5 1.63 1.16 2.26 1.89 1.53 1.77 2.41 3.96 3.22 6.11 1.5 3.98 2.88 8.06 3.1 12.28.08 1.66-.01 3.32-.14 4.98z" fill="#efede7"/><path d="m227.571 309.29-.08.98c-1-.35-2.33.66-3.87 1.78 1.68-1.26 3.71-3.64 3.41-5.63-.03-.25-.28-.99-.47-1.15-.2-.17-.46-.68-.72-.81h.5c.05-.18.1-.35.16-.53l.61.19c2.17 1.01 5.97-1.46 7.64.26 1.21 1.25.14 3.46-1.4 4.28-1.49.79-3.97.8-5.78.63z" fill="#efede7"/><path d="m209.498 51.1698c-1.51-3.62-.43-7.98-1.22-9.01-2.29-2.99-5.35-7.41.81-11.89 2.35 3.31 4.5 6.75 6.7 10.15 2.19 3.37 3.78 7.87 5.11 12.18-.65-3.7 2.22-8.65.25-11.79-.8-1.27-2.15-2.11-3.17-3.21-2.55-2.74-2.83-7.25-.66-10.51 4.67 3.62 10.01 6.69 12.68 11.45 1.75 3.12-.2 8.17.49 11.7.21 1.07.42 2.14.62 3.22.8 4.17 1.47 8.38 1.57 12.65.06 3.06.36 6.07.59 9.09.16 2.3.28 4.59.21 6.91-.21 6.95-.13 14.05-.76 20.6502-.28 3.04-.72 5.97-1.4 8.74l.16 1c-.63.1-1.25.2-1.88.3-5.04.83-10.12 1.81-15.03 3.25l-.21-.73c-1.77-1.84-3.38-3.66-4.83-5.5-3.74-4.7-6.5-9.51-8.52-14.9402-1.11-2.98-1.82-7.43-2.46-10.24-1.07-4.74.39-10.2.82-15.08.36-4-2.05-6.97-4.09-9.94-2.66-3.84-6.06-7.33-2.89-13.18 3.15 1.09 7.11 5.66 10.01 9.34l.03.03c-.87-1.61-.68-3.87-1.34-5.59-.36-.95-1.43-2.04-2.04-2.85-3.63-4.88-2.99-8.86-.2-11.89 4.48 3.55 7.98 10.06 10.65 15.69z" fill="#f5eb9e"/><path d="m230.56 441.539.43 1.95c-.92 1.74-3.49 2.35-5.1 1.2l-.39-2.15c1.7-.3 3.38-.64 5.06-1z" fill="#dabbf2"/><path d="m225.3 404.5c-.03 2.31-.21 4.65-.53 7.04-8.31 1.92-15.6 3.58-15.73 3.7-.15.15-.81 3.61-1.2 6.7l-.33-.04c-1.19.1-3.43.45-4.52.92-.45.19-.9.42-1.22.79-.32.35-.49.8-.54 1.27l-.41-.04c-2.25 0-9.01 0-13.42-4.94l-.76-.07c.63-.31 1.23-.68 1.78-1.13 2.04-1.68 3.1-4.33 3.39-6.96s-.11-5.29-.5-7.91l-.09-1.02c1.95-.12 3.99-.65 5.84-1.22 5.7-1.74 9.74-5.04 15.45-6.78-8.58-1.67-16.4-8.47-24.91-6.52-.21-2.35-1.69-4.28-3.76-5.57l1.26-.11c1.45-2.72 3.5-5.17 5.97-7.13 1.89 1.48 4.47 2.1 6.58 1.02l.07-.03c.3.85.66 1.68 1.14 2.45 1.63 2.63 2.92 4.58 5.83 7.28 1.99-3.96 3.19-8.25 3.57-12.61l.58-.02c2.45 2.91 4.2 7.81 7.52 7.52.29-3.96.21-7.93-.05-11.89l.47-.03c2.19 1.53 4.24 3.35 6.03 5.38 3.46 3.87 5.97 8.5 6.67 13.33.45 3.18.32 6.4.16 9.6-.22 4.44-.6 5.22-3.93 7.03h-.41z" fill="#efede7"/><path d="m223.291 323.279c-.39-.97-.76-2.69-.83-3.63-.08-.99.25-2.07 1.1-2.67.45-.32 1.01-.48 1.54-.68.8-.29 1.58-.67 2.23-1.19l1.52.25c-1.09 2.75-1.49 6.36-3.09 8.88l-.46.19c-.65-.39-1.35-.69-2.08-.86z" fill="#fca265"/><path d="m227.879 310.489c1.03.84 1.09 2.41.42 3.52-.26.42-.59.78-.97 1.1-.65.52-1.43.9-2.23 1.19-.53.2-1.09.36-1.54.68-.85.6-1.18 1.68-1.1 2.67.07.94.44 2.66.83 3.63l-.07.29c-.63-.17-1.29-.23-1.95-.19-2.03.13-3.7 1.2-5.06 2.65l-.75-.78c-2.25-2.8-3.49-6.29-3.51-9.79 0-1.61.25-3.24.97-4.71.78-1.6 2.07-2.94 3.44-4.15 2.55-2.21 5.15-4.44 8.3-5.81.94.59.84 2.36.24 3.26-.91 1.4-2 2.69-3.23 3.86 1.64-1.1 2.32-3.22 4.02-3.48.05-.01.1 0 .15.03.26.13.52.64.72.81.19.16.44.9.47 1.15.3 1.99-1.73 4.37-3.41 5.63 1.54-1.12 2.87-2.13 3.87-1.78.13.05.27.12.39.22z" fill="#dabbf2"/><path d="m225.889 444.689c.07.69-.38 1.4-1.04 1.63s-1.45-.05-1.83-.63l-2.37.72c-.32-.83-.6-1.66-.84-2.52l.02-.6c1.04.03 2.12-.13 3.15-.3.84-.14 1.68-.29 2.52-.45z" fill="#dabbf2"/><path d="m223.209 167.49c5.05-1.19-.3 9.83-3.94 13.2-.07.07-.14.13-.22.2-.06-.36-.12-.72-.16-1.08-.52-4.48-.78-9.71 4.32-12.32z" fill="#ffd127"/><path d="m220.511 188.551c.07 2.97-3.24 10.73-4.52 6.75-.85-4 .98-8.02 3.82-11.08.36 1.43.67 2.87.7 4.33z" fill="#ffd127"/><path d="m191.069 375.479c-.85-.65-1.56-1.47-2.03-2.38-1.51-2.94-1.17-6.39-.62-9.62.8-4.76 2.07-9.65 5.3-13.4 1.64-1.89 3.91-3.41 6.36-4.19 2.4-.78 4.98-.87 7.33.04.28.11.55.23.82.37 2.62 1.31 4.51 3.73 5.6 6.35 1.2 2.88 1.55 5.99 1.85 9.07.25 2.49.48 4.98.63 7.48.26 3.96.34 7.93.05 11.89-3.32.29-5.07-4.61-7.52-7.52l-.58.02c-.38 4.36-1.58 8.65-3.57 12.61-2.91-2.7-4.2-4.65-5.83-7.28-.48-.77-.84-1.6-1.14-2.45l-.07.03c-2.11 1.08-4.69.46-6.58-1.02z" fill="#f5eb9e"/><path d="m214.358 115.32.21.73c-5.34 1.56-10.49 3.65-15.17 6.64 2.59-6.81 4.91-9.9 9.74-12.56l.39-.31c1.45 1.84 3.06 3.66 4.83 5.5z" fill="#fca265"/><path d="m212.17 332.151.22.1c-1.94 4.32-3.29 9.34-4.02 13.78l-.14.27c-.27-.14-.54-.26-.82-.37-2.35-.91-4.93-.82-7.33-.04l-.3-.89c-.67-4.11 1.63-12.01 5.36-13.96 2.13-1.11 4.97-.13 7.03 1.11z" fill="#efede7"/><path d="m207.609 426.62c.14-.01.27-.01.4 0 .79.07 1.44.48 1.67.85.33.51 1.01 2.13.14 3.38-.41.58-1.14 1.08-2.4 1.35l-.8-.11c.21-.44.1-.69-.01-1.34-.13-.81-.85-1.69-1.6-2.02-.56-.25-1.23-.09-1.73.28l-.11-.23c-.67-.72-1.36-1.47-1.72-2.38-.19-.48-.28-1.01-.22-1.52.05-.47.22-.92.54-1.27.32-.37.77-.6 1.22-.79 1.09-.47 3.33-.82 4.52-.92l.33.04c-.23 1.76-.36 3.41-.26 4.25z" fill="#dabbf2"/><path d="m206.611 430.75c.11.65.22.9.01 1.34-.09.19-.24.42-.46.72-.21.62-1.32 1.02-2.33.65-.71-.25-1.37-.89-1.62-2.09.08-.75.28-1.51.77-2.08.09-.1.19-.2.3-.28.5-.37 1.17-.53 1.73-.28.75.33 1.47 1.21 1.6 2.02z" fill="#dabbf2"/><path d="m185.391 401.25c-2.42 4.86-3.92 6.75-8.6 9.84-.56.37-1.33.87-2.22 1.35-1.53.85-3.4 1.65-5.13 1.67-6.67.06-11.93-3.55-12.7-8.47-.26-1.66-.02-3.55.59-5.53 2.42-7.81 10.67-17.02 17.36-18.81 3.05-.81 6.56-.2 9.15 1.42 2.07 1.29 3.55 3.22 3.76 5.57 8.51-1.95 16.33 4.85 24.91 6.52-5.71 1.74-9.75 5.04-15.45 6.78-1.85.57-3.89 1.1-5.84 1.22-2.17.14-4.23-.21-5.83-1.56z" fill="#dabbf2"/><path d="m199.641 451.11c-2.09 7.57-10.09 13.04-17.91 12.23-.72-.07-1.48-.21-2.04-.67-.21-.17-.38-.37-.53-.59-.25-.37-.42-.8-.6-1.22-2.85-6.76-6.88-13.02-11.85-18.43 5.94.94 13.79-2.09 17.47-6.86 1.95 1.54 10.7 13 15.46 15.54z" fill="#f5eb9e"/><path d="m191.31 403.83c.39 2.62.79 5.28.5 7.91s-1.35 5.28-3.39 6.96c-.55.45-1.15.82-1.78 1.13-1.05.53-2.18.9-3.3 1.28-1.58.52-4.18 1.05-5.82.8l-.22.08c-.94-2.71-1.86-5.73-2.61-9.34l-.12-.21c.89-.48 1.66-.98 2.22-1.35 4.68-3.09 6.18-4.98 8.6-9.84 1.6 1.35 3.66 1.7 5.83 1.56z" fill="#dabbf2"/><path d="m185.792 154.56c.68 8.58.19 17.66-4.18 25.08-1.47 2.5-3.35 4.76-4.63 7.37-3.16 6.43-1.92 17.33-1.52 24.49.53 9.37-7.58 22.57-7.58 22.57s-6.73-13.06-2.13-25.9c1.82-5.07-1.01-8.42-1.84-13.45-1.11-6.68 3.54-12.85 5.01-19.46 1.03-4.63.48-9.49 1.28-14.17 1.95-11.56 11.76-20.66 13.51-32.26-.34 8.61 1.4 17.14 2.08 25.73z" fill="#ffd127"/><path d="m183.15 297.67c1.86.96 3.46 3.38 2.2 5.05-.45.61-1.19.94-1.89 1.24-3.23 1.37-8.31 2.49-12.39 3.37 1.55-3.62 3.27-7.15 4.68-10.32v-.49c2.77-.1 5.56.2 7.4 1.15z" fill="#ffd127"/><path d="m180.111 310.671c.51 2.27-1.36 4.38-3.31 5.65-2.59 1.7-6.67 3.71-9.75 4.01.53-4.07 2.1-8.47 3.92-12.75 3.71-.24 8.53.37 9.14 3.09z" fill="#ffd127"/><path d="m179.161 462.08-1.01.67c-.06.06-.11.13-.18.19-.19-.02-.37-.03-.54-.03-.92 0-1.66.25-2.77.74-1.68-3.62-3.37-7.24-5.06-10.86-1.61-3.44-4.58-7.14-7.46-9.6 1.28-.32 2.85-.48 4.13-.79l.44.03c4.97 5.41 9 11.67 11.85 18.43.18.42.35.85.6 1.22z" fill="#f5eb9e"/><path d="m177.641 357.83c.88 1.56.98 3.43.92 5.21-.08 2.11-.38 4.23-1.06 6.22-.18.52-.4 1.06-.83 1.41-.4.32-.94.44-1.45.51-1.09.15-2.19.13-3.27-.04-1.87-.27-3.66-1-5.18-2.11l-1.4-.17c4.64-4.03 5.82-8.81 7.2-13.45l.61.18c1.73-.45 3.58.68 4.46 2.24z" fill="#efede7"/><path d="m177.43 462.91c.17 0 .35.01.54.03-.22.26-.46.5-.72.73.04-.26.1-.51.18-.75z" fill="#ff9554"/><path d="m137.179 406.9-.02-1.43c.14-2.87-.05-5.74-.59-8.57-.15-.78-.33-1.57-.53-2.35 3.59-.99 7.5-.45 11.03.76 3.52 1.21 6.74 3.06 10.01 4.77l.25.03c-.61 1.98-.85 3.87-.59 5.53.77 4.92 6.03 8.53 12.7 8.47 1.73-.02 3.6-.82 5.13-1.67l.12.21c.75 3.61 1.67 6.63 2.61 9.34.6 1.77 1.21 3.4 1.78 4.98-3.12 1.07-7.54 1.1-10.67.06-.98-.32-1.85-1.01-2.79-1.69l-.62.67c-6.88 2.85-14.67 6.68-21.05 10.43-.54-1.66-1.77-2.94-3.17-4.11-.83-.7-1.73-1.37-2.56-2.06-2.22-1.83-4.27-4.53-3.38-7.17.32-.94 1.02-1.87.77-2.84-.17-.7-.8-1.2-1.41-1.64-2.58-1.83-5.56-3.3-7.54-5.71-1.79-2.17-2.61-4.06-2.22-6.78 4.31.51 8.53.84 12.74.77z" fill="#efede7"/><path d="m180.571 120.449c-3.54 6.17-7.31 11.78-14.28 13.24l-.77.1c-.98-1.84-1.96-3.63-.92-6.45l-.03-.15c5.62-1.13 10.91-3.96 16-6.74z" fill="#dabbf2"/><path d="m174.66 463.649.07.31c-7.17 1.54-16.44 5.35-23.6 4.33-.39-.45-.54-3.6-.62-5.64.39-.19.77-.37 1.16-.55 2.27-1.05 5.83-1.84 7.75-3.38 1.28-1.04 1.84-2.67.3-2.45h-.01c-2.94-.25-6.79.33-10.12 1.42-1.33-2.88-3.83-5.23-4.86-8.52 7.71-1.04 15.64-.84 17.41-5.98 2.88 2.46 5.85 6.16 7.46 9.6 1.69 3.62 3.38 7.24 5.06 10.86z" fill="#f5eb9e"/><path d="m171.91 371.489c.27 1.7-.6 3.44-1.86 4.63-1.25 1.19-2.85 1.94-4.43 2.66-2.12.98-4.42 1.99-6.73 1.61-.61-.1-1.21-.41-1.74-.86-1.48-1.23-2.47-3.48-1.84-5.08l-.11-.46c1.4-.35 2.69-.71 3.6-1.11 2.76-1.21 4.89-2.57 6.57-4.02l1.4.17c1.52 1.11 3.31 1.84 5.18 2.11z" fill="#efede7"/><path d="m86.3903 148.72c-1.9.58-3.86 1.17-5.78 1.85-5.06 1.76-9.85 4.13-12.54 8.61 2.97-11.08 9-18.78 16.36-27.01 1.04-1.17 2.1-2.34 3.19-3.54 10.82-9.4 24.6397-15.33 38.9197-16.63 8.12-.74 16.61-.1 24.08-3.34.54.11 1.07.22 1.6.33 10.92 2.22 20.66 3.71 28.35 11.46-5.09 2.78-10.38 5.61-16 6.74-1.5.31-3.03.49-4.58.51-2.11.03-4.21-.39-6.3-.91-2.36-.59-4.71-1.31-7.08-1.67-.85-.14-1.7-.22-2.55-.24-4.21-.08-8.25.7-12.17 1.99-4.43 1.46-8.71 3.56-12.93 5.8-1.11.59-2.22 1.18-3.32 1.78-2.09 1.13-4.2 2.31-6.34 3.5-7.39 4.12-15.0597 8.35-22.9097 10.77z" fill="#dabbf2"/><path d="m165.831 141.209c.98 1.56 1.61 3.33 1.78 5.15.33 3.58-.33 11.75-8.24 14.01l-.31-.03c.55-5.02-1.16-7.98-.5-12.93-6.66-3.85-7.3-8.78-6.51-13.68.36-2.24 1.03-4.48 1.56-6.6l.08-.34c2.09.52 4.19.94 6.3.91 1.55-.02 3.08-.2 4.58-.51l.03.15c-1.04 2.82-.06 4.61.92 6.45 1 1.9 2.01 3.87.83 7.08z" fill="#efede7"/><path d="m159.722 456.27c1.54-.22.98 1.41-.3 2.45-1.92 1.54-5.48 2.33-7.75 3.38-.39.18-.77.36-1.16.54-.03-.8-.04-1.43-.06-1.67-.02-.3-.05-.59-.1-.88 2.76-1.16 5.52-2.32 8.27-3.48.45-.19.8-.29 1.09-.34z" fill="#f5eb9e"/><path d="m149.59 457.691c3.33-1.09 7.18-1.67 10.12-1.42-.29.05-.64.15-1.09.34-2.75 1.16-5.51 2.32-8.27 3.48-.14-.85-.41-1.64-.76-2.4z" fill="#efede7"/><path d="m123.969 159.31c.92-.54.5-2.29-.57-2.34-.29.58-.57 1.26-.32 1.85.13.32.5.5.84.5 0 0 .01 0 .01.02.02-.01.03-.02.04-.03zm34.59-11.9c-.66 4.95 1.05 7.91.5 12.93-.2 1.87-.72 4.03-1.79 6.68l.03.05c-5.85 3.72-10.22 10.76-10.11 18.9h-.43c-2.74 3.84-10.07 5.19-10.53 5.27-.46-2.88-1.1-5.75-1.74-8.55-1.81 3.13-3.63 6.33-5.04 9.65l-.56-.24c-9.16.83-22.49 1-29.5601-6.11-1.29-5.44-2.28-11.06-3.67-15.1.05 2.37-.67 6.09-1.58 10.02h-.04s-3.6-4.46-4.09-9.93l-.07-.05c4.08-5.55 6.29-13.65 7.25-19.9 6.0001-1.04 11.9601-6.44 12.4901-12.5l-.32-.58c2.14-1.19 4.25-2.37 6.34-3.5 1.1-.6 2.21-1.19 3.32-1.78l.92.25c2.05 2.78 9.9 5.68 17.73 1.33l.17-.29c2.96 1.9 7.27 2.63 13.8-.27l.47.04c-.79 4.9-.15 9.83 6.51 13.68zm-19.59 20.2c-7.87-3.05-16.56-1.47-23.45 5.33 7.84 3.57 17.93 1.27 23.45-5.33z" fill="#f5eb9e"/><path d="m157.151 379.53-.66.72c-3.78 4.46-12.44 6.12-17.86 3.92l-.74-.36c.71-1.66.86-3.53.13-4.91l-.06-.48c.32-.05.64-.08.96-.12 2.99-.35 6.05-.73 8.72-2.1 1.71-.88 4.86-1.53 7.56-2.21l.11.46c-.63 1.6.36 3.85 1.84 5.08z" fill="#efede7"/><path d="m154.439 248.53c.2 1.92.26 5.72-.83 6.39-3.56 2.18-7.94-14.74-6.67-19.82.31-1.26.73-2.48 1.19-3.69 2.81 6.15 5.88 12.93 6.31 17.12z" fill="#ffd127"/><path d="m146.611 125.121c2.37.36 4.72 1.08 7.08 1.67l-.08.34c-.53 2.12-1.2 4.36-1.56 6.6l-.47-.04c-6.53 2.9-10.84 2.17-13.8.27-2.96-1.89-4.57-4.93-5.74-6.62l-.15-.47c3.92-1.29 7.96-2.07 12.17-1.99.85.02 1.7.1 2.55.24z" fill="#efede7"/><path d="m124.579 104.64c.47-.24.94-.54 1.42-.93-.18.12-.74.5-1.42.93zm-11.94 5.5c.77-.22 1.57-.51 2.02-.68 1.23-.47 2.38-1.14 3.63-1.56 2.58-.87 5.23-1.58 7.61-.26-1.44-1.03-2.76-.86-4.45-1.38.32.1 1.87-.83 3.08-1.59-1.37.69-2.7.82-4.04 1-2.55.34-4.65.49-7.11 1.44-.63.24-1.27.49-1.78.92-.26.22-.48.5-.62.81 0 0 0 .01-.02.01h.02c-.15.29-.21.62-.17.94-.74.93.5.74 1.83.35zm-25.0202 18.49c-1.09 1.2-2.15 2.37-3.19 3.54l-.36-.32c-2.05-7.12 1.6-17.79 6.71-23.16 1.54-1.63 3.13-3.22 4.8-4.72 1.74-1.57 3.56-3.04 5.4902-4.3601 7.93-5.42 20.02-9.03 30.6-7.86 9.44 1.05 17.68 5.9 20.67 16.6701l-.12.57c-.53-.11-1.06-.22-1.6-.33-7.47 3.24-15.96 2.6-24.08 3.34-14.28 1.3-28.1002 7.23-38.9202 16.63z" fill="#dabbf2"/><path d="m148.262 85.6405c2.84 5.11 3.87 16.9405 4.08 22.7805-2.99-10.7705-11.23-15.6205-20.67-16.6705l2.07-.22c.76-6.68 3.92-13.06 8.78-17.72.7 4.36 3.6 7.98 5.74 11.83z" fill="#f5eb9e"/><path d="m134.659 467.16c-.22-.08-.45-.14-.69-.16 5.46-2.31 10.92-4.61 16.38-6.91.05.29.08.58.1.88.02.24.03.87.06 1.67-4.76 2.24-9.43 4.67-13.99 7.29.06-1.19-.76-2.35-1.86-2.77z" fill="#f5eb9e"/><path d="m142.472 295.279-.57.2c-1.94.04-5.83.51-9.48-.07 1.32-5.34 2.38-10.46 3.68-13.46 2.6 4.19 4.74 8.67 6.37 13.33z" fill="#ffd127"/><path d="m93.1994 416.229-.11-.2c.79-4.78.22-7.96 1.59-12.62 1.26-4.26 3.08-8.85 7.2096-11 4.29-2.23 9.89-.99 13.72 1.87 2.63 1.97 4.84 4.86 6.64 7.83.81 1.35 1.54 2.72 2.19 4.02-.39 2.72.43 4.61 2.22 6.78 1.98 2.41 4.96 3.88 7.54 5.71.61.44 1.24.94 1.41 1.64.25.97-.45 1.9-.77 2.84-.89 2.64 1.16 5.34 3.38 7.17.83.69 1.73 1.36 2.56 2.06l-.5.85c-6.44 3.68-13.6 6.26-21.02 7.58-4.42.78-9.02 1.12-13.4.17-3.6-.77-6.9296-2.38-10.2096-3.97-5.46 6.33-11.47 12.24-17.94 17.67-.32.27-.68.55-1.1.58h-.06c-.44 0-.82-.27-1.16-.54-3.93-3.06-7.85-6.13-11.78-9.2-.28-.21-.55-.43-.83-.64-.21-.17-.41-.33-.62-.49-.29-.23-.62-.54-.52-.89.05-.17.19-.3.33-.42 1.22-1.07 2.43-2.14 3.65-3.2 1.3-1.14 2.6-2.28 3.89-3.42 3.85-3.39 7.7-6.77 11.55-10.15 2.31-2.02 4.61-4.05 6.91-6.07 1.64-1.43 3.31-2.89 5.23-3.96z" fill="#dabbf2"/><path d="m138.021 378.9c.73 1.38.58 3.25-.13 4.91-.64 1.51-1.74 2.84-3.03 3.46-2.71 1.29-5.91.94-8.83.25-1.89-.44-3.75-1.01-5.56-1.71-.56-.21-1.14-.45-1.55-.89-.09-.1-.17-.2-.23-.31-.6-.94-.41-2.25 0-3.33.46-1.2 1.14-2.37 1.1-3.66l.06-.44c2.34.35 4.63 1.09 6.98 1.45 3.68.56 7.43.21 11.13-.21z" fill="#efede7"/><path d="m137.781 133.959-.17.29c-7.83 4.35-15.68 1.45-17.73-1.33l-.92-.25c4.22-2.24 8.5-4.34 12.93-5.8l.15.47c1.17 1.69 2.78 4.73 5.74 6.62z" fill="#efede7"/><path d="m136.57 396.9c.54 2.83.73 5.7.59 8.57l.02 1.43c-4.21.07-8.43-.26-12.74-.77-.65-1.3-1.38-2.67-2.19-4.02l.55-.17c3.65-2.79 8.22-4.52 12.92-4.89z" fill="#efede7"/><path d="m136.229 191.239c.99 6.18 1.13 12.41-1.32 18.07-1.16 2.67-2.86 5.1-3.79 7.85-1.06 3.14-1.05 6.63.01 9.77-9.62-10.73-4.73-20.32-4.23-25.34.32-3.21 1.27-6.28 2.55-9.25 1.41-3.32 3.23-6.52 5.04-9.65.64 2.8 1.28 5.67 1.74 8.55z" fill="#ffd127"/><path d="m115.52 172.939c6.89-6.8 15.58-8.38 23.45-5.33-5.52 6.6-15.61 8.9-23.45 5.33z" fill="#efede7"/><path d="m110.982 108.84c.14-.31.36-.59.62-.81.51-.43 1.15-.68 1.78-.92 2.46-.95 4.56-1.1 7.11-1.44 1.34-.18 2.67-.31 4.04-1-1.21.76-2.76 1.69-3.08 1.59 1.69.52 3.01.35 4.45 1.38-2.38-1.32-5.03-.61-7.61.26-1.25.42-2.4 1.09-3.63 1.56-.45.17-1.25.46-2.02.68-1.33.39-2.57.58-1.83-.35-.04-.32.02-.65.17-.94zm.01-.01c.85-.23 1.62-.43 2.34-.61-.55.42-1.06.89-1.51 1.41.93-.43 1.87-.86 2.8-1.29.94-.29 1.85-.63 2.75-1.02-.61.13-1.16.21-1.68.27 1.17-.35 2.34-.76 3.72-1.39-.19-.1-.4-.09-.61-.07-1.75.14-3.45.74-4.91 1.7-.92.15-1.82.4-2.9 1z" fill="#efede7"/><path d="m120.311 458.539c.03 3.77-.32 7.71-.66 11.46-.05.59-.12 1.21-.43 1.72-.27.45-.7.78-1.15 1.05-2.95 1.76-6.79 1.37-9.89-.11-.76-.37-1.52-.82-1.95-1.55-.56-.92-.47-2.09-.36-3.16.03-.31.06-.61.09-.9.25-2.72.35-4.79.43-5.96.06-.8.11-1.17.21-1.05 2.36 2.95 4.65 2.62 7.18 2.22 2.53-.41 4.89-1.75 6.53-3.72z" fill="#f5eb9e"/><path d="m119.851 377.18-.06.44c.04 1.29-.64 2.46-1.1 3.66-.41 1.08-.6 2.39 0 3.33l-.07.05c-1.92-.5-3.94-.11-5.91-.07-1.98.03-4.2-.42-5.32-2.05l-.34-.17c.84-1.72 1.53-3.73 2.62-4.99l-.02-.22c3.24-.26 6.35-.47 9.64-.06.19.02.37.05.56.08z" fill="#efede7"/><path d="m109.65 377.161.02.22c-1.09 1.26-1.78 3.27-2.62 4.99-.38.77-.78 1.47-1.26 2.03-2.2 2.58-6.9802 3.65-10.2002 2.58l-.28.12c-1.6-3.57-3.32-7.12-5.79-10.14-.37-.46-.77-.97-1.18-1.51l.2101-.15c8.67 2.95 15.0901 2.33 21.1001 1.86z" fill="#efede7"/><path d="m87.5794 163.639-.73-.1c-2.46-1.46-4.18-3.56-5.16-6.08-.75-1.93-1.06-4.12-.93-6.47l-.15-.42c1.92-.68 3.88-1.27 5.78-1.85 7.85-2.42 15.5196-6.65 22.9096-10.77l.32.58c-.53 6.06-6.49 11.46-12.4896 12.5-.96 6.25-3.17 14.35-7.25 19.9-1.72 2.35-3.78 4.25-6.21 5.36 2.07-3.06 3.27-7.84 3.91-12.65z" fill="#efede7"/><path d="m106.358 461.091h.03c-.08 1.17-.18 3.24-.43 5.96l-.87-.07c-.61.07-1.23.01-1.81-.17-.74-.24-1.43-.69-1.84-1.35-.4-.66-.23-1.44-.11-2.21.45-3.08 4.12-2.18 5.03-2.16z" fill="#dfd1bc"/><path d="m99.3304 185.991c.64 2.76 1.3596 5.47 2.2396 7.9 1.5 4.14.38 11.48-1.32 16.57-1.2496 3.76.21 27.68.21 27.68-9.2796-13.72-10.6896-34.64-9.6896-42.5.41-3.3 2.04-9.23 3.31-14.73.91-3.93 1.63-7.65 1.58-10.02 1.39 4.04 2.38 9.66 3.67 15.1z" fill="#ffd127"/><path d="m96.0211 473.1c2.15 1.83 4.3399 3.81 5.3499 6.45-.5 3.43-4.6399 4.21-7.3199 3.78-.54-.68-1.08-1.37-1.62-2.05-.98-1.24-2.57-3.3-2.19-5.04.38-1.73 2.84-2.66 4.29-3.28.32-.14.67-.28 1.01-.18.18.06.33.19.48.32z" fill="#efede7"/><path d="m94.8817 103.21.7.76c-1.67 1.5-3.26 3.09-4.8 4.72-5.11 5.37-8.76 16.04-6.71 23.16-3.35-5.14-4.49-15.71-3.78-21.8.72-6.1 2.17-12.1802 1.6-18.2902 4.38 3.38 9.4 7.23 12.99 11.4502z" fill="#f5eb9e"/><path d="m95.3108 387.1c.05.1.09.21.14.31-1.54 2.28-3.93 4.71-5.83 6.7-.69.73-1.41 1.44-2.31 1.89-1.48.75-3.21.68-4.87.7-4.39.04-5.25-.75-9.38.72l-.06.06c-.7-.7-1.34-1.45-1.87-2.3-3.48-5.67-.64-13.74-4.44-19.19-.86-1.24-2.05-2.2-3.39-2.86l.03-.03c4.22-3.7 4.32-4.5 9.86-5.39 2.13-.34 4.32-.45 6.43-.04 3.36.66 6.34 4.68 8.72 7.78.41.54.81 1.05 1.18 1.51 2.47 3.02 4.19 6.57 5.79 10.14z" fill="#efede7"/><path d="m86.0187 459.89c.88-.31 8.6.02 8.37 1.27-.41 2.2-.98 4.38-1.71 6.49-.04.13-.08.25-.18.34-.14.13-.36.13-.55.13-2.48-.04-4.95-.08-7.43-.12-.18-.72-.37-1.45-.56-2.18-.61-2.36-.53-5 2.06-5.93z" fill="#efede7"/><path d="m56.5218 228.52c-.34-4.5-.14-9.34.15-13.46.29-4.05.66-6.72 1.12-10.75 4.82 0 5.47 5.12 5.65 8.24.07 1.15 1.15 2.79 1.61 5.78-.3-5.48-.1-11.34 2.41-15.33 3.94 2.13 5.39 4.85 4.57 10.87-.14 1.01-.45 2.01-.31 3.02.26 1.89 2.08 3.45 2.01 5.33 0-.08.02-.16.03-.24.76-4.63 2.03-10.54 4.25-13.02 5.61 3.6 3.82 8.37 3.84 12.95.01 3.6.82 7.19 2.37 10.48 2.09 4.43 5.49 8.33 6.83 13.01.8 2.77.83 5.68.69 8.55-.35 7.25-1.85 14.6-5.66 20.92-2.29 3.8-5.51 7.19-9.36 9.61-2.56 1.61-5.4 2.8-8.44 3.38-1.42-9.28-3.47-19.86-7.8-28.31-.87-1.7-1.85-3.35-2.86-4.98-1.84-2.95-3.78-5.86-5.39-8.93-1.98-3.79-3.42-7.79-4.74-11.83-.34-1.04-.68-2.09-1.01-3.13-1.1-3.42-5.24-6.91-5.22-10.48.05-5.46 3.88-10.04 5.58-16.15 2.34 1.21 3.98 3.46 4.52 5.91.01.02.02.04.01.06.26 1.17.26 2.38-.03 3.55-.37 1.46-1.15 2.85-1.23 4.35-.22 3.9 5.57 6.79 6.41 10.6z" fill="#f5eb9e"/><path d="m57.4885 412.5c.22.88.43 1.76.64 2.64l.5 1.4c1.02-.34 2.0499-.65 3.0999-.94.96-.28 1.9401-.53 2.9201-.74l-.11-.46c-.2-1.23-.39-2.4-.59-3.51-.52-2.93-1.0401-5.47-1.6501-7.71-.28-1.05-.57-2.09-.86-3.14.68-1.19 1.0101-2.58 1.0501-3.96.04-1.4-.2401-2.86-1.0301-4.01-.72-1.04-1.79-1.75-2.89-2.39-1.51-5.43-3.05-10.88-4.59-16.33l.91-.26c2.59-1.35 5.8-1.24 8.41.04 1.34.66 2.5301 1.62 3.3901 2.86 3.8 5.45.9599 13.52 4.4399 19.19.53.85 1.17 1.6 1.87 2.3 1.73 1.72 3.84 3.13 5.52 4.92 2.89 3.09 4.44 7.38 4.19 11.6s-2.29 8.31-5.53 11.03l-.03.59c-1.86-.06-3.73.02-5.58.24-1.75.2-3.48.52-5.18.98-1.42.37-2.85.86-3.93 1.8-.95.83-1.56 2.09-1.34 3.26l-.25.04c-.72.54-1.24 1.3-1.5 2.13l-.3099-.09c-1.89.42-3.8201.28-5.6401-.29-3.66-1.12-6.91-3.96-8.69-7.43-2.65-5.21-2.5199-11.43-1.2399-17.13.57-2.54 1.3599-5.16.7999-7.7-.71-3.19-3.38-5.54-4.9-8.44-1.77-3.38-1.88-7.58-.28-11.04 1.42-3.09 4.16-5.53 7.37-6.62.39-.14.79-.26 1.2-.35l.37-.1c1.44 5.48 2.84 10.96 4.22 16.44-.54.6-.8499 1.17-.9399 1.43-.75 2.1-.9501 4.46-.1401 6.53.69 1.75 2.19 3.24 3.99 3.72.78 3.16 1.5501 6.33 2.3101 9.5z" fill="#f5eb9e"/><path d="m82.4894 472.51c.12 2.2.23 4.48-.41 6.53-2.58.51-5.17 1.02-7.75 1.53-1.21.24-2.01-6-1.42-7 .84-1.41 4.56-2.13 5.85-2.33 1.09-.17 2.21 0 3.25.47.15.07.31.16.4.33.07.14.08.31.08.47z" fill="#efede7"/><path d="m81.6903 157.46-.56.22c-3.44 1.34-8.84 2-12.52 1.76l-.54-.26c2.69-4.48 7.48-6.85 12.54-8.61l.15.42c-.13 2.35.18 4.54.93 6.47z" fill="#dabbf2"/><path d="m72.4992 429.279c.16-1.34 1.56-2.21 2.9-2.41 1.14-.18 3.24-.65 4.67-.86.25-.04.49-.07.69-.09l.3.34c-3.85 3.38-7.7 6.76-11.55 10.15l-.27-.31c-2.09-.06-4.99-.77-6.59-2.02-.59-.47-1.13-1.02-1.4-1.71-.06-.16-.11-.31-.13-.47-.22-1.17.39-2.43 1.34-3.26 1.08-.94 2.51-1.43 3.93-1.8 1.7-.46 3.43-.78 5.18-.98l.02.2c-.03.48.91 2.68.91 3.22z" fill="#efede7"/><path d="m76.7513 284.52c.74 6.83-.71 13.85-4.11 19.93-3.51-7.02-2.2701-4.86-4.3601-16.59 3.04-.58 5.8801-1.77 8.4401-3.38z" fill="#fca265"/><path d="m76.6084 455.209v.18c-1.26 2.26-2.84 4.73-5.15 5.86-.59.29-1.23.49-1.93.58-2.98.37-5.63-1.56-8.23-2.98-6.1-3.35-13.52-4.24-19.37-7.95-.89-.57-1.76-1.22-2.24-2.12-.49-.9-.48-2.09.26-2.82.28-.27.64-.45 1.02-.59.22-.08.46-.15.69-.21 2.15-.53 4.35-.57 6.57-.43l-.02.42c.69.17 1.28.72 1.5 1.4s.06 1.47-.4 2.01c.57-.6 1.15-1.21 1.87-1.62s1.61-.61 2.39-.34c1.05.36 1.7 1.61 1.39 2.68.61-.73 1.23-1.47 2.05-1.93s1.9-.6 2.69-.08c.64.42.97 1.25.83 2-.05.14-.08.27-.12.41.06-.13.1-.27.12-.41.19-.71.42-1.42.81-2.05.47-.75 1.2-1.38 2.07-1.5l.2-.25c3.93 3.07 7.85 6.14 11.78 9.2.34.27.72.54 1.16.54z" fill="#efede7"/><path d="m71.4588 461.251.35.7c-3.04 3.33-9.22 3.62-12.53.49-.75-.7-1.38-1.56-2.32-2.03-.88-.44-1.9-.54-2.89-.58-7.3-.32-13.07-3.26-17.42-7.61-.92-.92-1.35-3.55-.59-5.08.79-1.6 3.01-1.89 4.91-1.92v.15c-.38.14-.74.32-1.02.59-.74.73-.75 1.92-.26 2.82.48.9 1.35 1.55 2.24 2.12 5.85 3.71 13.27 4.6 19.37 7.95 2.6 1.42 5.25 3.35 8.23 2.98.7-.09 1.34-.29 1.93-.58z" fill="#efede7"/><path d="m69.241 436.1.2701.31c-1.29 1.14-2.59 2.28-3.89 3.42l-.23-.26c-1.94.19-5.19-.99-5.92-2.69-.38-.89-.4-1.9-.1-2.81.26-.83.78-1.59 1.5-2.13l.25-.04c.02.16.07.31.13.47.27.69.81 1.24 1.4 1.71 1.6 1.25 4.4999 1.96 6.5899 2.02z" fill="#efede7"/><path d="m64.6511 414.851c-.98.22-1.96.47-2.92.75l-.32-1.18c-.27-.9-.53-1.8-.79-2.7 1.11-.27 2.22-.55 3.33-.83.2 1.11.39 2.28.59 3.51z" fill="#f5eb9e"/><path d="m63.9509 410.889c-1.11.28-2.22.56-3.33.83-.85-2.94-1.65-5.9-2.41-8.87 1-.37 1.9-1.03 2.58-1.85.25-.3.46-.62.65-.96.29 1.05.58 2.09.86 3.14.61 2.24 1.13 4.78 1.65 7.71z" fill="#f5eb9e"/><path d="m63.6109 445.47-.2.25c-.87.12-1.6.75-2.07 1.5-.39.63-.62 1.34-.81 2.05.14-.75-.19-1.58-.83-2-.79-.52-1.87-.38-2.69.08s-1.44 1.2-2.05 1.93c.31-1.07-.34-2.32-1.39-2.68-.78-.27-1.67-.07-2.39.34s-1.3 1.02-1.87 1.62c.46-.54.62-1.33.4-2.01s-.81-1.23-1.5-1.4l.02-.42c4.8.31 9.69 1.46 14.34.37l.21-.27c.28.21.55.43.83.64z" fill="#efede7"/><path d="m61.4603 392.07c.79 1.15 1.07 2.61 1.03 4.01-.04 1.38-.37 2.77-1.05 3.96-.94-3.44-1.9-6.9-2.87-10.36 1.1.64 2.17 1.35 2.89 2.39z" fill="#f5eb9e"/><path d="m61.4083 414.421.32 1.18c-1.05.29-2.08.6-3.1.94l-.5-1.4c-.21-.88-.42-1.76-.64-2.64l1.2-.3c.64-.16 1.29-.32 1.93-.48.26.9.52 1.8.79 2.7z" fill="#f5eb9e"/><path d="m61.4392 400.039c-.19.34-.4.66-.65.96-.68.82-1.58 1.48-2.58 1.85-1.15-4.41-2.22-8.86-3.26-13.32.83-.28 1.81-.4 2.95-.23.22.12.45.25.67.38.97 3.46 1.93 6.92 2.87 10.36z" fill="#f5eb9e"/><path d="m60.6197 411.72c-.64.16-1.29.32-1.93.48l-1.2.3c-.76-3.17-1.53-6.34-2.31-9.5.32.1.65.15.99.17.7.04 1.39-.08 2.04-.32.76 2.97 1.56 5.93 2.41 8.87z" fill="#f5eb9e"/><path d="m58.5691 389.681c-.22-.13-.45-.26-.67-.38-1.14-.17-2.12-.05-2.95.23-2.66-11.33-5.19-22.73-8.41-33.87l1.09-.31c.4-.11.8-.21 1.2-.29 1.7 6.08 3.42 12.19 5.15 18.29 1.54 5.45 3.08 10.9 4.59 16.33z" fill="#f5eb9e"/><path d="m52.5316 192.98c2.88 2.72 5.77 4.97 5.26 11.33-.46 4.03-.83 6.7-1.12 10.75-.29 4.12-.49 8.96-.15 13.46-.84-3.81-6.63-6.7-6.41-10.6.08-1.5.86-2.89 1.23-4.35.29-1.17.29-2.38.03-3.55.01-.02 0-.04-.01-.06-.4-2.25 1.95-3.55 1.71-5.86-.08-.8-.42-1.54-.67-2.3-.83-2.5-.77-6.35.13-8.82z" fill="#ffd127"/><path d="m52.2317 245.639c1.61 3.07 3.55 5.98 5.39 8.93-7.56-1.89-11.11-5.48-12.9-10.2-.42-1.11-.73-2.25-1.27-3.31-1.37-2.71-4.04-4.61-5.95-7.02-.12-.15-.24-.32-.24-.51.01-.21.18-.39.35-.53 1.25-1.05 3.04-1.41 4.69-1.17s3.82.98 5.07 2.02l.12-.04c1.32 4.04 2.76 8.04 4.74 11.83z" fill="#f5eb9e"/><path d="m58.2095 402.849c-.65.24-1.34.36-2.04.32-.34-.02-.67-.07-.99-.17-.96-3.9-1.93-7.79-2.91-11.68.59-.68 1.48-1.4 2.68-1.79 1.04 4.46 2.11 8.91 3.26 13.32z" fill="#f5eb9e"/><path d="m52.2698 391.32c.98 3.89 1.95 7.78 2.91 11.68-1.8-.48-3.3-1.97-3.99-3.72-.81-2.07-.61-4.43.14-6.53.09-.26.4-.83.94-1.43z" fill="#f5eb9e"/><path d="m46.5395 355.66c3.22 11.14 5.75 22.54 8.41 33.87-1.2.39-2.09 1.11-2.68 1.79-1.38-5.48-2.78-10.96-4.22-16.44-2.2-8.46-4.46-16.9-6.78-25.34.96-.52 1.95-.99 2.97-1.39.81 2.48 1.57 4.99 2.3 7.51z" fill="#f5eb9e"/><path d="m53.4192 433.691-.03.1c-3.85-.14-6.31-.05-9.6-2.06-3.36-2.05-5.76-5.5-6.86-9.29-1.1-3.78-.95-7.86.07-11.66.86-3.17 2.32-6.32 1.93-9.58-.21-1.81-.98-3.47-1.77-5.12-.26-.55-.53-1.1-.78-1.65-1.28-2.87-2.13-6.02-1.8-9.14.33-3.13 1.99-6.22 4.74-7.73 2.5-1.36 4.15-1.72 7.07-2.5l.09.27c-3.21 1.09-5.95 3.53-7.37 6.62-1.6 3.46-1.49 7.66.28 11.04 1.52 2.9 4.19 5.25 4.9 8.44.56 2.54-.23 5.16-.8 7.7-1.28 5.7-1.41 11.92 1.24 17.13 1.78 3.47 5.03 6.31 8.69 7.43z" fill="#f5eb9e"/><path d="m51.7709 112.641c-.7 1.01-.55 2.32.09 3.37-.02 3.54-.47 7.06-1.33 10.49-.34 1.36-.91 2.88-2.22 3.35-2.13.76-3.96-1.85-4.2-4.09-.3-2.75 1.5-6.55 3.8-9.47 1.26-1.41 2.57-2.65 3.86-3.65z" fill="#ffd127"/><path d="m41.9898 45.46 8.98-4.27c-1.75 2.34-5.12 7.65-5.17 7.91-.14.81 5.63 3.04 7.89 3.85-2.73 1.02-6.26 2.37-9.16 2.02 2.25 3.53 4.59 6.34 5.89 10.31-2.71-.93-8.9-4.12-8.9-4.12s-2.89 7.95-3.55 9.96c0 0-.98-7.24-2.08-10.28-2.35 1.76-8.09 5.95-8.09 5.95s2.7-6.6 4.2-10.15c-2.77 0-5.91.11-8.91.35 2.97-2.35 5.94-4.71 8.92-7.06-2.89-2.34-5.22-5.36-6.74-8.75 3.75 1.95 7.62 3.69 11.56 5.21.05-3.8.1-7.59.15-11.39 2.43 3.7 3.53 6.29 5.01 10.46z" fill="#ffd127"/><path d="m48.8283 355.059c-.4.08-.8.18-1.2.29l-1.09.31c-.73-2.52-1.49-5.03-2.3-7.51.8-.33 1.61-.62 2.44-.87.71 2.59 1.43 5.18 2.15 7.78z" fill="#f5eb9e"/><path d="m45.4217 342.68c.42 1.53.84 3.06 1.26 4.6-.83.25-1.64.54-2.44.87-.41-1.26-.83-2.52-1.26-3.77l-.22-1.11c.05 0 .11-.02.16-.04.55-.1 1.1-.21 1.65-.32z" fill="#f5eb9e"/><path d="m45.3886 342.559.03.12-.85.23c-.55.11-1.1.22-1.65.32l-.21-1.07c-.17-1.92-1.09-3.74-1.72-5.61-.62-1.86-.95-3.92.03-5.66l.23-.1c.23.48.42.97.62 1.45 1.39 3.39 2.78 6.79 3.52 10.32z" fill="#f5eb9e"/><path d="m44.7585 196.01c-3.44.06-9.92-9.36-10.87-12.7-.86-3.03-.23-6.26.39-9.35.72-3.52 1.43-7.04 2.15-10.56.64 3.54 1.3 7.1 2.64 10.44 1.2 2.96 2.93 5.74 3.47 8.89.43 2.5.07 5.08.39 7.6.24 2 1.01 3.88 1.83 5.68z" fill="#ffd127"/><path d="m42.9809 344.38c.43 1.25.85 2.51 1.26 3.77-1.02.4-2.01.87-2.97 1.39-.51-1.89-1.03-3.78-1.56-5.67 1.02-.2 2.03-.4 3.05-.6z" fill="#f5eb9e"/><path d="m42.7098 342.159.21 1.07s-.11.03-.16.04c-1.02.2-2.03.4-3.05.6l-.06-.24-.38-.25c-2.52-3.11-4.05-6.68-5.43-10.25.29-.05.53-.11.6-.18 4.15 1.9 7.26 5.35 8.27 9.21z" fill="#f5eb9e"/><path d="m41.2481 330.789-.23.1c-.98 1.74-.65 3.8-.03 5.66.63 1.87 1.55 3.69 1.72 5.61-1.01-3.86-4.12-7.31-8.27-9.21-.07.07-.31.13-.6.18 0 0-.0033 0-.01 0-.19-.51-.39-1.03-.58-1.54-.24-.62-.47-1.26-.45-1.91.05-1.46 1.4-2.63 2.66-3.64 1.72.1 3.25 1.06 4.26 2.24.66.77 1.13 1.63 1.53 2.51z" fill="#f5eb9e"/><path d="m36.9288 422.44c1.1 3.79 3.5 7.24 6.86 9.29-4.79 3.58-7.73 4.1-13.72 4.19-.42.01-.88 0-1.24-.23-.45-.27-.67-.8-.85-1.3-3.54-9.75-6.95-19.72-3.48-30.45.66-2.06 1.32-4.2 2.8-5.78 1.47-1.58 7.31-2.61 9.39-2.01l.47-.07c.79 1.65 1.56 3.31 1.77 5.12.39 3.26-1.07 6.41-1.93 9.58-1.02 3.8-1.17 7.88-.07 11.66z" fill="#efede7"/><path d="m32.0897 274.059c.02 1.03-.11 2.181-.33 3.391-1.84-.23-3.55-1.211-4.75-2.461-1.55-1.61-2.39-3.62-3.21-5.59-.62-1.5-1.26-3.08-.92-4.65.33-1.57 2.01-3.04 3.84-2.77 1.13.17 2 .93 2.65 1.73 2.39 2.96 2.67 6.76 2.72 10.35z" fill="#ffd127"/><g stroke="#010101" stroke-linecap="round" stroke-linejoin="round" stroke-width="2"><path d="m157.331 400.11c-.61 1.98-.85 3.87-.59 5.53.77 4.92 6.03 8.53 12.7 8.47 1.73-.02 3.6-.82 5.13-1.67.89-.48 1.66-.98 2.22-1.35 4.68-3.09 6.18-4.98 8.6-9.84 1.6 1.35 3.66 1.7 5.83 1.56 1.95-.12 3.99-.65 5.84-1.22 5.7-1.74 9.74-5.04 15.45-6.78-8.58-1.67-16.4-8.47-24.91-6.52-.21-2.35-1.69-4.28-3.76-5.57-2.59-1.62-6.1-2.23-9.15-1.42-6.69 1.79-14.94 11-17.36 18.81z"/><path d="m148.03 405.709c-3.64.78-7.25 1.13-10.85 1.19-4.21.07-8.43-.26-12.74-.77-.65-1.3-1.38-2.67-2.19-4.02-1.8-2.97-4.01-5.86-6.64-7.83-3.83-2.86-9.43-4.1-13.72-1.87-4.1302 2.15-5.9502 6.74-7.2102 11-1.37 4.66-.8 7.84-1.59 12.62"/><path d="m160.379 391.829c.02-.06.04-.13.05-.21"/><path d="m158.852 391.281c.33.26.78.33 1.2.25.29-.06.56-.19.76-.38.14-.13.24-.28.29-.46.06-.2.05-.4-.01-.58-.01-.05-.03-.09-.05-.13-.25-.56-.94-.96-1.55-.75-.02 0-.04 0-.05.02-.29.11-.52.31-.7.55-.51.62-.72 1.55-.21 2.16.46.56 1.58.46 1.84-.13"/><path d="m161.85 390.72c.47-.4.45-.59-.12-.6h-.09c-.12 0-.26 0-.41-.01h-.14c-.61-.03-1.3-.05-1.6.33.27.32.55.63.82.95.17-.08.33-.16.5-.24.27-.13.53-.26.8-.39.08-.04.15-.07.23-.11-.03-.03-.06-.06-.09-.08-.16-.17-.33-.32-.52-.46-.06-.04-.13-.09-.19-.13-.41-.26-.86-.43-1.32-.41-.24 0-.47.09-.67.22-.46.3-.75.86-.53 1.39.29.69 1.2.91 1.85.65h.01c.2-.08.38-.19.54-.32.26-.21.49-.48.69-.75.05-.06.1-.12.14-.19.05-.05.09-.11.13-.17-.05-.09-.1-.19-.15-.28-.26-.45-.57-.89-1.03-1.1-.44-.2-.92-.07-1.26.23-.17.15-.31.33-.39.54-.12.27-.14.58-.03.88.17.44.58.74 1.03.86.29.07.6.07.87-.02.23-.07.43-.2.58-.4"/><path d="m172.189 389.289c-1.26.82-1.56 2.67-.63 3.81.94 1.15 2.93 1.35 4.1.42"/><path d="m168.782 399.751c-3.48.94-7.51-.2-9.86-2.79"/><path d="m178.091 388.739c-.86-.7-1.4-1.73-1.47-2.8.61.81 1.21 1.62 1.82 2.43"/><path d="m157.079 400.08c-3.27-1.71-6.49-3.56-10.01-4.77-3.53-1.21-7.44-1.75-11.03-.76.2.78.38 1.57.53 2.35.54 2.83.73 5.7.59 8.57"/><path d="m135.721 397.051c-4.7.37-9.27 2.1-12.92 4.89"/><path d="m174.691 412.65c.75 3.61 1.67 6.63 2.61 9.34.6 1.77 1.21 3.4 1.78 4.98"/><path d="m164.999 426.011c-6.88 2.85-14.67 6.68-21.05 10.43-.54-1.66-1.77-2.94-3.17-4.11-.83-.7-1.73-1.37-2.56-2.06-2.22-1.83-4.27-4.53-3.38-7.17.32-.94 1.02-1.87.77-2.84-.17-.7-.8-1.2-1.41-1.64-2.58-1.83-5.56-3.3-7.54-5.71-1.79-2.17-2.61-4.06-2.22-6.78"/><path d="m117.999 416.829c-4.77-1.84-9.94-2.78-15.1-2.74-2.9396.01-5.9496.36-8.5996 1.57-.38.17-.74.36-1.1.57-1.92 1.07-3.59 2.53-5.23 3.96-2.3 2.02-4.6 4.05-6.91 6.07-3.85 3.38-7.7 6.76-11.55 10.15-1.29 1.14-2.59 2.28-3.89 3.42-1.22 1.06-2.43 2.13-3.65 3.2-.14.12-.28.25-.33.42-.1.35.23.66.52.89.21.16.41.32.62.49.28.21.55.43.83.64 3.93 3.07 7.85 6.14 11.78 9.2.34.27.72.54 1.16.54h.06c.42-.03.78-.31 1.1-.58 6.47-5.43 12.48-11.34 17.94-17.67 3.28 1.59 6.6096 3.2 10.2096 3.97 4.38.95 8.98.61 13.4-.17 7.42-1.32 14.58-3.9 21.02-7.58"/><path d="m106.361 404.4c.64 2.77.26 6.53-.67 9.23"/><path d="m62.5684 445.099c-4.65 1.09-9.54-.06-14.34-.37-2.22-.14-4.42-.1-6.57.43-.23.06-.47.13-.69.21-.38.14-.74.32-1.02.59-.74.73-.75 1.92-.26 2.82.48.9 1.35 1.55 2.24 2.12 5.85 3.71 13.27 4.6 19.37 7.95 2.6 1.42 5.25 3.35 8.23 2.98.7-.09 1.34-.29 1.93-.58 2.31-1.13 3.89-3.6 5.16-5.86"/><path d="m72.1188 461.591c-.1.12-.2.25-.31.36-3.04 3.33-9.22 3.62-12.53.49-.75-.7-1.38-1.56-2.32-2.03-.88-.44-1.9-.54-2.89-.58-7.3-.32-13.07-3.26-17.42-7.61-.92-.92-1.35-3.55-.59-5.08.79-1.6 3.01-1.89 4.91-1.92.08-.01.15-.01.22-.01"/><path d="m80.0392 425.831c-.96-.1-1.92-.18-2.89-.21-1.86-.06-3.73.02-5.58.24-1.75.2-3.48.52-5.18.98-1.42.37-2.85.86-3.93 1.8-.95.83-1.56 2.09-1.34 3.26.02.16.07.31.13.47.27.69.81 1.24 1.4 1.71 1.6 1.25 4.5 1.96 6.59 2.02"/><path d="m60.8711 431.939c-.72.54-1.24 1.3-1.5 2.13-.3.91-.28 1.92.1 2.81.73 1.7 3.98 2.88 5.92 2.69"/><path d="m121.469 424.529c-1.74 1.01-3.24 2.37-5.07 3.22-1.83.84-4.24 1.04-5.77-.22"/><path d="m195.979 362.58c-.27 4.08.14 8.2 1.21 12.17.16.58.33 1.15.53 1.72.3.85.66 1.68 1.14 2.45 1.63 2.63 2.92 4.58 5.83 7.28 1.99-3.96 3.19-8.25 3.57-12.61.33-3.77.04-7.58-.88-11.27"/><path d="m200.818 424.84c-2.25 0-9.01 0-13.42-4.94"/><path d="m221.02 380.32c2.85 8.13 4.44 15.94 4.28 24.18-.03 2.31-.21 4.65-.53 7.04 0 .02-.01.04-.01.06"/><path d="m197.649 376.499c-2.11 1.08-4.69.46-6.58-1.02-.85-.65-1.56-1.47-2.03-2.38-1.51-2.94-1.17-6.39-.62-9.62.8-4.76 2.07-9.65 5.3-13.4 1.64-1.89 3.91-3.41 6.36-4.19 2.4-.78 4.98-.87 7.33.04.28.11.55.23.82.37 2.62 1.31 4.51 3.73 5.6 6.35 1.2 2.88 1.55 5.99 1.85 9.07.25 2.49.48 4.98.63 7.48.26 3.96.34 7.93.05 11.89-3.32.29-5.07-4.61-7.52-7.52"/><path d="m216.781 369.17c2.19 1.53 4.24 3.35 6.03 5.38 3.46 3.87 5.97 8.5 6.67 13.33.45 3.18.32 6.4.16 9.6-.22 4.44-.6 5.22-3.93 7.03"/><path d="m191.152 375.41s-.05.04-.08.07c-2.47 1.96-4.52 4.41-5.97 7.13"/><path d="m189.18 351.181c.05.36.73.47.87.11.12-.31-.33-.61-.63-.5"/><path d="m189.35 350.84s-.04.02-.06.04c-.07.07-.11.16-.11.26v.03"/><path d="m189.171 351.19c-.14.32-.24.65-.33.98-.04.15-.08.3-.09.45-.01.05-.01.1 0 .15 0 .12.03.22.09.32.12.21.33.32.56.32.47.03 1.06-.29 1.35-.7.59-.79.83-1.79.67-2.74-.02-.02-.05-.03-.07-.04-.22-.13-.48-.19-.75-.17-.39 0-.79.16-1.08.41-.52.42-.79 1.05-.98 1.68-.06.19-.11.39-.06.58.04.15.14.26.27.34.01.01.03.02.05.03.37.17.95.06 1.22-.28.38-.49.33-1.15.25-1.75-.26-.13-.62-.12-.85.02-.02 0-.04 0-.05.03"/><path d="m189.7 350.4s-.04.03-.06.05c-.1.11-.19.24-.27.37h-.01s0 0-.01.02c-.06.1-.12.22-.17.33"/><path d="m191.65 350.9c.29-.25.18-.63-.1-.89-.21-.21-.52-.34-.82-.29-.04 0-.09.02-.13.04-.33.08-.6.3-.82.56-.03.03-.06.05-.08.08-.1.12-.19.26-.28.39l-.15.24s-.06.09-.09.14l-.01.02c-.22.37-.42.76-.44 1.18 0 .08 0 .17.02.25.01.06.03.12.05.18.1.28.31.52.6.61.04.02.09.03.13.04.28.04.56-.07.82-.18.71-.31 1.39-.76 1.71-1.42.29-.64.12-1.5-.51-1.84-.03-.02-.07-.04-.1-.05s-.06-.03-.1-.03c-.53-.19-1.15.02-1.57.39"/><path d="m234.462 349.71c1.07-.45 2.54-.54 3.98-.53 1.1.01 2.19.08 3.09.1 2.16.05 4.33-.21 6.41-.75 1.21-.32 2.39-.73 3.52-1.24.42-.18.86-.41 1.06-.8.2-.4.1-.87 0-1.3l-2.34-9.96c-1.55-6.63-3.11-13.26-4.66-19.89h-.04c-.52 0-1.35 1.19-1.7 1.54-1.68 1.66-3.91 3.17-6.35 2.97-1.46-.12-2.77-.83-4.03-1.53-1.2-.67-3.35-2.29-4.55-2.96-1.09 2.75-1.49 6.36-3.09 8.88"/><path d="m233.641 359.389c-.56-3.2-.16-6.45.1-9.7.13-1.66.22-3.32.14-4.98-.22-4.22-1.6-8.3-3.1-12.28-.81-2.15-1.69-4.34-3.22-6.11-.63-.73-1.4-1.39-2.26-1.89-.65-.39-1.35-.69-2.08-.86-.63-.17-1.29-.23-1.95-.19-2.03.13-3.7 1.2-5.06 2.65-1.06 1.13-1.93 2.49-2.64 3.81-.42.77-.81 1.58-1.18 2.41-1.94 4.32-3.29 9.34-4.02 13.78"/><path d="m247.989 348.74c.01 7.89-2.62 14.41 3.98 23.14 1.79 2.36 3.39 5.05 3.71 7.95.07.67-.04 1.5-.69 1.79-.84.38-1.71-.45-2.24-1.17-1.49-2.06-2.98-4.11-4.48-6.17.82 2.13 1.63 4.26 2.44 6.39.3.77.6 1.6.44 2.41-.15.81-.93 1.58-1.8 1.45-.86-.12-1.33-.99-1.66-1.74-.92-2.1-1.83-4.19-2.75-6.28.46 2.17.93 4.33 1.39 6.49.13.63.25 1.35-.18 1.85-.87 1.01-2.57-.04-3.4-1.08-2.56-3.23-4.71-6.88-5.32-10.87-.17-1.11-.22-2.22-.19-3.33.18-6.81 3.43-13.75 1.2-20.25"/><path d="m237.238 369.57c-.84 3.1-5.2 5.06-6.76 5.7-2.49 1.04-4.86.53-7.58-.8"/><path d="m222.949 337.85c.21 6.99.41 13.98.61 20.96.11 3.79-.78 8.74-2.68 12.09"/><path d="m215.459 325.249c-2.25-2.8-3.49-6.29-3.51-9.79 0-1.61.25-3.24.97-4.71.78-1.6 2.07-2.94 3.44-4.15 2.55-2.21 5.15-4.44 8.3-5.81.94.59.84 2.36.24 3.26-.91 1.4-2 2.69-3.23 3.86 1.64-1.1 2.32-3.22 4.02-3.48.05-.01.1 0 .15.03.26.13.52.64.72.81.19.16.44.9.47 1.15.3 1.99-1.73 4.37-3.41 5.63 1.54-1.12 2.87-2.13 3.87-1.78.13.05.27.12.39.22 1.03.84 1.09 2.41.42 3.52-.26.42-.59.78-.97 1.1-.65.52-1.43.9-2.23 1.19-.53.2-1.09.36-1.54.68-.85.6-1.18 1.68-1.1 2.67.07.94.44 2.66.83 3.63.03.06.05.12.08.18"/><path d="m247 293.649c-.97-.57-2.92-2.39-5.69-3.37-1.1-.4-2.33-.66-3.67-.66-.95 0-1.78.61-2.55 1.14-4.05 2.73-7.11 8.58-8.59 13.17-.06.18-.11.35-.16.52"/><path d="m226.53 296.68c-.01.18.01.39.16.5.16.1.44-.08.33-.23"/><path d="m229.069 295.031c-.03-.07-.06-.12-.1-.18-.32-.42-1.08-.46-1.58-.16-.05.03-.1.06-.14.1-.53.46-.67 1.18-.72 1.86v.03c-.03.41.05.93.47 1.06.34.11.7-.13.95-.38.61-.64.98-1.48 1.02-2.34v-.17c-.01-.15-.03-.28-.11-.4-.32-.45-1.07-.17-1.47.24-.02.02-.03.04-.05.06-.46.54-.74 1.21-.81 1.9"/><path d="m246.531 295.52c.17-.61.35-1.23.57-1.82.32-.88.73-1.71 1.36-2.42.4-.45.9-.83 1.45-1.1.93-.45 2-.59 2.94-.2 1.28.53 1.99 1.9 2.02 3.22.02 1.31-.51 2.57-1.13 3.75-.7 1.32-1.52 2.59-2.44 3.79-.32.42-.67.87-.71 1.38-.01.05-.01.1-.01.15.01.4.22.77.42 1.12 3.21 5.58 5.46 11.64 6.64 17.87.56 2.94.87 6.04-.21 8.85s-3.91 5.22-7.09 5.08"/><path d="m249.571 289.28c-.11-1.02-.06-.5-.26-1.51-.21-1.02-.71-2.04-1.63-2.59-1.34-.8-3.21-.35-4.34.69-1.12 1.05-1.62 2.54-1.88 4.01"/><path d="m197.401 396.19c-1.01-.02-3.18 1.81-5.6 1.66-.7-.04-3.23-.74-3.84-.42-1.18.63-1.26 2.16-2.57 3.82"/><path d="m243.93 311.17c-.02 1.3.9 2.48 2.08 3.2.08.05.16.1.24.14 1.29.69 2.79.94 4.26 1.18"/><path d="m247.001 293.66c-.94.57-1.69 1.41-2.2 2.38-1.01 1.94-1.08 4.41.07 6.29.08.13.17.27.14.43-.04.2-.27.31-.46.4-1.46.73-1.85 2.62-1.84 4.25 0 .57.04 1.16.32 1.66.26.45.66.73 1.14.88.85.27 1.92.11 2.77-.29"/><path d="m68.2812 287.861c3.04-.58 5.8801-1.77 8.4401-3.38 3.85-2.42 7.07-5.81 9.36-9.61 3.81-6.32 5.3099-13.67 5.6599-20.92.14-2.87.1101-5.78-.6899-8.55-1.34-4.68-4.74-8.58-6.83-13.01-1.55-3.29-2.3601-6.88-2.3701-10.48-.02-4.58 1.7701-9.35-3.8399-12.95-2.22 2.48-3.49 8.39-4.25 13.02-.01.08-.03.16-.03.24-.55 3.57-.17 7.21.32 10.79.62 4.52 2.89 3.79 5.28 8.06"/><path d="m71.0815 242.97c-5.05-6.01-4.97-10.46-5.48-17.26-.16-2.2-.41-4.75-.55-7.38-.3-5.48-.1-11.34 2.41-15.33 3.94 2.13 5.39 4.85 4.57 10.87-.14 1.01-.45 2.01-.31 3.02.26 1.89 2.08 3.45 2.01 5.33v.16"/><path d="m63.2183 244.801c-4.8-3.72-4.72-5.23-5.96-10.94-.36-1.67-.6-3.48-.74-5.34-.34-4.5-.14-9.34.15-13.46.29-4.05.66-6.72 1.12-10.75 4.82 0 5.47 5.12 5.65 8.24.07 1.15 1.15 2.79 1.61 5.78.08.53.14 1.11.17 1.73"/><path d="m57.7017 254.589s-.05-.01-.08-.02c-7.56-1.89-11.11-5.48-12.9-10.2-.42-1.11-.73-2.25-1.27-3.31-1.37-2.71-4.04-4.61-5.95-7.02-.12-.15-.24-.32-.24-.51.01-.21.18-.39.35-.53 1.25-1.05 3.04-1.41 4.69-1.17s3.82.98 5.07 2.02"/><path d="m68.2812 287.86c2.09 11.73.8501 9.57 4.3601 16.59 3.4-6.08 4.85-13.1 4.11-19.93"/><path d="m127.811 364.06c-4.08-1.2-7.56-4.33-9.18-8.26-.99-2.39-1.411-5.16-3.291-6.92-.8-.74-1.799-1.24-2.629-1.95-4.11-3.55-2.49-10.92-6.42-14.66.83 2.48-.42 5.16-1.79 7.39s-2.95 4.58-2.83 7.2c.09 1.96 1.14 3.73 1.68 5.61.53 1.83.58 3.79.16 5.64-.27 1.16-.77 2.31-.68 3.5.41 5.66 5.73 8.91 6.92 8.99"/><path d="m102.481 308.64c0-6.22-1.99-9.81-4.4295-13.86-1.31-2.18-2.63-4.39-3.3-6.83-.57-2.12-.64-4.37-.18-6.51.91-4.24 3.73-7.78 5.5595-11.71 3.09-6.65 3.27-14.23 3.39-21.56.99 9.69 7.34 18.84 5.59 28.42-1.25 6.8-6.69 10.16-3.46 18.08"/><path d="m102.201 341.99c-2.18-3.88-4.4195-7.92-4.7195-12.36-.16-2.38.24-4.77.03-7.15-.33-3.75-2.15-7.19-3.94-10.5.58 3.91 0 7.99-1.65 11.58-1.35 2.94-3.39 5.56-4.45 8.62-1.13 3.28-1.02 6.97.29 10.19 1.01 2.46 2.68 4.61 3.85 7 1.96 3.99 2.47 8.5 2.95 12.92"/><path d="m63.3281 373.1c4.22-3.7 4.32-4.5 9.86-5.39 2.13-.34 4.32-.45 6.43-.04 3.36.66 6.34 4.68 8.72 7.78.41.54.81 1.05 1.18 1.51 2.47 3.02 4.19 6.57 5.79 10.14.05.1.09.21.14.31-1.54 2.28-3.93 4.71-5.83 6.7-.69.73-1.41 1.44-2.31 1.89-1.48.75-3.21.68-4.87.7-4.39.04-5.25-.75-9.38.72"/><path d="m117.152 287.66c2.76-9.17 2.34-19.28-1.19-28.2-1.71-4.33-4.15-8.42-5.1-12.98-2.85-13.69 8.18-24.66 5.11-38.3 4.2 8.1 6.3 14.41 6.05 23.53-.17 5.99.75 6.39 3.57 11.68 1.41 2.66 3.68 4.74 5.39 7.21 3.91 5.63 4.69 8.78 5.35 15.61"/><path d="m179.149 276.179c5.69-3.37 8.07-10.43 8.61-17.02.55-6.59-.28-13.3 1.05-19.78.49-2.41 1.28-4.75 1.75-7.16 1.12-5.7.44-11.6-.78-17.27-.53 7.28-4.16 14.28-9.8 18.91-2.77 2.27-6.07 4.09-7.88 7.17-1.55 2.64-1.77 5.84-1.69 8.9.16 6.53 1.49 13.04 3.9 19.11"/><path d="m194.91 275.09c1.22-3.7 3.25-7.14 5.91-10.01 1.73-1.87 3.71-3.49 5.43-5.37 4.77-5.24 7.22-12.27 8.1-19.3.89-7.04.32-14.16-.24-21.23-1.82 6.93-4.96 13.51-9.2 19.29-2.83 3.86-6.2 7.45-7.94 11.91-1.78 4.58-1.68 9.66-1.56 14.58"/><path d="m191.851 289.49c2.16-4.72 4.65-9.79 9.3-12.1 2.17-1.08 4.63-1.44 6.9-2.29 8.68-3.24 13.17-12.79 15.42-21.78.64 14.36-5.5 28.88-16.25 38.42-3.25 2.87-6.88 5.32-9.87 8.45-6.37 6.67-9.3 15.81-12.03 24.61 5.31-1.09 10.38-3.35 14.74-6.58-6.38 10.02-14.53 18.77-22.63 27.47-2.72 2.92-3.85 6.28-4.86 9.72-1.38 4.64-2.56 9.42-7.2 13.45-1.68 1.45-3.81 2.81-6.57 4.02-.91.4-2.2.76-3.6 1.11-2.7.68-5.85 1.33-7.56 2.21-2.67 1.37-5.73 1.75-8.72 2.1-.32.04-.64.07-.96.11-3.7.43-7.45.78-11.13.22-2.35-.36-4.64-1.1-6.98-1.45-.19-.03-.37-.06-.56-.08-3.29-.41-6.4-.2-9.64.06-6.01.47-12.4302 1.09-21.1002-1.86"/><path d="m175.462 211.5c-.4-7.16-1.64-18.06 1.52-24.49 1.28-2.61 3.16-4.87 4.63-7.37 4.37-7.42 4.86-16.5 4.18-25.08-.68-8.59-2.42-17.12-2.08-25.73-1.75 11.6-11.56 20.7-13.51 32.26-.8 4.68-.25 9.54-1.28 14.17-1.47 6.61-6.12 12.78-5.01 19.46.83 5.03 3.66 8.38 1.84 13.45-4.6 12.84 2.13 25.9 2.13 25.9s8.11-13.2 7.58-22.57z"/><path d="m131.129 226.929c-1.06-3.14-1.07-6.63-.01-9.77.93-2.75 2.63-5.18 3.79-7.85 2.45-5.66 2.31-11.89 1.32-18.07-.46-2.88-1.1-5.75-1.74-8.55-1.81 3.13-3.63 6.33-5.04 9.65-1.28 2.97-2.23 6.04-2.55 9.25-.5 5.02-5.39 14.61 4.23 25.34z"/><path d="m94.0804 180.911c-1.27 5.5-2.9 11.43-3.31 14.73-1 7.86.41 28.78 9.6896 42.5 0 0-1.4596-23.92-.21-27.68 1.7-5.09 2.82-12.43 1.32-16.57-.88-2.43-1.5996-5.14-2.2396-7.9-1.29-5.44-2.28-11.06-3.67-15.1.05 2.37-.67 6.09-1.58 10.02z"/><path d="m64.9892 196.949c.34-7.85 3.1-13.48 2.91-19.05-.19-5.86-3.8-11.06-4.64-16.86-.31-2.16-.16-4.35-.28-6.53-.26-5.09-1.96-10.11-4.83-14.32 1.84 8.54-6.93 17.22-3.87 25.4.75 2.02 2.16 3.71 3.06 5.67 1.79 3.89 1.5 8.65 4 12.13"/><path d="m42.9285 190.33c-.32-2.52.04-5.1-.39-7.6-.54-3.15-2.27-5.93-3.47-8.89-1.34-3.34-2-6.9-2.64-10.44-.72 3.52-1.43 7.04-2.15 10.56-.62 3.09-1.25 6.32-.39 9.35.95 3.34 7.43 12.76 10.87 12.7-.82-1.8-1.59-3.68-1.83-5.68z"/><path d="m36.6888 396.15c-2.08-.6-7.92.43-9.39 2.01-1.48 1.58-2.14 3.72-2.8 5.78-3.47 10.73-.06 20.7 3.48 30.45.18.5.4 1.03.85 1.3.36.23.82.24 1.24.23 5.99-.09 8.93-.61 13.72-4.19"/><path d="m159.711 423.839c2.68-.64 4.39.41 5.91 1.5.94.68 1.81 1.37 2.79 1.69 3.13 1.04 7.55 1.01 10.67-.06"/><path d="m177.52 421.91c1.64.25 4.24-.28 5.82-.8 1.12-.38 2.25-.75 3.3-1.28.63-.31 1.23-.68 1.78-1.13 2.04-1.68 3.1-4.33 3.39-6.96s-.11-5.29-.5-7.91"/><path d="m173.18 355.59c1.73-.45 3.58.68 4.46 2.24s.98 3.43.92 5.21c-.08 2.11-.38 4.23-1.06 6.22-.18.52-.4 1.06-.83 1.41-.4.32-.94.44-1.45.51-1.09.15-2.19.13-3.27-.04-1.87-.27-3.66-1-5.18-2.11"/><path d="m95.5898 386.981c3.22 1.07 8.0002 0 10.2002-2.58.48-.56.88-1.26 1.26-2.03.84-1.72 1.53-3.73 2.62-4.99"/><path d="m119.791 377.619c.04 1.29-.64 2.46-1.1 3.66-.41 1.08-.6 2.39 0 3.33.06.11.14.21.23.31.41.44.99.68 1.55.89 1.81.7 3.67 1.27 5.56 1.71 2.92.69 6.12 1.04 8.83-.25 1.29-.62 2.39-1.95 3.03-3.46.71-1.66.86-3.53.13-4.91"/><path d="m171.91 371.49c.27 1.7-.6 3.44-1.86 4.63-1.25 1.19-2.85 1.94-4.43 2.66-2.12.98-4.42 1.99-6.73 1.61-.61-.1-1.21-.41-1.74-.86-1.48-1.23-2.47-3.48-1.84-5.08"/><path d="m118.621 384.659c-1.92-.5-3.94-.11-5.91-.07-1.98.03-4.2-.42-5.32-2.05"/><path d="m138.629 384.17c5.42 2.2 14.08.54 17.86-3.92"/><path d="m212.17 332.151c-2.06-1.24-4.9-2.22-7.03-1.11-3.73 1.95-6.03 9.85-5.36 13.96"/><path d="m246.66 296.1c.44 2.83 1.94 4.69 3.93 6.02 1.54 1.04 3.38 1.76 5.25 2.37"/><path d="m251.25 301.58c1.69-.36 3.37-.81 5.02-1.33"/><path d="m255.969 64.0009c3.37-4.37 5.21-6.37 5.02-11.88-.17-4.99 4.49-11.68 3.84-17.16-5.11 6.25-14.89 10.2-15.29 18.26-.21 4.04.58 8.09.56 12.14 0 1.72.61 7.12.61 7.12s4.44-7.4 5.26-8.48z"/><path d="m57.7884 204.31c.51-6.36-2.38-8.61-5.26-11.33-.9 2.47-.96 6.32-.13 8.82.25.76.59 1.5.67 2.3.24 2.31-2.11 3.61-1.71 5.86"/><path d="m68.2818 287.861c-1.42-9.28-3.47-19.86-7.8-28.31-.87-1.7-1.85-3.35-2.86-4.98-1.84-2.95-3.78-5.86-5.39-8.93-1.98-3.79-3.42-7.79-4.74-11.83-.34-1.04-.68-2.09-1.01-3.13-1.1-3.42-5.24-6.91-5.22-10.48.05-5.46 3.88-10.04 5.58-16.15 2.34 1.21 3.98 3.46 4.52 5.91.01.02.02.04.01.06.26 1.17.26 2.38-.03 3.55-.37 1.46-1.15 2.85-1.23 4.35-.22 3.9 5.57 6.79 6.41 10.6.03.13.05.27.07.4"/><path d="m202.469 55.8691c2.24 2.88 3.81 5.89 5.08 9.32 1.33 3.61.52 5.92-.33 8.48"/><path d="m214.358 115.319c-1.77-1.84-3.38-3.66-4.83-5.5-3.74-4.7-6.5-9.51-8.52-14.9395-1.11-2.98-1.82-7.43-2.46-10.24-1.07-4.74.39-10.2.82-15.08.36-4-2.05-6.97-4.09-9.94-2.66-3.84-6.06-7.33-2.89-13.18 3.15 1.09 7.11 5.66 10.01 9.34l.03.03"/><path d="m215.379 71.8105c1.52-7.7-1.2-10.5-4.04-16.69-.56-1.22-1.17-2.56-1.84-3.95-2.67-5.63-6.17-12.14-10.65-15.69-2.79 3.03-3.43 7.01.2 11.89.61.81 1.68 1.9 2.04 2.85.66 1.72.47 3.98 1.34 5.59.01.02.02.04.04.06.04.08.1.17.15.25"/><path d="m220.898 52.5995c-1.33-4.31-2.92-8.81-5.11-12.18-2.2-3.4-4.35-6.84-6.7-10.15-6.16 4.48-3.1 8.9-.81 11.89.79 1.03-.29 5.39 1.22 9.01.06.16.13.31.2.46"/><path d="m223.642 69.9502c1.34-4.44.61-6.12-1.06-11.72-.52-1.73-1.06-3.63-1.66-5.57"/><path d="m233.48 75.1796c5.75-5.31 5.87-8.78 5.15-13.8-.16-1.17-.44-2.32-.48-3.51-.1-3.04 1.32-5.99 1.83-9.02.03-.19.05-.4-.04-.56-.11-.18-.35-.26-.56-.3-1.6-.31-3.35.23-4.67 1.24-1.33 1.01-2.87 2.7-3.48 4.21"/><path d="m231.321 111.5c.68-2.77 1.12-5.7 1.4-8.74.63-6.6002.55-13.7002.76-20.6502.07-2.32-.05-4.61-.21-6.91-.23-3.02-.53-6.03-.59-9.09-.1-4.27-.77-8.48-1.57-12.65-.2-1.08-.41-2.15-.62-3.22-.69-3.53 1.26-8.58-.49-11.7-2.67-4.76-8.01-7.83-12.68-11.45-2.17 3.26-1.89 7.77.66 10.51 1.02 1.1 2.37 1.94 3.17 3.21 1.97 3.14-.9 8.09-.25 11.79 0 .02 0 .04.02.06.05.33.14.64.26.94"/><path d="m54.8906 373.09c2.59-1.35 5.8-1.24 8.41.04 1.34.66 2.53 1.62 3.39 2.86 3.8 5.45.96 13.52 4.44 19.19.53.85 1.17 1.6 1.87 2.3 1.73 1.72 3.84 3.13 5.52 4.92 2.89 3.09 4.44 7.38 4.19 11.6s-2.29 8.31-5.53 11.03"/><path d="m59.0585 433.98c-1.89.42-3.8201.28-5.6401-.29-3.66-1.12-6.91-3.96-8.69-7.43-2.65-5.21-2.5199-11.43-1.2399-17.13.57-2.54 1.3599-5.16.7999-7.7-.71-3.19-3.38-5.54-4.9-8.44-1.77-3.38-1.88-7.58-.28-11.04 1.42-3.09 4.16-5.53 7.37-6.62.39-.14.79-.26 1.2-.35"/><path d="m46.9892 374.891c-.21.06-.41.11-.6.17-2.92.78-4.57 1.14-7.07 2.5-2.75 1.51-4.41 4.6-4.74 7.73-.33 3.12.52 6.27 1.8 9.14.25.55.52 1.1.78 1.65.79 1.65 1.56 3.31 1.77 5.12.39 3.26-1.07 6.41-1.93 9.58-1.02 3.8-1.17 7.88-.07 11.66 1.1 3.79 3.5 7.24 6.86 9.29 3.29 2.01 5.75 1.92 9.6 2.06"/><path d="m68.671 412.15c.01-.83-.68-1.51-1.41-1.7s-1.49-.01-2.22.17c-.36.09-.73.18-1.09.27-1.11.28-2.22.56-3.33.83-.64.16-1.29.32-1.93.48l-1.2.3c-.42.1-.83.21-1.25.31-1.08.27-2.22.56-3.07 1.36-.86.79-1.33 2.25-.74 3.31.03-.07.05-.13.08-.2"/><path d="m57.8998 389.299c-1.14-.17-2.12-.05-2.95.23-1.2.39-2.09 1.11-2.68 1.79-.54.6-.85 1.17-.94 1.43-.75 2.1-.95 4.46-.14 6.53.69 1.75 2.19 3.24 3.99 3.72.32.1.65.15.99.17.7.04 1.39-.08 2.04-.32 1-.37 1.9-1.03 2.58-1.85.25-.3.46-.62.65-.96.68-1.19 1.01-2.58 1.05-3.96.04-1.4-.24-2.86-1.03-4.01-.72-1.04-1.79-1.75-2.89-2.39-.22-.13-.45-.26-.67-.38"/><path d="m56.5586 417.279c.68-.26 1.37-.5 2.07-.74 1.02-.34 2.05-.65 3.1-.94.96-.28 1.94-.53 2.92-.74.34-.1.69-.17 1.04-.25"/><path d="m33.8398 333.131c1.38 3.57 2.91 7.14 5.43 10.25"/><path d="m45.3881 342.559c-.74-3.53-2.13-6.93-3.52-10.32-.2-.48-.39-.97-.62-1.45-.4-.88-.87-1.74-1.53-2.51-1.01-1.18-2.54-2.14-4.26-2.24-1.26 1.01-2.61 2.18-2.66 3.64-.02.65.21 1.29.45 1.91.19.51.39 1.03.58 1.54"/><path d="m32.9102 333.299c.01-.14.02-.28.03-.43"/><path d="m32.911 333.299c-.38.07-.67.15-.63.27.2.05.41.05.61 0 0-.09.01-.19.02-.28z"/><path d="m41.0202 330.891c-.98 1.74-.65 3.8-.03 5.66.63 1.87 1.55 3.69 1.72 5.61-1.01-3.86-4.12-7.31-8.27-9.21-.07.07-.31.13-.6.18 0 0-.0034 0-.01 0-.29.06-.63.11-.92.17"/><path d="m33.7384 336.97c-.02-.05-.04-.1-.09-.15"/><path d="m33.7403 336.971c-.3.02-.55.3-.46.55.31 0 .52-.31.46-.55z"/><path d="m33.9183 336.97c-.06-.02-.12-.02-.18 0"/><path d="m34.5117 340.6c.29.03.57.06.86.09 0-.17 0-.34.01-.52-.21-.11-.53-.05-.65.13"/><path d="m39.6914 343.87h.02c1.02-.2 2.03-.4 3.05-.6.05 0 .11-.02.16-.04.55-.1 1.1-.21 1.65-.32"/><path d="m45.3906 342.561.03.12c.42 1.53.84 3.06 1.26 4.6.71 2.59 1.43 5.18 2.15 7.78 1.7 6.08 3.42 12.19 5.15 18.29 1.54 5.45 3.08 10.9 4.59 16.33.97 3.46 1.93 6.92 2.87 10.36.29 1.05.58 2.09.86 3.14.61 2.24 1.13 4.78 1.65 7.71.2 1.11.39 2.28.59 3.51"/><path d="m39.6484 343.631.06.24c.53 1.89 1.05 3.78 1.56 5.67 2.32 8.44 4.58 16.88 6.78 25.34 1.44 5.48 2.84 10.96 4.22 16.44.98 3.89 1.95 7.78 2.91 11.68.78 3.16 1.55 6.33 2.31 9.5.22.88.43 1.76.64 2.64"/><path d="m42.9805 344.381c.43 1.25.85 2.51 1.26 3.77.81 2.48 1.57 4.99 2.3 7.51 3.22 11.14 5.75 22.54 8.41 33.87 1.04 4.46 2.11 8.91 3.26 13.32.76 2.97 1.56 5.93 2.41 8.87.26.9.52 1.8.79 2.7"/><path d="m151.22 362.21c-2.8-.17-6.06-.15-7.95-2.22-3.37-3.68-3.51-11.56-2.92-15.93.75-5.58-.49-11.15-1.98-16.58-3.64 5.53-7.45 11.81-6.21 18.31-4.28-3.88-6.47-9.95-5.66-15.67-3.11 3.5-6.43 7.66-5.77 12.3.36 2.47 1.84 4.73 1.82 7.23-.02 3.38-2.12 3.99-3.71 4.04"/><path d="m149.39 195.58c-1.49-3.28-2.17-6.53-2.2-9.61-.11-8.14 4.26-15.18 10.11-18.9 1.48-.95 3.05-1.68 4.67-2.16"/><path d="m100.59 113.569c-4.4597 5.73-8.8697 10.55-12.9697 15.06-1.09 1.2-2.15 2.37-3.19 3.54-7.36 8.23-13.39 15.93-16.36 27.01 2.69-4.48 7.48-6.85 12.54-8.61 1.92-.68 3.88-1.27 5.78-1.85 7.85-2.42 15.5197-6.65 22.9097-10.77 2.14-1.19 4.25-2.37 6.34-3.5 1.1-.6 2.21-1.19 3.32-1.78 4.22-2.24 8.5-4.34 12.93-5.8 3.92-1.29 7.96-2.07 12.17-1.99.85.02 1.7.1 2.55.24 2.37.36 4.72 1.08 7.08 1.67 2.09.52 4.19.94 6.3.91 1.55-.02 3.08-.2 4.58-.51 5.62-1.13 10.91-3.96 16-6.74-7.69-7.75-17.43-9.24-28.35-11.46-.53-.11-1.06-.22-1.6-.33-4.94-1.04-10.1-2.28-15.41-4.37"/><path d="m84.0688 131.85c-2.05-7.12 1.6-17.79 6.71-23.16 1.54-1.63 3.13-3.22 4.8-4.72 1.74-1.57 3.56-3.04 5.4902-4.3601 7.93-5.42 20.02-9.03 30.6-7.86 9.44 1.05 17.68 5.9 20.67 16.6701"/><path d="m109.622 138.529c-.53 6.06-6.49 11.46-12.4901 12.5-.96 6.25-3.17 14.35-7.25 19.9-1.72 2.35-3.78 4.25-6.21 5.36 2.07-3.06 3.27-7.84 3.91-12.65.54-4.02.7-8.06.66-11.14"/><path d="m84.0717 131.85c-3.35-5.14-4.49-15.71-3.78-21.8.72-6.1 2.17-12.1802 1.6-18.2902 4.38 3.38 9.4 7.23 12.99 11.4502"/><path d="m133.738 91.5305c.76-6.68 3.92-13.06 8.78-17.72.7 4.36 3.6 7.98 5.74 11.83 2.84 5.11 3.87 16.9405 4.08 22.7805"/><path d="m119.879 132.92c2.05 2.78 9.9 5.68 17.73 1.33"/><path d="m132.039 127.34c1.17 1.69 2.78 4.73 5.74 6.62 2.96 1.9 7.27 2.63 13.8-.27"/><path d="m144.879 144.301c-1.17 4.41-6.81 6.98-10.91 4.97"/><path d="m114.828 153.711c-3.21 4.11-7.48 5.44-12.09 3.01"/><path d="m124.441 158.191c-.48.09-.76.71-.52 1.13 0 0 .01 0 .01.02.02-.01.03-.02.04-.03.92-.54.5-2.29-.57-2.34-.29.58-.57 1.26-.32 1.85.13.32.5.5.84.5.02 0 .03 0 .05-.01.27-.01.5-.15.55-.43"/><path d="m115.52 172.939c6.89-6.8 15.58-8.38 23.45-5.33-5.52 6.6-15.61 8.9-23.45 5.33z"/><path d="m158.56 147.41c-.66 4.95 1.05 7.91.5 12.93-.2 1.87-.72 4.03-1.79 6.68"/><path d="m99.3086 185.98h.02c7.0704 7.11 20.4004 6.94 29.5604 6.11"/><path d="m153.611 127.131c-.53 2.12-1.2 4.36-1.56 6.6-.79 4.9-.15 9.83 6.51 13.68"/><path d="m166.351 140.87c1.18-3.21.17-5.18-.83-7.08-.98-1.84-1.96-3.63-.92-6.45"/><path d="m80.7593 150.99c-.13 2.35.18 4.54.93 6.47.98 2.52 2.7 4.62 5.16 6.08"/><path d="m180.569 120.449c-3.54 6.17-7.31 11.78-14.28 13.24"/><path d="m68.6094 159.44c3.68.24 9.08-.42 12.52-1.76"/><path d="m256.792 127.441c-3.69-.5-7.15-2.61-9.19-5.73"/><path d="m256.789 127.441c.04-1.89.42-3.77 1.69-5.12 1.66-1.77 5.35-1.51 5.87.86.52 2.35-2.28 4.08-4.68 4.32-.96.09-1.93.07-2.88-.06z"/><path d="m219.809 184.219c.78-.85 1.64-1.62 2.54-2.3 4.17-3.14 9.2-4.89 13.72-7.5 9.9-5.69 17.21-15.68 19.66-26.83.82-3.77 1.29-14.53 1.09-18.39-.03-.58-.05-1.17-.03-1.76"/><path d="m219.811 184.221c.36 1.43.67 2.87.7 4.33.07 2.97-3.24 10.73-4.52 6.75-.85-4 .98-8.02 3.82-11.08z"/><path d="m219.051 180.891c.2 1.12.49 2.23.76 3.33"/><path d="m219.049 180.89c.08-.07.15-.13.22-.2 3.64-3.37 8.99-14.39 3.94-13.2-5.1 2.61-4.84 7.84-4.32 12.32.04.36.1.72.16 1.08z"/><path d="m200.43 228.681c4.72-4.68 5.08-12.09 4.81-18.74-.27-6.64-.73-13.83 2.98-19.35 2.72-4.04 7.22-6.43 10.83-9.7"/><path d="m209.138 110.129c-4.83 2.66-7.15 5.75-9.74 12.56 4.68-2.99 9.83-5.08 15.17-6.64 4.91-1.44 9.99-2.42 15.03-3.25.63-.1 1.25-.2 1.88-.3 7.62-1.2 15.29-2.09 22.99-2.67-3.76-3.54-8.58-9.35-21.34-7.03"/><path d="m196.151 195.659c-4.43-19.79 1.19-30.41 5.09-34.92 1.72-2.47 7.54-7.31 12.32-8.7 6.74-1.95 12.12-2.2 17.19-7.05 2.87-2.76 4.2-6.82 4.41-10.79.22-3.97-.55-7.92-1.33-11.83"/><path d="m226.728 228.319c-4.96-7.47-4.99-22.03 1.51-28.2"/><path d="m241.351 219.091c-3.75-3.7-4.63-9.67-3.07-14.7s5.22-9.18 9.42-12.34c2.39-1.8 4.98-3.33 7.16-5.37 4.97-4.64 7.39-11.84 6.23-18.54"/><path d="m248.18 224.5c15.85 6.98 17.61 24.06 15.67 28.81"/><path d="m260.399 261.369c-1.97 5.31-5.94 9.85-10.93 12.52"/><path d="m239.929 276.949c-6.56 3.1-14.49 3.13-21.07.08"/><path d="m88.4105 329.35c-4.28-4.28-9.62-7.47-15.42-9.21-11.36-3.34-19.38-7.17-21.84-13.08-2.46-5.92-1.9-12.65-.53-18.9"/><path d="m55.149 323.929c-4.28-2.32-8.62-4.69-12.02-8.17s-6.54-8.54-6.33-14.64"/><path d="m31.7617 277.45c.53.07 1.07.07 1.61 0 3.26-.43 8.17-3.37 9.78-5.84 2.46-3.8 3.98-9.24 5.46-21.29"/><path d="m31.7597 277.45c.22-1.21.35-2.361.33-3.391-.05-3.59-.33-7.39-2.72-10.35-.65-.8-1.52-1.56-2.65-1.73-1.83-.27-3.51 1.2-3.84 2.77-.34 1.57.3 3.15.92 4.65.82 1.97 1.66 3.98 3.21 5.59 1.2 1.25 2.91 2.231 4.75 2.461z"/><path d="m28.2695 292.189c.44-4.05 2.66-9.93 3.49-14.74"/><path d="m28.5397 160.32c-5.88-10.68-6.67-24.02-2.1-35.32"/><path d="m30.9883 113.191c1.61-5.58 5.2-10.57 9.98-13.8601 2.2-1.52 4.63-2.68 6.72-4.34 6.33-5.02 8.47-14.63 4.88-21.86"/><path d="m80.0287 189.65c-1.59-6.03-9.3399-6.33-12.0599-9.74"/><path d="m58.4494 175.98c-10.78-3.18-14.59-12.69-14.59-26.96"/><path d="m36.3906 153.669c.24-7.06.49-14.18 2.26-21.01 1.37-5.25 5.08-11.7 9.26-16.37 1.26-1.41 2.57-2.65 3.86-3.65-1.27.77-2.64 2.08-3.86 3.65-2.3 2.92-4.1 6.72-3.8 9.47.24 2.24 2.07 4.85 4.2 4.09 1.31-.47 1.88-1.99 2.22-3.35.86-3.43 1.31-6.95 1.33-10.49.02-1.12-.02-2.25-.09-3.37-.7 1.01-.55 2.32.09 3.37.5.81 1.28 1.46 2.2 1.7 2.11.56 4.36-.58 5.79-2.21 1.43-1.64 2.24-3.71 3.13-5.7 2.41-5.35 6.65-10.9599 12.51-10.9199"/><path d="m51.8281 103.74c.92-3.9101 3.86-7.0601 7.14-9.3701 3.28-2.32 6.97-3.99 10.33-6.19 6.27-4.09 11.35-10.07 14.04-17.05s2.92-14.95.29-21.96"/><path d="m192.692 114.47-1.02-9.72-.03-.27c-.3-2.8-.59-5.5999-.88-8.3999"/><path d="m113.201 83.8702c-.16-2.89-.32-5.77-.47-8.66 0-.11-.02-.21-.02-.32-.12-2.08-.23-4.15-.34-6.23"/><path d="m183.949 111.161c2.43-2.3 5.01-4.44 7.72-6.41l.24-.18c1.98-1.43 4.03-2.77 6.14-4.01"/><path d="m103.871 79.9091c1.96-1.93 4.53-3.02 7.14-4.04.58-.22 1.15-.43 1.72-.66.14-.06.29-.11.43-.17.41-.16.82-.33 1.23-.5 2.11-.9 4.09-1.99 5.61-3.67"/><path d="m185.328 102.23c2.1.75 4.21 1.5 6.31 2.25l.27.09c2.28.82 4.56 1.63 6.85 2.44"/><path d="m258.899 217.009c-.35-3.31-.69-6.61-1.04-9.92-.01-.05-.01-.1-.02-.15-.02-.2-.04-.39-.06-.59-.27-2.58-.54-5.15-.81-7.73"/><path d="m253.039 216.171c1.26-3.14 2.71-6.19 4.36-9.14.03-.07.07-.13.12-.2.08-.16.17-.32.26-.48 1.12-1.96 2.32-3.87 3.61-5.72"/><path d="m253.609 203.82c1.3 1 2.6 2.01 3.91 3.01.06.04.12.09.18.14.05.04.1.08.16.12 2.35 1.81 4.7 3.61 7.05 5.42"/><path d="m104.23 73.9505c2.07-.21 4.17-.09 6.21.34.77.15 1.53.35 2.27.6.15.04.3.09.45.15.45.15.89.32 1.33.51 2.54 1.08 4.87 2.65 6.78 4.64"/><path d="m194.86 82.9091c-6.21-3.52-11.88 3.13-18.84 1.6-8.04-1.77-10.56-13.03-18.27-15.89"/><path d="m180.27 68.0898c-11.03-3.06-10.74-13.16-13.99-24.25 1.61 5.46-4.47 10.68-10.1 10.45s-10.44-3.96-14.84-7.52"/><path d="m164.051 35.6108c-.02.79 1.37.97 1.53.2.17-.78-1.16-1.23-1.46-.5"/><path d="m124.371 48.6094c.53 4.59 3.23 8.88 7.13 11.36"/><path d="m93.8516 67.7706c4.59-3.76 10.3304-9.13 11.8104-16.1.83-3.93-.1-13.57-2.51-16.78"/><path d="m234.73 255.43h.01"/><path d="m234.739 255.419c.23-.16 3.84-2.8 5.35-3.93.72 2.01 1.37 6.81 1.37 6.81.44-1.33 2.36-6.6 2.36-6.6s4.1 2.12 5.9 2.73c-.86-2.63-2.42-4.5-3.91-6.83 1.93.23 4.26-.67 6.08-1.34-1.51-.54-5.33-2.02-5.24-2.55.04-.18 2.27-3.69 3.43-5.24l-5.95 2.82c-.98-2.76-1.71-4.47-3.32-6.92-.03 2.51-.06 5.02-.1 7.54-2.61-1.01-5.17-2.16-7.66-3.45 1.01 2.24 2.55 4.25 4.46 5.8-1.97 1.56-3.94 3.12-5.9 4.68 1.98-.16 4.06-.24 5.9-.24-.96 2.29-2.67 6.46-2.77 6.72z"/><path d="m41.5198 61.16s6.19 3.19 8.9 4.12c-1.3-3.97-3.64-6.78-5.89-10.31 2.9.35 6.43-1 9.16-2.02-2.26-.81-8.03-3.04-7.89-3.85.05-.26 3.42-5.57 5.17-7.91l-8.98 4.27c-1.48-4.17-2.58-6.76-5.01-10.46-.05 3.8-.1 7.59-.15 11.39-3.94-1.52-7.81-3.26-11.56-5.21 1.52 3.39 3.85 6.41 6.74 8.75-2.98 2.35-5.95 4.71-8.92 7.06 3-.24 6.14-.35 8.91-.35-1.5 3.55-4.2 10.15-4.2 10.15s5.74-4.19 8.09-5.95c1.1 3.04 2.08 10.28 2.08 10.28.66-2.01 3.55-9.96 3.55-9.96z"/><path d="m72.6394 304.451c-3.58-3.95-10.9-6.65-16.03-5.2"/><path d="m243.262 68.3496c9.49 3.52 15.33 12.1 15.16 22.41"/><path d="m141.309 271.85c11.4 4.19 18.24 18 14.66 29.61"/><path d="m158.551 265.66c2.03 4.37 4.06 8.74 6.1 13.11"/><path d="m167.051 320.33c.53-4.07 2.1-8.47 3.92-12.75.03-.08.07-.17.1-.25 1.55-3.62 3.27-7.15 4.68-10.32"/><path d="m152.262 278.73c3.14-1.77 6.28-3.54 9.41-5.32"/><path d="m168.341 307.921.42-.09c.65-.12 1.4-.21 2.21-.25 3.71-.24 8.53.37 9.14 3.09.51 2.27-1.36 4.38-3.31 5.65-2.59 1.7-6.67 3.71-9.75 4.01"/><path d="m168.872 297.52c1.81-.52 4.34-.92 6.87-1 2.78-.1 5.57.2 7.41 1.15 1.86.96 3.46 3.38 2.2 5.05-.45.61-1.19.94-1.89 1.24-3.23 1.37-8.31 2.49-12.39 3.37-.82.18-1.59.34-2.31.5"/><path d="m157.661 310.509c-2.45-1.09-5.82.77-7.32 2.87-4.84 6.76 1.72 9.63 3.17 10.6 1.45.96 2.87 2.27 3 4.13.25 3.36-4.31 6.29-7.24 5.06-1.66-.7-2.78-2.82-1.73-4.59"/><path d="m145.061 304.719c-.64-3.2-1.5-6.36-2.59-9.44-1.63-4.66-3.77-9.14-6.37-13.33-1.3 3-2.36 8.12-3.68 13.46-1.77 7.19-4.01 14.76-7.96 18.05"/><path d="m125.23 291.27c1.53 2.54 4.28 3.67 7.19 4.14 3.65.58 7.54.11 9.48.07"/><path d="m199.4 122.689c1.02 5.86 2.04 11.81 1.47 17.73-.58 5.93-6.98 11.77-13.64 13.35"/><path d="m85.4102 130.639c.72-.69 1.46-1.35 2.21-2.01 10.82-9.4 24.6398-15.33 38.9198-16.63 8.12-.74 16.61-.1 24.08-3.34.03 0 .06-.03.09-.04"/><path d="m146.84 125.231c-.08-.04-.16-.07-.23-.11-3.93-1.87-6.37-4.48-9.77-7.24"/><path d="m109.521 124.91c-2.25 2.62-8.8 12.01-11.0404 14.63-2.09 2.44-5.77 7.26-12.09 9.18"/><path d="m162.171 137.49c1.48.95 2.73 2.24 3.66 3.72.98 1.56 1.61 3.33 1.78 5.15.33 3.58-.33 11.75-8.24 14.01"/><path d="m153.02 343.619c2.33-1.56 5.97-.46 7.05 2.13 1.07 2.59-.74 5.95-3.49 6.48"/><path d="m166.099 337.711c-2.03 1.23-3.65 3.11-4.58 5.29-.23.54-.42 1.15-.23 1.71.31.9 1.41 1.2 2.35 1.35 1.47.24 2.94.44 4.41.59"/><path d="m97.7695 320.1c7.8905-7.32 12.8305 3.77 16.5205 6.85 4.13-9.39-1.99-12.95 2.5-18.18"/><path d="m94.1913 362.19c-2.57-4.39-7.19-7.52-12.23-8.28-2.48-.37-5.09-.2-7.42-1.15-3.85-1.56-6.05-7.62-5.84-15.66"/><path d="m250.672 208.35c2.25-.39 4.5-.83 6.73-1.32.1-.01.2-.04.3-.06.05-.01.1-.02.14-.03 2.14-.47 4.26-.98 6.38-1.53"/><path d="m108.409 70.5293c.96.52 1.5 2.2 2.03 3.76.19.56.37 1.11.57 1.58.17.41.35.76.55 1.02-1.69 1.37-2.95 3.28-3.52 5.38"/><path d="m115.992 69.5801c-1.15 1.73-1.63 3.37-1.6 4.96.01.34.04.67.1 1.01.29 1.81 1.23 3.58 2.59 5.38"/><path d="m121.401 74.7007c-2.12-.16-4.25-.08-6.35.25"/><path d="m199.641 451.11c-4.76-2.54-13.51-14-15.46-15.54-3.68 4.77-11.53 7.8-17.47 6.86 4.97 5.41 9 11.67 11.85 18.43.18.42.35.85.6 1.22.15.22.32.42.53.59.56.46 1.32.6 2.04.67 7.82.81 15.82-4.66 17.91-12.23l-.27.66"/><path d="m178.811 463.08c-.14-.03-.27-.05-.39-.07-.16-.03-.31-.05-.45-.07-.19-.02-.37-.03-.54-.03-.92 0-1.66.25-2.77.74-1.68-3.62-3.37-7.24-5.06-10.86-1.61-3.44-4.58-7.14-7.46-9.6 1.28-.32 2.85-.48 4.13-.79"/><path d="m162.14 443.189c-1.77 5.14-9.7 4.94-17.41 5.98"/><path d="m150.51 462.64c-.03-.8-.04-1.43-.06-1.67-.02-.3-.05-.59-.1-.88-.14-.85-.41-1.64-.76-2.4-1.33-2.88-3.83-5.23-4.86-8.52"/><path d="m175.112 463.88c-.12.03-.25.05-.38.08-7.17 1.54-16.44 5.35-23.6 4.33-.39-.45-.54-3.6-.62-5.64"/><path d="m200.572 454.6c-1.56 4.1-4.61 7.61-8.45 9.72-1.08.6-2.22 1.08-3.42 1.37-3.58.87-7.57-.18-10.28-2.68-.09-.09-.18-.17-.27-.26-.06.06-.11.13-.18.19-.22.26-.46.5-.72.73-3.07 2.84-8.22 4.63-12.23 4.58-3.73-.04-7.46 1.72-11.17 1.31"/><path d="m155.828 470.48c5.01.1 10.73-1.06 14.08-1.49 1.13-.15 3.29-.96 4.38-1.27 1.1-.32 2.14-1.02 2.57-2.07.26-.62.29-1.31.39-1.98.04-.26.1-.51.18-.75"/><path d="m159.719 456.27c1.54-.22.98 1.41-.3 2.45-1.92 1.54-5.48 2.33-7.75 3.38-.39.18-.77.36-1.16.54-4.76 2.24-9.43 4.67-13.99 7.29.06-1.19-.76-2.35-1.86-2.77-.22-.08-.45-.14-.69-.16 5.46-2.31 10.92-4.61 16.38-6.91 2.76-1.16 5.52-2.32 8.27-3.48.45-.19.8-.29 1.09-.34"/><path d="m135.349 470.08c-1.89.51-3.77 1.02-5.65 1.54 1.65-1.49 3.3-2.97 4.96-4.46.06-.05.12-.11.18-.16"/><path d="m151.34 461.281c-.21-.72.13-1.09-.61-1.23"/><path d="m160.06 456.301c-.11 0-.23-.02-.34-.03h-.01c-2.94-.25-6.79.33-10.12 1.42-1.66.54-3.19 1.21-4.41 1.96"/><path d="m67.8689 360.05c-5.1-4.51-12.39-6.39-19.04-4.99-.4.08-.8.18-1.2.29"/><path d="m55.9106 345.74c-3.12.13-6.25.62-9.23 1.54-.83.25-1.64.54-2.44.87-1.02.4-2.01.87-2.97 1.39-1 .55-1.96 1.16-2.88 1.83-5.01 3.7-8.61 9.55-8.75 15.77"/><path d="m39.3408 89.5293c-1.47-.62-2.94-1.24-4.4-1.85-2.3-.97-4.6-1.94-6.89-2.9"/><path d="m37.2411 82.1797c-.77 1.83-1.54 3.67-2.3 5.5-.78 1.84-1.55 3.68-2.32 5.52"/><path d="m70.17 39.9004-.18 4.29c0 .12-.01.23-.01.34 0 .24-.02.47-.03.7-.07 1.61-.13 3.22-.2 4.83"/><path d="m63.5703 45.141c1.74-.44 3.52-.73 5.32-.88.36-.03.73-.05 1.1-.07.11-.01.23-.01.35-.01 1.97-.08 3.95.02 5.9.3"/><path d="m78.2105 173.421c-.37-1.57-.66-3.16-.88-4.77-.17-1.36-.29-2.73-.35-4.1"/><path d="m74.3281 169.201c1.01-.11 2.02-.29 3-.55 1.25-.31 2.46-.74 3.63-1.27"/><path d="m65.7695 132.59c.82-1.39 1.72-2.74 2.68-4.04.81-1.1 1.68-2.17 2.58-3.2"/><path d="m65.8984 126.859c.81.63 1.66 1.19 2.55 1.69 1.11.64 2.28 1.17 3.49 1.6"/><path d="m73.3617 48.3605c-1.14-1.04-2.27-2.09-3.41-3.13l-.36-.33c-.23-.21-.47-.43-.7-.64-1.38-1.26-2.75-2.52-4.13-3.78"/><path d="m65.6719 48.71c1.31-1.27 2.61-2.54 3.92-3.81.13-.12.26-.25.39-.37.12-.12.24-.24.36-.35l3.27-3.18"/><path d="m237.681 296.319s-.01.1-.07.29c-.2.65-.53 1.49.06 1.17 0-.15.03-.27.08-.39.1-.22.26-.41.4-.6.17-.22.31-.45.31-.76-1.09.03-1.88.66-1.83 1.75.07.55 1.52.39 1.56-.17"/><path d="m237.371 297.569c.15-.08.28-.14.38-.18.58-.24.53-.08.4-.6-.03-.13-.07-.29-.1-.51-.32.17-.37.07-.37.04"/><path d="m227.109 304.12c2.17 1.01 5.97-1.46 7.64.26 1.21 1.25.14 3.46-1.4 4.28-1.49.79-3.97.8-5.78.63-.07 0-.13 0-.19-.02"/><path d="m124.578 104.641c.47-.24.94-.54 1.42-.93-.18.12-.74.5-1.42.93z"/><path d="m124.581 104.641s-.01.01-.02.01-.02 0-.03.02"/><path d="m110.98 108.84c.14-.31.36-.59.62-.81.51-.43 1.15-.68 1.78-.92 2.46-.95 4.56-1.1 7.11-1.44 1.34-.18 2.67-.31 4.04-1"/><path d="m124.532 104.67c-1.21.76-2.76 1.69-3.08 1.59 1.69.52 3.01.35 4.45 1.38-2.38-1.32-5.03-.61-7.61.26-1.25.42-2.4 1.09-3.63 1.56-.45.17-1.25.46-2.02.68-1.33.39-2.57.58-1.83-.35-.04-.32.02-.65.17-.94"/><path d="m116.178 103.43c-1.68.28-3.39.81-4.63 1.97-1.24 1.17-1.88 3.1-1.14 4.63"/><path d="m121.97 109.151c-1.17.02-3.01-.12-3.99-.77"/><path d="m115.412 110.42c-.78.01-1.85-.05-2.77-.28-.47-.11-.89-.27-1.22-.49"/><path d="m121.27 104.789c-.57-.05-2.09.13-1.79.62"/><path d="m110.988 108.84c.85-.23 1.62-.43 2.34-.61.82-.21 1.59-.4 2.36-.63 1.17-.35 2.34-.76 3.72-1.39-.19-.1-.4-.09-.61-.07-1.75.14-3.45.74-4.91 1.7-.19.12-.38.25-.56.39-.55.42-1.06.89-1.51 1.41.93-.43 1.87-.86 2.8-1.29.5-.23.99-.46 1.49-.69"/><path d="m110.981 108.84s0 .01-.02.01h.02"/><path d="m110.98 108.84h.01"/><path d="m112.628 108.91c.67-.16 1.34-.35 1.99-.56.94-.29 1.85-.63 2.75-1.02-.61.13-1.16.21-1.68.27-.64.08-1.22.14-1.8.24-.92.15-1.82.4-2.9 1"/><path d="m148.129 231.409c.52-1.34 1.08-2.66 1.6-4 1.28-3.28 2.26-6.68 2.93-10.14.65-3.41-1.44-17.82 5.76-20.57"/><path d="m148.129 231.41c2.81 6.15 5.88 12.93 6.31 17.12.2 1.92.26 5.72-.83 6.39-3.56 2.18-7.94-14.74-6.67-19.82.31-1.26.73-2.48 1.19-3.69z"/><path d="m142.941 233.14c.11-3.59 1.44-9.04.68-12.55.72 2.56 2.55 6.54 4.51 10.82"/><path d="m141.41 211.311c-.02.78 1.36.96 1.53.2.17-.77-1.16-1.22-1.47-.5"/><path d="m106.601 460.039c2.36 2.95 4.65 2.62 7.18 2.22 2.53-.41 4.89-1.75 6.53-3.72.03 3.77-.32 7.71-.66 11.46-.05.59-.12 1.21-.43 1.72-.27.45-.7.78-1.15 1.05-2.95 1.76-6.79 1.37-9.89-.11-.76-.37-1.52-.82-1.95-1.55-.56-.92-.47-2.09-.36-3.16.03-.31.06-.61.09-.9.25-2.72.35-4.79.43-5.96.06-.8.11-1.17.21-1.05z"/><path d="m106.358 461.091c-.91-.02-4.58-.92-5.03 2.16-.12.77-.29 1.55.11 2.21.41.66 1.1 1.11 1.84 1.35.58.18 1.2.24 1.81.17"/><path d="m106.602 460.04c.83-.94 1.97-1.6 3.19-1.86"/><path d="m111.099 459.799c.23-1.38-.4-2.63-1.33-3.68s-3.13-3.22-6.41-1.77"/><path d="m114.051 458.711c.12-1.38.23-2.82-.34-4.08-.51-1.14-1.52-1.98-2.1-3.09-.68-1.28-.65-3.02.36-4.06s3.05-.97 3.74.31"/><path d="m121.64 451.12c-1.22-.08-2.41.31-3.27 1.17-.98.99-1.36 1.88-1.64 4.58"/><path d="m120.28 458.169c-.86-.99-2.25-1.5-3.55-1.3"/><path d="m138.031 456.369-17.59 9.29"/><path d="m105.798 471.439-6.8996 3.8"/><path d="m94.0511 483.33c-.54-.68-1.08-1.37-1.62-2.05-.98-1.24-2.57-3.3-2.19-5.04.38-1.73 2.84-2.66 4.29-3.28.32-.14.67-.28 1.01-.18.18.06.33.19.48.32 2.15 1.83 4.3399 3.81 5.3499 6.45-.5 3.43-4.6399 4.21-7.3199 3.78z"/><path d="m89.1797 481.85c.66-.42 1.31-.85 1.97-1.27"/><path d="m94.3887 461.16c-.41 2.2-.98 4.38-1.71 6.49-.04.13-.08.25-.18.34-.14.13-.36.13-.55.13-2.48-.04-4.95-.08-7.43-.12-.18-.72-.37-1.45-.56-2.18-.61-2.36-.53-5 2.06-5.93.88-.31 8.6.02 8.37 1.27z"/><path d="m78.7594 471.24c1.09-.17 2.21 0 3.25.47.15.07.31.16.4.33.07.14.08.31.08.47.12 2.2.23 4.48-.41 6.53-2.58.51-5.17 1.02-7.75 1.53-1.21.24-2.01-6-1.42-7 .84-1.41 4.56-2.13 5.85-2.33z"/><path d="m60.5309 449.27c.14-.75-.19-1.58-.83-2-.79-.52-1.87-.38-2.69.08s-1.44 1.2-2.05 1.93c.31-1.07-.34-2.32-1.39-2.68-.78-.27-1.67-.07-2.39.34s-1.3 1.02-1.87 1.62c.46-.54.62-1.33.4-2.01s-.81-1.23-1.5-1.4"/><path d="m60.5302 449.27c-.05.14-.08.27-.12.41.06-.13.1-.27.12-.41z"/><path d="m63.4113 445.721c-.87.12-1.6.75-2.07 1.5-.39.63-.6201 1.34-.8101 2.05"/><path d="m72.5 429.3v-.02c.16-1.34 1.56-2.21 2.9-2.41 1.14-.18 3.24-.65 4.67-.86.25-.04.49-.07.69-.09"/><path d="m71.5905 426.061c-.03.48.9101 2.68.9101 3.22"/><path d="m209.238 434.02c0 4.83 4.62 7.45 8.33 8.87.73.28 1.49.39 2.26.4 1.04.03 2.12-.13 3.15-.3.84-.14 1.68-.29 2.52-.45 1.7-.3 3.38-.64 5.06-1 7.46-1.6 14.8-3.73 21.95-6.38 1.82-.67 3.84-1.6 4.54-3.36.05-.11.09-.23.12-.36.36-1.28-.09-2.68-.87-3.77-.44-.61-.97-1.14-1.55-1.63-.44-.37-.91-.73-1.37-1.08l-4.38-3.33c-.5-.37-1.02-.76-1.64-.88-.64-.11-1.3.09-1.92.29-2.31.73-4.61 1.47-6.92 2.21-.58.18-1.21.41-1.53.93-.61 1.02.48 2.31 1.63 2.6 1.15.3 2.4.06 3.53.41.33.1.67.26.83.57.44.85-.8 1.45-1.68 1.82-2.34 1.01-14.68 5.51-16.22 3.09.67-1.2 1.26-2.45 1.77-3.74.13-.33.26-.71.12-1.04-.24-.63-1.12-.62-1.78-.5-4.07.73-8.15 1.46-12.22 2.19-.73.13-1.51.68-2.17 1.39-.85.92-1.5 2.11-1.56 3.05"/><path d="m207.419 432.201c1.26-.27 1.99-.77 2.4-1.35.87-1.25.19-2.87-.14-3.38-.23-.37-.88-.78-1.67-.85-.13-.01-.26-.01-.4 0-.73.05-1.54.42-2.23 1.39"/><path d="m202.211 431.369c.25 1.2.91 1.84 1.62 2.09 1.01.37 2.12-.03 2.33-.65"/><path d="m206.161 432.81c.22-.3.37-.53.46-.72.21-.44.1-.69-.01-1.34-.13-.81-.85-1.69-1.6-2.02-.56-.25-1.23-.09-1.73.28-.11.08-.21.18-.3.28-.49.57-.69 1.33-.77 2.08"/><path d="m208.012 426.62c12.27-2.51 23.6-6.4 35.83-8.96.25-.06.5-.11.75-.16"/><path d="m244.59 417.499c.2-.16 2.04-2.24 2.29-2.26.36-.02.67.23.94.46 2.84 2.49 5.69 4.97 8.53 7.45.97.85-1.09 1.65-1.44 2.7"/><path d="m243.841 417.66c-2.03-2.27.28-7.72.63-10.75-4.76 1.18-12.6 3-19.7 4.63-8.31 1.92-15.6 3.58-15.73 3.7-.15.15-.81 3.61-1.2 6.7-.23 1.76-.36 3.41-.26 4.25"/><path d="m207.509 421.9c-1.19.1-3.43.45-4.52.92-.45.19-.9.42-1.22.79-.32.35-.49.8-.54 1.27-.06.51.03 1.04.22 1.52.36.91 1.05 1.66 1.72 2.38"/><path d="m203.821 433.48c-.69 1.62-1.31 3.5-1.36 5.26"/><path d="m219.809 443.891c.24.86.52 1.69.84 2.52 1.39 3.57 3.5 6.84 5.59 10.07.59.91 1.19 1.83 2.02 2.51 1.5 1.25 3.73 1.54 5.51.74"/><path d="m262.622 449.649c.89-.34 1.92-.84 2.06-1.78.05-.33-.02-.66-.12-.97-.25-.81-.67-1.55-1.09-2.28-.89-1.57-1.85-3.1-2.75-4.63-1.49-2.57-2.82-5.18-3.46-8.12"/><path d="m264.281 449.68c.01 1.8 2.47 3.22-1.95 5.08-9.37 3.94-18.95 7.33-28.72 10.16-2.04.58-4.32 1.15-6.19.15-1.51-.81-22.25-22.15-24.96-26.33"/><path d="m237.68 458.869c7.12-2.16 14.11-4.73 20.94-7.68"/><path d="m223.02 445.689c.38.58 1.17.86 1.83.63s1.11-.94 1.04-1.63c1.61 1.15 4.18.54 5.1-1.2.73 1.09 2.53 1.23 3.43.27.27-.29.5-.68.89-.77.47-.11.9.27 1.32.5.25.14.54.23.83.26.64.08 1.32-.11 1.82-.52.29-.25.54-.57.91-.67.43-.11.86.13 1.3.21.1.02.2.03.3.02.85-.02 1.66-.7 1.77-1.56 1.45 1.03 3.82.11 4.21-1.62 1.29.93 3.39.3 3.96-1.18.42.74 1.52.83 2.27.42.74-.41 1.22-1.17 1.66-1.9"/><path d="m225.391 449.101c1.71 1.38 4.74.31 5.19-1.84.53.83 1.52 1.35 2.5 1.35.19 0 .38-.02.56-.06 1.15-.24 2.11-1.25 2.28-2.42.67.57 1.53.84 2.4.84 1.4 0 2.82-.69 3.48-1.94.07.06.14.11.22.16 1.67 1.14 4.35.34 5.04-1.57 1.95 1.43 5.19.31 5.83-2.02.46.71 1.41 1.08 2.23.87.83-.21 1.48-.99 1.54-1.84.57.58 1.63.59 2.21 0"/><path d="m256.852 444.26c0 .75.96 1.21 1.69.98.73-.24 1.22-.89 1.66-1.51"/><path d="m228.23 452.71c2.05.77 4.59-.08 5.77-1.93.79.82 2.07 1.01 3.16.69s2-1.08 2.76-1.92c.1-.11.2-.22.32-.32.11-.1.23-.18.37-.22.37-.09.74.12 1.1.27 1.82.76 4.19-.39 4.71-2.29.45 1.19 2.09 1.55 3.27 1.04 1.17-.51 1.97-1.61 2.68-2.67 1.28 1.35 3.96.69 4.48-1.1"/><path d="m235.16 454.719c1.95 1.08 4.68.43 5.94-1.41.86.66 2.07.84 3.08.46 1.02-.39 1.8-1.32 2.01-2.39 1.93 1.14 4.8.04 5.47-2.11.55.63 1.49.88 2.28.62.8-.27 1.4-1.02 1.48-1.86.49.71 1.48 1.01 2.28.7.31-.12.42-.73.11-.62"/><path d="m247.009 428.11c-1.32-.04-2.64.17-3.88.62"/><path d="m222.301 434.29c.83-.68 1.8-1.18 2.84-1.45"/><path d="m206 421.16c-1.22-.91-2.44-1.83-3.66-2.74"/><path d="m136.211 191.25s.01 0 .02-.01c.46-.08 7.79-1.43 10.53-5.26"/><path d="m94.0392 180.9s-3.6-4.45-4.09-9.92"/></g></svg>