<svg width="91" height="194" viewBox="0 0 91 194" fill="none" xmlns="http://www.w3.org/2000/svg">
<g clip-path="url(#clip0_4068_12324)">
<mask id="mask0_4068_12324" style="mask-type:alpha" maskUnits="userSpaceOnUse" x="0" y="0" width="91" height="194">
<path d="M0 0H91V194H0V0Z" fill="#D9D9D9"/>
</mask>
<g mask="url(#mask0_4068_12324)">
<path d="M29.2002 120.402H1.7002L18.0002 17.6016H45.5002C53.8002 17.6016 59.9002 17.9016 64.0002 18.5016C68.0002 19.1016 71.5002 20.0016 74.5002 21.4016C79.7002 23.8016 83.7002 27.3016 86.3002 31.7016C89.0002 36.1016 90.3002 41.4016 90.3002 47.6016C90.3002 56.1016 87.7002 63.3016 82.6002 69.0016C77.5002 74.7016 70.5002 78.3016 61.6002 79.7016L86.7002 120.302H55.3002L35.4002 81.1016L29.2002 120.402ZM38.0002 64.6016H46.7002C52.1002 64.6016 56.3002 63.4016 59.2002 60.9016C62.1002 58.4016 63.6002 54.8016 63.6002 50.2016C63.6002 45.8016 62.2002 42.6016 59.5002 40.7016C56.8002 38.7016 52.4002 37.7016 46.4002 37.7016H42.3002L38.0002 64.6016Z" fill="white"/>
</g>
</g>
<defs>
<clipPath id="clip0_4068_12324">
<rect width="91" height="194" fill="white"/>
</clipPath>
</defs>
</svg>
