<svg width="84" height="194" viewBox="0 0 84 194" fill="none" xmlns="http://www.w3.org/2000/svg">
<g clip-path="url(#clip0_4068_12519)">
<mask id="mask0_4068_12519" style="mask-type:alpha" maskUnits="userSpaceOnUse" x="0" y="0" width="84" height="194">
<path d="M0 0H84V194H0V0Z" fill="#D9D9D9"/>
</mask>
<g mask="url(#mask0_4068_12519)">
<path d="M57.0998 38.2008C53.9998 38.2008 50.8998 37.9008 47.8998 37.3008C44.8998 36.7008 41.8998 36.0008 38.6998 35.3008C35.5998 34.5008 32.4998 33.8008 29.1998 33.2008C25.9998 32.6008 22.5998 32.3008 18.9998 32.3008C17.7998 32.3008 16.6998 32.4008 15.6998 32.7008C14.6998 32.9008 13.6998 33.3008 12.6998 33.8008C11.6998 34.3008 10.5998 35.0008 9.4998 35.9008C8.3998 36.8008 7.0998 37.9008 5.5998 39.2008C9.6998 34.9008 13.1998 31.4008 16.1998 28.7008C19.0998 25.9008 21.5998 23.8008 23.6998 22.2008C25.7998 20.6008 27.5998 19.5008 29.0998 18.9008C30.5998 18.3008 32.0998 18.0008 33.4998 18.0008C36.5998 18.0008 39.6998 18.3008 42.7998 19.0008C45.8998 19.6008 48.9998 20.3008 52.0998 21.0008C55.1998 21.7008 58.2998 22.4008 61.2998 23.1008C64.3998 23.7008 67.3998 24.0008 70.3998 24.0008C72.2998 24.0008 73.7998 23.9008 74.8998 23.6008C76.0998 23.3008 77.1998 22.9008 78.0998 22.4008C79.0998 21.8008 80.0998 21.1008 80.9998 20.2008C81.9998 19.3008 83.1998 18.1008 84.6998 16.8008C80.3998 21.1008 76.8998 24.6008 74.2998 27.4008C71.7998 30.1008 69.5998 32.3008 67.6998 33.9008C65.8998 35.5008 64.1998 36.6008 62.6998 37.3008C61.0998 37.9008 59.1998 38.2008 57.0998 38.2008ZM51.8998 122.701C48.7998 122.701 45.6998 122.301 42.4998 121.601C39.3998 120.901 36.2998 120.101 32.9998 119.201C29.7998 118.401 26.4998 117.601 23.0998 116.901C19.7998 116.201 16.2998 115.801 12.6998 115.801C11.4998 115.801 10.3998 115.901 9.3998 116.201C8.3998 116.401 7.3998 116.801 6.3998 117.301C5.3998 117.801 4.2998 118.501 3.1998 119.401C2.0998 120.301 0.799805 121.401 -0.700195 122.701C3.3998 118.401 6.8998 114.901 9.8998 112.201C12.7998 109.401 15.2998 107.301 17.3998 105.701C19.4998 104.101 21.2998 103.001 22.7998 102.401C24.2998 101.801 25.7998 101.501 27.1998 101.501C30.2998 101.501 33.4998 101.801 36.6998 102.501C39.9998 103.101 43.1998 103.801 46.3998 104.501C49.6998 105.201 52.7998 105.901 55.9998 106.601C59.0998 107.201 62.1998 107.501 65.1998 107.501C67.0998 107.501 68.5998 107.401 69.6998 107.101C70.8998 106.801 71.9998 106.401 72.8998 105.901C73.8998 105.301 74.8998 104.601 75.7998 103.701C76.7998 102.801 77.9998 101.601 79.4998 100.301C75.8998 104.301 72.8998 107.801 70.2998 110.601C67.7998 113.401 65.5998 115.801 63.5998 117.501C61.5998 119.301 59.6998 120.601 57.8998 121.401C56.0998 122.301 54.0998 122.701 51.8998 122.701V122.701ZM39.2998 91.5008C39.2998 88.3008 38.6998 85.3008 37.3998 82.6008C36.1998 79.8008 34.8998 77.1008 33.3998 74.6008C31.8998 72.0008 30.5998 69.4008 29.2998 66.8008C28.0998 64.2008 27.4998 61.3008 27.4998 58.3008C27.4998 54.3008 28.8998 50.7008 31.6998 47.4008C34.5998 44.0008 38.5998 40.6008 43.8998 37.1008C43.0998 37.8008 42.3998 38.7008 41.7998 39.8008C41.1998 40.9008 40.8998 42.1008 40.8998 43.7008C40.8998 46.3008 41.5998 48.8008 42.8998 51.3008C44.2998 53.7008 45.7998 56.3008 47.3998 58.8008C48.9998 61.3008 50.4998 63.9008 51.7998 66.6008C53.1998 69.3008 53.8998 72.2008 53.8998 75.2008C53.8998 80.4008 52.1998 85.2008 48.6998 89.5008C45.2998 93.8008 40.5998 97.9008 34.5998 101.901C36.2998 100.601 37.4998 99.2008 38.1998 97.5008C38.8998 95.8008 39.2998 93.9008 39.2998 91.5008V91.5008Z" fill="white"/>
</g>
</g>
<defs>
<clipPath id="clip0_4068_12519">
<rect width="84" height="194" fill="white"/>
</clipPath>
</defs>
</svg>
