<svg width="111" height="194" viewBox="0 0 111 194" fill="none" xmlns="http://www.w3.org/2000/svg">
<g clip-path="url(#clip0_4068_12609)">
<mask id="mask0_4068_12609" style="mask-type:alpha" maskUnits="userSpaceOnUse" x="0" y="0" width="111" height="194">
<path d="M0 0H111V194H0V0Z" fill="#D9D9D9"/>
</mask>
<g mask="url(#mask0_4068_12609)">
<path d="M53.0002 87.8C53.0002 90.3 54.4002 91.6 57.1002 91.6C58.1002 91.6 59.0002 91.3 59.8002 90.6C60.6002 89.9 60.9002 89.1 60.9002 88.2C60.9002 85.5 59.1002 84.1 55.5002 84.1C39.1002 84 26.1002 81.3 16.5002 75.9C7.0002 70.6 2.2002 62.6 2.2002 52.1C2.2002 42.4 7.60019 34.3 18.3002 27.8C29.1002 21.2 41.7002 18 56.0002 18C65.4002 18 74.0002 19.2 81.8002 21.7C89.6002 24.1 96.0002 27.8 100.9 32.9C105.8 37.9 108.2 43.8 108.2 50.6C108.2 51.6 107.6 52.2 106.5 52.2H61.2002C59.9002 52.2 59.2002 51.5 59.2002 50.2C59.2002 49.3 58.8002 48.5 58.1002 47.9C57.3002 47.2 56.4002 46.9 55.3002 46.9C54.2002 46.9 53.2002 47.2 52.3002 47.9C51.5002 48.6 51.2002 49.4 51.2002 50.3C51.2002 52.7 52.5002 53.8 55.2002 53.8C72.7002 53.8 86.1002 56.8 95.3002 62.8C104.6 68.8 109.3 77.3 109.3 88.2C109.3 98.5 104.6 106.5 95.3002 112.4C86.1002 118.1 72.8002 121 55.3002 121C45.8002 121 37.1002 119.8 29.3002 117.3C21.5002 114.9 15.1002 111.1 10.2002 106C5.3002 100.8 2.9002 94.7 2.9002 87.8C2.9002 86.8 3.5002 86.2 4.6002 86.2H51.3002C52.4002 86.2 53.0002 86.8 53.0002 87.8V87.8Z" fill="white"/>
</g>
</g>
<defs>
<clipPath id="clip0_4068_12609">
<rect width="111" height="194" fill="white"/>
</clipPath>
</defs>
</svg>
