<svg width="81" height="194" viewBox="0 0 81 194" fill="none" xmlns="http://www.w3.org/2000/svg">
<g clip-path="url(#clip0_4068_12564)">
<mask id="mask0_4068_12564" style="mask-type:alpha" maskUnits="userSpaceOnUse" x="0" y="0" width="81" height="194">
<path d="M0 0H81V194H0V0Z" fill="#D9D9D9"/>
</mask>
<g mask="url(#mask0_4068_12564)">
<path d="M4.59961 120.502H19.2996V77.7016H31.6996C38.1996 77.0016 44.7996 79.0016 51.3996 83.9016C57.8996 88.7016 61.4996 100.902 62.2996 120.502H76.7996C76.9996 107.702 75.2996 97.3016 71.7996 89.2016C68.0996 81.2016 62.5996 75.7016 55.0996 72.7016C60.8996 71.2016 65.5996 68.2016 69.1996 63.8016C72.7996 59.3016 74.5996 53.8016 74.6996 47.5016C74.6996 38.6016 72.0996 31.5016 66.7996 26.3016C61.4996 21.0016 53.1996 18.2016 41.9996 18.1016H4.59961V120.502ZM19.1996 65.3016V31.2016H41.0996C46.1996 31.1016 50.4996 32.3016 54.0996 34.9016C57.7996 37.5016 59.6996 41.7016 59.8996 47.7016C59.8996 53.0016 58.2996 57.3016 54.9996 60.5016C51.7996 63.7016 47.1996 65.3016 40.8996 65.4016H19.1996V65.3016Z" fill="white"/>
</g>
</g>
<defs>
<clipPath id="clip0_4068_12564">
<rect width="81" height="194" fill="white"/>
</clipPath>
</defs>
</svg>
