<svg width="104" height="194" viewBox="0 0 104 194" fill="none" xmlns="http://www.w3.org/2000/svg">
<g clip-path="url(#clip0_4068_12589)">
<mask id="mask0_4068_12589" style="mask-type:alpha" maskUnits="userSpaceOnUse" x="0" y="0" width="104" height="194">
<path d="M0 0H104V194H0V0Z" fill="#D9D9D9"/>
</mask>
<g mask="url(#mask0_4068_12589)">
<path d="M3.4 18H50.4C64.5 18 76.6 23 86.6 33.1C96.7 43.2 101.7 55.3 101.7 69.6C101.7 83.7 96.7 95.8 86.6 105.9C76.6 116 64.5 121 50.3 121H3.4C2.5 121 2 120.6 2 119.7V19.4C2 18.5 2.5 18 3.4 18V18ZM47.5 74.4H50.3C51.7 74.4 52.9 73.9 53.8 73C54.8 72.1 55.4 70.9 55.4 69.5C55.4 68.1 54.9 66.9 53.8 66C52.9 65 51.7 64.4 50.3 64.4H47.5V74.4Z" fill="white"/>
</g>
</g>
<defs>
<clipPath id="clip0_4068_12589">
<rect width="104" height="194" fill="white"/>
</clipPath>
</defs>
</svg>
