<svg width="92" height="194" viewBox="0 0 92 194" fill="none" xmlns="http://www.w3.org/2000/svg">
<g clip-path="url(#clip0_4068_12534)">
<mask id="mask0_4068_12534" style="mask-type:alpha" maskUnits="userSpaceOnUse" x="0" y="0" width="92" height="194">
<path d="M0 0H92V194H0V0Z" fill="#D9D9D9"/>
</mask>
<g mask="url(#mask0_4068_12534)">
<path d="M86.8002 83.2C85.9002 87.4 84.4002 91.7 82.2002 96.3C80.0002 100.9 77.2002 105.1 73.6002 108.9C70.1002 112.7 65.9002 115.9 61.1002 118.3C56.3002 120.8 50.9002 122.1 44.9002 122.1C38.6002 122.1 33.0002 121.1 28.2002 119.2C23.3002 117.3 19.3002 114.8 15.9002 111.5C12.6002 108.1 10.2002 104.2 8.5002 99.6C6.8002 95 6.0002 89.9 6.0002 84.4C6.0002 78.8 6.7002 73.7 8.1002 69.1C9.5002 64.5 11.4002 60.2 13.8002 56.3C16.2002 52.4 19.0002 48.7 22.2002 45.3C25.5002 41.9 28.9002 38.5 32.7002 35.1C30.6002 37.2 28.8002 39.4 27.3002 41.8C25.8002 44.1 24.6002 46.7 23.7002 49.6C22.8002 52.4 22.1002 55.6 21.6002 59.1C21.1002 62.6 20.9002 66.6 20.9002 71C20.9002 83 23.9002 92.1 30.0002 98.3C36.1002 104.5 45.3002 107.6 57.7002 107.6C61.6002 107.6 65.1002 106.9 68.4002 105.6C71.7002 104.3 74.5002 102.5 77.0002 100.3C79.5002 98.1 81.6002 95.5 83.3002 92.6C84.9002 89.6 86.1002 86.5 86.8002 83.2V83.2ZM68.0002 39.7C65.9002 39.7 63.5002 39.5 60.6002 39.1C57.7002 38.7 54.7002 38.2 51.4002 37.6C48.1002 37 44.8002 36.3 41.2002 35.6C37.7002 34.9 34.3002 34.2 30.9002 33.6C27.6002 33 24.4002 32.5 21.3002 32.1C18.2002 31.7 15.5002 31.5 13.1002 31.5C11.9002 31.5 10.8002 31.6 9.8002 31.9C8.8002 32.1 7.8002 32.5 6.8002 33C5.8002 33.5 4.7002 34.2 3.6002 35.1C2.5002 36 1.2002 37.1 -0.299805 38.4C3.8002 34.1 7.3002 30.6 10.3002 27.9C13.3002 25.2 15.8002 23.1 18.0002 21.5C20.1002 20 22.0002 19 23.5002 18.4C25.1002 17.8 26.6002 17.5 28.0002 17.5C30.1002 17.5 32.6002 17.7 35.5002 18.1C38.4002 18.5 41.5002 19 44.9002 19.6C48.2002 20.2 51.6002 20.9 55.2002 21.6C58.7002 22.3 62.1002 22.9 65.4002 23.5C68.7002 24.1 71.8002 24.6 74.6002 25C77.5002 25.4 79.9002 25.6 81.9002 25.6C83.6002 25.6 85.0002 25.5 86.1002 25.3C87.3002 25 88.3002 24.7 89.2002 24.3C90.1002 23.9 90.8002 23.4 91.4002 22.9C92.1002 22.3 92.8002 21.6 93.5002 20.9C90.0002 24.8 87.2002 28 84.8002 30.4C82.5002 32.8 80.5002 34.8 78.7002 36.2C76.9002 37.5 75.2002 38.4 73.6002 39C72.0002 39.5 70.1002 39.7 68.0002 39.7V39.7ZM53.6002 85.3L36.2002 101L36.0002 55.5C37.0002 54 39.2002 51.7 42.7002 48.5L53.2002 38.9L53.6002 85.3Z" fill="white"/>
</g>
</g>
<defs>
<clipPath id="clip0_4068_12534">
<rect width="92" height="194" fill="white"/>
</clipPath>
</defs>
</svg>
