<svg width="115" height="194" viewBox="0 0 115 194" fill="none" xmlns="http://www.w3.org/2000/svg">
<g clip-path="url(#clip0_4068_12524)">
<mask id="mask0_4068_12524" style="mask-type:alpha" maskUnits="userSpaceOnUse" x="0" y="0" width="115" height="194">
<path d="M0 0H115V194H0V0Z" fill="#D9D9D9"/>
</mask>
<g mask="url(#mask0_4068_12524)">
<path d="M62.0996 71.1016L66.5996 70.9016C68.4996 70.8016 70.2996 71.1016 71.8996 71.8016C73.4996 72.5016 74.9996 73.4016 76.2996 74.5016C77.9996 72.8016 79.2996 70.6016 79.9996 67.9016C80.6996 65.3016 81.0996 62.4016 81.0996 59.5016C81.0996 55.1016 80.2996 51.2016 78.5996 47.7016C76.8996 44.1016 74.3996 41.1016 71.0996 38.6016C67.7996 36.1016 63.7996 34.2016 58.7996 32.8016C53.8996 31.4016 48.1996 30.7016 41.7996 30.7016C36.5996 30.7016 31.7996 31.4016 27.5996 32.9016C23.3996 34.3016 19.8996 36.2016 16.8996 38.7016C13.9996 41.1016 11.8996 43.9016 10.2996 47.1016C8.79961 50.2016 7.99961 53.6016 7.99961 57.2016C7.99961 60.0016 8.39961 62.7016 9.19961 65.2016C10.0996 67.7016 11.3996 69.9016 13.1996 71.9016C14.9996 73.8016 17.2996 75.4016 19.9996 76.7016C22.6996 78.0016 25.9996 78.7016 29.7996 78.9016L29.9996 53.9016C30.4996 53.1016 31.2996 52.1016 32.3996 51.0016C33.4996 49.8016 34.8996 48.4016 36.6996 46.8016L47.1996 37.2016L46.9996 84.0016L29.5996 99.7016L29.7996 79.0016C21.9996 78.7016 16.0996 76.2016 12.2996 71.5016C8.49961 66.8016 6.59961 60.4016 6.59961 52.3016C6.59961 47.9016 7.69961 43.6016 9.79961 39.3016C11.9996 35.0016 15.0996 31.1016 19.0996 27.7016C23.1996 24.3016 27.9996 21.5016 33.6996 19.4016C39.3996 17.2016 45.7996 16.1016 52.6996 16.1016C60.0996 16.1016 66.5996 17.0016 72.0996 18.9016C77.5996 20.8016 82.1996 23.2016 85.8996 26.2016C89.5996 29.2016 92.3996 32.7016 94.1996 36.6016C96.0996 40.4016 96.9996 44.4016 96.9996 48.4016C96.9996 53.0016 95.1996 57.5016 91.5996 62.1016C87.9996 66.7016 82.9996 70.8016 76.4996 74.6016C78.2996 76.3016 79.8996 78.3016 81.3996 80.7016C82.8996 83.0016 84.1996 85.5016 85.4996 88.1016C86.7996 90.7016 88.0996 93.3016 89.3996 95.9016C90.6996 98.5016 92.1996 100.802 93.6996 102.902C95.1996 105.002 96.8996 106.602 98.7996 108.002C100.7 109.302 102.9 109.902 105.4 109.902C108.3 109.902 110.6 109.202 112.3 107.702C114 106.202 115.2 103.502 115.7 99.5016C115.6 102.102 114.8 104.802 113.4 107.502C112.1 110.202 110.3 112.702 108.1 114.902C106 117.102 103.5 119.002 100.7 120.502C97.9996 122.002 95.1996 122.702 92.1996 122.702C89.6996 122.702 87.3996 122.102 85.4996 120.902C83.5996 119.802 81.7996 118.302 80.2996 116.402C78.7996 114.502 77.4996 112.302 76.2996 109.902C75.0996 107.502 73.8996 105.102 72.7996 102.702C71.6996 100.202 70.4996 97.7016 69.2996 95.4016C68.0996 93.0016 66.6996 90.9016 65.1996 89.0016C63.6996 87.1016 62.0996 85.7016 60.1996 84.6016C58.2996 83.5016 56.0996 83.0016 53.5996 83.1016L48.1996 83.3016L62.0996 71.1016ZM42.8996 123.002C39.7996 123.002 37.0996 122.502 34.8996 121.402C32.7996 120.402 30.5996 119.302 28.3996 118.102C26.2996 116.802 23.8996 115.702 21.3996 114.702C18.8996 113.602 15.7996 113.102 11.9996 113.102C10.7996 113.102 9.69961 113.202 8.69961 113.502C7.69961 113.702 6.69961 114.102 5.69961 114.602C4.69961 115.102 3.59961 115.802 2.49961 116.702C1.39961 117.602 0.0996094 118.702 -1.40039 120.002C2.69961 115.702 6.29961 112.202 9.29961 109.602C12.3996 107.002 14.9996 104.902 17.1996 103.502C19.4996 102.002 21.3996 101.102 22.9996 100.602C24.5996 100.102 26.0996 99.9016 27.4996 99.9016C29.9996 99.9016 32.4996 100.402 35.1996 101.502C37.8996 102.602 40.4996 103.702 43.1996 105.102C45.8996 106.402 48.5996 107.502 51.2996 108.602C53.9996 109.702 56.5996 110.202 59.0996 110.202C59.6996 110.202 60.2996 110.102 60.7996 109.902C61.2996 109.702 61.8996 109.302 62.5996 108.802C63.2996 108.302 64.1996 107.502 65.1996 106.602C66.1996 105.702 67.4996 104.502 68.9996 103.002C64.8996 107.202 61.5996 110.602 58.8996 113.202C56.1996 115.802 53.9996 117.802 52.0996 119.302C50.1996 120.802 48.5996 121.702 47.1996 122.202C45.7996 122.702 44.3996 123.002 42.8996 123.002V123.002Z" fill="white"/>
</g>
</g>
<defs>
<clipPath id="clip0_4068_12524">
<rect width="115" height="194" fill="white"/>
</clipPath>
</defs>
</svg>
