<svg fill="none" height="512" viewBox="0 0 289 512" width="289" xmlns="http://www.w3.org/2000/svg"><path d="m31.91 82.66c-.06.16-.12.32-.17.49.11-.16.17-.32.17-.49zm9.44 81.55c.1.2.21.4.33.6-.09-.21-.2-.42-.33-.6zm15.49 261.23c-.24.46-.33 1.01-.19 1.5 0 .04.01.07.02.1.04.2.14.38.3.52.85 1 2.75.64 3.18-.59s-.83-2.7-2.11-2.46c-.53.1-.95.46-1.2.93zm86.98-3.81-.02.25c.5 3.45.13 5.73 2.59 8.21 1.25-2.41 2.5-4.82 3.75-7.22l.05-.89c-2.13-.1-4.25-.22-6.37-.35zm-59.27 17.17c.53-.29.9-.75.93-1.37.06-1.37-1.88-2.13-3.06-1.42s-1.6 2.23-1.62 3.61c-.01.43.03.9.31 1.24.5.63 1.49.41 2.04-.17.01.03.02.07.03.1.71-.42 1.2-1.17 1.35-1.98 0 0 .02 0 .02-.01zm1.67-331.28c-.06.18-.13.36-.19.54.08-.18.15-.36.19-.54zm157.55 44.71c.52.16 1.08.24 1.66.21-.56-.17-1.12-.24-1.66-.21zm-163.77 266.04c.09.49.27.97.55 1.26 0 .1.01.2.01.3l.36-.03c.03.32.11.63.23.93.65.41 1.52.08 2.01-.52.11-.14.2-.3.27-.46.36-.88.16-1.87-.08-2.79-.17-.65-.38-1.33-.89-1.77s-1.41-.48-1.78.08c-.13.2-.17.42-.18.65-.44.27-.52.88-.56 1.41-.02.29 0 .62.06.94zm40.62-356.52c0-2.34.54-4.68 1.64-6.75.08-.17.17-.34.27-.5 1.4-2.41 4.59-4.51 6.83-2.84.05-2.88.74-5.84 2.18-8.3l-.44-.26c-.23-1.51-1.95-2.38-3.49-2.37-2.63.01-5.1 2.08-5.59 4.66-1.75-1.56-3.2-2.05-5.53-2.29-1.15-.11-2.34-.18-3.43.18-1.1.35-2.11 1.22-2.31 2.35-1.22-1.5-3.59-1.92-5.25-.92l-.4.05c-.02-.09-.03-.17-.04-.26-.55-4.93 6.85-13.32 11.13-15.83.58-.34-11.27-.75-17.49 7.68-2 2.69-9.6 18.78 7.46 26.89 4.5 2.14 10.08.91 14.45-1.49zm62.66 360.17c-2.31.44-4.64.72-6.99.87v.04c-.04 3.6 1.26 7.2 3.59 9.94 1.18-3.37 2.35-6.74 3.53-10.1zm22.14-336.93c-.29-.35-.53-.74-.73-1.15-1.12-2.35-.24-5.57 2.08-6.76-3.01.37-6.19.27-8.89-1.12-2.69-1.4-4.75-4.33-4.38-7.34-1.84 2.5-5.58 3.38-8.35 1.96s-4.23-4.97-3.27-7.93c-3.05 1.49-6.96.95-9.49-1.3-1.86-1.65-3.09-3.73-3.16-5.98.23-.81.36-1.65.39-2.51-.3.85-.42 1.69-.39 2.51-1.56 5.63-7.51 9.95-13.38 9.19.86 5.16-4.17 10.4-9.36 9.76 2.09 3.6 2.15 8.28.16 11.94-1.99 3.65-5.96 6.14-10.11 6.35l-1.24-.16c-.32.26-.68.46-1.08.61-1.58.56-3.65-.29-4.01-1.94.21.85.2 1.71.03 2.55l.97.13c-.19 4.51.57 7.87 3.49 10.62-3.58.69-9.12 5.02-10.85 8.23-1.05 1.95-1.9 4.03-2.25 6.21-.95 6.03 2.55 12.59 8.25 14.77 5.44 2.08 12.21-.23 15.25-5.2l.29-.16c.78 1.33 1.67 2.59 2.68 3.75l-.31.26v4.49c-.37-.31-.75-.59-1.14-.84.2 6.3.39 9.3.32 13.83 0 .14 0 .28.03.42h-.05c-5.51-1.45-10.42-2.37-15.88-.76-9.6 2.83-17.36 10.15-22.74 18.58-.38.6-.75 1.21-1.11 1.82l-.61-.34c-2.34-.62-4.12-2.91-4.15-5.33-1.1 1.74-2.85 3.22-4.9 3.38-2.05.15-4.26-1.45-4.2-3.51-2.12 2.47-5.05 4.45-8.3 4.61s-6.71-1.95-7.31-5.15c-1.88 2.79-6.11 3.65-8.93 1.81l-.86-.05c.5-9.39 2.6-19.7 5.34-27.82 1.81-5.36 5.02-11.25 10.61-12.14 5.58-.88 10.79 4.23 11.73 9.8 0-6.07-.41-13.02-5.18-16.77-3.44-2.71-8.45-2.86-12.46-1.09-4 1.78-8.1 5.59-10.23 9.41.72-12.36 1.45-16.71 2.18-29.07.38-6.45 1.3-13.88 6.71-17.41 3.41-2.22 8.04-2.21 11.64-.3 3.59 1.91 6.13 5.53 7.09 9.48-.17-3.95-.53-7.97-1.99-11.65-1.47-3.68-4.19-7.02-7.91-8.4-4.27-1.58-9.23-.28-12.84 2.5s-6.02 6.84-7.75 11.05c-1.25-2.79-2.68-5.76-5.35-7.25-2.42-1.35-5.43-1.18-8.08-.39-9.14 2.72-15.09 12.07-16.43 21.51 3.78-6.39 10.47-10.98 17.8-12.14.73-.12 1.48-.15 2.22-.06 4.46.58 5.05 4.56 5.24 7.97.29 5.23-.3 8.95-.43 9.73-.01.01-.02.01-.02 0 .13-2.21-1.64-4.46-3.48-5.75-2.56-1.79-6.82-1.86-9.83-.97-4.82 1.43-8.81 5-11.43 9.28-2.55 4.15-3.9 8.95-4.61 13.77 1.65-3.66 3.58-7.26 6.38-10.13 2.81-2.87 6.6-4.96 10.61-5s8.14 2.27 9.56 6.03c.26.7.43 1.41.53 2.14h-.08c-1.14-1.18-2.83-.62-4.01.52-1.19 1.15-1.67 2.82-2.07 4.42-.5-1.08-1.73-1.69-2.92-1.7-1.19-.02-2.34.49-3.33 1.15-3.23 2.16-4.89 7.13-4.36 10.99l.21.44c-4.64 2.09-8.96 6.46-10.53 10.94-1.93 5.51-2.23 11.22-1.65 17.03 1.27-4.7 5.03-9.62 8.44-13.09 3.41-3.48 9.14-5.14 13.27-2.55 2.42 1.52 3.9 4.22 4.55 7s.8 5.43.2 8.34l-.13.05c-.36-.93-.77-1.82-1.24-2.67-.78-1.4-2.25-2.91-3.7-2.26-1.28.57-1.38 2.31-1.32 3.71.28 7.51-.83 15.06-3.26 22.16-.73 2.13-1.58 4.23-2.2 6.39-1.35 4.69-2.26 8.63-2.42 13.51-.11 3.47 0 6.53.2 9.12.28 3.8 1.82 7.67 1.38 13.64-.11.7-.22 1.4-.32 2.09h-.06c-3.07-.15-5.26 2.83-6.84 5.46-.31.52-.64 1.1-.53 1.7.03.18.11.35.21.49l-.83.68c-1.11 1.56-1.66 3.53-1.5 5.44-.58.68-.93 1.75-.92 2.67 0 .95.17 1.94.75 2.68.41.51 1.06.86 1.7.87-.04.17-.04.35.01.53.19.62.96.84 1.61.89 1.72.12 3.45-.33 4.91-1.23.11 4.45.57 8.92 1.49 13.54.05.28.11.55.17.82l-.29.06c-2.74 7.58-4.02 15.69-3.74 23.74-1.78-7.2-1.68-10.78-3.74-17.9-1.65-5.74-4.56-11.05-12.08-17.05-.13 14.63 2.4 20.14 6.43 30.51 4.03 10.38 7.93 17.65 6.58 28.7-1.39-10.59-7.18-18.03-16.54-23.17 6.8 11.79 8.74 26.6 10.4 40.11l.03.04c-3.41 2.39-6.15 5.73-7.68 9.6-.81 2.05-1.26 4.5-.1 6.37 2.01 3.23 6.85 2.4 10.45 1.17-3.01 1.88-6.09 3.83-8.27 6.62-2.19 2.8-3.35 6.68-2.04 9.98 1.14 2.86 4.54 4.78 7.4 4.04-3.97 2.38-8.84 11.23.4 11.5-.76 2.44-.28 5.45 1.79 6.96 1.43 1.03 3.3 1.18 5.06 1.17 3.74-.04 7.48-.66 11.03-1.82-5.43 1.7-10.29 5.16-13.67 9.74-1.25 1.68-2.29 4.07-1.05 5.76.67.9 1.8 1.3 2.88 1.6 4.16 1.13 8.55 1.41 12.82.82-4.24 1.6-7.98 4.5-10.59 8.21l.24.89c1.32-.36 2.63-.59 3.91-.64 4.76-.2 9.28 1.19 13.61 3.24 2.77 1.3 5.47 2.88 8.1 4.47l.09-.15 1.48-66.83h.12c4.6-2.16 10.93-4.17 14.52-6.01 7.16-3.22 9.94-5.33 16.96-7.84 4.52-1.61 14.84-5.76 17.39-9.83 1.76-2.8 2.85-5.96 3.92-9.08 6.41-18.65 5.81-37.29 12.22-55.93 3.57 19.99.87 40.48.1 60.78-.07 1.85.04 4.03 1.59 5.04l.24.35c-2.66 1.84-5.35 3.75-8.12 5.73-.74.54-1.53 1.12-1.83 1.99-.44 1.26.38 2.71 1.54 3.37 1.17.67 2.58.72 3.92.64 2.62-.15 4.61-.65 7.04-1.64l.42.32c-3.81 5-6.77 10.34-8.29 16.49l-.88-.22c-1.25.12-2.48.52-3.56 1.16.07-1.03-1.59-.92-2.44-.34-1.47 1-2.8 2.22-3.94 3.59.36-.51-.64-.85-1.23-.66-2.19.72-3.59 2.43-5.16 4.13-4.2 1.09-7.59 2.34-10.16 5.84.88-.05 1.77-.09 2.66-.14-1.36 1.33-3.46 3.07-3.05 4.77.52 1.26 4.54.72 6.68.16 2.37-.62 4.64-1.71 7.07-2.02 2.44-.31 5.03-1.35 6.11-3.55.51.33.77 1.01.6 1.6 4.11.15 8.23-1.87 10.63-5.21l-.26-.75c.63-.2 1.23-.45 1.7-.68l.5.03c-.09 1.53.19 3.08 1.38 3.95 1.28.94 3.14.66 4.45-.23s2.2-2.26 3.07-3.58c1.51-2.3 4.05-5.82 5.67-8.05l.11.04c-1.03 2.94-1.8 5.97-2.31 9.04-.3 1.81-.35 4.05 1.18 5.08 1.08.72 2.59.5 3.68-.2 1.1-.7 1.88-1.79 2.63-2.86 2.55-3.6 4.69-8.76 7.24-12.37l.19.08c-.75 1.84-1.43 3.72-2.06 5.63-.53 1.63-.81 3.8.64 4.71 1.34.85 3.09-.11 4.24-1.2 2.71-2.56 4.5-5.92 6.4-9.12 5.12-8.62 12.37-19.56 19.54-26.56l.22.05c2.61-10.51 3.37-23.03 3.68-33.95.12-3.95.18-7.68.24-11.04.26-13.17-1.25-32.75 2.9-45.26.54 3.54 2.32 9.22 3.91 14.58l.62-.19c1.62-2.61 3.17-5.65 4.55-8.96l-.25-.1c.42-2.18.28-4.3-.21-6.38-1.22-5.14-4.57-10.05-6.89-15.01-1.07-2.31-2-4.69-2.87-7.08l-.4.15c-12.47-3.65-14.81-5.45-21.11-13.92-4.27-5.75-7.56-16.76-6.69-23.86l.27-1.07c.62.15 1.25.24 1.9.27 2.02.09 4.01-.48 5.92-1.15 9.51-3.36 17.99-9.59 24.04-17.67h.35c-.01-.1-.01-.2 0-.3h-.09c-.35-4.71.31-9.41-.04-14.12-.6.62-1.24 1.23-1.9 1.84.51-3.65.02-7.3.53-10.95l-.2-.12c.28-.44.55-.89.81-1.35l.41.23c.58 2.34 2.52 4.22 4.79 5.02 2.27.81 4.83.61 7.08-.25 4.69-1.78 8.06-6.41 8.67-11.39s-1.4-10.12-4.98-13.64c-2.06-2.03-5.48-3.59-8.3-2.97-.17.04-.33.08-.49.13l-.36-.06c.78-4.84 1.03-9.17.69-15.81l.22-.2zm.33 226.81.26.03c3.4 1.69 7.38 1.39 11.17 1.25 2.61-.1 5.21-.11 7.82-.02 13.47.43 26.85 3.27 39.32 8.39.84-10.94-1.15-26.19 4.51-32.62-5.86 2.16-11.35 12.73-15.04 17.77 4.05-11.91 3.58-17.42 10.53-27.91-5.35 2.25-7.46 2.44-12.39 7.04-4.48 4.19-9.59 12.45-10.39 18.53.37-5.18-.4-11.48-2.05-17.61l.31-.08c4.06-2.98 12.08-9.58 15.85-12.79 11.87-10.11 9.48-26.38 9.48-26.38-7.25.01-14.78.19-21.26 3.43-2.54 1.27-4.86 2.99-7.45 4.17-3.36 1.52-6.94 2.06-10.59 1.99-5.58-.1-11.33-1.61-16.75-3.13.55-1.55 1.09-3.1 1.6-4.66l-.65-.22c-3.14-.1-5.27-.2-8.4-.31l-.85.22c.55 2.02.98 3.85 1.2 5.31.9 5.95 1.8 11.93 2.55 17.93 1.42 11.27 2.31 22.6 1.68 33.87-.1 1.94-.25 3.87-.46 5.8zm81.68-283.94v455.48c0 14.83-12.03 26.86-26.87 26.86h-232.69c-14.84 0-26.87-12.03-26.87-26.86v-455.48c0-14.83 12.03-26.86 26.87-26.86h232.69c14.84 0 26.87 12.03 26.87 26.86zm-32.31 420.59c15.07-33.72 12.29-73.61 6.91-110.15-4.36 24.28-8.3 49.48-15.91 72.94-3.24 9.97-9.47 20.72-11.36 30.9-.98 5.29-.09 11.89.85 18.5-8.54-14.65-12.09-18.12-16.17-34.67-1.87-7.57-3.74-15.14-5.61-22.71-4.43 23.81-3.13 51.15 3.32 74.49h19.77s9.7 8.37 10.59.01c.96-9.03 3.91-21.02 7.61-29.31zm-14.64-91.54c.78-1.57.01-3.87-1.71-4.25.53-1.26-.51-2.63-1.61-3.45-2.54-1.89-5.86-2.7-8.99-2.18-.42-1.44-1.97-2.29-3.45-2.51-1.49-.23-3.01-.01-4.51-.12-1.84-.13-3.61-.76-5.43-1-1.83-.24-3.87 0-5.16 1.31.72-2.59-8.39-.9-9.26 2.47-1.14 4.44 3.83 6.09 7.34 6.03-.12 7.6 9.75 2.29 11.47 3.87 1.67 1.54 3.59 2.96 5.82 3.4 2.23.45 4.83-.3 5.98-2.26 1.66.58 3.36 1.17 5.12 1.13s3.61-.86 4.39-2.44zm-68.75 45.94c.46-2.09-2-3.6-4.09-4.05-4.06-.88-8.4-.45-12.21 1.22-1.64.71-3.3 1.79-3.86 3.48-.57 1.7.66 3.42 2.98 3.8 4.82.7 9.84.05 14.33-1.84 1.24-.52 2.57-1.3 2.85-2.61z" fill="#f5ccc0"/><path d="m265.131 247.4s2.39 16.27-9.48 26.38c-3.77 3.21-11.79 9.81-15.85 12.79l-.31.08c-1.88-7.01-4.91-13.78-8.68-18.35.59 8.45-.15 16.92-1.59 25.3l-.44-.07c-8.9 5.9-12.76 7.56-21.97 12.5l-.6-.03c.63-11.27-.26-22.6-1.68-33.87l1.01-.13c5.89-5.68 12.93-11.4 20.29-15.01 3.65.07 7.23-.47 10.59-1.99 2.59-1.18 4.91-2.9 7.45-4.17 6.48-3.24 14.01-3.42 21.26-3.43z" fill="#a3897a"/><path d="m268.83 288.831c-5.66 6.43-3.67 21.68-4.51 32.62-12.47-5.12-25.85-7.96-39.32-8.39v-.38c1.62-6.29 3.12-12.66 4.22-19.08 1.44-8.38 2.18-16.85 1.59-25.3 3.77 4.57 6.8 11.34 8.68 18.35 1.65 6.13 2.42 12.43 2.05 17.61.8-6.08 5.91-14.34 10.39-18.53 4.93-4.6 7.04-4.79 12.39-7.04-6.95 10.49-6.48 16-10.53 27.91 3.69-5.04 9.18-15.61 15.04-17.77z" fill="#b6efa3"/><path d="m235.609 460.641c-.94-6.61-1.83-13.21-.85-18.5 1.89-10.18 8.12-20.93 11.36-30.9 7.61-23.46 11.55-48.66 15.91-72.94 5.38 36.54 8.16 76.43-6.91 110.15-3.7 8.29-6.65 20.28-7.61 29.31-.89 8.36-10.59 0-10.59 0 .44-5.07-.46-11.1-1.31-17.12z" fill="#b6efa3"/><path d="m238.772 352.661c1.72.38 2.49 2.68 1.71 4.25-.78 1.58-2.63 2.4-4.39 2.44s-3.46-.55-5.12-1.13c-1.15 1.96-3.75 2.71-5.98 2.26-2.23-.44-4.15-1.86-5.82-3.4-1.72-1.58-11.59 3.73-11.47-3.87-3.51.06-8.48-1.59-7.34-6.03.87-3.37 9.98-5.06 9.26-2.47 1.29-1.31 3.33-1.55 5.16-1.31 1.82.24 3.59.87 5.43 1 1.5.11 3.02-.11 4.51.12 1.48.22 3.03 1.07 3.45 2.51 3.13-.52 6.45.29 8.99 2.18 1.1.82 2.14 2.19 1.61 3.45z" fill="#efede7"/><path d="m235.61 460.64c.85 6.02 1.75 12.05 1.31 17.12h-19.77c-6.45-23.35-7.75-50.69-3.32-74.5 1.87 7.57 3.74 15.14 5.61 22.71 4.08 16.55 7.63 20.02 16.17 34.67z" fill="#b6efa3"/><path d="m228.78 293.529.44.07c-1.1 6.42-2.6 12.79-4.21 19.08v.38c-2.62-.09-5.22-.08-7.83.02-3.79.14-7.77.44-11.17-1.25l-.26-.03c.21-1.93.36-3.86.46-5.8l.6.03c9.21-4.94 13.07-6.6 21.97-12.5z" fill="#efede7"/><path d="m213.661 103.901c3.58 3.52 5.59 8.66 4.98 13.64s-3.98 9.61-8.67 11.39c-2.25.86-4.81 1.06-7.08.25-2.27-.8-4.21-2.68-4.79-5.02l-.41-.23c2.17-3.77 3.73-7.94 4.65-12.16.94-4.31 1.66-7.65 2.17-10.77l.36.06c.16-.05.32-.09.49-.13 2.82-.62 6.24.94 8.3 2.97z" fill="#f5eb9e"/><path d="m225.831 256.99c-7.36 3.61-14.4 9.33-20.29 15.01l-1.01.13c-.75-6-1.65-11.98-2.55-17.93-.22-1.46-.65-3.29-1.2-5.31l.85-.22c3.13.11 5.26.21 8.4.31l.65.22c-.51 1.56-1.05 3.11-1.6 4.66 5.42 1.52 11.17 3.03 16.75 3.13z" fill="#efede7"/><path d="m192.271 79.9391s.01 0 .02-.01c0 0 0 .01.01 0 2.1.2 4.47-.62 6.02-2.16l.09-.09h.02c.21-.11.4-.24.53-.4.24-.16.46-.33.69-.49-.16-.05-.34-.09-.51-.11-.02-.22-.17-.15-.41-.03-.57-.02-1.16.1-1.7.34-.74.15-1.46.41-2.13.77-.02 0-.04.02-.05.02-.06.03-.11.06-.17.09-.23.09-.45.2-.67.32.05.01.09.01.14.02-.08.05-.16.1-.23.16-.95.15-1.89.57-2.6 1.22-.62.07-1.23.21-1.83.42.89.15 1.84.13 2.78-.06zm-4.9-1.17c.62 0 1.23.02 1.85.03.37.01.81-.04 1.15-.2 1.04-.02 2.08-.08 3.11-.17-.92-.05-1.85-.07-2.77-.06.13-.11.21-.26.23-.46-.71.17-1.42.34-2.13.52-1.23.05-2.46.15-3.69.31zm1.4 2c-.74-.47-1.71-.68-2.68-.54-.23-.05-.46-.09-.69-.13-.44-.06-1.01-.04-1.25.33-.16.24-.09.51.03.73.84 1.54 3.51 1.31 5.4.36-.21-.3-.49-.55-.81-.75zm-52.23 11.84c4.15-.21 8.12-2.7 10.11-6.35 1.99-3.66 1.93-8.34-.16-11.94 5.19.64 10.22-4.6 9.36-9.76 5.87.76 11.82-3.56 13.38-9.19.07 2.25 1.3 4.33 3.16 5.98 2.53 2.25 6.44 2.79 9.49 1.3-.96 2.96.5 6.51 3.27 7.93s6.51.54 8.35-1.96c-.37 3.01 1.69 5.94 4.38 7.34 2.7 1.39 5.88 1.49 8.89 1.12-2.32 1.19-3.2 4.41-2.08 6.76.2.41.44.8.73 1.15l-.22.2c.34 6.64.09 10.97-.69 15.8099-.51 3.12-1.23 6.46-2.17 10.77-.92 4.22-2.48 8.39-4.65 12.16-.26.46-.53.91-.81 1.35-3.43 5.45-8.19 9.92-14.16 12.26-2.96 1.16-6.11 1.76-9.27 2.11-7.61.85-15.85.12-21.99-4.46-1.25-.93-2.38-2-3.39-3.17-1.01-1.16-1.9-2.42-2.68-3.75-1.52-2.59-2.62-5.45-3.38-8.35-1.53-5.91-1.45-8.13-1.62-14.23-1.92.73-4.26.21-5.69-1.27-2.92-2.75-3.68-6.1099-3.49-10.6199l-.97-.13c.17-.84.18-1.7-.03-2.55.36 1.65 2.43 2.5 4.01 1.94.4-.15.76-.35 1.08-.61zm64.88-3.83c-2.64-.92-5.4-1.08-8.06-.31-.17-.01-.32.05-.47.15-.23.07-.46.15-.69.25-.07 0-.15.03-.23.07-.02 0-.05.03-.07.05-2.72 1.15-5.29 3.35-7.45 6.79 3.62.72 6.48.67 8.74.18 6.95-1.51 8.23-7.18 8.23-7.18zm-22.39 37.1999c9.15-.71 9.02-7.83 9.02-7.83-.99-2.76-4.76-4.45-8.73-4.45-6.64 0-9.85 4.35-9.85 4.35-.58 6.52 5.6 8.23 9.56 7.93zm-7.26-42.6099c.1-.41 0-.99-.38-1.09-1.64-.41-2.86-.82-3.86-1.19 0 0-.01-.01-.02-.01-.4-.19-.82-.35-1.25-.48-.93-.36-1.69-.63-2.56-.74-.74-.2-1.51-.3-2.31-.17-.44-.04-.88-.04-1.32-.01.07.13.14.25.22.37-.35 0-.67.03-.97.06-1.52-.34-3.06-.66-4.51-.33.88.14 1.7.49 2.51.77-.9.39-.59.78.98.32.14.03.28.07.42.09.15.35 1.71.68 3.49.92.61.37 1.28.64 1.98.81 1.64 1.51 4.01 2.19 6.33 1.63.52-.12 1.12-.41 1.25-.95zm-6.39 14.32c1.93.06 4.19-.21 6.85-.93-1.92-2.63-4.04-4.45-6.25-5.56-3.68-1.88-7.6-1.79-11.17-.26 0 0 1.95 6.52 10.57 6.75z" fill="#a3897a"/><path d="m121.052 193.981c.08-.4.16-.79.22-1.18 10.1-3.37 22.91-7.61 32.27-12.69 5.11-2.76 10.43-6.15 12.56-11.56-.87 7.1 2.42 18.11 6.69 23.86 6.3 8.47 8.64 10.27 21.11 13.92l.4-.15c.87 2.39 1.8 4.77 2.87 7.08 2.32 4.96 5.67 9.87 6.89 15.01.07 2.13.14 4.25.21 6.38l.25.1c-1.38 3.31-2.93 6.35-4.55 8.96l-.62.19c-1.59-5.36-3.37-11.04-3.91-14.58-4.15 12.51-2.64 32.09-2.9 45.26-.06 3.36-.12 7.09-.24 11.04l-.6-.02c-8.2 8.5-15.79 11.43-25.87 15.83-12.53 5.49-22.74 11.73-33.43 19.12l-.24-.35c-1.55-1.01-1.66-3.19-1.59-5.04.77-20.3 3.47-40.79-.1-60.78-6.41 18.64-5.81 37.28-12.22 55.93-.44-3.56-.77-6.76-1.02-9.7-1.86-22.24 1.24-29 1.5-54.86-13.41-24.08-.5-38.12 2.32-51.77z" fill="#efede7"/><path d="m196.551 136.35c.66-.61 1.3-1.22 1.9-1.84.35 4.71-.31 9.41.04 14.12h.09c-.01.1-.01.2 0 .29h-.35c-6.05 8.09-14.53 14.32-24.04 17.68-1.91.67-3.9 1.24-5.92 1.15-.65-.03-1.28-.12-1.9-.27-.14-.03-.28-.06-.43-.11l.06-.24c.28-4.81.56-12.39.83-17.42.02-.21.03-.41.04-.61 5.89.16 11.59-.82 16.76-3.66 4.41-2.41 9.09-5.59 12.92-9.09z" fill="#efede7"/><path d="m193.358 88.4695c2.66-.77 5.42-.61 8.06.31 0 0-1.28 5.67-8.23 7.18l-.2-.82s.09-.03.14-.06c.12-.07.21-.18.28-.3h.01l.11-.11c1.1-1.1 1.33-2.92.66-4.3 0-.24-.01-.47-.03-.7-.04-.45-.16-.98-.58-1.15-.08-.03-.15-.05-.22-.05z" fill="#efede7"/><path d="m196.882 125.279.2.12c-.51 3.65-.02 7.3-.53 10.95-3.83 3.5-8.51 6.68-12.92 9.09-5.17 2.84-10.87 3.82-16.76 3.66-4.62-.36-8.44-3.12-10.87-4.69-2.95-1.93-5.4-5.38-8.24-7.64v-4.49l.31-.26c1.01 1.17 2.14 2.24 3.39 3.17 6.14 4.58 14.38 5.31 21.99 4.46 3.16-.35 6.31-.95 9.27-2.11 5.97-2.34 10.73-6.81 14.16-12.26z" fill="#a3897a"/><path d="m192.989 95.1402.2.82c-2.26.49-5.12.54-8.74-.18 2.16-3.44 4.73-5.64 7.45-6.79-.36.23-.45.74-.48 1.19-.09 1.26-.09 2.54 0 3.8.03.36.07.75.33 1 .27.27.65.29 1.02.16.07.03.14.02.22 0z" fill="#efede7"/><path d="m135.369 330.96-.42-.32c-2.43.99-4.42 1.49-7.04 1.64-1.34.08-2.75.03-3.92-.64-1.16-.66-1.98-2.11-1.54-3.37.3-.87 1.09-1.45 1.83-1.99 2.77-1.98 5.46-3.89 8.12-5.73 10.69-7.39 20.9-13.63 33.43-19.12 10.08-4.4 17.67-7.33 25.87-15.83l.6.02c-.31 10.92-1.07 23.44-3.68 33.95l-.22-.05c-7.17 7-14.42 17.94-19.54 26.56-1.9 3.2-3.69 6.56-6.4 9.12-1.15 1.09-2.9 2.05-4.24 1.2-1.45-.91-1.17-3.08-.64-4.71.63-1.91 1.31-3.79 2.06-5.63l-.19-.08c-2.55 3.61-4.69 8.77-7.24 12.37-.75 1.07-1.53 2.16-2.63 2.86-1.09.7-2.6.92-3.68.2-1.53-1.03-1.48-3.27-1.18-5.08.51-3.07 1.28-6.1 2.31-9.04l-.11-.04c-1.62 2.23-4.16 5.75-5.67 8.05-.87 1.32-1.76 2.69-3.07 3.58s-3.17 1.17-4.45.23c-1.19-.87-1.47-2.42-1.38-3.95l-.5-.03c-.47.23-1.07.48-1.7.68-1.46.45-3.08.6-3.73-.45-.4-.64-.37-1.44-.3-2.19.18-1.99.5-3.89.96-5.72 1.52-6.15 4.48-11.49 8.29-16.49z" fill="#a3897a"/><path d="m188.052 118.151s.13 7.12-9.02 7.83c-3.96.3-10.14-1.41-9.56-7.93 2.78 1.71 14.64 1.41 18.58.1z" fill="#a3897a"/><path d="m179.319 113.699c3.97 0 7.74 1.69 8.73 4.45-3.94 1.31-15.8 1.61-18.58-.1 0 0 3.21-4.35 9.85-4.35z" fill="#a3897a"/><path d="m183.28 421.92.13.75c-1.18 3.36-2.35 6.73-3.53 10.1-2.33-2.74-3.63-6.34-3.59-9.94v-.04c2.35-.15 4.68-.43 6.99-.87z" fill="#efede7"/><path d="m167.642 398.8c2.09.45 4.55 1.96 4.09 4.05-.28 1.31-1.61 2.09-2.85 2.61-4.49 1.89-9.51 2.54-14.33 1.84-2.32-.38-3.55-2.1-2.98-3.8.56-1.69 2.22-2.77 3.86-3.48 3.81-1.67 8.15-2.1 12.21-1.22z" fill="#f5eb9e"/><path d="m166.87 149.1c-.01.2-.02.4-.04.61h-.22c-.83 2.89-2.61 5.5-4.99 7.34-.59.46-1.45.86-2.02.38-.62-.51-.27-1.52.18-2.19 1.48-2.23 4.7-4.93 7.09-6.14z" fill="#efede7"/><path d="m147.761 136.77c2.84 2.26 5.29 5.71 8.24 7.64 2.43 1.57 6.25 4.33 10.87 4.69-2.39 1.21-5.61 3.91-7.09 6.14-.45.67-.8 1.68-.18 2.19.57.48 1.43.08 2.02-.38 2.38-1.84 4.16-4.45 4.99-7.35h.22c-.27 5.04-.55 12.62-.83 17.43l-.06.24c-3.41-.95-6.4-3.53-9-5.9-2.64-2.41-5.12-4.98-7.44-7.7-.95-1.1-2.32-2.2-2.53-3.59-.02-.14-.03-.28-.03-.42.07-4.53-.12-7.53-.32-13.83.39.25.77.53 1.14.84z" fill="#efede7"/><path d="m165.729 97.3792c1.32-.36 1.29-2.25.95-3.58-.1-.38-.24-.79-.43-1.17.02-.31.02-.63-.16-.87-.07-.1-.17-.17-.28-.22l.17-.34c2.21 1.11 4.33 2.93 6.25 5.56-2.66.72-4.92.99-6.85.93v-.27c.12 0 .24-.01.35-.04z" fill="#efede7"/><path d="m121.048 193.969c-2.82 13.66-15.73 27.7-2.32 51.78-6.8-.9-27.9396-4.63-37.4396-13.82-1.42-1.37-2.58-2.86-3.39-4.48 0 0 16.6-27.25 18.8-32.7 3.4296-8.47 5.8496-17 10.4896-24.93.36-.61.73-1.22 1.11-1.82 5.38-8.43 13.14-15.75 22.74-18.58 5.46-1.61 10.37-.69 15.88.77h.05c.21 1.38 1.58 2.48 2.53 3.58 2.32 2.72 4.8 5.29 7.44 7.7 2.6 2.37 5.59 4.95 9 5.9.15.05.29.08.43.11l-.27 1.07c-2.13 5.41-7.45 8.8-12.56 11.56-9.36 5.08-22.17 9.32-32.27 12.69-.06.39-.14.78-.22 1.17z" fill="#f5ccc0"/><path d="m164.539 91.3306h-.03c-.84.08-.26.93-.51 1.73-.05.16-.1.33-.13.5 0 .01 0 .02-.01.03-.09.29-.16.59-.22.88-.07.44-.08.88.01 1.3-.01.03-.01.06-.01.09-.02.51.09.71.38.78.33.46.84.78 1.37.78v.27c-8.63-.23-10.58-6.75-10.58-6.75 3.57-1.53 7.49-1.62 11.17.26l-.17.34c-.15-.07-.33-.09-.51-.05h-.01c-.23-.12-.47-.18-.75-.16z" fill="#efede7"/><path d="m150.191 421.981-.05.89c-1.25 2.4-2.5 4.81-3.75 7.22-2.46-2.48-2.09-4.76-2.59-8.21l.02-.25c2.12.13 4.24.25 6.37.35z" fill="#efede7"/><path d="m145.39 128.27-.29.16c-3.04 4.97-9.81 7.28-15.25 5.2-5.7-2.18-9.2-8.74-8.25-14.77.35-2.18 1.2-4.26 2.25-6.21 1.73-3.21 7.27-7.54 10.85-8.23 1.43 1.48 3.77 2 5.69 1.27.17 6.1.09 8.32 1.62 14.23.76 2.9 1.86 5.76 3.38 8.35z" fill="#f5eb9e"/><path d="m131.102 43.1006.44.26c-1.44 2.46-2.13 5.42-2.18 8.3-2.24-1.67-5.43.43-6.83 2.84-.1.16-.19.33-.27.5l-.12-.07c-2.49.27-5 .54-7.49.23-2.48-.31-4.97-1.26-6.67-3.09-1.82-1.95-2.56-4.65-2.88-7.31l.4-.05c1.66-1 4.03-.58 5.25.92.2-1.13 1.21-2 2.31-2.35 1.09-.36 2.28-.29 3.43-.18 2.33.24 3.78.73 5.53 2.29.49-2.58 2.96-4.65 5.59-4.66 1.54-.01 3.26.86 3.49 2.37z" fill="#f5ccc0"/><path d="m109.872 355.11c1.57-1.7 2.97-3.41 5.16-4.13.59-.19 1.59.15 1.23.66 1.14-1.37 2.47-2.59 3.94-3.59.85-.58 2.51-.69 2.44.34 1.08-.64 2.31-1.04 3.56-1.16l.88.22c-.46 1.83-.78 3.73-.96 5.72-.07.75-.1 1.55.3 2.19.65 1.05 2.27.9 3.73.45l.26.75c-2.4 3.34-6.52 5.36-10.63 5.21.17-.59-.09-1.27-.6-1.6-1.08 2.2-3.67 3.24-6.11 3.55-2.43.31-4.7 1.4-7.07 2.02-2.14.56-6.1603 1.1-6.6803-.16-.41-1.7 1.6903-3.44 3.0503-4.77-.89.05-1.78.09-2.6603.14 2.5703-3.5 5.9603-4.75 10.1603-5.84z" fill="#efede7"/><path d="m122.139 54.9305.12.07c-1.1 2.07-1.64 4.41-1.64 6.75h-.01c-4.37 2.4-9.95 3.63-14.45 1.49-17.0601-8.11-9.4602-24.2-7.4602-26.89 6.2202-8.43 18.0702-8.02 17.4902-7.68-4.28 2.51-11.68 10.9-11.13 15.83.01.09.02.17.04.26.32 2.66 1.06 5.36 2.88 7.31 1.7 1.83 4.19 2.78 6.67 3.09 2.49.31 5 .04 7.49-.23z" fill="#f5eb9e"/><path d="m117.23 300.61c.25 2.94.58 6.14 1.02 9.7-1.07 3.12-2.16 6.28-3.92 9.08-2.55 4.07-12.87 8.22-17.3902 9.83-7.02 2.51-9.7999 4.62-16.9599 7.84-3.59 1.84-9.9201 3.85-14.5201 6.01h-.12l.83-37.36h.4501c5.28-1.96 11.37-3.26 13.86-3.15.01-4.95.0299-9.9.0399-14.85l-.1499-1.18c1.34-.15 2.6599-.35 3.9099-.63 2.69 5 4.21 9.64 4.42 15.32 3.54-2.4 24.6802-3.95 28.0502-.57zm-28.7302 13.68c1.49-.88.65-3.7-1.07-3.63-.62.03-1.2099.41-1.5199.94h-.0701s-.0299.05-.0399.08c-.66.07-1.29.39-1.64.94-.63.16-1.11.57-1.18 1.25-.05.38.0599.76.2299 1.1.67 1.34 2.5101 1.99 3.8401 1.28.69-.37 1.1399-1.1 1.2599-1.87h.01c.06-.02.12-.05.18-.09zm-10.92 14.1c.52-.47.7-1.22.57-1.91-.05-.31-.17-.61-.34-.87-.59-.29-1.24-.02-1.68.45-.83.06-1.51 1.12-1.14 1.92.43.92 1.83 1.09 2.59.41z" fill="#f5ccc0"/><path d="m117.231 300.61-.48.04c-3.37-3.38-24.5098-1.83-28.0498.57-.21-5.68-1.7299-10.32-4.42-15.32 2.6501-.59 4.98-1.49 6.57-2.72 5.09-3.95 8.7-9.47 12.2098-14.88 5.1-7.86 10.57-14.69 15.67-22.55-.26 25.86-3.36 32.62-1.5 54.86z" fill="#b6efa3"/><path d="m84.2811 285.9c-1.25.28-2.57.48-3.91.63-4.92.5-10.14.1-13.41-1.08h-.34l.73-32.94h.17c2.53-9.58 11.43-14.37 13.11-14.12-.19-3.15-.08-3.37.65-6.44v-.02c9.51 9.19 30.6499 12.92 37.4499 13.82-5.1 7.86-10.57 14.69-15.67 22.55-3.5099 5.41-7.1199 10.93-12.2099 14.88-1.59 1.23-3.92 2.13-6.57 2.72z" fill="#a3897a"/><path d="m106.582 169.48.61.34c-4.64 7.93-7.06 16.46-10.4904 24.93-2.2 5.45-18.8 32.7-18.8 32.7.81 1.62 1.97 3.11 3.39 4.48v.02c-.74 3.07-.85 3.29-.66 6.44-1.68-.25-10.58 4.54-13.11 14.12h-.17l.65-29.45h.19c4.68 1.85 7.49-2.96 7.99-5.15.34-1.51.2-3.12-.38-4.57l.15-.06c2.64-1.95 3.55-6.91 2-9.81-.04-.07-.07-.13-.12-.2l.05-.03c1.52-.59 2.55-2.11 2.91-3.71s.15-3.27-.17-4.88c-.2-1.04-.47-2.11-1.06-2.99-.38-.57-.88-1.04-1.42-1.46l1.03-.15c2.14-3.94.59-6.98-2.15-10.53-2.3-2.97-5.47-5.34-9.09-6.28-.16-2.53-.15-5.23 0-8l.86.05c2.82 1.84 7.05.98 8.93-1.81.6 3.2 4.06 5.31 7.31 5.15s6.18-2.14 8.3-4.61c-.06 2.06 2.15 3.66 4.2 3.51 2.05-.16 3.8004-1.64 4.9004-3.38.03 2.42 1.81 4.71 4.15 5.33z" fill="#f5ccc0"/><path d="m90.4312 118.31c4.77 3.75 5.18 10.7 5.18 16.77-.94-5.57-6.15-10.68-11.73-9.8-5.59.89-8.8 6.78-10.61 12.14-2.74 8.12-4.84 18.43-5.34 27.82-.15 2.77-.16 5.47 0 8l-.48-.12c-3.83-.84-8.11-1.91-10.92.83l-.66-.21c1.84-5.78 1.55-12.87-.73-18.64l.13-.05c.6-2.91.45-5.56-.2-8.34s-2.13-5.48-4.55-7c-4.13-2.59-9.86-.93-13.27 2.55-3.41 3.47-7.17 8.39-8.44 13.09-.58-5.81-.28-11.52 1.65-17.03 1.57-4.48 5.89-8.85 10.53-10.94 1.07-.48 2.16-.85 3.23-1.06 5.73-1.14 12.4 2.65 13.15 8.44.11-6.36.22-12.72.33-19.09.03-1.37.05-2.76-.15-4.11-.1-.73-.27-1.44-.53-2.14-1.42-3.76-5.55-6.07-9.56-6.03s-7.8 2.13-10.61 5c-2.8 2.87-4.73 6.47-6.38 10.13.71-4.82 2.06-9.62 4.61-13.77 2.62-4.28 6.61-7.8498 11.43-9.2798 3.01-.89 7.27-.82 9.83.97 1.84 1.29 3.61 3.54 3.48 5.7498 0 .02.01.02.02 0 .13-.78.72-4.4998.43-9.7298-.19-3.41-.78-7.39-5.24-7.97-.74-.09-1.49-.06-2.22.06-7.33 1.16-14.02 5.75-17.8 12.14 1.34-9.44 7.29-18.79 16.43-21.51 2.65-.79 5.66-.96 8.08.39 2.67 1.49 4.1 4.46 5.35 7.25 1.73-4.21 4.14-8.27 7.75-11.05s8.57-4.08 12.84-2.5c3.72 1.38 6.44 4.72 7.91 8.4 1.46 3.68 1.82 7.7 1.99 11.65-.96-3.95-3.5-7.57-7.09-9.48-3.6-1.91-8.23-1.92-11.64.3-5.41 3.53-6.33 10.96-6.71 17.41-.73 12.3598-1.46 16.7098-2.18 29.0698 2.13-3.82 6.23-7.63 10.23-9.41 4.01-1.77 9.02-1.62 12.46 1.09z" fill="#f5eb9e"/><path d="m55.3895 217.309.03 11.19h-.97c-1.75 1.06-3.17 2.66-4.02 4.52-.1.22-.19.45-.24.68l-.46-.11c-2.55-.35-5.16 1.17-6.38 3.41l-.7-.47c-.62-.13-1.25-.17-1.88-.13.12-4.33.53-8.67 1.14-13.13.11-.82.22-1.65.35-2.48.1-.69.21-1.39.32-2.09.44-5.97-1.1-9.84-1.38-13.64-.2-2.59-.31-5.65-.2-9.12.16-4.88 1.07-8.82 2.42-13.51.62-2.16 1.47-4.26 2.2-6.39 2.43-7.1 3.54-14.65 3.26-22.16-.06-1.4.04-3.14 1.32-3.71 1.45-.65 2.92.86 3.7 2.26.47.85.88 1.74 1.24 2.67 2.28 5.77 2.57 12.86.73 18.64l.66.21c2.81-2.74 7.09-1.67 10.92-.83l.48.12c3.62.94 6.79 3.31 9.09 6.28 2.74 3.55 4.29 6.59 2.15 10.53l-1.03.15c.54.42 1.04.89 1.42 1.46.59.88.86 1.95 1.06 2.99.32 1.61.53 3.28.17 4.88s-1.39 3.12-2.91 3.71l-.05.03c.05.07.08.13.12.2 1.55 2.9.64 7.86-2 9.81l-.15.06c.58 1.45.72 3.06.38 4.57-.5 2.19-3.31 7-7.99 5.15h-.19l.07-3.13c-.46-2.44-3.01-4.03-5.48-4.22-2.17-.16-4.29.5-6.35 1.27-.28.1-.57.21-.85.32z" fill="#a3897a"/><path d="m80.3719 286.529.15 1.18c-.01 4.95-.03 9.9-.04 14.85-2.49-.11-8.58 1.19-13.86 3.16h-.45l.45-20.28h.34c3.27 1.19 8.49 1.59 13.41 1.09z" fill="#b6efa3"/><path d="m68.0706 219.93-.07 3.13-.65 29.45-.73 32.93-.45 20.27-.83 37.36-1.48 66.83-.09.15c-2.63-1.59-5.33-3.17-8.1-4.47l.3-.62-.18-57.55-.06-19.06-.05-18.69-.1-30.41-.14-46.59-.02-4.16-.03-11.19s.02-.01.03-.01c.3-.1.75-.04.82-.32 2.06-.77 4.18-1.43 6.35-1.27 2.47.19 5.02 1.78 5.48 4.22z" fill="#f5eb9e"/><path d="m57.5509 111.559c.2 1.35.18 2.74.15 4.11-.11 6.37-.22 12.73-.33 19.09-.75-5.79-7.42-9.58-13.15-8.44-1.07.21-2.16.58-3.23 1.06l-.21-.44c-.53-3.86 1.13-8.83 4.36-10.99.99-.66 2.14-1.17 3.33-1.15 1.19.01 2.42.62 2.92 1.7.4-1.6.88-3.27 2.07-4.42 1.18-1.14 2.87-1.7 4.01-.51h.08z" fill="#dfd1bc"/><path d="m56.6484 426.939s.01.07.02.1c-.01-.03-.02-.06-.02-.1z" fill="#dfd1bc"/><path d="m55.7907 347.41.18 57.55-.3.62c-4.33-2.05-8.85-3.44-13.61-3.24-1.28.05-2.59.28-3.91.64l-.24-.89c2.61-3.71 6.35-6.61 10.59-8.21-4.27.59-8.66.31-12.82-.82-1.08-.3-2.21-.7-2.88-1.6-1.24-1.69-.2-4.08 1.05-5.76 3.38-4.58 8.24-8.04 13.67-9.74-3.55 1.16-7.29 1.78-11.03 1.82-1.76.01-3.63-.14-5.06-1.17-2.07-1.51-2.55-4.52-1.79-6.96s2.51-4.43 4.27-6.29c4.4-4.66 14.25-11.99 21.66-15.95z" fill="#f5ccc0"/><path d="m55.7288 328.349.06 19.06h-.22c-7.41 3.96-17.26 11.29-21.66 15.95-1.76 1.86-3.51 3.85-4.27 6.29-9.24-.27-4.37-9.12-.4-11.5.44-.11.87-.29 1.28-.54-.4.08-.83.27-1.28.54-2.86.74-6.26-1.18-7.4-4.04-1.31-3.3-.15-7.18 2.04-9.98 2.18-2.79 5.26-4.74 8.27-6.62-3.6 1.23-8.44 2.06-10.45-1.17-1.16-1.87-.71-4.32.1-6.37 1.53-3.87 4.27-7.21 7.68-9.6 2.67-1.88 5.76-3.17 9-3.65.88-.14 1.86-.27 2.42-.96.4-.51.46-1.21.51-1.86.64-8.59 1.28-17.19 1.92-25.79 4.14 7.72 4.41 15.91 6.71 24.36 3.16-2.18 2.21-.63 5.37-2.81h.27l.05 18.69c0-1.06-.74-2.19-1.84-2.15-.62.03-1.2.42-1.52.94h-.07s-.03.05-.04.08c-.66.07-1.28.38-1.64.93-.62.17-1.11.58-1.18 1.26-.05.38.06.76.23 1.1.67 1.34 2.51 1.99 3.84 1.28.69-.37 1.14-1.1 1.26-1.87h.01c.06-.02.12-.05.18-.09.54-.32.77-.89.77-1.48z" fill="#f5ccc0"/><path d="m55.5808 279.25.1 30.41h-.27c-3.16 2.18-2.21.63-5.37 2.81-2.3-8.45-2.57-16.64-6.71-24.36-.64 8.6-1.28 17.2-1.92 25.79-.05.65-.11 1.35-.51 1.86-.56.69-1.54.82-2.42.96-3.24.48-6.33 1.77-9 3.65l-.03-.04c-1.66-13.51-3.6-28.32-10.4-40.11 9.36 5.14 15.15 12.58 16.54 23.17 1.35-11.05-2.55-18.32-6.58-28.7-4.03-10.37-6.56-15.88-6.43-30.51 7.52 6 10.43 11.31 12.08 17.05 2.06 7.12 1.96 10.7 3.74 17.9-.28-8.05 1-16.16 3.74-23.74l.29-.06c2.51 11.85 7.74 21.45 12.42 23.92z" fill="#b6efa3"/><path d="m55.4395 232.66.14 46.59h-.73c-4.68-2.47-9.91-12.07-12.42-23.92-.06-.27-.12-.54-.17-.82-.92-4.62-1.38-9.09-1.49-13.54.77-.47 1.46-1.05 2.03-1.74 3.13 1.08 6.97-.67 8.18-3.77l.02-.03c.43.21.94.26 1.4.13.92-.26 2.53-2.05 2.97-2.9z" fill="#a3897a"/><path d="m55.4197 228.5.02 4.16h-.07c-.44.85-2.05 2.64-2.97 2.9-.46.13-.97.08-1.4-.13-.44-.21-.78-.58-.85-1.06-.04-.22-.02-.45.04-.67.05-.23.14-.46.24-.68.85-1.86 2.27-3.46 4.02-4.52z" fill="#efede7"/><path d="m42.8019 239.229s-.09-.02-.13-.04c.07-.77.32-1.51.68-2.19 1.22-2.24 3.83-3.76 6.38-3.41l.46.11c-.06.22-.08.45-.04.67.07.48.41.85.85 1.06l-.02.03c-1.21 3.1-5.05 4.85-8.18 3.77z" fill="#efede7"/><path d="m42.6486 236.53.7.47c-.36.68-.61 1.42-.68 2.19.04.02.09.03.13.04-.57.69-1.26 1.27-2.03 1.74-.04-1.53-.03-3.05 0-4.57.63-.04 1.26 0 1.88.13z" fill="#efede7"/><path d="m37.0702 229.01c-.73.23-1.62.01-2.03-.57-.1-.14-.18-.31-.21-.49-.11-.6.22-1.18.53-1.7 1.58-2.63 3.77-5.61 6.84-5.47h.06c-.13.84-.24 1.67-.35 2.49l-.28-.04c-.76 1.19-1.52 2.38-2.29 3.58-.54.85-1.14 1.75-2.07 2.14-.06.03-.13.05-.2.06z" fill="#efede7"/><path d="m41.6298 223.23.28.04c-.61 4.46-1.02 8.8-1.14 13.13-1.76.09-3.49.81-4.81 1.98.14-.81.13-1.61.09-2.12-.04-.52-.19-1.06-.46-1.5.84-1.81 1.34-3.76 1.48-5.75.07 0 .14-.03.2-.06.93-.39 1.53-1.29 2.07-2.14.77-1.2 1.53-2.39 2.29-3.58z" fill="#f5ccc0"/><path d="m40.7698 236.4c-.03 1.52-.04 3.04 0 4.57-1.46.9-3.19 1.35-4.91 1.23-.65-.05-1.42-.27-1.61-.89-.05-.18-.05-.36-.01-.53.28 0 .56-.06.82-.2.51-.58.78-1.4.9-2.2 1.32-1.17 3.05-1.89 4.81-1.98z" fill="#efede7"/><path d="m35.0409 228.439c.41.58 1.3.8 2.03.57-.14 1.99-.64 3.94-1.48 5.75-.24-.41-.6-.74-1.06-.87-.72-.21-1.35.11-1.82.67-.16-1.91.39-3.88 1.5-5.44z" fill="#efede7"/><path d="m36.0491 236.261c.04.51.05 1.31-.09 2.12-.53.46-1 1-1.38 1.61-.16.24-.29.51-.34.79-.64 0-1.29-.36-1.7-.87-.58-.74-.75-1.73-.75-2.68 0-.92.34-1.99.92-2.67.01.17.03.33.05.5.08.55.28 1.17.8 1.37.76.3 1.47-.52 1.84-1.26.07-.14.13-.27.19-.41.27.44.42.98.46 1.5z" fill="#efede7"/><path d="m35.5909 234.759c-.06.14-.12.27-.19.41-.37.74-1.08 1.56-1.84 1.26-.52-.2-.72-.82-.8-1.37-.02-.17-.04-.33-.05-.5.47-.56 1.1-.88 1.82-.67.46.13.82.46 1.06.87z" fill="#efede7"/><g stroke="#010101" stroke-linecap="round" stroke-linejoin="round" stroke-width="2"><path d="m169.469 118.049s3.21-4.35 9.85-4.35c3.97 0 7.74 1.69 8.73 4.45-3.94 1.31-15.8 1.61-18.58-.1z"/><path d="m188.052 118.151s.13 7.12-9.02 7.83c-3.96.3-10.14-1.41-9.56-7.93"/><path d="m188.401 319.52c-7.17 7-14.42 17.94-19.54 26.56-1.9 3.2-3.69 6.56-6.4 9.12-1.15 1.09-2.9 2.05-4.24 1.2-1.45-.91-1.17-3.08-.64-4.71.63-1.91 1.31-3.79 2.06-5.63 2.73-6.74 6.4-12.89 11.69-18.03"/><path d="m160.658 325.561c-6.13 6.07-10.82 13.58-13.63 21.73-1.03 2.94-1.8 5.97-2.31 9.04-.3 1.81-.35 4.05 1.18 5.08 1.08.72 2.59.5 3.68-.2 1.1-.7 1.88-1.79 2.63-2.86 2.55-3.6 4.69-8.76 7.24-12.37"/><path d="m151.341 322.961c-7.66 8.44-16.64 19.47-18.79 30.67-.1.49-.17 1.01-.2 1.53-.09 1.53.19 3.08 1.38 3.95 1.28.94 3.14.66 4.45-.23s2.2-2.26 3.07-3.58c1.51-2.3 4.05-5.82 5.67-8.05"/><path d="m145.07 320.09c-3.53 3.57-6.85 7.13-9.7 10.87-3.81 5-6.77 10.34-8.29 16.49-.46 1.83-.78 3.73-.96 5.72-.07.75-.1 1.55.3 2.19.65 1.05 2.27.9 3.73.45.63-.2 1.23-.45 1.7-.68"/><path d="m134.949 330.64c-2.43.99-4.42 1.49-7.04 1.64-1.34.08-2.75.03-3.92-.64-1.16-.66-1.98-2.11-1.54-3.37.3-.87 1.09-1.45 1.83-1.99 2.77-1.98 5.46-3.89 8.12-5.73 10.69-7.39 20.9-13.63 33.43-19.12 10.08-4.4 17.67-7.33 25.87-15.83"/><path d="m205.539 272c5.89-5.68 12.93-11.4 20.29-15.01.05-.03.1-.06.15-.08"/><path d="m239.798 286.57c4.06-2.98 12.08-9.58 15.85-12.79 11.87-10.11 9.48-26.38 9.48-26.38-7.25.01-14.78.19-21.26 3.43-2.54 1.27-4.86 2.99-7.45 4.17-3.36 1.52-6.94 2.06-10.59 1.99-5.58-.1-11.33-1.61-16.75-3.13.55-1.55 1.09-3.1 1.6-4.66 6.14-18.32 10.07-37.38 11.71-56.62"/><path d="m206.809 306.029c9.21-4.94 13.07-6.6 21.97-12.5"/><path d="m205.44 314.48c.12-.89.22-1.78.31-2.68.21-1.93.36-3.86.46-5.8.63-11.27-.26-22.6-1.68-33.87-.75-6-1.65-11.98-2.55-17.93-.22-1.46-.65-3.29-1.2-5.31-.42-1.57-.92-3.26-1.43-4.99-1.59-5.36-3.37-11.04-3.91-14.58-4.15 12.51-2.64 32.09-2.9 45.26-.06 3.36-.12 7.09-.24 11.04-.31 10.92-1.07 23.44-3.68 33.95-1.1 4.47-2.55 8.58-4.44 12.05"/><path d="m132.16 320.201c-1.55-1.01-1.66-3.19-1.59-5.04.77-20.3 3.47-40.79-.1-60.78-6.41 18.64-5.81 37.28-12.22 55.93-1.07 3.12-2.16 6.28-3.92 9.08-2.55 4.07-12.87 8.22-17.3895 9.83-7.02 2.51-9.8 4.62-16.96 7.84"/><path d="m121.049 193.98c-.07.59-.19 1.23-.35 1.93"/><path d="m118.26 182.961c-.17 3.94 3.56 4.75 2.79 11.01"/><path d="m166.101 168.551c-.87 7.1 2.42 18.11 6.69 23.86 6.3 8.47 8.64 10.27 21.11 13.92"/><path d="m218.532 171.891c-8.64 4.5-12.55 12.44-13.95 21.19s-1.11 17.67-.81 26.52c.09 2.89.19 5.78.29 8.67.07 2.13.14 4.25.21 6.38"/><path d="m209.909 206.74c.55 9.2-1.84 19.49-5.39 28.01-1.38 3.31-2.93 6.35-4.55 8.96"/><path d="m210.029 248.98c-3.14-.1-5.27-.2-8.4-.31"/><path d="m187.09 186.131 6.21 17.31c.33.91.66 1.83 1 2.74.87 2.39 1.8 4.77 2.87 7.08 2.32 4.96 5.67 9.87 6.89 15.01.49 2.08.63 4.2.21 6.38"/><path d="m118.728 245.749c-6.8-.9-27.9396-4.63-37.4396-13.82-1.42-1.37-2.58-2.86-3.39-4.48 0 0 16.6-27.25 18.8-32.7 3.4296-8.47 5.8496-17 10.4896-24.93.36-.61.73-1.22 1.11-1.82 5.38-8.43 13.14-15.75 22.74-18.58 5.46-1.61 10.37-.69 15.88.77"/><path d="m114.729 175.26c-3.01 8.64-12.9 14.36-18.0298 19.49"/><path d="m166 167.13c.28-4.81.56-12.39.83-17.42.02-.21.03-.41.04-.61 5.89.16 11.59-.82 16.76-3.66 4.41-2.41 9.09-5.59 12.92-9.09.66-.61 1.3-1.22 1.9-1.84.35 4.71-.31 9.41.04 14.12"/><path d="m198.231 148.93c-6.05 8.08-14.53 14.31-24.04 17.67-1.91.67-3.9 1.24-5.92 1.15-.65-.03-1.28-.12-1.9-.27-.14-.03-.28-.06-.43-.11-3.41-.95-6.4-3.53-9-5.9-2.64-2.41-5.12-4.98-7.44-7.7-.95-1.1-2.32-2.2-2.53-3.59-.02-.14-.03-.28-.03-.42.07-4.53-.12-7.53-.32-13.83.39.25.77.53 1.14.84 2.84 2.26 5.29 5.71 8.24 7.64 2.43 1.57 6.25 4.33 10.87 4.69-2.39 1.21-5.61 3.91-7.09 6.14-.45.67-.8 1.68-.18 2.19.57.48 1.43.08 2.02-.38 2.38-1.84 4.16-4.45 4.99-7.35"/><path d="m166.1 168.551c-2.13 5.41-7.45 8.8-12.56 11.56-9.36 5.08-22.17 9.32-32.27 12.69"/><path d="m169.23 55.3691c.07 2.25 1.3 4.33 3.16 5.98 2.53 2.25 6.44 2.79 9.49 1.3-.96 2.96.5 6.51 3.27 7.93s6.51.54 8.35-1.96c-.37 3.01 1.69 5.94 4.38 7.34 2.7 1.39 5.88 1.49 8.89 1.12-2.32 1.19-3.2 4.41-2.08 6.76.2.41.44.8.73 1.15 1.35 1.64 3.6 2.52 5.74 2.36 2.61-.2 4.98-1.77 6.52-3.88"/><path d="m169.231 55.3694c.23-.81.36-1.65.39-2.51-.3.85-.42 1.69-.39 2.51z"/><path d="m137.239 99.8791c1.9-3.85-.16-4.88-.7-7.27 4.15-.21 8.12-2.7 10.11-6.35 1.99-3.66 1.93-8.34-.16-11.94 5.19.64 10.22-4.6 9.36-9.76 5.87.76 11.82-3.56 13.38-9.19"/><path d="m205.199 85.1895c.34 6.64.09 10.97-.69 15.8095-.51 3.12-1.23 6.46-2.17 10.77-.92 4.22-2.48 8.39-4.65 12.16-.26.46-.53.91-.81 1.35-3.43 5.45-8.19 9.92-14.16 12.26-2.96 1.16-6.11 1.76-9.27 2.11-7.61.85-15.85.12-21.99-4.46-1.25-.93-2.38-2-3.39-3.17-1.01-1.16-1.9-2.42-2.68-3.75-1.52-2.59-2.62-5.45-3.38-8.35-1.53-5.91-1.45-8.13-1.62-14.23-1.92.73-4.26.21-5.69-1.27"/><path d="m134.7 104.42c-3.58.69-9.12 5.02-10.85 8.23-1.05 1.95-1.9 4.03-2.25 6.21-.95 6.03 2.55 12.59 8.25 14.77 5.44 2.08 12.21-.23 15.25-5.2"/><path d="m210.509 92.8594c-.26 6.07-2.73 7.3896-5.15 8.0696"/><path d="m204.872 101.061c.16-.05.32-.09.49-.13 2.82-.62 6.24.94 8.3 2.97 3.58 3.52 5.59 8.66 4.98 13.64s-3.98 9.61-8.67 11.39c-2.25.86-4.81 1.06-7.08.25-2.27-.8-4.21-2.68-4.79-5.02"/><path d="m86.2188 107.521c1.21-3.27 3.1099-6.44 6.1399-8.1304 3.2-1.79 7.8503-1.29 9.7803 1.8204.04-3.9504.12-8.1104 2.12-11.5304 1.99-3.42 6.6-5.65 10.03-3.69-1.11-3.87-1.24-8.01-.36-11.94.43-1.98 1.18-3.99 2.71-5.32s4.02-1.73 5.57-.43c-1.05-2.01-1.58-4.27-1.59-6.55 0-2.34.54-4.68 1.64-6.75.08-.17.17-.34.27-.5 1.4-2.41 4.59-4.51 6.83-2.84.05-2.88.74-5.84 2.18-8.3.79-1.36 1.81-2.57 3.08-3.53 3.58-2.69 9.32-2.6 12.06.94.98-4.45 6.23-7.09 10.67-6.11 4.45.97 7.87 4.8 9.43 9.08.9-4.47 4.54-8.26 8.96-9.36s9.4.54 12.3 4.06c.43-3.57 4.62-5.92 8.2-5.55 3.57.38 6.58 3.19 7.89 6.53 1.06-5.46 7.97-8.68 13.03-6.38 5.07 2.29 7.31 9.08 5.05 14.16 3.11-2.41 8.12-1.78 10.55 1.32 2.43 3.09 1.84 8.11-1.24 10.56"/><path d="m86.2213 107.52c-.04.18-.1101.36-.1901.54.06-.18.1301-.36.1901-.54z"/><path d="m69.25 107.44c2.63-2.84 6.34-5.84 10.18-6.3 3.64-.44 7.73 3.01 6.79 6.38"/><path d="m222.32 59.32c2.49-1.8 6.08-2 8.76-.49s4.3 4.63 3.95 7.63c1.21-1.38 2.7-2.58 4.47-3.13s3.84-.36 5.29.77c2.29 1.79 2.34 5.1 2.2 7.96 1.96-1.82 4.43-3.12 7.07-3.7 1.88-.42 4.22-.29 5.21 1.31 1.11 1.78-.19 4.17.54 6.12 1.11-1.68 3.4-2.54 5.39-2.02"/><path d="m252.219 184.971c-1.39 2.92-.24 6.85 2.56 8.5 2.92 1.71 7.12.65 8.88-2.24"/><path d="m235.292 160.76c-.93 2.8-1.14 5.83.16 8.42 1.72 3.39 6.88 5 9.49 2.22-2.08 2.11-3.69 4.82-3.93 7.77s1.11 6.12 3.72 7.54c2.48 1.35 6.02.63 7.49-1.74.06-.11.12-.23.19-.35"/><path d="m243.771 152.23c-3.1.1-5.92 3.02-7.41 5.98-.41.81-.77 1.66-1.06 2.54"/><path d="m243.77 152.229c.52.16 1.08.24 1.66.21-.56-.17-1.12-.24-1.66-.21z"/><path d="m235.618 122.98c-1.6 3.27-2.05 5.86.29 8.64 2.35 2.79 6.39 4.01 9.88 2.98-2.84 2.67-5.71 5.73-6.35 9.57-.54 3.28 1.35 7.1 4.33 8.06"/><path d="m56.5312 173.95c2.81-2.74 7.09-1.67 10.92-.83l.4801.12c3.62.94 6.7899 3.31 9.0899 6.28 2.74 3.55 4.29 6.59 2.15 10.53"/><path d="m67.4883 184.82c3.39 1.14 6.64 2.71 9.64 4.67.34.22.68.46 1.01.71.54.42 1.04.89 1.42 1.46.59.88.86 1.95 1.06 2.99.32 1.61.53 3.28.17 4.88s-1.39 3.12-2.91 3.71"/><path d="m65.7305 196.311c1.77.1 3.5.57 5.18 1.15 2.72.95 5.51 3.28 6.92 5.81.05.07.08.13.12.2 1.55 2.9.64 7.86-2 9.81"/><path d="m63.3203 206.35 1.86.15c.78.06 1.56.13 2.32.32 1.05.27 2.02.78 2.97 1.32 1.61.91 3.21 1.93 4.33 3.4.42.55.76 1.16 1 1.8.58 1.45.72 3.06.38 4.57-.5 2.19-3.31 7-7.99 5.15"/><path d="m55.3906 217.3c.28-.11.57-.22.85-.32 2.06-.77 4.18-1.43 6.35-1.27 2.47.19 5.02 1.78 5.48 4.22l-.07 3.13-.65 29.45-.73 32.93-.45 20.27-.83 37.36-1.48 66.83"/><path d="m55.7106 174.229c.06-.16.11-.32.16-.49 1.84-5.78 1.55-12.87-.73-18.64-.36-.93-.77-1.82-1.24-2.67-.78-1.4-2.25-2.91-3.7-2.26-1.28.57-1.38 2.31-1.32 3.71.28 7.51-.83 15.06-3.26 22.16-.73 2.13-1.58 4.23-2.2 6.39-1.35 4.69-2.26 8.63-2.42 13.51-.11 3.47 0 6.53.2 9.12.28 3.8 1.82 7.67 1.38 13.64"/><path d="m81.2795 231.949c-.73 3.07-.84 3.29-.65 6.44-1.68-.25-10.58 4.54-13.11 14.12"/><path d="m118.731 245.75c-5.1 7.86-10.57 14.69-15.67 22.55-3.5101 5.41-7.1201 10.93-12.2101 14.88-1.59 1.23-3.92 2.13-6.57 2.72-1.25.28-2.57.48-3.91.63-4.92.5-10.14.1-13.41-1.08"/><path d="m54.8486 279.249c-4.68-2.47-9.91-12.07-12.42-23.92-.06-.27-.12-.54-.17-.82-.92-4.62-1.38-9.09-1.49-13.54-.04-1.53-.03-3.05 0-4.57.12-4.33.53-8.67 1.14-13.13.11-.82.22-1.65.35-2.48.1-.69.21-1.39.32-2.09"/><path d="m67.9283 173.27v-.03c-.16-2.53-.15-5.23 0-8 .5-9.39 2.6-19.7 5.34-27.82 1.81-5.36 5.02-11.25 10.61-12.14 5.58-.88 10.79 4.23 11.73 9.8 0-6.07-.41-13.02-5.18-16.77-3.44-2.71-8.45-2.86-12.46-1.09-4 1.78-8.1 5.59-10.23 9.41"/><path d="m67.7412 126.63c.72-12.36 1.45-16.71 2.18-29.07.38-6.45 1.3-13.88 6.71-17.41 3.41-2.22 8.04-2.21 11.64-.3 3.59 1.91 6.13 5.53 7.09 9.48-.17-3.95-.53-7.97-1.99-11.65-1.47-3.68-4.19-7.02-7.91-8.4-4.27-1.58-9.23-.28-12.84 2.5s-6.02 6.84-7.75 11.05c-1.25-2.79-2.68-5.76-5.35-7.25-2.42-1.35-5.43-1.18-8.08-.39-9.14 2.72-15.09 12.07-16.43 21.51 3.78-6.39 10.47-10.98 17.8-12.14.73-.12 1.48-.15 2.22-.06 4.46.58 5.05 4.56 5.24 7.97.29 5.23-.3 8.95-.43 9.73-.01.01-.02.01-.02 0 .13-2.21-1.64-4.46-3.48-5.75-2.56-1.79-6.82-1.86-9.83-.97-4.82 1.43-8.81 5-11.43 9.28-2.55 4.15-3.9 8.95-4.61 13.77 1.65-3.66 3.58-7.26 6.38-10.13 2.81-2.87 6.6-4.96 10.61-5s8.14 2.27 9.56 6.03c.26.7.43 1.41.53 2.14.2 1.35.18 2.74.15 4.11-.11 6.37-.22 12.73-.33 19.09-.75-5.79-7.42-9.58-13.15-8.44-1.07.21-2.16.58-3.23 1.06-4.64 2.09-8.96 6.46-10.53 10.94-1.93 5.51-2.23 11.22-1.65 17.03 1.27-4.7 5.03-9.62 8.44-13.09 3.41-3.48 9.14-5.14 13.27-2.55 2.42 1.52 3.9 4.22 4.55 7s.8 5.43.2 8.34"/><path d="m57.4709 111.569c-1.14-1.19-2.83-.63-4.01.51-1.19 1.15-1.67 2.82-2.07 4.42-.5-1.08-1.73-1.69-2.92-1.7-1.19-.02-2.34.49-3.33 1.15-3.23 2.16-4.89 7.13-4.36 10.99"/><path d="m41.3495 164.209c-.72-1.08-2-1.76-3.29-1.87-1.51-.13-3.02.43-4.29 1.29-3.13 2.11-4.89 6.17-4.33 9.97-2.03-1.45-5.22-.69-6.42 1.53"/><path d="m41.3516 164.211c.1.2.21.4.33.6-.09-.21-.2-.42-.33-.6z"/><path d="m41.7496 139.58c.39 4.09 2.05 6.1 3.96 8.91-1.73-.5-3.06 1.54-3.69 3.26-1.47 4.01-2.55 8.71-.67 12.46"/><path d="m22.9688 211.27c.92 1 2.42 1.07 3.63.55 1.2-.52 2.1699-1.52 3.1099-2.49-.7 2.28.5001 5.04 2.5401 5.89 2.05.84 4.4599-1.61 5.2999-3.83.7.9 2.7701 2.13 3.7401 1.61"/><path d="m116.752 300.649c-3.37-3.38-24.5103-1.83-28.0503.57-.21-5.68-1.73-10.32-4.42-15.32-.01-.01-.01-.03-.02-.04"/><path d="m80.5211 287.711c-.01 4.95-.03 9.9-.04 14.85-2.49-.11-8.58 1.19-13.86 3.16"/><path d="m29.2391 358.15c-3.97 2.38-8.84 11.23.4 11.5"/><path d="m29.2383 358.149c.44-.11.87-.29 1.28-.54-.4.08-.83.27-1.28.54z"/><path d="m55.4088 309.659c-3.16 2.18-2.21.63-5.37 2.81-2.3-8.45-2.57-16.64-6.71-24.36-.64 8.6-1.28 17.2-1.92 25.79-.05.65-.11 1.35-.51 1.86-.56.69-1.54.82-2.42.96-3.24.48-6.33 1.77-9 3.65-3.41 2.39-6.15 5.73-7.68 9.6-.81 2.05-1.26 4.5-.1 6.37 2.01 3.23 6.85 2.4 10.45 1.17-3.01 1.88-6.09 3.83-8.27 6.62-2.19 2.8-3.35 6.68-2.04 9.98 1.14 2.86 4.54 4.78 7.4 4.04"/><path d="m42 333.341c1.04-2.73 3.62-4.56 6.24-5.83 3.7-1.8 3.06-1.67 7.17-1.8"/><path d="m94.4606 310.441c-7.08-2.55-15.81 1.22-18.82 8.11"/><path d="m76.5001 326.1c-.12-.04-.25-.05-.37-.04-.83.06-1.51 1.12-1.14 1.92.43.92 1.83 1.09 2.59.41.52-.47.7-1.22.57-1.91-.05-.31-.17-.61-.34-.87-.59-.29-1.24-.02-1.68.45-.49.55-.71 1.39-.22 1.97.95-.02 1.86-.65 2.21-1.54"/><path d="m89.4291 325.949c.45 3.38-1.38 6.95-4.39 8.56"/><path d="m52.3203 328.801c.32.52.93.88 1.54.84.14 0 .28-.03.42-.08"/><path d="m52.1406 328.32c0 .06.02.13.05.19"/><path d="m54.7816 329.92c.06-.02.12-.05.18-.09.54-.32.77-.89.77-1.48 0-1.06-.74-2.19-1.84-2.15-.62.03-1.2.42-1.52.94-.02.02-.03.05-.04.07-.15.25-.23.53-.23.82 0 .04 0 .08.01.12"/><path d="m52.1094 328.15s.01.11.03.17c.01.06.03.13.05.19.03.08.06.16.1.24.01.02.02.04.03.05.32.6.91 1.08 1.55 1.2.17.04.35.05.52.03.13-.02.26-.05.38-.11"/><path d="m52.1018 328.141c-.06-.01-.13-.02-.19-.03-.44-.07-.89-.06-1.29.04-.62.17-1.11.58-1.18 1.26-.05.38.06.76.23 1.1.67 1.34 2.51 1.99 3.84 1.28.69-.37 1.14-1.1 1.26-1.87h.01c.12-.7-.03-1.44-.5-1.99-.34-.4-.82-.62-1.33-.7-.2-.03-.41-.04-.62-.02-.03 0-.05 0-.07.01-.66.07-1.28.38-1.64.93-.05.07-.09.14-.13.22-.28.58-.19 1.2.11 1.73.51.88 1.61 1.5 2.57 1.25.17-.05.34-.12.5-.23.4-.27.63-.66.72-1.09.24-1.09-.39-2.45-1.44-2.8-.18-.07-.38-.1-.58-.09h-.07s-.03.05-.04.08c-.14.26-.19.53-.16.81z"/><path d="m52.1016 328.141.01.01"/><path d="m52.6309 327.82c-.18.07-.35.14-.53.21-.06.03-.13.05-.19.08-.16.06-.32.13-.48.19-.64.34-.9 1.09-.83 1.8.08.76.53 1.49 1.29 1.64.48.09.93-.08 1.28-.39.38-.34.65-.85.7-1.35 0-.12.02-.24-.01-.36-.02-.33-.16-.63-.42-.87-.37-.3-.84-.52-1.33-.62"/><path d="m85.9102 313.33c.33.49.91.81 1.49.77.14 0 .28-.03.42-.08"/><path d="m85.6797 312.77c.02.13.06.26.13.38.02.05.04.1.08.14"/><path d="m88.3206 314.379c.06-.02.12-.05.18-.09 1.49-.88.65-3.7-1.07-3.63-.62.03-1.21.41-1.52.94-.02.02-.04.04-.04.07-.15.25-.23.53-.23.82"/><path d="m85.6406 312.5v.07s.01.03.01.04c0 .05.01.11.03.16.03.13.07.26.13.38.02.05.05.1.08.14 0 .02.01.03.02.04.32.57.89 1.01 1.5 1.13.18.04.35.05.52.03.13-.02.26-.05.38-.11"/><path d="m86.1709 312.28c-.18.07-.36.14-.53.21-.07.03-.13.05-.19.08-.16.06-.32.13-.47.19-.65.34-.91 1.08-.84 1.79.07.77.52 1.49 1.29 1.65.48.09.92-.08 1.27-.39.39-.33.65-.84.71-1.35.01-.12.02-.24-.01-.36-.02-.33-.15-.64-.42-.88-.37-.3-.84-.51-1.33-.61-.06-.02-.13-.03-.2-.04-.44-.07-.9-.06-1.29.05-.63.16-1.11.57-1.18 1.25-.05.38.06.76.23 1.1.67 1.34 2.51 1.99 3.84 1.28.69-.37 1.14-1.1 1.26-1.87h.01c.12-.7-.03-1.44-.5-1.99-.34-.4-.82-.62-1.33-.7-.2-.03-.41-.04-.62-.02-.03 0-.05 0-.07 0-.66.07-1.29.39-1.64.94-.05.06-.09.14-.13.21-.28.57-.19 1.19.11 1.72.5.88 1.6 1.51 2.56 1.26.18-.04.35-.12.51-.23.4-.27.63-.66.72-1.09.24-1.09-.39-2.45-1.44-2.8-.18-.07-.38-.1-.58-.09h-.07s-.03.05-.04.08c-.14.26-.19.54-.16.81"/><path d="m55.5707 347.41c-7.41 3.96-17.26 11.29-21.66 15.95-1.76 1.86-3.51 3.85-4.27 6.29s-.28 5.45 1.79 6.96c1.43 1.03 3.3 1.18 5.06 1.17 3.74-.04 7.48-.66 11.03-1.82-5.43 1.7-10.29 5.16-13.67 9.74-1.25 1.68-2.29 4.07-1.05 5.76.67.9 1.8 1.3 2.88 1.6 4.16 1.13 8.55 1.41 12.82.82-4.24 1.6-7.98 4.5-10.59 8.21"/><path d="m79.9809 337.061c-3.59 1.84-9.92 3.85-14.52 6.01"/><path d="m109.871 355.11c1.57-1.7 2.97-3.41 5.16-4.13.59-.19 1.59.15 1.23.66 1.14-1.37 2.47-2.59 3.94-3.59.85-.58 2.51-.69 2.44.34 1.08-.64 2.31-1.04 3.56-1.16"/><path d="m109.871 355.109.05-.04.05-.04"/><path d="m130.412 356.559c-2.4 3.34-6.52 5.36-10.63 5.21.17-.59-.09-1.27-.6-1.6-1.08 2.2-3.67 3.24-6.11 3.55-2.43.31-4.7 1.4-7.07 2.02-2.14.56-6.1603 1.1-6.6803-.16-.41-1.7 1.6903-3.44 3.0503-4.77-.89.05-1.78.09-2.6603.14 2.5703-3.5 5.9603-4.75 10.1603-5.84-.05.05-.1.09-.1.09"/><path d="m219.172 357.081c1.67 1.54 3.59 2.96 5.82 3.4 2.23.45 4.83-.3 5.98-2.26 1.66.58 3.36 1.17 5.12 1.13s3.61-.86 4.39-2.44c.78-1.57.01-3.87-1.71-4.25.53-1.26-.51-2.63-1.61-3.45-2.54-1.89-5.86-2.7-8.99-2.18-.42-1.44-1.97-2.29-3.45-2.51-1.49-.23-3.01-.01-4.51-.12-1.84-.13-3.61-.76-5.43-1-1.83-.24-3.87 0-5.16 1.31.72-2.59-8.39-.9-9.26 2.47-1.14 4.44 3.83 6.09 7.34 6.03-.12 7.6 9.75 2.29 11.47 3.87z"/><path d="m206.012 311.83c3.4 1.69 7.38 1.39 11.17 1.25 2.61-.1 5.21-.11 7.82-.02 13.47.43 26.85 3.27 39.32 8.39"/><path d="m187.602 377.25c3.32 5.44 9.41 9.09 15.77 9.46 6.37.37 12.84-2.55 16.77-7.57"/><path d="m100.672 385.26c4.17 4.62 10.68 7.01 16.85 6.2 6.17-.82 11.83-4.82 14.66-10.36"/><path d="m154.552 407.3c4.82.7 9.84.05 14.33-1.84 1.24-.52 2.57-1.3 2.85-2.61.46-2.09-2-3.6-4.09-4.05-4.06-.88-8.4-.45-12.21 1.22-1.64.71-3.3 1.79-3.86 3.48-.57 1.7.66 3.42 2.98 3.8z"/><path d="m198.451 416.27c-4.1 2.37-8.54 4.16-13.16 5.23-.67.16-1.34.3-2.01.42-2.31.44-4.64.72-6.99.87-6.01.4-12.1.02-18.13-.36-2.66-.17-5.32-.31-7.97-.45-2.13-.1-4.25-.22-6.37-.35-2.18-.15-4.36-.31-6.53-.53-2.18-.22-4.04-.5-8.35-1.93"/><path d="m176.29 422.83c-.04 3.6 1.26 7.2 3.59 9.94 1.18-3.37 2.35-6.74 3.53-10.1"/><path d="m143.801 421.881c.5 3.45.13 5.73 2.59 8.21 1.25-2.41 2.5-4.82 3.75-7.22"/><path d="m213.929 465.46c-64.57 12.76-72.64.03-94.14-4.88"/><path d="m101.588 464.801c-6.6196 4.95-13.1996 13.36-20.1096 17.87-.7-6.34 1.81-13.36-3.83-26.03"/><path d="m39.6719 436.421c-6.36 2.07-12.69 4.19-19 6.39 3.54-7.74 8.27-10.11 9.1-20"/><path d="m82.5111 417.391c.31.03.31-.53.02-.62-.17-.06-.35 0-.5.1-.11.07-.21.16-.3.26-.41.46-.67 1.05-.78 1.67-.06.32-.07.64-.03.96v.04c.03.32.11.63.23.93.65.41 1.52.08 2.01-.52.11-.14.2-.3.27-.46.36-.88.16-1.87-.08-2.79-.17-.65-.38-1.33-.89-1.77s-1.41-.48-1.78.08c-.13.2-.17.42-.18.65-.02.13-.01.26-.01.39.01.75.03 1.5.04 2.25 0 .32 0 .65.02.97 0 .1.01.2.01.3l.36-.03s.06 0 .09-.01c.14-.01.29-.02.44-.03.16 0 .33-.03.5-.04-.02-.12-.04-.23-.04-.35-.04-.69.22-1.4.19-2.1 0-.13-.03-.27-.07-.4-.2-.69-.85-1.3-1.47-.99-.02.01-.04.02-.06.04-.44.27-.52.88-.56 1.41-.02.29 0 .62.06.94.09.49.27.97.55 1.26.11.11.23.19.37.23.03.02.06.03.09.03.14.03.28.03.44-.02.01-.23.03-.44.04-.66.02-.25.03-.5.04-.76"/><path d="m64.8914 429.44c-2.46 1.42-5.61 1.56-8.18.37-2.58-1.19-4.51-3.68-5.02-6.47"/><path d="m91.4306 442.2c-3.09.07-6.24.14-9.23-.64-3-.78-5.88-2.54-7.31-5.29"/><path d="m99.1997 435.469c-.33-3.55-1.96-6.96-4.52-9.44"/><path d="m84.5704 439.239c.08-.17.05-.32-.02-.44h-.01c-.19-.27-.63-.41-.99-.3-.14.04-.26.11-.35.23-.11.14-.18.3-.22.47-.11.46.02 1.01.17 1.49.01.03.02.07.03.1.71-.42 1.2-1.17 1.35-1.98 0-.01 0-.02 0-.02.12-.62.05-1.28-.23-1.84-.6-.43-1.36-.19-1.87.32-.5.51-.75 1.27-.31 1.87.27.05.56.07.85.06.22 0 .43-.02.64-.07.33-.06.64-.17.91-.32 0 0 .02 0 .02-.01.53-.29.9-.75.93-1.37.06-1.37-1.88-2.13-3.06-1.42s-1.6 2.23-1.62 3.61c-.01.43.03.9.31 1.24.5.63 1.49.41 2.04-.17.13-.14.23-.29.3-.46.15-.35.2-.72.17-1.1 0-.21-.03-.42-.07-.63-.06-.38-.17-.76-.28-1.13-.26-.12-.55-.15-.83-.1-.35.05-.69.23-.91.51"/><path d="m58.4708 426.011c-.41-.41-1.15-.41-1.55 0-.23.24-.32.59-.27.92 0 .04.01.07.02.1.04.2.14.38.3.52.85 1 2.75.64 3.18-.59s-.83-2.7-2.11-2.46c-.53.1-.95.46-1.2.93-.24.46-.33 1.01-.19 1.5 0 .04.01.07.02.1.07.19.17.37.3.52 1.12.87 2.91-.97 2.01-2.07-.65-.37-1.47-.35-2.14-.05-.42.19-.78.49-1.02.88-.63 1.03-.3 2.53.71 3.2"/><path d="m111.88 477.599c2.13-1.48 5.19-4.44 6.06-6.89.88-2.44-.47-5.81-3.06-5.97 2.97-.19 5.12-3.44 4.76-6.39-.35-2.95-2.65-5.4-5.33-6.68 1.91-.32 3.9-.66 5.51-1.73 1.62-1.08 2.78-3.11 2.22-4.97-.27-.89-.87-1.63-1.48-2.33-5.66-6.46-12.78-11.63-20.6898-14.99-5.62-2.39-11.71-3.93-16.71-7.44-.1-.06-.2-.13-.3-.2-.29-.21-.61-.42-.95-.64-.13-.08-.27-.17-.42-.26-.17-.1-.35-.21-.54-.31l-.42-.24c-.17-.1-.35-.2-.53-.29-4.41-2.38-10.64-4.79-14.05-6.89-.72-.44-1.45-.89-2.18-1.33-2.63-1.59-5.33-3.17-8.1-4.47-4.33-2.05-8.85-3.44-13.61-3.24-1.28.05-2.59.28-3.91.64-5.3 1.45-10.77 5.03-14.99 7.97"/><path d="m22.8086 454.68c2.43 3.26 6.93 4.83 10.86 3.78-2.34 2.35-4 5.75-3.17 8.97.82 3.21 4.92 5.48 7.68 3.65-2.43 1.74-4.96 3.61-6.18 6.34"/><path d="m55.3906 217.301v.01l.03 11.19.02 4.16.14 46.59.1 30.41.05 18.69.06 19.06.18 57.55"/><path d="m205.432 139.561c-1.83-.11-3.58.94-4.69 2.4-1.11 1.45-1.65 3.26-1.98 5.06-.09.53-.18 1.08-.18 1.61-.01.1-.01.2 0 .29.01.59.12 1.16.38 1.68 1.14 2.33 4.37 2.42 6.95 2.18-1.55 1.88-1.63 4.81-.19 6.77.9 1.22 2.29 2.03 3.76 2.39 3.4.83 7.26-.87 8.93-3.95.81 1.95 2.36 3.57 4.27 4.47"/><path d="m222.119 128.289c-1.07 2.19-2.01 4.62-1.17 6.89.84 2.26 4.21 3.97 6.62 2.71-1.1 1.26-1.93 2.69-2.45 4.19-.51 1.51-.57 3.39.89 4.38 1.28.87 3.14.66 4.76.41-2.66 1.35-4.06 4.21-3.28 6.72"/><path d="m226.462 100.199c.18 2.62-.22 6.72-.11 9.34.11 2.61.76 5.36 2.61 7.21 1.85 1.86 5.14 2.44 7.09.69-1.23 1.18-1.53 3.17-.81 4.71s2.359 2.58 4.049 2.69c3.66.25 6.53-3.41 7.14-7.02.54 1.09 1.091 2.21 1.951 3.07 1.94 1.97 5.249 2.2 7.699.91 2.44-1.3 4.041-3.88 4.611-6.59"/><path d="m147.762 136.789v-4.51"/><path d="m196.551 136.37v-.02c.51-3.65.02-7.3.53-10.95"/><path d="m178.99 96.1191c-.22.22 5.07 11.6499 4.77 11.6499-1.68 0-5.36.02-7.03.03"/><path d="m184.449 95.7795c2.16-3.44 4.73-5.64 7.45-6.79.1-.05.2-.09.3-.12.23-.1.46-.18.69-.25.16-.06.31-.11.47-.15 2.66-.77 5.42-.61 8.06.31 0 0-1.28 5.67-8.23 7.18-2.26.49-5.12.54-8.74-.18"/><path d="m172.229 96.7606c-1.92-2.63-4.04-4.45-6.25-5.56-3.68-1.88-7.6-1.79-11.17-.26 0 0 1.95 6.52 10.57 6.75 1.93.06 4.19-.21 6.85-.93"/><path d="m164.789 96.7091c.06-.02.12-.03.19-.05.19-.06.36-.17.49-.32.45-.47.55-1.3.03-1.72"/><path d="m164.5 96.6992c.07.03.16.03.27.01"/><path d="m163.861 93.5898c-.07.31-.1.63-.09.95.01.15.02.3001.05.4401.03.21.09.4099.18.5999.26.56.23 1 .49 1.12"/><path d="m165.291 91.49c-.23-.12-.47-.18-.75-.16h-.03c-.84.08-.26.93-.51 1.73-.05.16-.1.33-.13.5"/><path d="m163.641 94.4802c-.07.43-.08.87.01 1.29 0 .03 0 .05.01.08.06.28.19.56.36.79.33.46.84.78 1.37.78.11 0 .23-.01.34-.04 1.32-.36 1.29-2.25.95-3.58-.1-.38-.24-.79-.43-1.17-.24-.48-.55-.91-.95-1.14"/><path d="m165.461 92.3391c-.08-.26-.24-.55-.51-.56-.28 0-.44.28-.55.54-.29.71-.5 1.46-.62 2.22-.01.08-.03.17-.04.25-.04.32-.07.65-.08.98-.01.03-.01.06-.01.09-.02.51.09.71.38.78.12.04.28.05.47.06h.01c.08 0 .17.01.27.01h.02c.91.04 1.25-.06 1.3-.97.05-1.02.11-2.05.16-3.07v-.04c.02-.31.02-.63-.16-.87-.07-.1-.17-.17-.28-.22-.15-.07-.33-.09-.51-.05h-.01c-.16.02-.32.08-.45.18-.03 0-.06.03-.09.06-.39.33-.56.83-.71 1.31-.06.17-.12.35-.17.52 0 .01 0 .02-.01.03-.09.29-.16.59-.22.88"/><path d="m164.129 91.1691c-.34 1.01-.69 2.06-.53 3.11.01.07.02.13.04.19.02.12.05.22.09.32.03.06.05.13.09.19.31.7.92 1.28 1.65 1.36h.2c.55-1.51.24-3.3-.73-4.57-.03-.04-.06-.08-.1-.11-.09-.13-.19-.24-.3-.34-.09-.11-.19-.2-.29-.28"/><path d="m193.419 94.7698c.06-.11.1-.22.14-.33.45-1.31.67-2.69.63-4.07 0-.24-.01-.47-.03-.7-.04-.45-.16-.98-.58-1.15-.08-.03-.15-.05-.22-.05-.17-.01-.32.05-.47.15-.12.07-.23.18-.32.31-.17.2-.3.44-.39.67-.08.23-.16.46-.22.69-.12.45-.21.9-.25 1.36-.1.78-.09 1.57.03 2.34.02.17.05.35.09.52.02.13.05.25.08.38.1-.05.2-.11.29-.17 1.18-.78 1.81-2.32 1.49-3.69"/><path d="m192.179 89.2992c-.09.33-.16.66-.22.99-.13.65-.21 1.31-.24 1.97-.03.57-.02 1.15.02 1.73.01.18.02.35.04.53.02 0 .03 0 .05-.01.08 0 .15 0 .22-.04.66-.16 1.19-.78 1.39-1.44.23-.76.15-1.57.07-2.36-.07-.66-.43-1.51-.94-1.74-.11-.06-.24-.09-.37-.06-.07 0-.15.03-.23.07-.02 0-.05.03-.07.05-.36.23-.45.74-.48 1.19-.09 1.26-.09 2.54 0 3.8.03.36.07.75.33 1 .27.27.65.29 1.02.16.23-.07.45-.2.64-.36h.01l.11-.11c1.1-1.1 1.33-2.92.66-4.3-.17-.37-.41-.71-.71-1-.24-.23-.59-.41-.91-.44-.28-.05-.53.02-.69.25-.12.19-.14.41-.15.63-.04.61-.05 1.23-.02 1.84-.01.21 0 .41.01.61.02.49.06.98.11 1.46.03.24.11.51.22.75.05.09.09.17.15.25.15.23.35.4.57.42.07.03.14.02.22 0 .04-.01.09-.03.14-.06.12-.07.21-.18.28-.3"/><path d="m162.139 80.6292c-.25-.03-.5-.06-.76-.1-.29-.05-.59-.1-.89-.17-.39-.08-.78-.17-1.17-.25-1.52-.34-3.06-.66-4.51-.33.88.14 1.7.49 2.51.77.33.13.65.23.98.32.14.03.28.07.42.09.68.13 1.38.12 2.12-.17.18-.07.36-.15.54-.26.11-.06.21-.1201.32-.1901.04-.03.07-.0499.11-.0799.08-.05.16-.1101.24-.1701-.13-.01-.26-.0199-.38-.0199-.14-.01-.28-.02-.41-.02-.34-.02-.66-.02-.97 0-.35 0-.67.03-.97.06-.92.09-1.59.27-2 .44-.9.39-.59.78.98.32.23-.07.49-.16.78-.27-.32.12-.42.24-.36.36.15.35 1.71.68 3.49.92.44.06.9.12 1.36.16.36.04.73.08 1.08.11"/><path d="m166.568 81.06c-.18-.28-.53-.41-.96-.46-.27-.04-.56-.04-.87-.03-.67.01-1.39.1-1.95.09h-.11c-.18-.01-.35-.02-.53-.03"/><path d="m162.16 80.6406c.24.15.48.29.73.42 1.11.61 2.27.98 3.62.61.06-.02.13-.04.2-.06.01-.22-.04-.4-.14-.54"/><path d="m162.151 80.6309h-.01"/><path d="m167.509 81.0793c-.46-.17-.86-.33-1.25-.48-.93-.36-1.69-.63-2.56-.74-.38-.04-.78-.06-1.23-.03-.28.01-.58.04-.91.09.04.05.07.1.11.15.04.06.09.13.14.19.11.13.22.25.34.37h.01c.29.31.61.57.96.8.47.31.99.55 1.53.72h.02c1.37.43 2.9.4 4.33-.16-.76-.13-1.57-.51-2.43-.92 0 0 .01-.01 0-.01-.31-.15-.63-.31-.96-.46-.28-.13-.55-.26-.84-.37-.35-.14-.7-.27-1.07-.37-.74-.2-1.51-.3-2.31-.17-.17.02-.35.05-.53.1.13.09.27.17.4.26.15.1.29.19.44.29s.29.19.44.29"/><path d="m164.67 82.1496c1.05.08 1.98.12 2.5.1-.21-.2-.43-.4-.66-.58-.54-.44-1.14-.81-1.77-1.1-.41-.2-.83-.36-1.26-.49-.33-.11-.67-.19-1.01-.25-.36-.07-.72-.12-1.08-.14-.44-.04-.88-.04-1.32-.01.07.13.14.25.22.37.06.11.13.21.2.31.11.15.23.29.35.43.4.43.86.79 1.37 1.09.61.37 1.28.64 1.98.81.12.03.25.06.38.09 1.86.38 3.83.23 5.78.08-.85-.73-1.8-1.32-2.82-1.77 0 0-.01-.01-.02-.01-.4-.19-.82-.35-1.25-.48-.49-.15-.99-.28-1.49-.37-.42-.07-.85-.13-1.29-.15-.35-.03-.7-.04-1.06-.04.08.21.16.42.26.62.07.14.14.27.21.4s.15.25.23.37c.14.22.29.42.45.61.19.23.4.45.62.65 1.64 1.51 4.01 2.19 6.33 1.63.52-.12 1.12-.41 1.25-.95.1-.41 0-.99-.38-1.09-1.64-.41-2.86-.82-3.86-1.19"/><path d="m196.732 77.1309c-.36.19-.69.43-.97.72"/><path d="m197.97 77.8805c.18-.11.36-.21.54-.32.15-.1.3-.2.45-.29.24-.16.46-.33.69-.49-.16-.05-.34-.09-.51-.11-.14-.03-.27-.04-.41-.03-.57-.02-1.16.1-1.7.34-.1.04-.19.09-.28.14"/><path d="m194.679 77.8594c-.18.11-.36.22-.53.34-.08.05-.16.1-.23.16-.07.05-.15.1-.22.16.5.22 1.01.29 1.54.26.89-.05 1.81-.4 2.69-.89"/><path d="m198.428 77.6703c.21-.11.4-.24.53-.4.12-.14.19-.3.19-.47 0-.05 0-.1-.01-.13-.02-.22-.17-.15-.41-.03-.18.08-.42.19-.7.21-.33.02-.67.06-1 .13-.74.15-1.46.41-2.13.77"/><path d="m192.301 79.9296c2.1.2 4.47-.6201 6.02-2.1601l.09-.0899h.02c.03-.04.05-.07.08-.11.08-.11.14-.2401.12-.3601-.05-.32-.55-.3499-.93-.2799-.32.05-.63.1199-.95.1999 0 0-.007.0034-.02.01-.62.15-1.24.3601-1.83.6201-.02 0-.04.0199-.05.0199-.06.03-.11.0601-.17.0901-.23.09-.45.2-.67.32.05.01.09.0099.14.0199 1.14.14 2.35.0601 3.53-.2399.08-.02.17-.05.25-.07.01-.01.03-.0101.04-.0101.15-.06.3-.1199.44-.1999"/><path d="m192.3 79.9301c1.03-.2 2.04-.59 2.94-1.15.18-.11.36-.23.53-.35-.58-.16-1.22-.18-1.85-.07-.95.15-1.89.57-2.6 1.22-.06.04-.11.09-.16.14.36.11.74.18 1.13.21"/><path d="m185.362 81.57c1.16.44 2.61.37 3.87-.17-.42-.24-.85-.45-1.31-.62-.58-.24-1.19-.42-1.83-.55-.23-.05-.46-.09-.69-.13-.44-.06-1.01-.04-1.25.33-.16.24-.09.51.03.73.84 1.54 3.51 1.31 5.4.36-.21-.3-.49-.55-.81-.75-.74-.47-1.71-.68-2.68-.54-.2.02-.39.06-.58.11.75.26 1.57.41 2.41.44.28.01.57.01.85 0 1.18-.06 2.38-.34 3.5-.83 0 0 .01 0 .02-.01 0 0 0 .01.01 0 .29-.13.57-.27.84-.42-.59-.04-1.2-.03-1.82.07-.62.07-1.23.21-1.83.42.89.15 1.84.13 2.78-.06"/><path d="m50.8203 216.82c1.02.4 2.23 1.23 4.57.49.01 0 .02-.01.03-.01.3-.1.75-.04.82-.32.01-.01.01-.03.01-.05"/><path d="m236.919 477.761s9.7 8.36 10.59 0c.96-9.03 3.91-21.02 7.61-29.31 15.07-33.72 12.29-73.61 6.91-110.15-4.36 24.28-8.3 49.48-15.91 72.94-3.24 9.97-9.47 20.72-11.36 30.9-.98 5.29-.09 11.89.85 18.5.85 6.02 1.75 12.05 1.31 17.12z"/><path d="m236.92 477.76h-19.77c-6.45-23.35-7.75-50.69-3.32-74.5 1.87 7.57 3.74 15.14 5.61 22.71 4.08 16.55 7.63 20.02 16.17 34.67.03.06.06.12.1.18"/><path d="m29.4508 320.33c-1.66-13.51-3.6-28.32-10.4-40.11 9.36 5.14 15.15 12.58 16.54 23.17 1.35-11.05-2.55-18.32-6.58-28.7-4.03-10.37-6.56-15.88-6.43-30.51 7.52 6 10.43 11.31 12.08 17.05 2.06 7.12 1.96 10.7 3.74 17.9-.28-8.05 1-16.16 3.74-23.74"/><path d="m225.012 312.681c1.61-6.29 3.11-12.66 4.21-19.08 1.44-8.38 2.18-16.85 1.59-25.3 3.77 4.57 6.8 11.34 8.68 18.35 1.65 6.13 2.42 12.43 2.05 17.61.8-6.08 5.91-14.34 10.39-18.53 4.93-4.6 7.04-4.79 12.39-7.04-6.95 10.49-6.48 16-10.53 27.91 3.69-5.04 9.18-15.61 15.04-17.77-5.66 6.43-3.67 21.68-4.51 32.62"/><path d="m122.139 54.9305c-2.49.27-5 .54-7.49.23-2.48-.31-4.97-1.26-6.67-3.09-1.82-1.95-2.56-4.65-2.88-7.31-.02-.09-.03-.17-.04-.26-.55-4.93 6.85-13.32 11.13-15.83.58-.34-11.27-.75-17.4902 7.68-2 2.69-9.5999 18.78 7.4602 26.89 4.5 2.14 10.08.91 14.45-1.49"/><path d="m131.1 43.1006c-.23-1.51-1.95-2.38-3.49-2.37-2.63.01-5.1 2.08-5.59 4.66-1.75-1.56-3.2-2.05-5.53-2.29-1.15-.11-2.34-.18-3.43.18-1.1.35-2.11 1.22-2.31 2.35-1.22-1.5-3.59-1.92-5.25-.92"/><path d="m86.2506 89.9295c.56-1.47-.55-3.2001-2.05-3.6601s-3.17.1201-4.38 1.1201c-1.2 1-2.04 2.37-2.84 3.72.03-2.53-2.07-4.9-4.59-5.17"/><path d="m109.189 64.6504c-1.58 1.84-2.34 3.35-2.04 5.75-.66-1.9-3.47-2.19-5.1-1-1.63 1.18-2.3504 3.22-2.9904 5.14"/><path d="m31.9089 82.6592c.05-.5-.29-1.04-.81-1.33-.7-.38-1.58-.41-2.4-.32-2.3.26-4.45 1.34-5.82 2.93"/><path d="m31.9083 82.6602c-.06.16-.12.32-.17.49.11-.16.17-.32.17-.49z"/><path d="m41.4702 80.8002c-1.46-1.21-3.7-1.69-5.67-1.22-1.77.43-3.25 1.62-3.89 3.08"/><path d="m22.9883 129.71c1.76 1.5 3.24 2.1 5.3 1.07 2.07-1.03 2.72-3.27 4.11-5.12 1.21 2.09 2.73 3.32 5.12 3.63"/><path d="m95.0584 44.2908c-2.67-1.89-6.42-1.59-9.35-.13-2.92 1.47-5.22 3.93-7.44 6.33-.88-1.88-3.14-2.83-5.21-2.67s-3.97 1.22-5.63 2.47c-1.83 1.38-3.58 3.22-3.82 5.5-.75-2.07-3.23-3.13-5.43-2.9s-4.16 1.46-5.94 2.78c-2.57 1.91-4.95 4.08-7.09 6.47"/><path d="m22.9883 43.6796c3.05-3.75 7.39-7.32 11.95-8.91 1.17-.41 2.43-.74 3.64-.45 3.08.72 3.94 4.62 4.19 7.78 1.28-2.55 2.99-4.97 5.38-6.52 2.39-1.56 5.55-2.13 8.14-.95 2.6 1.18 4.3 4.34 3.35 7.03 1.74-2.82 3.96-5.75 7.21-6.46 3.24-.7 7.19 2.43 5.96 5.51 1.56-3.05 4.75-5.45 8.16-5.23 3.42.23 6.49 3.75 5.55 7.03"/><path d="m22.8008 58.3009c1.02-1.68 3-4.26 4.69-5.26 1.68-.99 3.86-1.3 5.6-.41 1.74.9 2.78 3.17 1.96 4.94.81-1.93 2.78-3.09 4.68-3.99 1.51-.71 3.12-1.34 4.78-1.24 2.6.15 4.94 2.34 5.25 4.93"/><path d="m97.3206 57.3594c-1.68 2.05-4.86 2.68-7.2 1.43-2.23 3.11-6.96 4.07-10.23 2.08"/><path d="m64.7314 62.941c-1.62-.69-3.56.11-4.73 1.42s-1.74 3.03-2.28 4.69c-.34-2.09-2.84-3.29-4.93-2.9s-3.78 1.92-5.15 3.55c-.87-2.25-3.77-3.23-6.08-2.53-2.31.71-4.03 2.7-5.08 4.87-.56-1.5-2.06-2.5-3.63-2.82-1.57-.33-3.21-.07-4.76.32-2.16.55-3.2 1.22-5.15 2.28"/><path d="m160.41 50.9707c-1.43 4.48-7.13 7.02-11.41 5.09-.31 4.01-5.07 7-8.81 5.52.25 5.19-3.88 10.23-9.02 10.99 1.83 2.73.81 6.62-1.43 9.03-2.24 2.4-5.41 3.67-8.47 4.86"/><path d="m179.71 48.3008c-.78 2.73.86 5.92 3.54 6.86 2.67.95 5.95-.49 7.06-3.1-.53 2.95 1.32 6.16 4.15 7.16s6.29-.32 7.73-2.95c-.63 3.38-.33 7.25 2.12 9.67 2.44 2.42 7.42 2.11 8.59-1.13-1.16 2.85-.81 6.45 1.42 8.56 2.23 2.12 6.41 2 8.03-.62-.43 1.51-.87 3.13-.38 4.62s2.31 2.64 3.66 1.85"/><path d="m119.828 100.601c2.68-.15 5.42-.7905 7.54-2.4305 1.43-1.1 2.52-2.74 2.87-4.5.17-.84.18-1.6999-.03-2.5499.36 1.65 2.43 2.4999 4.01 1.9399.4-.15.76-.35 1.08-.61.97-.76 1.62-1.9599 1.88-3.1899.35-1.65.14-3.3501-.08-5.0101 1.34 1.49 4.05.5201 4.94-1.2799s.52-3.9401.14-5.9101"/><path d="m99.4883 146.351c2.1797-.69 3.5997-2.8 5.6197-3.87s5.46.02 4.95 2.25c1.41-1.75 3.22-3.33 5.43-3.72s4.8.8 5.34 2.98c1.78-1.13 3.68-2.29 5.79-2.35 2.11-.05 4.41 1.46 4.4 3.57 1.71-.98 3.64-1.86 5.57-1.51 1.93.34 3.63 2.45 2.85 4.25"/><path d="m68.7891 165.29c2.82 1.84 7.05.98 8.93-1.81.6 3.2 4.06 5.31 7.31 5.15s6.18-2.14 8.3-4.61c-.06 2.06 2.15 3.66 4.2 3.51 2.05-.16 3.7999-1.64 4.8999-3.38.03 2.42 1.81 4.71 4.15 5.33"/><path d="m121.01 122.7c-.73-1.78-3.13-2.37-4.93-1.69-1.79.68-3.08 2.26-4.16 3.86-.83-2.37-2.29-4.7-4.6-5.69-2.31-.98-5.51-.05-6.25 2.35"/><path d="m97.2006 155.661c-.94-1.56-2.75-2.54-4.57-2.5-1.82.05-3.58 1.14-4.43 2.74 0-2.01-1.13-4-2.86-5.03-1.73-1.04-4-1.09-5.78-.14-.42-3.69-3.5-6.92-7.17-7.52"/><path d="m54.4497 228.5c-1.75 1.06-3.17 2.66-4.02 4.52-.1.22-.19.45-.24.68-.06.22-.08.45-.04.67.07.48.41.85.85 1.06.43.21.94.26 1.4.13.92-.26 2.53-2.05 2.97-2.9"/><path d="m42.2002 220.78c-3.07-.14-5.26 2.84-6.84 5.47-.31.52-.64 1.1-.53 1.7.03.18.11.35.21.49.41.58 1.3.8 2.03.57.07 0 .14-.03.2-.06.93-.39 1.53-1.29 2.07-2.14.77-1.2 1.53-2.39 2.29-3.58"/><path d="m49.7319 233.589c-2.55-.35-5.16 1.17-6.38 3.41-.36.68-.61 1.42-.68 2.19.04.02.09.03.13.04 3.13 1.08 6.97-.67 8.18-3.77"/><path d="m34.2109 229.12c-1.11 1.56-1.66 3.53-1.5 5.44.01.17.03.33.05.5.08.55.28 1.17.8 1.37.76.3 1.47-.52 1.84-1.26.07-.14.13-.27.19-.41.84-1.81 1.34-3.76 1.48-5.75.02-.34.04-.67.04-1.01"/><path d="m42.6498 236.53c-.62-.13-1.25-.17-1.88-.13-1.76.09-3.49.81-4.81 1.98-.53.46-1 1-1.38 1.61-.16.24-.29.51-.34.79-.04.17-.04.35.01.53.19.62.96.84 1.61.89 1.72.12 3.45-.33 4.91-1.23.77-.47 1.46-1.05 2.03-1.74.12-.14.23-.28.33-.42"/><path d="m35.0593 240.579c.51-.58.78-1.4.9-2.2.14-.81.13-1.61.09-2.12-.04-.52-.19-1.06-.46-1.5-.24-.41-.6-.74-1.06-.87-.72-.21-1.35.11-1.82.67-.58.68-.93 1.75-.92 2.67 0 .95.17 1.94.75 2.68.41.51 1.06.86 1.7.87.28 0 .56-.06.82-.2z"/><path d="m266.709 243.5c-.37 1.13-.73 3.07-1.58 3.9"/><path d="m222.131 92.7997c-.92 2.44.25 5.49 2.58 6.69 2.32 1.1903 5.49.37 6.94-1.8 1.33 1.97 4.12 2.8003 6.31 1.89 2.2-.92 3.56-3.5 3.09-5.83.55.84 1.48 1.43 2.48 1.55 1.1.13 2.2-.26 3.15-.83 2.7-1.6 4.46-4.66 4.49-7.79"/><path d="m249.711 103.93c2.99 1.43 7.03-.7 7.64-4.0296.14 1.7396 1.66 3.2596 3.36 3.3496 1.77.09 3.34-1.16 4.49-2.54"/><path d="m23.2695 192.091c3.65 1.43 8.57-.7 9.31-4.03.17 1.74 2.02 3.26 4.1 3.35 2.15.09 3.69-1.1 5.09-2.48"/><path d="m226.852 86.2195c3.06 1.43 7.21-.7 7.83-4.03.15 1.75 1.71 3.26 3.46 3.35 1.81.1 3.42-1.15 4.6-2.53"/><path d="m262.409 135.76c-2.06 1.55-4.56 5.27-2.42 9.78.39.83 1 1.68 1.92 1.78-1.85 1.27-2.92 3.6-2.68 5.83.25 2.24 1.79 4.28 3.87 5.12-2.45 1.63-4.14 4.34-4.53 7.25s.53 5.98 2.47 8.19"/><path d="m234.609 50.3901c3.77-1.18 8.32 1.3501 9.13 5.0801.34-1.71 2.38-2.7801 4.17-2.5101 1.79.26 3.26 1.5701 4.13 3.1001s1.23 3.27 1.58 4.98c1.13-4.87 6.27-8.5701 11.45-8.2401"/><path d="m256.809 42.1708c-.84-1.86-2.66-3.2399-4.67-3.5399-2.02-.3-4.17.4799-5.51 2.0099-.48-2.45-2.53-4.51-4.97-5-2.45-.5-5.14.6201-6.53 2.6901-1.37-2.13-3.75-3.5901-6.27-3.8501-2.52-.25-5.14.7001-6.91 2.5201"/><path d="m121.272 192.801c-.06.39-.14.78-.22 1.17-2.82 13.66-15.73 27.7-2.32 51.78"/><path d="m118.252 310.31c-.44-3.56-.77-6.76-1.02-9.7-1.86-22.24 1.24-29 1.5-54.86"/><path d="m188.081 78.5904h.05c.75.03 1.5.03 2.24 0 1.04-.02 2.08-.08 3.11-.17-.92-.05-1.85-.07-2.77-.06-.63.01-1.27.02-1.9.06-1.23.05-2.46.15-3.69.31l2.25.03c.62 0 1.23.02 1.85.03.37.01.81-.04 1.15-.2.13-.05.25-.13.34-.23.13-.11.21-.26.23-.46-.71.17-1.42.34-2.13.52-.22.05-.45.1-.68.16-.25.06-.51.12-.76.18-.04 0-.07.02-.11.03.6.58 1.58.73 2.32.34"/><path d="m134.701 104.421c-2.92-2.75-3.68-6.1102-3.49-10.6202"/><path d="m222.68 162.46c7.59 2.36 12.18-1.34 12.61-1.7h.01l.02-.02"/></g></svg>