<svg width="49" height="194" viewBox="0 0 49 194" fill="none" xmlns="http://www.w3.org/2000/svg">
<g clip-path="url(#clip0_4068_12169)">
<mask id="mask0_4068_12169" style="mask-type:alpha" maskUnits="userSpaceOnUse" x="0" y="0" width="49" height="194">
<path d="M0 0H49V194H0V0Z" fill="#D9D9D9"/>
</mask>
<g mask="url(#mask0_4068_12169)">
<path d="M38.9 95C39.2 92.4 38.9 89.9 38.3 87.4C37.7 84.8 36.7 82.6 35.2 80.7C34.1 79.3 32.8 78.3 31.3 77.5C29.9 76.7 28.4 76 26.8 75.4C25.3 74.8 23.6 74.2 21.9 73.7C20.2 73.1 18.5 72.3 16.7 71.4C14.2 69.9 12 68.1 10.1 65.9C8.3 63.7 6.8 61.2 5.7 58.6C4.6 55.9 3.9 53 3.5 50C3.2 46.9 3.2 43.9 3.5 40.9C4 37.9 4.7 35 5.6 32.2C6.5 29.4 7.8 26.8 9.5 24.6C11.2 22.3 13.3 20.4 15.7 19.1C18.2 17.7 21.1 17 24.5 17C29.3 17 33.3 18.5 36.4 21.5C39.5 24.5 41.7 28.2 43.1 32.6C44 35.3 44.5 37.9 44.8 40.3C45.1 42.6 45.3 45.2 45.4 48H37.1C37 45.7 36.8 43.6 36.6 41.8C36.3 39.9 35.7 37.9 34.8 35.9C33.8 33.6 32.3 31.7 30.3 30.4C28.3 28.9 26.2 28.2 24 28.2C21.8 28.2 20 28.7 18.6 29.7C17.1 30.7 15.9 32 15 33.6C14.1 35.1 13.5 36.9 13.1 38.7C12.7 40.6 12.4 42.4 12.3 44.2C12.2 45.9 12.3 47.7 12.6 49.5C12.9 51.2 13.6 52.8 14.5 54.3C15.6 55.8 17 57.1 18.8 58C20.5 58.9 22.2 59.8 24 60.4C25.8 61.1 27.6 61.8 29.3 62.5C31.1 63.2 32.8 64 34.5 64.9C36.2 65.8 37.8 66.8 39.1 68C40.6 69.1 41.9 70.5 43 72.1C44.8 74.8 46.1 77.9 46.9 81.4C47.7 84.7 48 88 47.9 91.3C47.7 93.7 47.4 96.1 47 98.4C46.7 100.7 46.1 102.9 45.5 105.1C44.8 107.3 43.8 109.5 42.4 111.5C41.1 113.6 39.5 115.4 37.6 116.9C35.8 118.4 33.8 119.7 31.5 120.6C29.3 121.5 26.9 121.9 24.5 121.9C22.2 121.9 20 121.5 17.9 120.6C15.8 119.7 13.9 118.5 12.2 117C10.6 115.5 9.1 113.9 7.8 112C6.6 110 5.6 108 4.8 105.8C3.7 102.6 3 99.2 2.7 95.4C2.4 91.6 2.2 88 2 84.7H10.3C10.2 87.3 10.4 90.1 10.8 93.1C11.2 96.1 11.9 98.8 12.9 101.3C13.5 103 14.3 104.6 15.4 105.9C16.3 107.1 17.6 108.2 19 109.1C20.5 110 22.4 110.5 24.7 110.5C26.9 110.5 28.7 110.1 30.4 109.2C32.1 108.3 33.6 107.2 34.8 105.7C36 104.2 37 102.6 37.6 100.7C38.2 98.9 38.7 97 38.9 95V95Z" fill="white"/>
</g>
</g>
<defs>
<clipPath id="clip0_4068_12169">
<rect width="49" height="194" fill="white"/>
</clipPath>
</defs>
</svg>
