<svg width="92" height="194" viewBox="0 0 92 194" fill="none" xmlns="http://www.w3.org/2000/svg">
<g clip-path="url(#clip0_4068_12419)">
<mask id="mask0_4068_12419" style="mask-type:alpha" maskUnits="userSpaceOnUse" x="0" y="0" width="92" height="194">
<path d="M0 0H92V194H0V0Z" fill="#D9D9D9"/>
</mask>
<g mask="url(#mask0_4068_12419)">
<path d="M90.0002 21.1001C89.8002 21.2001 89.1002 22.1001 87.9002 23.9001C86.7002 25.6001 85.0002 27.8001 83.1002 30.5001C81.2002 33.2001 79.1002 36.2001 76.7002 39.5001C74.3002 42.7001 71.8002 45.9001 69.4002 49.1001C67.0002 52.3001 64.6002 55.3001 62.3002 58.2001C60.0002 61.1001 57.9002 63.4001 56.2002 65.2001L55.0002 66.7001L54.5002 67.8001L52.8002 69.7001C52.4002 70.1001 52.1002 70.5001 51.9002 70.9001C51.7002 71.2001 51.5002 71.5001 51.2002 72.0001C49.7002 74.0001 48.1002 76.0001 46.5002 78.0001C44.9002 80.0001 43.4002 82.0001 42.1002 84.2001C41.6002 84.6001 41.2002 85.0001 41.0002 85.5001C40.8002 86.0001 40.5002 86.5001 40.1002 86.8001V87.6001C39.7002 88.2001 39.2002 88.8001 38.8002 89.5001C38.4002 90.0001 38.0002 90.6001 37.6002 91.1001C37.2002 92.1001 36.7002 92.7001 36.0002 93.0001C35.4002 93.3001 34.8002 93.8001 34.3002 94.6001C32.8002 96.7001 31.4002 98.5001 30.0002 100.1C28.7002 101.7 27.2002 103.5 25.6002 105.6C25.6002 105.8 25.6002 105.9 25.5002 106V106.4C23.9002 108.7 22.2002 111.1 20.3002 113.6C18.5002 116.1 16.8002 118.4 15.1002 120.6C14.7002 121 14.3002 121.5 13.9002 122.1C13.5002 122.6 13.0002 123.1 12.4002 123.6C11.9002 124 11.3002 124.4 10.7002 124.5C10.1002 124.8 9.4002 124.8 8.6002 124.6C6.3002 124.8 4.5002 124.2 3.1002 123C1.9002 121.8 1.2002 120.1 1.2002 118.2C1.6002 112.8 2.1002 107.3 2.7002 101.7C3.0002 96.0001 3.7002 90.6001 4.5002 85.2001C4.9002 82.9001 5.30019 80.5001 5.60019 78.1001C6.00019 75.6001 6.3002 73.2001 6.7002 70.9001C7.6002 64.7001 8.5002 58.5001 9.4002 52.3001C10.3002 46.1001 11.4002 39.8001 12.6002 33.7001C14.1002 32.4001 16.0002 31.6001 18.3002 31.4001C19.4002 31.8001 20.3002 32.3001 21.2002 32.9001C22.1002 33.4001 22.9002 34.1001 23.6002 35.0001C24.0002 36.1001 24.1002 37.0001 23.7002 37.8001C23.3002 38.6001 22.9002 39.5001 22.5002 40.3001C22.2002 41.0001 22.0002 41.8001 21.7002 42.6001C21.5002 43.4001 21.3002 44.2001 21.2002 45.0001C20.8002 46.5001 20.5002 48.2001 20.3002 50.0001C20.1002 51.8001 19.9002 53.6001 19.5002 55.4001C19.3002 55.8001 19.2002 56.3001 19.1002 56.9001C19.0002 57.4001 18.9002 58.0001 18.8002 58.6001C18.6002 59.2001 18.4002 59.9001 18.3002 60.6001C18.1002 61.2001 18.0002 61.9001 17.9002 62.6001C17.8002 62.8001 17.8002 62.9001 17.9002 63.0001C18.0002 63.1001 18.0002 63.2001 17.9002 63.4001C17.5002 64.2001 17.3002 65.1001 17.2002 66.1001C17.2002 67.0001 17.0002 67.8001 16.5002 68.5001C15.8002 73.3001 15.0002 78.0001 14.2002 82.4001C13.4002 86.9001 12.8002 91.1001 12.3002 95.3001C11.9002 98.4001 11.3002 101.8 10.6002 105.5C9.9002 109.2 9.4002 112.7 9.1002 116.1C9.5002 115.9 9.9002 115.6 10.2002 115.2C10.6002 114.8 10.8002 114.4 11.0002 114.1C11.4002 113.7 11.7002 113.3 11.9002 112.9C12.3002 112.6 12.6002 112.3 12.8002 111.8C14.4002 110.1 15.8002 108.3 17.1002 106.3C18.4002 104.3 19.9002 102.5 21.4002 100.7C21.6002 100.3 21.8002 99.9001 22.2002 99.6001C22.6002 99.2001 22.8002 98.8001 22.9002 98.3001C23.6002 97.6001 24.2002 96.8001 24.8002 96.0001C25.3002 95.2001 26.0002 94.4001 26.7002 93.7001C28.1002 91.6001 29.6002 89.6001 31.1002 87.7001C32.6002 85.6001 34.2002 83.6001 35.8002 81.7001C36.7002 80.3001 37.6002 78.9001 38.6002 77.7001C39.7002 76.5001 40.7002 75.1001 41.8002 73.7001C42.0002 73.4001 42.2002 73.2001 42.3002 72.9001C42.6002 72.5001 42.8002 72.2001 43.1002 72.0001C44.3002 69.9001 45.9002 67.6001 47.9002 65.0001C50.0002 62.3001 52.3002 59.6001 54.6002 57.0001C56.9002 54.3001 59.2002 51.7001 61.4002 49.1001C63.6002 46.5001 65.5002 44.3001 66.9002 42.4001C69.6002 38.7001 72.3002 35.2001 75.1002 32.0001C76.6002 30.1001 78.2002 28.1001 79.9002 26.0001C81.6002 23.8001 83.2002 21.7001 84.8002 19.7001L86.7002 17.6001C87.1002 17.2001 87.6002 16.7001 88.0002 16.1001C88.5002 15.6001 89.2002 15.4001 90.0002 15.6001C90.5002 15.5001 90.8002 15.8001 90.9002 16.4001C91.0002 16.9001 90.9002 17.6001 90.8002 18.3001C90.7002 19.0001 90.5002 19.7001 90.3002 20.3001C90.1002 20.7001 90.0002 21.0001 90.0002 21.1001V21.1001Z" fill="white"/>
</g>
</g>
<defs>
<clipPath id="clip0_4068_12419">
<rect width="92" height="194" fill="white"/>
</clipPath>
</defs>
</svg>
