<svg width="58" height="194" viewBox="0 0 58 194" fill="none" xmlns="http://www.w3.org/2000/svg">
<g clip-path="url(#clip0_4068_12384)">
<mask id="mask0_4068_12384" style="mask-type:alpha" maskUnits="userSpaceOnUse" x="0" y="0" width="58" height="194">
<path d="M0 0H58V194H0V0Z" fill="#D9D9D9"/>
</mask>
<g mask="url(#mask0_4068_12384)">
<path d="M57.0002 18.2992V21.9992H56.9002C55.5002 21.9992 54.2002 22.6992 53.1002 24.0992C52.0002 25.3992 51.0002 27.4992 50.1002 30.2992C49.2002 33.0992 48.2002 36.9992 47.0002 42.0992L39.4002 75.3992C38.9002 77.6992 38.5002 79.8992 38.4002 81.7992C38.2002 83.6992 38.2002 86.2992 38.2002 89.5992V116.999H44.0002V120.799H14.7002V116.999H20.7002V90.7992C20.7002 88.0992 20.6002 85.7992 20.3002 84.0992C20.1002 82.2992 19.7002 80.0992 19.0002 77.3992L5.7002 21.9992H0.700195V18.1992H28.6002V21.9992H24.2002L35.9002 73.3992L42.9002 42.0992C44.3002 35.9992 45.0002 31.5992 45.0002 28.7992C45.0002 24.2992 43.0002 21.9992 39.0002 21.9992H38.0002V18.1992H57.0002V18.2992Z" fill="white"/>
</g>
</g>
<defs>
<clipPath id="clip0_4068_12384">
<rect width="58" height="194" fill="white"/>
</clipPath>
</defs>
</svg>
