<svg width="129" height="194" viewBox="0 0 129 194" fill="none" xmlns="http://www.w3.org/2000/svg">
<g clip-path="url(#clip0_4068_12424)">
<mask id="mask0_4068_12424" style="mask-type:alpha" maskUnits="userSpaceOnUse" x="0" y="0" width="129" height="194">
<path d="M0 0H129V194H0V0Z" fill="#D9D9D9"/>
</mask>
<g mask="url(#mask0_4068_12424)">
<path d="M114 76.1002C114.1 76.4002 113.7 76.6002 112.8 76.8002C112 77.0002 111.6 77.3002 111.6 77.7002C110.1 78.0002 108.8 78.6002 107.7 79.6002C106.6 80.5002 105.5 81.2002 104.2 81.7002C103 82.4002 101.8 83.0002 100.6 83.6002C99.4996 84.1002 98.3996 84.8002 97.2996 85.5002C96.5996 85.9002 95.8996 86.2002 95.2996 86.4002C94.7996 86.7002 94.1996 87.0002 93.6996 87.3002L93.5996 87.2002C92.1996 88.0002 91.0996 88.7002 90.2996 89.2002C89.5996 89.6002 88.8996 90.1002 88.1996 90.5002C87.5996 90.9002 86.8996 91.3002 86.0996 91.7002C85.2996 92.1002 84.1996 92.8002 82.8996 93.7002C81.5996 94.5002 80.2996 95.4002 78.9996 96.4002C77.7996 97.4002 76.5996 98.4002 75.2996 99.3002C74.2996 100 73.2996 100.7 72.3996 101.4C71.4996 102.2 70.5996 103 69.6996 103.7L67.3996 105.6C67.1996 105.9 66.8996 106.3 66.4996 106.9C66.0996 107.6 65.6996 108.4 65.1996 109.2C64.7996 110 64.2996 110.8 63.8996 111.5C63.4996 112.2 63.2996 112.7 63.1996 113.1C60.6996 119.3 58.2996 124.7 55.8996 129.6C53.4996 134.5 51.0996 138.9 48.6996 142.7C46.2996 146.5 43.8996 149.9 41.4996 152.9C39.0996 155.9 36.6996 158.7 34.2996 161.2C32.2996 163.3 30.0996 165.4 27.7996 167.5C25.5996 169.6 23.1996 171.5 20.6996 173.4C19.5996 174.2 18.2996 175.1 16.7996 175.9C15.3996 176.9 13.8996 177.6 12.4996 178C8.29961 179.1 5.49961 179.1 4.09961 178.1C2.59961 177.1 1.89961 175.6 1.99961 173.4C1.99961 171.3 2.49961 168.9 3.59961 166.2C4.69961 163.5 5.69961 161 6.69961 158.7C8.09961 155.7 9.59961 152.9 10.9996 150.3C12.3996 147.7 13.9996 145.2 15.7996 142.8C18.1996 139.5 20.2996 136.7 22.0996 134.5C23.8996 132.4 25.5996 130.4 27.2996 128.6C28.9996 126.9 30.7996 125.3 32.5996 123.6C34.5996 122 36.7996 120.1 39.3996 118C42.0996 115.9 45.1996 113.4 48.8996 110.5C52.5996 107.6 56.9996 104 62.2996 99.7002C63.4996 97.6002 64.7996 94.9002 66.3996 91.7002C67.9996 88.5002 69.6996 85.0002 71.5996 81.3002C73.4996 77.5002 75.2996 73.5002 77.1996 69.4002C79.1996 65.2002 80.9996 61.1002 82.6996 57.1002C84.4996 53.1002 85.9996 49.2002 87.3996 45.6002C88.6996 41.9002 89.7996 38.5002 90.4996 35.6002C87.7996 38.0002 84.8996 40.9002 81.7996 44.3002C78.7996 47.7002 75.5996 51.4002 72.2996 55.4002C69.0996 59.3002 65.7996 63.4002 62.3996 67.7002C58.9996 71.9002 55.5996 76.0002 52.1996 79.9002C48.8996 83.8002 45.6996 87.5002 42.3996 91.0002C39.1996 94.4002 36.1996 97.2002 33.2996 99.6002C32.0996 100.6 30.8996 101.6 29.3996 102.7C28.0996 103.8 26.6996 104.5 25.2996 105C24.6996 105.2 23.8996 105.2 22.8996 105C21.8996 104.9 21.0996 104.7 20.4996 104.3C19.9996 104.1 19.2996 103.8 18.3996 103.2C17.4996 102.7 16.8996 102.2 16.4996 101.7C16.2996 101.4 16.0996 101 15.9996 100.5C15.8996 99.9002 15.9996 99.2002 16.0996 98.5002C16.2996 96.0002 16.5996 93.6002 16.9996 91.4002C17.3996 89.1002 17.9996 86.8002 18.6996 84.6002C19.1996 82.5002 19.8996 80.4002 20.5996 78.6002C21.2996 76.6002 21.9996 74.6002 22.6996 72.6002C23.2996 70.8002 24.2996 68.1002 25.7996 64.6002C27.1996 60.9002 28.6996 57.1002 30.2996 53.2002C31.8996 49.3002 33.3996 45.5002 34.6996 41.8002C36.0996 38.1002 37.0996 35.4002 37.7996 33.5002C37.9996 33.0002 38.0996 32.4002 38.0996 31.9002C38.1996 31.4002 38.3996 30.9002 38.5996 30.4002C38.9996 29.6002 39.7996 28.9002 40.9996 28.3002C42.1996 27.6002 43.5996 27.3002 44.9996 27.5002C46.3996 27.7002 47.7996 28.4002 49.0996 29.8002C50.3996 31.1002 50.9996 32.7002 50.6996 34.6002C50.4996 35.7002 50.1996 36.7002 49.5996 37.5002C49.1996 38.3002 48.6996 39.2002 48.2996 40.0002C47.8996 40.8002 47.1996 42.1002 46.3996 43.7002C45.5996 45.4002 44.6996 47.3002 43.5996 49.5002C42.5996 51.6002 41.5996 53.9002 40.3996 56.2002C39.2996 58.5002 38.2996 60.8002 37.2996 63.0002C36.2996 65.1002 35.3996 67.1002 34.5996 68.9002C33.7996 70.6002 33.1996 71.9002 32.6996 72.8002C31.8996 74.8002 31.0996 76.6002 30.2996 78.4002C29.5996 80.2002 28.8996 82.0002 28.2996 83.9002C27.5996 85.9002 26.9996 87.9002 26.3996 89.9002C25.8996 92.0002 25.3996 94.0002 24.9996 96.1002C26.5996 95.3002 27.9996 94.3002 29.2996 93.2002C30.4996 92.0002 31.7996 90.8002 32.9996 89.6002C35.7996 87.2002 38.3996 84.8002 40.9996 82.4002C44.1996 79.5002 47.7996 75.5002 51.6996 70.6002C55.6996 65.7002 59.7996 60.6002 63.9996 55.5002C68.1996 50.2002 72.2996 45.2002 76.2996 40.4002C80.3996 35.6002 84.0996 31.7002 87.4996 28.9002C88.6996 27.7002 90.0996 26.6002 91.4996 25.6002C92.8996 24.4002 94.2996 23.3002 95.4996 22.1002C96.4996 21.7002 97.5996 21.3002 98.9996 20.9002C100.3 20.5002 101.5 20.7002 102.6 21.7002C102.6 22.3002 102.6 22.7002 102.5 22.8002C103.3 24.0002 103.3 25.5002 102.6 27.2002C102 28.8002 101.4 30.3002 101 31.8002C100.7 32.7002 100.2 34.0002 99.4996 35.8002C98.7996 37.6002 97.9996 39.6002 97.0996 41.8002C96.1996 44.0002 95.1996 46.4002 94.1996 48.9002C93.1996 51.3002 92.1996 53.6002 91.2996 55.9002C90.3996 58.1002 89.5996 60.1002 88.8996 61.9002C88.1996 63.7002 87.6996 65.0002 87.2996 65.9002C86.5996 67.8002 85.6996 69.8002 84.7996 71.9002C83.8996 74.0002 82.9996 76.1002 81.9996 78.2002C80.9996 80.3002 79.9996 82.4002 79.0996 84.4002C78.0996 86.3002 77.2996 87.9002 76.5996 89.4002C78.8996 88.3002 81.0996 87.1002 83.0996 85.8002C85.0996 84.4002 87.2996 83.0002 89.5996 81.8002C91.7996 80.6002 93.6996 79.7002 95.2996 78.9002C96.8996 78.1002 98.4996 77.4002 100.1 76.8002C101.7 76.1002 103.4 75.4002 105.2 74.8002C107 74.1002 109.1 73.2002 111.6 72.3002C112.7 71.9002 114.1 71.4002 115.9 70.8002C117.8 70.2002 119.6 69.7002 121.2 69.3002C123 68.9002 124.5 68.9002 125.6 69.0002C126.8 69.1002 127.2 69.7002 126.9 70.7002L114 76.1002ZM53.7996 113.9C53.5996 114.3 53.3996 114.7 52.9996 115C52.6996 115.3 52.3996 115.5 52.0996 115.8L49.9996 117.5C48.8996 118.4 47.6996 119.4 46.2996 120.6C44.9996 121.8 43.5996 122.9 42.1996 124.1C40.7996 125.3 39.3996 126.6 38.0996 127.7C36.7996 128.9 35.6996 129.8 34.7996 130.6C30.0996 135.8 26.0996 140.7 22.7996 145.5C19.4996 150.2 16.8996 154.3 15.0996 157.7C13.2996 161.2 12.2996 163.9 12.1996 165.7C11.9996 167.7 12.6996 168.4 14.1996 168C15.6996 167.6 18.1996 165.8 21.4996 162.6C24.9996 159.6 29.3996 154.8 34.6996 148.3C37.3996 145.1 39.7996 141.8 41.8996 138.5C44.0996 135.3 46.0996 132.2 47.7996 129.1C49.4996 126.1 50.8996 123.2 51.8996 120.5C52.7996 118 53.4996 115.8 53.7996 113.9V113.9ZM93.6996 87.4002L93.5996 87.5002C93.5996 87.4002 93.6996 87.4002 93.6996 87.4002Z" fill="white"/>
</g>
</g>
<defs>
<clipPath id="clip0_4068_12424">
<rect width="129" height="194" fill="white"/>
</clipPath>
</defs>
</svg>
