<svg width="61" height="194" viewBox="0 0 61 194" fill="none" xmlns="http://www.w3.org/2000/svg">
<g clip-path="url(#clip0_4068_12249)">
<mask id="mask0_4068_12249" style="mask-type:alpha" maskUnits="userSpaceOnUse" x="0" y="0" width="61" height="194">
<path d="M0 0H61V194H0V0Z" fill="#D9D9D9"/>
</mask>
<g mask="url(#mask0_4068_12249)">
<path d="M35.2004 122.402C39.7004 120.702 43.1004 117.902 45.4004 114.002C47.8004 109.902 48.9004 105.902 48.9004 101.802C48.9004 97.2016 47.7004 93.2016 45.2004 89.9016C42.8004 86.5016 39.8004 83.5016 36.2004 80.9016C32.7004 78.1016 28.8004 75.6016 24.5004 73.2016C20.3004 70.7016 16.3004 68.1016 12.7004 65.3016C9.20039 62.5016 6.10039 59.4016 3.70039 55.8016C1.30039 52.3016 0.200391 48.0016 0.200391 43.1016C0.200391 39.6016 0.80039 36.5016 2.00039 33.6016C3.30039 30.6016 5.00039 28.1016 7.20039 25.9016C9.40039 23.6016 11.9004 21.8016 14.7004 20.4016C17.7004 18.9016 20.8004 17.9016 24.2004 17.3016C21.9004 18.0016 20.0004 19.0016 18.2004 20.4016C16.5004 21.8016 15.1004 23.4016 13.9004 25.1016C12.7004 26.8016 11.8004 28.6016 11.1004 30.6016C10.5004 32.5016 10.2004 34.3016 10.2004 35.9016C10.2004 40.3016 11.4004 44.2016 13.7004 47.3016C16.2004 50.5016 19.2004 53.4016 22.9004 56.0016C26.5004 58.7016 30.5004 61.2016 34.7004 63.7016C39.0004 66.1016 43.0004 68.7016 46.7004 71.7016C50.3004 74.6016 53.4004 77.8016 55.7004 81.5016C58.2004 85.2016 59.4004 89.6016 59.4004 94.7016C59.4004 98.3016 58.8004 101.602 57.5004 104.602C56.3004 107.702 54.6004 110.402 52.5004 112.802C50.3004 115.202 47.8004 117.202 44.8004 118.902C41.8004 120.602 38.6004 121.702 35.2004 122.402V122.402ZM-0.0996094 92.0016C1.20039 96.3016 2.50039 100.202 3.90039 103.602C5.40039 107.002 7.00039 109.902 8.80039 112.302C10.7004 114.802 12.8004 116.902 15.2004 118.702C17.7004 120.402 20.5004 121.802 23.8004 123.002C19.4004 122.702 15.0004 122.002 10.6004 120.902C6.40039 119.702 2.80039 118.402 0.000390626 117.002V92.0016H-0.0996094ZM55.0004 43.7016C52.9004 36.4016 50.0004 30.4016 46.3004 25.8016C42.7004 21.1016 38.2004 18.1016 32.9004 17.1016C36.7004 17.3016 40.5004 17.9016 44.1004 19.0016C47.7004 20.1016 51.4004 21.4016 55.0004 22.9016V43.7016Z" fill="white"/>
</g>
</g>
<defs>
<clipPath id="clip0_4068_12249">
<rect width="61" height="194" fill="white"/>
</clipPath>
</defs>
</svg>
