<svg width="97" height="194" viewBox="0 0 97 194" fill="none" xmlns="http://www.w3.org/2000/svg">
<g clip-path="url(#clip0_4068_12544)">
<mask id="mask0_4068_12544" style="mask-type:alpha" maskUnits="userSpaceOnUse" x="0" y="0" width="97" height="194">
<path d="M0 0H97V194H0V0Z" fill="#D9D9D9"/>
</mask>
<g mask="url(#mask0_4068_12544)">
<path d="M79.3004 97.1C79.3004 93.7 78.5004 90.5 76.9004 87.7C75.4004 84.8 73.7004 82 71.8004 79.3C69.9004 76.6 68.2004 73.8 66.6004 71C65.1004 68.2 64.3004 65 64.3004 61.6C64.3004 59.4 64.7004 57.1 65.6004 54.9C66.5004 52.7 67.8004 50.5 69.5004 48.2C71.2004 45.9 73.3004 43.5 75.8004 41C78.3004 38.5 81.1004 35.8 84.3004 32.9C80.0004 37.5 77.8004 41.7 77.8004 45.6C77.8004 49.2 78.5004 52.5 80.0004 55.5C81.5004 58.4 83.2004 61.3 85.0004 64.1C86.8004 66.9 88.4004 69.8 89.9004 72.8C91.4004 75.8 92.2004 79.1 92.2004 82.8C92.2004 86.8 90.8004 90.5 88.1004 93.9C85.4004 97.3 81.4004 101 76.1004 105C71.3004 110.3 67.0004 114.3 63.2004 116.9C59.4004 119.5 55.7004 120.9 52.1004 120.9C48.8004 120.9 45.7004 120.3 42.7004 119.1C39.7004 118 36.7004 116.8 33.7004 115.4C30.7004 114 27.7004 112.8 24.6004 111.6C21.5004 110.4 18.3004 109.8 14.9004 109.8C12.5004 109.8 9.80039 110.9 6.80039 113C3.80039 115.1 0.500391 118 -3.09961 121.5C1.10039 117.3 4.80039 113.5 8.20039 110.3C11.5004 107.1 14.5004 104.4 17.3004 102.3C20.1004 100.1 22.7004 98.5 25.1004 97.4C27.5004 96.3 29.9004 95.7 32.2004 95.7C35.3004 95.7 38.3004 96.3 41.4004 97.6C44.5004 98.9 47.6004 100.2 50.6004 101.8C53.7004 103.3 56.7004 104.6 59.7004 105.9C62.7004 107.2 65.6004 107.8 68.4004 107.8C70.1004 107.8 71.5004 107.6 72.6004 107.2C73.7004 106.8 74.9004 106 76.2004 104.9L76.1004 105C77.1004 103.9 77.9004 102.7 78.4004 101.3C79.0004 100 79.3004 98.6 79.3004 97.1V97.1ZM16.2004 41.3C16.2004 36.7 15.9004 34 15.3004 33.1C14.8004 32.2 14.0004 31.4 13.1004 30.7C12.2004 29.9 10.9004 29.5 9.20039 29.5C8.50039 29.5 7.80039 29.6 7.20039 29.9C6.60039 30.2 5.90039 30.5 5.20039 31C5.80039 30.5 6.70039 29.6 7.90039 28.5C9.10039 27.3 10.4004 26.1 11.8004 24.7C13.2004 23.4 14.6004 22.1 15.9004 20.9C17.2004 19.6 18.3004 18.7 19.2004 18C19.6004 17.7 20.0004 17.4 20.5004 17.2C21.0004 17 21.6004 16.9 22.3004 16.9C23.2004 16.9 24.3004 17.2 25.8004 17.9C27.3004 18.5 28.9004 19.7 30.6004 21.6C31.8004 22.9 32.7004 24.2 33.3004 25.6C33.9004 26.9 34.2004 28.4 34.2004 30.4C34.2004 34 34.1004 37.9 33.9004 42.2C33.7004 46.4 33.6004 50.8 33.6004 55.3C33.6004 60.7 34.8004 64.5 37.3004 66.9C39.8004 69.2 43.9004 70.4 49.5004 70.4C50.6004 70.4 51.8004 70.4 53.1004 70.3L57.0004 70C58.3004 69.9 59.6004 69.7 60.7004 69.5C61.8004 69.3 62.8004 69.1 63.6004 68.8L47.9004 82.1C46.4004 82.7 44.7004 83.1 42.8004 83.4C40.9004 83.6 38.6004 83.7 36.1004 83.7C29.3004 83.7 24.1004 81.7 20.8004 77.7C17.4004 73.7 15.7004 67.8 15.7004 60.1C15.7004 56.3 15.8004 52.8 15.9004 49.4C16.1004 46 16.2004 43.3 16.2004 41.3V41.3ZM64.7004 16.9C66.9004 16.9 68.9004 17.2 70.7004 17.9C72.6004 18.5 74.3004 19.2 76.0004 19.9C77.7004 20.6 79.4004 21.3 81.1004 22C82.8004 22.6 84.7004 22.9 86.7004 22.9C87.7004 22.9 88.6004 22.8 89.5004 22.6C90.4004 22.3 91.3004 21.9 92.2004 21.4C93.1004 20.9 94.1004 20.2 95.2004 19.3C96.3004 18.4 97.6004 17.3 99.1004 16C95.0004 20.3 91.6004 23.8 88.9004 26.4C86.2004 29 83.9004 31.1 82.0004 32.6C80.1004 34.1 78.5004 35 77.0004 35.6C75.5004 36.1 73.9004 36.3 72.2004 36.3C70.0004 36.3 68.0004 36 66.1004 35.4C64.2004 34.8 62.5004 34.1 60.8004 33.4C59.1004 32.7 57.5004 32 55.9004 31.4C54.4004 30.8 52.8004 30.5 51.2004 30.5C50.4004 30.5 49.6004 30.6 48.7004 30.8C48.0004 31 47.1004 31.4 46.1004 32C45.2004 32.5 44.1004 33.3 42.9004 34.2C41.7004 35.1 40.4004 36.3 38.9004 37.8C42.8004 33.4 46.0004 29.8 48.8004 27.1C51.6004 24.3 54.0004 22.2 56.0004 20.7C58.0004 19.2 59.7004 18.2 61.0004 17.7C62.3004 17.2 63.6004 16.9 64.7004 16.9V16.9Z" fill="white"/>
</g>
</g>
<defs>
<clipPath id="clip0_4068_12544">
<rect width="97" height="194" fill="white"/>
</clipPath>
</defs>
</svg>
