<svg fill="none" height="512" viewBox="0 0 289 512" width="289" xmlns="http://www.w3.org/2000/svg"><path d="m287.43 27.87v455.47c0 14.84-12.03 26.86-26.86 26.86h-232.7c-14.84 0-26.87-12.02-26.87-26.86v-455.47c0-14.84 12.03-26.87 26.87-26.87h232.7c14.83 0 26.86 12.03 26.86 26.87zm-17.29 385.84c.02-.8-.9-2.92-1.88-3.31 1.83-2.4 1.84-5.4-.31-7.52 5.7-4.29 1.06-7.99 1.08-8.31.02-.26 4.75-5.07-.99-8.67.82-1.46 1.21-3.21.78-4.82-.44-1.62-1.82-3.02-3.48-3.19.72-1.36.76-3.06.09-4.44-.66-1.39-1.79-2.4-3.3-2.68.94-.93 1.35-2.36 1.05-3.64-.31-1.29-1.32-2.38-2.58-2.79.93-1.78 1.63-3.82 1.22-5.8-.41-1.97-2.26-3.75-4.25-3.48 1.24-.99 1.77-2.8 1.24-4.3-.52-1.5-2.06-2.59-3.65-2.59 1.3-1.22 1.79-3.22 1.2-4.9s-2.23-2.94-4.01-3.07c.59-1.56 1.19-3.22.91-4.86-.29-1.65-1.84-3.19-3.47-2.84.87-1.01 1.2-2.47.84-3.76-.35-1.29-1.22-2.47-2.49-2.9 1.66-2.53.58-6.4-2.14-7.72 1.34-.75 2.25-2.22 2.32-3.76.07-1.53-.71-3.08-1.98-3.94 1.51-1.03 2.46-2.83 2.48-4.65 0-1.83-.92-3.64-2.42-4.69 1.24-.26 2.37-1.01 3.08-2.06.35-.53.61-1.17.5-1.8s-.7-1.19-1.33-1.11c1.29-.76 2.49-1.78 3.12-3.14s.68-2.85-.32-3.97c1.32-.17 2.53-1.01 3.15-2.18.63-1.17.66-2.64.07-3.83 1.18.12 2.32-.68 2.84-1.74.53-1.06.52-2.32.25-3.47 1.34-.23 2.68-.79 3.53-1.85.84-1.07 1.03-2.71.18-3.77 1.47-.09 2.87-.96 3.6-2.24.72-1.28.75-2.94.07-4.24 2.27-1.14 3.4-4.42 2.02-6.55 1.26-.49 2.21-1.7 2.4-3.04.18-1.34-.41-2.75-1.49-3.57 1.16-1 1.81-2.55 1.72-4.08-.1-1.53-.94-2.99-2.21-3.84.98-.95 1.44-2.42 1.18-3.76-.27-1.35-1.25-2.53-2.53-3.04 1.39-2.21.45-5.59-1.9-6.75 1.28-2.09.18-5.23-2.13-6.07.82-2.53-1.1-5.56-3.74-5.9.09-1.29.02-2.67-.67-3.77-.69-1.11-2.15-1.82-3.34-1.29.55-.9.58-2.1.07-3.03-.5-.92-1.42-1.6-2.48-1.63.21-1.17-.01-2.41-.61-3.44-.3-.53-2.64-1.29-2.95-.76.69-.87.8-2.17.25-3.14-.54-.98-1.71-1.56-2.82-1.43.32-1.24.63-2.54.31-3.77-.31-1.24-1.49-2.36-2.75-2.15.92-.99 1.32-2.43 1.04-3.75s-1.04-2.41-2.28-2.95c1.32-.73 2.28-2.09 2.54-3.58.27-1.49-.18-3.09-1.17-4.23 1.39-.31 2.58-1.37 3.06-2.71s.23-2.92-.64-4.04c1.37-.56 2.77-1.24 3.63-2.45s.96-3.08-.15-4.06c1.7-.23 3.26-1.36 4-2.91s.88-3.33-.01-4.8c1.26-.84 2.56-1.71 3.36-3 .79-1.29.94-3.11-.07-4.23 1.68-.98 2.87-2.76 3.14-4.68.17-1.19-.15-2.63-1.25-3.11 1.32-.69 2.23-2.1 2.31-3.58s-.66-2.98-1.9-3.81c-.27-.18-.59-.39-.61-.71-.02-.21.1-.4.2-.58.67-1.22.69-2.78.06-4.02-.63-1.25-1.9-2.15-3.28-2.33.49-1.37.84-2.93.27-4.27-.57-1.35-2.42-2.2-3.57-1.3.5-1.44.18-3.13-.81-4.29-.98-1.16-2.58-1.96-4.08-1.71.34-1.47.29-3.11-.56-4.35-.85-1.25-2.67-1.88-3.94-1.08.59-1.83-.27-4.03-1.94-4.99-.72-.41-1.63-.6-2.39-.26.85-1.01 1.19-2.41.9-3.69s-.99-2.51-2.19-3.06c3.02-1.47 4.51-5.47 3.17-8.55-.08-.2-.18-.4-.17-.62.02-.4.37-.68.68-.93 2.7-2.24 3.23-6.66 1.14-9.47 2.53-2.33 2.86-6.67.71-9.36-.32-.41-.71-.82-.81-1.33-.06-.36.03-.72.09-1.08.54-3.16-1.02-6.59-3.76-8.25.81-2.97-.66-6.4-3.37-7.84.7-3.34-.3-6.99-2.6-9.51 1.22-2.37 1.3-5.29.22-7.72.77-.75 1.5-1.61 1.76-2.65.27-1.04.03-2.29-.92-2.8-1.75-.68-5.04 2.21-5.33 4.74-.1.9.11 2.76.23 2.81 0 0-1.77 1.45-2.42 2.15-1.43 1.55-2 3.86-1.45 5.9-3.22 2.48-4.51 7.16-3.03 10.93-2.56 2.18-2.71 6.61-.3 8.96-1.35 2.47-1.04 6.35 1.31 7.9-1.96 3.12-1.53 7.54.99 10.23-2.91 1.67-4.31 5.54-3.23 8.71l-.17.06c-.97-1.09-1.44-1.97-2.41-3.06-.55-.62-1.12-1.27-1.3-2.08-.25-1.17.38-2.32.76-3.45.62-1.8.63-3.83-.09-5.6-.72-1.76-2.05-3.05-3.82-3.76-.9-.36-2.28-.38-3.67.16l-.32-.68c-.59-1.41-1.83-2.54-3.29-3.01-.49 1.63.06 3.52 1.34 4.63l.26.3c-.06.04-.11.09-.16.14-1.07 1.02-1.98 2.83-3.11 3.79-1.6 1.35-4.73 1.91-6.84 1.71 1.77.48 5.37 1.74 7.14 2.21-.62 2.42-3.03 5.07-3.42 7.54 1.55-1.76 4.62-3.89 6.64-5.07-1.06 5.7-3.51 10.78-.73 16.85.74 1.6 2.72 3.57 4.48 3.52-.53 2.02.53 4.16 1.78 5.82-2.3 2.87-1.97 6.03.79 8.46-.88.72-1.34 2.05-.95 3.13.38 1.07 1.48 1.84 2.62 1.83-.83 1.89.65 4.39 2.71 4.56-.76.78-.69 2.11-.09 3.03.59.92 1.58 1.5 2.56 1.97-1.31 2.05-.2 5.2 2.1 5.99-.8.13-1.27.98-1.43 1.77-.32 1.61.2 3.35 1.35 4.51-2.04 1.62-3.02 4.69-1.84 7.01-1.39.18-2.67 1.03-3.39 2.24-.71 1.2-.83 2.73-.33 4.04-1.25-.33-3.26.58-4.01 1.65-.74 1.06-1.23 2.73-.53 5.11l-1 .07c-1.5-.44-3.2-.25-4.5.62.83-1.86 1.68-3.97.96-5.89-.64-1.72-2.46-2.81-4.29-3s-3.66.39-5.32 1.17c1.79-1.61 1.77-4.8-.03-6.39-1.81-1.59-4.98-1.21-6.35.77.37-2.28-1.46-4.98-3.44-6.16-1.99-1.18-4.88-.71-6.16 1.22 1.26-2.32-.2-5.77-2.76-6.39-2.54-.61-4.65 1.51-4.65 1.51s.7-4.47-2.35-4.7l-1.32.13c-.22-2.23-1.06-4.38-2.56-6.03-2.01-2.21-5.31-3.3-8.14-2.33l-.38.08c-.38.09-.74.22-1.1.37l-.08-.19c1.62-3.47 1.66-7.04 1.47-10.01 1.38 2.76 5.58 3.62 8.8 4.8 5.06 1.84 9.75 4.69 13.7 8.34.08-2.78-1.15-5.56-3.24-7.39 2.01-.4 4.17-.04 5.94 1-1.61-2.92-4.3-4.8-7.32-6.23-3.59-1.71-6.97-1.61-10.26-2.17-3.99-.68-7.62-3.02-7.27-6.04h.62c5.65 3.55 8.14-3.32 8.14-3.32 5.37 2.32 5.72-3.58 5.72-3.58 5.73 1.61 5.31-4.75 5.31-4.75 4.92-1.96 3.75-6.09 2.11-7.73 1.95-.35 2.94-1.36 3.99-3.12 1.04-1.76.38-4.62-1.56-5.03 1.84-.3 3.42-1.94 3.71-3.86.28-1.93-.75-3.99-2.42-4.85 7.52-6.39.93-9.49-.65-9.38.89-1.15 1.63-2.13 1.98-3.56.34-1.43-.14-3.24-1.02-4.4-.87-1.15-2.14-2.12-3.38-1.41 1.21-1.64 2.08-3.25 1.38-5.19-.65-1.78-3.08-2.51-4.53-1.35 1.07-1.91.28-4.55-.82-6.45-1.1-1.89-3.8-2.74-5.48-1.39 1.09-2.12.85-5.01-.84-6.65s-4.76-1.53-6.1.43c.46-1.79-.15-3.94-1.69-4.86-1.54-.93-3.88-.17-4.35 1.62.34-1.45-1.53-3.15-2.89-3.62-1.36-.48-3 .3-3.56 1.67.4-1.57-.8-3.3-2.33-3.58s-2.86.85-3.51 2.32c-1.33-2.32-4.03-3.71-6.61-3.39s-4.89 2.34-5.66 4.93c-1.77-1.31-4.16-1.64-6.2-.87-2.04.78-3.67 2.64-4.22 4.83-4.06-.95-8.49 2.8-8.43 7.15-4.47-.54-9.27 3.88-6.89 9.93-4.61-.62-7.2 5.25-5.34 8.7-1.84 1.22-3.4 3.1-3.72 5.34s.91 4.79 3.02 5.36c-1.41 1.59-2.48 3.65-2.4 5.81.07 2.17 1.56 4.35 3.61 4.64-1.19 1.89-2.46 4.18-2.13 6.42.34 2.23 2.56 4.25 4.61 3.53-1.46 2.18-1.44 5.33.05 7.49 1.49 2.17 2.89 2.79 5.34 2.05 0 0-1.25 6.27 4.12 5.02 0 0-2.27 3.75 3.64 5.01l.34.04c-.3 3.41-5.44 4.92-9.09 6.92-4.15 2.26-7.87 5.29-10.92 8.89 1.64-.75 3.41-1.19 5.21-1.29-1.3 2.02-2.46 4.12-3.46 6.3 2.8-2.48 6.46-3.72 9.82-5.37 3.37-1.64 7.32-5 8.49-8.56h.12c-.92 3.43-1.13 7.04-.61 10.54v.3c-3.21.08-6.35 1.63-8.48 4.04-2.26 2.56-3.4 6.02-3.35 9.44h-.4c-3.05.42-3.59 2.19-4.04 4.32l-.48-.11c-1.95-1.26-4.59-1.36-6.62-.26-2.04 1.11-3.39 3.38-3.39 5.7-1.91-1.18-4.49-1.14-6.36.1-.96.64-1.7 1.58-2.14 2.64l-.15-.06c.17-1.65-1.05-2.99-3.05-3.56.82-.39 2.23-1.98 2.21-4.3-.01-1.3-1.53-2.33-2.83-2.33 1.54-.44 2.43-3.37 1.9-4.88-.52-1.51-2.15-2.48-3.76-2.47-1.6.02-3.11.91-4.12 2.15-2.54-3.33-8.26-3.46-10.95-.25-1.02-1.13-2.39-1.88-3.86-2.22l.03-.14v-6.52l.05-.28c.46.25.97.41 1.49.46 1.67.15 3.39-.87 4.05-2.41.62 1.52 1.49 1.72 3.12 1.74 1.64.01 3.24-1.02 3.89-2.52.39 1.63 1.98 2.89 3.65 2.89s3.28-1.25 3.67-2.88c.48 1.6 2.18 2.73 3.84 2.56 1.49-.16 2.39-1.05 2.73-2.5 1.04 1.37 3.51 1.53 4.79.32 1.41-1.33.67-3.1-.59-4.56-2.26-2.6-5.1-1.13-5.1-1.13 1.53-1.61 1.25-3.41-.16-5.14s-4.15-2.18-6.05-1c.41-2.21.15-4.72-1.44-6.31-1.59-1.58-4.75-1.54-5.75.46.24-2.29-.07-4.79-1.58-6.52-1.52-1.74-4.49-1.26-6.14.35 1.16-1.83 2.38-4.2 1.14-5.97-.74-1.06-2.28-1.59-4.61-.69.29-2.46-.27-3.47-1.04-3.95l.49-.08v-4.23l-.15-.75c2.42-.4 4.53-2.3 5.19-4.66 2.33 1.08 5.3.62 7.2-1.12 1.89-1.75 2.59-4.68 1.7-7.09 2.86-.17 5.58-1.94 6.9-4.49 1.32-2.54.67-6.46-.84-8.89 1.58-.06 5.6-2.36 4.92-7.38-.68-4.9-3.25-5.7-4.95-5.73.92-2.93 1.2-6.34-.51-8.88-1.71-2.55-5.99-3.35-7.81-.87-.35-3.03-.86-6.31-3.04-8.44-2.19-2.14-6.62-2.06-7.67.8-.68-2.24-2.98-3.88-5.32-3.81-2.35.08-4.53 1.86-5.07 4.15-1.08-2.13-4.04-2.78-6.21-1.8-2.17.99-3.56 3.21-4.19 5.5-2.15-1.3-5.13-1.03-7.01.64-1.87 1.67-2.49 4.6-1.44 6.89-2.44.34-4.65 2.02-5.64 4.28-1 2.26-.74 5.02.66 7.06-2.61 1.68-4.11 4.95-3.67 8.03.43 3.03 1.2 4.87 3.62 6.3 1.48.87 3.48 1.18 3.48 1.18s-1.68 2.85-.96 5.37c.62 2.16 3.25 3.72 5.35 2.9-.36 2.11.68 4.39 2.51 5.5s4.34.98 6.04-.31c.42 2.2 2.27 4.07 4.48 4.51.29.06.6.09.9.09l-.03.68v4.42l.34.85c-1.62.67-2.63 2.29-1.35 3.97-2.84.13-4.76 2.16-4.84 5-3.28-.21-6.49 2.49-6.84 5.76-4-.33-7.85 3.36-7.68 7.36-3.24.05-6.1 3.2-5.84 6.43-2.41-.09-4.75 1.76-5.2 4.13-.07.42-.1.86.04 1.26.32.93 1.44 1.39 2.42 1.27s1.85-.68 2.68-1.22c2 2.68 6.72 2.55 8.58-.23 2.68 2.62 7.47 2.63 10.17.03.97 1.64 2.95 2.62 4.84 2.39.81-.1 1.57-.41 2.23-.88v7.46c-.77-.2-1.57-.28-2.36-.24-2.3.13-4.51 1.34-5.85 3.2-.5-2.06-2.49-3.67-4.61-3.72-2.13-.05-4.19 1.46-4.78 3.5-1.7-.92-4.07-2.14-5.91-1.54-1.54.49-3.09 1.6-2.95 4.32.08 1.62 1.26 3.39 2.83 3-1.59.92-2.52 2.87-2.25 4.69.28 1.82 1.74 3.4 3.53 3.82-1.86.42-3.23 2.41-2.95 4.3.27 1.9.84 2.97 2.75 2.84-2.1.22-3.34 2.69-3.69 4.77-.34 2.07.84 4.3 2.74 5.19-1.85.95-3.08 3.01-3.03 5.09.05 2.09 1.38 4.09 3.28 4.95-1.29.92-2.41 2.2-2.7 3.75-.29 1.56.82 3.38 2.41 4.77-.9.95-2.41 2.15-2.87 3.38-.46 1.22-.38 2.74.55 3.67.92.93 2.75.87 3.35-.29-1 1.51.63 3.7 2.45 3.71 1.81.02 3.33-1.44 4.15-3.06.41 2.05 2.4 3.14 4.5 3.18 2.09.05 3.42-1.16 4.41-3.09.9 1.5 3.06 2.44 4.77 2.43.43 0 .92-.08 1.42-.22h.76l.05 11.65-.92.08c-1.06-.35-2.23-.43-3.24-.21-2.41.52-3.67 1.97-5.21 3.9-.75-1.82-2.93-3.23-5.83-3.05-1.97.12-4.08 1.27-4.15 3.24-.61-1.56-3.24-3.62-4.83-3.12-1.67.52-3.07 1.88-3.47 3.58-.8 3.43 3.35 4.78 3.35 4.78-1.89 1.03-3.49 3.84-3.35 5.99.15 2.15 2.16 4.13 4.3 3.88-3.26 2.07-4.32 6.94-2.21 10.17.46.7 1.3 1.38 2.04 1-1.87 1.45-3.75 3.56-3.54 5.92.21 2.37 1.68 4.58 3.78 5.68-1.9.99-3.18 3.06-3.22 5.2s2.25 4.29 4.11 5.34c-2.41.82-4.71 4.03-4.12 6.51.63 2.7 2.85 3.01 4.6 4.12-4.13 2.07-1.91 7.46-1.91 7.46l-.27.9c-2.16-.65-4.39-1.24-6.65-1.78 2.34 7.03 5.16 12.25 7.24 15.64-3.97 3.47-4.37 6.17-.16 9.36-2.78.66-4.36 2.38-4.12 5.23.23 2.86 3.66 5.43 3.66 5.43-2.31 1.21-4.72 4.07-4.68 6.67.04 2.61 1.64 5.13 3.97 6.27-2.27 1.36-3.69 4.02-3.57 6.66.11 2.65 1.77 5.17 4.15 6.33-2.36 1.51-3.82 4.34-3.67 7.14.14 2.8 1.88 5.47 4.39 6.73-1.73-.33-2.98 1.65-3.32 3.37-.7 3.53.23 7.36 2.48 10.18-1.25 2.01-3.41 4.31-3.66 6.67-.26 2.35.69 5 2.81 6.06-2 1.79-3.08 4.56-2.83 7.23s1.83 5.19 4.13 6.58c-2.18 1.55-3.15 4.42-2.92 7.09.24 2.67 1.5 5.14 3.05 7.32-4.82 3.14-3.95 9.48-.5 13.35-5.52 3.12-2.04 9.73-.72 10.21 0 0-2.52 3.12-2.76 5.52-.46 4.56 1.08 7.09 3 9.01l.27.15c-.54 1-1.07 2-1.61 3-.92 1.71-1.86 3.62-1.42 5.5.05.21.12.41.2.6l-.06.03c-.19 3.9-2.58 8.81-.06 11.78.96 1.13 2.4 1.7 3.8 2.19 9.09 3.13 18.75 4.08 28.39 3.93 2.87-.04 5.73-.17 8.58-.38 2.86-.21 5.85-.53 8.23-2.12.33-.22.64-.53.92-.9 2.68-1.99 8.21-2.47 11.3-.96 1.24.85 3.02 1.55 5.56 1.84 15.62 1.78 16.88 4.98 32.31 4.38 3.79-.15 7.6-.78 10.18-3.72.22-.25.43-.49.63-.74l.62.25c4.09-3.02 10.06-3.21 14.33-.45 2.8-3.19 8.26-3.53 11.42-.7 1.41-.49 2.81-.98 4.22-1.48l.2-.02c.04.27.11.53.22.77.61 1.41 2.06 2.31 3.55 2.68 2.77.7 5.64-1.2 7.53-3.35.87 2.32 3.32 3.56 5.79 3.35 2.47-.22 3.68-.52 5.4-2.3h.02c-.11.39-.33.92-.02 1.16 1.25.97 2.2.38 3-.54-.51.85-.25 2.13.62 2.65.96.58 2.4.05 2.76-1.01.42 1.69 3.36 1.78 3.88.12l.15-.81c.91.16 1.9-.11 2.59-.73-.73.77-.48 2.23.46 2.72s2.28-.13 2.5-1.17c.44 1.36 2.57 1.74 3.46.61l.39-.59c.56.26 1.17.22 1.52-.33-.47.93-.01 2.21.95 2.62s2.2-.15 2.54-1.13c.02 1.16 1.16 2.06 2.32 2.23 1.15.16 2.31-.23 3.41-.61 4.53-1.56 9.06-3.12 13.58-4.69l.7-.55c.31.71.73 1.36 1.27 1.93 1.75 1.83 5.34 1.99 6.46-.27.26 1.51 1.63 2.76 3.15 2.88 1.53.13 3.08-.88 3.57-2.33.49 1.65 2.81 2.1 4.32 1.27s2.08-1.53 2.86-3.07c1.37 2.62 3.55 1.97 4.95.93l1.07.08c1.23.58 2.62 1.18 3.9.72.87-.31 1.52-1.07 1.86-1.93.33-.86.37-1.81.3-2.72 1.36-1.08 2.27-2.72 2.47-4.45s-.31-3.53-1.4-4.89l-.24-.11c.54-1.22 1.06-2.45 1.26-3.76.39-2.49-.42-5.01-1.4-7.34-1.1-2.61-2.42-5.08-3.91-7.46l.16-.1c1.25-.04 3.43-1.04 3.99-3.61.64-2.96-1.14-4.17-2.16-5.32 1.39-.89 2.72-2.02 3.36-3.54.64-1.53.42-3.52-.88-4.54 1.75-.7 3.09-2.35 3.43-4.21.33-1.86-.35-3.87-1.75-5.14 1.47-1.24 2.76-2.43 2.79-4.36z" fill="#63bfef"/><path d="m268.259 410.401c.98.39 1.9 2.51 1.88 3.31-.03 1.93-1.32 3.12-2.79 4.36 1.4 1.27 2.08 3.28 1.75 5.14-.34 1.86-1.68 3.51-3.43 4.21 1.3 1.02 1.52 3.01.88 4.54-.64 1.52-1.97 2.65-3.36 3.54 1.02 1.15 2.8 2.36 2.16 5.32-.56 2.57-2.74 3.57-3.99 3.61l-.16.1c-3.2-5.17-7.14-9.89-11.2-14.54l.28-.24c3.48.5 5.38-3.53 4.5-5.61-.78-1.87-2.3-3.36-4.23-3.98 1.73-.55 2.61-2.67 2.17-4.43-.45-1.75-1.92-3.1-3.57-3.85 1.71-.93 2.72-2.99 2.41-4.91-.3-1.92-1.91-3.56-3.82-3.91 1.37-1.13 2.49-2.85 2.14-4.58-.35-1.74-2.17-5.82-7.07-2.86l-.12-.03c.22-.98.25-1.99.06-2.97-.45-2.31-2.35-4.39-4.69-4.6.31-1.37.39-2.74.26-4.08l.37-.04c2.45.51 3.97-1.28 4.45-2.35.5-1.11.86-2.33.7-3.54-.15-1.2-.92-2.39-2.07-2.76 2.48-2.63 1.4-7.66-1.95-9.03 1.13-1.72.76-4.26-.81-5.59s-4.13-1.26-5.64.14c.03-2.26-2.78-3.68-4.97-3.1-2.18.58-3.76 2.44-5.1 4.25-.27-1.76-2.24-2.93-4.01-2.72-.25.03-.5.08-.73.15l-.08-.25v-7.27l.59-.19c1.12.76 2.52 1.11 3.86.89 1.98-.32 3.69-1.89 4.2-3.84 1.56 1.24 4.04 1.1 5.44-.31 1.41-1.41 1.55-3.89.3-5.45 1.78.28 3.63-1.23 3.7-3.03.08-1.79-1.64-3.45-3.44-3.32 2.43-1.2 4.02-4.4 2.91-6.87-1.31-2.91-3.44-2.52-6.11-2.09.82-3.86-2.44-5.48-4.63-5.47-2.2 0-4.34 1.32-5.34 3.28-.53-.98-1.38-1.78-2.38-2.29h.9v-5.78l-1.69-.1c1.23 0 2.41-.86 2.78-2.03.1.84 1.51 2.04 3.46 2.04 1.09 0 2.41-.57 2.64-2.4.28.56 2.4 1.2 3.69.63.57-.25 1.12-.6 1.41-1.15.46-.87.43-1.98-.08-2.82s-1.48-1.39-2.46-1.38c1.14-.56 1.77-1.98 1.44-3.2-.34-1.23-1.61-2.12-2.87-2.03 1.18-.87 2.09-2.24 2.01-3.7s-1.44-2.85-2.89-2.61c1.23-.44 2.04-1.8 1.87-3.09-.18-1.29-1.33-2.38-2.62-2.48.83-1.38.87-3.2.12-4.62-.44-.84-1.39-1.6-2.27-1.24 1.31-.39 2.21-1.83 1.98-3.18-.24-1.34-1.57-2.41-2.93-2.33 1.42-.32 2.33-1.98 1.96-3.39s-1.84-2.39-3.3-2.35c1.3-.89 1.99-2.59 1.69-4.13-.1-.5-.3-.98-.59-1.4l.17-.12c2.95-.1 4.84-.84 5.85-3.31 1.02-2.48-.18-5.63-2.58-6.81 2.84-.54 5.3-2.77 6.1-5.54.81-2.78-.07-5.98-2.18-7.95 2.63.21 4.66-2.46 5.23-5.04.89-4.09-.68-8.62-3.91-11.28 2.51-.84 4.36-3.37 4.4-6.02.03-2.65-1.75-5.23-4.24-6.13 1.89-1.74 3.34-4.22 3.03-6.77s-2.45-4.91-5.02-4.99c2.59-.79 4.02-3.99 3.15-6.56-.86-2.56-3.66-4.21-6.36-4.06.74-1.53 1.48-3.1 1.7-4.79.21-1.69-.21-3.55-1.48-4.68-1.28-1.12-3.5-1.19-4.57.14 1.11-2.29 1.47-5.08.37-7.37-1.11-2.29-3.94-3.8-6.32-2.9 1.44-2.01.51-5.36-1.21-7.13-.63-.64-1.42-1.1-2.28-1.34l1-.07c-.7-2.38-.21-4.05.53-5.11.75-1.07 2.76-1.98 4.01-1.65-.5-1.31-.38-2.84.33-4.04.72-1.21 2-2.06 3.39-2.24-1.18-2.32-.2-5.39 1.84-7.01-1.15-1.16-1.67-2.9-1.35-4.51.16-.79.63-1.64 1.43-1.77-2.3-.79-3.41-3.94-2.1-5.99-.98-.47-1.97-1.05-2.56-1.97-.6-.92-.67-2.25.09-3.03-2.06-.17-3.54-2.67-2.71-4.56-1.14.01-2.24-.76-2.62-1.83-.39-1.08.07-2.41.95-3.13-2.76-2.43-3.09-5.59-.79-8.46-1.25-1.66-2.31-3.8-1.78-5.82.58-2.2 2.14-3.95 4.23-3.85-1.67-3.7705.7-8.7505 4.67-9.8405-.07-.17-.14-.34-.19-.51-1.08-3.17.32-7.04 3.23-8.71-2.52-2.69-2.95-7.11-.99-10.23-2.35-1.55-2.66-5.43-1.31-7.9-2.41-2.35-2.26-6.78.3-8.96-1.48-3.77-.19-8.45 3.03-10.93-.55-2.04.02-4.35 1.45-5.9.65-.7 2.42-2.15 2.42-2.15-.12-.05-.33-1.91-.23-2.81.29-2.53 3.58-5.42 5.33-4.74.95.51 1.19 1.76.92 2.8-.26 1.04-.99 1.9-1.76 2.65 1.08 2.43 1 5.35-.22 7.72 2.3 2.52 3.3 6.17 2.6 9.51 2.71 1.44 4.18 4.87 3.37 7.84 2.74 1.66 4.3 5.09 3.76 8.25-.06.36-.15.72-.09 1.08.1.51.49.92.81 1.33 2.15 2.69 1.82 7.03-.71 9.36 2.09 2.81 1.56 7.23-1.14 9.47-.31.25-.66.53-.68.93-.01.22.09.42.17.62 1.34 3.08-.15 7.08-3.17 8.5505 1.2.55 1.9 1.78 2.19 3.06s-.05 2.68-.9 3.69c.76-.34 1.67-.15 2.39.26 1.67.96 2.53 3.16 1.94 4.99 1.27-.8 3.09-.17 3.94 1.08.85 1.24.9 2.88.56 4.35 1.5-.25 3.1.55 4.08 1.71.99 1.16 1.31 2.85.81 4.29 1.15-.9 3-.05 3.57 1.3.57 1.34.22 2.9-.27 4.27 1.38.18 2.65 1.08 3.28 2.33.63 1.24.61 2.8-.06 4.02-.1.18-.22.37-.2.58.02.32.34.53.61.71 1.24.83 1.98 2.33 1.9 3.81s-.99 2.89-2.31 3.58c1.1.48 1.42 1.92 1.25 3.11-.27 1.92-1.46 3.7-3.14 4.68 1.01 1.12.86 2.94.07 4.23-.8 1.29-2.1 2.16-3.36 3 .89 1.47.75 3.25.01 4.8s-2.3 2.68-4 2.91c1.11.98 1.01 2.85.15 4.06s-2.26 1.89-3.63 2.45c.87 1.12 1.12 2.7.64 4.04s-1.67 2.4-3.06 2.71c.99 1.14 1.44 2.74 1.17 4.23-.26 1.49-1.22 2.85-2.54 3.58 1.24.54 2 1.63 2.28 2.95s-.12 2.76-1.04 3.75c1.26-.21 2.44.91 2.75 2.15.32 1.23.01 2.53-.31 3.77 1.11-.13 2.28.45 2.82 1.43.55.97.44 2.27-.25 3.14.31-.53 2.65.23 2.95.76.6 1.03.82 2.27.61 3.44 1.06.03 1.98.71 2.48 1.63.51.93.48 2.13-.07 3.03 1.19-.53 2.65.18 3.34 1.29.69 1.1.76 2.48.67 3.77 2.64.34 4.56 3.37 3.74 5.9 2.31.84 3.41 3.98 2.13 6.07 2.35 1.16 3.29 4.54 1.9 6.75 1.28.51 2.26 1.69 2.53 3.04.26 1.34-.2 2.81-1.18 3.76 1.27.85 2.11 2.31 2.21 3.84.09 1.53-.56 3.08-1.72 4.08 1.08.82 1.67 2.23 1.49 3.57-.19 1.34-1.14 2.55-2.4 3.04 1.38 2.13.25 5.41-2.02 6.55.68 1.3.65 2.96-.07 4.24-.73 1.28-2.13 2.15-3.6 2.24.85 1.06.66 2.7-.18 3.77-.85 1.06-2.19 1.62-3.53 1.85.27 1.15.28 2.41-.25 3.47-.52 1.06-1.66 1.86-2.84 1.74.59 1.19.56 2.66-.07 3.83-.62 1.17-1.83 2.01-3.15 2.18 1 1.12.95 2.61.32 3.97s-1.83 2.38-3.12 3.14c.63-.08 1.22.48 1.33 1.11s-.15 1.27-.5 1.8c-.71 1.05-1.84 1.8-3.08 2.06 1.5 1.05 2.43 2.86 2.42 4.69-.02 1.82-.97 3.62-2.48 4.65 1.27.86 2.05 2.41 1.98 3.94-.07 1.54-.98 3.01-2.32 3.76 2.72 1.32 3.8 5.19 2.14 7.72 1.27.43 2.14 1.61 2.49 2.9.36 1.29.03 2.75-.84 3.76 1.63-.35 3.18 1.19 3.47 2.84.28 1.64-.32 3.3-.91 4.86 1.78.13 3.42 1.39 4.01 3.07s.1 3.68-1.2 4.9c1.59 0 3.13 1.09 3.65 2.59.53 1.5 0 3.31-1.24 4.3 1.99-.27 3.84 1.51 4.25 3.48.41 1.98-.29 4.02-1.22 5.8 1.26.41 2.27 1.5 2.58 2.79.3 1.28-.11 2.71-1.05 3.64 1.51.28 2.64 1.29 3.3 2.68.67 1.38.63 3.08-.09 4.44 1.66.17 3.04 1.57 3.48 3.19.43 1.61.04 3.36-.78 4.82 5.74 3.6 1.01 8.41.99 8.67-.02.32 4.62 4.02-1.08 8.31 2.15 2.12 2.14 5.12.31 7.52z" fill="#b6efa3"/><path d="m265.489 463.2c1.09 1.36 1.6 3.16 1.4 4.89s-1.11 3.37-2.47 4.45c.07.91.03 1.86-.3 2.72-.34.86-.99 1.62-1.86 1.93-1.28.46-2.67-.14-3.9-.72l-1.07-.08c.4-.3.74-.63.98-.93 1.54-1.93.61-4.12.8-5.8.74.69 2 .51 2.79-.13.79-.63 1.23-1.59 1.64-2.52.55-1.22 1.09-2.45 1.64-3.67.04-.08.07-.17.11-.25z" fill="#fca265"/><path d="m235.022 463.17c-.12.17-.21.36-.26.59.09-.2.19-.39.26-.59zm-1.29-16.42c-.07.14-.12.3-.15.45zm-37.44 29.92-.15.81c-.52 1.66-3.46 1.57-3.88-.12-.36 1.06-1.8 1.59-2.76 1.01-.87-.52-1.13-1.8-.62-2.65-.8.92-1.75 1.51-3 .54-.31-.24-.09-.77.02-1.15 0 0 .01-.03.01-.04 1.17-4.5 7.25-11.42 9.58-15.45 3-5.16 4.1-9.66 4.75-13.92.16-1.03.2-2.14.18-3.28-.02-2.02-.21-4.13-.17-6v-.09c.15-5.77-4.33-6.99-3.52-13.18 1.98-1.47 3.28-3.92 3.1-6.38 2.34-.33 3.99-2.63 4.37-4.96.38-2.32-.23-4.69-.84-6.97 2.08-1.48 2.8-4.38 2.29-6.89s-2.05-4.69-3.74-6.61c.92-2.74 2.04-5.32-.73-8.31.54-1.64 1.2-3.28 1.98-4.86 2.61-5.27 6.61-9.84 12.2-11.08 4.59-1.01 9.57.54 13.04 3.7.51.47.99.96 1.43 1.49 2.59 3.03 4.08 6.98 4.36 10.97.5 7.03-2.94 14.1-8.48 18.4l.13.18c5.48 1.79 7.32 7.11 10.64 11.82.49.7 1 1.39 1.51 2.07 3.71 4.96 7.92 9.58 12.01 14.27 4.06 4.65 8 9.37 11.2 14.54 1.49 2.38 2.81 4.85 3.91 7.46.98 2.33 1.79 4.85 1.4 7.34-.2 1.31-.72 2.54-1.26 3.76-.04.08-.07.17-.11.25-.55 1.22-1.09 2.45-1.64 3.67-.41.93-.85 1.89-1.64 2.52-.79.64-2.05.82-2.79.13-.19 1.68.74 3.87-.8 5.8-.24.3-.58.63-.98.93-1.4 1.04-3.58 1.69-4.95-.93-.78 1.54-1.35 2.24-2.86 3.07s-3.83.38-4.32-1.27c-.49 1.45-2.04 2.46-3.57 2.33-1.52-.12-2.89-1.37-3.15-2.88-1.12 2.26-4.71 2.1-6.46.27-.54-.57-.96-1.22-1.27-1.93l-.7.55c-4.52 1.57-9.05 3.13-13.58 4.69-1.1.38-2.26.77-3.41.61-1.16-.17-2.3-1.07-2.32-2.23-.34.98-1.58 1.54-2.54 1.13s-1.42-1.69-.95-2.62c-.35.55-.96.59-1.52.33l-.39.59c-.89 1.13-3.02.75-3.46-.61-.22 1.04-1.56 1.66-2.5 1.17s-1.19-1.95-.46-2.72c-.69.62-1.68.89-2.59.73zm30.66-16.09s.04-.07.02-.12c-.01.04-.01.08-.02.12zm7.43-6.79c-.48.16-.85.54-.76 1.05.25-.3.5-.66.76-1.05zm-5.57-6.49c-.09.48-.13.93-.13 1.34.42-.29.46-.96.13-1.34zm-5.76-68.53c0-.11.02-.23-.04-.32-.12-.18-.39-.13-.6-.06-.44.14-.9.3-1.21.65-.17.2-.26.48-.23.73-.08.11-.14.22-.2.34-.08.18-.15.39-.05.56.14.26.51.23.78.12.82-.34 1.44-1.14 1.55-2.02z" fill="#fca265"/><path d="m254.778 424.141c.88 2.08-1.02 6.11-4.5 5.61l-.28.24c-4.09-4.69-8.3-9.31-12.01-14.27l.06-.05c1.64-.05 3.22-1.09 3.91-2.58.7-1.49.49-3.36-.52-4.66 1.52-1.01 2.46-2.85 2.38-4.68-.07-1.84-1.16-3.59-2.76-4.48.77-1.1 1.36-2.37 1.63-3.68l.12.03c4.9-2.96 6.72 1.12 7.07 2.86.35 1.73-.77 3.45-2.14 4.58 1.91.35 3.52 1.99 3.82 3.91.31 1.92-.7 3.98-2.41 4.91 1.65.75 3.12 2.1 3.57 3.85.44 1.76-.44 3.88-2.17 4.43 1.93.62 3.45 2.11 4.23 3.98z" fill="#b6efa3"/><path d="m206.919 359.421c.97-.4 2-.57 3.19-.52 2.09.08 4.19 1.32 4.93 3.28.83-1.3 2.06-2.42 3.52-2.83.23-.07.48-.12.73-.15 1.77-.21 3.74.96 4.01 2.72 1.34-1.81 2.92-3.67 5.1-4.25 2.19-.58 5 .84 4.97 3.1 1.51-1.4 4.07-1.47 5.64-.14s1.94 3.87.81 5.59c3.35 1.37 4.43 6.4 1.95 9.03 1.15.37 1.92 1.56 2.07 2.76.16 1.21-.2 2.43-.7 3.54-.48 1.07-2 2.86-4.45 2.35l-.37.04c-.48-4.95-3.78-9.47-8.45-11.7l-.04.04c-.44-.53-.92-1.02-1.43-1.49-3.47-3.16-8.45-4.71-13.04-3.7-5.59 1.24-9.59 5.81-12.2 11.08l-.17-.08c-6.57 1.21-7.26 5.32-8.76 8.67-.08.17-.15.34-.23.51l-.4-.19c-4.87 1.79-6.66-2.5-6.66-2.5-.12 1.79-1.88 2.98-3.9 2.47-2.6-.64-3.72-3.02-2.46-4.35-.79.55-2.07.25-2.65-.57-.65-.92-.55-2.2-.05-3.21.5-1 1.33-1.79 2.16-2.56-1.92-.38-2.97-2.74-2.41-4.62.56-1.87 2.3-3.19 4.15-3.81-.93-1.33-.21-3.32 1.14-4.21 1.35-.9 3.1-.94 4.71-.73 1.56-3.02 6.3-3.7 8.65-1.24 1.85-2.63 6.07-3.15 8.51-1.04.7-.57 1.4-1 2.13-1.29z" fill="#b6efa3"/><path d="m243.821 403.75c.08 1.83-.86 3.67-2.38 4.68 1.01 1.3 1.22 3.17.52 4.66-.69 1.49-2.27 2.53-3.91 2.58l-.06.05c-.51-.68-1.02-1.37-1.51-2.07-3.32-4.71-5.16-10.03-10.64-11.82l-.13-.18c5.54-4.3 8.98-11.37 8.48-18.4-.28-3.99-1.77-7.94-4.36-10.97l.04-.04c4.67 2.23 7.97 6.75 8.45 11.7.13 1.34.05 2.71-.26 4.08 2.34.21 4.24 2.29 4.69 4.6.19.98.16 1.99-.06 2.97-.27 1.31-.86 2.58-1.63 3.68 1.6.89 2.69 2.64 2.76 4.48z" fill="#fca265"/><path d="m207.161 352.2c-.72.93-1.94 1.51-3.14 1.6-1.67.12-2.8-.08-4.29-.83-1.66-.83-1.87-2.78-1.87-2.78-1.27 2.41-4.26 3.42-6.69 2.2-1.53-.76-2-2.4-2-3.92-1.05.79-3.15 1.25-3.82.11-.66-1.14-.46-2.62.21-3.76.67-1.13 1.73-1.98 2.81-2.72-1.69-.15-2.73-2.18-2.33-3.82.41-1.65 1.83-2.86 3.34-3.62-1.31-.45-2.78-2.59-1.85-4.23.69-1.2 2.7-2.22 4.92-.7-.82-2.81.2-4.46 2.09-5.06 1.88-.6 4.08-.05 5.46 1.36 1.57-2.06 4.39-2.88 6.9-2.37 1.21.23 2.35.79 3.24 1.67.99-1.73 2.95-2.85 4.94-2.83.87.01 1.73.23 2.5.64 1 .51 1.85 1.31 2.38 2.29 1-1.96 3.14-3.28 5.34-3.28 2.19-.01 5.45 1.61 4.63 5.47 2.67-.43 4.8-.82 6.11 2.09 1.11 2.47-.48 5.67-2.91 6.87 1.8-.13 3.52 1.53 3.44 3.32-.07 1.8-1.92 3.31-3.7 3.03 1.25 1.56 1.11 4.04-.3 5.45-1.4 1.41-3.88 1.55-5.44.31-.51 1.95-2.22 3.52-4.2 3.84-1.34.22-2.74-.13-3.86-.89-.53-.37-1-.84-1.36-1.38-.77 1.91-2.69 3.31-4.74 3.46-2.06.15-4.16-.95-5.21-2.73-.11.45-.31.86-.6 1.21z" fill="#b6efa3"/><path d="m105.28 150.32c.45-2.13.99-3.9 4.04-4.31h.4c0 .14 0 .28.01.43.03.73.13 1.49.51 2.11s1.31 1.48 2.42.62l.92-.06c.15.11.32.19.5.23.84.19 2.31-.98 2.87-1.62l.28-.06c.04.18.1.36.2.51.6.9 2.05.49 2.81-.27 2.65-2.63 1.79-7.21 3.72-10.4.68.56 3.63 2.77 4.51 2.91s1.92-.35 2.05-1.23c0-.03.01-.06 0-.08h.06s2.6-5.23 5.86-1.71c0 0 2.82-6.41 7.05-1.17 0 0 5.14-6.88 9.2-.47v.2c-.25.09-.49.2-.71.35-.59.42-.94 1.29-.5 1.86.37.49 1.1 1.15 2.3 1.18 2.19.07 3.74-1.29 5.83-1.91-.16 1.26.04 2.97.22 4.23.15 1.09.44 2.2 1.15 3.04.53.64 1.5 1.09 2.18.61h.91c.95.83 2.68 1.43 3.75.09.13-.16.22-.33.29-.51l.53.08c.54.46 1.44.7 2.21-.05.51-.5.59-1.28.65-1.99.06-.76.05-1.53-.03-2.29l1.32-.13c3.05.23 2.35 4.7 2.35 4.7s2.11-2.12 4.65-1.51c2.56.62 4.02 4.07 2.76 6.39 1.28-1.93 4.17-2.4 6.16-1.22 1.98 1.18 3.81 3.88 3.44 6.16 1.37-1.98 4.54-2.36 6.35-.77 1.8 1.59 1.82 4.78.03 6.39 1.66-.78 3.49-1.36 5.32-1.17s3.65 1.28 4.29 3c.72 1.92-.13 4.03-.96 5.89 1.3-.87 3-1.06 4.5-.62.86.24 1.65.7 2.28 1.34 1.72 1.77 2.65 5.12 1.21 7.13 2.38-.9 5.21.61 6.32 2.9 1.1 2.29.74 5.08-.37 7.37 1.07-1.33 3.29-1.26 4.57-.14 1.27 1.13 1.69 2.99 1.48 4.68-.22 1.69-.96 3.26-1.7 4.79 2.7-.15 5.5 1.5 6.36 4.06.87 2.57-.56 5.77-3.15 6.56 2.57.08 4.71 2.44 5.02 4.99s-1.14 5.03-3.03 6.77c2.49.9 4.27 3.48 4.24 6.13-.04 2.65-1.89 5.18-4.4 6.02 3.23 2.66 4.8 7.19 3.91 11.28-.57 2.58-2.6 5.25-5.23 5.04 2.11 1.97 2.99 5.17 2.18 7.95-.8 2.77-3.26 5-6.1 5.54 2.4 1.18 3.6 4.33 2.58 6.81-1.01 2.47-2.9 3.21-5.85 3.31l-.17.12c-.58-.89-1.5-1.56-2.54-1.78.49-1 .82-2.01.69-3.12-.14-1.11-.92-2.2-2.02-2.38 1.12-.7 1.73-2.11 1.48-3.4-.26-1.29-1.36-2.36-2.66-2.58.96-.89 1.43-2.28 1.2-3.57-.22-1.28-1.13-2.43-2.33-2.95 1.4-1.47 1.04-4.21-.69-5.27.76-.4 1.03-1.53.82-2.38-.2-.81-.98-1.43-1.81-1.47.35 0 .6-.41.72-.77.28-.89.39-1.88.06-2.76-.33-.87-.85-1.77-1.79-1.74.13-.93.17-2.04-.58-2.6-.92-.71-2.36.12-2.68 1.24-.33 1.12.09 2.3.5 3.38-1.94 1.37-2.37 4.43-.9 6.28-1.63.89-2.09 3.37-.9 4.8-1.73.71-2.43 3.19-1.32 4.71-1.69 1.01-2.06 3.67-.71 5.1-2 2.28-2.92 5.77-1.94 8.64-2.34 1.34-3.19 4.74-1.75 7.01-2.02 1.32-2.63 4.37-1.29 6.36-1.64 1.65-2.01 4.43-.84 6.44-1.83 2.01-2.73 5.03-1.74 7.56-2.38 1.38-3.02 5.02-1.27 7.13-1.05.37-1.91 1.2-2.33 2.21l-.12-.05c-1.52.4-3.43-.46-3.68-2.01.31 1.93-.14 3.98-1.23 5.61-.64.97-1.6 1.83-2.76 1.93-1.72.15-3.08-1.37-4.12-2.75.49 2.15-.72 4.56-2.73 5.45-2.02.88-4 .4-5.24-1.42-.46 2.12-1.76 4.15-3.76 4.99-.64.27-1.5.42-2.39.43-1.93.03-4.06-.56-4.71-1.88-.65 2.22-.79 3.84-2.54 5.33-1.76 1.5-3.88 1.65-6.09 1.02-2.22-.64-3.64-2.04-4.7-4.06-.63 1.78-1.17 3.26-2.83 3.88-.55.22-1.22.33-2.07.33l-.31.16c-.16-.53-.45-1-.92-1.35-.13 0-.25.03-.36.05l-.08-.29c.34-1.08.46-2.23.35-3.36-.05-.43-.14-.88-.46-1.17-.26-.24-.62-.3-.98-.24l-.08-.21c.7-3.22-.53-4.32-.73-4.53-.23-.25-.59-.25-.99-.11v-.29c-.55-10.86-2.06-19.83-5.44-28.78l-.06-.06c.2-.21.38-.45.54-.7 1.08-1.72 1-4.05-.03-5.77l1.28-.04c14.04-12.67 24.15-29.68 28.36-48.12-12.06 8.68-22.11 20.11-29.25 33.13-2.16-1.6-2.58-4.3-1.98-6.08-1.2 2.5-5.24 2.65-6.93.45-1.68-2.2-.84-5.72 1.45-7.28-3.24.46-6.06-3.04-5.79-6.3.27-3.27 2.79-5.97 5.65-7.56-2.06-2.04-2.8-5.3-1.82-8.03.13-.35.28-.69.45-1.01l-.44-.26s-2.23-8.95-5.72-13.38c-3.53 20.27-4.27 37.3 7.3 62.12l.02.03c-1.3.7-2.28 1.96-2.69 3.53-.26.99-.21 2.05.08 3.03l-.37.12c-8.41 7.05-15.12 12.54-23.99 21.98-1.87 1.99-3.8599 4.16-5.5699 6.57l-.53-.38c-3.53.59-5.47-1.15-5.94-2.62-.46-1.47.39-3.22 1.03-4.44-.97 1.29-2.55 2.09-3.9 1.71s-2.26-1.71-2.53-3.08c-.08-.41-.12-.82-.12-1.24 0-.98.19-1.96.41-2.92-1.44 1.41-3.57 2.66-5.38 1.76-1.09-.55-1.71-1.76-1.86-2.97s.1-2.43.35-3.62c-1.87 1.9-5.42.99-6.84-1.27s-1.12-5.23-.1-7.7c-1.99 1.61-5.32.5-6.44-1.81s-.24-5.16 1.47-7.07c-1.14.75-2.62 1.17-3.88.65-1.4-.58-2.15-2.17-2.19-3.68-.03-1.51.51-2.97 1.04-4.38-2.27-.42-4.24-2.16-4.93-4.35-.69-2.2-.08-4.75 1.53-6.39-1.99-.54-3.62-2.24-4.06-4.26-.44-2.01.66-4.37 2.24-5.69-2.15-.28-4.19-1.75-4.82-3.82-.62-2.08.91-4.63 2.96-5.34-1.77-1.19-2.85-3.33-2.77-5.46.09-2.13 1.35-4.18 3.22-5.22-1.82-1.76-2.71-4.43-2.31-6.92.39-2.5 2.06-4.77 4.33-5.88-1.68-1.67-2.34-4.28-1.66-6.54.25-.84.69-1.62 1.25-2.29.95-1.13 2.28-1.96 3.74-2.25-1.38-2.1-1.56-4.94-.45-7.19 1.11-2.26 3.46-3.85 5.96-4.04-1.37-1.47-1.84-3.73-1.16-5.62.68-1.9 3.01-3.48 5.01-3.74-.93-2.27-.57-5.03.92-6.98 1.49-1.96 4.05-3.05 6.49-2.75-.63-2.43.19-5.17 2.05-6.84 1.85-1.68 4.66-2.21 7.01-1.34-.17-1.07-.01-2.18.42-3.18.44-1.06 1.18-2 2.14-2.64 1.87-1.24 4.45-1.28 6.36-.1 0-2.32 1.35-4.59 3.39-5.7 2.0299-1.1 4.6699-1 6.6199.26z" fill="#b6efa3"/><path d="m213.97 241.501c.83.04 1.61.66 1.81 1.47.21.85-.06 1.98-.82 2.38 1.73 1.06 2.09 3.8.69 5.27 1.2.52 2.11 1.67 2.33 2.95.23 1.29-.24 2.68-1.2 3.57 1.3.22 2.4 1.29 2.66 2.58.25 1.29-.36 2.7-1.48 3.4 1.1.18 1.88 1.27 2.02 2.38.13 1.11-.2 2.12-.69 3.12 1.04.22 1.96.89 2.54 1.78.29.42.49.9.59 1.4.3 1.54-.39 3.24-1.69 4.13 1.46-.04 2.93.94 3.3 2.35s-.54 3.07-1.96 3.39c1.36-.08 2.69.99 2.93 2.33.23 1.35-.67 2.79-1.98 3.18.88-.36 1.83.4 2.27 1.24.75 1.42.71 3.24-.12 4.62 1.29.1 2.44 1.19 2.62 2.48.17 1.29-.64 2.65-1.87 3.09 1.45-.24 2.81 1.15 2.89 2.61s-.83 2.83-2.01 3.7c1.26-.09 2.53.8 2.87 2.03.33 1.22-.3 2.64-1.44 3.2.98-.01 1.95.54 2.46 1.38s.54 1.95.08 2.82c-.29.55-.84.9-1.41 1.15-1.29.57-3.41-.07-3.69-.63-.23 1.83-1.55 2.4-2.64 2.4-1.95 0-3.36-1.2-3.46-2.04-.37 1.17-1.55 2.03-2.78 2.03h-.14c-1.27-.06-2.44-1.06-2.7-2.31-.26 1.36-1.54 2.44-2.93 2.48-1.38.03-2.72-.99-3.05-2.33-.15.68-.56 1.3-1.11 1.74-.52.43-1.17.7-1.85.73-1.38.05-2.74-.9-3.15-2.22-.44 1.02-1.58 1.68-2.68 1.54-1.09-.14-1.53-1.27-1.69-2.36-.77.78-2.77.73-3.44-.13s-.64-2.12-.15-3.09c.48-.98 1.35-1.71 2.26-2.31-1.01-.93-1.49-2.4-1.21-3.75.05-.26.13-.52.26-.76.42-1.01 1.28-1.84 2.33-2.21-1.75-2.11-1.11-5.75 1.27-7.13-.99-2.53-.09-5.55 1.74-7.56-1.17-2.01-.8-4.79.84-6.44-1.34-1.99-.73-5.04 1.29-6.36-1.44-2.27-.59-5.67 1.75-7.01-.98-2.87-.06-6.36 1.94-8.64-1.35-1.43-.98-4.09.71-5.1-1.11-1.52-.41-4 1.32-4.71-1.19-1.43-.73-3.91.9-4.8-1.47-1.85-1.04-4.91.9-6.28-.41-1.08-.83-2.26-.5-3.38.32-1.12 1.76-1.95 2.68-1.24.75.56.71 1.67.58 2.6.94-.03 1.46.87 1.79 1.74.33.88.22 1.87-.06 2.76-.12.36-.37.77-.72.77z" fill="#b6efa3"/><path d="m219.072 351.64-.59.19v7.27l.08.25c-1.46.41-2.69 1.53-3.52 2.83-.74-1.96-2.84-3.2-4.93-3.28-1.19-.05-2.22.12-3.19.52l.24-7.22c.29-.35.49-.76.6-1.21 1.05 1.78 3.15 2.88 5.21 2.73 2.05-.15 3.97-1.55 4.74-3.46.36.54.83 1.01 1.36 1.38z" fill="#b6efa3"/><path d="m218.479 317.359v5.77h-.9c-.77-.4-1.63-.62-2.5-.63-1.99-.02-3.95 1.1-4.94 2.83-.89-.88-2.03-1.44-3.24-1.67l.02-.11-.06-6.71c.55-.44.96-1.06 1.11-1.74.33 1.34 1.67 2.36 3.05 2.33 1.39-.04 2.67-1.12 2.93-2.48.26 1.25 1.43 2.25 2.7 2.31h.14z" fill="#b6efa3"/><path d="m209.03 73.9494.32.68c-.69.26-1.38.6701-2.01 1.2401l-.26-.3c-1.28-1.11-1.83-3-1.34-4.63 1.46.47 2.7 1.5999 3.29 3.0099z" fill="#a4d0e5"/><path d="m207.158 352.2-.24 7.22c-.73.29-1.43.72-2.13 1.29-2.44-2.11-6.66-1.59-8.51 1.04-2.35-2.46-7.09-1.78-8.65 1.24-1.61-.21-3.36-.17-4.71.73-1.35.89-2.07 2.88-1.14 4.21-1.85.62-3.59 1.94-4.15 3.81-.56 1.88.49 4.24 2.41 4.62-.83.77-1.66 1.56-2.16 2.56-.5 1.01-.6 2.29.05 3.21.58.82 1.86 1.12 2.65.57-1.26 1.33-.14 3.71 2.46 4.35 2.02.51 3.78-.68 3.9-2.47 0 0 1.79 4.29 6.66 2.5l.4.19c-.11.22-.23.44-.4.63-.29.34-.7.56-1.08.8-1.64 1.02-2.91 2.51-3.82 4.22l-.15-.08c-4.29-1.83-6.23 3.79-6.23 3.79-.49-.15-.96-.25-1.38-.29l.16-1.15c-.62-5.21-4.4-6.78-7.89-5.54-.39-.82-.55-1.73-.92-2.56-.77-1.76-2.54-3.04-4.45-3.24-.83-.09-1.68.03-2.47.32l-.18-.46c-3.2-2.61-3.65-7.9-.93-11-4.4-2.57-5.54-9.3-2.23-13.16-2.44-1.31-4.1-3.96-4.2-6.72-.09-2.75 1.39-5.51 3.75-6.97-3.34-3.04-2.11-9.46 2.12-11.07-1.75-1.31-2.57-3.72-1.98-5.81.6-2.09 2.57-3.73 4.76-3.94-1.72-2.17.5-6.4 2.71-8.14v-.23c.88-.01 1.74-.16 2.38-.43 2-.84 3.3-2.87 3.76-4.99 1.24 1.82 3.22 2.3 5.24 1.42 2.01-.89 3.22-3.3 2.73-5.45 1.04 1.38 2.4 2.9 4.12 2.75 1.16-.1 2.12-.96 2.76-1.93 1.09-1.63 1.54-3.68 1.23-5.61.25 1.55 2.16 2.41 3.68 2.01l.12.05c-.13.24-.21.5-.26.76-.28 1.35.2 2.82 1.21 3.75-.91.6-1.78 1.33-2.26 2.31-.49.97-.52 2.23.15 3.09s2.67.91 3.44.13c.16 1.09.6 2.22 1.69 2.36 1.1.14 2.24-.52 2.68-1.54.41 1.32 1.77 2.27 3.15 2.22.68-.03 1.33-.3 1.85-.73l.06 6.71-.02.11c-2.51-.51-5.33.31-6.9 2.37-1.38-1.41-3.58-1.96-5.46-1.36-1.89.6-2.91 2.25-2.09 5.06-2.22-1.52-4.23-.5-4.92.7-.93 1.64.54 3.78 1.85 4.23-1.51.76-2.93 1.97-3.34 3.62-.4 1.64.64 3.67 2.33 3.82-1.08.74-2.14 1.59-2.81 2.72-.67 1.14-.87 2.62-.21 3.76.67 1.14 2.77.68 3.82-.11 0 1.52.47 3.16 2 3.92 2.43 1.22 5.42.21 6.69-2.2 0 0 .21 1.95 1.87 2.78 1.49.75 2.62.95 4.29.83 1.2-.09 2.42-.67 3.14-1.6z" fill="#b6efa3"/><path d="m201.179 383.03c2.77 2.99 1.65 5.57.73 8.31 1.69 1.92 3.23 4.1 3.74 6.61s-.21 5.41-2.29 6.89c.61 2.28 1.22 4.65.84 6.97-.38 2.33-2.03 4.63-4.37 4.96.18 2.46-1.12 4.91-3.1 6.38-1.23.92-2.84 1.5-4.31 1.07-1.47-.44-2.56-2.19-1.9-3.58-.85.72-1.72 1.46-2.78 1.82-1.05.37-2.33.28-3.12-.5-.39-.38-.62-.88-.81-1.38-.97-2.61-.82-5.61.41-8.11-1.92-.66-2.06-3.33-1.53-5.29.98-3.59 3.65-5.47 6.42-7.96-.88.11-2.06-1.93-1.6-3.44.3-.99.69-1.95 1.19-2.86.91-1.71 2.18-3.2 3.82-4.22.38-.24.79-.46 1.08-.8.17-.19.29-.41.4-.63.08-.17.15-.34.23-.51 1.5-3.35 2.19-7.46 8.76-8.67l.17.08c-.78 1.58-1.44 3.22-1.98 4.86z" fill="#fca265"/><path d="m200.418 442.419c.02 1.14-.02 2.25-.18 3.28-.65 4.26-1.75 8.76-4.75 13.92-2.33 4.03-8.41 10.95-9.58 15.45 0 .01-.01.03-.01.04h-.02c-1.72 1.77-2.93 2.07-5.4 2.29-2.47.21-4.92-1.03-5.79-3.35-1.89 2.15-4.76 4.05-7.53 3.35-1.49-.37-2.94-1.27-3.55-2.68-.11-.24-.18-.5-.22-.77-.2-1.27.33-2.67 1.49-3.19-1.82.6-3.92-.58-4.72-2.32-.81-1.74-.51-3.84.35-5.55.87-1.71 2.24-3.1 3.64-4.42-2.05-1.76-2.68-4.98-1.44-7.38 1.23-2.41 4.21-3.78 6.84-3.14.66-2.2 2.64-3.95 4.91-4.33 2.26-.38 4.71.61 6.06 2.47.93-2.02 3.11-3.4 5.33-3.37 2.23.03 4.91 1.07 5.78 3.12 1.86-1.71 4.45-4.06 8.45-3.41h.34z" fill="#b6efa3"/><path d="m140.622 383.559c1.22-1.75 3.45-2.75 5.57-2.49.83.1 1.63.39 2.35.83 1.19.74 2.13 1.88 2.56 3.22 1.15-2.77 4.74-4.22 7.49-3.03 1.8.78 3.06 2.41 4.21 3.99.64-.88 1.56-1.54 2.57-1.91.79-.29 1.64-.41 2.47-.32 1.91.2 3.68 1.48 4.45 3.24.37.83.53 1.74.92 2.56 3.49-1.24 7.27.33 7.89 5.54l-.16 1.15c-4.28-.37-5.43 4.57-5.04 6.6-2.29.35-4.61 1.58-5.49 3.72s.39 5.1 2.69 5.33c-1.76 1.09-3.42 2.92-4.24 4.82-.41.93-.67 2-.35 2.97.32.96 1.41 1.72 2.37 1.38-1.11 1.31-2.24 2.66-2.83 4.27-.58 1.62-.5 3.58.65 4.86 1.14 1.28 3.49 1.43 4.48.04-.93 2.34.96 5.15 3.41 5.7 2.46.54 5.06-.78 6.61-2.77-.22 1.34.66 2.68 1.84 3.34 1.18.65 2.59.74 3.94.6 2.66-.27 5.43-1.57 6.54-4.01-.25 2.15 2.39 3.7 4.5 3.23h.23c-.04 1.87.15 3.98.17 6h-.34c-4-.64-6.59 1.71-8.45 3.42-.87-2.05-3.55-3.09-5.78-3.12-2.22-.03-4.4 1.35-5.33 3.37-1.35-1.86-3.8-2.85-6.06-2.47-2.27.38-4.25 2.13-4.91 4.33-2.63-.64-5.61.73-6.84 3.14-1.24 2.4-.61 5.62 1.44 7.38-1.4 1.32-2.77 2.71-3.64 4.42-.86 1.71-1.16 3.81-.35 5.55.8 1.74 2.9 2.92 4.72 2.32-1.16.52-1.69 1.92-1.49 3.19l-.2.02c-1.41.5-2.81.99-4.22 1.48-3.16-2.83-8.62-2.49-11.42.7-4.27-2.76-10.24-2.57-14.33.45l-.62-.25c2.22-2.72 3.48-5.56 1.38-8.43l-.12-.03c.11-.58.12-1.19 0-1.8-.44-2.26-2.64-5.26-4.38-6.59-.09-.07-.17-.13-.26-.19-3.76-2.58-6.09-3.54-9.97-4.72-.55-.17-1.14-.34-1.76-.52-1-.29-2.09-.58-3.23-.87-1.4-.36-2.88-.72-4.33-1.13-1.4-.39-2.79-.82-4.08-1.31-1.03-.39-2.01-.82-2.89-1.31-.23-.13-.46-.25-.7-.38-3.8804-2.13-8.1604-4.45-9.1204-9.22l-.07-.3c1.52-.35 2.89-.66 3.97-.88-1.89-11.85-4.99-23.51-9.19-34.74l.28-.11c.92-1.39 2.53-1.75 3.71-1.35-.41-4.14 1.01-5.98 5.05-4.99 0-2.19 1.24-4.35 3.1304-5.47 1.89-1.11 4.37-1.16 6.3-.1.59-2.41 2.52-4.44 4.89-5.15 2.37-.72 5.1-.1 6.92 1.58.48-2.38 2.42-4.4 4.78-4.96 2.36-.57 5.01.34 6.51 2.24.51-2.41 2.59-4.41 5.02-4.81.99-.16 2-.06 2.94.27 1.32.44 2.49 1.31 3.24 2.48z" fill="#b6efa3"/><path d="m196.728 423.149c-.81 6.19 3.67 7.41 3.52 13.18v.09h-.23c-2.11.47-4.75-1.08-4.5-3.23-1.11 2.44-3.88 3.74-6.54 4.01-1.35.14-2.76.05-3.94-.6-1.18-.66-2.06-2-1.84-3.34-1.55 1.99-4.15 3.31-6.61 2.77-2.45-.55-4.34-3.36-3.41-5.7-.99 1.39-3.34 1.24-4.48-.04-1.15-1.28-1.23-3.24-.65-4.86.59-1.61 1.72-2.96 2.83-4.27-.96.34-2.05-.42-2.37-1.38-.32-.97-.06-2.04.35-2.97.82-1.9 2.48-3.73 4.24-4.82-2.3-.23-3.57-3.19-2.69-5.33s3.2-3.37 5.49-3.72c-.39-2.03.76-6.97 5.04-6.6.42.04.89.14 1.38.29 0 0 1.94-5.62 6.23-3.79l.15.08c-.5.91-.89 1.87-1.19 2.86-.46 1.51.72 3.55 1.6 3.44-2.77 2.49-5.44 4.37-6.42 7.96-.53 1.96-.39 4.63 1.53 5.29-1.23 2.5-1.38 5.5-.41 8.11.19.5.42 1 .81 1.38.79.78 2.07.87 3.12.5 1.06-.36 1.93-1.1 2.78-1.82-.66 1.39.43 3.14 1.9 3.58 1.47.43 3.08-.15 4.31-1.07z" fill="#b6efa3"/><path d="m186.649 78.6008c1.67.86 2.7 2.92 2.42 4.85-.29 1.92-1.87 3.56-3.71 3.86 1.94.41 2.6 3.27 1.56 5.03-1.05 1.76-2.04 2.77-3.99 3.12 1.64 1.64 2.81 5.7702-2.11 7.7302 0 0 .42 6.36-5.31 4.75 0 0-.35 5.9-5.72 3.58 0 0-2.49 6.87-8.14 3.32h-.62c.42-4.78.8-13.15.99-17.1902-1.71 5.0102-2.56 7.3202-6.34 10.7402-.95.86-2 1.64-3.22 2.01-1.68.52-3.5.18-5.26.25-1.85.06-3.68.58-5.29 1.49-.97.54-1.95 1.4-1.96 2.51-.69-1.92-2.98-2.69-5.01-2.91-2.03-.21-4.23-.17-5.9-1.35-.56-.4-1.02-.93-1.43-1.48-2.03-2.76-2.69-5.91-3.3-9.2802-1.97 4.5602-2.16 10.3202-2.31 15.1102 0 .02 0 .03-.01.05l-.34-.04c-5.91-1.26-3.64-5.01-3.64-5.01-5.37 1.25-4.12-5.02-4.12-5.02-2.45.74-3.85.12-5.34-2.05-1.49-2.16-1.51-5.3102-.05-7.4902-2.05.72-4.27-1.3-4.61-3.53-.33-2.24.94-4.53 2.13-6.42-2.05-.29-3.54-2.47-3.61-4.64-.08-2.16.99-4.22 2.4-5.81-2.11-.57-3.34-3.12-3.02-5.36s1.88-4.12 3.72-5.34c-1.86-3.45.73-9.32 5.34-8.7-2.38-6.05 2.42-10.47 6.89-9.93-.06-4.35 4.37-8.1 8.43-7.15.55-2.19 2.18-4.05 4.22-4.83 2.04-.77 4.43-.44 6.2.87.77-2.59 3.08-4.61 5.66-4.93s5.28 1.07 6.61 3.39c.65-1.47 1.98-2.6 3.51-2.32s2.73 2.01 2.33 3.58c.56-1.37 2.2-2.15 3.56-1.67 1.36.47 3.23 2.17 2.89 3.62.47-1.79 2.81-2.55 4.35-1.62 1.54.92 2.15 3.07 1.69 4.86 1.34-1.96 4.41-2.07 6.1-.43s1.93 4.53.84 6.65c1.68-1.35 4.38-.5 5.48 1.39 1.1 1.9 1.89 4.54.82 6.45 1.45-1.16 3.88-.43 4.53 1.35.7 1.94-.17 3.55-1.38 5.19 1.24-.71 2.51.26 3.38 1.41.88 1.16 1.36 2.97 1.02 4.4-.35 1.43-1.09 2.41-1.98 3.56 1.58-.11 8.17 2.99.65 9.38zm-20.79 15.71c.39-1.91-.85-3.77-2.76-4.15-1.9-.39-3.76.85-4.15 2.75-.39 1.91.85 3.77 2.76 4.16 1.9.38 3.76-.85 4.15-2.76zm-38.59 1.28c.38-1.9-.85-3.76-2.76-4.15s-3.77.85-4.15 2.76c-.39 1.9.84 3.76 2.75 4.15s3.77-.85 4.16-2.76z" fill="#b6efa3"/><path d="m150.26 128.75c.05.12.11.24.17.35 1-1.11 1.3-2.8.75-4.19-.14.16-.27.34-.39.52-.03-.25-.09-.49-.16-.73-.74 1.05-.92 2.45-.52 3.66.01.05.01.09.02.14.01-.01.01-.02.02-.03.03.1.06.19.11.28zm-16.67 2.13c.17-.44.24-.92.24-1.39v-.04c.07-.67-.03-1.35-.3-1.97-.06-.11-.15-.24-.26-.23-.01-.05-.03-.1-.04-.15-.36.53-.55 1.17-.56 1.82v.15c-.04.51 0 1.03.13 1.53.03.12.07.25.11.37.06.17.18.37.36.36.15-.01.24-.18.29-.32.02-.04.03-.08.04-.13zm44.97-7.83c3.02 1.43 5.71 3.31 7.32 6.23-1.77-1.04-3.93-1.4-5.94-1 2.09 1.83 3.32 4.61 3.24 7.39-3.95-3.65-8.64-6.5-13.7-8.34-3.22-1.18-7.42-2.04-8.8-4.8.19 2.97.15 6.54-1.47 10.01l.08.19c-1.82.79-3.37 2.26-5.29 2.85-.43.13-.88.22-1.3.37v-.2c-4.07-6.41-9.21.47-9.21.47-4.23-5.24-7.05 1.17-7.05 1.17-3.26-3.52-5.86 1.71-5.86 1.71h-.06c.04-.32-.05-.65-.15-.95-.44-1.38-2.4-3.09-3.59-3.92-1.04-.72-2.82-1.45-4.2-1.69-.34-.02-.68-.03-1.02-.02v-.3c-.53-3.5-.32-7.11.6-10.53h-.12c-1.17 3.55-5.12 6.91-8.49 8.55-3.36 1.65-7.02 2.89-9.82 5.37 1-2.18 2.16-4.28 3.46-6.3-1.8.1-3.57.54-5.21 1.29 3.05-3.6 6.77-6.63 10.92-8.89 3.65-2 8.79-3.51 9.09-6.92.01-.02.01-.03.01-.05.15-4.79.34-10.55 2.31-15.1096.61 3.3696 1.27 6.5196 3.3 9.2796.41.55.87 1.08 1.43 1.48 1.67 1.18 3.87 1.14 5.9 1.35 2.03.22 4.32.99 5.01 2.91.01-1.11.99-1.97 1.96-2.51 1.61-.91 3.44-1.43 5.29-1.49 1.76-.07 3.58.27 5.26-.25 1.22-.37 2.27-1.15 3.22-2.01 3.78-3.42 4.63-5.73 6.34-10.7396-.19 4.0396-.57 12.4096-.99 17.1896-.35 3.02 3.28 5.36 7.27 6.04 3.29.56 6.67.46 10.26 2.17z" fill="#fca265"/><path d="m168.109 144.89c-.07.18-.16.35-.29.51-1.07 1.34-2.8.74-3.75-.08h-.91c-.68.47-1.65.02-2.18-.62-.71-.84-1-1.95-1.15-3.04-.18-1.26-.38-2.97-.22-4.23-2.09.62-3.64 1.98-5.83 1.91-1.2-.03-1.93-.69-2.3-1.18-.44-.57-.09-1.44.5-1.86.22-.15.46-.26.72-.35.42-.15.87-.24 1.3-.37 1.92-.59 3.47-2.06 5.29-2.85.36-.15.72-.28 1.1-.37l.38-.08c2.83-.97 6.13.12 8.14 2.33 1.5 1.65 2.34 3.8 2.56 6.03.08.76.09 1.53.03 2.29-.06.71-.14 1.49-.65 1.99-.77.75-1.67.51-2.21.05z" fill="#fca265"/><path d="m169.179 316.669v.23c-2.2 1.74-4.42 5.97-2.7 8.14-2.19.21-4.16 1.85-4.76 3.94-.59 2.09.23 4.5 1.98 5.81-4.23 1.61-5.46 8.03-2.12 11.07-2.36 1.46-3.84 4.22-3.75 6.97.1 2.76 1.76 5.41 4.2 6.72-3.31 3.86-2.17 10.59 2.23 13.16-2.72 3.1-2.27 8.39.93 11l.18.46c-1.01.37-1.93 1.03-2.57 1.91-1.15-1.58-2.41-3.21-4.21-3.99-2.75-1.19-6.34.26-7.49 3.03-.43-1.34-1.37-2.48-2.56-3.22l.52-.11v-60.77l-.75-.06c1.66-.62 2.2-2.1 2.83-3.88 1.06 2.02 2.48 3.42 4.7 4.06 2.21.63 4.33.48 6.09-1.02 1.75-1.49 1.89-3.11 2.54-5.33.65 1.32 2.78 1.91 4.71 1.88z" fill="#63bfef"/><path d="m163.101 90.1596c1.91.38 3.15 2.24 2.76 4.15s-2.25 3.14-4.15 2.76c-1.91-.39-3.15-2.25-2.76-4.16.39-1.9 2.25-3.14 4.15-2.75z" fill="#fca265"/><path d="m137.078 259.61c7.14-13.02 17.19-24.45 29.25-33.13-4.21 18.44-14.32 35.45-28.36 48.12l-1.28.04c-.32-.53-.72-1.01-1.22-1.39 0 0-2.11-1.5-3.39-1.56-.2-.01-.4-.01-.59 0v-.09c1.59-4.12 3.46-8.12 5.59-11.99z" fill="#ffd127"/><path d="m149.059 321.021v60.77l-.52.11c-.72-.44-1.52-.73-2.35-.83-2.12-.26-4.35.74-5.57 2.49-.75-1.17-1.92-2.04-3.24-2.48l.11-.29v-30.31l-.36-.22c4.76-7.7 5.23-11.67 5-20.6l-.07-.06c.99-1.1 1.91-2.27 2.77-3.5.89-1.27 1.51-3.2 1.1-4.65l.31-.16c.85 0 1.52-.11 2.07-.33z" fill="#b6efa3"/><path d="m143.48 315.091c.36-.06.72 0 .98.24.32.29.41.74.46 1.17.11 1.13 0 2.28-.35 3.36l.08.29c.11-.02.23-.04.36-.05.47.35.76.82.92 1.35.41 1.45-.21 3.38-1.1 4.65-.86 1.23-1.78 2.4-2.77 3.5-2.89 3.23-6.36 5.79-10.51 7.04-.42.14-.85.25-1.28.35-1.66.38-3.38.55-5.01 1.07h-.82c-.08-2.85-.24-6.41-.37-9.74h.22c2.48-2.87 3.16-6.24 4.03-8.97.19-.59.38-1.15.61-1.67.37-.85 1.49-3.64 3.65-3.42l.56.02c-.09 2.52-.29 4.95-.63 7.27l.14.17c3.12-2.47 4.38-6.89 7.01-10.02.41-.48 1.27-1.2 2.02-1.46.4-.14.76-.14.99.11.2.21 1.43 1.31.73 4.53z" fill="#efede7"/><path d="m142.128 329.66c.23 8.93-.24 12.9-5 20.6-.22.36-.45.73-.69 1.1-1.39 2.17-4.14 4.43-7.02 5.11-.67.16-1.39.21-1.95 0-.47-.19-.79-.53-1.02-.91-1.04-1.71-.47-3.9.12-5.92 1.42-4.88 3.57-8.06 5-12.94l-.02-.06c4.15-1.25 7.62-3.81 10.51-7.04z" fill="#ffd127"/><path d="m141.671 309.949v.29c-.74.26-1.6.98-2.01 1.46-2.63 3.13-3.89 7.55-7.01 10.02l-.14-.17c.34-2.32.54-4.75.63-7.27.39-10.21-.96-21.67-2.02-31.11l.04-.28c1.82.26 3.78-.42 5.02-1.78l.06.06c3.38 8.95 4.89 17.92 5.43 28.78z" fill="#ffd127"/><path d="m137.488 350.481v30.31l-.11.29c-.94-.33-1.95-.43-2.94-.27-2.43.4-4.51 2.4-5.02 4.81-1.5-1.9-4.15-2.81-6.51-2.24-2.36.56-4.3 2.58-4.78 4.96-1.82-1.68-4.55-2.3-6.92-1.58-2.37.71-4.3 2.74-4.89 5.15-1.93-1.06-4.41-1.01-6.3.1-1.8896 1.12-3.1296 3.28-3.1296 5.47-4.04-.99-5.46.85-5.05 4.99-1.18-.4-2.79-.04-3.71 1.35l-.28.11c-3.1-8.3-6.82-16.36-11.1-24.1l-.1-.73c3-.39 6.72-.97 7.15-1.5.51-.63.7-1.46.77-2.27.49-5.79.09-10.38-.43-14.6l-.02-.14c13.9-2.39 27.1996-8.25 38.2796-16.99.64-.51 1.29-1.04 1.66-1.77.45-.87.44-1.9.41-2.88-.01-.29-.02-.59-.03-.89h.82c1.63-.52 3.35-.69 5.01-1.07.43-.1.86-.21 1.28-.35l.02.06c-1.43 4.88-3.58 8.06-5 12.94-.59 2.02-1.16 4.21-.12 5.92.23.38.55.72 1.02.91.56.21 1.28.16 1.95 0 2.88-.68 5.63-2.94 7.02-5.11.24-.37.47-.74.69-1.1z" fill="#63bfef"/><path d="m136.689 274.639c1.03 1.72 1.11 4.05.03 5.77-.16.25-.34.49-.54.7-1.24 1.36-3.2 2.04-5.02 1.78-.5-.06-.99-.2-1.45-.41-1.49-.67-2.58-2.05-3.05-3.61-.29-.98-.34-2.04-.08-3.03.41-1.57 1.39-2.83 2.69-3.53.67-.36 1.42-.58 2.22-.62.19-.01.39-.01.59 0 1.28.06 3.39 1.56 3.39 1.56.5.38.9.86 1.22 1.39z" fill="#ffd127"/><path d="m135.1 253.53c-.6 1.78-.18 4.48 1.98 6.08-2.13 3.87-4 7.87-5.59 11.99v.09c-.8.04-1.55.26-2.22.62l-.02-.03c-11.57-24.82-10.83-41.85-7.3-62.12 3.49 4.43 5.72 13.38 5.72 13.38l.44.26c-.17.32-.32.66-.45 1.01-.98 2.73-.24 5.99 1.82 8.03-2.86 1.59-5.38 4.29-5.65 7.56-.27 3.26 2.55 6.76 5.79 6.3-2.29 1.56-3.13 5.08-1.45 7.28 1.69 2.2 5.73 2.05 6.93-.45z" fill="#ffd127"/><path d="m83.9209 474.589c-1.05-.7-1.71-1.52-2.12-2.28-1.62-2.96.19-6.78.12-10.1l.19-.1c.62 1.26 1.6 2.33 3.32 3.43 3.14 2 6.92 2.54 10.38 3.13 8.1101 1.39 16.2301 2.78 24.3501 4.17.05.01.09.02.14.02 3.59.62 7.45 1.15 10.62-.82 1.4-.87 2.62-2.42 2.94-4.15l.12.03c2.1 2.87.84 5.71-1.38 8.43-.2.25-.41.49-.63.74-2.58 2.94-6.39 3.57-10.18 3.72-15.43.6-16.69-2.6-32.3101-4.38-2.54-.29-4.32-.99-5.56-1.84z" fill="#efede7"/><path d="m133.861 466.09c.12.61.11 1.22 0 1.8-.32 1.73-1.54 3.28-2.94 4.15-3.17 1.97-7.03 1.44-10.62.82l.08-.48c.12-2.29.74-4.96 1.92-7.24 1.44-2.83 3.74-5.08 6.95-5.33l.23-.31c1.74 1.33 3.94 4.33 4.38 6.59z" fill="#efede7"/><path d="m131.121 283.17c1.06 9.44 2.41 20.9 2.02 31.11l-.56-.02c-2.16-.22-3.28 2.57-3.65 3.42-.23.52-.42 1.08-.61 1.67l-.31-.1c-2.21.05-3.66-1.9-3.17-4.06-1.05 2.2-2.56 3.34-4.95 2.92-2.4-.43-3.22-1.78-2.79-4.18-.97 2.11-2.6 2.72-4.82 2.02-2.22-.69-2.39-2.75-1.51-4.52 0 0-3.68 3.68-5.88-.59l-.09-.06c8.13-11.25 15.1-18.48 24.91-28.3.46.21.95.35 1.45.41z" fill="#b6efa3"/><path d="m117.23 147.66-.28.06c-.56.64-2.03 1.81-2.87 1.62-.18-.04-.35-.12-.5-.23l-.92.06c-1.11.86-2.04 0-2.42-.62s-.48-1.38-.51-2.11c-.01-.15-.01-.29-.01-.44-.05-3.42 1.09-6.88 3.35-9.44 2.13-2.41 5.27-3.96 8.49-4.04.34-.01.68 0 1.02.02 1.38.24 3.16.97 4.2 1.69 1.19.83 3.15 2.54 3.59 3.92.1.3.19.63.15.95.01.02 0 .05 0 .08-.13.88-1.17 1.37-2.05 1.23s-3.83-2.35-4.51-2.91c-1.93 3.19-1.07 7.77-3.72 10.4-.76.76-2.21 1.17-2.81.27-.1-.15-.16-.33-.2-.51z" fill="#fca265"/><path d="m129.481 459.5-.23.31c-3.21.25-5.51 2.5-6.95 5.33l-.28-.15c-.81-3.84-3.99-5.34-7.08-6.24l.05-.18c.54-1.61 2.53-3.15 4.16-3.6l.1-.38c3.88 1.18 6.21 2.14 9.97 4.72.09.06.17.12.26.19z" fill="#efede7"/><path d="m128.01 319.249.31.1c-.87 2.73-1.55 6.1-4.03 8.96h-.22c-.09-2.07-.16-4.06-.2-5.73-4.44 1.72-8.59 5.93-13.03 7.65-4.83 1.88-9.7 3.77-14.73 4.99l-.11-.44c1.41-2.72 4.02-4.71 4.67-7.71-1.07-.27-2.22-.6-3.41-.98l.33-1.04c.66-1.6 1.32-3.19 1.98-4.78v-.05c.12-.02.24-.04.36-.05 1.41-.16 3.26-.42 3.5-1.82.2-1.18-.96-1.98-2.17-2.36l.11-.32c1.17-1.72 2.31-3.34 3.43-4.89l.09.06c2.2 4.27 5.88.59 5.88.59-.88 1.77-.71 3.83 1.51 4.52 2.22.7 3.85.09 4.82-2.02-.43 2.4.39 3.75 2.79 4.18 2.39.42 3.9-.72 4.95-2.92-.49 2.16.96 4.11 3.17 4.06z" fill="#63bfef"/><path d="m124.511 91.4409c1.91.39 3.14 2.25 2.76 4.15-.39 1.91-2.25 3.15-4.16 2.76s-3.14-2.25-2.75-4.15c.38-1.91 2.24-3.15 4.15-2.76z" fill="#fca265"/><path d="m126.661 278.869c.47 1.56 1.56 2.94 3.05 3.61-9.81 9.82-16.78 17.05-24.91 28.3-1.12 1.55-2.26 3.17-3.43 4.89l-.11.32c-.29-.09-.58-.16-.85-.2-2.2304-.35-5.4804.01-7.7404.89l-.03-.38c.47-2.22 1.33-4.26 2.42-6.15.5-.9 1.07-1.77 1.67-2.61 1.71-2.41 3.7004-4.58 5.5704-6.57 8.87-9.44 15.58-14.93 23.99-21.98z" fill="#ffd127"/><path d="m79.3206 337.69c4.7-.77 9.53-1.01 14.23-1.91.86-.16 1.71-.35 2.56-.56 5.0304-1.22 9.9004-3.11 14.7304-4.99 4.44-1.72 8.59-5.93 13.03-7.65.04 1.67.11 3.66.2 5.74.13 3.33.29 6.89.37 9.74.01.3.02.6.03.89.03.98.04 2.01-.41 2.88-.37.73-1.02 1.26-1.66 1.77-11.08 8.74-24.3804 14.6-38.2804 16.99l.02.14c.52 4.22.92 8.81.43 14.6-.07.81-.26 1.64-.77 2.27-.43.53-4.15 1.11-7.15 1.5-1.01.13-1.9401.24-2.6301.32-4.11.46-8.0999.79-11.9899 1.17-7.32.71-14.33 1.6-21.32 3.92-2.26.74-4.52 1.63-6.79 2.71-2.71-20.39.08-29.14 10.83-46.68 3.46-.77 6.92-1.55 10.39-2.33 5.8-1.29 14.21-2.45 19.17-5.71-.1-.55-.37-1.08-.76-1.59l.2899-.11c1.8 1.05 3.07 2.47 3.93 3.72 1.09 1.61 1.5101 2.96 1.5101 2.96z" fill="#f5ccc0"/><path d="m81.2081 443.56-.26-1.17c2.33-.52 5.26-1.22 8.09-1.89l.12.53c2.51 7.33 5.67 10.35 8.81 12.22 1.43.86 2.8499 1.47 4.2099 2.14.09.04.18.09.27.13 1.39.65 2.86 1.08 4.36 1.43 1.23.27 2.48.5 3.73.75.77.15 1.55.31 2.31.5.67.16 1.38.34 2.09.55 3.09.9 6.27 2.4 7.08 6.24l.28.15c-1.18 2.28-1.8 4.95-1.92 7.24l-.08.48c-.05 0-.09 0-.14-.02-8.12-1.39-16.24-2.78-24.3499-4.17-3.46-.59-7.24-1.13-10.38-3.13-1.72-1.1-2.7-2.17-3.32-3.43-.66-1.33-.91-2.87-1.19-4.87-.54-3.7-.02-9.75.29-13.68zm8.14 10.99c.61-2.17-.6-4.51-1.86-5.22-1.02-.68-3.16-.46-4.25.88-.78.97-1.38 2.18-1.48 3.49-.09 1.32.37 2.73 1.33 3.5.44.36.97.57 1.51.66 2.02.35 4.15-1.13 4.75-3.31z" fill="#efede7"/><path d="m119.249 454.589-.1.38c-1.63.45-3.62 1.99-4.16 3.6l-.05.18c-.71-.21-1.42-.39-2.09-.55-.76-.19-1.54-.35-2.31-.5l.05-.23c.46-1.51 2.19-3.14 3.57-3.89l.1-.38c1.14.29 2.23.58 3.23.87.62.18 1.21.35 1.76.52z" fill="#efede7"/><path d="m114.259 453.2-.1.38c-1.38.75-3.11 2.38-3.57 3.89l-.05.23c-1.25-.25-2.5-.48-3.73-.75l.36-1.6c.58-1.27 1.7-2.07 2.72-3.13l.04-.15c1.45.41 2.93.77 4.33 1.13z" fill="#efede7"/><path d="m107.169 455.35-.36 1.6c-1.5-.35-2.97-.78-4.36-1.43l.33-.7c.03-1.28 1.65-2.77 3.03-3.97l.04-.09c1.29.49 2.68.92 4.08 1.31l-.04.15c-1.02 1.06-2.14 1.86-2.72 3.13z" fill="#efede7"/><path d="m105.849 450.76-.04.09c-1.38 1.2-3 2.69-3.03 3.97l-.33.7c-.09-.04-.18-.09-.27-.13-1.36-.67-2.7803-1.28-4.2102-2.14h1.01c.32-1.35.9999-2.93 3.2302-4.08l.05-.1c.24.13.47.25.7.38.88.49 1.86.92 2.89 1.31z" fill="#efede7"/><path d="m92.67 316.681c2.26-.88 5.51-1.24 7.74-.89.27.04.56.11.85.2 1.21.38 2.37 1.18 2.17 2.36-.24 1.4-2.09 1.66-3.5 1.82-.12.01-.24.03-.37.05-2.63.39-5.39 1.98-5.67 4.6l-.04.1c-1.92-.68-3.85-1.42-5.6-2.1l.19-.48c.66-3.26-1.27-6.08 1.55-10.41.76-1.16 3.29-2.4 4.63-2.03l.44.25c-1.09 1.89-1.95 3.93-2.42 6.15z" fill="#efede7"/><path d="m102.259 449.071-.05.1c-2.2299 1.15-2.9099 2.73-3.2299 4.07h-1.01c-3.14-1.86-6.3-4.88-8.81-12.21l-.12-.53c1.39-.33 2.76-.65 4.03-.95l.07.3c.96 4.77 5.24 7.09 9.1199 9.22z" fill="#efede7"/><path d="m99.5616 320.221v.05c-.65 1.59-1.31 3.18-1.97 4.78l-.33 1.04c-1.11-.36-2.26-.75-3.41-1.17l.04-.1c.28-2.62 3.04-4.21 5.67-4.6z" fill="#ffd127"/><path d="m100.67 327.07c-.65 3-3.2605 4.99-4.6705 7.71l.11.44c-.85.21-1.7.4-2.56.56-4.7.9-9.53 1.14-14.23 1.91l-.04-.21s-.42-1.35-1.51-2.96l.62-.09c.49-.54 1.34-1.79 2.31-3.3 2.08-3.25 4.7-7.74 5.5-9.12.65.26 1.33.53 2.05.81 1.75.68 3.68 1.42 5.6 2.1 1.15.42 2.3.81 3.41 1.17 1.19.38 2.34.71 3.4105.98z" fill="#f5ccc0"/><path d="m96.7283 307.54c-.6.84-1.17 1.71-1.67 2.61l-.44-.25c-1.34-.37-3.87.87-4.63 2.03-2.82 4.33-.89 7.15-1.55 10.41l-.19.48c-.72-.28-1.4-.55-2.05-.81-.8 1.38-3.42 5.87-5.5 9.12l-.24-.16c-.39-1.74-.97-3.18-1.97-4.54 3.71-.66 5.47-7.03.34-11.5 8.99-8.46.9-11.76.9-11.76s4.11-1.32 4.07-5.65l.94-.03c0 .42.04.83.12 1.24.27 1.37 1.18 2.7 2.53 3.08s2.93-.42 3.9-1.71c-.64 1.22-1.49 2.97-1.03 4.44.47 1.47 2.41 3.21 5.94 2.62z" fill="#63bfef"/><path d="m97.0383 438.67c-1.08.22-2.45.53-3.97.88-1.27.3-2.64.62-4.03.95-2.83.67-5.76 1.37-8.09 1.89-.78.18-1.5.33-2.12.46-1.98-6.93-3.47-14.27-5.33-21.52-2.56-10.05-5.82-19.94-12.05-28.32l-.21-.02c.3-3.92.55-7.85.85-11.78l-.06-.62c3.89-.38 7.88-.71 11.99-1.17.69-.08 1.62-.19 2.63-.32l.1.73c4.28 7.74 8 15.8 11.1 24.1 4.2 11.23 7.3 22.89 9.19 34.74z" fill="#f5ccc0"/><path d="m88.1916 130.831s0 .02.01.04c-.34 1.45-1.24 2.34-2.73 2.5-1.66.17-3.36-.96-3.84-2.56-.39 1.63-1.99 2.88-3.67 2.88s-3.26-1.26-3.65-2.89c-.65 1.5-2.25 2.53-3.89 2.52-1.63-.02-2.5-.22-3.12-1.74-.66 1.54-2.38 2.56-4.05 2.41-.52-.05-1.03-.21-1.49-.46-1.01-.55-1.81-1.52-2.06-2.64-.61 1.98-2.39 2.44-4.46 2.31-2.06-.12-3.19-3.17-3.19-3.17-.32 1.05-1.01 1.96-1.9 2.59-.66.47-1.42.78-2.23.88-1.89.23-3.87-.75-4.84-2.39-2.7 2.6-7.49 2.59-10.17-.03-1.86 2.78-6.58 2.91-8.58.23-.83.54-1.7 1.1-2.68 1.22s-2.1-.34-2.42-1.27c-.14-.4-.11-.84-.04-1.26.45-2.37 2.79-4.22 5.2-4.13-.26-3.23 2.6-6.38 5.84-6.43-.17-4 3.68-7.69 7.68-7.36.35-3.27 3.56-5.97 6.84-5.76.08-2.84 2-4.87 4.84-5-1.28-1.6804-.27-3.3004 1.35-3.9704 1.37-.58 3.18-.47 4.39.86 0 0 2.14-2.53 4.78-1.98.49.11 1.07.19 1.56.5.77.48 1.33 1.49 1.04 3.9504 2.33-.9004 3.87-.37 4.61.69 1.24 1.77.02 4.14-1.14 5.97 1.65-1.61 4.62-2.09 6.14-.35 1.51 1.73 1.82 4.23 1.58 6.52 1-2 4.16-2.04 5.75-.46 1.59 1.59 1.85 4.1 1.44 6.31 1.9-1.18 4.64-.73 6.05 1s1.69 3.53.16 5.14c0 0 2.84-1.47 5.1 1.13 1.26 1.46 2 3.23.59 4.56-1.28 1.21-3.75 1.05-4.79-.32.01-.02-.01-.04-.01-.04z" fill="#b6efa3"/><path d="m87.4911 449.329c1.26.71 2.47 3.05 1.86 5.22-.6 2.18-2.73 3.66-4.75 3.31-.54-.09-1.07-.3-1.51-.66-.96-.77-1.42-2.18-1.33-3.5.1-1.31.7-2.52 1.48-3.49 1.09-1.34 3.23-1.56 4.25-.88z" fill="#efede7"/><path d="m87.0789 58.0396c.68 5.02-3.34 7.32-4.92 7.38 1.51 2.43 2.16 6.35.84 8.89-1.32 2.55-4.04 4.32-6.9 4.49.89 2.41.19 5.34-1.7 7.09-1.9 1.74-4.87 2.2-7.2 1.12-.66 2.36-2.77 4.26-5.19 4.66h-.02c-2.43.38-5.04-.76-6.4-2.81-1.07 1.63-3.03 2.6-4.96 2.54-.3 0-.61-.03-.9-.09-2.21-.44-4.06-2.31-4.48-4.51-1.7 1.29-4.21 1.42-6.04.31s-2.87-3.39-2.51-5.5c-2.1.82-4.73-.74-5.35-2.9-.72-2.52.96-5.37.96-5.37s-2-.31-3.48-1.18c-2.42-1.43-3.19-3.27-3.62-6.3-.44-3.08 1.06-6.35 3.67-8.03-1.4-2.04-1.66-4.8-.66-7.06.99-2.26 3.2-3.94 5.64-4.28-1.05-2.29-.43-5.22 1.44-6.89 1.88-1.67 4.86-1.94 7.01-.64.63-2.29 2.02-4.51 4.19-5.5 2.17-.98 5.13-.33 6.21 1.8.54-2.29 2.72-4.07 5.07-4.15 2.34-.07 4.64 1.57 5.32 3.81 1.05-2.86 5.48-2.94 7.67-.8 2.18 2.13 2.69 5.41 3.04 8.44 1.82-2.48 6.1-1.68 7.81.87 1.71 2.54 1.43 5.95.51 8.88 1.7.03 4.27.83 4.95 5.73z" fill="#b6efa3"/><path d="m86.1383 158.33.15.06c-.43 1-.59 2.11-.42 3.18-2.35-.87-5.16-.34-7.01 1.34-1.86 1.67-2.68 4.41-2.05 6.84-2.44-.3-5 .79-6.49 2.75-1.49 1.95-1.85 4.71-.92 6.98-2 .26-4.33 1.84-5.01 3.74-.68 1.89-.21 4.15 1.16 5.62-2.5.19-4.85 1.78-5.96 4.04-1.11 2.25-.93 5.09.45 7.19-1.46.29-2.79 1.12-3.74 2.25l-.21-.17c-1.95.36-3.39-2.37-3.39-2.37-.23 1.26-1.84 2.27-3.36 2.7-.5.14-.99.22-1.42.22-1.71.01-3.87-.93-4.77-2.43-.99 1.93-2.32 3.14-4.41 3.09-2.1-.04-4.09-1.13-4.5-3.18-.82 1.62-2.34 3.08-4.15 3.06-1.82-.01-3.45-2.2-2.45-3.71-.6 1.16-2.43 1.22-3.35.29-.93-.93-1.01-2.45-.55-3.67.46-1.23 1.97-2.43 2.87-3.38-1.59-1.39-2.7-3.21-2.41-4.77.29-1.55 1.41-2.83 2.7-3.75-1.9-.86-3.23-2.86-3.28-4.95-.05-2.08 1.18-4.14 3.03-5.09-1.9-.89-3.08-3.12-2.74-5.19.35-2.08 1.59-4.55 3.69-4.77-1.91.13-2.48-.94-2.75-2.84-.28-1.89 1.09-3.88 2.95-4.3-1.79-.42-3.25-2-3.53-3.82-.27-1.82.66-3.77 2.25-4.69-1.57.39-2.75-1.38-2.83-3-.14-2.72 1.41-3.83 2.95-4.32 1.84-.6 4.21.62 5.91 1.54.59-2.04 2.65-3.55 4.78-3.5 2.12.05 4.11 1.66 4.61 3.72 1.34-1.86 3.55-3.07 5.85-3.2.79-.04 1.59.04 2.36.25 1.45.38 2.8 1.17 3.81 2.28 1.99-1.95 5.03-2.58 7.72-1.9 1.47.34 2.84 1.09 3.86 2.22 2.69-3.21 8.41-3.08 10.95.25 1.01-1.24 2.52-2.13 4.12-2.15 1.61-.01 3.24.96 3.76 2.47.53 1.51-.36 4.44-1.9 4.88 1.3 0 2.82 1.03 2.83 2.33.02 2.32-1.39 3.91-2.21 4.3 2 .57 3.22 1.91 3.05 3.56z" fill="#b6efa3"/><path d="m83.8008 297.519c.04 4.33-4.07 5.65-4.07 5.65s8.09 3.3-.9 11.76c5.13 4.47 3.37 10.84-.34 11.5 1 1.36 1.58 2.8 1.97 4.54l.24.16c-.97 1.51-1.82 2.76-2.31 3.3l-.62.09c-.86-1.25-2.13-2.67-3.93-3.72l-.29.11c-.13-.17-.27-.33-.43-.49l.88-.06c.12-.08.25-.17.3-.3.05-.14 0-.29-.03-.43-.85-2.71-2.64-5.11-4.99-6.69l-.45-.19c1.52-3.46 1.77-7.36.49-11.03l-.14-.07c.61-1.14.98-2.4 1.1-3.67.18-1.86-.19-3.72-.67-5.53-.6-2.21-1.47-4.53-3.34-5.85-1.85-1.31-4.26-1.39-6.53-1.42-.8-.01-1.62-.02-2.45 0v-.58c2.73-8.71.12-19.93-4.29-27.93-.77 4.98-3.45 11.5-5.29 16.18-1.67 4.29-4.18 10.57-3.03 15.13-2.46-6.19-9.9-9.86-18.62-12.48l.27-.9s-2.22-5.39 1.91-7.46c-1.75-1.11-3.97-1.42-4.6-4.12-.59-2.48 1.71-5.69 4.12-6.51-1.86-1.05-4.15-3.2-4.11-5.34s1.32-4.21 3.22-5.2c-2.1-1.1-3.57-3.31-3.78-5.68-.21-2.36 1.67-4.47 3.54-5.92-.74.38-1.58-.3-2.04-1-2.11-3.23-1.05-8.1 2.21-10.17-2.14.25-4.15-1.73-4.3-3.88-.14-2.15 1.46-4.96 3.35-5.99 0 0-4.15-1.35-3.35-4.78.4-1.7 1.8-3.06 3.47-3.58 1.59-.5 4.22 1.56 4.83 3.12.07-1.97 2.18-3.12 4.15-3.24 2.9-.18 5.08 1.23 5.83 3.05 1.54-1.93 2.8-3.38 5.21-3.9 1.01-.22 2.18-.14 3.24.21 1.47.47 2.74 1.45 3.15 2.82-.4 2.49.49 5.16 2.31 6.92-1.87 1.04-3.13 3.09-3.22 5.22-.08 2.13 1 4.27 2.77 5.46-2.05.71-3.58 3.26-2.96 5.34.63 2.07 2.67 3.54 4.82 3.82-1.58 1.32-2.68 3.68-2.24 5.69.44 2.02 2.07 3.72 4.06 4.26-1.61 1.64-2.22 4.19-1.53 6.39.69 2.19 2.66 3.93 4.93 4.35-.53 1.41-1.07 2.87-1.04 4.38.04 1.51.79 3.1 2.19 3.68 1.26.52 2.74.1 3.88-.65-1.71 1.91-2.59 4.76-1.47 7.07s4.45 3.42 6.44 1.81c-1.02 2.47-1.32 5.44.1 7.7s4.97 3.17 6.84 1.27c-.25 1.19-.5 2.41-.35 3.62s.77 2.42 1.86 2.97c1.81.9 3.94-.35 5.38-1.76-.22.96-.41 1.94-.41 2.92zm-14.27.71c.17-.54.2-1.12.1-1.67.02-.88-.4-1.78-1.2-2.15-.44.46-.61 1.1-.54 1.72-.03.78.25 1.54.88 2.17.11-.08.21-.16.3-.26.14.09.3.15.46.19z" fill="#b6efa3"/><path d="m80.9214 457.24c.28 2 .53 3.54 1.19 4.87l-.19.1c.07 3.32-1.74 7.14-.12 10.1.41.76 1.07 1.58 2.12 2.28-3.09-1.51-8.62-1.03-11.3.96 1.79-2.33 2.68-7.21 1.53-9.4l-.46-.05c.25-2.6-1.07-5.17-3.98-7.34-.21-.16-.43-.31-.65-.46-2.24-1.51-4.8-2.48-7.37-3.42l.06-.17c-.57-4.39 3.37-5.36 3.37-5.36-1.64-1.59-2.09-4.03-1.68-6.28.4-2.25 1.89-3.53 3.98-4.44-1.62-1.73-1.4-3.63-.76-5.91s2.15-2.97 4.43-3.59c-1.3-3.14-1.77-6.01 1.84-7.66l.57-.14c1.86 7.25 3.35 14.59 5.33 21.52.62-.13 1.34-.28 2.12-.46l.26 1.17c-.31 3.93-.83 9.98-.29 13.68z" fill="#b6efa3"/><path d="m74.2705 329.63c.04.14.08.29.03.43-.05.13-.18.22-.3.3l-.88.06c-1.59-1.68-4.42-2.96-6.64-3.28l.11-.68c.92-1.15 1.67-2.4 2.24-3.71l.45.19c2.35 1.58 4.14 3.98 4.99 6.69z" fill="#f5ccc0"/><path d="m72.6196 475.55c-.28.37-.59.68-.92.9-2.38 1.59-5.37 1.91-8.23 2.12-2.85.21-5.71.34-8.58.38v-.46c-.81-2.52-.61-5.34.54-7.72l.03-.31c1.65.14 3.44.25 5.43.35l.51.03c4.29.21 10.88.49 12.04-3.44.13-.43.21-.87.25-1.3l.46.05c1.15 2.19.26 7.07-1.53 9.4z" fill="#efede7"/><path d="m73.5492 330.911c.39.51.66 1.04.76 1.59-4.96 3.26-13.37 4.42-19.17 5.71-3.47.78-6.93 1.56-10.39 2.33-.45.1-.57-4.19.04-6.18.52-1.72 2.44-3.5 4.04-4.46.19-.12.4-.21.61-.29 1.47-.54 3.34-.27 4.88-.42 2.54-.26 5.06-.73 7.53-1.41 1.14-.31 2.28-.67 3.46-.71.36-.01.75.01 1.17.07 2.22.32 5.05 1.6 6.64 3.28.16.16.3.32.43.49z" fill="#f5ccc0"/><path d="m69.7084 458.761c2.91 2.17 4.23 4.74 3.98 7.34-.04.43-.12.87-.25 1.3-1.16 3.93-7.75 3.65-12.04 3.44l.02-.4c.05-2.15.64-4.27 1.68-6.16 1.19-2.22 2.99-4.12 5.18-5.37l.78-.61c.22.15.44.3.65.46z" fill="#efede7"/><path d="m73.5013 421.33-.57.14c-3.61 1.65-3.1401 4.52-1.8401 7.66-2.28.62-3.7899 1.31-4.4299 3.59s-.8601 4.18.7599 5.91c-2.09.91-3.58 2.19-3.98 4.44-.41 2.25.0401 4.69 1.6801 6.28 0 0-3.94.97-3.37 5.36l-.0601.17c-.29-.11-.5799-.21-.8699-.32-.89-.32-1.77-.65-2.64-1-.62-.25-1.24-.51-1.85-.79-1.45-.65-2.87-1.36-4.27-2.12-1.19-.64-2.3701-1.31-3.5501-1.99-1.04-.6-2.0799-1.22-3.1099-1.84-1.92-1.15-2.83-1.24-3.35-3.71l-.0201-.15c4.16-.66 4.5801-.5 6.3301-3.01 9.7-13.85 11.64-30.19 12.88-46.96l.21.02c6.23 8.38 9.49 18.27 12.05 28.32z" fill="#b6efa3"/><path d="m62.5402 303.711c.1.05.19.1.28.14.09-.24.13-.48.13-.72.06-1.18-.66-2.38-1.64-3.09-.09-.07-.2-.13-.31-.13-.02-.02-.05-.04-.07-.06v.07c-.1.03-.17.11-.22.21-.02.02-.05.04-.07.07-.08.1-.09.23-.1.35-.08.96.42 1.87 1.15 2.54h.01c.07.1.15.19.25.23.01 0 .01.01.02.02h.01c.18.14.37.26.56.37zm6.64 7.94.14.07c1.28 3.67 1.03 7.57-.49 11.03-.57 1.31-1.32 2.56-2.24 3.71l-.11.68c-.42-.06-.81-.08-1.17-.07-1.18.04-2.32.4-3.46.71-2.47.68-4.99 1.15-7.53 1.41-1.54.15-3.41-.12-4.88.42v-.36c-5.37-3.94-10.04-11.87-8.12-20.28-6.48-1.65-11.17-3.92-14.67-9.61-2.08-3.39-4.9-8.61-7.24-15.64 2.26.54 4.49 1.13 6.65 1.78 8.72 2.62 16.16 6.29 18.62 12.48.1.43.24.84.42 1.23-.01-.05-.03-.1-.05-.15l.62-.2c2.92-3 7.33-3.61 11.62-3.68.83-.02 1.65-.01 2.45 0 2.27.03 4.68.11 6.53 1.42 1.87 1.32 2.74 3.64 3.34 5.85.48 1.81.85 3.67.67 5.53-.12 1.27-.49 2.53-1.1 3.67z" fill="#efede7"/><path d="m69.0584 458.301-.78.61c-2.19 1.25-3.99 3.15-5.18 5.37l-.1-.06c-.59-3.64-3.5-5.19-6.35-6.18l.05-.16c.58-1.49 2.52-2.84 4.07-3.19l.05-.13c.29.11.58.21.87.32 2.57.94 5.13 1.91 7.37 3.42z" fill="#efede7"/><path d="m62.9995 464.22.1.06c-1.04 1.89-1.63 4.01-1.68 6.16l-.02.4-.51-.03c-1.99-.1-3.78-.21-5.43-.35-10.39-.85-14.94-2.45-24.77-5.43-2.96-.9-6.77-1.33-7.87-4.01-.08-.19-.15-.39-.2-.6-.44-1.88.5-3.79 1.42-5.5.54-1 1.07-2 1.61-3 1.38-2.56 2.76-5.12 4.13-7.68v-.59c2.2.01 5.35.06 7.8-.08l.02.36c.17 2.84 1.39 5.32 3.26 7.32.74.8 1.59 1.52 2.52 2.16.46.32.94.61 1.44.89 1.32.74 2.76 1.24 4.22 1.66 1.16.33 2.35.61 3.53.89.72.19 1.43.37 2.14.58.62.18 1.28.38 1.94.61 2.85.99 5.76 2.54 6.35 6.18z" fill="#efede7"/><path d="m62.1616 92.4194v4.23l-.49.08c-.49-.31-1.07-.39-1.56-.5-2.64-.55-4.78 1.98-4.78 1.98-1.21-1.33-3.02-1.44-4.39-.86l-.34-.85v-4.42l.03-.68c1.93.06 3.89-.91 4.96-2.54 1.36 2.05 3.97 3.19 6.4 2.81h.02z" fill="#b6efa3"/><path d="m62.0289 380.59.06.62c-.3 3.93-.55 7.86-.85 11.78-1.24 16.77-3.18 33.11-12.88 46.96-1.75 2.51-2.17 2.35-6.33 3.01-.63.1-1.35.22-2.17.37-.62.11-1.41.19-2.28.24-2.45.14-5.6.09-7.8.08-.42 0-.81.01-1.15.01 1.02-13.03 13.77-24.71 13.26-37.78-.26-6.6-2.55-14.64-1.08-21.08l-.1-.29c6.99-2.32 14-3.21 21.32-3.92z" fill="#f5ccc0"/><path d="m61.7584 133.529-.05.28v6.52l-.03.14c-2.69-.68-5.73-.05-7.72 1.9-1.01-1.11-2.36-1.9-3.81-2.28v-7.46c.89-.64 1.58-1.55 1.9-2.6 0 0 1.13 3.05 3.19 3.17 2.07.13 3.85-.33 4.46-2.31.25 1.12 1.05 2.09 2.06 2.64z" fill="#b6efa3"/><path d="m60.8203 454.56-.05.13c-1.55.35-3.49 1.7-4.07 3.19l-.05.16c-.66-.23-1.32-.43-1.94-.61-.71-.21-1.42-.39-2.14-.58l.05-.21c.5-1.39 2.2-2.84 3.53-3.49l.18-.38c.61.28 1.23.54 1.85.79.87.35 1.75.68 2.64 1z" fill="#efede7"/><path d="m52.9983 266.67c4.41 8 7.02 19.22 4.28 27.93v.58c-4.28.07-8.69.68-11.61 3.68l-.62.2c-.1-.37-.23-.73-.37-1.08-1.15-4.56 1.36-10.84 3.03-15.13 1.84-4.68 4.52-11.2 5.29-16.18z" fill="#efede7"/><path d="m56.3291 452.77-.18.38c-1.33.65-3.03 2.1-3.53 3.49l-.05.21c-1.18-.28-2.37-.56-3.53-.89l.25-.94c.51-1.5 1.39-2.88 2.55-3.96l.22-.41c1.4.76 2.82 1.47 4.27 2.12z" fill="#efede7"/><path d="m56.0905 202.149.21.17c-.56.67-1 1.45-1.25 2.29-.68 2.26-.02 4.87 1.66 6.54-2.27 1.11-3.94 3.38-4.33 5.88-.41-1.37-1.68-2.35-3.15-2.82l.92-.08-.05-11.64h-.76c1.52-.44 3.13-1.45 3.36-2.71 0 0 1.44 2.73 3.39 2.37z" fill="#b6efa3"/><path d="m55.4618 470.46-.03.31c-1.15 2.38-1.35 5.2-.55 7.72v.46c-9.63.15-19.29-.8-28.38-3.93-1.4-.49-2.84-1.06-3.8-2.19-2.52-2.97-.13-7.88.06-11.78l.06-.03c1.1 2.68 4.91 3.11 7.87 4.01 9.83 2.98 14.38 4.58 24.77 5.43z" fill="#efede7"/><path d="m52.0589 450.65-.22.41c-1.16 1.08-2.04 2.46-2.55 3.96l-.25.94c-1.46-.42-2.9-.92-4.22-1.66-.5-.28-.98-.57-1.44-.89l1.67-.22c.78-1.63 1.9-3.06 3.25-4.12l.21-.41c1.18.68 2.36 1.35 3.55 1.99z" fill="#efede7"/><path d="m49.4281 329.249v.36c-.2.08-.41.17-.6.29-1.6.96-3.52 2.74-4.04 4.46-.61 1.99-.49 6.28-.04 6.18-10.75 17.54-13.54 26.29-10.83 46.68 2.27-1.08 4.53-1.97 6.79-2.71l.1.29c-1.47 6.44.82 14.48 1.08 21.08.51 13.07-12.24 24.75-13.26 37.78.34 0 .73-.01 1.15-.01v.59c-1.37 2.56-2.75 5.12-4.13 7.68l-.27-.15c-1.92-1.92-3.46-4.45-3-9.01.24-2.4 2.76-5.52 2.76-5.52-1.32-.48-4.8-7.09.72-10.21-3.45-3.87-4.32-10.21.5-13.35-1.55-2.18-2.81-4.65-3.05-7.32-.23-2.67.74-5.54 2.92-7.09-2.3-1.39-3.88-3.91-4.13-6.58s.83-5.44 2.83-7.23c-2.12-1.06-3.07-3.71-2.81-6.06.25-2.36 2.41-4.66 3.66-6.67-2.25-2.82-3.18-6.65-2.48-10.18.34-1.72 1.59-3.7 3.32-3.37-2.51-1.26-4.25-3.93-4.39-6.73-.15-2.8 1.31-5.63 3.67-7.14-2.38-1.16-4.04-3.68-4.15-6.33-.12-2.64 1.3-5.3 3.57-6.66-2.33-1.14-3.93-3.66-3.97-6.27-.04-2.6 2.37-5.46 4.68-6.67 0 0-3.43-2.57-3.66-5.43-.24-2.85 1.34-4.57 4.12-5.23-4.21-3.19-3.81-5.89.16-9.36 3.5 5.69 8.19 7.96 14.67 9.61-1.92 8.41 2.75 16.34 8.11 20.28z" fill="#b6efa3"/><path d="m48.5094 448.66-.21.41c-1.35 1.06-2.47 2.49-3.25 4.12l-1.67.22c-.93-.64-1.78-1.36-2.52-2.16l.92-.2c.36-1.24 1.48-3.25 3.62-4.23 1.03.62 2.07 1.24 3.11 1.84z" fill="#efede7"/><path d="m42.0481 443.111c.52 2.47 1.43 2.56 3.35 3.71-2.14.98-3.26 2.99-3.62 4.23l-.92.2c-1.87-2-3.09-4.48-3.26-7.32l-.02-.36c.87-.05 1.66-.13 2.28-.24.82-.15 1.54-.27 2.17-.37z" fill="#efede7"/><g stroke="#1e1b1e" stroke-linecap="round" stroke-linejoin="round" stroke-width="2"><path d="m226.95 460.58c-.43 2.55-1.07 5-.71 7.56.13.92.41 1.91 1.18 2.45.76.53 2.09.26 2.25-.66.13 1.73.35 3.55 1.04 5.12.31.71.73 1.36 1.27 1.93 1.75 1.83 5.34 1.99 6.46-.27.26 1.51 1.63 2.76 3.15 2.88 1.53.13 3.08-.88 3.57-2.33.49 1.65 2.81 2.1 4.32 1.27s2.08-1.53 2.86-3.07c1.37 2.62 3.55 1.97 4.95.93.4-.3.74-.63.98-.93 1.54-1.93.61-4.12.8-5.8.74.69 2 .51 2.79-.13.79-.63 1.23-1.59 1.64-2.52.55-1.22 1.09-2.45 1.64-3.67.04-.08.07-.17.11-.25.54-1.22 1.06-2.45 1.26-3.76.39-2.49-.42-5.01-1.4-7.34-1.1-2.61-2.42-5.08-3.91-7.46-3.2-5.17-7.14-9.89-11.2-14.54-4.09-4.69-8.3-9.31-12.01-14.27-.51-.68-1.02-1.37-1.51-2.07-3.32-4.71-5.16-10.03-10.64-11.82"/><path d="m226.949 460.581s.04-.07.02-.12c-.01.04-.01.08-.02.12z"/><path d="m228.81 447.301s-.1-.1-.16-.14c-4.46-3.25-4.62 8.01-3.44 12.28.34 1.24.68 1.1.94 1.26 0 0 .66.03.8-.12"/><path d="m228.81 447.301c-.09.48-.13.93-.13 1.34.42-.29.46-.96.13-1.34z"/><path d="m233.74 446.71c.61-1.79 1.25-3.59 0-4.48-2.37-1.6-4.41 2.13-4.92 5.07"/><path d="m233.728 446.75c-.07.14-.12.3-.15.45z"/><path d="m233.73 446.751s0-.03 0-.04"/><path d="m234.378 453.79c2.03-3.08 4.11-8.43 2.17-8.71-1.16-.13-2.33.59-2.81 1.63"/><path d="m234.379 453.789c-.48.16-.85.54-.76 1.05.25-.3.5-.66.76-1.05z"/><path d="m235.029 463.159c.89-2 1.41-4.16 1.55-6.35.07-1.01 0-2.16-.78-2.83-.38-.33-.96-.36-1.42-.19"/><path d="m235.022 463.17c-.12.17-.21.36-.26.59.09-.2.19-.39.26-.59z"/><path d="m235.02 463.17.01-.01"/><path d="m261.551 459.83c-7.46-2.29-11.4 4.28-12.95 8.96.7-1.74-3.19-4.01-5.02-3.59-1.83.43-3.07 2.07-4.15 3.61.32-1.78.61-3.77-.41-5.26-.88-1.3-3.16-1.52-3.99-.39"/><path d="m236.909 436.329c-2.17-3.07-5.4-6.23-9.09-5.54-4.02.76-5.76 5.5-6.4 9.54-1.42 8.77-1.73 17.66.11 26.35-5.15 1.27-9.59 3.36-14.23 5.92-1.26.69-2.63 1.63-2.81 3.06-.09.79.51 1.54 1.2 1.85.56.26 1.17.22 1.52-.33-.47.93-.01 2.21.95 2.62s2.2-.15 2.54-1.13c.02 1.16 1.16 2.06 2.32 2.23 1.15.16 2.31-.23 3.41-.61 4.53-1.56 9.06-3.12 13.58-4.69"/><path d="m208.952 430.109c-2.21 6.64.51 12.37-.19 19.32-.69 6.96-2.48 14.27-7.56 19.08-1.23 1.16-2.62 2.15-3.7 3.45s-1.83 3.02-1.44 4.67c.07.02.15.03.23.04.91.16 1.9-.11 2.59-.73-.73.77-.48 2.23.46 2.72s2.28-.13 2.5-1.17c.44 1.36 2.57 1.74 3.46.61"/><path d="m188.881 475.721c-.51.85-.25 2.13.62 2.65.96.58 2.4.05 2.76-1.01.42 1.69 3.36 1.78 3.88.12"/><path d="m196.732 423.15c-.81 6.19 3.67 7.41 3.52 13.18v.09c-.04 1.87.15 3.98.17 6 .02 1.14-.02 2.25-.18 3.28-.65 4.26-1.75 8.76-4.75 13.92-2.33 4.03-8.41 10.95-9.58 15.45 0 .01-.01.03-.01.04-.11.38-.33.91-.02 1.15 1.25.97 2.2.38 3-.54 0 0-.01-.01 0-.01.07-.09.13-.18.21-.26"/><path d="m201.148 383.12.03-.09c.54-1.64 1.2-3.28 1.98-4.86 2.61-5.27 6.61-9.84 12.2-11.08 4.59-1.01 9.57.54 13.04 3.7.51.47.99.96 1.43 1.49 2.59 3.03 4.08 6.98 4.36 10.97.5 7.03-2.94 14.1-8.48 18.4-1.68 1.31-3.57 2.36-5.59 3.08"/><path d="m201.159 383.01.02.02c2.77 2.99 1.65 5.57.73 8.31 1.69 1.92 3.23 4.1 3.74 6.61s-.21 5.41-2.29 6.89c.61 2.28 1.22 4.65.84 6.97-.38 2.33-2.03 4.63-4.37 4.96.18 2.46-1.12 4.91-3.1 6.38-1.23.92-2.84 1.5-4.31 1.07-1.47-.44-2.56-2.19-1.9-3.58-.85.72-1.72 1.46-2.78 1.82-1.05.37-2.33.28-3.12-.5-.39-.38-.62-.88-.81-1.38-.97-2.61-.82-5.61.41-8.11-1.92-.66-2.06-3.33-1.53-5.29.98-3.59 3.65-5.47 6.42-7.96-.88.11-2.06-1.93-1.6-3.44.3-.99.69-1.95 1.19-2.86.91-1.71 2.18-3.2 3.82-4.22.38-.24.79-.46 1.08-.8.17-.19.29-.41.4-.63.08-.17.15-.34.23-.51 1.5-3.35 2.19-7.46 8.76-8.67"/><path d="m229.871 372.24c4.67 2.23 7.97 6.75 8.45 11.7.13 1.34.05 2.71-.26 4.08 2.34.21 4.24 2.29 4.69 4.6.19.98.16 1.99-.06 2.97-.27 1.31-.86 2.58-1.63 3.68 1.6.89 2.69 2.64 2.76 4.48.08 1.83-.86 3.67-2.38 4.68 1.01 1.3 1.22 3.17.52 4.66-.69 1.49-2.27 2.53-3.91 2.58"/><path d="m213.481 378.43c-.38 1.59-.83 3.3-2.11 4.32-1.59 1.26-4.22.84-5.34-.84"/><path d="m219.391 372.34c.94 1.29 2.69 1.93 4.24 1.56 1.56-.37 2.83-1.73 3.09-3.31"/><path d="m220.969 379.769c.01.2.09.39.25.51.38.28 1.05-.17.82-.58"/><path d="m220.971 379.77c-.08.11-.14.22-.2.34-.08.18-.15.39-.05.56.14.26.51.23.78.12.82-.34 1.44-1.14 1.55-2.02 0-.11.02-.23-.04-.32-.12-.18-.39-.13-.6-.06-.44.14-.9.3-1.21.65-.17.2-.26.48-.23.73z"/><path d="m222.769 379.009c.25-.12-.17-.4-.43-.31-.56.2-1.04.58-1.37 1.07"/><path d="m214.91 392.101c1.39 1.53 3.94 1.82 5.65.65s2.35-3.66 1.42-5.5c.42 1.13 1.86 1.66 3.02 1.31s2.01-1.39 2.43-2.52c.43-1.13.49-2.37.52-3.57"/><path d="m122.58 132.54c-.34-.02-.68-.03-1.02-.02-3.22.08-6.36 1.63-8.49 4.04-2.26 2.56-3.4 6.02-3.35 9.44 0 .15 0 .29.01.44.03.73.13 1.49.51 2.11s1.31 1.48 2.42.62"/><path d="m113.719 140.48c-.85 2.03-1.22 4.25-1.05 6.45.03.5.1 1 .32 1.46.13.28.33.54.59.72.15.11.32.19.5.23.84.19 2.31-.98 2.87-1.62"/><path d="m117.701 139.389c-.66 2.55-.85 5.23-.54 7.84.02.14.04.29.07.43.04.18.1.36.2.51.6.9 2.05.49 2.81-.27 2.65-2.63 1.79-7.21 3.72-10.4.68.56 3.63 2.77 4.51 2.91s1.92-.35 2.05-1.23c0-.03.01-.06 0-.08.04-.32-.05-.65-.15-.95-.44-1.38-2.4-3.09-3.59-3.92-1.04-.72-2.82-1.45-4.2-1.69"/><path d="m160.77 132.28c2.83-.97 6.13.12 8.14 2.33 1.5 1.65 2.34 3.8 2.56 6.03.08.76.09 1.53.03 2.29-.06.71-.14 1.49-.65 1.99-.77.75-1.67.51-2.21.05"/><path d="m167.44 138.279c.43 1.01.95 3.73.93 4.84-.02.59-.04 1.23-.26 1.77-.07.18-.16.35-.29.51-1.07 1.34-2.8.74-3.75-.08"/><path d="m163.669 137.131c.43 2.22.48 4.5.15 6.73-.08.54-.22 1.14-.66 1.45-.68.48-1.65.03-2.18-.61-.71-.84-1-1.95-1.15-3.04-.18-1.26-.38-2.97-.22-4.23"/><path d="m159.609 137.429c-2.09.62-3.64 1.98-5.83 1.91-1.2-.03-1.93-.69-2.3-1.18-.44-.57-.09-1.44.5-1.86.22-.15.46-.26.72-.35.42-.15.87-.24 1.3-.37 1.92-.59 3.47-2.06 5.29-2.85.36-.15.72-.28 1.1-.37"/><path d="m122 114.74c.15-4.79.34-10.55 2.31-15.1096.61 3.3696 1.27 6.5196 3.3 9.2796.41.55.87 1.08 1.43 1.48 1.67 1.18 3.87 1.14 5.9 1.35 2.03.22 4.32.99 5.01 2.91.01-1.11.99-1.97 1.96-2.51 1.61-.91 3.44-1.43 5.29-1.49 1.76-.07 3.58.27 5.26-.25 1.22-.37 2.27-1.15 3.22-2.01 3.78-3.42 4.63-5.73 6.34-10.7396"/><path d="m161.031 114.84c.42-4.78.8-13.15.99-17.1896"/><path d="m159.211 132.539c1.62-3.47 1.66-7.04 1.47-10.01"/><path d="m155.429 123.979c-3.67-.63-7.63 1.32-9.37 4.61"/><path d="m137.71 129.63c-2.57-2.91-6.73-4.3-10.53-3.53"/><path d="m149.951 125.169c-.65 1.3-.67 2.89-.05 4.2.13-.2.25-.4.36-.62.51-1.01.7-2.19.53-3.32-.03-.25-.09-.49-.16-.73-.74 1.05-.92 2.45-.52 3.66.01.04.02.07.04.11.03.1.06.19.11.28.05.12.11.24.17.35 1-1.11 1.3-2.8.75-4.19-.14.16-.27.34-.39.52 0 .01-.01.02-.01.03-.54.86-.78 1.9-.67 2.9.01.05.01.09.02.14.01-.01.01-.02.02-.03.52-.9.74-1.97.63-3.01-.01-.04-.01-.09-.02-.13"/><path d="m132.73 129.76c.02.24.07.48.15.71.04.11.1.23.18.32.04.05.09.09.14.13.04.02.09.04.15.05.04 0 .09-.01.13-.02s.08-.04.11-.07c.1-.09.15-.24.19-.37.24-.85.29-1.76.15-2.63-.02-.08-.04-.18-.12-.21-.08-.04-.18.09-.1.13"/><path d="m133.83 129.45c0-.64-.16-1.28-.43-1.85 0 0-.02.03-.03.04-.47.58-.69 1.34-.64 2.08"/><path d="m132.898 130.97c.06.17.18.37.36.36.15-.01.24-.18.29-.32.02-.04.03-.08.04-.13.17-.44.24-.92.24-1.39"/><path d="m132.659 129.07c-.04.51 0 1.03.13 1.53"/><path d="m133.002 127.28c-.44 1.04-.51 2.24-.21 3.32.03.12.07.25.11.37.06-.06.11-.12.16-.18.01-.02.03-.03.04-.05.34-.46.48-1.06.48-1.64 0-.5-.09-.98-.21-1.46-.03-.13-.07-.26-.1-.39-.01-.05-.03-.1-.04-.15-.36.53-.55 1.17-.56 1.82v.15c0 .22.02.43.07.65v.04c.07.34.19.68.37.98.03.06.06.12.1.18.03.05.06.1.1.15.02-.03.04-.07.05-.1.27-.46.42-.96.48-1.48v-.04c.07-.67-.03-1.35-.3-1.97-.06-.11-.15-.24-.26-.23-.01.01-.02.01-.03.01-.07.02-.11.09-.14.16-.23.47-.37.98-.43 1.5"/><path d="m153.809 118.33c-1.97.2-3.91.73-5.7 1.57 1.6-.86 3.26-1.61 4.96-2.25-2.14.06-4.26.49-6.26 1.25"/><path d="m135.478 122c-2.06-.96-4.25-1.66-6.49-2.05 1.58-.05 3.17.26 4.61.91.41.18.91.39 1.28.14-1.58-.89-3.29-1.57-5.05-2.01"/><path d="m127.271 95.5909c-.39 1.91-2.25 3.15-4.16 2.76s-3.14-2.25-2.75-4.15c.38-1.91 2.24-3.15 4.15-2.76s3.14 2.25 2.76 4.15z"/><path d="m165.861 94.3096c-.39 1.91-2.25 3.14-4.15 2.76-1.91-.39-3.15-2.25-2.76-4.16.39-1.9 2.25-3.14 4.15-2.75 1.91.38 3.15 2.24 2.76 4.15z"/><path d="m258.359 476.469c1.23.58 2.62 1.18 3.9.72.87-.31 1.52-1.07 1.86-1.93.33-.86.37-1.81.3-2.72 1.36-1.08 2.27-2.72 2.47-4.45s-.31-3.53-1.4-4.89"/><path d="m161.03 114.84c-.35 3.02 3.28 5.36 7.27 6.04 3.29.56 6.67.46 10.26 2.17 3.02 1.43 5.71 3.31 7.32 6.23-1.77-1.04-3.93-1.4-5.94-1 2.09 1.83 3.32 4.61 3.24 7.39-3.95-3.65-8.64-6.5-13.7-8.34-3.22-1.18-7.42-2.04-8.8-4.8"/><path d="m122 114.74s0 .03-.01.05c-.3 3.41-5.44 4.92-9.09 6.92-4.15 2.26-7.87 5.29-10.92 8.89 1.64-.75 3.41-1.19 5.21-1.29-1.3 2.02-2.46 4.12-3.46 6.3 2.8-2.48 6.46-3.72 9.82-5.37 3.37-1.64 7.32-5 8.49-8.56"/><path d="m122.158 121.689c-.92 3.42-1.13 7.03-.61 10.53"/><path d="m261.359 444.431c1.25-.04 3.43-1.04 3.99-3.61.64-2.96-1.14-4.17-2.16-5.32 1.39-.89 2.72-2.02 3.36-3.54.64-1.53.42-3.52-.88-4.54 1.75-.7 3.09-2.35 3.43-4.21.33-1.86-.35-3.87-1.75-5.14 1.47-1.24 2.76-2.43 2.79-4.36.02-.8-.9-2.92-1.88-3.31 1.83-2.4 1.84-5.4-.31-7.52 5.7-4.29 1.06-7.99 1.08-8.31.02-.26 4.75-5.07-.99-8.67.82-1.46 1.21-3.21.78-4.82-.44-1.62-1.82-3.02-3.48-3.19.72-1.36.76-3.06.09-4.44-.66-1.39-1.79-2.4-3.3-2.68.94-.93 1.35-2.36 1.05-3.64-.31-1.29-1.32-2.38-2.58-2.79.93-1.78 1.63-3.82 1.22-5.8-.41-1.97-2.26-3.75-4.25-3.48 1.24-.99 1.77-2.8 1.24-4.3-.52-1.5-2.06-2.59-3.65-2.59 1.3-1.22 1.79-3.22 1.2-4.9s-2.23-2.94-4.01-3.07c.59-1.56 1.19-3.22.91-4.86-.29-1.65-1.84-3.19-3.47-2.84.87-1.01 1.2-2.47.84-3.76-.35-1.29-1.22-2.47-2.49-2.9 1.66-2.53.58-6.4-2.14-7.72 1.34-.75 2.25-2.22 2.32-3.76.07-1.53-.71-3.08-1.98-3.94 1.51-1.03 2.46-2.83 2.48-4.65 0-1.83-.92-3.64-2.42-4.69 1.24-.26 2.37-1.01 3.08-2.06.35-.53.61-1.17.5-1.8s-.7-1.19-1.33-1.11c1.29-.76 2.49-1.78 3.12-3.14s.68-2.85-.32-3.97c1.32-.17 2.53-1.01 3.15-2.18.63-1.17.66-2.64.07-3.83 1.18.12 2.32-.68 2.84-1.74.53-1.06.52-2.32.25-3.47 1.34-.23 2.68-.79 3.53-1.85.84-1.07 1.03-2.71.18-3.77 1.47-.09 2.87-.96 3.6-2.24.72-1.28.75-2.94.07-4.24 2.27-1.14 3.4-4.42 2.02-6.55 1.26-.49 2.21-1.7 2.4-3.04.18-1.34-.41-2.75-1.49-3.57 1.16-1 1.81-2.55 1.72-4.08-.1-1.53-.94-2.99-2.21-3.84.98-.95 1.44-2.42 1.18-3.76-.27-1.35-1.25-2.53-2.53-3.04 1.39-2.21.45-5.59-1.9-6.75 1.28-2.09.18-5.23-2.13-6.07.82-2.53-1.1-5.56-3.74-5.9.09-1.29.02-2.67-.67-3.77-.69-1.11-2.15-1.82-3.34-1.29.55-.9.58-2.1.07-3.03-.5-.92-1.42-1.6-2.48-1.63.21-1.17-.01-2.41-.61-3.44-.3-.53-2.64-1.29-2.95-.76.69-.87.8-2.17.25-3.14-.54-.98-1.71-1.56-2.82-1.43.32-1.24.63-2.54.31-3.77-.31-1.24-1.49-2.36-2.75-2.15.92-.99 1.32-2.43 1.04-3.75s-1.04-2.41-2.28-2.95c1.32-.73 2.28-2.09 2.54-3.58.27-1.49-.18-3.09-1.17-4.23 1.39-.31 2.58-1.37 3.06-2.71s.23-2.92-.64-4.04c1.37-.56 2.77-1.24 3.63-2.45s.96-3.08-.15-4.06c1.7-.23 3.26-1.36 4-2.91s.88-3.33-.01-4.8c1.26-.84 2.56-1.71 3.36-3 .79-1.29.94-3.11-.07-4.23 1.68-.98 2.87-2.76 3.14-4.68.17-1.19-.15-2.63-1.25-3.11 1.32-.69 2.23-2.1 2.31-3.58s-.66-2.98-1.9-3.81c-.27-.18-.59-.39-.61-.71-.02-.21.1-.4.2-.58.67-1.22.69-2.78.06-4.02-.63-1.25-1.9-2.15-3.28-2.33.49-1.37.84-2.93.27-4.27-.57-1.35-2.42-2.2-3.57-1.3.5-1.44.18-3.13-.81-4.29-.98-1.16-2.58-1.96-4.08-1.71.34-1.47.29-3.11-.56-4.35-.85-1.25-2.67-1.88-3.94-1.08.59-1.83-.27-4.03-1.94-4.99-.72-.41-1.63-.6-2.39-.26.85-1.01 1.19-2.41.9-3.69s-.99-2.51-2.19-3.06c3.02-1.4705 4.51-5.4705 3.17-8.5505-.08-.2-.18-.4-.17-.62.02-.4.37-.68.68-.93 2.7-2.24 3.23-6.66 1.14-9.47 2.53-2.33 2.86-6.67.71-9.36-.32-.41-.71-.82-.81-1.33-.06-.36.03-.72.09-1.08.54-3.16-1.02-6.59-3.76-8.25.81-2.97-.66-6.4-3.37-7.84.7-3.34-.3-6.99-2.6-9.51 1.22-2.37 1.3-5.29.22-7.72.77-.75 1.5-1.61 1.76-2.65.27-1.04.03-2.29-.92-2.8-1.75-.68-5.04 2.21-5.33 4.74-.1.9.11 2.76.23 2.81 0 0-1.77 1.45-2.42 2.15-1.43 1.55-2 3.86-1.45 5.9-3.22 2.48-4.51 7.16-3.03 10.93-2.56 2.18-2.71 6.61-.3 8.96-1.35 2.47-1.04 6.35 1.31 7.9-1.96 3.12-1.53 7.54.99 10.23-2.91 1.67-4.31 5.54-3.23 8.71.05.17.12.34.19.51-3.97 1.09-6.34 6.07-4.67 9.8405-2.09-.1-3.65 1.65-4.23 3.85-.53 2.02.53 4.16 1.78 5.82-2.3 2.87-1.97 6.03.79 8.46-.88.72-1.34 2.05-.95 3.13.38 1.07 1.48 1.84 2.62 1.83-.83 1.89.65 4.39 2.71 4.56-.76.78-.69 2.11-.09 3.03.59.92 1.58 1.5 2.56 1.97-1.31 2.05-.2 5.2 2.1 5.99-.8.13-1.27.98-1.43 1.77-.32 1.61.2 3.35 1.35 4.51-2.04 1.62-3.02 4.69-1.84 7.01-1.39.18-2.67 1.03-3.39 2.24-.71 1.2-.83 2.73-.33 4.04-1.25-.33-3.26.58-4.01 1.65-.74 1.06-1.23 2.73-.53 5.11"/><path d="m161.649 114.841c5.65 3.55 8.14-3.32 8.14-3.32 5.37 2.32 5.72-3.58 5.72-3.58 5.73 1.61 5.31-4.75 5.31-4.75 4.92-1.96 3.75-6.0902 2.11-7.7302 1.95-.35 2.94-1.36 3.99-3.12 1.04-1.76.38-4.62-1.56-5.03 1.84-.3 3.42-1.94 3.71-3.86.28-1.93-.75-3.99-2.42-4.85 7.52-6.39.93-9.49-.65-9.38.89-1.15 1.63-2.13 1.98-3.56.34-1.43-.14-3.24-1.02-4.4-.87-1.15-2.14-2.12-3.38-1.41 1.21-1.64 2.08-3.25 1.38-5.19-.65-1.78-3.08-2.51-4.53-1.35 1.07-1.91.28-4.55-.82-6.45-1.1-1.89-3.8-2.74-5.48-1.39 1.09-2.12.85-5.01-.84-6.65s-4.76-1.53-6.1.43c.46-1.79-.15-3.94-1.69-4.86-1.54-.93-3.88-.17-4.35 1.62.34-1.45-1.53-3.15-2.89-3.62-1.36-.48-3 .3-3.56 1.67.4-1.57-.8-3.3-2.33-3.58s-2.86.85-3.51 2.32c-1.33-2.32-4.03-3.71-6.61-3.39s-4.89 2.34-5.66 4.93c-1.77-1.31-4.16-1.64-6.2-.87-2.04.78-3.67 2.64-4.22 4.83-4.06-.95-8.49 2.8-8.43 7.15-4.47-.54-9.27 3.88-6.89 9.93-4.61-.62-7.2 5.25-5.34 8.7-1.84 1.22-3.4 3.1-3.72 5.34s.91 4.79 3.02 5.36c-1.41 1.59-2.48 3.65-2.4 5.81.07 2.17 1.56 4.35 3.61 4.64-1.19 1.89-2.46 4.18-2.13 6.42.34 2.23 2.56 4.25 4.61 3.53-1.46 2.18-1.44 5.3302.05 7.4902 1.49 2.17 2.89 2.79 5.34 2.05 0 0-1.25 6.27 4.12 5.02 0 0-2.27 3.75 3.64 5.01"/><path d="m146.238 321.29c.85 0 1.52-.11 2.07-.33 1.66-.62 2.2-2.1 2.83-3.88 1.06 2.02 2.48 3.42 4.7 4.06 2.21.63 4.33.48 6.09-1.02 1.75-1.49 1.89-3.11 2.54-5.33.65 1.32 2.78 1.91 4.71 1.88.89-.01 1.75-.16 2.39-.43 2-.84 3.3-2.87 3.76-4.99 1.24 1.82 3.22 2.3 5.24 1.42 2.01-.89 3.22-3.3 2.73-5.45 1.04 1.38 2.4 2.9 4.12 2.75 1.16-.1 2.12-.96 2.76-1.93 1.09-1.63 1.54-3.68 1.23-5.61.25 1.55 2.16 2.41 3.68 2.01"/><path d="m128.011 319.25c-2.21.05-3.66-1.9-3.17-4.06-1.05 2.2-2.56 3.34-4.95 2.92-2.4-.43-3.22-1.78-2.79-4.18-.97 2.11-2.6 2.72-4.82 2.02-2.22-.69-2.39-2.75-1.51-4.52 0 0-3.68 3.68-5.88-.59"/><path d="m104.8 150.21c-1.95-1.26-4.59-1.36-6.6199-.26-2.04 1.11-3.39 3.38-3.39 5.7-1.91-1.18-4.49-1.14-6.36.1-.96.64-1.7 1.58-2.14 2.64-.43 1-.59 2.11-.42 3.18-2.35-.87-5.16-.34-7.01 1.34-1.86 1.67-2.68 4.41-2.05 6.84-2.44-.3-5 .79-6.49 2.75-1.49 1.95-1.85 4.71-.92 6.98-2 .26-4.33 1.84-5.01 3.74-.68 1.89-.21 4.15 1.16 5.62-2.5.19-4.85 1.78-5.96 4.04-1.11 2.25-.93 5.09.45 7.19-1.46.29-2.79 1.12-3.74 2.25-.56.67-1 1.45-1.25 2.29-.68 2.26-.02 4.87 1.66 6.54-2.27 1.11-3.94 3.38-4.33 5.88-.4 2.49.49 5.16 2.31 6.92-1.87 1.04-3.13 3.09-3.22 5.22-.08 2.13 1 4.27 2.77 5.46-2.05.71-3.58 3.26-2.96 5.34.63 2.07 2.67 3.54 4.82 3.82-1.58 1.32-2.68 3.68-2.24 5.69.44 2.02 2.07 3.72 4.06 4.26-1.61 1.64-2.22 4.19-1.53 6.39.69 2.19 2.66 3.93 4.93 4.35-.53 1.41-1.07 2.87-1.04 4.38.04 1.51.79 3.1 2.19 3.68 1.26.52 2.74.1 3.88-.65-1.71 1.91-2.59 4.76-1.47 7.07s4.45 3.42 6.44 1.81c-1.02 2.47-1.32 5.44.1 7.7s4.97 3.17 6.84 1.27c-.25 1.19-.5 2.41-.35 3.62s.77 2.42 1.86 2.97c1.81.9 3.94-.35 5.38-1.76-.22.96-.41 1.94-.41 2.92 0 .42.04.83.12 1.24.27 1.37 1.18 2.7 2.53 3.08s2.93-.42 3.9-1.71c-.64 1.22-1.49 2.97-1.03 4.44.47 1.47 2.41 3.21 5.94 2.62"/><path d="m109.32 146.01c-3.05.41-3.59 2.18-4.04 4.31-.01.04-.02.07-.03.11"/><path d="m221.999 270.28c2.95-.1 4.84-.84 5.85-3.31 1.02-2.48-.18-5.63-2.58-6.81 2.84-.54 5.3-2.77 6.1-5.54.81-2.78-.07-5.98-2.18-7.95 2.63.21 4.66-2.46 5.23-5.04.89-4.09-.68-8.62-3.91-11.28 2.51-.84 4.36-3.37 4.4-6.02.03-2.65-1.75-5.23-4.24-6.13 1.89-1.74 3.34-4.22 3.03-6.77s-2.45-4.91-5.02-4.99c2.59-.79 4.02-3.99 3.15-6.56-.86-2.56-3.66-4.21-6.36-4.06.74-1.53 1.48-3.1 1.7-4.79.21-1.69-.21-3.55-1.48-4.68-1.28-1.12-3.5-1.19-4.57.14 1.11-2.29 1.47-5.08.37-7.37-1.11-2.29-3.94-3.8-6.32-2.9 1.44-2.01.51-5.36-1.21-7.13-.63-.64-1.42-1.1-2.28-1.34-1.5-.44-3.2-.25-4.5.62.83-1.86 1.68-3.97.96-5.89-.64-1.72-2.46-2.81-4.29-3s-3.66.39-5.32 1.17c1.79-1.61 1.77-4.8-.03-6.39-1.81-1.59-4.98-1.21-6.35.77.37-2.28-1.46-4.98-3.44-6.16-1.99-1.18-4.88-.71-6.16 1.22 1.26-2.32-.2-5.77-2.76-6.39-2.54-.61-4.65 1.51-4.65 1.51s.7-4.47-2.35-4.7"/><path d="m213.87 241.491s.07.01.1.01c.35 0 .6-.41.72-.77.28-.89.39-1.88.06-2.76-.33-.87-.85-1.77-1.79-1.74.13-.93.17-2.04-.58-2.6-.92-.71-2.36.12-2.68 1.24-.33 1.12.09 2.3.5 3.38-1.94 1.37-2.37 4.43-.9 6.28-1.63.89-2.09 3.37-.9 4.8-1.73.71-2.43 3.19-1.32 4.71-1.69 1.01-2.06 3.67-.71 5.1-2 2.28-2.92 5.77-1.94 8.64-2.34 1.34-3.19 4.74-1.75 7.01-2.02 1.32-2.63 4.37-1.29 6.36-1.64 1.65-2.01 4.43-.84 6.44-1.83 2.01-2.73 5.03-1.74 7.56-2.38 1.38-3.02 5.02-1.27 7.13-1.05.37-1.91 1.2-2.33 2.21-.13.24-.21.5-.26.76-.28 1.35.2 2.82 1.21 3.75-.91.6-1.78 1.33-2.26 2.31-.49.97-.52 2.23.15 3.09s2.67.91 3.44.13c.16 1.09.6 2.22 1.69 2.36 1.1.14 2.24-.52 2.68-1.54.41 1.32 1.77 2.27 3.15 2.22.68-.03 1.33-.3 1.85-.73.55-.44.96-1.06 1.11-1.74.33 1.34 1.67 2.36 3.05 2.33 1.39-.04 2.67-1.12 2.93-2.48.26 1.25 1.43 2.25 2.7 2.31h.14c1.23 0 2.41-.86 2.78-2.03.1.84 1.51 2.04 3.46 2.04 1.09 0 2.41-.57 2.64-2.4.28.56 2.4 1.2 3.69.63.57-.25 1.12-.6 1.41-1.15.46-.87.43-1.98-.08-2.82s-1.48-1.39-2.46-1.38c1.14-.56 1.77-1.98 1.44-3.2-.34-1.23-1.61-2.12-2.87-2.03 1.18-.87 2.09-2.24 2.01-3.7s-1.44-2.85-2.89-2.61c1.23-.44 2.04-1.8 1.87-3.09-.18-1.29-1.33-2.38-2.62-2.48.83-1.38.87-3.2.12-4.62-.44-.84-1.39-1.6-2.27-1.24 1.31-.39 2.21-1.83 1.98-3.18-.24-1.34-1.57-2.41-2.93-2.33 1.42-.32 2.33-1.98 1.96-3.39s-1.84-2.39-3.3-2.35c1.3-.89 1.99-2.59 1.69-4.13-.1-.5-.3-.98-.59-1.4-.58-.89-1.5-1.56-2.54-1.78.49-1 .82-2.01.69-3.12-.14-1.11-.92-2.2-2.02-2.38 1.12-.7 1.73-2.11 1.48-3.4-.26-1.29-1.36-2.36-2.66-2.58.96-.89 1.43-2.28 1.2-3.57-.22-1.28-1.13-2.43-2.33-2.95 1.4-1.47 1.04-4.21-.69-5.27.76-.4 1.03-1.53.82-2.38-.2-.81-.98-1.43-1.81-1.47"/><path d="m140.739 383.749c-.04-.06-.08-.13-.12-.19-.75-1.17-1.92-2.04-3.24-2.48-.94-.33-1.95-.43-2.94-.27-2.43.4-4.51 2.4-5.02 4.81-1.5-1.9-4.15-2.81-6.51-2.24-2.36.56-4.3 2.58-4.78 4.96-1.82-1.68-4.55-2.3-6.92-1.58-2.37.71-4.3 2.74-4.89 5.15-1.93-1.06-4.41-1.01-6.3.1-1.8901 1.12-3.1301 3.28-3.1301 5.47-4.04-.99-5.46.85-5.05 4.99-1.18-.4-2.79-.04-3.71 1.35"/><path d="m72.9317 421.471c-3.61 1.65-3.14 4.52-1.84 7.66-2.28.62-3.79 1.31-4.43 3.59s-.86 4.18.76 5.91c-2.09.91-3.58 2.19-3.98 4.44-.41 2.25.04 4.69 1.68 6.28 0 0-3.94.97-3.37 5.36"/><path d="m140.449 383.81c.05-.09.11-.17.17-.25 1.22-1.75 3.45-2.75 5.57-2.49.83.1 1.63.39 2.35.83 1.19.74 2.13 1.88 2.56 3.22 1.15-2.77 4.74-4.22 7.49-3.03 1.8.78 3.06 2.41 4.21 3.99.64-.88 1.56-1.54 2.57-1.91.79-.29 1.64-.41 2.47-.32 1.91.2 3.68 1.48 4.45 3.24.37.83.53 1.74.92 2.56 3.49-1.24 7.27.33 7.89 5.54"/><path d="m86.1383 158.33c.17-1.65-1.05-2.99-3.05-3.56.82-.39 2.23-1.98 2.21-4.3-.01-1.3-1.53-2.33-2.83-2.33 1.54-.44 2.43-3.37 1.9-4.88-.52-1.51-2.15-2.48-3.76-2.47-1.6.02-3.11.91-4.12 2.15-2.54-3.33-8.26-3.46-10.95-.25-1.02-1.13-2.39-1.88-3.86-2.22-2.69-.68-5.73-.05-7.72 1.9-1.01-1.11-2.36-1.9-3.81-2.28-.77-.21-1.57-.29-2.36-.25-2.3.13-4.51 1.34-5.85 3.2-.5-2.06-2.49-3.67-4.61-3.72-2.13-.05-4.19 1.46-4.78 3.5-1.7-.92-4.07-2.14-5.91-1.54-1.54.49-3.09 1.6-2.95 4.32.08 1.62 1.26 3.39 2.83 3-1.59.92-2.52 2.87-2.25 4.69.28 1.82 1.74 3.4 3.53 3.82-1.86.42-3.23 2.41-2.95 4.3.27 1.9.84 2.97 2.75 2.84-2.1.22-3.34 2.69-3.69 4.77-.34 2.07.84 4.3 2.74 5.19-1.85.95-3.08 3.01-3.03 5.09.05 2.09 1.38 4.09 3.28 4.95-1.29.92-2.41 2.2-2.7 3.75-.29 1.56.82 3.38 2.41 4.77-.9.95-2.41 2.15-2.87 3.38-.46 1.22-.38 2.74.55 3.67.92.93 2.75.87 3.35-.29-1 1.51.63 3.7 2.45 3.71 1.81.02 3.33-1.44 4.15-3.06.41 2.05 2.4 3.14 4.5 3.18 2.09.05 3.42-1.16 4.41-3.09.9 1.5 3.06 2.44 4.77 2.43.43 0 .92-.08 1.42-.22 1.52-.43 3.13-1.44 3.36-2.7 0 0 1.44 2.73 3.39 2.37"/><path d="m83.7083 296.461c.06.37.09.72.09 1.06.04 4.33-4.07 5.65-4.07 5.65s8.09 3.3-.9 11.76c5.13 4.47 3.37 10.84-.34 11.5 1 1.36 1.58 2.8 1.97 4.54"/><path d="m26.3308 284.599s-2.22-5.39 1.91-7.46c-1.75-1.11-3.97-1.42-4.6-4.12-.59-2.48 1.71-5.69 4.12-6.51-1.86-1.05-4.15-3.2-4.11-5.34s1.32-4.21 3.22-5.2c-2.1-1.1-3.57-3.31-3.78-5.68-.21-2.36 1.67-4.47 3.54-5.92-.74.38-1.58-.3-2.04-1-2.11-3.23-1.05-8.1 2.21-10.17-2.14.25-4.15-1.73-4.3-3.88-.14-2.15 1.46-4.96 3.35-5.99 0 0-4.15-1.35-3.35-4.78.4-1.7 1.8-3.06 3.47-3.58 1.59-.5 4.22 1.56 4.83 3.12.07-1.97 2.18-3.12 4.15-3.24 2.9-.18 5.08 1.23 5.83 3.05 1.54-1.93 2.8-3.38 5.21-3.9 1.01-.22 2.18-.14 3.24.21 1.47.47 2.74 1.45 3.15 2.82"/><path d="m25.3781 451.769c-1.92-1.92-3.46-4.45-3-9.01.24-2.4 2.76-5.52 2.76-5.52-1.32-.48-4.8-7.09.72-10.21-3.45-3.87-4.32-10.21.5-13.35-1.55-2.18-2.81-4.65-3.05-7.32-.23-2.67.74-5.54 2.92-7.09-2.3-1.39-3.88-3.91-4.13-6.58s.83-5.44 2.83-7.23c-2.12-1.06-3.07-3.71-2.81-6.06.25-2.36 2.41-4.66 3.66-6.67-2.25-2.82-3.18-6.65-2.48-10.18.34-1.72 1.59-3.7 3.32-3.37-2.51-1.26-4.25-3.93-4.39-6.73-.15-2.8 1.31-5.63 3.67-7.14-2.38-1.16-4.04-3.68-4.15-6.33-.12-2.64 1.3-5.3 3.57-6.66-2.33-1.14-3.93-3.66-3.97-6.27-.04-2.6 2.37-5.46 4.68-6.67 0 0-3.43-2.57-3.66-5.43-.24-2.85 1.34-4.57 4.12-5.23-4.21-3.19-3.81-5.89.16-9.36"/><path d="m219.071 351.64c1.12.76 2.52 1.11 3.86.89 1.98-.32 3.69-1.89 4.2-3.84 1.56 1.24 4.04 1.1 5.44-.31 1.41-1.41 1.55-3.89.3-5.45 1.78.28 3.63-1.23 3.7-3.03.08-1.79-1.64-3.45-3.44-3.32 2.43-1.2 4.02-4.4 2.91-6.87-1.31-2.91-3.44-2.52-6.11-2.09.82-3.86-2.44-5.48-4.63-5.47-2.2 0-4.34 1.32-5.34 3.28-.53-.98-1.38-1.78-2.38-2.29-.77-.41-1.63-.63-2.5-.64-1.99-.02-3.95 1.1-4.94 2.83-.89-.88-2.03-1.44-3.24-1.67-2.51-.51-5.33.31-6.9 2.37-1.38-1.41-3.58-1.96-5.46-1.36-1.89.6-2.91 2.25-2.09 5.06-2.22-1.52-4.23-.5-4.92.7-.93 1.64.54 3.78 1.85 4.23-1.51.76-2.93 1.97-3.34 3.62-.4 1.64.64 3.67 2.33 3.82-1.08.74-2.14 1.59-2.81 2.72-.67 1.14-.87 2.62-.21 3.76.67 1.14 2.77.68 3.82-.11 0 1.52.47 3.16 2 3.92 2.43 1.22 5.42.21 6.69-2.2 0 0 .21 1.95 1.87 2.78 1.49.75 2.62.95 4.29.83 1.2-.09 2.42-.67 3.14-1.6.29-.35.49-.76.6-1.21 1.05 1.78 3.15 2.88 5.21 2.73 2.05-.15 3.97-1.55 4.74-3.46.36.54.83 1.01 1.36 1.38z"/><path d="m180.841 382.471c-.07.08-.15.15-.24.21 0 .01-.01.01-.02.02-1.26 1.33-.14 3.71 2.46 4.35 2.02.51 3.78-.68 3.9-2.47 0 0 1.79 4.29 6.66 2.5"/><path d="m238.689 383.901c2.45.51 3.97-1.28 4.45-2.35.5-1.11.86-2.33.7-3.54-.15-1.2-.92-2.39-2.07-2.76 2.48-2.63 1.4-7.66-1.95-9.03 1.13-1.72.76-4.26-.81-5.59s-4.13-1.26-5.64.14c.03-2.26-2.78-3.68-4.97-3.1-2.18.58-3.76 2.44-5.1 4.25-.27-1.76-2.24-2.93-4.01-2.72-.25.03-.5.08-.73.15-1.46.41-2.69 1.53-3.52 2.83-.74-1.96-2.84-3.2-4.93-3.28-1.19-.05-2.22.12-3.19.52-.73.29-1.43.72-2.13 1.29-2.44-2.11-6.66-1.59-8.51 1.04-2.35-2.46-7.09-1.78-8.65 1.24-1.61-.21-3.36-.17-4.71.73-1.35.89-2.07 2.88-1.14 4.21-1.85.62-3.59 1.94-4.15 3.81-.56 1.88.49 4.24 2.41 4.62-.83.77-1.66 1.56-2.16 2.56-.5 1.01-.6 2.29.05 3.21.58.82 1.86 1.12 2.65.57"/><path d="m242.809 395.621c4.9-2.96 6.72 1.12 7.07 2.86.35 1.73-.77 3.45-2.14 4.58 1.91.35 3.52 1.99 3.82 3.91.31 1.92-.7 3.98-2.41 4.91 1.65.75 3.12 2.1 3.57 3.85.44 1.76-.44 3.88-2.17 4.43 1.93.62 3.45 2.11 4.23 3.98.88 2.08-1.02 6.11-4.5 5.61"/><path d="m200.018 436.419c-2.11.47-4.75-1.08-4.5-3.23-1.11 2.44-3.88 3.74-6.54 4.01-1.35.14-2.76.05-3.94-.6-1.18-.66-2.06-2-1.84-3.34-1.55 1.99-4.15 3.31-6.61 2.77-2.45-.55-4.34-3.36-3.41-5.7-.99 1.39-3.34 1.24-4.48-.04-1.15-1.28-1.23-3.24-.65-4.86.59-1.61 1.72-2.96 2.83-4.27-.96.34-2.05-.42-2.37-1.38-.32-.97-.06-2.04.35-2.97.82-1.9 2.48-3.73 4.24-4.82-2.3-.23-3.57-3.19-2.69-5.33s3.2-3.37 5.49-3.72c-.39-2.03.76-6.97 5.04-6.6.42.04.89.14 1.38.29 0 0 1.94-5.62 6.23-3.79"/><path d="m200.078 442.429c-4-.65-6.59 1.7-8.45 3.41-.87-2.05-3.55-3.09-5.78-3.12-2.22-.03-4.4 1.35-5.33 3.37-1.35-1.86-3.8-2.85-6.06-2.47-2.27.38-4.25 2.13-4.91 4.33-2.63-.64-5.61.73-6.84 3.14-1.24 2.4-.61 5.62 1.44 7.38-1.4 1.32-2.77 2.71-3.64 4.42-.86 1.71-1.16 3.81-.35 5.55.8 1.74 2.9 2.92 4.72 2.32-1.16.52-1.69 1.92-1.49 3.19.04.27.11.53.22.77.61 1.41 2.06 2.31 3.55 2.68 2.77.7 5.64-1.2 7.53-3.35.87 2.32 3.32 3.56 5.79 3.35 2.47-.22 3.68-.52 5.4-2.3"/><path d="m45.6719 298.86c2.92-3 7.33-3.61 11.62-3.68.83-.02 1.65-.01 2.45 0 2.27.03 4.68.11 6.53 1.42 1.87 1.32 2.74 3.64 3.34 5.85.48 1.81.85 3.67.67 5.53-.12 1.27-.49 2.53-1.1 3.67-.72 1.35-1.75 2.55-3.01 3.43-2.31 1.62-5.35 2.16-8.08 1.44"/><path d="m66.5898 326.461c.92-1.15 1.67-2.4 2.24-3.71 1.52-3.46 1.77-7.36.49-11.03"/><path d="m69.6297 296.55c-.11-.64-.4-1.24-.83-1.72-.11.06-.21.14-.29.23-.51.53-.56 1.52-.02 2.06"/><path d="m68.5802 295.59c-.05-.23-.07-.39-.07-.53-.01-.19-.01-.36-.08-.65-.34.55-.53 1.14-.54 1.72-.03.78.25 1.54.88 2.17.11-.08.21-.16.3-.26.36-.39.55-.93.56-1.48.02-.88-.4-1.78-1.2-2.15-.44.46-.61 1.1-.54 1.72.07.78.51 1.54 1.18 1.91.14.09.3.15.46.19.17-.54.2-1.12.1-1.67"/><path d="m57.2802 294.6c2.74-8.71.13-19.93-4.28-27.93-.77 4.98-3.45 11.5-5.29 16.18-1.67 4.29-4.18 10.57-3.03 15.13.1.43.24.84.42 1.23-.01-.05-.03-.1-.05-.15-.1-.37-.23-.73-.37-1.08-2.46-6.19-9.9-9.86-18.62-12.48-2.16-.65-4.39-1.24-6.65-1.78 2.34 7.03 5.16 12.25 7.24 15.64 3.5 5.69 8.19 7.96 14.67 9.61-1.92 8.41 2.75 16.34 8.11 20.28"/><path d="m49.4392 329.611c1.47-.54 3.34-.27 4.88-.42 2.54-.26 5.06-.73 7.53-1.41 1.14-.31 2.28-.67 3.46-.71.36-.01.75.01 1.17.07 2.22.32 5.05 1.6 6.64 3.28.16.16.3.32.43.49.39.51.66 1.04.76 1.59-4.96 3.26-13.37 4.42-19.17 5.71-3.47.78-6.93 1.56-10.39 2.33-.45.1-.57-4.19.04-6.18.52-1.72 2.44-3.5 4.04-4.46.19-.12.4-.21.61-.29z"/><path d="m69.2812 322.939c2.35 1.58 4.14 3.98 4.99 6.69.04.14.0801.29.0301.43-.05.13-.18.22-.3.3"/><path d="m60.1195 352.07c-1.68-7.47 7.31-11.2 13.69-13.14 1.81-.55 3.65-.94 5.51-1.24 4.7-.77 9.53-1.01 14.23-1.91.86-.16 1.71-.35 2.56-.56 5.0295-1.22 9.8995-3.11 14.7295-4.99 4.44-1.72 8.59-5.93 13.03-7.65.04 1.67.11 3.66.2 5.74.13 3.33.29 6.89.37 9.74.01.3.02.6.03.89.03.98.04 2.01-.41 2.88-.37.73-1.02 1.26-1.66 1.77-11.08 8.74-24.3795 14.6-38.2795 16.99-4.3.75-8.66 1.16-13.03 1.22"/><path d="m73.8398 330.801c1.8 1.05 3.07 2.47 3.93 3.72 1.09 1.61 1.51 2.96 1.51 2.96"/><path d="m84.1406 360.729c.52 4.22.92 8.81.43 14.6-.07.81-.26 1.64-.77 2.27-.43.53-4.15 1.11-7.15 1.5-1.01.13-1.9401.24-2.6301.32-4.11.46-8.0999.79-11.9899 1.17-7.32.71-14.33 1.6-21.32 3.92-2.26.74-4.52 1.63-6.79 2.71-2.71-20.39.08-29.14 10.83-46.68"/><path d="m78.3906 334.43c.49-.54 1.34-1.79 2.31-3.3 2.08-3.25 4.7-7.74 5.5-9.12.65.26 1.33.53 2.05.81 1.75.68 3.68 1.42 5.6 2.1 1.15.42 2.3.81 3.41 1.17 1.19.38 2.34.71 3.4104.98-.65 3-3.2604 4.99-4.6704 7.71"/><path d="m125.262 338.06c1.63-.52 3.35-.69 5.01-1.07.43-.1.86-.21 1.28-.35 4.15-1.25 7.62-3.81 10.51-7.04.99-1.1 1.91-2.27 2.77-3.5.89-1.27 1.51-3.2 1.1-4.65-.16-.53-.45-1-.92-1.35-.13 0-.25.03-.36.05-1.24.31-1.91 1.81-2.47 3.03-1.31 2.89-3.48 5.38-6.16 7.08"/><path d="m144.57 319.86c.34-1.08.46-2.23.35-3.36-.05-.43-.14-.88-.46-1.17-.26-.24-.62-.3-.98-.24-.25.05-.5.16-.7.32-.48.37-.76.93-1.04 1.47-1.78 3.38-4.15 6.44-6.97 9.01"/><path d="m143.399 314.881c.7-3.22-.53-4.32-.73-4.53-.23-.25-.59-.25-.99-.11-.75.26-1.61.98-2.02 1.46-2.63 3.13-3.89 7.55-7.01 10.02-.34.28-.71.54-1.11.76"/><path d="m132.579 314.26c-2.16-.22-3.28 2.57-3.65 3.42-.23.52-.42 1.08-.61 1.67-.87 2.73-1.55 6.1-4.03 8.96"/><path d="m91.9883 316.981c.22-.1.44-.2.68-.3 2.26-.88 5.51-1.24 7.7397-.89.27.04.56.11.85.2 1.21.38 2.37 1.18 2.17 2.36-.24 1.4-2.09 1.66-3.4997 1.82-.12.01-.24.03-.37.05-2.63.39-5.39 1.98-5.67 4.6"/><path d="m88.4392 322.341c.66-3.26-1.27-6.08 1.55-10.41.76-1.16 3.29-2.4 4.63-2.03"/><path d="m135.469 273.249s-2.11-1.5-3.39-1.56c-.2-.01-.4-.01-.59 0-.8.04-1.55.26-2.22.62-1.3.7-2.28 1.96-2.69 3.53-.26.99-.21 2.05.08 3.03.47 1.56 1.56 2.94 3.05 3.61.46.21.95.35 1.45.41 1.82.26 3.78-.42 5.02-1.78.2-.21.38-.45.54-.7 1.08-1.72 1-4.05-.03-5.77-.32-.53-.72-1.01-1.22-1.39"/><path d="m126.291 278.99c-8.41 7.05-15.12 12.54-23.99 21.98-1.87 1.99-3.8604 4.16-5.5704 6.57-.6.84-1.17 1.71-1.67 2.61-1.09 1.89-1.95 3.93-2.42 6.15"/><path d="m129.711 282.48c-9.81 9.82-16.78 17.05-24.91 28.3-1.12 1.55-2.26 3.17-3.43 4.89"/><path d="m131.121 283.17c1.06 9.44 2.41 20.9 2.02 31.11-.09 2.52-.29 4.95-.63 7.27"/><path d="m136.238 281.17c3.38 8.95 4.89 17.92 5.43 28.78"/><path d="m131.568 336.7c-1.43 4.88-3.58 8.06-5 12.94-.59 2.02-1.16 4.21-.12 5.92.23.38.55.72 1.02.91.56.21 1.28.16 1.95 0 2.88-.68 5.63-2.94 7.02-5.11.24-.37.47-.74.69-1.1 4.76-7.7 5.23-11.67 5-20.6"/><path d="m97.5898 325.05c.66-1.6 1.32-3.19 1.98-4.78"/><path d="m131.488 271.6c1.59-4.12 3.46-8.12 5.59-11.99 7.14-13.02 17.19-24.45 29.25-33.13-4.21 18.44-14.32 35.45-28.36 48.12"/><path d="m139.45 208.029c-4.88 1.02-7.76 7.38-5.29 11.72-2.52.24-4.85 1.83-6.05 4.05-.17.32-.32.66-.45 1.01-.98 2.73-.24 5.99 1.82 8.03-2.86 1.59-5.38 4.29-5.65 7.56-.27 3.26 2.55 6.76 5.79 6.3-2.29 1.56-3.13 5.08-1.45 7.28 1.69 2.2 5.73 2.05 6.93-.45-.6 1.78-.18 4.48 1.98 6.08.01.01.03.02.04.03"/><path d="m145.859 267c.51 2.07 2.89 3.24 5.02 3.07s4.04-1.34 5.8-2.54"/><path d="m127.67 223.54s-2.23-8.95-5.72-13.38c-3.53 20.27-4.27 37.3 7.3 62.12"/><path d="m62.04 299.141c-2.63.98-4.8 3.14-5.79 5.77"/><path d="m61.9811 303.341s.11.03.17.01c.04-.01.08-.03.1-.06.1-.09.13-.25.14-.39.04-.57-.06-1.13-.29-1.65-.07-.15-.14-.29-.23-.43-.06-.09-.13-.19-.22-.27-.05-.05-.11-.09-.17-.12-.19-.08-.39-.02-.54.1-.18.16-.31.4-.32.65 0 .07 0 .13.02.2.03.14.1.27.18.39.19.28.49.5.79.7.02.01.04.03.06.04.07-.64-.15-1.32-.58-1.81-.03.17-.03.35-.02.53.04.32.15.63.32.9"/><path d="m61.6992 303.1c.07.09.15.18.25.22"/><path d="m60.3594 300.24c.06 1.47.89 2.9 2.15 3.66.01-.06.02-.13.03-.19.02-.08.02-.16.02-.24.07-.76-.1-1.54-.46-2.22-.12-.25-.27-.48-.45-.7-.09-.12-.19-.23-.3-.33-.11-.11-.22-.22-.35-.31-.02-.02-.05-.04-.07-.06v.07s-.01.1-.01.15c0 .15.01.31.02.46.03.24.07.47.13.7.12.44.3.86.54 1.24.17.28.37.55.6.78l.04.04c.09.08.2.15.31.18.09.02.18.02.26-.04.09-.07.13-.18.13-.3 0-.07-.02-.14-.03-.21-.19-.94-.66-1.83-1.33-2.52-.07-.07-.15-.13-.24-.18-.14-.1-.29-.16-.43-.15-.07 0-.14.02-.21.06-.02.02-.05.04-.07.07-.08.1-.09.23-.1.35-.08.96.42 1.87 1.15 2.54h.01c.08.09.17.16.25.23.01 0 .01.01.02.02h.01c.18.14.37.26.56.37.1.05.19.1.28.14.09-.24.13-.48.13-.72.06-1.18-.66-2.38-1.64-3.09-.09-.07-.2-.13-.31-.13h-.04s-.02.01-.03.01c-.1.03-.17.11-.22.21-.02.03-.03.06-.04.09-.11.32-.12.64-.05.96.03.2.1.4.2.59.21.47.54.92.87 1.32"/><path d="m206.919 323.549-.06-6.71v-.14"/><path d="m206.922 359.43v-.01l.24-7.22.01-.21"/><path d="m218.48 351.83v7.27"/><path d="m218.48 317.359v5.77"/><path d="m50.1484 140.081v-7.45"/><path d="m50.1516 214.13-.05-11.64"/><path d="m61.7109 133.811v6.52"/><path d="m149.059 321.02v60.77"/><path d="m137.488 380.79v-30.31"/><path d="m62.0889 381.211c-.3 3.93-.55 7.86-.85 11.78-1.24 16.77-3.18 33.11-12.88 46.96-1.75 2.51-2.17 2.35-6.33 3.01-.63.1-1.35.22-2.17.37-.62.11-1.41.19-2.28.24-2.45.14-5.6.09-7.8.08-.42 0-.81.01-1.15.01 1.02-13.03 13.77-24.71 13.26-37.78-.26-6.6-2.55-14.64-1.08-21.08"/><path d="m76.7492 379.83c4.28 7.74 8 15.8 11.1 24.1 4.2 11.23 7.3 22.89 9.19 34.74-1.08.22-2.45.53-3.97.88-1.27.3-2.64.62-4.03.95-2.83.67-5.76 1.37-8.09 1.89-.78.18-1.5.33-2.12.46-1.98-6.93-3.47-14.27-5.33-21.52-2.56-10.05-5.82-19.94-12.05-28.32"/><path d="m29.7795 444.239c-1.37 2.56-2.75 5.12-4.13 7.68-.54 1-1.07 2-1.61 3-.92 1.71-1.86 3.62-1.42 5.5.05.21.12.41.2.6 1.1 2.68 4.91 3.11 7.87 4.01 9.83 2.98 14.38 4.58 24.77 5.43 1.65.14 3.44.25 5.43.35l.51.03c4.29.21 10.88.49 12.04-3.44.13-.43.21-.87.25-1.3.25-2.6-1.07-5.17-3.98-7.34-.21-.16-.43-.31-.65-.46-2.24-1.51-4.8-2.48-7.37-3.42-.29-.11-.58-.21-.87-.32-.89-.32-1.77-.65-2.64-1-.62-.25-1.24-.51-1.85-.79-1.45-.65-2.87-1.36-4.27-2.12-1.19-.64-2.37-1.31-3.55-1.99-1.04-.6-2.08-1.22-3.11-1.84-1.92-1.15-2.83-1.24-3.35-3.71"/><path d="m81.2481 443.03c-.01.17-.03.35-.04.53-.31 3.93-.83 9.98-.29 13.68.28 2 .53 3.54 1.19 4.87.62 1.26 1.6 2.33 3.32 3.43 3.14 2 6.92 2.54 10.38 3.13 8.1099 1.39 16.2299 2.78 24.3499 4.17.05.01.09.02.14.02 3.59.62 7.45 1.15 10.62-.82 1.4-.87 2.62-2.42 2.94-4.15.11-.58.12-1.19 0-1.8-.44-2.26-2.64-5.26-4.38-6.59-.09-.07-.17-.13-.26-.19-3.76-2.58-6.09-3.54-9.97-4.72-.55-.17-1.14-.34-1.76-.52-1-.29-2.09-.58-3.23-.87-1.4-.36-2.88-.72-4.33-1.13-1.4-.39-2.79-.82-4.08-1.31-1.03-.39-2.01-.82-2.89-1.31-.23-.13-.46-.25-.7-.38-3.8799-2.13-8.1599-4.45-9.1199-9.22"/><path d="m87.4911 449.329c-1.02-.68-3.16-.46-4.25.88-.78.97-1.38 2.18-1.48 3.49-.09 1.32.37 2.73 1.33 3.5.44.36.97.57 1.51.66 2.02.35 4.15-1.13 4.75-3.31.61-2.17-.6-4.51-1.86-5.22z"/><path d="m45.4013 446.82c-2.14.98-3.26 2.99-3.6201 4.23"/><path d="m48.3008 449.07c-1.35 1.06-2.47 2.49-3.25 4.12"/><path d="m51.8391 451.061c-1.16 1.08-2.04 2.46-2.55 3.96"/><path d="m129.249 459.811c-3.21.25-5.51 2.5-6.95 5.33-1.18 2.28-1.8 4.95-1.92 7.24"/><path d="m68.2819 458.91c-2.19 1.25-3.99 3.15-5.18 5.37-1.04 1.89-1.63 4.01-1.68 6.16"/><path d="m81.9209 462.211c.07 3.32-1.74 7.14-.12 10.1.41.76 1.07 1.58 2.12 2.28 1.24.85 3.02 1.55 5.56 1.84 15.6201 1.78 16.8801 4.98 32.3101 4.38 3.79-.15 7.6-.78 10.18-3.72.22-.25.43-.49.63-.74 2.22-2.72 3.48-5.56 1.38-8.43"/><path d="m22.7618 461.051c-.19 3.9-2.58 8.81-.06 11.78.96 1.13 2.4 1.7 3.8 2.19 9.09 3.13 18.75 4.08 28.39 3.93 2.87-.04 5.73-.17 8.58-.38 2.86-.21 5.85-.53 8.23-2.12.33-.22.64-.53.92-.9 1.79-2.33 2.68-7.21 1.53-9.4"/><path d="m54.8817 478.49c-.8-2.52-.6-5.34.55-7.72"/><path d="m47.8281 473.989c-8.48.02-16.93-1.89-26-5.87"/><path d="m52.6211 456.64c.5-1.39 2.2-2.84 3.53-3.49"/><path d="m56.6992 457.879c.58-1.49 2.52-2.84 4.07-3.19"/><path d="m63.0016 464.22c-.59-3.64-3.5-5.19-6.35-6.18-.66-.23-1.32-.43-1.94-.61-.71-.21-1.42-.39-2.14-.58-1.18-.28-2.37-.56-3.53-.89-1.46-.42-2.9-.92-4.22-1.66-.5-.28-.98-.57-1.44-.89-.93-.64-1.78-1.36-2.52-2.16-1.87-2-3.09-4.48-3.26-7.32"/><path d="m102.21 449.17c-2.2295 1.15-2.9095 2.73-3.2295 4.07"/><path d="m105.811 450.85c-1.38 1.2-3 2.69-3.03 3.97"/><path d="m109.891 452.221c-1.02 1.06-2.14 1.86-2.72 3.13-.08.18-.15.37-.21.57"/><path d="m110.59 457.47c.46-1.51 2.19-3.14 3.57-3.89"/><path d="m114.988 458.571c.54-1.61 2.53-3.15 4.16-3.6"/><path d="m122.02 464.989c-.81-3.84-3.99-5.34-7.08-6.24-.71-.21-1.42-.39-2.09-.55-.76-.19-1.54-.35-2.31-.5-1.25-.25-2.5-.48-3.73-.75-1.5-.35-2.97-.78-4.36-1.43-.09-.04-.18-.09-.27-.13-1.36-.67-2.7798-1.28-4.2098-2.14-3.14-1.87-6.3-4.89-8.81-12.22"/><path d="m72.5781 475.581s.03-.02.04-.03c2.68-1.99 8.21-2.47 11.3-.96.12.06.24.12.36.19"/><path d="m133.219 476.6c4.09-3.02 10.06-3.21 14.33-.45 2.8-3.19 8.26-3.53 11.42-.7 1.41-.49 2.81-.98 4.22-1.48"/><path d="m165.188 383.71c-3.2-2.61-3.65-7.9-.93-11-4.4-2.57-5.54-9.3-2.23-13.16-2.44-1.31-4.1-3.96-4.2-6.72-.09-2.75 1.39-5.51 3.75-6.97-3.34-3.04-2.11-9.46 2.12-11.07-1.75-1.31-2.57-3.72-1.98-5.81.6-2.09 2.57-3.73 4.76-3.94-1.72-2.17.5-6.4 2.71-8.14"/><path d="m207.59 86.1905c-2.02 1.18-5.09 3.31-6.64 5.07.39-2.47 2.8-5.12 3.42-7.54-1.77-.47-5.37-1.73-7.14-2.21 2.11.2 5.24-.36 6.84-1.71 1.13-.96 2.04-2.77 3.11-3.79.05-.05.1-.1.16-.14.63-.57 1.32-.98 2.01-1.24 1.39-.54 2.77-.52 3.67-.16 1.77.71 3.1 2 3.82 3.76.72 1.77.71 3.8.09 5.6-.38 1.13-1.01 2.28-.76 3.45.18.81.75 1.46 1.3 2.08.97 1.09 1.44 1.97 2.41 3.06"/><path d="m208.59 79.5195c.07.86 1.61 1.89 3.62.68"/><path d="m207.59 86.1895c-1.06 5.7-3.51 10.78-.73 16.8495.74 1.6 2.72 3.57 4.48 3.52"/><path d="m215.309 75.4305c.47-1.92.44-3.96-.09-5.87-1.28 1.17-2.27 2.65-2.84 4.29"/><path d="m209.03 73.9494c-.59-1.41-1.83-2.5399-3.29-3.0099-.49 1.63.06 3.52 1.34 4.63"/><path d="m62.0089 91.6696c2.42-.4 4.53-2.3 5.19-4.66 2.33 1.08 5.3.62 7.2-1.12 1.89-1.75 2.59-4.68 1.7-7.09 2.86-.17 5.58-1.94 6.9-4.49 1.32-2.54.67-6.46-.84-8.89 1.58-.06 5.6-2.36 4.92-7.38-.68-4.9-3.25-5.7-4.95-5.73.92-2.93 1.2-6.34-.51-8.88-1.71-2.55-5.99-3.35-7.81-.87-.35-3.03-.86-6.31-3.04-8.44-2.19-2.14-6.62-2.06-7.67.8-.68-2.24-2.98-3.88-5.32-3.81-2.35.08-4.53 1.86-5.07 4.15-1.08-2.13-4.04-2.78-6.21-1.8-2.17.99-3.56 3.21-4.19 5.5-2.15-1.3-5.13-1.03-7.01.64-1.87 1.67-2.49 4.6-1.44 6.89-2.44.34-4.65 2.02-5.64 4.28-1 2.26-.74 5.02.66 7.06-2.61 1.68-4.11 4.95-3.67 8.03.43 3.03 1.2 4.87 3.62 6.3 1.48.87 3.48 1.18 3.48 1.18s-1.68 2.85-.96 5.37c.62 2.16 3.25 3.72 5.35 2.9-.36 2.11.68 4.39 2.51 5.5s4.34.98 6.04-.31c.42 2.2 2.27 4.07 4.48 4.51.29.06.6.09.9.09 1.93.06 3.89-.91 4.96-2.54 1.36 2.05 3.97 3.19 6.4 2.81z"/><path d="m88.1916 130.831s0 .02.01.04c1.04 1.37 3.51 1.53 4.79.32 1.41-1.33.67-3.1-.59-4.56-2.26-2.6-5.1-1.13-5.1-1.13 1.53-1.61 1.25-3.41-.16-5.14s-4.15-2.18-6.05-1c.41-2.21.15-4.72-1.44-6.31-1.59-1.58-4.75-1.54-5.75.46.24-2.29-.07-4.79-1.58-6.52-1.52-1.74-4.49-1.26-6.14.35 1.16-1.83 2.38-4.2 1.14-5.97-.74-1.06-2.28-1.5904-4.61-.69.29-2.4604-.27-3.4704-1.04-3.9504-.49-.31-1.07-.39-1.56-.5-2.64-.55-4.78 1.98-4.78 1.98-1.21-1.33-3.02-1.44-4.39-.86-1.62.67-2.63 2.29-1.35 3.9704-2.84.13-4.76 2.16-4.84 5-3.28-.21-6.49 2.49-6.84 5.76-4-.33-7.85 3.36-7.68 7.36-3.24.05-6.1 3.2-5.84 6.43-2.41-.09-4.75 1.76-5.2 4.13-.07.42-.1.86.04 1.26.32.93 1.44 1.39 2.42 1.27s1.85-.68 2.68-1.22c2 2.68 6.72 2.55 8.58-.23 2.68 2.62 7.47 2.63 10.17.03.97 1.64 2.95 2.62 4.84 2.39.81-.1 1.57-.41 2.23-.88.89-.63 1.58-1.54 1.9-2.59 0 0 1.13 3.05 3.19 3.17 2.07.13 3.85-.33 4.46-2.31.25 1.12 1.05 2.09 2.06 2.64.46.25.97.41 1.49.46 1.67.15 3.39-.87 4.05-2.41.62 1.52 1.49 1.72 3.12 1.74 1.64.01 3.24-1.02 3.89-2.52.39 1.63 1.98 2.89 3.65 2.89s3.28-1.25 3.67-2.88c.48 1.6 2.18 2.73 3.84 2.56 1.49-.16 2.39-1.05 2.73-2.5.01-.02-.01-.04-.01-.04.01-.01 0-.01 0-.01"/><path d="m50.6016 96.5001v-4.42"/><path d="m62.1602 92.4199v4.23"/><path d="m130.578 139.1s2.6-5.23 5.86-1.71c0 0 2.82-6.41 7.05-1.17 0 0 5.14-6.88 9.2-.47"/></g></svg>