<svg width="105" height="194" viewBox="0 0 105 194" fill="none" xmlns="http://www.w3.org/2000/svg">
<g clip-path="url(#clip0_4068_12404)">
<mask id="mask0_4068_12404" style="mask-type:alpha" maskUnits="userSpaceOnUse" x="0" y="0" width="105" height="194">
<path d="M0 0H105V194H0V0Z" fill="#D9D9D9"/>
</mask>
<g mask="url(#mask0_4068_12404)">
<path d="M20.7004 98.6009C20.7004 97.9009 20.7004 97.4009 20.7004 97.0009C20.8004 96.6009 21.1004 96.1009 21.6004 95.7009C21.9004 95.5009 22.1004 95.4009 22.3004 95.3009C22.6004 95.2009 22.8004 95.1009 23.1004 94.9009C24.8004 94.1009 26.4004 93.2009 27.9004 92.2009C29.4004 91.2009 31.0004 90.1009 32.7004 89.0009C39.9004 84.7009 46.9004 79.9009 53.7004 74.7009C60.5004 69.3009 66.9004 64.0009 73.1004 58.8009C73.4004 58.2009 73.8004 57.6009 74.4004 57.2009C75.0004 56.8009 75.6004 56.3009 76.0004 55.9009C77.2004 54.9009 78.2004 53.9009 79.2004 52.8009C80.3004 51.7009 81.3004 50.6009 82.4004 49.3009C82.6004 49.2009 82.5004 49.1009 82.3004 48.9009C82.1004 48.7009 82.1004 48.6009 82.3004 48.5009C83.7004 46.7009 85.1004 44.8009 86.3004 42.7009C87.5004 40.6009 88.2004 38.0009 88.2004 34.9009C88.1004 31.2009 86.9004 28.4009 84.6004 26.7009C82.4004 24.9009 79.7004 23.7009 76.7004 23.0009C75.1004 22.6009 73.4004 22.3009 71.5004 22.2009C69.6004 22.0009 67.8004 21.9009 66.0004 21.9009C64.9004 21.9009 63.8004 22.0009 62.7004 22.3009C61.6004 22.5009 60.6004 22.7009 59.6004 22.8009C59.5004 23.0009 59.6004 23.1009 59.7004 23.2009C60.0004 23.2009 60.1004 23.2009 60.0004 23.2009L59.9004 23.3009H59.6004V23.2009C59.6004 23.0009 59.5004 22.9009 59.3004 22.9009C58.1004 23.4009 57.1004 23.5009 56.1004 23.0009C55.1004 22.5009 54.1004 21.8009 53.2004 21.1009C52.9004 20.7009 52.7004 20.3009 52.4004 19.9009C52.1004 19.5009 52.0004 19.0009 51.9004 18.6009C52.1004 17.8009 52.7004 17.2009 53.8004 16.9009C55.0004 16.5009 55.9004 16.2009 56.7004 16.0009C58.2004 15.5009 59.6004 15.1009 60.8004 14.8009C62.0004 14.4009 63.6004 14.2009 65.5004 14.0009C69.4004 13.9009 73.1004 14.4009 76.6004 15.3009C80.1004 16.3009 83.1004 17.5009 85.7004 18.9009C88.3004 20.3009 90.6004 22.6009 92.8004 25.7009C93.8004 27.2009 94.7004 28.9009 95.6004 30.8009C96.5004 32.6009 96.9004 34.6009 96.9004 37.0009C97.0004 39.1009 96.7004 41.2009 96.0004 43.3009C95.4004 45.3009 94.7004 47.0009 93.9004 48.7009C93.0004 50.6009 92.0004 52.3009 91.0004 53.9009C90.0004 55.4009 89.0004 56.8009 87.8004 58.2009C85.3004 61.1009 82.5004 63.6009 79.5004 66.0009C76.6004 68.2009 73.7004 70.4009 70.8004 72.6009C67.9004 74.9009 64.8004 77.2009 61.7004 79.3009C58.6004 81.4009 55.4004 83.5009 52.2004 85.6009C45.8004 89.8009 39.1004 93.8009 32.2004 97.6009C41.8004 98.2009 51.1004 99.4009 60.0004 101.201C69.0004 102.901 77.7004 104.901 86.1004 107.201C88.1004 107.901 90.1004 108.601 92.1004 109.201C94.2004 109.901 96.4004 110.501 98.5004 111.101C99.7004 111.501 100.8 111.901 101.7 112.301C102.7 112.701 103.6 113.401 104.4 114.201H103.7C103.9 114.301 104 114.301 104 114.301C104 114.401 104 114.501 104.1 114.601C102.7 114.701 101.2 114.501 99.8004 113.901C98.5004 113.401 97.0004 113.301 95.4004 113.801C96.0004 113.801 96.7004 114.101 97.4004 114.601C97.9004 114.801 98.4004 114.901 98.9004 114.901C99.4004 115.001 99.9004 115.101 100.4 115.301C100.5 115.401 100.5 115.501 100.5 115.601C100.5 115.801 100.5 115.901 100.6 115.901C99.9004 116.001 99.2004 115.801 98.6004 115.401C98.0004 115.001 97.5004 115.101 97.1004 115.501C90.7004 114.001 84.1004 112.601 77.5004 111.301C70.9004 110.101 64.3004 109.001 57.6004 108.001C54.2004 107.301 50.8004 106.701 47.4004 106.301C44.1004 105.901 40.8004 105.401 37.5004 105.001C35.7004 104.801 33.8004 104.701 31.9004 104.601C30.0004 104.601 28.2004 104.501 26.6004 104.201C25.0004 103.901 23.6004 103.401 22.5004 102.601C21.2004 101.601 20.7004 100.301 20.7004 98.6009V98.6009ZM18.2004 97.3009C17.3004 99.5009 16.6004 101.201 16.2004 102.301C15.8004 103.501 15.5004 104.501 15.1004 105.401C14.8004 106.301 14.5004 107.301 14.2004 108.501C13.8004 109.701 13.3004 111.401 12.5004 113.601C11.4004 116.201 10.6004 119.101 10.1004 122.401C9.70039 122.601 9.30039 122.901 9.20039 123.301C9.00039 123.701 8.80039 124.301 8.50039 124.901C8.40039 125.201 8.20039 125.201 7.80039 125.001C7.40039 124.801 7.10039 124.701 6.70039 124.701C6.50039 124.701 6.30039 124.701 6.20039 124.801C6.10039 124.901 6.00039 124.901 5.80039 124.801C5.40039 124.601 5.20039 124.401 5.00039 124.301C4.80039 124.101 4.50039 124.001 4.10039 123.901C3.80039 124.001 3.60039 124.101 3.30039 124.201C2.90039 124.401 2.60039 124.401 2.20039 124.201C1.80039 122.401 1.80039 120.701 2.20039 119.101C2.60039 117.501 3.10039 115.801 3.50039 114.001L7.50039 100.501C9.30039 95.6009 10.9004 90.8009 12.4004 86.2009C14.0004 81.6009 15.8004 77.0009 17.7004 72.4009C21.0004 64.5009 24.3004 56.6009 27.7004 48.8009C31.2004 40.9009 34.7004 33.2009 38.4004 25.6009C38.8004 25.1009 39.0004 24.5009 39.2004 24.0009C39.5004 23.5009 39.8004 22.8009 40.1004 22.1009C40.3004 21.6009 40.5004 21.0009 40.8004 20.4009C41.1004 19.8009 41.3004 19.4009 41.6004 19.2009C42.0004 18.7009 42.7004 18.4009 43.5004 18.3009C44.4004 18.1009 45.1004 17.9009 45.6004 17.8009C46.8004 17.7009 48.0004 18.0009 49.2004 18.6009C50.4004 19.2009 51.2004 19.8009 51.3004 20.5009C51.7004 21.1009 51.8004 21.7009 51.8004 22.2009C51.9004 22.7009 52.0004 23.3009 52.2004 23.8009C52.0004 23.8009 51.8004 24.1009 51.4004 24.6009C51.3004 24.8009 51.4004 24.8009 51.8004 24.7009C52.2004 24.6009 52.2004 24.7009 51.9004 24.8009C52.0004 25.1009 51.9004 25.2009 51.6004 25.1009C51.3004 24.9009 51.1004 24.8009 50.9004 24.8009C50.7004 25.1009 50.6004 25.3009 50.6004 25.6009C51.0004 25.9009 51.0004 26.0009 51.0004 26.2009C50.6004 26.2009 50.4004 26.4009 50.2004 26.7009C47.0004 32.1009 44.0004 37.5009 41.1004 43.1009C38.2004 48.7009 35.6004 54.2009 33.0004 59.9009C30.4004 65.5009 27.9004 71.6009 25.4004 78.2009C23.0004 84.9009 20.6004 91.2009 18.2004 97.3009V97.3009Z" fill="white"/>
</g>
</g>
<defs>
<clipPath id="clip0_4068_12404">
<rect width="105" height="194" fill="white"/>
</clipPath>
</defs>
</svg>
