<svg width="88" height="194" viewBox="0 0 88 194" fill="none" xmlns="http://www.w3.org/2000/svg">
<g clip-path="url(#clip0_4068_12254)">
<mask id="mask0_4068_12254" style="mask-type:alpha" maskUnits="userSpaceOnUse" x="0" y="0" width="88" height="194">
<path d="M0 0H88V194H0V0Z" fill="#D9D9D9"/>
</mask>
<g mask="url(#mask0_4068_12254)">
<path d="M25.8002 121.101C28.4002 120.301 30.4002 119.501 32.0002 118.601C33.7002 117.601 35.0002 116.401 35.8002 114.901C36.8002 113.401 37.4002 111.601 37.7002 109.401C38.1002 107.201 38.3002 104.401 38.3002 100.901V18.8008H50.7002V100.901C50.7002 104.401 50.8002 107.201 51.1002 109.401C51.5002 111.601 52.1002 113.401 53.0002 114.901C54.0002 116.401 55.3002 117.601 56.8002 118.601C58.5002 119.501 60.6002 120.301 63.2002 121.101H25.8002ZM5.1002 18.8008H27.0002C24.3002 19.8008 21.9002 20.9008 19.8002 22.2008C17.6002 23.4008 15.6002 24.9008 13.7002 26.6008C11.8002 28.3008 10.0002 30.3008 8.1002 32.7008C6.2002 35.0008 4.3002 37.7008 2.2002 40.9008L5.1002 18.8008ZM87.0002 40.9008C85.0002 37.8008 83.2002 35.2008 81.4002 32.9008C79.6002 30.5008 77.8002 28.5008 75.9002 26.8008C74.0002 25.0008 72.0002 23.5008 69.7002 22.2008C67.5002 20.9008 65.0002 19.8008 62.2002 18.8008H84.0002L87.0002 40.9008Z" fill="white"/>
</g>
</g>
<defs>
<clipPath id="clip0_4068_12254">
<rect width="88" height="194" fill="white"/>
</clipPath>
</defs>
</svg>
