<svg width="68" height="194" viewBox="0 0 68 194" fill="none" xmlns="http://www.w3.org/2000/svg">
<g clip-path="url(#clip0_4068_12429)">
<mask id="mask0_4068_12429" style="mask-type:alpha" maskUnits="userSpaceOnUse" x="0" y="0" width="68" height="194">
<path d="M0 0H68V194H0V0Z" fill="#D9D9D9"/>
</mask>
<g mask="url(#mask0_4068_12429)">
<path d="M2 122.902C6.3 119.102 9.1 115.102 10.6 111.002C12.1 106.702 12.8 102.002 12.8 96.7016C12.8 95.1016 12.8 93.6016 12.7 92.3016C12.6 90.8016 12.5 89.6016 12.4 88.5016C12 84.2016 11.8 81.1016 11.8 79.1016C11.8 75.6016 12.3 72.3016 13.2 69.4016C14.1 66.4016 15.5 63.1016 17.2 59.3016C19.1 55.1016 20.6 51.4016 21.5 48.2016C22.5 45.0016 23 41.3016 23 37.1016C23 31.9016 22.7 27.8016 22.2 24.7016C21.6 21.6016 20.6 18.4016 19 15.1016L20.3 14.1016C23 17.0016 26 19.0016 29.4 20.2016C32.8 21.4016 37 22.4016 42.2 23.3016L47.1 24.1016C54 25.4016 59 28.1016 62.1 32.3016C65.3 36.5016 66.8 41.6016 66.8 47.7016C66.8 50.8016 66.4 53.5016 65.5 55.9016C64.7 58.3016 63.4 61.1016 61.7 64.4016C60.1 67.5016 58.9 70.2016 58.1 72.3016C57.4 74.4016 57 76.8016 57 79.5016C57 81.3016 57.1 82.8016 57.4 84.1016C57.7 85.4016 57.9 86.2016 58 86.5016C58.6 88.7016 59 91.0016 59 93.3016C59 98.2016 57.7 102.602 55.2 106.402C52.7 110.102 49.3 113.002 45 115.202C40.8 117.302 36.3 118.502 31.4 118.802L27.1 119.102C20.5 119.502 15.4 119.902 11.8 120.502C8.2 121.102 5.1 122.202 2.6 124.002L2 122.902ZM17.3 113.202C18.6 112.202 20 111.502 21.6 111.102C23.2 110.602 25.5 110.202 28.4 109.802L31.5 109.402C35.9 108.802 39.7 106.902 42.9 103.602C46.2 100.302 47.9 96.3016 47.9 91.7016C47.9 90.8016 47.6 88.9016 47.1 86.1016C46.4 82.6016 46 79.7016 46 77.3016C46 74.1016 46.5 71.4016 47.4 69.2016C48.4 67.0016 49.9 64.5016 51.7 61.7016C53.4 59.2016 54.6 57.0016 55.5 55.2016C56.3 53.3016 56.8 51.0016 56.8 48.4016C56.8 44.7016 55.9 41.4016 54 38.5016C52.2 35.5016 49.7 33.5016 46.5 32.5016C44.7 32.0016 42.9 31.7016 40.9 31.5016C38.4 31.3016 36.3 30.9016 34.6 30.2016C32.9 29.6016 31.3 28.1016 29.7 25.9016L28.7 26.6016C29 26.9016 29.6 27.6016 30.5 28.8016C31.4 29.9016 32.1 31.4016 32.4 33.2016C32.8 35.1016 33 37.5016 33 40.6016C33 44.0016 32.5 47.4016 31.5 50.6016C30.6 53.8016 29.2 57.9016 27.3 62.7016C25.6 67.0016 24.4 70.3016 23.7 72.8016C23 75.2016 22.6 77.6016 22.6 80.0016C22.6 81.4016 22.6 82.8016 22.7 84.2016C22.9 85.6016 23 86.6016 23 87.3016C23.4 90.3016 23.6 93.0016 23.6 95.5016C23.6 99.8016 23.1 103.002 22.2 105.402C21.4 107.702 19.5 109.902 16.6 112.102L17.3 113.202Z" fill="white"/>
</g>
</g>
<defs>
<clipPath id="clip0_4068_12429">
<rect width="68" height="194" fill="white"/>
</clipPath>
</defs>
</svg>
