<svg width="103" height="194" viewBox="0 0 103 194" fill="none" xmlns="http://www.w3.org/2000/svg">
<g clip-path="url(#clip0_4068_12259)">
<mask id="mask0_4068_12259" style="mask-type:alpha" maskUnits="userSpaceOnUse" x="0" y="0" width="103" height="194">
<path d="M0 0H103V194H0V0Z" fill="#D9D9D9"/>
</mask>
<g mask="url(#mask0_4068_12259)">
<path d="M46.6 122.099L23.1 58.7992C20.3 51.0992 18 44.8992 16.2 40.0992C14.3 35.3992 12.6 31.5992 11 28.6992C9.4 25.7992 7.8 23.6992 6.1 22.2992C4.5 20.8992 2.7 19.6992 0.5 18.6992H35.8C32.7 19.6992 30.5 20.7992 29 21.9992C27.6 23.0992 26.9 24.8992 26.9 27.4992C26.9 30.3992 27.6 34.1992 29.1 39.0992C30.7 43.8992 32.9 50.3992 35.8 58.3992L57.4 117.099L55.8 122.099H46.6ZM102.4 18.7992C100 19.9992 97.9 21.4992 95.9 23.1992C94 24.9992 92 27.4992 90 30.7992C88 34.0992 85.9 38.3992 83.6 43.6992C81.3 48.8992 78.7 55.6992 75.6 63.9992C77.3 56.8992 78.9 50.5992 80.5 44.9992C82.2 39.4992 83 34.6992 83 30.7992C83 27.4992 82.2 24.8992 80.6 22.8992C79 20.8992 76.2 19.4992 72 18.6992H102.4V18.7992Z" fill="white"/>
</g>
</g>
<defs>
<clipPath id="clip0_4068_12259">
<rect width="103" height="194" fill="white"/>
</clipPath>
</defs>
</svg>
