<svg width="64" height="194" viewBox="0 0 64 194" fill="none" xmlns="http://www.w3.org/2000/svg">
<g clip-path="url(#clip0_4068_12434)">
<mask id="mask0_4068_12434" style="mask-type:alpha" maskUnits="userSpaceOnUse" x="0" y="0" width="64" height="194">
<path d="M0 0H64V194H0V0Z" fill="#D9D9D9"/>
</mask>
<g mask="url(#mask0_4068_12434)">
<path d="M1 119.001C4.6 116.401 7 113.401 8.1 109.801C9.3 106.201 9.9 101.301 9.9 95.2008C9.9 93.6008 9.9 92.1008 9.8 90.8008C9.7 89.3008 9.6 88.1008 9.5 87.0008C9.1 82.7008 8.9 79.6008 8.9 77.6008C8.9 73.3008 9.4 69.7008 10.3 66.8008C11.3 63.7008 12.8 60.3008 14.6 56.4008C16.4 52.5008 17.8 49.2008 18.8 46.4008C19.7 43.6008 20.2 40.2008 20.2 36.3008C20.2 32.4008 19.9 28.9008 19.4 26.0008C18.8 23.0008 17.8 20.0008 16.2 16.8008L17.2 15.8008C20.8 19.4008 25 21.2008 29.6 21.2008C31.3 21.2008 33.8 20.8008 37.1 20.1008C37.4 20.0008 38.4 19.8008 40.2 19.4008C42.1 19.0008 43.9 18.8008 45.8 18.8008C50.3 18.8008 54 20.2008 57.1 23.1008C58.6 24.5008 60 26.1008 61.3 27.8008C62.4 29.3008 63.2 30.3008 63.8 30.9008L62.7 31.9008C59.7 29.9008 56.3 28.8008 52.5 28.8008C50.8 28.8008 48.4 29.2008 45.3 29.9008C42 30.6008 39.2 31.0008 37.1 31.0008C34.8 31.0008 32.9 30.7008 31.4 30.0008C30 29.3008 28.5 28.0008 26.9 26.2008L25.9 26.9008C29.1 30.6008 30.6 35.3008 30.6 41.1008C30.6 45.0008 30.1 48.2008 29.1 50.7008C28.2 53.1008 26.7 55.8008 24.8 58.8008L22.9 61.9008L23.7 62.3008C26.3 60.3008 28.7 59.2008 30.8 59.2008C33.1 59.2008 35.8 59.7008 38.7 60.6008C41.2 61.4008 43.4 61.9008 45.2 61.9008C47.8 61.9008 49.8 61.7008 51.3 61.2008C52.9 60.6008 54.1 59.7008 55.1 58.4008L56.4 59.2008C55.7 60.5008 55.1 61.5008 54.9 62.1008C53.3 65.2008 51.7 67.6008 50 69.2008C48.4 70.8008 46 71.6008 42.8 71.6008C41.2 71.6008 39.7 71.4008 38.3 71.0008C37 70.6008 35.4 70.1008 33.4 69.3008C30.4 68.1008 28.1 67.5008 26.4 67.5008C24.4 67.5008 22.6 68.2008 21.2 69.6008C19.9 71.0008 19.3 73.1008 19.3 75.9008C19.3 77.3008 19.4 78.8008 19.6 80.3008C19.8 81.8008 19.9 82.8008 20 83.5008C20.6 87.0008 21 90.6008 21 94.2008C21 96.8008 20.8 98.7008 20.4 100.001C20 101.201 19.3 102.501 18.2 103.901C17.2 105.201 16.1 106.401 15 107.401C13.9 108.301 13.1 109.001 12.6 109.301L13.4 109.901C15.3 108.501 16.7 107.601 17.9 107.101C19.1 106.501 21 106.301 23.6 106.301C25.5 106.301 28 106.701 30.8 107.601C31.2 107.701 32.1 107.901 33.6 108.301C35.1 108.701 36.6 108.901 38.2 108.901C41.2 108.901 43.4 108.601 44.9 108.101C46.5 107.501 48.1 106.601 49.6 105.201L50.9 106.201C49.8 107.201 48.4 108.801 46.7 111.101C44.8 113.701 42.8 115.601 41 116.901C39.2 118.101 36.5 118.701 32.9 118.701C29.6 118.701 25.8 118.101 21.8 117.001C18.9 116.201 16.5 115.801 14.4 115.801C12 115.801 9.9 116.101 8.1 116.601C6.4 117.201 4.4 118.401 2 120.201L1 119.001Z" fill="white"/>
</g>
</g>
<defs>
<clipPath id="clip0_4068_12434">
<rect width="64" height="194" fill="white"/>
</clipPath>
</defs>
</svg>
