<svg width="109" height="194" viewBox="0 0 109 194" fill="none" xmlns="http://www.w3.org/2000/svg">
<g clip-path="url(#clip0_4068_12394)">
<mask id="mask0_4068_12394" style="mask-type:alpha" maskUnits="userSpaceOnUse" x="0" y="0" width="109" height="194">
<path d="M0 0H109V194H0V0Z" fill="#D9D9D9"/>
</mask>
<g mask="url(#mask0_4068_12394)">
<path d="M9.90017 123.802C11.9002 124.902 13.9002 125.602 15.9002 125.902C17.9002 126.302 20.0002 126.402 22.0002 126.402C24.0002 126.402 26.1002 126.302 28.0002 126.002C30.0002 125.802 32.1002 125.602 34.1002 125.502C36.5002 125.202 38.9002 124.802 41.2002 124.302C43.5002 123.902 45.8002 123.402 48.1002 123.002C52.4002 122.002 55.6002 121.202 57.9002 120.602C60.1002 120.102 61.8002 119.602 63.0002 119.302C64.2002 119.002 65.2002 118.802 65.8002 118.502C66.5002 118.302 67.4002 118.002 68.5002 117.602C69.7002 117.202 71.3002 116.502 73.3002 115.702C75.4002 115.002 78.6002 114.002 82.7002 112.602C83.5002 112.302 84.2002 112.102 84.7002 111.902C85.3002 111.802 86.1002 111.602 87.0002 111.402C89.9002 110.502 92.1002 109.702 93.8002 109.102C95.6002 108.602 97.1002 108.202 98.3002 107.902C99.6002 107.702 100.9 107.702 102 107.802C103.2 107.902 104.7 108.102 106.4 108.502C106.6 108.702 106.7 108.902 106.8 109.202C106.9 109.502 107 109.702 107.2 109.902C106.6 111.002 105.7 111.602 104.7 111.802C103.6 112.002 102.7 112.402 101.9 113.002L101.1 113.902C100.8 114.102 100.5 114.202 100.2 114.202C99.9002 114.202 99.6002 114.302 99.3002 114.502C99.0002 114.602 98.8002 114.702 98.5002 114.902C98.3002 115.102 98.1002 115.202 98.0002 115.302L91.9002 117.402C87.3002 119.002 82.8002 120.602 78.5002 122.102C74.3002 123.702 70.1002 125.202 65.8002 126.502C61.6002 127.802 57.3002 129.002 52.8002 130.002C48.4002 131.102 43.8002 131.802 39.0002 132.302C35.3002 133.002 31.4002 133.402 27.4002 133.502C23.4002 133.702 19.2002 133.302 14.7002 132.302C13.0002 131.802 11.3002 131.002 9.50017 130.002C7.70017 129.002 6.10017 127.802 4.70017 126.402C3.30017 125.102 2.20017 123.502 1.50017 121.602C0.800167 119.802 0.700167 117.802 1.10017 115.602C1.10017 115.402 1.10017 115.202 1.20017 115.102C1.30017 115.002 1.40017 114.902 1.50017 114.702C2.30017 111.802 3.50017 109.002 5.20017 106.502C6.80017 104.102 8.50017 101.902 10.3002 99.8019C11.2002 98.6019 12.7002 97.0019 14.8002 95.0019C16.8002 92.9019 19.0002 90.8019 21.2002 88.7019C23.5002 86.6019 25.7002 84.5019 27.9002 82.7019C30.0002 80.7019 31.6002 79.4019 32.7002 78.5019C37.2002 75.3019 41.7002 72.3019 46.2002 69.7019C50.7002 66.9019 55.3002 64.2019 59.8002 61.5019C57.8002 61.5019 55.9002 61.6019 53.9002 61.9019C51.9002 62.2019 50.1002 62.0019 48.3002 61.5019C47.4002 61.1019 46.6002 60.7019 45.9002 60.0019C45.3002 59.4019 44.7002 58.8019 44.3002 58.1019C43.8002 57.5019 43.2002 56.9019 42.6002 56.2019C42.1002 55.5019 41.6002 54.7019 41.3002 53.9019C41.0002 53.1019 40.9002 52.2019 40.9002 51.4019C41.0002 50.5019 41.4002 49.6019 42.2002 48.6019C42.9002 47.7019 43.8002 46.9019 44.9002 46.1019C46.0002 45.0019 47.0002 44.2019 48.0002 43.5019C49.2002 42.7019 50.3002 42.0019 51.3002 41.4019C52.5002 40.7019 53.6002 40.0019 54.6002 39.4019C60.3002 36.3019 66.1002 33.3019 72.0002 30.6019C77.9002 27.7019 84.4002 25.7019 91.5002 24.4019C92.5002 24.2019 93.5002 24.1019 94.6002 24.0019C95.8002 23.8019 97.0002 23.7019 98.2002 23.6019C98.9002 23.3019 99.9002 23.1019 101.3 22.8019C102.7 22.5019 103.9 22.7019 104.9 23.3019C105.5 23.7019 106 24.3019 106.2 25.0019C106.6 25.7019 107 26.3019 107.5 26.9019C107.5 27.1019 107.4 27.3019 107.2 27.7019C107.1 28.0019 107.1 28.2019 107.1 28.4019C107.9 28.8019 108 29.2019 107.5 29.6019C107 30.0019 106.1 30.3019 105 30.7019C103.9 31.1019 102.7 31.4019 101.3 31.6019C100 31.9019 98.9002 32.1019 98.0002 32.3019C94.0002 32.7019 90.1002 33.5019 86.4002 34.7019C82.7002 35.9019 79.2002 37.2019 75.8002 38.7019L63.0002 45.3019C60.9002 46.5019 58.7002 47.7019 56.6002 48.9019C54.6002 50.1019 52.7002 51.5019 51.0002 53.3019C56.3002 53.6019 61.6002 53.4019 67.0002 52.9019C72.4002 52.3019 77.8002 51.7019 83.0002 51.0019H85.7002C86.7002 50.9019 87.6002 50.8019 88.4002 50.7019C89.3002 50.6019 90.1002 50.4019 90.9002 50.2019C91.8002 49.9019 92.6002 49.8019 93.4002 49.9019C94.1002 49.9019 95.0002 50.0019 96.1002 50.3019C97.2002 50.6019 97.9002 50.8019 98.4002 51.0019C98.7002 51.4019 98.8002 51.7019 98.8002 52.1019C98.9002 52.4019 99.0002 52.6019 99.1002 52.8019C99.5002 53.2019 99.8002 53.6019 100.2 53.9019C100.6 54.2019 100.8 54.6019 101 55.1019C100.7 55.4019 100.4 55.6019 100.1 55.9019C99.8002 56.1019 99.7002 56.5019 99.8002 57.2019C99.2002 56.8019 98.7002 56.8019 98.3002 57.2019C98.0002 57.6019 97.7002 57.8019 97.2002 58.0019C97.0002 58.1019 96.8002 58.1019 96.5002 58.0019C96.3002 57.9019 96.1002 57.9019 95.8002 57.9019C94.6002 57.9019 93.2002 58.2019 91.7002 58.8019C90.2002 59.3019 88.7002 59.8019 87.2002 60.3019C84.1002 61.3019 81.3002 62.2019 78.8002 63.1019C75.9002 63.9019 73.0002 64.8019 70.2002 65.9019C67.4002 66.9019 64.9002 68.0019 62.5002 69.4019C59.9002 70.7019 56.8002 72.7019 53.3002 75.2019C49.8002 77.6019 46.3002 80.2019 42.6002 83.0019C38.9002 85.7019 35.4002 88.4019 32.0002 91.2019C28.7002 93.9019 26.0002 96.2019 24.0002 98.2019V98.3019H24.3002C24.3002 98.2019 24.3002 98.2019 24.4002 98.2019C23.6002 99.0019 22.8002 99.8019 22.0002 100.602C21.3002 101.302 20.5002 102.202 19.6002 103.102C18.8002 103.802 18.0002 104.602 17.3002 105.502C16.5002 106.402 15.7002 107.302 14.9002 108.302C14.1002 109.102 13.3002 110.102 12.5002 111.202C11.7002 112.402 11.0002 113.702 10.5002 115.102C10.0002 116.502 9.60017 118.002 9.40017 119.502C9.20017 120.902 9.40017 122.402 9.90017 123.802V123.802Z" fill="white"/>
</g>
</g>
<defs>
<clipPath id="clip0_4068_12394">
<rect width="109" height="194" fill="white"/>
</clipPath>
</defs>
</svg>
